<?xml version="1.0" standalone="no"?>
 <!DOCTYPE svg PUBLIC "-//W3C//DTD SVG 1.1//EN" 
 "http://www.w3.org/Graphics/SVG/1.1/DTD/svg11.dtd"> 
<svg
  xmlns:svg="http://www.w3.org/2000/svg"
  xmlns="http://www.w3.org/2000/svg"
  xmlns:xlink="http://www.w3.org/1999/xlink"
  version="1.1"
  width="7.208520cm" height="10.007600cm" viewBox="0 0 28380 39400">
<title>SVG Picture created as Teebeutel-B_Mask.svg date 2021/11/10 13:10:25 </title>
  <desc>Picture generated by PCBNEW </desc>
<g style="fill:#000000; fill-opacity:1;stroke:#000000; stroke-opacity:1;
stroke-linecap:round; stroke-linejoin:round;"
 transform="translate(0 0) scale(1 1)">
</g>
<g style="fill:#000000; fill-opacity:0.0; 
stroke:#000000; stroke-width:-0.000393701; stroke-opacity:1; 
stroke-linecap:round; stroke-linejoin:round;">
</g>
<g style="fill:#000000; fill-opacity:1.0; 
stroke:#000000; stroke-width:3.93701; stroke-opacity:1; 
stroke-linecap:round; stroke-linejoin:round;">
<path style="fill:#000000; fill-opacity:1.0; 
stroke:#000000; stroke-width:3.93701; stroke-opacity:1; 
stroke-linecap:round; stroke-linejoin:round;fill-rule:evenodd;"
d="M 3912.8,25511.6
3802.31,25516
3695.73,25523.7
3596,25534.5
3506.06,25548.1
3428.86,25564.4
3372.54,25581.2
3278.16,25623.6
3194.98,25678
3124.39,25743.1
3067.8,25817.4
3026.63,25899.5
3010.54,25949.4
3007.45,25963.7
3004.83,25981.9
3002.64,26005.5
3000.85,26036.1
2999.43,26075.2
2998.32,26124.1
2997.51,26184.5
2996.95,26257.8
2996.6,26345.5
2996.43,26449.2
2996.4,26532.2
2996.59,26666
2997.17,26782.8
2998.12,26882.5
2999.45,26964.7
3001.15,27029.2
3003.21,27075.8
3005.64,27104.3
3006.53,27109.7
3034.03,27198.1
3077.8,27279.1
3136.74,27351.2
3209.77,27413.4
3295.81,27464.5
3342,27484.8
3351.47,27487.9
3364.39,27490.6
3382.11,27492.9
3406.01,27494.9
3437.46,27496.6
3477.83,27498.1
3528.5,27499.4
3590.82,27500.7
3666.18,27501.8
3755.93,27502.8
3861.46,27503.9
3979.78,27505
4099.8,27506
4202.82,27507
4290.3,27507.9
4363.72,27508.8
4424.54,27509.8
4474.23,27511
4514.26,27512.3
4546.08,27513.9
4571.17,27515.9
4591,27518.2
4607.03,27520.9
4620.72,27524.1
4633.55,27527.8
4644.6,27531.4
4722.84,27562.1
4792.1,27600.7
4857.84,27650.7
4908.35,27697.9
4948.33,27739.7
4978.07,27775.5
5001.74,27810.9
5023.48,27851.5
5025.54,27855.7
5043.98,27895.8
5058.75,27933.6
5070.25,27972.1
5078.86,28013.8
5084.98,28061.5
5089,28117.9
5091.31,28185.8
5092.3,28267.9
5092.43,28321.7
5092.43,28566.7
5307.11,28565.9
5393.84,28565
5462.8,28563.1
5514.68,28560.1
5550.14,28556
5563.34,28553.1
5650.69,28518.6
5729.03,28468.1
5797.85,28402.1
5856.67,28321
5890.35,28258.3
5922.25,28179.9
5951.21,28087.2
5976.46,27984.1
5997.23,27874.7
6012.74,27763
6022.22,27653
6024.95,27563.1
6022.03,27476
6013.66,27381.1
6000.62,27283
5983.69,27186.1
5963.63,27095.1
5941.23,27014.4
5922.92,26962.4
5875.62,26865.7
5815.75,26780.9
5744.5,26709.2
5663.08,26652.1
5634.05,26636.6
5610.04,26624.6
5588.91,26614.1
5569.3,26605
5549.89,26597.2
5529.31,26590.5
5506.24,26585
5479.31,26580.4
5447.2,26576.7
5408.56,26573.7
5362.04,26571.5
5306.29,26569.8
5239.98,26568.5
5161.76,26567.6
5070.29,26566.9
4964.22,26566.4
4842.2,26565.9
4720.77,26565.4
3984.39,26562.3
3984.39,26443
4972.39,26443
4972.11,26228.3
4971.34,26128.8
4969.08,26045.4
4967.23,26014.4
4719.96,26014.4
4707.34,26069.4
4679.89,26117.6
4642.84,26152.6
4595.93,26175.3
4543.84,26184.6
4491.29,26179.5
4456.1,26166.4
4410.37,26133.9
4378.31,26092.2
4359.93,26044.4
4355.25,25993.9
4364.26,25943.6
4386.98,25897
4423.41,25857.1
4455.31,25835.8
4505.85,25818.5
4558.59,25817.2
4609.42,25831
4654.21,25858.6
4688.87,25898.8
4690.37,25901.3
4714.32,25958
4719.96,26014.4
4967.23,26014.4
4964.95,25976.1
4958.57,25918.6
4949.57,25870.7
4937.57,25830.2
4922.2,25794.9
4903.09,25762.6
4889.65,25743.7
4841.91,25693.6
4778.27,25649.7
4698.42,25611.7
4602.08,25579.7
4488.94,25553.4
4358.72,25532.9
4238.32,25520.1
4133.75,25513.5
4024.26,25510.7
Z" /> 
<path style="fill:#000000; fill-opacity:1.0; 
stroke:#000000; stroke-width:3.93701; stroke-opacity:1; 
stroke-linecap:round; stroke-linejoin:round;fill-rule:evenodd;"
d="M 2620.13,26563.2
2535.98,26563.8
2467.47,26565.6
2411.8,26569.2
2366.15,26574.8
2327.73,26582.8
2293.72,26593.6
2261.32,26607.6
2250.61,26612.9
2191.01,26650.6
2137.33,26700.1
2089.11,26762.4
2045.92,26838.4
2007.31,26928.9
1972.83,27035
1942.04,27157.4
1914.49,27297.2
1913.69,27301.7
1906.1,27349.3
1900.62,27394.4
1896.95,27441.6
1894.81,27495.6
1893.89,27560.7
1893.81,27606.4
1894.82,27693.8
1898.18,27767.7
1904.75,27833.4
1915.35,27896
1930.84,27960.3
1952.06,28031.6
1976.66,28105.7
2015.27,28210
2054.32,28297.4
2094.97,28369.7
2138.36,28428.6
2185.63,28475.7
2237.92,28512.8
2264.66,28527.2
2335.22,28562.1
3134.41,28566.7
3933.61,28571.4
3939.07,28696
2950.23,28696
2950.23,28911.1
2950.86,29001.3
2953.27,29075.7
2958.23,29137
2966.52,29187.9
2978.92,29230.8
2996.21,29268.6
3019.16,29303.8
3048.55,29339.2
3085.15,29377.3
3087.72,29379.8
3150.5,29434.3
3222.79,29481.9
3306.61,29523.4
3404.02,29559.9
3517.04,29592.3
3553.77,29601.3
3665.89,29623
3785.53,29637.8
3906.79,29645.4
4023.74,29645.3
4130.49,29637.2
4136.42,29636.5
4200.09,29626.4
4273.73,29611.6
4350.44,29593.7
4423.33,29574.4
4485.53,29555.2
4491.52,29553.1
4600.04,29508.2
4694.66,29454.2
4774.57,29391.8
4838.96,29321.8
4887.03,29244.7
4900.25,29215.2
4904.79,29203.7
4908.64,29192.5
4911.87,29180
4914.55,29164.7
4916.73,29145
4917.19,29138.3
3566.02,29138.3
3556.6,29189.1
3533.94,29234.4
3500.54,29271.9
3458.86,29299.7
3411.39,29315.7
3360.62,29317.9
3309.02,29304.1
3300.17,29300
3278.93,29285.4
3255.03,29263.5
3248.05,29255.9
3217.13,29208.9
3202.18,29159.3
3201.7,29109.6
3214.14,29062.5
3238,29020.2
3271.74,28985.5
3313.85,28960.8
3362.8,28948.6
3417.07,28951.4
3430.55,28954.6
3473.82,28974.6
3513.59,29007.6
3544.6,29048.6
3559.73,29084
3566.02,29138.3
4917.19,29138.3
4918.49,29119.3
4919.89,29086.2
4920.99,29044
4921.86,28991.2
4922.56,28926.2
4923.16,28847.6
4923.73,28753.6
4924.32,28642.8
4924.35,28636
4924.87,28504.5
4924.96,28390.7
4924.61,28294.1
4923.82,28213.9
4922.56,28149.5
4920.84,28100.1
4918.64,28065.1
4916.44,28046.4
4896.27,27971.9
4862.2,27896.6
4817.42,27826.5
4774.55,27776.8
4716.48,27725.8
4654.35,27686.2
4581.48,27653.7
4570.73,27649.8
4559.14,27645.8
4547.34,27642.3
4533.87,27639.4
4517.28,27636.9
4496.11,27634.8
4468.9,27633
4434.21,27631.5
4390.58,27630.2
4336.55,27629.2
4270.67,27628.2
4191.48,27627.3
4097.53,27626.4
3987.36,27625.4
3919.76,27624.8
3800.12,27623.8
3697.49,27622.9
3610.4,27622
3537.37,27621
3476.95,27620
3427.67,27618.9
3388.07,27617.5
3356.67,27615.9
3332.03,27614
3312.66,27611.7
3297.1,27608.9
3283.89,27605.7
3271.57,27602
3264.17,27599.5
3174.69,27560.4
3090.19,27506.5
3014.05,27440.6
2949.66,27365.6
2905.81,27295.1
2885.27,27253.9
2868.79,27216.2
2855.92,27179.2
2846.23,27140.2
2839.29,27096.5
2834.65,27045.2
2831.88,26983.7
2830.54,26909.2
2830.19,26820.1
2830.19,26563
Z" /> 
</g>
<g style="fill:#000000; fill-opacity:1.0; 
stroke:#000000; stroke-width:0.0393701; stroke-opacity:1; 
stroke-linecap:round; stroke-linejoin:round;">
<path style="fill:#000000; fill-opacity:1.0; 
stroke:#000000; stroke-width:0.0393701; stroke-opacity:1; 
stroke-linecap:round; stroke-linejoin:round;fill-rule:evenodd;"
d="M 6092.52,33110.2
6663.39,33110.2
6663.39,33858.3
6220.47,33858.3
6092.52,33730.3
" /> 
<g >
</g>
<g >
</g>
<g >
</g>
<g style="fill:#000000; fill-opacity:1.0; 
stroke:#000000; stroke-width:0.0393701; stroke-opacity:1; 
stroke-linecap:round; stroke-linejoin:round;">
</g>
<g style="fill:#000000; fill-opacity:1.0; 
stroke:#000000; stroke-width:0; stroke-opacity:1; 
stroke-linecap:round; stroke-linejoin:round;">
<path style="fill:#000000; fill-opacity:1.0; 
stroke:#000000; stroke-width:0; stroke-opacity:1; 
stroke-linecap:round; stroke-linejoin:round;fill-rule:evenodd;"
d="M 14844.5,26265.7
14844.5,25793.3
15041.3,25793.3
15041.3,26265.7
Z" /> 
<path style="fill:#000000; fill-opacity:1.0; 
stroke:#000000; stroke-width:0; stroke-opacity:1; 
stroke-linecap:round; stroke-linejoin:round;fill-rule:evenodd;"
d="M 14344.5,26265.7
14344.5,25793.3
14541.3,25793.3
14541.3,26265.7
Z" /> 
<path style="fill:#000000; fill-opacity:1.0; 
stroke:#000000; stroke-width:0; stroke-opacity:1; 
stroke-linecap:round; stroke-linejoin:round;fill-rule:evenodd;"
d="M 13844.5,26265.7
13844.5,25793.3
14041.3,25793.3
14041.3,26265.7
Z" /> 
<path style="fill:#000000; fill-opacity:1.0; 
stroke:#000000; stroke-width:0; stroke-opacity:1; 
stroke-linecap:round; stroke-linejoin:round;fill-rule:evenodd;"
d="M 13344.5,26265.7
13344.5,25793.3
13541.3,25793.3
13541.3,26265.7
Z" /> 
</g>
<g >
</g>
<g >
</g>
<g >
</g>
<g >
</g>
<g >
</g>
<g >
</g>
<g >
</g>
<g >
</g>
<g >
</g>
<g >
</g>
<g >
</g>
<g >
</g>
<g >
</g>
<g >
</g>
<g >
</g>
<g style="fill:#000000; fill-opacity:1.0; 
stroke:#000000; stroke-width:0; stroke-opacity:1; 
stroke-linecap:round; stroke-linejoin:round;">
<path style="fill:#000000; fill-opacity:1.0; 
stroke:#000000; stroke-width:0; stroke-opacity:1; 
stroke-linecap:round; stroke-linejoin:round;fill-rule:evenodd;"
d="M 15925.2,28563
15925.2,27972.4
16476.4,27972.4
16476.4,28563
Z" /> 
<path style="fill:#000000; fill-opacity:1.0; 
stroke:#000000; stroke-width:0; stroke-opacity:1; 
stroke-linecap:round; stroke-linejoin:round;fill-rule:evenodd;"
d="M 15925.2,31122
15925.2,30531.5
16476.4,30531.5
16476.4,31122
Z" /> 
<path style="fill:#000000; fill-opacity:1.0; 
stroke:#000000; stroke-width:0; stroke-opacity:1; 
stroke-linecap:round; stroke-linejoin:round;fill-rule:evenodd;"
d="M 15925.2,29626
15925.2,29114.2
16476.4,29114.2
16476.4,29626
Z" /> 
<path style="fill:#000000; fill-opacity:1.0; 
stroke:#000000; stroke-width:0; stroke-opacity:1; 
stroke-linecap:round; stroke-linejoin:round;fill-rule:evenodd;"
d="M 11909.4,28563
11909.4,27972.4
12460.6,27972.4
12460.6,28563
Z" /> 
<path style="fill:#000000; fill-opacity:1.0; 
stroke:#000000; stroke-width:0; stroke-opacity:1; 
stroke-linecap:round; stroke-linejoin:round;fill-rule:evenodd;"
d="M 11909.4,29626
11909.4,29114.2
12460.6,29114.2
12460.6,29626
Z" /> 
<path style="fill:#000000; fill-opacity:1.0; 
stroke:#000000; stroke-width:0; stroke-opacity:1; 
stroke-linecap:round; stroke-linejoin:round;fill-rule:evenodd;"
d="M 11909.4,31122
11909.4,30531.5
12460.6,30531.5
12460.6,31122
Z" /> 
</g>
<g >
</g>
<g >
</g>
<g >
</g>
<g >
</g>
<g >
</g>
<g style="fill:#000000; fill-opacity:1.0; 
stroke:#000000; stroke-width:0; stroke-opacity:1; 
stroke-linecap:round; stroke-linejoin:round;">
<path style="fill:#000000; fill-opacity:1.0; 
stroke:#000000; stroke-width:0; stroke-opacity:1; 
stroke-linecap:round; stroke-linejoin:round;fill-rule:evenodd;"
d="M 14940.9,1397.64
14940.9,1948.82
14626,1948.82
14626,1397.64
Z" /> 
<path style="fill:#000000; fill-opacity:1.0; 
stroke:#000000; stroke-width:0; stroke-opacity:1; 
stroke-linecap:round; stroke-linejoin:round;fill-rule:evenodd;"
d="M 13759.8,1397.64
13759.8,1948.82
13444.9,1948.82
13444.9,1397.64
Z" /> 
<path style="fill:#000000; fill-opacity:1.0; 
stroke:#000000; stroke-width:0; stroke-opacity:1; 
stroke-linecap:round; stroke-linejoin:round;fill-rule:evenodd;"
d="M 14370.1,1397.64
14370.1,1948.82
14015.7,1948.82
14015.7,1397.64
Z" /> 
</g>
<g >
</g>
<g >
</g>
<g >
</g>
<g >
</g>
<g style="fill:#000000; fill-opacity:1.0; 
stroke:#000000; stroke-width:0; stroke-opacity:1; 
stroke-linecap:round; stroke-linejoin:round;">
<circle cx="16858.3" cy="5763.78" r="295.276" /> 
</g>
<g style="fill:#000000; fill-opacity:1.0; 
stroke:#000000; stroke-width:39.3701; stroke-opacity:1; 
stroke-linecap:round; stroke-linejoin:round;">
</g>
<g style="fill:#000000; fill-opacity:1.0; 
stroke:#000000; stroke-width:0; stroke-opacity:1; 
stroke-linecap:round; stroke-linejoin:round;">
<circle cx="15956.7" cy="5763.78" r="295.276" /> 
</g>
<g style="fill:#000000; fill-opacity:1.0; 
stroke:#000000; stroke-width:39.3701; stroke-opacity:1; 
stroke-linecap:round; stroke-linejoin:round;">
</g>
<g style="fill:#000000; fill-opacity:1.0; 
stroke:#000000; stroke-width:0; stroke-opacity:1; 
stroke-linecap:round; stroke-linejoin:round;">
<circle cx="12358.3" cy="5763.78" r="295.276" /> 
</g>
<g style="fill:#000000; fill-opacity:1.0; 
stroke:#000000; stroke-width:39.3701; stroke-opacity:1; 
stroke-linecap:round; stroke-linejoin:round;">
</g>
<g style="fill:#000000; fill-opacity:1.0; 
stroke:#000000; stroke-width:0; stroke-opacity:1; 
stroke-linecap:round; stroke-linejoin:round;">
<circle cx="11456.7" cy="5763.78" r="295.276" /> 
</g>
<g style="fill:#000000; fill-opacity:1.0; 
stroke:#000000; stroke-width:39.3701; stroke-opacity:1; 
stroke-linecap:round; stroke-linejoin:round;">
</g>
<g style="fill:#000000; fill-opacity:1.0; 
stroke:#000000; stroke-width:0; stroke-opacity:1; 
stroke-linecap:round; stroke-linejoin:round;">
<circle cx="10956.7" cy="3515.75" r="452.756" /> 
</g>
<g style="fill:#000000; fill-opacity:1.0; 
stroke:#000000; stroke-width:39.3701; stroke-opacity:1; 
stroke-linecap:round; stroke-linejoin:round;">
</g>
<g style="fill:#000000; fill-opacity:1.0; 
stroke:#000000; stroke-width:0; stroke-opacity:1; 
stroke-linecap:round; stroke-linejoin:round;">
<circle cx="17358.3" cy="3515.75" r="452.756" /> 
</g>
<g style="fill:#000000; fill-opacity:1.0; 
stroke:#000000; stroke-width:39.3701; stroke-opacity:1; 
stroke-linecap:round; stroke-linejoin:round;">
</g>
<g style="fill:#000000; fill-opacity:1.0; 
stroke:#000000; stroke-width:0; stroke-opacity:1; 
stroke-linecap:round; stroke-linejoin:round;">
<circle cx="16657.5" cy="2165.35" r="639.764" /> 
</g>
<g style="fill:#000000; fill-opacity:1.0; 
stroke:#000000; stroke-width:39.3701; stroke-opacity:1; 
stroke-linecap:round; stroke-linejoin:round;">
</g>
<g style="fill:#000000; fill-opacity:1.0; 
stroke:#000000; stroke-width:0; stroke-opacity:1; 
stroke-linecap:round; stroke-linejoin:round;">
<circle cx="11657.5" cy="2165.35" r="639.764" /> 
</g>
<g style="fill:#000000; fill-opacity:1.0; 
stroke:#000000; stroke-width:39.3701; stroke-opacity:1; 
stroke-linecap:round; stroke-linejoin:round;">
</g>
<g style="fill:#000000; fill-opacity:1.0; 
stroke:#000000; stroke-width:0; stroke-opacity:1; 
stroke-linecap:round; stroke-linejoin:round;">
<circle cx="15555.9" cy="3866.14" r="295.276" /> 
</g>
<g style="fill:#000000; fill-opacity:1.0; 
stroke:#000000; stroke-width:39.3701; stroke-opacity:1; 
stroke-linecap:round; stroke-linejoin:round;">
</g>
<g style="fill:#000000; fill-opacity:1.0; 
stroke:#000000; stroke-width:0; stroke-opacity:1; 
stroke-linecap:round; stroke-linejoin:round;">
<circle cx="14755.9" cy="3866.14" r="295.276" /> 
</g>
<g style="fill:#000000; fill-opacity:1.0; 
stroke:#000000; stroke-width:39.3701; stroke-opacity:1; 
stroke-linecap:round; stroke-linejoin:round;">
</g>
<g style="fill:#000000; fill-opacity:1.0; 
stroke:#000000; stroke-width:0; stroke-opacity:1; 
stroke-linecap:round; stroke-linejoin:round;">
<circle cx="13955.9" cy="3866.14" r="295.276" /> 
</g>
<g style="fill:#000000; fill-opacity:1.0; 
stroke:#000000; stroke-width:39.3701; stroke-opacity:1; 
stroke-linecap:round; stroke-linejoin:round;">
</g>
<g style="fill:#000000; fill-opacity:1.0; 
stroke:#000000; stroke-width:0; stroke-opacity:1; 
stroke-linecap:round; stroke-linejoin:round;">
<circle cx="13155.9" cy="3866.14" r="295.276" /> 
</g>
<g style="fill:#000000; fill-opacity:1.0; 
stroke:#000000; stroke-width:39.3701; stroke-opacity:1; 
stroke-linecap:round; stroke-linejoin:round;">
</g>
<g style="fill:#000000; fill-opacity:1.0; 
stroke:#000000; stroke-width:0; stroke-opacity:1; 
stroke-linecap:round; stroke-linejoin:round;">
<circle cx="15155.9" cy="3165.35" r="295.276" /> 
</g>
<g style="fill:#000000; fill-opacity:1.0; 
stroke:#000000; stroke-width:39.3701; stroke-opacity:1; 
stroke-linecap:round; stroke-linejoin:round;">
</g>
<g style="fill:#000000; fill-opacity:1.0; 
stroke:#000000; stroke-width:0; stroke-opacity:1; 
stroke-linecap:round; stroke-linejoin:round;">
<circle cx="14355.9" cy="3165.35" r="295.276" /> 
</g>
<g style="fill:#000000; fill-opacity:1.0; 
stroke:#000000; stroke-width:39.3701; stroke-opacity:1; 
stroke-linecap:round; stroke-linejoin:round;">
</g>
<g style="fill:#000000; fill-opacity:1.0; 
stroke:#000000; stroke-width:0; stroke-opacity:1; 
stroke-linecap:round; stroke-linejoin:round;">
<circle cx="13555.9" cy="3165.35" r="295.276" /> 
</g>
<g style="fill:#000000; fill-opacity:1.0; 
stroke:#000000; stroke-width:39.3701; stroke-opacity:1; 
stroke-linecap:round; stroke-linejoin:round;">
</g>
<g style="fill:#000000; fill-opacity:1.0; 
stroke:#000000; stroke-width:0; stroke-opacity:1; 
stroke-linecap:round; stroke-linejoin:round;">
<path style="fill:#000000; fill-opacity:1.0; 
stroke:#000000; stroke-width:0; stroke-opacity:1; 
stroke-linecap:round; stroke-linejoin:round;fill-rule:evenodd;"
d="M 12460.6,3460.63
12460.6,2870.08
13051.2,2870.08
13051.2,3460.63
Z" /> 
</g>
<g >
</g>
<g >
</g>
<g >
</g>
<g >
</g>
<g >
</g>
<g >
</g>
<g >
</g>
<g >
</g>
<g style="fill:#000000; fill-opacity:1.0; 
stroke:#000000; stroke-width:0; stroke-opacity:1; 
stroke-linecap:round; stroke-linejoin:round;">
<path style="fill:#000000; fill-opacity:1.0; 
stroke:#000000; stroke-width:0; stroke-opacity:1; 
stroke-linecap:round; stroke-linejoin:round;fill-rule:evenodd;"
d="M 23336.6,33750
23336.6,34045.3
23159.4,34045.3
23159.4,33750
Z" /> 
<path style="fill:#000000; fill-opacity:1.0; 
stroke:#000000; stroke-width:0; stroke-opacity:1; 
stroke-linecap:round; stroke-linejoin:round;fill-rule:evenodd;"
d="M 23061,33750
23061,34045.3
22883.9,34045.3
22883.9,33750
Z" /> 
<path style="fill:#000000; fill-opacity:1.0; 
stroke:#000000; stroke-width:0; stroke-opacity:1; 
stroke-linecap:round; stroke-linejoin:round;fill-rule:evenodd;"
d="M 22785.4,33750
22785.4,34045.3
22608.3,34045.3
22608.3,33750
Z" /> 
<path style="fill:#000000; fill-opacity:1.0; 
stroke:#000000; stroke-width:0; stroke-opacity:1; 
stroke-linecap:round; stroke-linejoin:round;fill-rule:evenodd;"
d="M 22509.8,33750
22509.8,34045.3
22332.7,34045.3
22332.7,33750
Z" /> 
<path style="fill:#000000; fill-opacity:1.0; 
stroke:#000000; stroke-width:0; stroke-opacity:1; 
stroke-linecap:round; stroke-linejoin:round;fill-rule:evenodd;"
d="M 22234.3,33750
22234.3,34045.3
22057.1,34045.3
22057.1,33750
Z" /> 
<path style="fill:#000000; fill-opacity:1.0; 
stroke:#000000; stroke-width:0; stroke-opacity:1; 
stroke-linecap:round; stroke-linejoin:round;fill-rule:evenodd;"
d="M 21958.7,33750
21958.7,34045.3
21781.5,34045.3
21781.5,33750
Z" /> 
<path style="fill:#000000; fill-opacity:1.0; 
stroke:#000000; stroke-width:0; stroke-opacity:1; 
stroke-linecap:round; stroke-linejoin:round;fill-rule:evenodd;"
d="M 21683.1,33750
21683.1,34045.3
21505.9,34045.3
21505.9,33750
Z" /> 
<path style="fill:#000000; fill-opacity:1.0; 
stroke:#000000; stroke-width:0; stroke-opacity:1; 
stroke-linecap:round; stroke-linejoin:round;fill-rule:evenodd;"
d="M 21407.5,33750
21407.5,34045.3
21230.3,34045.3
21230.3,33750
Z" /> 
<path style="fill:#000000; fill-opacity:1.0; 
stroke:#000000; stroke-width:0; stroke-opacity:1; 
stroke-linecap:round; stroke-linejoin:round;fill-rule:evenodd;"
d="M 20856.3,33750
20856.3,34045.3
20679.1,34045.3
20679.1,33750
Z" /> 
<path style="fill:#000000; fill-opacity:1.0; 
stroke:#000000; stroke-width:0; stroke-opacity:1; 
stroke-linecap:round; stroke-linejoin:round;fill-rule:evenodd;"
d="M 21131.9,33750
21131.9,34045.3
20954.7,34045.3
20954.7,33750
Z" /> 
<path style="fill:#000000; fill-opacity:1.0; 
stroke:#000000; stroke-width:0; stroke-opacity:1; 
stroke-linecap:round; stroke-linejoin:round;fill-rule:evenodd;"
d="M 22057.1,33218.5
22057.1,32923.2
22234.3,32923.2
22234.3,33218.5
Z" /> 
<path style="fill:#000000; fill-opacity:1.0; 
stroke:#000000; stroke-width:0; stroke-opacity:1; 
stroke-linecap:round; stroke-linejoin:round;fill-rule:evenodd;"
d="M 23159.4,33218.5
23159.4,32923.2
23336.6,32923.2
23336.6,33218.5
Z" /> 
<path style="fill:#000000; fill-opacity:1.0; 
stroke:#000000; stroke-width:0; stroke-opacity:1; 
stroke-linecap:round; stroke-linejoin:round;fill-rule:evenodd;"
d="M 21781.5,33218.5
21781.5,32923.2
21958.7,32923.2
21958.7,33218.5
Z" /> 
<path style="fill:#000000; fill-opacity:1.0; 
stroke:#000000; stroke-width:0; stroke-opacity:1; 
stroke-linecap:round; stroke-linejoin:round;fill-rule:evenodd;"
d="M 22608.3,33218.5
22608.3,32923.2
22785.4,32923.2
22785.4,33218.5
Z" /> 
<path style="fill:#000000; fill-opacity:1.0; 
stroke:#000000; stroke-width:0; stroke-opacity:1; 
stroke-linecap:round; stroke-linejoin:round;fill-rule:evenodd;"
d="M 20954.7,33218.5
20954.7,32923.2
21131.9,32923.2
21131.9,33218.5
Z" /> 
<path style="fill:#000000; fill-opacity:1.0; 
stroke:#000000; stroke-width:0; stroke-opacity:1; 
stroke-linecap:round; stroke-linejoin:round;fill-rule:evenodd;"
d="M 22332.7,33218.5
22332.7,32923.2
22509.8,32923.2
22509.8,33218.5
Z" /> 
<path style="fill:#000000; fill-opacity:1.0; 
stroke:#000000; stroke-width:0; stroke-opacity:1; 
stroke-linecap:round; stroke-linejoin:round;fill-rule:evenodd;"
d="M 20679.1,33218.5
20679.1,32923.2
20856.3,32923.2
20856.3,33218.5
Z" /> 
<path style="fill:#000000; fill-opacity:1.0; 
stroke:#000000; stroke-width:0; stroke-opacity:1; 
stroke-linecap:round; stroke-linejoin:round;fill-rule:evenodd;"
d="M 21230.3,33218.5
21230.3,32923.2
21407.5,32923.2
21407.5,33218.5
Z" /> 
<path style="fill:#000000; fill-opacity:1.0; 
stroke:#000000; stroke-width:0; stroke-opacity:1; 
stroke-linecap:round; stroke-linejoin:round;fill-rule:evenodd;"
d="M 22883.9,33218.5
22883.9,32923.2
23061,32923.2
23061,33218.5
Z" /> 
<path style="fill:#000000; fill-opacity:1.0; 
stroke:#000000; stroke-width:0; stroke-opacity:1; 
stroke-linecap:round; stroke-linejoin:round;fill-rule:evenodd;"
d="M 21505.9,33218.5
21505.9,32923.2
21683.1,32923.2
21683.1,33218.5
Z" /> 
</g>
<g >
</g>
<g >
</g>
<g >
</g>
<g >
</g>
<g >
</g>
<g >
</g>
<g >
</g>
<g >
</g>
<g >
</g>
<g >
</g>
<g >
</g>
<g >
</g>
<g >
</g>
<g >
</g>
<g >
</g>
<g >
</g>
<g >
</g>
<g >
</g>
<g >
</g>
<g >
</g>
<g >
</g>
<g >
</g>
<g >
</g>
<g >
</g>
<g >
</g>
<g >
</g>
<g >
</g>
<g >
</g>
<g >
</g>
<g >
</g>
<g >
</g>
<g >
</g>
<g >
</g>
<g >
</g>
<g >
</g>
<g >
</g>
<g >
</g>
<g >
</g>
<g >
</g>
<g >
</g>
<g >
</g>
<g >
</g>
<g >
</g>
<g >
</g>
<g >
</g>
<g >
</g>
<g >
</g>
<g >
</g>
<g >
</g>
<g >
</g>
<g >
</g>
<g >
</g>
<g >
</g>
<g >
</g>
<g >
</g>
<g >
</g>
<g >
</g>
<g >
</g>
<g >
</g>
<g >
</g>
<g >
</g>
<g >
</g>
<g style="fill:#000000; fill-opacity:1.0; 
stroke:#000000; stroke-width:0; stroke-opacity:1; 
stroke-linecap:round; stroke-linejoin:round;">
<circle cx="3775.59" cy="9468.5" r="334.646" /> 
<path style="fill:#000000; fill-opacity:1.0; 
stroke:#000000; stroke-width:0; stroke-opacity:1; 
stroke-linecap:round; stroke-linejoin:round;fill-rule:evenodd;"
d="M 3110.24,9803.15
2440.95,9803.15
2440.95,9133.86
3110.24,9133.86
Z" /> 
</g>
<g >
</g>
<g >
</g>
<g >
</g>
<g >
</g>
<g >
</g>
<g >
</g>
<g >
</g>
<g >
</g>
<g >
</g>
<g >
</g>
<g >
</g>
<g >
</g>
<g >
</g>
<g >
</g>
<g >
</g>
<g >
</g>
<g >
</g>
<g >
</g>
<g >
</g>
<g >
</g>
<g >
</g>
<g >
</g>
<g >
</g>
<g >
</g>
<g >
</g>
<g >
</g>
<g >
</g>
<g >
</g>
<g >
</g>
<g >
</g>
<g >
</g>
<g >
</g>
<g >
</g>
<g >
</g>
<g >
</g>
<g >
</g>
<g >
</g>
<g >
</g>
<g >
</g>
<g >
</g>
<g >
</g>
<g style="fill:#000000; fill-opacity:1.0; 
stroke:#000000; stroke-width:0; stroke-opacity:1; 
stroke-linecap:round; stroke-linejoin:round;">
<path style="fill:#000000; fill-opacity:1.0; 
stroke:#000000; stroke-width:0; stroke-opacity:1; 
stroke-linecap:round; stroke-linejoin:round;fill-rule:evenodd;"
d="M 22836.4,29918.9
22836,29918.8
22828.5,29915.4
22828.1,29915.2
22801.1,29894.6
22801,29894.5
22759.4,29858.3
22759.4,29858.3
22706.8,29810
22706.8,29810
22646.8,29753.2
22646.8,29753.1
22583.1,29691.4
22583.1,29691.4
22519.3,29628.2
22519.2,29628.2
22458.9,29567.2
22458.9,29567.2
22405.6,29511.9
22405.6,29511.9
22363.1,29465.9
22363,29465.8
22334.9,29432.7
22334.7,29432.4
22324.5,29415.7
22324.3,29415.3
22324.2,29415
22324.2,29414.6
22324.3,29414.3
22324.8,29411.1
22325,29410.6
22337.1,29384.7
22337.2,29384.6
22363.1,29339.8
22363.2,29339.7
22400.3,29280
22400.4,29280
22446.3,29209.5
22446.4,29209.5
22498.6,29132.2
22498.6,29132.2
22513.2,29110.8
22513.2,29110.8
22564.7,29035.8
22610,28969.5
22610,28969.5
22646.5,28915.8
22671.7,28878.5
22682.6,28861.8
22682.6,28861.8
22679.4,28841.7
22667,28799.9
22647.4,28741.9
22622.5,28673.3
22594.6,28599.2
22565.5,28524.9
22537.3,28455.8
22512.1,28397.1
22491.9,28354.1
22478.7,28332.3
22477.7,28331.2
22468.5,28324.4
22452.7,28317.6
22427,28309.8
22388.3,28300.5
22333.4,28289.1
22259.1,28274.6
22162.2,28256.5
22039.6,28234.1
22039.6,28234.1
22014.1,28229.3
22014.1,28229.3
21941.2,28214.7
21941.2,28214.7
21879.9,28200.9
21879.8,28200.8
21835.9,28189.1
21835.7,28189.1
21814.9,28180.9
21814.6,28180.7
21814.3,28180.5
21814,28180.2
21813.9,28179.9
21810.4,28173.1
21810.3,28172.7
21810.2,28172.5
21804.5,28139.7
21804.4,28139.6
21799.9,28085.2
21799.9,28085.1
21796.5,28014.2
21796.5,28014.2
21794.3,27931.9
21794.3,27931.8
21793.3,27843.3
21793.3,27843.2
21793.6,27753.5
21793.6,27753.4
21795.1,27667.6
21795.1,27667.5
21797.8,27590.7
21797.8,27590.6
21801.7,27527.8
21801.7,27527.7
21806.8,27484.1
21806.9,27483.7
21813.3,27464.4
21813.5,27464.1
21813.7,27463.8
21814,27463.5
21814.4,27463.3
21820.9,27460.4
21821.1,27460.3
21853.5,27451.3
21853.6,27451.3
21908.3,27438.6
21908.4,27438.6
21981.1,27423.1
21981.1,27423.1
22067.5,27405.8
22067.5,27405.8
22163.1,27387.6
22163.1,27387.6
22215.3,27377.8
22304.7,27361
22304.7,27361
22381.7,27346.2
22381.7,27346.2
22442.1,27334.4
22481.8,27326.2
22496,27322.7
22496,27322.7
22505.4,27303.7
22523.5,27263.6
22548,27207.8
22548,27207.8
22576.5,27141.7
22606.9,27070.5
22636.8,26999.7
22664,26934.6
22686.2,26880.4
22701.2,26842.6
22706.4,26827.1
22704.4,26822.2
22688.3,26795.1
22659,26749.3
22618.9,26688.5
22570.4,26616.3
22515.7,26536.3
22515.7,26536.3
22485.8,26492.5
22485.8,26492.4
22434,26415.6
22434,26415.6
22389.7,26348.1
22389.7,26348.1
22355.1,26293.8
22355,26293.7
22332.5,26256.1
22332.4,26255.9
22324.4,26238.8
22324.3,26238.4
22324.2,26238
22324.2,26237.7
22324.3,26237.3
22324.5,26236.9
22330.1,26227.6
22330.3,26227.4
22353.6,26199.6
22353.6,26199.5
22391.9,26157.4
22391.9,26157.4
22441.6,26104.6
22441.6,26104.6
22499.2,26044.6
22499.3,26044.6
22561.3,25981
22561.3,25981
22624.2,25917.5
22624.2,25917.5
22684.5,25857.5
22684.5,25857.5
22738.6,25804.6
22738.7,25804.6
22783.2,25762.4
22783.2,25762.4
22814.5,25734.4
22814.7,25734.3
22829.4,25724.2
22829.7,25724
22830.1,25723.9
22830.5,25723.8
22830.9,25723.9
22831.4,25724
22839.5,25728
22839.7,25728
22869.6,25746.3
22869.6,25746.3
22917.9,25777.3
22917.9,25777.3
22981,25818.8
22981,25818.8
23055.5,25868.6
23055.5,25868.6
23137.9,25924.3
23137.9,25924.3
23431.4,26123.8
23675.7,26023.1
23920,25922.4
23986.3,25570.8
24052.8,25218.1
24052.9,25217.7
24053.1,25217.4
24053.3,25217.1
24053.6,25216.8
24054,25216.6
24054.3,25216.5
24054.8,25216.5
24788.8,25216.5
24789.2,25216.5
24789.6,25216.6
24789.9,25216.8
24790.2,25217.1
24790.4,25217.4
24790.6,25217.7
24790.7,25218.1
24923.5,25922.4
25167.9,26023.1
25412.2,26123.8
25705.6,25924.3
25705.6,25924.3
25763.9,25884.8
25763.9,25884.8
25841.1,25833.1
25841.1,25833
25908,25788.8
25908,25788.8
25961,25754.4
25961,25754.4
25996.7,25732.1
25996.9,25732
26011.8,25724.1
26012.2,25723.9
26012.5,25723.8
26012.9,25723.8
26013.3,25723.9
26013.8,25724.1
26022.9,25729.8
26023.2,25730
26050.6,25753.6
26050.6,25753.7
26092.1,25792.5
26092.2,25792.5
26144.2,25843
26144.2,25843
26203.3,25901.5
26203.3,25901.5
26265.9,25964.4
26265.9,25964.4
26328.5,26028.3
26328.5,26028.3
26387.7,26089.5
26387.7,26089.5
26439.8,26144.5
26439.8,26144.5
26481.3,26189.7
26481.4,26189.7
26508.9,26221.6
26509.1,26221.8
26519,26236.7
26519.2,26237
26519.3,26237.4
26519.3,26237.8
26519.3,26238.1
26519.2,26238.4
26516.9,26244.8
26516.8,26245.1
26500.7,26273.7
26500.7,26273.8
26471.4,26320.8
26471.4,26320.8
26431.3,26382.6
26431.2,26382.6
26382.6,26455.5
26382.6,26455.5
26327.8,26535.7
26327.8,26535.7
26297.8,26579.5
26246.1,26655.7
26201.8,26722.1
26167.2,26775.3
26144.8,26811.5
26137.1,26826.6
26137.1,26826.7
26144.1,26846.5
26160.3,26887.3
26183.4,26943.5
26211.2,27010
26241.3,27081.3
26241.3,27081.3
26271.5,27152.1
26299.6,27217.1
26323.2,27270.9
26340.2,27308.1
26347.8,27322.8
26351.7,27323.9
26380.5,27330.1
26431.9,27340.4
26501.8,27353.9
26586,27369.9
26680.5,27387.6
26680.5,27387.6
26730.3,27396.9
26730.3,27396.9
26821.7,27414.8
26821.7,27414.8
26901.6,27431.3
26901.7,27431.3
26965.7,27445.5
26965.8,27445.5
27009.6,27456.4
27009.8,27456.5
27029,27463.2
27029.4,27463.4
27029.7,27463.6
27030,27463.9
27030.1,27464.1
27033.6,27470.8
27033.7,27471.2
27033.8,27471.4
27039.5,27503.9
27039.6,27504.1
27044.1,27558.2
27044.1,27558.3
27047.3,27629
27047.3,27629.1
27049.4,27711.3
27049.4,27711.3
27050.2,27799.8
27050.2,27799.8
27049.9,27889.6
27049.9,27889.7
27048.3,27975.6
27048.3,27975.6
27045.5,28052.7
27045.5,28052.7
27041.5,28115.7
27041.5,28115.8
27036.3,28159.6
27036.2,28160
27029.8,28179.6
27029.6,28180
27029.4,28180.3
27029.1,28180.6
27028.9,28180.7
27025,28183
27024.6,28183.1
26995.7,28192.6
26995.5,28192.7
26945.3,28205.2
26945.2,28205.2
26879.5,28219.5
26879.4,28219.5
26804,28234.1
26804,28234.1
26778.6,28238.7
26661,28260.3
26568.7,28277.6
26498.3,28291.4
26446.7,28302.5
26410.8,28311.4
26387.2,28318.9
26373,28325.7
26364.6,28332.5
26363.9,28333.4
26349.9,28357.7
26329,28402.6
26303.4,28462.7
26275.1,28532.5
26246,28607
26218.3,28680.8
26193.9,28748.6
26174.9,28805.1
26163.3,28844.9
26161.2,28862.2
26162.3,28864
26177.4,28886.8
26205.9,28928.9
26245.1,28986.4
26292.3,29055.5
26345,29132.2
26345,29132.2
26359.4,29153.3
26359.4,29153.3
26410.2,29229
26410.3,29229
26454.2,29296.7
26454.2,29296.7
26488.7,29352.4
26488.7,29352.5
26511.3,29392.1
26511.4,29392.3
26519.6,29411.9
26519.7,29412.3
26519.8,29412.7
26519.7,29413.1
26519.7,29413.3
26517.9,29418.5
26517.7,29418.8
26517.6,29419
26499.3,29444.4
26499.1,29444.5
26462.9,29486
26462.9,29486.1
26411.4,29540.9
26411.3,29540.9
26347.1,29606.2
26347.1,29606.2
26272.8,29679.2
26272.8,29679.2
26230.4,29720
26230.4,29720
26163.2,29783.6
26163.2,29783.7
26104.5,29838.1
26104.5,29838.2
26057.2,29880.7
26057.2,29880.7
26024.7,29908.3
26024.5,29908.5
26009.8,29918.4
26009.4,29918.5
26009.1,29918.7
26008.7,29918.7
26008.3,29918.7
26008,29918.6
25997.9,29914.9
25997.6,29914.8
25966.5,29897.4
25966.4,29897.4
25921.3,29869
25921.2,29868.9
25867.9,29833.1
25867.9,29833.1
25829.9,29807
25754.2,29755.1
25673.4,29700
25599.6,29649.9
25456.1,29552.8
25335.8,29617.8
25335.8,29617.8
25307.2,29633
25307.1,29633
25255.2,29658.9
25255.1,29658.9
25214.9,29676.8
25214.7,29676.9
25193.2,29683.5
25192.8,29683.6
25192.5,29683.6
25192.1,29683.6
25191.7,29683.4
25191.4,29683.2
25191.1,29682.9
25184.1,29674.4
25183.9,29674
25166.4,29641.4
25166.4,29641.4
25140.6,29587.6
25140.6,29587.6
25107.9,29516.1
25107.9,29516
25069.8,29430.2
25069.8,29430.2
25027.6,29333.5
25027.6,29333.5
24982.9,29229.2
24982.9,29229.2
24937,29120.9
24937,29120.8
24891.4,29011.8
24891.4,29011.8
24847.5,28905.5
24847.5,28905.5
24806.7,28805.4
24806.7,28805.3
24770.5,28714.7
24770.5,28714.7
24740.4,28637.1
24740.4,28637.1
24717.7,28575.8
24717.7,28575.7
24703.9,28534.3
24703.8,28534
24700.3,28515.7
24700.3,28515.4
24700.3,28515
24700.5,28514.6
24700.7,28514
24700.9,28513.7
24701.1,28513.5
24717.3,28496.6
24717.5,28496.4
24751.4,28469.9
24751.5,28469.9
24796.2,28439.3
24796.2,28439.3
24810.2,28430
24917.2,28341.8
25005.6,28236.7
25073.6,28119.1
25118.9,27993.4
25139.5,27864.1
25133.4,27735.3
25108.3,27620.8
25063.3,27505.2
24997.8,27402
24907.7,27304
24872.5,27272.7
24758.1,27195.6
24634.6,27143.6
24505.6,27116.4
24374.5,27113.4
24245,27134.2
24120.6,27178.4
24004.9,27245.4
23901.5,27334.8
23813.9,27446.2
23797.2,27473.6
23740,27599.7
23709.6,27730.9
23705.3,27864
23726.1,27995.4
23771.4,28121.9
23840.4,28239.9
23932.2,28346.3
24046.1,28437.4
24049.7,28439.9
24049.8,28439.9
24093.9,28471
24094,28471.1
24127.1,28497.5
24127.3,28497.7
24142.4,28514
24142.7,28514.3
24142.8,28514.7
24142.9,28515.1
24143,28515.4
24143,28515.7
24141,28528.4
24141,28528.7
24129.1,28565.9
24129.1,28566
24108.1,28623.7
24108,28623.7
24079.3,28698.4
24079.3,28698.4
24044.2,28786.8
24044.2,28786.8
24004.3,28885.4
24004.3,28885.4
23960.9,28990.7
23960.9,28990.7
23915.5,29099.5
23915.5,29099.5
23869.6,29208.3
23869.6,29208.3
23824.6,29313.6
23824.6,29313.6
23781.8,29412.1
23781.8,29412.1
23742.8,29500.3
23742.8,29500.4
23708.9,29574.9
23708.9,29574.9
23681.7,29632.4
23681.6,29632.5
23662.4,29669.5
23662.2,29669.8
23652.5,29682.8
23652.3,29683.1
23651.9,29683.4
23651.6,29683.5
23651.2,29683.6
23650.8,29683.6
23650.5,29683.6
23642.4,29681.8
23642.1,29681.7
23610.3,29669
23610.2,29668.9
23563.2,29646.6
23563.1,29646.6
23507.8,29617.8
23507.8,29617.8
23387.5,29552.8
23243.9,29649.9
23201.2,29678.8
23121.8,29732.9
23042.6,29787.1
22975.7,29833.1
22975.7,29833.1
22938.8,29858.2
22938.8,29858.2
22890.8,29889.4
22890.7,29889.4
22855.2,29910.8
22855,29910.9
22837.6,29918.8
22837.2,29918.9
22836.8,29918.9
Z" /> 
</g>
<g >
</g>
<g style="fill:#000000; fill-opacity:1.0; 
stroke:#000000; stroke-width:0; stroke-opacity:1; 
stroke-linecap:round; stroke-linejoin:round;">
<path style="fill:#000000; fill-opacity:1.0; 
stroke:#000000; stroke-width:0; stroke-opacity:1; 
stroke-linecap:round; stroke-linejoin:round;fill-rule:evenodd;"
d="M 6722.44,33563
6722.44,33405.5
6938.98,33405.5
6938.98,33563
Z" /> 
<path style="fill:#000000; fill-opacity:1.0; 
stroke:#000000; stroke-width:0; stroke-opacity:1; 
stroke-linecap:round; stroke-linejoin:round;fill-rule:evenodd;"
d="M 6722.44,33878
6722.44,33720.5
6938.98,33720.5
6938.98,33878
Z" /> 
<path style="fill:#000000; fill-opacity:1.0; 
stroke:#000000; stroke-width:0; stroke-opacity:1; 
stroke-linecap:round; stroke-linejoin:round;fill-rule:evenodd;"
d="M 6722.44,33248
6722.44,33090.6
6938.98,33090.6
6938.98,33248
Z" /> 
<path style="fill:#000000; fill-opacity:1.0; 
stroke:#000000; stroke-width:0; stroke-opacity:1; 
stroke-linecap:round; stroke-linejoin:round;fill-rule:evenodd;"
d="M 5816.93,33248
5816.93,33090.6
6033.46,33090.6
6033.46,33248
Z" /> 
<path style="fill:#000000; fill-opacity:1.0; 
stroke:#000000; stroke-width:0; stroke-opacity:1; 
stroke-linecap:round; stroke-linejoin:round;fill-rule:evenodd;"
d="M 5816.93,33563
5816.93,33405.5
6033.46,33405.5
6033.46,33563
Z" /> 
<path style="fill:#000000; fill-opacity:1.0; 
stroke:#000000; stroke-width:0; stroke-opacity:1; 
stroke-linecap:round; stroke-linejoin:round;fill-rule:evenodd;"
d="M 5816.93,33878
5816.93,33720.5
6033.46,33720.5
6033.46,33878
Z" /> 
</g>
<g >
</g>
<g style="fill:#000000; fill-opacity:1.0; 
stroke:#000000; stroke-width:0; stroke-opacity:1; 
stroke-linecap:round; stroke-linejoin:round;">
<circle cx="1070.87" cy="32106.3" r="177.165" /> 
</g>
<g style="fill:#000000; fill-opacity:1.0; 
stroke:#000000; stroke-width:39.3701; stroke-opacity:1; 
stroke-linecap:round; stroke-linejoin:round;">
</g>
<g style="fill:#000000; fill-opacity:1.0; 
stroke:#000000; stroke-width:0; stroke-opacity:1; 
stroke-linecap:round; stroke-linejoin:round;">
<circle cx="1070.87" cy="30925.2" r="177.165" /> 
</g>
<g style="fill:#000000; fill-opacity:1.0; 
stroke:#000000; stroke-width:39.3701; stroke-opacity:1; 
stroke-linecap:round; stroke-linejoin:round;">
</g>
<g >
</g>
<g >
</g>
<g >
</g>
<g >
</g>
</g>
<g style="fill:#000000; fill-opacity:1.0; 
stroke:#000000; stroke-width:39.3701; stroke-opacity:1; 
stroke-linecap:round; stroke-linejoin:round;">
</g>
<g style="fill:#000000; fill-opacity:0.0; 
stroke:#000000; stroke-width:39.3701; stroke-opacity:1; 
stroke-linecap:round; stroke-linejoin:round;">
<path d="M9074.8 9468.5 A393.701 393.701 0.0 0 0 9074.8 10255.9" />
<path d="M19311 10255.9 A393.701 393.701 0.0 0 0 19311 9468.5" />
<path d="M9074 9468
L19311 9468
" />
<path d="M19311 10255
L9074 10255
" />
<path d="M6633 19
L19 7106
" />
<path d="M22736 19
L28366 7106
" />
<path d="M19 39389
L28366 39389
" />
<path d="M6633 19
L22736 19
" />
<path d="M19 39389
L19 7106
" />
<path d="M28366 7106
L28366 39389
" />
<g >
</g>
<g >
</g>
<g >
</g>
<g >
</g>
<g >
</g>
<g >
</g>
<g >
</g>
<g >
</g>
<g >
</g>
<g >
</g>
<g >
</g>
<g >
</g>
<g >
</g>
<g >
</g>
<g >
</g>
<g >
</g>
<g >
</g>
<g >
</g>
<g >
</g>
<g >
</g>
<g >
</g>
<g >
</g>
<g >
</g>
<g >
</g>
<g >
</g>
<g >
</g>
<g >
</g>
<g >
</g>
<g >
</g>
<g >
</g>
<g >
</g>
<g >
</g>
<g >
</g>
<g >
</g>
<g >
</g>
<g >
</g>
<g >
</g>
<g >
</g>
<g >
</g>
<g >
</g>
<g >
</g>
<g >
</g>
<g >
</g>
<g >
</g>
<g >
</g>
<g >
</g>
<g >
</g>
<g >
</g>
<g >
</g>
<g >
</g>
<g >
</g>
<g >
</g>
<g >
</g>
<g >
</g>
<g >
</g>
<g >
</g>
<g >
</g>
<g >
</g>
<g >
</g>
<g >
</g>
<g >
</g>
<g >
</g>
<g >
</g>
<g >
</g>
<g >
</g>
<g >
</g>
<g >
</g>
<g >
</g>
<g >
</g>
<g >
</g>
<g >
</g>
<g >
</g>
<g >
</g>
<g >
</g>
<g >
</g>
<g >
</g>
<g >
</g>
<g >
</g>
<g >
</g>
<g >
</g>
<g >
</g>
<g >
</g>
<g >
</g>
<g >
</g>
<g >
</g>
<g >
</g>
<g >
</g>
<g >
</g>
<g >
</g>
<g >
</g>
<g >
</g>
<g >
</g>
<g >
</g>
<g >
</g>
<g >
</g>
<g >
</g>
<g >
</g>
<g >
</g>
<g >
</g>
<g >
</g>
<g >
</g>
<g >
</g>
<g >
</g>
<g >
</g>
<g >
</g>
<g >
</g>
<g >
</g>
<g >
</g>
<g >
</g>
<g >
</g>
<g >
</g>
<g >
</g>
<g >
</g>
<g >
</g>
<g >
</g>
<g >
</g>
<g >
</g>
<g >
</g>
<g >
</g>
<g >
</g>
<g >
</g>
<g >
</g>
<g >
</g>
<g >
</g>
<g >
</g>
<g >
</g>
<g >
</g>
<g >
</g>
<g >
</g>
<g >
</g>
<g >
</g>
<g >
</g>
<g >
</g>
<g >
</g>
<g >
</g>
<g >
</g>
<g >
</g>
<g >
</g>
<g >
</g>
<g >
</g>
<g >
</g>
<g >
</g>
</g> 
</svg>
