<?xml version="1.0" standalone="no"?>
 <!DOCTYPE svg PUBLIC "-//W3C//DTD SVG 1.1//EN" 
 "http://www.w3.org/Graphics/SVG/1.1/DTD/svg11.dtd"> 
<svg
  xmlns:svg="http://www.w3.org/2000/svg"
  xmlns="http://www.w3.org/2000/svg"
  xmlns:xlink="http://www.w3.org/1999/xlink"
  version="1.1"
  width="7.208520cm" height="10.007600cm" viewBox="0 0 28380 39400">
<title>SVG Picture created as Teebeutel-B_SilkS.svg date 2021/11/10 13:10:25 </title>
  <desc>Picture generated by PCBNEW </desc>
<g style="fill:#000000; fill-opacity:1;stroke:#000000; stroke-opacity:1;
stroke-linecap:round; stroke-linejoin:round;"
 transform="translate(0 0) scale(1 1)">
</g>
<g style="fill:#000000; fill-opacity:0.0; 
stroke:#000000; stroke-width:-0.000393701; stroke-opacity:1; 
stroke-linecap:round; stroke-linejoin:round;">
</g>
<g style="fill:#000000; fill-opacity:0.0; 
stroke:#000000; stroke-width:47.2441; stroke-opacity:1; 
stroke-linecap:round; stroke-linejoin:round;">
<path d="M15374 1299.21 A1189.11 1189.11 0.0 0 0 13011.8 1299.21" />
<path d="M14192 1437
L13011 1299
" />
<path d="M14192 1437
L15374 1299
" />
</g>
<g style="fill:#000000; fill-opacity:0.0; 
stroke:#000000; stroke-width:78.7402; stroke-opacity:1; 
stroke-linecap:round; stroke-linejoin:round;">
<text x="14192.9" y="25108.3"
transform="scale(-1 1) translate(-28385.827559 0)"
textLength="413.761" font-size="419.947" lengthAdjust="spacingAndGlyphs"
text-anchor="middle" opacity="0">IR</text>
<path d="M14350 25093
L14350 24778
" />
<path d="M14020 25093
L14125 24943
" />
<path d="M14200 25093
L14200 24778
L14080 24778
L14050 24793
L14035 24808
L14020 24838
L14020 24883
L14035 24913
L14050 24928
L14080 24943
L14200 24943
" />
</g>
<g style="fill:#000000; fill-opacity:0.0; 
stroke:#000000; stroke-width:98.4252; stroke-opacity:1; 
stroke-linecap:round; stroke-linejoin:round;">
<text x="14192.9" y="6397.64"
transform="scale(-1 1) translate(-28385.827559 0)"
textLength="478.815" font-size="524.934" lengthAdjust="spacingAndGlyphs"
text-anchor="middle" opacity="0">IR</text>
<path d="M14389 6378
L14389 5985
" />
<path d="M13977 6378
L14108 6191
" />
<path d="M14202 6378
L14202 5985
L14052 5985
L14014 6003
L13996 6022
L13977 6060
L13977 6116
L13996 6153
L14014 6172
L14052 6191
L14202 6191
" />
</g>
<g style="fill:#000000; fill-opacity:0.0; 
stroke:#000000; stroke-width:59.0551; stroke-opacity:1; 
stroke-linecap:round; stroke-linejoin:round;">
<text x="14192.9" y="11830.7"
transform="scale(-1 1) translate(-28385.827559 0)"
textLength="4221.5" font-size="524.934" lengthAdjust="spacingAndGlyphs"
text-anchor="middle" opacity="0">OLED 128x128</text>
<path d="M16198 11418
L16123 11418
L16086 11437
L16048 11474
L16030 11549
L16030 11680
L16048 11755
L16086 11793
L16123 11811
L16198 11811
L16236 11793
L16273 11755
L16292 11680
L16292 11549
L16273 11474
L16236 11437
L16198 11418
" />
<path d="M15673 11811
L15861 11811
L15861 11418
" />
<path d="M15542 11605
L15411 11605
" />
<path d="M15355 11811
L15542 11811
L15542 11418
L15355 11418
" />
<path d="M15186 11811
L15186 11418
L15092 11418
L15036 11437
L14999 11474
L14980 11511
L14961 11586
L14961 11643
L14980 11718
L14999 11755
L15036 11793
L15092 11811
L15186 11811
" />
<path d="M14286 11811
L14511 11811
" />
<path d="M14399 11811
L14399 11418
L14436 11474
L14474 11511
L14511 11530
" />
<path d="M14136 11455
L14117 11437
L14080 11418
L13986 11418
L13949 11437
L13930 11455
L13911 11493
L13911 11530
L13930 11586
L14155 11811
L13911 11811
" />
<path d="M13686 11586
L13724 11568
L13742 11549
L13761 11511
L13761 11493
L13742 11455
L13724 11437
L13686 11418
L13611 11418
L13574 11437
L13555 11455
L13536 11493
L13536 11511
L13555 11549
L13574 11568
L13611 11586
L13686 11586
L13724 11605
L13742 11624
L13761 11661
L13761 11736
L13742 11774
L13724 11793
L13686 11811
L13611 11811
L13574 11793
L13555 11774
L13536 11736
L13536 11661
L13555 11624
L13574 11605
L13611 11586
" />
<path d="M13405 11811
L13199 11549
" />
<path d="M13405 11549
L13199 11811
" />
<path d="M12843 11811
L13068 11811
" />
<path d="M12955 11811
L12955 11418
L12993 11474
L13030 11511
L13068 11530
" />
<path d="M12693 11455
L12674 11437
L12636 11418
L12543 11418
L12505 11437
L12486 11455
L12468 11493
L12468 11530
L12486 11586
L12711 11811
L12468 11811
" />
<path d="M12243 11586
L12280 11568
L12299 11549
L12318 11511
L12318 11493
L12299 11455
L12280 11437
L12243 11418
L12168 11418
L12130 11437
L12111 11455
L12093 11493
L12093 11511
L12111 11549
L12130 11568
L12168 11586
L12243 11586
L12280 11605
L12299 11624
L12318 11661
L12318 11736
L12299 11774
L12280 11793
L12243 11811
L12168 11811
L12130 11793
L12111 11774
L12093 11736
L12093 11661
L12111 11624
L12130 11605
L12168 11586
" />
</g>
<g style="fill:#000000; fill-opacity:0.0; 
stroke:#000000; stroke-width:47.2441; stroke-opacity:1; 
stroke-linecap:round; stroke-linejoin:round;">
<path d="M7500 12224
L7500 10649
" />
<path d="M7500 10649
L9074 10649
" />
<path d="M20885 10649
L20885 12224
" />
<path d="M19311 10649
L20885 10649
" />
<path d="M7500 22460
L7500 24035
" />
<path d="M7500 24035
L9074 24035
" />
<path d="M20885 24035
L19311 24035
" />
<path d="M20885 24035
L20885 22460
" />
<path d="M12893 26988
L15492 26988
" />
<path d="M12893 25807
L13169 25807
" />
<path d="M15492 26988
L15492 25807
" />
<path d="M12893 26988
L12893 25807
" />
<path d="M13169 25807
L13169 25964
" />
<path d="M15216 25807
L15492 25807
" />
<path d="M15216 25807
L15216 25964
" />
<path d="M15216 25964
L13169 25964
" />
<path d="M15137.8 26988.2 A546.946 546.946 0.0 1 0 14586.6 26988.2" />
<path d="M13799.2 26988.2 A546.946 546.946 0.0 1 0 13248 26988.2" />
</g>
<g style="fill:#000000; fill-opacity:1.0; 
stroke:#000000; stroke-width:3.93701; stroke-opacity:1; 
stroke-linecap:round; stroke-linejoin:round;">
<path style="fill:#000000; fill-opacity:1.0; 
stroke:#000000; stroke-width:3.93701; stroke-opacity:1; 
stroke-linecap:round; stroke-linejoin:round;fill-rule:evenodd;"
d="M 10451.5,37426.6
10414.5,37466.3
10378.7,37504.8
10344.4,37541.5
10312.1,37576.2
10282.2,37608.4
10255,37637.7
10230.9,37663.6
10210.3,37685.8
10193.6,37703.8
10181.2,37717.2
10173.5,37725.6
10171.5,37727.9
10153,37748.7
10329.2,37945.2
10358.8,37978.3
10386.8,38009.7
10412.9,38039
10436.5,38065.7
10457.4,38089.3
10475,38109.4
10489,38125.5
10499,38137.1
10504.4,38143.7
10505.4,38145.2
10502.8,38148.5
10495.3,38156.9
10483.4,38170
10467.5,38187.3
10448,38208.3
10425.3,38232.7
10399.8,38259.8
10372.1,38289.4
10342.4,38320.8
10320.8,38343.7
10290,38376.2
10260.9,38407.1
10233.8,38435.9
10209.1,38462.2
10187.3,38485.5
10168.8,38505.3
10154.1,38521.3
10143.5,38532.9
10137.4,38539.7
10136.1,38541.4
10138.8,38544.4
10146.5,38552.5
10158.9,38565.4
10175.7,38582.6
10196.5,38603.9
10220.9,38628.8
10248.6,38657
10279.3,38688.1
10312.5,38721.8
10348,38757.7
10385.3,38795.5
10419.4,38829.9
10702.6,39115.7
10704.9,39064.2
10705.3,39050.1
10705.9,39029.4
10706.4,39002.9
10707,38971.5
10707.6,38936.4
10708.1,38898.4
10708.6,38858.5
10709.1,38817.7
10709.2,38808.8
10709.6,38764.5
10710,38735.7
10545.8,38735.7
10448.7,38638.6
10351.6,38541.5
10445.7,38447.3
10471.7,38421.4
10492.7,38400.6
10509.4,38384.6
10522.1,38372.8
10531.3,38364.9
10537.5,38360.4
10541.1,38358.9
10542.6,38359.7
10543.1,38364.8
10543.6,38376.9
10544.1,38395
10544.5,38418.5
10544.9,38446.6
10545.2,38478.4
10545.4,38513.3
10545.5,38550.4
10545.5,38551.1
10545.8,38735.7
10710,38735.7
10710.2,38718.2
10710.7,38671.3
10711.4,38625.2
10712,38581.3
10712.6,38541
10713.2,38505.8
10713.7,38480.5
10716.1,38356.1
10880,38519.9
11043.9,38683.8
11105.4,38622.2
11166.9,38560.7
10959.2,38353
10751.6,38145.3
10959.2,37937.6
11166.9,37729.9
11045.8,37608.8
10715,37939.5
10714.1,37554.9
10545.8,37554.9
10545.7,37737.6
10545.6,37774.7
10545.5,37809.6
10545.3,37841.5
10545,37869.8
10544.6,37893.5
10544.2,37911.9
10543.7,37924.1
10543.2,37929.4
10542.2,37931.4
10540.1,37931.7
10536.4,37930
10530.5,37925.6
10522.1,37918.2
10510.5,37907.3
10495.1,37892.4
10475.5,37873.1
10451.2,37848.8
10446.2,37843.8
10351.5,37749.2
10448.7,37652
10545.8,37554.9
10714.1,37554.9
10713.1,37146.2
Z" /> 
<path style="fill:#000000; fill-opacity:1.0; 
stroke:#000000; stroke-width:3.93701; stroke-opacity:1; 
stroke-linecap:round; stroke-linejoin:round;fill-rule:evenodd;"
d="M 17612.2,37272.6
17497.7,37283.9
17496.8,37284.1
17382.9,37303
17270.5,37329.4
17160.1,37363
17052.2,37403.6
16947.1,37451.1
16845.4,37505.2
16747.4,37565.8
16653.6,37632.7
16649.7,37635.7
16623.2,37656.6
16597.7,37677.3
16574,37697.3
16553.1,37715.8
16535.5,37732.1
16522.3,37745.4
16514.1,37755.1
16512.6,37757.6
16506.7,37775.7
16506.3,37795.8
16509.6,37809.5
16513.3,37814.9
16521.6,37824.8
16533.7,37838.3
16548.5,37854.3
16565.3,37872
16583.2,37890.4
16601.2,37908.7
16618.4,37925.9
16634,37941
16647,37953.2
16656.6,37961.4
16676,37973.3
16695.5,37977.8
16715.5,37974.7
16736.3,37964.1
16748.5,37954.8
16814.6,37900.8
16878,37852.9
16939.7,37810.3
17000.8,37772.6
17062.3,37738.8
17124,37709
17222.7,37668.6
17323.4,37635.5
17425.7,37609.7
17529.2,37591.4
17633.5,37580.4
17738.3,37576.8
17843.2,37580.7
17947.8,37592
18051.7,37610.8
18154.6,37637.1
18206.7,37653.4
18302.8,37689.4
18396.8,37732.6
18488,37782.4
18575.4,37838.4
18658.3,37900.1
18709.3,37943
18722,37953.8
18733.6,37963
18742.2,37969.1
18743.9,37970.1
18754.9,37974.5
18767.2,37977.6
18777.4,37978.6
18780.5,37978.1
18786.8,37976.3
18795.3,37974.3
18801.1,37970.9
18811.4,37962.8
18825.1,37950.9
18841.5,37935.9
18859.6,37918.9
18878.6,37900.6
18897.6,37882
18915.6,37863.8
18931.8,37846.9
18945.3,37832.3
18955.2,37820.8
18960.6,37813.3
18960.9,37812.7
18966.3,37793.2
18965.5,37772.7
18961.1,37759.1
18954.8,37750.2
18943,37737.5
18926.4,37721.6
18905.8,37703.4
18882,37683.2
18855.8,37661.9
18827.9,37640.1
18799.1,37618.4
18770.2,37597.4
18742,37577.7
18740.1,37576.4
18690.9,37544.2
18644.5,37515.7
18598.2,37489.4
18549,37463.7
18516.2,37447.5
18468.4,37424.9
18424.8,37405.5
18382.9,37388.4
18340.4,37372.6
18295.1,37357.1
18293.2,37356.5
18183.8,37324.7
18071.9,37300
17958.1,37282.4
17843,37271.9
17727.5,37268.6
Z" /> 
<path style="fill:#000000; fill-opacity:1.0; 
stroke:#000000; stroke-width:3.93701; stroke-opacity:1; 
stroke-linecap:round; stroke-linejoin:round;fill-rule:evenodd;"
d="M 17674.2,37885.9
17579.4,37894.2
17486.4,37910
17395.5,37933.2
17306.6,37963.8
17219.9,38001.8
17135.4,38047.1
17131.3,38049.6
17103.6,38066.7
17075.6,38085.2
17048,38104.5
17021.8,38123.8
16997.8,38142.5
16977,38160
16960.2,38175.4
16948.3,38188.1
16942.6,38196.4
16937.2,38214.7
16937.1,38233.4
16941.7,38248.4
16946.4,38254.7
16955.7,38265.2
16968.6,38279
16984.4,38295.4
17002.2,38313.3
17021,38331.9
17039.9,38350.4
17058.2,38367.9
17074.8,38383.5
17088.9,38396.4
17099.6,38405.5
17106,38410.2
17106.7,38410.5
17121,38413.7
17137.1,38414.3
17151.4,38412.1
17156.7,38410.1
17163.1,38406
17173.8,38398.2
17187.3,38388.1
17197.8,38379.9
17263.3,38332.7
17331.9,38292.4
17403.1,38258.9
17476.4,38232.3
17551.4,38212.4
17627.6,38199.4
17704.4,38193.1
17781.4,38193.7
17858.1,38201.1
17934.1,38215.3
18008.8,38236.4
18081.8,38264.2
18152.6,38298.9
18220.7,38340.4
18274.7,38379.9
18289,38391
18301.8,38400.6
18311.6,38407.5
18315.8,38410.1
18326.9,38413.2
18341.8,38414.1
18357,38412.9
18367,38410.3
18372.4,38406.5
18382.2,38398.1
18395.6,38385.9
18411.6,38370.8
18429.5,38353.6
18448.2,38335.2
18467,38316.5
18484.9,38298.4
18501,38281.8
18514.5,38267.5
18524.6,38256.4
18530.2,38249.3
18530.7,38248.4
18535.5,38232.3
18535.3,38213.7
18531,38198
18525.1,38189.2
18513.6,38176.8
18497.2,38161.7
18477,38144.5
18453.6,38126
18427.9,38107
18426.6,38106
18346.4,38053
18263.6,38007.2
18178.1,37968.6
18090.1,37937.2
17999.5,37913.1
17906.4,37896.3
17810.9,37886.8
17770.8,37885
Z" /> 
<path style="fill:#000000; fill-opacity:1.0; 
stroke:#000000; stroke-width:3.93701; stroke-opacity:1; 
stroke-linecap:round; stroke-linejoin:round;fill-rule:evenodd;"
d="M 17713.2,38500.4
17673.6,38507.6
17635.9,38521.2
17600.9,38540.6
17569.3,38565.5
17542,38595.4
17519.6,38629.8
17502.9,38668.2
17497.7,38686.1
17490.9,38727.4
17491.3,38768.2
17498.5,38807.9
17512.1,38845.6
17531.5,38880.6
17556.4,38912.1
17586.3,38939.5
17620.6,38961.9
17659.1,38978.6
17677,38983.9
17714.9,38990.1
17754.3,38990.5
17792.3,38984.9
17796.9,38983.7
17837.3,38969.3
17874.1,38948.4
17906.7,38921.7
17934.3,38890
17956.4,38853.9
17972.1,38814.1
17974.8,38804.5
17981.6,38763.1
17981.2,38722.2
17973.9,38682.6
17960.4,38644.9
17940.9,38609.9
17916,38578.4
17886.2,38551
17851.7,38528.7
17813.2,38512
17795.4,38506.7
17754.1,38499.9
Z" /> 
</g>
<g style="fill:#000000; fill-opacity:1.0; 
stroke:#000000; stroke-width:47.2441; stroke-opacity:1; 
stroke-linecap:round; stroke-linejoin:round;">
</g>
<g style="fill:#000000; fill-opacity:0.0; 
stroke:#000000; stroke-width:47.2441; stroke-opacity:1; 
stroke-linecap:round; stroke-linejoin:round;">
<path d="M16200 30492
L16200 29665
" />
<path d="M16200 29074
L16200 28602
" />
<path d="M16200 27539
L16200 27933
" />
<path d="M12185 27539
L16200 27539
" />
<path d="M12185 27933
L12185 27539
" />
<path d="M12185 29074
L12185 28602
" />
<path d="M12185 30492
L12185 29665
" />
<path d="M12185 31555
L12185 31161
" />
<path d="M16200 31555
L12185 31555
" />
<path d="M16200 31555
L16200 31161
" />
<path d="M13562 30177
L14822 30177
" />
<path d="M13562 28917
L13562 30177
" />
<path d="M14822 28917
L13562 28917
" />
<path d="M14822 28917
L14822 30177
" />
<circle cx="14192.9" cy="29547.2" r="1181.1" /> 
</g>
<g style="fill:#000000; fill-opacity:1.0; 
stroke:#000000; stroke-width:3.93701; stroke-opacity:1; 
stroke-linecap:round; stroke-linejoin:round;">
<path style="fill:#000000; fill-opacity:1.0; 
stroke:#000000; stroke-width:3.93701; stroke-opacity:1; 
stroke-linecap:round; stroke-linejoin:round;fill-rule:evenodd;"
d="M 14794,25709.9
14801.3,25708.2
14809.2,25705.1
14818,25700
14828.3,25692.7
14840.5,25682.7
14855.2,25669.6
14872.8,25653.2
14893.7,25632.9
14918.5,25608.5
14947.6,25579.5
14981.5,25545.7
14995.4,25531.8
15025.2,25501.9
15053.5,25473.3
15079.9,25446.5
15103.7,25422
15124.6,25400.4
15142,25382.1
15155.4,25367.7
15164.4,25357.7
15168.4,25352.5
15168.4,25352.5
15173.2,25337.8
15175.5,25318.9
15175.3,25298.7
15172.7,25280.2
15168.4,25267.9
15164.2,25262.4
15155.1,25252.2
15141.7,25237.8
15124.6,25219.8
15104.3,25198.8
15081.4,25175.4
15056.6,25150.2
15030.4,25123.7
15003.4,25096.6
14976.2,25069.5
14949.4,25042.9
14923.6,25017.4
14899.3,24993.6
14877.1,24972.1
14857.7,24953.5
14841.7,24938.4
14829.5,24927.3
14821.9,24920.9
14820,24919.7
14804.4,24914.5
14785,24911.8
14765.2,24911.7
14748.5,24914.5
14746.2,24915.3
14724.7,24926.9
14706.6,24943.5
14693.5,24963.5
14689,24975.4
14688,24982.9
14687.1,24996.9
14686.3,25016.2
14685.7,25039.5
14685.3,25065.7
14685.2,25088
14685.2,25187
13978.5,25188
13891.7,25188.1
13812.3,25188.3
13739.9,25188.4
13674.1,25188.5
13614.8,25188.7
13561.5,25188.8
13513.9,25189
13471.7,25189.2
13434.5,25189.4
13402,25189.6
13374,25189.9
13349.9,25190.2
13329.6,25190.5
13312.7,25190.9
13298.8,25191.3
13287.7,25191.8
13278.9,25192.3
13272.2,25192.9
13267.3,25193.5
13263.7,25194.2
13261.2,25194.9
13259.7,25195.6
13241.5,25208.8
13225.5,25226.2
13215.5,25242.8
13211.9,25255.5
13209.4,25273.7
13208.1,25295.4
13207.9,25318.3
13208.9,25340.6
13211,25360
13214.3,25374.6
13215.5,25377.6
13228.2,25397.6
13245.9,25414.9
13264,25426.1
13266.1,25426.9
13268.8,25427.7
13272.3,25428.4
13277.1,25429.1
13283.3,25429.7
13291.5,25430.2
13301.8,25430.7
13314.7,25431.1
13330.5,25431.5
13349.5,25431.8
13372,25432.1
13398.5,25432.3
13429.1,25432.5
13464.3,25432.7
13504.4,25432.8
13549.7,25432.9
13600.6,25433
13657.3,25433
13720.3,25433.1
13789.9,25433.1
13866.3,25433.2
13950,25433.2
13982.1,25433.2
14684.8,25433.3
14686,25540
14686.4,25573.2
14686.9,25599.7
14687.7,25620.4
14688.9,25636.4
14690.8,25648.6
14693.5,25658
14697.2,25665.5
14702.2,25672.2
14708.4,25678.9
14712.4,25683
14729.3,25696.8
14747.7,25705.1
14770.3,25709.2
14770.4,25709.2
14779,25710
14786.7,25710.3
Z" /> 
<path style="fill:#000000; fill-opacity:1.0; 
stroke:#000000; stroke-width:3.93701; stroke-opacity:1; 
stroke-linecap:round; stroke-linejoin:round;fill-rule:evenodd;"
d="M 13603.2,24971.7
13611.3,24971.1
13615.4,24970.7
13638.1,24966.7
13656.5,24958.4
13673.3,24944.6
13673.4,24944.5
13680.5,24937.3
13686.1,24930.6
13690.4,24923.7
13693.7,24915.4
13696,24904.9
13697.6,24891.1
13698.6,24873
13699.2,24849.7
13699.7,24820.2
13699.9,24801.5
13701.1,24694.8
14403.7,24694.7
14490.1,24694.7
14569.1,24694.7
14641.2,24694.6
14706.5,24694.6
14765.5,24694.5
14818.4,24694.5
14865.7,24694.4
14907.6,24694.2
14944.5,24694.1
14976.8,24693.9
15004.7,24693.7
15028.6,24693.4
15048.8,24693.1
15065.7,24692.8
15079.6,24692.4
15090.9,24691.9
15099.8,24691.4
15106.7,24690.8
15111.9,24690.2
15115.9,24689.5
15118.8,24688.8
15121.1,24687.9
15121.8,24687.6
15140.5,24675.9
15157.6,24659.6
15169,24643.4
15172,24633.6
15174.3,24617.9
15175.7,24598.2
15176.3,24576.3
15176,24554
15174.9,24533.2
15173.1,24515.7
15170.3,24503.2
15169,24500
15157.2,24483.5
15141.4,24467.9
15126.2,24457.2
15124.3,24456.4
15121.7,24455.6
15118,24454.9
15112.8,24454.3
15105.8,24453.8
15096.8,24453.2
15085.3,24452.8
15071,24452.4
15053.6,24452
15032.8,24451.7
15008.2,24451.4
14979.6,24451.1
14946.5,24450.9
14908.6,24450.7
14865.6,24450.5
14817.3,24450.3
14763.2,24450.2
14702.9,24450
14636.3,24449.9
14563,24449.8
14482.5,24449.7
14407.6,24449.6
13701.1,24448.6
13699.9,24341.9
13699.5,24308.7
13699,24282.2
13698.2,24261.5
13696.9,24245.5
13695,24233.3
13692.3,24223.9
13688.6,24216.4
13683.7,24209.7
13677.4,24202.9
13673.4,24198.9
13657.1,24185.5
13639.6,24177.3
13618.2,24173.4
13612.2,24172.9
13594.9,24172.7
13581.5,24175
13569.8,24179.4
13564.3,24182.9
13556,24189.4
13544.5,24199.4
13529.5,24213.1
13510.8,24230.9
13488.1,24252.9
13460.9,24279.6
13429.1,24311.2
13392.2,24348
13388.5,24351.7
13358.9,24381.5
13330.8,24409.9
13304.7,24436.5
13281.1,24460.8
13260.5,24482.3
13243.3,24500.3
13230.2,24514.5
13221.5,24524.3
13217.9,24529.1
13213.8,24540.5
13210.5,24555.4
13209.3,24564.6
13208.5,24573.2
13208.2,24580.9
13208.6,24588.1
13210.2,24595.4
13213.3,24603.2
13218.3,24611.9
13225.6,24622.2
13235.5,24634.3
13248.4,24648.9
13264.7,24666.3
13284.8,24687.1
13309,24711.7
13337.8,24740.6
13371.4,24774.2
13388.6,24791.4
13424.6,24827.4
13455.6,24858.3
13482.1,24884.6
13504.6,24906.5
13523.5,24924.5
13539.3,24939
13552.5,24950.3
13563.6,24958.7
13573,24964.7
13581.2,24968.6
13588.6,24970.9
13595.8,24971.8
Z" /> 
<path style="fill:#000000; fill-opacity:1.0; 
stroke:#000000; stroke-width:3.93701; stroke-opacity:1; 
stroke-linecap:round; stroke-linejoin:round;fill-rule:evenodd;"
d="M 14168.5,4532.75
14153.3,4537.96
14148.1,4541.91
14138,4550.9
14123.3,4564.46
14104.7,4582.13
14082.4,4603.47
14057.1,4628.01
14029.1,4655.31
13998.9,4684.9
13966.9,4716.34
13933.7,4749.17
13899.7,4782.92
13865.2,4817.16
13830.9,4851.42
13797.1,4885.25
13764.3,4918.19
13733,4949.8
13703.5,4979.6
13676.5,5007.16
13652.2,5032.01
13631.3,5053.69
13614.1,5071.77
13601.1,5085.77
13592.7,5095.25
13589.8,5099.12
13582.1,5118.51
13579,5141.12
13580.7,5163.99
13587.1,5184.17
13587.9,5185.66
13593.9,5194.26
13604.4,5206.67
13618.3,5221.84
13634.5,5238.69
13652,5256.19
13669.7,5273.28
13686.5,5288.89
13701.4,5301.97
13713.2,5311.46
13720.8,5316.29
13739.8,5321.05
13761.8,5321.81
13783.6,5318.66
13796.8,5314.21
13801.7,5311.2
13809.2,5305.44
13819.5,5296.64
13832.9,5284.49
13849.7,5268.7
13870.2,5248.96
13894.8,5224.99
13923.8,5196.47
13957.5,5163.1
13996.1,5124.6
14004.5,5116.25
14194.9,4926.12
14385.3,5116.86
14429.2,5160.77
14467.9,5199.14
14501.2,5231.99
14529.4,5259.35
14552.3,5281.24
14570.1,5297.68
14582.6,5308.7
14590.1,5314.31
14591,5314.81
14610.4,5320.6
14632.7,5322.09
14654.4,5319.3
14668.3,5314.39
14676.1,5309.08
14688.3,5299.02
14703.7,5285.08
14721.6,5268.12
14740.9,5249.02
14741.9,5247.98
14762.8,5226.63
14778.8,5209.58
14790.5,5195.8
14798.7,5184.25
14803.9,5173.9
14806.8,5163.7
14808,5152.62
14808.2,5141.43
14808.2,5135.45
14807.9,5129.85
14806.9,5124.27
14805.1,5118.38
14802.1,5111.84
14797.5,5104.3
14791.2,5095.42
14782.7,5084.85
14771.8,5072.26
14758.2,5057.3
14741.6,5039.63
14721.6,5018.91
14698,4994.79
14670.5,4966.93
14638.7,4935
14602.4,4898.63
14561.2,4857.5
14517.4,4813.7
14466.9,4763.38
14421.6,4718.44
14381.5,4678.75
14346.4,4644.19
14316.2,4614.64
14290.7,4589.98
14269.8,4570.08
14253.4,4554.82
14241.4,4544.08
14233.6,4537.73
14230.5,4535.81
14211.6,4531
14189.8,4530.01
Z" /> 
<path style="fill:#000000; fill-opacity:1.0; 
stroke:#000000; stroke-width:3.93701; stroke-opacity:1; 
stroke-linecap:round; stroke-linejoin:round;fill-rule:evenodd;"
d="M 14170.6,5270.07
14155.3,5274.27
14150.5,5277.54
14141.5,5285.12
14128.3,5297.12
14110.6,5313.68
14088.4,5334.91
14061.6,5360.93
14030,5391.88
13993.5,5427.88
13952,5469.03
13905.3,5515.48
13868.5,5552.16
13822.4,5598.14
13781.5,5639.02
13745.4,5675.16
13713.8,5706.88
13686.5,5734.55
13663.1,5758.49
13643.3,5779.05
13626.9,5796.57
13613.4,5811.4
13602.6,5823.87
13594.3,5834.33
13588,5843.12
13583.6,5850.59
13580.6,5857.07
13578.8,5862.91
13577.9,5868.45
13577.6,5874.03
13577.6,5879.44
13577.9,5892.11
13579.4,5903.12
13582.8,5913.49
13588.6,5924.25
13597.6,5936.44
13610.3,5951.08
13627.4,5969.22
13644.4,5986.61
13665.2,6007.35
13683.8,6025.12
13699.5,6039.2
13711.5,6048.87
13717.9,6052.96
13736.5,6058.7
13758.2,6060.56
13779.6,6058.46
13792.1,6054.76
13798.1,6050.74
13809,6041.73
13824.6,6027.64
13845.1,6008.39
13870.7,5983.9
13901.3,5954.09
13937.1,5918.87
13969.8,5886.45
14000.2,5856.26
14029.8,5826.92
14058,5799.01
14084.1,5773.12
14107.7,5749.82
14128.1,5729.72
14144.6,5713.39
14156.8,5701.43
14163.1,5695.33
14192.9,5666.62
14382.3,5855.73
14421.9,5895.2
14456.5,5929.46
14486.3,5958.83
14511.6,5983.59
14532.9,6004.05
14550.3,6020.51
14564.3,6033.27
14575.1,6042.63
14583,6048.89
14588.4,6052.35
14589.1,6052.67
14609.6,6058.73
14632.5,6060.45
14654.6,6057.81
14667.9,6053.37
14676.3,6047.87
14689.1,6037.26
14705.7,6022.19
14725.3,6003.27
14741.5,5987.04
14762.5,5965.55
14778.5,5948.39
14790.3,5934.53
14798.5,5922.92
14803.8,5912.56
14806.7,5902.39
14808,5891.41
14808.2,5879.89
14808.1,5874.06
14807.8,5868.6
14806.9,5863.17
14805.1,5857.42
14802.1,5851.01
14797.6,5843.6
14791.3,5834.84
14782.9,5824.39
14772.1,5811.91
14758.6,5797.04
14742.1,5779.45
14722.2,5758.79
14698.7,5734.72
14671.2,5706.9
14639.5,5674.97
14603.3,5638.6
14562.2,5597.44
14520.6,5555.83
14471.2,5506.39
14426.9,5462.28
14387.7,5423.32
14353.3,5389.35
14323.5,5360.17
14298.3,5335.64
14277.3,5315.56
14260.5,5299.76
14247.7,5288.08
14238.6,5280.34
14233,5276.37
14232.4,5276.02
14213.9,5270.44
14192.1,5268.43
Z" /> 
</g>
<g style="fill:#000000; fill-opacity:1.0; 
stroke:#000000; stroke-width:47.2441; stroke-opacity:1; 
stroke-linecap:round; stroke-linejoin:round;">
</g>
<g style="fill:#000000; fill-opacity:0.0; 
stroke:#000000; stroke-width:47.2441; stroke-opacity:1; 
stroke-linecap:round; stroke-linejoin:round;">
<path d="M14547 1437
L14429 1437
" />
<path d="M13956 1437
L13838 1437
" />
<path d="M13799 1830
L13956 1830
" />
<path d="M14429 1830
L14586 1830
" />
<path d="M14606.3 1318.9 A429.928 429.928 0.0 0 0 13779.5 1318.9" />
<circle cx="23257.9" cy="34234.3" r="50" /> 
</g>
<g style="fill:#000000; fill-opacity:0.0; 
stroke:#000000; stroke-width:39.3701; stroke-opacity:1; 
stroke-linecap:round; stroke-linejoin:round;">
<path d="M23405 32874
L23405 34094
" />
<path d="M23405 34094
L20610 34094
" />
<path d="M20610 32874
L20610 34094
" />
<path d="M23405 32874
L20610 32874
" />
</g>
<g style="fill:#000000; fill-opacity:1.0; 
stroke:#000000; stroke-width:3.93701; stroke-opacity:1; 
stroke-linecap:round; stroke-linejoin:round;">
<path style="fill:#000000; fill-opacity:1.0; 
stroke:#000000; stroke-width:3.93701; stroke-opacity:1; 
stroke-linecap:round; stroke-linejoin:round;fill-rule:evenodd;"
d="M 5970.23,34298.2
5934.57,34302.8
5915.32,34307.1
5866,34323.9
5819.77,34347.5
5777.3,34377.3
5739.28,34412.6
5706.4,34453
5679.34,34497.8
5673.9,34508.9
5659.05,34544.9
5648.94,34580.4
5642.88,34618.1
5640.67,34647.9
5641.9,34701.6
5650.5,34753.4
5666.32,34802.8
5689.24,34849.4
5719.1,34892.9
5742.19,34919.3
5776.12,34951.2
5812.24,34977.5
5852.1,34999.2
5897.25,35017.2
5911.48,35021.9
5945.26,35032.5
6629.88,35033.3
6717.24,35033.4
6797.22,35033.5
6870.13,35033.5
6936.27,35033.6
6995.95,35033.5
7049.49,35033.5
7097.19,35033.4
7139.36,35033.3
7176.31,35033.1
7208.35,35032.9
7235.79,35032.6
7258.94,35032.3
7278.1,35032
7293.58,35031.6
7305.7,35031.1
7314.77,35030.6
7321.08,35030
7324.96,35029.4
7326.22,35029
7340.09,35019.8
7352.02,35006.3
7359.65,34991.4
7360.74,34987.2
7361.41,34979.5
7361.87,34965.5
7362.11,34946.8
7362.11,34924.8
7361.85,34901
7361.31,34873.5
7360.5,34852.6
7359.1,34836.9
7356.78,34825.3
7353.22,34816.7
7348.11,34809.8
7341.12,34803.4
7334.17,34798.1
7332.77,34797.1
7331.15,34796.2
7328.95,34795.4
7325.85,34794.6
7321.49,34793.9
7315.53,34793.3
7307.63,34792.8
7297.45,34792.3
7284.66,34791.8
7268.89,34791.4
7249.83,34791.1
7227.11,34790.7
7200.41,34790.5
7169.37,34790.2
7133.66,34789.9
7092.94,34789.7
7046.86,34789.5
6995.08,34789.3
6937.26,34789.1
6873.06,34788.9
6802.13,34788.7
6724.14,34788.5
6653.63,34788.2
5983.72,34786.3
5962.11,34776.2
5947,34767.9
5931.97,34757.7
5924.72,34751.8
5906.23,34730.2
5893.94,34705.4
5887.87,34678.4
5888.02,34650.7
5894.42,34623.6
5907.09,34598.2
5922.62,34579.1
5946.14,34560.5
5972.62,34548.9
6002.45,34544.2
6008.72,34544.1
6039.41,34547.6
6066.85,34558
6090.61,34575
6110.25,34598.3
6120.45,34616.4
6127.7,34631
6134.57,34642.3
6142.11,34650.8
6151.39,34656.9
6163.45,34661
6179.35,34663.4
6200.14,34664.7
6226.89,34665.1
6248.02,34665.1
6274.62,34665
6294.72,34664.8
6309.51,34664.3
6320.19,34663.4
6327.95,34662.1
6333.98,34660.1
6339.49,34657.4
6341.2,34656.5
6356.09,34645.5
6365.77,34632
6370.34,34615.2
6369.92,34594.4
6364.63,34568.7
6357.75,34546.6
6337.81,34499.1
6311.67,34455.5
6278.73,34415
6276.31,34412.4
6237.32,34376.3
6194.45,34346.8
6147.51,34323.7
6096.28,34307
6077.95,34302.8
6044.96,34298.1
6008.04,34296.6
Z" /> 
<path style="fill:#000000; fill-opacity:1.0; 
stroke:#000000; stroke-width:3.93701; stroke-opacity:1; 
stroke-linecap:round; stroke-linejoin:round;fill-rule:evenodd;"
d="M 6836.24,35158
6803.08,35158.2
6774.75,35158.7
6750.68,35159.3
6730.29,35160.2
6713.01,35161.4
6698.27,35162.8
6685.49,35164.6
6674.12,35166.7
6663.56,35169.3
6653.25,35172.2
6642.62,35175.5
6637.57,35177.2
6586.74,35197.9
6540.22,35224.9
6498.38,35257.7
6461.62,35296.2
6437.55,35328.6
6413.03,35371.3
6395.39,35415.4
6384.19,35462.3
6379.2,35509.4
6380.24,35561
6388.33,35610.8
6402.98,35658.3
6423.67,35702.9
6449.93,35744.2
6481.24,35781.6
6517.11,35814.6
6557.04,35842.6
6600.54,35865.3
6647.1,35881.9
6696.24,35892.1
6747.44,35895.3
6749.11,35895.3
6766.91,35894.9
6783.02,35894.3
6795.06,35893.6
6799.11,35893.2
6848.18,35882.6
6895.81,35864.8
6941.05,35840.4
6982.93,35809.8
7013.39,35781.1
7047,35741.4
7073.55,35700
7093.62,35655.7
7105.4,35617.6
7109.32,35601.6
7111.36,35590.8
7111.57,35582.9
7110.03,35575.6
7107.04,35567.2
7097.92,35550.9
7086.58,35539.1
7072.81,35528.6
6995.57,35527.4
6971.13,35527.2
6948.59,35527.2
6929.36,35527.4
6914.85,35527.8
6906.46,35528.5
6905.95,35528.5
6889.12,35535.5
6874.09,35549.8
6860.75,35571.5
6859.58,35573.9
6842.66,35601.6
6820.84,35623.3
6797.18,35637.8
6770.73,35646.3
6742.6,35648.2
6714.45,35643.7
6687.93,35633.1
6664.69,35616.8
6660.77,35613.1
6643.12,35590.4
6631.4,35564.3
6625.87,35536.3
6626.81,35508
6634.49,35480.9
6636.72,35476.1
6653.37,35450.8
6676.21,35429.9
6700.57,35415.7
6722.18,35405.6
7022.87,35403.6
7078.03,35403.3
7126.02,35403
7167.37,35402.6
7202.58,35402.3
7232.17,35402
7256.68,35401.6
7276.62,35401.2
7292.51,35400.7
7304.86,35400.1
7314.21,35399.4
7321.07,35398.6
7325.95,35397.7
7329.39,35396.6
7331.9,35395.3
7334,35393.9
7334.17,35393.8
7342.43,35387.4
7348.77,35381.5
7353.43,35375
7356.68,35366.7
7358.77,35355.6
7359.96,35340.6
7360.49,35320.5
7360.64,35294.3
7360.65,35280.6
7360.59,35251.3
7360.26,35228.7
7359.39,35211.6
7357.73,35198.9
7355.03,35189.5
7351.02,35182.3
7345.45,35176.3
7338.07,35170.3
7334.17,35167.3
7332.06,35165.9
7329.6,35164.6
7326.27,35163.5
7321.52,35162.5
7314.85,35161.7
7305.71,35161.1
7293.6,35160.5
7277.97,35160.1
7258.31,35159.7
7234.09,35159.4
7204.79,35159.1
7169.87,35158.9
7128.82,35158.7
7081.1,35158.5
7028.63,35158.3
6970.43,35158
6919.35,35157.9
6874.81,35157.9
Z" /> 
<path style="fill:#000000; fill-opacity:1.0; 
stroke:#000000; stroke-width:3.93701; stroke-opacity:1; 
stroke-linecap:round; stroke-linejoin:round;fill-rule:evenodd;"
d="M 5995.12,35157.6
5949.78,35157.7
5910.61,35157.9
5877.1,35158.1
5848.73,35158.5
5825.01,35158.9
5805.43,35159.4
5789.47,35160
5776.64,35160.7
5766.41,35161.5
5758.29,35162.5
5754.24,35163.1
5697.27,35176.8
5643.66,35197.4
5593.78,35224.5
5548.01,35258
5506.72,35297.6
5470.29,35343.1
5463.93,35352.4
5436.72,35400
5416.17,35450.5
5402.25,35503
5394.96,35556.8
5394.27,35611
5400.17,35664.8
5412.65,35717.4
5431.68,35768
5457.26,35815.7
5473.55,35839.8
5511.21,35884.8
5553.5,35923.7
5600.07,35956.4
5650.58,35982.6
5704.68,36002.1
5752.51,36013.1
5772.5,36015.6
5796.97,36017.4
5823.26,36018.3
5848.69,36018.3
5870.59,36017.3
5879.88,36016.3
5934.32,36005.1
5986.65,35986.9
6036.17,35962.1
6082.22,35931.4
6124.1,35895.1
6161.13,35853.9
6192.64,35808.2
6217.21,35760.3
6226.58,35735.8
6231.16,35716
6231.05,35699.8
6226.32,35685.8
6223.15,35680.5
6216.89,35671.6
6211.01,35664.8
6204.43,35659.7
6196.06,35656.1
6184.82,35653.7
6169.64,35652.2
6149.43,35651.3
6123.11,35650.8
6108.51,35650.5
6077.75,35650.2
6053.57,35650.3
6034.86,35651.2
6020.52,35653.2
6009.44,35656.7
6000.5,35661.9
5992.61,35669.1
5984.64,35678.8
5977.29,35688.8
5951.9,35718.8
5924.15,35741.7
5893.27,35758.1
5858.49,35768.4
5851.63,35769.7
5816.74,35772
5783.06,35767.4
5751.3,35756.5
5722.16,35740
5696.36,35718.7
5674.59,35693.3
5657.56,35664.4
5645.98,35632.8
5640.56,35599.2
5642,35564.3
5642.61,35560.4
5652.29,35524.7
5668.42,35492.2
5690.24,35463.5
5716.99,35439.7
5747.89,35421.4
5777.64,35410.7
5783.57,35409.3
5790.38,35408.1
5798.69,35407.1
5809.13,35406.3
5822.34,35405.6
5838.93,35405.1
5859.53,35404.7
5884.77,35404.4
5915.28,35404.2
5951.69,35404
5994.61,35403.9
6037.77,35403.9
6272.59,35403.6
6281.48,35375.7
6300.95,35325.7
6326.7,35276.8
6357.63,35230.8
6392.64,35189.5
6413.13,35169.4
6426.03,35157.7
6106.34,35157.6
6047.14,35157.6
Z" /> 
<path style="fill:#000000; fill-opacity:1.0; 
stroke:#000000; stroke-width:3.93701; stroke-opacity:1; 
stroke-linecap:round; stroke-linejoin:round;fill-rule:evenodd;"
d="M 21498.3,34298
21437.5,34306
21379.4,34321.3
21324,34343.7
21271.2,34373.4
21221,34410.4
21178.8,34449
21135.4,34497.6
21099.3,34548.9
21070.3,34603
21048.3,34660.2
21033.3,34720.5
21025.3,34784.1
21024.4,34800.3
21025.3,34864.3
21033.7,34926.9
21049.5,34987.8
21072.6,35046.5
21102.9,35102.6
21124.7,35135.3
21140.6,35157.3
21600.2,35157.5
21655.7,35046.5
21673.6,35010.9
21688.6,34982
21700.9,34959.4
21710.6,34942.7
21717.9,34931.5
21723.1,34925.5
21740.9,34915.1
21760.7,34912
21781.4,34916
21795.5,34922.9
21798.6,34925.3
21802.2,34929.5
21806.7,34935.8
21812.3,34944.9
21819.4,34957.3
21828.1,34973.5
21838.9,34994
21851.9,35019.3
21867.5,35050.1
21885.9,35086.7
21904.9,35124.7
21922.9,35160.6
21939.9,35194.3
21955.5,35225.3
21969.5,35252.9
21981.6,35276.5
21991.4,35295.5
21998.6,35309.3
22002.9,35317.2
22004.1,35319
22006,35315.6
22010.7,35305.7
22018.1,35289.9
22027.9,35268.8
22039.8,35242.8
22053.6,35212.6
22068.9,35178.8
22085.7,35141.8
22103.5,35102.2
22118.9,35068.1
22141.4,35017.9
22161.1,34974.3
22178.1,34936.7
22192.8,34904.8
22205.3,34878
22216,34855.9
22225.1,34838
22232.9,34823.9
22239.6,34813
22245.5,34804.9
22250.9,34799.2
22256,34795.4
22261.1,34792.9
22266.4,34791.4
22272.2,34790.4
22274.4,34790.1
22293,34790.4
22311.2,34796
22326.4,34805.9
22334.1,34815
22337.1,34820.9
22342.6,34833.2
22350.4,34851.1
22360.2,34873.7
22371.5,34900.4
22384.2,34930.4
22397.8,34962.9
22410,34992.2
22478.6,35157.5
22875.2,35157.4
22895.5,35128.9
22927.6,35077.4
22953.4,35022.3
22972.8,34964.4
22985.5,34904.4
22991.6,34843.3
22990.8,34782
22983.1,34721.3
22968.3,34662
22965.6,34653.6
22943.9,34599.5
22916,34548.6
22881.4,34500.1
22841.6,34455.2
22796.8,34413.1
22750.8,34378.1
22702.5,34349.7
22651,34327.2
22595.2,34310
22573.3,34304.9
22549.7,34301.2
22520.8,34298.8
22488.7,34297.6
22455.7,34297.7
22424,34299.1
22395.9,34301.8
22377.1,34304.9
22317.1,34321.2
22260.5,34343.9
22256.3,34345.9
22234.9,34356.7
22215.3,34367.9
22196.3,34380.2
22177,34394.6
22156.4,34411.8
22133.4,34432.5
22106.9,34457.5
22085.8,34478.2
22007.9,34555
21930,34478.2
21900.6,34449.6
21875.3,34425.9
21853.1,34406.3
21832.9,34390.1
21813.8,34376.4
21794.8,34364.5
21774.7,34353.5
21759.4,34345.9
21712.7,34325.9
21666.8,34311.5
21619.3,34302.2
21567.7,34297.4
21561.7,34297.2
Z" /> 
<path style="fill:#000000; fill-opacity:1.0; 
stroke:#000000; stroke-width:3.93701; stroke-opacity:1; 
stroke-linecap:round; stroke-linejoin:round;fill-rule:evenodd;"
d="M 22278.6,35014.1
22273.6,35024.5
22266.1,35040.8
22256.2,35062.3
22244.2,35088.6
22230.3,35119
22214.9,35153.1
22198.1,35190.1
22180.3,35229.6
22167.7,35257.5
22142.6,35313.3
22120.3,35362.2
22101,35404.2
22084.6,35439.2
22071.1,35467.3
22060.7,35488.5
22053.2,35502.6
22048.8,35509.6
22048.2,35510.2
22032.6,35519.8
22013.8,35525.1
21995.6,35525.3
21994.9,35525.1
21988.9,35523.8
21983.4,35522
21978,35519
21972.6,35514.5
21966.6,35507.8
21959.9,35498.5
21952.1,35486
21942.9,35469.9
21931.9,35449.6
21918.8,35424.6
21903.4,35394.3
21885.3,35358.4
21864.1,35316.1
21859,35305.9
21760.7,35109.4
21675.3,35280.5
21257.7,35282.5
21609.4,35642.1
21652.7,35686.3
21694.7,35729.1
21735,35770.1
21773.4,35809
21809.4,35845.5
21842.9,35879.2
21873.3,35909.9
21900.5,35937.1
21924,35960.5
21943.6,35979.8
21958.9,35994.7
21969.5,36004.9
21975.2,36009.9
21975.8,36010.3
21995.2,36017.6
22007.9,36018.9
22028.4,36015.5
22040,36010.3
22044.5,36006.5
22054,35997.6
22068.2,35983.8
22086.8,35965.5
22109.4,35943
22135.7,35916.7
22165.4,35886.8
22198.2,35853.8
22233.6,35817.9
22271.5,35779.6
22311.4,35739
22353,35696.6
22396,35652.7
22406.3,35642.1
22757.9,35282.5
22398,35280.5
22340.8,35143.8
22328.1,35113.5
22316.1,35085.8
22305.4,35061.2
22296.2,35040.6
22288.8,35024.8
22283.6,35014.4
22280.9,35010.2
22280.6,35010.2
Z" /> 
</g>
<g style="fill:#000000; fill-opacity:0.0; 
stroke:#000000; stroke-width:80; stroke-opacity:1; 
stroke-linecap:round; stroke-linejoin:round;">
<circle cx="5777.95" cy="34084.3" r="50" /> 
<path d="M6860 33001
L5895 33001
" />
<path d="M5895 33966
L6860 33966
" />
</g>
<g style="fill:#000000; fill-opacity:0.0; 
stroke:#000000; stroke-width:39.3701; stroke-opacity:1; 
stroke-linecap:round; stroke-linejoin:round;">
<text x="14192.9" y="31299.2"
transform="scale(-1 1) translate(-28385.827559 0)"
textLength="523.154" font-size="262.467" lengthAdjust="spacingAndGlyphs"
text-anchor="middle" opacity="0">SW1</text>
<path d="M14455 31280
L14427 31289
L14380 31289
L14361 31280
L14352 31271
L14342 31252
L14342 31233
L14352 31214
L14361 31205
L14380 31196
L14417 31186
L14436 31177
L14446 31167
L14455 31149
L14455 31130
L14446 31111
L14436 31102
L14417 31092
L14371 31092
L14342 31102
" />
<path d="M14277 31092
L14230 31289
L14192 31149
L14155 31289
L14108 31092
" />
<path d="M13930 31289
L14042 31289
" />
<path d="M13986 31289
L13986 31092
L14005 31121
L14024 31139
L14042 31149
" />
<g >
</g>
</g>
<g style="fill:#000000; fill-opacity:0.0; 
stroke:#000000; stroke-width:39.3701; stroke-opacity:1; 
stroke-linecap:round; stroke-linejoin:round;">
<path d="M9074.8 9468.5 A393.701 393.701 0.0 0 0 9074.8 10255.9" />
<path d="M19311 10255.9 A393.701 393.701 0.0 0 0 19311 9468.5" />
<path d="M9074 9468
L19311 9468
" />
<path d="M19311 10255
L9074 10255
" />
<path d="M6633 19
L19 7106
" />
<path d="M22736 19
L28366 7106
" />
<path d="M19 39389
L28366 39389
" />
<path d="M6633 19
L22736 19
" />
<path d="M19 39389
L19 7106
" />
<path d="M28366 7106
L28366 39389
" />
<g >
</g>
<g >
</g>
<g >
</g>
<g >
</g>
<g >
</g>
<g >
</g>
<g >
</g>
<g >
</g>
<g >
</g>
<g >
</g>
<g >
</g>
<g >
</g>
<g >
</g>
<g >
</g>
<g >
</g>
<g >
</g>
<g >
</g>
<g >
</g>
<g >
</g>
<g >
</g>
<g >
</g>
<g >
</g>
<g >
</g>
<g >
</g>
<g >
</g>
<g >
</g>
<g >
</g>
<g >
</g>
<g >
</g>
<g >
</g>
<g >
</g>
<g >
</g>
<g >
</g>
<g >
</g>
<g >
</g>
<g >
</g>
<g >
</g>
<g >
</g>
<g >
</g>
<g >
</g>
<g >
</g>
<g >
</g>
<g >
</g>
<g >
</g>
<g >
</g>
<g >
</g>
<g >
</g>
<g >
</g>
<g >
</g>
<g >
</g>
<g >
</g>
<g >
</g>
<g >
</g>
<g >
</g>
<g >
</g>
<g >
</g>
<g >
</g>
<g >
</g>
<g >
</g>
<g >
</g>
<g >
</g>
<g >
</g>
<g >
</g>
<g >
</g>
<g >
</g>
<g >
</g>
<g >
</g>
<g >
</g>
<g >
</g>
<g >
</g>
<g >
</g>
<g >
</g>
<g >
</g>
<g >
</g>
<g >
</g>
<g >
</g>
<g >
</g>
<g >
</g>
<g >
</g>
<g >
</g>
<g >
</g>
<g >
</g>
<g >
</g>
<g >
</g>
<g >
</g>
<g >
</g>
<g >
</g>
<g >
</g>
<g >
</g>
<g >
</g>
<g >
</g>
<g >
</g>
<g >
</g>
<g >
</g>
<g >
</g>
<g >
</g>
<g >
</g>
<g >
</g>
<g >
</g>
<g >
</g>
<g >
</g>
<g >
</g>
<g >
</g>
<g >
</g>
<g >
</g>
<g >
</g>
<g >
</g>
<g >
</g>
<g >
</g>
<g >
</g>
<g >
</g>
<g >
</g>
<g >
</g>
<g >
</g>
<g >
</g>
<g >
</g>
<g >
</g>
<g >
</g>
<g >
</g>
<g >
</g>
<g >
</g>
<g >
</g>
<g >
</g>
<g >
</g>
<g >
</g>
<g >
</g>
<g >
</g>
<g >
</g>
<g >
</g>
<g >
</g>
<g >
</g>
<g >
</g>
<g >
</g>
<g >
</g>
<g >
</g>
<g >
</g>
<g >
</g>
<g >
</g>
<g >
</g>
<g >
</g>
<g >
</g>
<g >
</g>
</g> 
</svg>
