<?xml version="1.0" standalone="no"?>
 <!DOCTYPE svg PUBLIC "-//W3C//DTD SVG 1.1//EN" 
 "http://www.w3.org/Graphics/SVG/1.1/DTD/svg11.dtd"> 
<svg
  xmlns:svg="http://www.w3.org/2000/svg"
  xmlns="http://www.w3.org/2000/svg"
  xmlns:xlink="http://www.w3.org/1999/xlink"
  version="1.1"
  width="7.208520cm" height="10.007600cm" viewBox="0 0 72085200 100076000">
<title>SVG Picture created as Teebeutel-B_Mask.svg date 2022/01/05 13:11:23 </title>
  <desc>Picture generated by PCBNEW </desc>
<g style="fill:#000000; fill-opacity:1.000000;stroke:#000000; stroke-opacity:1.000000;
stroke-linecap:round; stroke-linejoin:round;"
 transform="translate(0 0) scale(1 1)">
</g>
<g style="fill:#000000; fill-opacity:0.0; 
stroke:#000000; stroke-width:0.000000; stroke-opacity:1; 
stroke-linecap:round; stroke-linejoin:round;">
</g>
<g style="fill:#000000; fill-opacity:0.0; 
stroke:#000000; stroke-width:1000000.000000; stroke-opacity:1; 
stroke-linecap:round; stroke-linejoin:round;">
<circle cx="4035200.000000" cy="6050000.000000" r="500000.000000" /> 
<circle cx="68035200.000000" cy="6050000.000000" r="500000.000000" /> 
</g>
<g style="fill:#000000; fill-opacity:0.0; 
stroke:#000000; stroke-width:10000.000000; stroke-opacity:1; 
stroke-linecap:round; stroke-linejoin:round;">
<path d="M65430076 67470476
L65643810 67471951
" />
<path d="M65643810 67471951
L65817820 67476709
" />
<path d="M65817820 67476709
L65959235 67485710
" />
<path d="M65959235 67485710
L66075179 67499913
" />
<path d="M66075179 67499913
L66172779 67520278
" />
<path d="M66172779 67520278
L66259161 67547764
" />
<path d="M66259161 67547764
L66341451 67583332
" />
<path d="M66341451 67583332
L66368660 67596872
" />
<path d="M66368660 67596872
L66520038 67692564
" />
<path d="M66520038 67692564
L66656392 67818354
" />
<path d="M66656392 67818354
L66778853 67976559
" />
<path d="M66778853 67976559
L66888554 68169491
" />
<path d="M66888554 68169491
L66986627 68399465
" />
<path d="M66986627 68399465
L67074203 68668797
" />
<path d="M67074203 68668797
L67152416 68979800
" />
<path d="M67152416 68979800
L67222396 69334790
" />
<path d="M67222396 69334790
L67224425 69346399
" />
<path d="M67224425 69346399
L67243713 69467123
" />
<path d="M67243713 69467123
L67257633 69581731
" />
<path d="M67257633 69581731
L67266936 69701759
" />
<path d="M67266936 69701759
L67272377 69838747
" />
<path d="M67272377 69838747
L67274708 70004233
" />
<path d="M67274708 70004233
L67274929 70120360
" />
<path d="M67274929 70120360
L67272370 70342139
" />
<path d="M67272370 70342139
L67263819 70530043
" />
<path d="M67263819 70530043
L67247141 70696946
" />
<path d="M67247141 70696946
L67220200 70855722
" />
<path d="M67220200 70855722
L67180857 71019244
" />
<path d="M67180857 71019244
L67126979 71200387
" />
<path d="M67126979 71200387
L67064476 71388588
" />
<path d="M67064476 71388588
L66966419 71653291
" />
<path d="M66966419 71653291
L66867218 71875371
" />
<path d="M66867218 71875371
L66763969 72059080
" />
<path d="M66763969 72059080
L66653766 72208668
" />
<path d="M66653766 72208668
L66533706 72328386
" />
<path d="M66533706 72328386
L66400883 72422485
" />
<path d="M66400883 72422485
L66332957 72459201
" />
<path d="M66332957 72459201
L66153745 72547784
" />
<path d="M66153745 72547784
L64123789 72559511
" />
<path d="M64123789 72559511
L62093834 72571238
" />
<path d="M62093834 72571238
L62079964 72887858
" />
<path d="M62079964 72887858
L64591618 72887858
" />
<path d="M64591618 72887858
L64591618 73434085
" />
<path d="M64591618 73434085
L64590019 73663282
" />
<path d="M64590019 73663282
L64583905 73852371
" />
<path d="M64583905 73852371
L64571304 74008083
" />
<path d="M64571304 74008083
L64550241 74137147
" />
<path d="M64550241 74137147
L64518742 74246293
" />
<path d="M64518742 74246293
L64474833 74342251
" />
<path d="M64474833 74342251
L64416540 74431752
" />
<path d="M64416540 74431752
L64341890 74521525
" />
<path d="M64341890 74521525
L64248908 74618300
" />
<path d="M64248908 74618300
L64242386 74624792
" />
<path d="M64242386 74624792
L64082931 74763235
" />
<path d="M64082931 74763235
L63899325 74883976
" />
<path d="M63899325 74883976
L63686399 74989472
" />
<path d="M63686399 74989472
L63438983 75082178
" />
<path d="M63438983 75082178
L63151907 75164551
" />
<path d="M63151907 75164551
L63058620 75187300
" />
<path d="M63058620 75187300
L62773834 75242429
" />
<path d="M62773834 75242429
L62469944 75280028
" />
<path d="M62469944 75280028
L62161960 75299189
" />
<path d="M62161960 75299189
L61864893 75299006
" />
<path d="M61864893 75299006
L61593755 75278572
" />
<path d="M61593755 75278572
L61578695 75276689
" />
<path d="M61578695 75276689
L61416965 75251006
" />
<path d="M61416965 75251006
L61229929 75213411
" />
<path d="M61229929 75213411
L61035086 75168011
" />
<path d="M61035086 75168011
L60849932 75118913
" />
<path d="M60849932 75118913
L60691965 75070223
" />
<path d="M60691965 75070223
L60676749 75064981
" />
<path d="M60676749 75064981
L60401096 74950780
" />
<path d="M60401096 74950780
L60160761 74813636
" />
<path d="M60160761 74813636
L59957790 74655243
" />
<path d="M59957790 74655243
L59794234 74477295
" />
<path d="M59794234 74477295
L59672140 74281486
" />
<path d="M59672140 74281486
L59638557 74206518
" />
<path d="M59638557 74206518
L59627038 74177378
" />
<path d="M59627038 74177378
L59617258 74148932
" />
<path d="M59617258 74148932
L59609052 74117234
" />
<path d="M59609052 74117234
L59602256 74078336
" />
<path d="M59602256 74078336
L59596706 74028288
" />
<path d="M59596706 74028288
L59595545 74011350
" />
<path d="M59595545 74011350
L63027508 74011350
" />
<path d="M63027508 74011350
L63051442 74140417
" />
<path d="M63051442 74140417
L63108987 74255260
" />
<path d="M63108987 74255260
L63193841 74350632
" />
<path d="M63193841 74350632
L63299700 74421289
" />
<path d="M63299700 74421289
L63420263 74461985
" />
<path d="M63420263 74461985
L63549225 74467475
" />
<path d="M63549225 74467475
L63680285 74432514
" />
<path d="M63680285 74432514
L63702772 74421943
" />
<path d="M63702772 74421943
L63756709 74384789
" />
<path d="M63756709 74384789
L63817413 74329184
" />
<path d="M63817413 74329184
L63835146 74309997
" />
<path d="M63835146 74309997
L63913696 74190557
" />
<path d="M63913696 74190557
L63951656 74064592
" />
<path d="M63951656 74064592
L63952895 73938489
" />
<path d="M63952895 73938489
L63921281 73818635
" />
<path d="M63921281 73818635
L63860684 73711417
" />
<path d="M63860684 73711417
L63774973 73623224
" />
<path d="M63774973 73623224
L63668015 73560443
" />
<path d="M63668015 73560443
L63543680 73529461
" />
<path d="M63543680 73529461
L63405837 73536665
" />
<path d="M63405837 73536665
L63371598 73544672
" />
<path d="M63371598 73544672
L63261704 73595375
" />
<path d="M63261704 73595375
L63160690 73679385
" />
<path d="M63160690 73679385
L63081918 73783318
" />
<path d="M63081918 73783318
L63043490 73873303
" />
<path d="M63043490 73873303
L63027508 74011350
" />
<path d="M63027508 74011350
L59595545 74011350
" />
<path d="M59595545 74011350
L59592237 73963144
" />
<path d="M59592237 73963144
L59588685 73878955
" />
<path d="M59588685 73878955
L59585886 73771773
" />
<path d="M59585886 73771773
L59583676 73637650
" />
<path d="M59583676 73637650
L59581891 73472638
" />
<path d="M59581891 73472638
L59580365 73272788
" />
<path d="M59580365 73272788
L59578936 73034153
" />
<path d="M59578936 73034153
L59577438 72752785
" />
<path d="M59577438 72752785
L59577347 72735411
" />
<path d="M59577347 72735411
L59576022 72401362
" />
<path d="M59576022 72401362
L59575792 72112483
" />
<path d="M59575792 72112483
L59576680 71867048
" />
<path d="M59576680 71867048
L59578708 71663331
" />
<path d="M59578708 71663331
L59581900 71499609
" />
<path d="M59581900 71499609
L59586279 71374155
" />
<path d="M59586279 71374155
L59591868 71285244
" />
<path d="M59591868 71285244
L59597442 71237969
" />
<path d="M59597442 71237969
L59648669 71048722
" />
<path d="M59648669 71048722
L59735219 70857333
" />
<path d="M59735219 70857333
L59848945 70679287
" />
<path d="M59848945 70679287
L59957836 70553036
" />
<path d="M59957836 70553036
L60105338 70423530
" />
<path d="M60105338 70423530
L60263148 70322871
" />
<path d="M60263148 70322871
L60448234 70240484
" />
<path d="M60448234 70240484
L60475551 70230431
" />
<path d="M60475551 70230431
L60504985 70220231
" />
<path d="M60504985 70220231
L60534960 70211457
" />
<path d="M60534960 70211457
L60569173 70203966
" />
<path d="M60569173 70203966
L60611317 70197616
" />
<path d="M60611317 70197616
L60665090 70192268
" />
<path d="M60665090 70192268
L60734185 70187778
" />
<path d="M60734185 70187778
L60822298 70184005
" />
<path d="M60822298 70184005
L60933125 70180807
" />
<path d="M60933125 70180807
L61070361 70178044
" />
<path d="M61070361 70178044
L61237701 70175572
" />
<path d="M61237701 70175572
L61438840 70173251
" />
<path d="M61438840 70173251
L61677474 70170939
" />
<path d="M61677474 70170939
L61957298 70168494
" />
<path d="M61957298 70168494
L62129014 70167050
" />
<path d="M62129014 70167050
L62432884 70164475
" />
<path d="M62432884 70164475
L62693570 70162112
" />
<path d="M62693570 70162112
L62914794 70159818
" />
<path d="M62914794 70159818
L63100278 70157449
" />
<path d="M63100278 70157449
L63253744 70154862
" />
<path d="M63253744 70154862
L63378913 70151913
" />
<path d="M63378913 70151913
L63479507 70148459
" />
<path d="M63479507 70148459
L63559248 70144356
" />
<path d="M63559248 70144356
L63621857 70139461
" />
<path d="M63621857 70139461
L63671056 70133630
" />
<path d="M63671056 70133630
L63710568 70126720
" />
<path d="M63710568 70126720
L63744113 70118586
" />
<path d="M63744113 70118586
L63775413 70109086
" />
<path d="M63775413 70109086
L63794203 70102827
" />
<path d="M63794203 70102827
L64021485 70003474
" />
<path d="M64021485 70003474
L64236129 69866441
" />
<path d="M64236129 69866441
L64429524 69699040
" />
<path d="M64429524 69699040
L64593064 69508582
" />
<path d="M64593064 69508582
L64704435 69329670
" />
<path d="M64704435 69329670
L64756609 69224997
" />
<path d="M64756609 69224997
L64798484 69129174
" />
<path d="M64798484 69129174
L64831169 69035224
" />
<path d="M64831169 69035224
L64855777 68936169
" />
<path d="M64855777 68936169
L64873416 68825033
" />
<path d="M64873416 68825033
L64885199 68694839
" />
<path d="M64885199 68694839
L64892235 68538610
" />
<path d="M64892235 68538610
L64895636 68349368
" />
<path d="M64895636 68349368
L64896512 68123072
" />
<path d="M64896512 68123072
L64896512 67470130
" />
<path d="M64896512 67470130
L65430076 67470476
" />
</g>
<g style="fill:#000000; fill-opacity:1.0; 
stroke:#000000; stroke-width:1.000000; stroke-opacity:1; 
stroke-linecap:round; stroke-linejoin:round;">
<circle cx="65430076.000000" cy="67470476.000000" r="5000.000000" /> 
</g>
<g style="fill:#000000; fill-opacity:1.0; 
stroke:#000000; stroke-width:10000.000000; stroke-opacity:1; 
stroke-linecap:round; stroke-linejoin:round;">
<path style="fill:#000000; fill-opacity:1.0; 
stroke:#000000; stroke-width:10000.000000; stroke-opacity:1; 
stroke-linecap:round; stroke-linejoin:round;fill-rule:evenodd;"
d="M 59602256.000000,74078336.000000
59609052.000000,74117234.000000
59617258.000000,74148932.000000
59627038.000000,74177378.000000
59638557.000000,74206518.000000
59672140.000000,74281486.000000
59794234.000000,74477295.000000
59957790.000000,74655243.000000
60160761.000000,74813636.000000
60401096.000000,74950780.000000
60676749.000000,75064981.000000
60691965.000000,75070223.000000
60849932.000000,75118913.000000
61035086.000000,75168011.000000
61229929.000000,75213411.000000
61416965.000000,75251006.000000
61578695.000000,75276689.000000
61593755.000000,75278572.000000
61864893.000000,75299006.000000
62161960.000000,75299189.000000
62469944.000000,75280028.000000
62773834.000000,75242429.000000
63058620.000000,75187300.000000
63151907.000000,75164551.000000
63438983.000000,75082178.000000
63686399.000000,74989472.000000
63899325.000000,74883976.000000
64082931.000000,74763235.000000
64242386.000000,74624792.000000
64248908.000000,74618300.000000
64341890.000000,74521525.000000
64416540.000000,74431752.000000
64474833.000000,74342251.000000
64518742.000000,74246293.000000
64550241.000000,74137147.000000
64571304.000000,74008083.000000
64576936.000000,73938489.000000
63952895.000000,73938489.000000
63951656.000000,74064592.000000
63913696.000000,74190557.000000
63835146.000000,74309997.000000
63817413.000000,74329184.000000
63756709.000000,74384789.000000
63702772.000000,74421943.000000
63680285.000000,74432514.000000
63549225.000000,74467475.000000
63420263.000000,74461985.000000
63299700.000000,74421289.000000
63193841.000000,74350632.000000
63108987.000000,74255260.000000
63051442.000000,74140417.000000
63027508.000000,74011350.000000
63043490.000000,73873303.000000
63081918.000000,73783318.000000
63160690.000000,73679385.000000
63261704.000000,73595375.000000
63371598.000000,73544672.000000
63405837.000000,73536665.000000
63543680.000000,73529461.000000
63668015.000000,73560443.000000
63774973.000000,73623224.000000
63860684.000000,73711417.000000
63921281.000000,73818635.000000
63952895.000000,73938489.000000
64576936.000000,73938489.000000
64583905.000000,73852371.000000
64590019.000000,73663282.000000
64591618.000000,73434085.000000
64591618.000000,72887858.000000
62079964.000000,72887858.000000
62093834.000000,72571238.000000
64123789.000000,72559511.000000
66153745.000000,72547784.000000
66332957.000000,72459201.000000
66400883.000000,72422485.000000
66533706.000000,72328386.000000
66653766.000000,72208668.000000
66763969.000000,72059080.000000
66867218.000000,71875371.000000
66966419.000000,71653291.000000
67064476.000000,71388588.000000
67126979.000000,71200387.000000
67180857.000000,71019244.000000
67220200.000000,70855722.000000
67247141.000000,70696946.000000
67263819.000000,70530043.000000
67272370.000000,70342139.000000
67274929.000000,70120360.000000
67274708.000000,70004233.000000
67272377.000000,69838747.000000
67266936.000000,69701759.000000
67257633.000000,69581731.000000
67243713.000000,69467123.000000
67224425.000000,69346399.000000
67222396.000000,69334790.000000
67152416.000000,68979800.000000
67074203.000000,68668797.000000
66986627.000000,68399465.000000
66888554.000000,68169491.000000
66778853.000000,67976559.000000
66656392.000000,67818354.000000
66520038.000000,67692564.000000
66368660.000000,67596872.000000
66341451.000000,67583332.000000
66259161.000000,67547764.000000
66172779.000000,67520278.000000
66075179.000000,67499913.000000
65959235.000000,67485710.000000
65817820.000000,67476709.000000
65643810.000000,67471951.000000
65430076.000000,67470476.000000
64896512.000000,67470130.000000
64896512.000000,68123072.000000
64895636.000000,68349368.000000
64892235.000000,68538610.000000
64885199.000000,68694839.000000
64873416.000000,68825033.000000
64855777.000000,68936169.000000
64831169.000000,69035224.000000
64798484.000000,69129174.000000
64756609.000000,69224997.000000
64704435.000000,69329670.000000
64593064.000000,69508582.000000
64429524.000000,69699040.000000
64236129.000000,69866441.000000
64021485.000000,70003474.000000
63794203.000000,70102827.000000
63775413.000000,70109086.000000
63744113.000000,70118586.000000
63710568.000000,70126720.000000
63671056.000000,70133630.000000
63621857.000000,70139461.000000
63559248.000000,70144356.000000
63479507.000000,70148459.000000
63378913.000000,70151913.000000
63253744.000000,70154862.000000
63100278.000000,70157449.000000
62914794.000000,70159818.000000
62693570.000000,70162112.000000
62432884.000000,70164475.000000
62129014.000000,70167050.000000
61957298.000000,70168494.000000
61677474.000000,70170939.000000
61438840.000000,70173251.000000
61237701.000000,70175572.000000
61070361.000000,70178044.000000
60933125.000000,70180807.000000
60822298.000000,70184005.000000
60734185.000000,70187778.000000
60665090.000000,70192268.000000
60611317.000000,70197616.000000
60569173.000000,70203966.000000
60534960.000000,70211457.000000
60504985.000000,70220231.000000
60475551.000000,70230431.000000
60448234.000000,70240484.000000
60263148.000000,70322871.000000
60105338.000000,70423530.000000
59957836.000000,70553036.000000
59848945.000000,70679287.000000
59735219.000000,70857333.000000
59648669.000000,71048722.000000
59597442.000000,71237969.000000
59591868.000000,71285244.000000
59586279.000000,71374155.000000
59581900.000000,71499609.000000
59578708.000000,71663331.000000
59576680.000000,71867048.000000
59575792.000000,72112483.000000
59576022.000000,72401362.000000
59577347.000000,72735411.000000
59577438.000000,72752785.000000
59578936.000000,73034153.000000
59580365.000000,73272788.000000
59581891.000000,73472638.000000
59583676.000000,73637650.000000
59585886.000000,73771773.000000
59588685.000000,73878955.000000
59592237.000000,73963144.000000
59595545.000000,74011350.000000
59596706.000000,74028288.000000
Z" /> 
</g>
<g style="fill:#000000; fill-opacity:0.0; 
stroke:#000000; stroke-width:10000.000000; stroke-opacity:1; 
stroke-linecap:round; stroke-linejoin:round;">
<path d="M62146684 64799485
L62427328 64810687
" />
<path d="M62427328 64810687
L62698041 64830215
" />
<path d="M62698041 64830215
L62951355 64857543
" />
<path d="M62951355 64857543
L63179799 64892144
" />
<path d="M63179799 64892144
L63375903 64933492
" />
<path d="M63375903 64933492
L63518960 64976177
" />
<path d="M63518960 64976177
L63758667 65083872
" />
<path d="M63758667 65083872
L63969958 65222207
" />
<path d="M63969958 65222207
L64149256 65387546
" />
<path d="M64149256 65387546
L64292986 65576251
" />
<path d="M64292986 65576251
L64397573 65784686
" />
<path d="M64397573 65784686
L64438439 65911455
" />
<path d="M64438439 65911455
L64446284 65947720
" />
<path d="M64446284 65947720
L64452936 65993996
" />
<path d="M64452936 65993996
L64458488 66054086
" />
<path d="M64458488 66054086
L64463030 66131792
" />
<path d="M64463030 66131792
L64466657 66230919
" />
<path d="M64466657 66230919
L64469459 66355267
" />
<path d="M64469459 66355267
L64471529 66508642
" />
<path d="M64471529 66508642
L64472960 66694845
" />
<path d="M64472960 66694845
L64473844 66917681
" />
<path d="M64473844 66917681
L64474272 67180951
" />
<path d="M64474272 67180951
L64474351 67391816
" />
<path d="M64474351 67391816
L64473861 67731673
" />
<path d="M64473861 67731673
L64472400 68028438
" />
<path d="M64472400 68028438
L64469977 68281508
" />
<path d="M64469977 68281508
L64466603 68490285
" />
<path d="M64466603 68490285
L64462288 68654166
" />
<path d="M64462288 68654166
L64457044 68772551
" />
<path d="M64457044 68772551
L64450880 68844839
" />
<path d="M64450880 68844839
L64448623 68858587
" />
<path d="M64448623 68858587
L64378767 69083273
" />
<path d="M64378767 69083273
L64267598 69288818
" />
<path d="M64267598 69288818
L64117880 69472132
" />
<path d="M64117880 69472132
L63932376 69630125
" />
<path d="M63932376 69630125
L63713847 69759709
" />
<path d="M63713847 69759709
L63596521 69811512
" />
<path d="M63596521 69811512
L63572458 69819257
" />
<path d="M63572458 69819257
L63539661 69826003
" />
<path d="M63539661 69826003
L63494647 69831861
" />
<path d="M63494647 69831861
L63433936 69836939
" />
<path d="M63433936 69836939
L63354048 69841349
" />
<path d="M63354048 69841349
L63251503 69845198
" />
<path d="M63251503 69845198
L63122819 69848599
" />
<path d="M63122819 69848599
L62964516 69851659
" />
<path d="M62964516 69851659
L62773114 69854489
" />
<path d="M62773114 69854489
L62545132 69857198
" />
<path d="M62545132 69857198
L62277089 69859897
" />
<path d="M62277089 69859897
L61976567 69862600
" />
<path d="M61976567 69862600
L61671718 69865261
" />
<path d="M61671718 69865261
L61410049 69867680
" />
<path d="M61410049 69867680
L61187833 69870006
" />
<path d="M61187833 69870006
L61001346 69872385
" />
<path d="M61001346 69872385
L60846860 69874967
" />
<path d="M60846860 69874967
L60720651 69877900
" />
<path d="M60720651 69877900
L60618993 69881333
" />
<path d="M60618993 69881333
L60538160 69885412
" />
<path d="M60538160 69885412
L60474427 69890287
" />
<path d="M60474427 69890287
L60424067 69896105
" />
<path d="M60424067 69896105
L60383355 69903016
" />
<path d="M60383355 69903016
L60348565 69911166
" />
<path d="M60348565 69911166
L60315972 69920705
" />
<path d="M60315972 69920705
L60287924 69929781
" />
<path d="M60287924 69929781
L60089186 70007616
" />
<path d="M60089186 70007616
L59913263 70105653
" />
<path d="M59913263 70105653
L59746288 70232651
" />
<path d="M59746288 70232651
L59617986 70352771
" />
<path d="M59617986 70352771
L59516447 70458853
" />
<path d="M59516447 70458853
L59440902 70549756
" />
<path d="M59440902 70549756
L59380792 70639696
" />
<path d="M59380792 70639696
L59325560 70742893
" />
<path d="M59325560 70742893
L59320329 70753601
" />
<path d="M59320329 70753601
L59273495 70855277
" />
<path d="M59273495 70855277
L59235973 70951441
" />
<path d="M59235973 70951441
L59206770 71049016
" />
<path d="M59206770 71049016
L59184893 71154927
" />
<path d="M59184893 71154927
L59169346 71276095
" />
<path d="M59169346 71276095
L59159137 71419447
" />
<path d="M59159137 71419447
L59153270 71591903
" />
<path d="M59153270 71591903
L59150753 71800390
" />
<path d="M59150753 71800390
L59150436 71937008
" />
<path d="M59150436 71937008
L59150436 72559511
" />
<path d="M59150436 72559511
L58605145 72557414
" />
<path d="M58605145 72557414
L58384852 72555179
" />
<path d="M58384852 72555179
L58209682 72550289
" />
<path d="M58209682 72550289
L58077921 72542659
" />
<path d="M58077921 72542659
L57987854 72532203
" />
<path d="M57987854 72532203
L57954314 72524888
" />
<path d="M57954314 72524888
L57732443 72437122
" />
<path d="M57732443 72437122
L57533473 72308874
" />
<path d="M57533473 72308874
L57358659 72141277
" />
<path d="M57358659 72141277
L57209261 71935466
" />
<path d="M57209261 71935466
L57123710 71776128
" />
<path d="M57123710 71776128
L57042692 71577008
" />
<path d="M57042692 71577008
L56969127 71341475
" />
<path d="M56969127 71341475
L56904983 71079700
" />
<path d="M56904983 71079700
L56852230 70801857
" />
<path d="M56852230 70801857
L56812836 70518116
" />
<path d="M56812836 70518116
L56788772 70238649
" />
<path d="M56788772 70238649
L56781838 70010158
" />
<path d="M56781838 70010158
L56789256 69789084
" />
<path d="M56789256 69789084
L56810505 69548105
" />
<path d="M56810505 69548105
L56843617 69298792
" />
<path d="M56843617 69298792
L56886628 69052718
" />
<path d="M56886628 69052718
L56937573 68821456
" />
<path d="M56937573 68821456
L56994484 68616578
" />
<path d="M56994484 68616578
L57040993 68484441
" />
<path d="M57040993 68484441
L57161123 68238900
" />
<path d="M57161123 68238900
L57313205 68023412
" />
<path d="M57313205 68023412
L57494177 67841431
" />
<path d="M57494177 67841431
L57700974 67696412
" />
<path d="M57700974 67696412
L57774715 67657081
" />
<path d="M57774715 67657081
L57835695 67626553
" />
<path d="M57835695 67626553
L57889374 67599841
" />
<path d="M57889374 67599841
L57939167 67576678
" />
<path d="M57939167 67576678
L57988486 67556798
" />
<path d="M57988486 67556798
L58040746 67539934
" />
<path d="M58040746 67539934
L58099359 67525821
" />
<path d="M58099359 67525821
L58167741 67514192
" />
<path d="M58167741 67514192
L58249305 67504781
" />
<path d="M58249305 67504781
L58347464 67497321
" />
<path d="M58347464 67497321
L58465632 67491547
" />
<path d="M58465632 67491547
L58607223 67487191
" />
<path d="M58607223 67487191
L58775650 67483988
" />
<path d="M58775650 67483988
L58974328 67481672
" />
<path d="M58974328 67481672
L59206671 67479976
" />
<path d="M59206671 67479976
L59476091 67478634
" />
<path d="M59476091 67478634
L59786003 67477379
" />
<path d="M59786003 67477379
L60094434 67476138
" />
<path d="M60094434 67476138
L61964840 67468280
" />
<path d="M61964840 67468280
L61964840 67165236
" />
<path d="M61964840 67165236
L59455330 67165236
" />
<path d="M59455330 67165236
L59456054 66619945
" />
<path d="M59456054 66619945
L59458000 66367080
" />
<path d="M59458000 66367080
L59463743 66155428
" />
<path d="M59463743 66155428
L59468444 66076549
" />
<path d="M59468444 66076549
L60096510 66076549
" />
<path d="M60096510 66076549
L60128560 66216233
" />
<path d="M60128560 66216233
L60198272 66338590
" />
<path d="M60198272 66338590
L60292376 66427638
" />
<path d="M60292376 66427638
L60411548 66485262
" />
<path d="M60411548 66485262
L60543846 66508857
" />
<path d="M60543846 66508857
L60677327 66495814
" />
<path d="M60677327 66495814
L60766703 66462663
" />
<path d="M60766703 66462663
L60882868 66380123
" />
<path d="M60882868 66380123
L60964298 66274155
" />
<path d="M60964298 66274155
L61010975 66152875
" />
<path d="M61010975 66152875
L61022878 66024400
" />
<path d="M61022878 66024400
L60999987 65896846
" />
<path d="M60999987 65896846
L60942284 65778331
" />
<path d="M60942284 65778331
L60849748 65676970
" />
<path d="M60849748 65676970
L60768718 65622946
" />
<path d="M60768718 65622946
L60640337 65578898
" />
<path d="M60640337 65578898
L60506378 65575794
" />
<path d="M60506378 65575794
L60377285 65610722
" />
<path d="M60377285 65610722
L60263501 65680771
" />
<path d="M60263501 65680771
L60175467 65783030
" />
<path d="M60175467 65783030
L60171662 65789391
" />
<path d="M60171662 65789391
L60110835 65933393
" />
<path d="M60110835 65933393
L60096510 66076549
" />
<path d="M60096510 66076549
L59468444 66076549
" />
<path d="M59468444 66076549
L59474236 65979380
" />
<path d="M59474236 65979380
L59490435 65833328
" />
<path d="M59490435 65833328
L59513292 65711666
" />
<path d="M59513292 65711666
L59543763 65608783
" />
<path d="M59543763 65608783
L59582801 65519074
" />
<path d="M59582801 65519074
L59631360 65436929
" />
<path d="M59631360 65436929
L59665491 65388901
" />
<path d="M59665491 65388901
L59786741 65261782
" />
<path d="M59786741 65261782
L59948396 65150157
" />
<path d="M59948396 65150157
L60151205 65053769
" />
<path d="M60151205 65053769
L60395919 64972361
" />
<path d="M60395919 64972361
L60683287 64905676
" />
<path d="M60683287 64905676
L61014057 64853456
" />
<path d="M61014057 64853456
L61319873 64821106
" />
<path d="M61319873 64821106
L61585486 64804168
" />
<path d="M61585486 64804168
L61863580 64797136
" />
<path d="M61863580 64797136
L62146684 64799485
" />
</g>
<g style="fill:#000000; fill-opacity:1.0; 
stroke:#000000; stroke-width:1.000000; stroke-opacity:1; 
stroke-linecap:round; stroke-linejoin:round;">
<circle cx="62146684.000000" cy="64799485.000000" r="5000.000000" /> 
</g>
<g style="fill:#000000; fill-opacity:1.0; 
stroke:#000000; stroke-width:10000.000000; stroke-opacity:1; 
stroke-linecap:round; stroke-linejoin:round;">
<path style="fill:#000000; fill-opacity:1.0; 
stroke:#000000; stroke-width:10000.000000; stroke-opacity:1; 
stroke-linecap:round; stroke-linejoin:round;fill-rule:evenodd;"
d="M 59458000.000000,66367080.000000
59456054.000000,66619945.000000
59455330.000000,67165236.000000
61964840.000000,67165236.000000
61964840.000000,67468280.000000
60094434.000000,67476138.000000
59786003.000000,67477379.000000
59476091.000000,67478634.000000
59206671.000000,67479976.000000
58974328.000000,67481672.000000
58775650.000000,67483988.000000
58607223.000000,67487191.000000
58465632.000000,67491547.000000
58347464.000000,67497321.000000
58249305.000000,67504781.000000
58167741.000000,67514192.000000
58099359.000000,67525821.000000
58040746.000000,67539934.000000
57988486.000000,67556798.000000
57939167.000000,67576678.000000
57889374.000000,67599841.000000
57835695.000000,67626553.000000
57774715.000000,67657081.000000
57700974.000000,67696412.000000
57494177.000000,67841431.000000
57313205.000000,68023412.000000
57161123.000000,68238900.000000
57040993.000000,68484441.000000
56994484.000000,68616578.000000
56937573.000000,68821456.000000
56886628.000000,69052718.000000
56843617.000000,69298792.000000
56810505.000000,69548105.000000
56789256.000000,69789084.000000
56781838.000000,70010158.000000
56788772.000000,70238649.000000
56812836.000000,70518116.000000
56852230.000000,70801857.000000
56904983.000000,71079700.000000
56969127.000000,71341475.000000
57042692.000000,71577008.000000
57123710.000000,71776128.000000
57209261.000000,71935466.000000
57358659.000000,72141277.000000
57533473.000000,72308874.000000
57732443.000000,72437122.000000
57954314.000000,72524888.000000
57987854.000000,72532203.000000
58077921.000000,72542659.000000
58209682.000000,72550289.000000
58384852.000000,72555179.000000
58605145.000000,72557414.000000
59150436.000000,72559511.000000
59150436.000000,71937008.000000
59150753.000000,71800390.000000
59153270.000000,71591903.000000
59159137.000000,71419447.000000
59169346.000000,71276095.000000
59184893.000000,71154927.000000
59206770.000000,71049016.000000
59235973.000000,70951441.000000
59273495.000000,70855277.000000
59320329.000000,70753601.000000
59325560.000000,70742893.000000
59380792.000000,70639696.000000
59440902.000000,70549756.000000
59516447.000000,70458853.000000
59617986.000000,70352771.000000
59746288.000000,70232651.000000
59913263.000000,70105653.000000
60089186.000000,70007616.000000
60287924.000000,69929781.000000
60315972.000000,69920705.000000
60348565.000000,69911166.000000
60383355.000000,69903016.000000
60424067.000000,69896105.000000
60474427.000000,69890287.000000
60538160.000000,69885412.000000
60618993.000000,69881333.000000
60720651.000000,69877900.000000
60846860.000000,69874967.000000
61001346.000000,69872385.000000
61187833.000000,69870006.000000
61410049.000000,69867680.000000
61671718.000000,69865261.000000
61976567.000000,69862600.000000
62277089.000000,69859897.000000
62545132.000000,69857198.000000
62773114.000000,69854489.000000
62964516.000000,69851659.000000
63122819.000000,69848599.000000
63251503.000000,69845198.000000
63354048.000000,69841349.000000
63433936.000000,69836939.000000
63494647.000000,69831861.000000
63539661.000000,69826003.000000
63572458.000000,69819257.000000
63596521.000000,69811512.000000
63713847.000000,69759709.000000
63932376.000000,69630125.000000
64117880.000000,69472132.000000
64267598.000000,69288818.000000
64378767.000000,69083273.000000
64448623.000000,68858587.000000
64450880.000000,68844839.000000
64457044.000000,68772551.000000
64462288.000000,68654166.000000
64466603.000000,68490285.000000
64469977.000000,68281508.000000
64472400.000000,68028438.000000
64473861.000000,67731673.000000
64474351.000000,67391816.000000
64474272.000000,67180951.000000
64473844.000000,66917681.000000
64472960.000000,66694845.000000
64471529.000000,66508642.000000
64469459.000000,66355267.000000
64466657.000000,66230919.000000
64463030.000000,66131792.000000
64458488.000000,66054086.000000
64455745.000000,66024400.000000
61022878.000000,66024400.000000
61010975.000000,66152875.000000
60964298.000000,66274155.000000
60882868.000000,66380123.000000
60766703.000000,66462663.000000
60677327.000000,66495814.000000
60543846.000000,66508857.000000
60411548.000000,66485262.000000
60292376.000000,66427638.000000
60198272.000000,66338590.000000
60128560.000000,66216233.000000
60096510.000000,66076549.000000
60110835.000000,65933393.000000
60171662.000000,65789391.000000
60175467.000000,65783030.000000
60263501.000000,65680771.000000
60377285.000000,65610722.000000
60506378.000000,65575794.000000
60640337.000000,65578898.000000
60768718.000000,65622946.000000
60849748.000000,65676970.000000
60942284.000000,65778331.000000
60999987.000000,65896846.000000
61022878.000000,66024400.000000
64455745.000000,66024400.000000
64452936.000000,65993996.000000
64446284.000000,65947720.000000
64438439.000000,65911455.000000
64397573.000000,65784686.000000
64292986.000000,65576251.000000
64149256.000000,65387546.000000
63969958.000000,65222207.000000
63758667.000000,65083872.000000
63518960.000000,64976177.000000
63375903.000000,64933492.000000
63179799.000000,64892144.000000
62951355.000000,64857543.000000
62698041.000000,64830215.000000
62427328.000000,64810687.000000
62146684.000000,64799485.000000
61863580.000000,64797136.000000
61585486.000000,64804168.000000
61319873.000000,64821106.000000
61014057.000000,64853456.000000
60683287.000000,64905676.000000
60395919.000000,64972361.000000
60151205.000000,65053769.000000
59948396.000000,65150157.000000
59786741.000000,65261782.000000
59665491.000000,65388901.000000
59631360.000000,65436929.000000
59582801.000000,65519074.000000
59543763.000000,65608783.000000
59513292.000000,65711666.000000
59490435.000000,65833328.000000
59474236.000000,65979380.000000
59468444.000000,66076549.000000
59463743.000000,66155428.000000
Z" /> 
</g>
<g style="fill:#000000; fill-opacity:1.0; 
stroke:#000000; stroke-width:100.000000; stroke-opacity:1; 
stroke-linecap:round; stroke-linejoin:round;">
</g>
<g style="fill:#000000; fill-opacity:0.0; 
stroke:#000000; stroke-width:100.000000; stroke-opacity:1; 
stroke-linecap:round; stroke-linejoin:round;">
<path d="M56610200 84100000
L55160200 84100000
" />
<path d="M55160200 84100000
L55160200 86000000
" />
<path d="M55160200 86000000
L56285200 86000000
" />
<path d="M56285200 86000000
L56610200 85675000
" />
<path d="M56610200 85675000
L56610200 84100000
" />
</g>
<g style="fill:#000000; fill-opacity:1.0; 
stroke:#000000; stroke-width:100.000000; stroke-opacity:1; 
stroke-linecap:round; stroke-linejoin:round;">
<path style="fill:#000000; fill-opacity:1.0; 
stroke:#000000; stroke-width:100.000000; stroke-opacity:1; 
stroke-linecap:round; stroke-linejoin:round;fill-rule:evenodd;"
d="M 55160200.000000,86000000.000000
56285200.000000,86000000.000000
56610200.000000,85675000.000000
56610200.000000,84100000.000000
55160200.000000,84100000.000000
Z" /> 
<g >
</g>
<g >
</g>
<g >
</g>
<g >
</g>
<g >
</g>
<g >
</g>
<g >
</g>
<g >
</g>
<g >
</g>
<g >
</g>
<g >
</g>
<g >
</g>
<g >
</g>
<g >
</g>
<g >
</g>
<g >
</g>
<g >
</g>
<g >
</g>
<g style="fill:#000000; fill-opacity:1.0; 
stroke:#000000; stroke-width:100.000000; stroke-opacity:1; 
stroke-linecap:round; stroke-linejoin:round;">
</g>
<g style="fill:#000000; fill-opacity:1.0; 
stroke:#000000; stroke-width:1.000000; stroke-opacity:1; 
stroke-linecap:round; stroke-linejoin:round;">
<circle cx="29775200.000000" cy="5500000.000000" r="1625000.000000" /> 
</g>
<g style="fill:#000000; fill-opacity:1.0; 
stroke:#000000; stroke-width:21200.000000; stroke-opacity:1; 
stroke-linecap:round; stroke-linejoin:round;">
</g>
<g style="fill:#000000; fill-opacity:1.0; 
stroke:#000000; stroke-width:1.000000; stroke-opacity:1; 
stroke-linecap:round; stroke-linejoin:round;">
<circle cx="42475200.000000" cy="5500000.000000" r="1625000.000000" /> 
</g>
<g style="fill:#000000; fill-opacity:1.0; 
stroke:#000000; stroke-width:21200.000000; stroke-opacity:1; 
stroke-linecap:round; stroke-linejoin:round;">
</g>
<g style="fill:#000000; fill-opacity:1.0; 
stroke:#000000; stroke-width:1.000000; stroke-opacity:1; 
stroke-linecap:round; stroke-linejoin:round;">
<path style="fill:#000000; fill-opacity:1.0; 
stroke:#000000; stroke-width:1.000000; stroke-opacity:1; 
stroke-linecap:round; stroke-linejoin:round;fill-rule:evenodd;"
d="M 40435199.000000,8789999.000000
40435199.000000,7290001.000000
38935201.000000,7290001.000000
38935201.000000,8789999.000000
Z" /> 
<circle cx="38669200.000000" cy="9820000.000000" r="750000.000000" /> 
</g>
<g style="fill:#000000; fill-opacity:1.0; 
stroke:#000000; stroke-width:21200.000000; stroke-opacity:1; 
stroke-linecap:round; stroke-linejoin:round;">
</g>
<g style="fill:#000000; fill-opacity:1.0; 
stroke:#000000; stroke-width:1.000000; stroke-opacity:1; 
stroke-linecap:round; stroke-linejoin:round;">
<circle cx="37653200.000000" cy="8040000.000000" r="750000.000000" /> 
</g>
<g style="fill:#000000; fill-opacity:1.0; 
stroke:#000000; stroke-width:21200.000000; stroke-opacity:1; 
stroke-linecap:round; stroke-linejoin:round;">
</g>
<g style="fill:#000000; fill-opacity:1.0; 
stroke:#000000; stroke-width:1.000000; stroke-opacity:1; 
stroke-linecap:round; stroke-linejoin:round;">
<circle cx="36637200.000000" cy="9820000.000000" r="750000.000000" /> 
</g>
<g style="fill:#000000; fill-opacity:1.0; 
stroke:#000000; stroke-width:21200.000000; stroke-opacity:1; 
stroke-linecap:round; stroke-linejoin:round;">
</g>
<g style="fill:#000000; fill-opacity:1.0; 
stroke:#000000; stroke-width:1.000000; stroke-opacity:1; 
stroke-linecap:round; stroke-linejoin:round;">
<circle cx="35621200.000000" cy="8040000.000000" r="750000.000000" /> 
</g>
<g style="fill:#000000; fill-opacity:1.0; 
stroke:#000000; stroke-width:21200.000000; stroke-opacity:1; 
stroke-linecap:round; stroke-linejoin:round;">
</g>
<g style="fill:#000000; fill-opacity:1.0; 
stroke:#000000; stroke-width:1.000000; stroke-opacity:1; 
stroke-linecap:round; stroke-linejoin:round;">
<circle cx="34605200.000000" cy="9820000.000000" r="750000.000000" /> 
</g>
<g style="fill:#000000; fill-opacity:1.0; 
stroke:#000000; stroke-width:21200.000000; stroke-opacity:1; 
stroke-linecap:round; stroke-linejoin:round;">
</g>
<g style="fill:#000000; fill-opacity:1.0; 
stroke:#000000; stroke-width:1.000000; stroke-opacity:1; 
stroke-linecap:round; stroke-linejoin:round;">
<circle cx="33589200.000000" cy="8040000.000000" r="750000.000000" /> 
</g>
<g style="fill:#000000; fill-opacity:1.0; 
stroke:#000000; stroke-width:21200.000000; stroke-opacity:1; 
stroke-linecap:round; stroke-linejoin:round;">
</g>
<g style="fill:#000000; fill-opacity:1.0; 
stroke:#000000; stroke-width:1.000000; stroke-opacity:1; 
stroke-linecap:round; stroke-linejoin:round;">
<circle cx="32573200.000000" cy="9820000.000000" r="750000.000000" /> 
</g>
<g style="fill:#000000; fill-opacity:1.0; 
stroke:#000000; stroke-width:21200.000000; stroke-opacity:1; 
stroke-linecap:round; stroke-linejoin:round;">
</g>
<g style="fill:#000000; fill-opacity:1.0; 
stroke:#000000; stroke-width:1.000000; stroke-opacity:1; 
stroke-linecap:round; stroke-linejoin:round;">
<circle cx="42985200.000000" cy="14640000.000000" r="750000.000000" /> 
</g>
<g style="fill:#000000; fill-opacity:1.0; 
stroke:#000000; stroke-width:21200.000000; stroke-opacity:1; 
stroke-linecap:round; stroke-linejoin:round;">
</g>
<g style="fill:#000000; fill-opacity:1.0; 
stroke:#000000; stroke-width:1.000000; stroke-opacity:1; 
stroke-linecap:round; stroke-linejoin:round;">
<circle cx="40695200.000000" cy="14640000.000000" r="750000.000000" /> 
</g>
<g style="fill:#000000; fill-opacity:1.0; 
stroke:#000000; stroke-width:21200.000000; stroke-opacity:1; 
stroke-linecap:round; stroke-linejoin:round;">
</g>
<g style="fill:#000000; fill-opacity:1.0; 
stroke:#000000; stroke-width:1.000000; stroke-opacity:1; 
stroke-linecap:round; stroke-linejoin:round;">
<circle cx="31555200.000000" cy="14640000.000000" r="750000.000000" /> 
</g>
<g style="fill:#000000; fill-opacity:1.0; 
stroke:#000000; stroke-width:21200.000000; stroke-opacity:1; 
stroke-linecap:round; stroke-linejoin:round;">
</g>
<g style="fill:#000000; fill-opacity:1.0; 
stroke:#000000; stroke-width:1.000000; stroke-opacity:1; 
stroke-linecap:round; stroke-linejoin:round;">
<circle cx="29265200.000000" cy="14640000.000000" r="750000.000000" /> 
</g>
<g style="fill:#000000; fill-opacity:1.0; 
stroke:#000000; stroke-width:21200.000000; stroke-opacity:1; 
stroke-linecap:round; stroke-linejoin:round;">
</g>
<g style="fill:#000000; fill-opacity:1.0; 
stroke:#000000; stroke-width:1.000000; stroke-opacity:1; 
stroke-linecap:round; stroke-linejoin:round;">
<circle cx="27995200.000000" cy="8930000.000000" r="1150000.000000" /> 
</g>
<g style="fill:#000000; fill-opacity:1.0; 
stroke:#000000; stroke-width:21200.000000; stroke-opacity:1; 
stroke-linecap:round; stroke-linejoin:round;">
</g>
<g style="fill:#000000; fill-opacity:1.0; 
stroke:#000000; stroke-width:1.000000; stroke-opacity:1; 
stroke-linecap:round; stroke-linejoin:round;">
<circle cx="44255200.000000" cy="8930000.000000" r="1150000.000000" /> 
</g>
<g style="fill:#000000; fill-opacity:1.0; 
stroke:#000000; stroke-width:21200.000000; stroke-opacity:1; 
stroke-linecap:round; stroke-linejoin:round;">
</g>
<g >
</g>
<g >
</g>
<g >
</g>
<g >
</g>
<g >
</g>
<g >
</g>
<g >
</g>
<g >
</g>
<g >
</g>
<g >
</g>
<g >
</g>
<g >
</g>
<g >
</g>
<g >
</g>
<g >
</g>
<g >
</g>
<g >
</g>
<g >
</g>
<g >
</g>
<g >
</g>
<g >
</g>
<g >
</g>
<g >
</g>
<g >
</g>
<g >
</g>
<g >
</g>
<g >
</g>
<g >
</g>
<g >
</g>
<g >
</g>
<g >
</g>
<g >
</g>
<g >
</g>
<g >
</g>
<g >
</g>
<g >
</g>
<g >
</g>
<g >
</g>
<g >
</g>
<g >
</g>
<g >
</g>
<g >
</g>
<g >
</g>
<g >
</g>
<g >
</g>
<g >
</g>
<g >
</g>
<g >
</g>
<g >
</g>
<g >
</g>
<g >
</g>
<g >
</g>
<g >
</g>
<g >
</g>
<g >
</g>
<g >
</g>
<g >
</g>
<g >
</g>
<g >
</g>
<g >
</g>
<g >
</g>
<g >
</g>
<g >
</g>
<g >
</g>
<g >
</g>
<g >
</g>
<g >
</g>
<g >
</g>
<g >
</g>
<g >
</g>
<g >
</g>
<g >
</g>
<g >
</g>
<g >
</g>
<g >
</g>
<g >
</g>
<g >
</g>
<g >
</g>
<g >
</g>
<g >
</g>
<g >
</g>
<g >
</g>
<g >
</g>
<g >
</g>
<g >
</g>
<g >
</g>
<g >
</g>
<g >
</g>
<g >
</g>
<g >
</g>
<g >
</g>
<g >
</g>
<g >
</g>
<g >
</g>
<g >
</g>
<g >
</g>
<g >
</g>
<g >
</g>
<g >
</g>
<g >
</g>
<g >
</g>
<g >
</g>
<g >
</g>
<g style="fill:#000000; fill-opacity:1.0; 
stroke:#000000; stroke-width:21200.000000; stroke-opacity:1; 
stroke-linecap:round; stroke-linejoin:round;">
</g>
<g style="fill:#000000; fill-opacity:1.0; 
stroke:#000000; stroke-width:1.000000; stroke-opacity:1; 
stroke-linecap:round; stroke-linejoin:round;">
<circle cx="2705200.000000" cy="78550000.000000" r="450000.000000" /> 
</g>
<g style="fill:#000000; fill-opacity:1.0; 
stroke:#000000; stroke-width:21200.000000; stroke-opacity:1; 
stroke-linecap:round; stroke-linejoin:round;">
</g>
<g style="fill:#000000; fill-opacity:1.0; 
stroke:#000000; stroke-width:1.000000; stroke-opacity:1; 
stroke-linecap:round; stroke-linejoin:round;">
<circle cx="2705200.000000" cy="81550000.000000" r="450000.000000" /> 
</g>
<g style="fill:#000000; fill-opacity:1.0; 
stroke:#000000; stroke-width:21200.000000; stroke-opacity:1; 
stroke-linecap:round; stroke-linejoin:round;">
</g>
<g >
</g>
<g style="fill:#000000; fill-opacity:1.0; 
stroke:#000000; stroke-width:21200.000000; stroke-opacity:1; 
stroke-linecap:round; stroke-linejoin:round;">
</g>
<g style="fill:#000000; fill-opacity:1.0; 
stroke:#000000; stroke-width:1.000000; stroke-opacity:1; 
stroke-linecap:round; stroke-linejoin:round;">
<circle cx="66185200.000000" cy="83100000.000000" r="450000.000000" /> 
</g>
<g style="fill:#000000; fill-opacity:1.0; 
stroke:#000000; stroke-width:21200.000000; stroke-opacity:1; 
stroke-linecap:round; stroke-linejoin:round;">
</g>
<g style="fill:#000000; fill-opacity:1.0; 
stroke:#000000; stroke-width:1.000000; stroke-opacity:1; 
stroke-linecap:round; stroke-linejoin:round;">
<circle cx="66185200.000000" cy="75100000.000000" r="450000.000000" /> 
</g>
<g style="fill:#000000; fill-opacity:1.0; 
stroke:#000000; stroke-width:21200.000000; stroke-opacity:1; 
stroke-linecap:round; stroke-linejoin:round;">
</g>
<g >
</g>
<g >
</g>
<g >
</g>
<g >
</g>
<g >
</g>
<g >
</g>
<g >
</g>
<g >
</g>
<g >
</g>
<g >
</g>
<g >
</g>
<g >
</g>
<g >
</g>
<g >
</g>
<g >
</g>
<g >
</g>
<g >
</g>
<g >
</g>
<g >
</g>
<g >
</g>
<g >
</g>
<g >
</g>
<g >
</g>
<g >
</g>
<g >
</g>
<g >
</g>
<g >
</g>
<g >
</g>
<g >
</g>
<g >
</g>
<g >
</g>
<g >
</g>
<g >
</g>
<g >
</g>
<g >
</g>
<g >
</g>
<g >
</g>
<g >
</g>
<g >
</g>
<g >
</g>
<g style="fill:#000000; fill-opacity:1.0; 
stroke:#000000; stroke-width:21200.000000; stroke-opacity:1; 
stroke-linecap:round; stroke-linejoin:round;">
</g>
<g style="fill:#000000; fill-opacity:1.0; 
stroke:#000000; stroke-width:1.000000; stroke-opacity:1; 
stroke-linecap:round; stroke-linejoin:round;">
<path style="fill:#000000; fill-opacity:1.0; 
stroke:#000000; stroke-width:1.000000; stroke-opacity:1; 
stroke-linecap:round; stroke-linejoin:round;fill-rule:evenodd;"
d="M 37135201.000000,3550001.000000
37135201.000000,4949999.000000
37935199.000000,4949999.000000
37935199.000000,3550001.000000
Z" /> 
<path style="fill:#000000; fill-opacity:1.0; 
stroke:#000000; stroke-width:1.000000; stroke-opacity:1; 
stroke-linecap:round; stroke-linejoin:round;fill-rule:evenodd;"
d="M 34135201.000000,3550001.000000
34135201.000000,4949999.000000
34935199.000000,4949999.000000
34935199.000000,3550001.000000
Z" /> 
<path style="fill:#000000; fill-opacity:1.0; 
stroke:#000000; stroke-width:1.000000; stroke-opacity:1; 
stroke-linecap:round; stroke-linejoin:round;fill-rule:evenodd;"
d="M 35585201.000000,3550001.000000
35585201.000000,4949999.000000
36485199.000000,4949999.000000
36485199.000000,3550001.000000
Z" /> 
</g>
<g >
</g>
<g >
</g>
<g style="fill:#000000; fill-opacity:1.0; 
stroke:#000000; stroke-width:1.000000; stroke-opacity:1; 
stroke-linecap:round; stroke-linejoin:round;">
<path style="fill:#000000; fill-opacity:1.0; 
stroke:#000000; stroke-width:1.000000; stroke-opacity:1; 
stroke-linecap:round; stroke-linejoin:round;fill-rule:evenodd;"
d="M 12810201.000000,85725001.000000
12810201.000000,86624999.000000
13260199.000000,86624999.000000
13260199.000000,85725001.000000
Z" /> 
<path style="fill:#000000; fill-opacity:1.0; 
stroke:#000000; stroke-width:1.000000; stroke-opacity:1; 
stroke-linecap:round; stroke-linejoin:round;fill-rule:evenodd;"
d="M 13510201.000000,85725001.000000
13510201.000000,86624999.000000
13960199.000000,86624999.000000
13960199.000000,85725001.000000
Z" /> 
<path style="fill:#000000; fill-opacity:1.0; 
stroke:#000000; stroke-width:1.000000; stroke-opacity:1; 
stroke-linecap:round; stroke-linejoin:round;fill-rule:evenodd;"
d="M 14210201.000000,85725001.000000
14210201.000000,86624999.000000
14660199.000000,86624999.000000
14660199.000000,85725001.000000
Z" /> 
<path style="fill:#000000; fill-opacity:1.0; 
stroke:#000000; stroke-width:1.000000; stroke-opacity:1; 
stroke-linecap:round; stroke-linejoin:round;fill-rule:evenodd;"
d="M 14910201.000000,85725001.000000
14910201.000000,86624999.000000
15360199.000000,86624999.000000
15360199.000000,85725001.000000
Z" /> 
<path style="fill:#000000; fill-opacity:1.0; 
stroke:#000000; stroke-width:1.000000; stroke-opacity:1; 
stroke-linecap:round; stroke-linejoin:round;fill-rule:evenodd;"
d="M 15610201.000000,85725001.000000
15610201.000000,86624999.000000
16060199.000000,86624999.000000
16060199.000000,85725001.000000
Z" /> 
<path style="fill:#000000; fill-opacity:1.0; 
stroke:#000000; stroke-width:1.000000; stroke-opacity:1; 
stroke-linecap:round; stroke-linejoin:round;fill-rule:evenodd;"
d="M 16310201.000000,85725001.000000
16310201.000000,86624999.000000
16760199.000000,86624999.000000
16760199.000000,85725001.000000
Z" /> 
<path style="fill:#000000; fill-opacity:1.0; 
stroke:#000000; stroke-width:1.000000; stroke-opacity:1; 
stroke-linecap:round; stroke-linejoin:round;fill-rule:evenodd;"
d="M 17010201.000000,85725001.000000
17010201.000000,86624999.000000
17460199.000000,86624999.000000
17460199.000000,85725001.000000
Z" /> 
<path style="fill:#000000; fill-opacity:1.0; 
stroke:#000000; stroke-width:1.000000; stroke-opacity:1; 
stroke-linecap:round; stroke-linejoin:round;fill-rule:evenodd;"
d="M 17710201.000000,85725001.000000
17710201.000000,86624999.000000
18160199.000000,86624999.000000
18160199.000000,85725001.000000
Z" /> 
<path style="fill:#000000; fill-opacity:1.0; 
stroke:#000000; stroke-width:1.000000; stroke-opacity:1; 
stroke-linecap:round; stroke-linejoin:round;fill-rule:evenodd;"
d="M 18410201.000000,85725001.000000
18410201.000000,86624999.000000
18860199.000000,86624999.000000
18860199.000000,85725001.000000
Z" /> 
<path style="fill:#000000; fill-opacity:1.0; 
stroke:#000000; stroke-width:1.000000; stroke-opacity:1; 
stroke-linecap:round; stroke-linejoin:round;fill-rule:evenodd;"
d="M 19110201.000000,85725001.000000
19110201.000000,86624999.000000
19560199.000000,86624999.000000
19560199.000000,85725001.000000
Z" /> 
<path style="fill:#000000; fill-opacity:1.0; 
stroke:#000000; stroke-width:1.000000; stroke-opacity:1; 
stroke-linecap:round; stroke-linejoin:round;fill-rule:evenodd;"
d="M 19560199.000000,84374999.000000
19560199.000000,83475001.000000
19110201.000000,83475001.000000
19110201.000000,84374999.000000
Z" /> 
<path style="fill:#000000; fill-opacity:1.0; 
stroke:#000000; stroke-width:1.000000; stroke-opacity:1; 
stroke-linecap:round; stroke-linejoin:round;fill-rule:evenodd;"
d="M 18860199.000000,84374999.000000
18860199.000000,83475001.000000
18410201.000000,83475001.000000
18410201.000000,84374999.000000
Z" /> 
<path style="fill:#000000; fill-opacity:1.0; 
stroke:#000000; stroke-width:1.000000; stroke-opacity:1; 
stroke-linecap:round; stroke-linejoin:round;fill-rule:evenodd;"
d="M 18160199.000000,84374999.000000
18160199.000000,83475001.000000
17710201.000000,83475001.000000
17710201.000000,84374999.000000
Z" /> 
<path style="fill:#000000; fill-opacity:1.0; 
stroke:#000000; stroke-width:1.000000; stroke-opacity:1; 
stroke-linecap:round; stroke-linejoin:round;fill-rule:evenodd;"
d="M 17460199.000000,84374999.000000
17460199.000000,83475001.000000
17010201.000000,83475001.000000
17010201.000000,84374999.000000
Z" /> 
<path style="fill:#000000; fill-opacity:1.0; 
stroke:#000000; stroke-width:1.000000; stroke-opacity:1; 
stroke-linecap:round; stroke-linejoin:round;fill-rule:evenodd;"
d="M 16760199.000000,84374999.000000
16760199.000000,83475001.000000
16310201.000000,83475001.000000
16310201.000000,84374999.000000
Z" /> 
<path style="fill:#000000; fill-opacity:1.0; 
stroke:#000000; stroke-width:1.000000; stroke-opacity:1; 
stroke-linecap:round; stroke-linejoin:round;fill-rule:evenodd;"
d="M 16060199.000000,84374999.000000
16060199.000000,83475001.000000
15610201.000000,83475001.000000
15610201.000000,84374999.000000
Z" /> 
<path style="fill:#000000; fill-opacity:1.0; 
stroke:#000000; stroke-width:1.000000; stroke-opacity:1; 
stroke-linecap:round; stroke-linejoin:round;fill-rule:evenodd;"
d="M 15360199.000000,84374999.000000
15360199.000000,83475001.000000
14910201.000000,83475001.000000
14910201.000000,84374999.000000
Z" /> 
<path style="fill:#000000; fill-opacity:1.0; 
stroke:#000000; stroke-width:1.000000; stroke-opacity:1; 
stroke-linecap:round; stroke-linejoin:round;fill-rule:evenodd;"
d="M 14660199.000000,84374999.000000
14660199.000000,83475001.000000
14210201.000000,83475001.000000
14210201.000000,84374999.000000
Z" /> 
<path style="fill:#000000; fill-opacity:1.0; 
stroke:#000000; stroke-width:1.000000; stroke-opacity:1; 
stroke-linecap:round; stroke-linejoin:round;fill-rule:evenodd;"
d="M 13960199.000000,84374999.000000
13960199.000000,83475001.000000
13510201.000000,83475001.000000
13510201.000000,84374999.000000
Z" /> 
<path style="fill:#000000; fill-opacity:1.0; 
stroke:#000000; stroke-width:1.000000; stroke-opacity:1; 
stroke-linecap:round; stroke-linejoin:round;fill-rule:evenodd;"
d="M 13260199.000000,84374999.000000
13260199.000000,83475001.000000
12810201.000000,83475001.000000
12810201.000000,84374999.000000
Z" /> 
</g>
<g >
</g>
<g >
</g>
<g style="fill:#000000; fill-opacity:1.0; 
stroke:#000000; stroke-width:1.000000; stroke-opacity:1; 
stroke-linecap:round; stroke-linejoin:round;">
<path style="fill:#000000; fill-opacity:1.0; 
stroke:#000000; stroke-width:1.000000; stroke-opacity:1; 
stroke-linecap:round; stroke-linejoin:round;fill-rule:evenodd;"
d="M 14081693.000000,75993683.000000
14081865.000000,75993678.000000
14100823.000000,75985149.000000
14101230.000000,75984717.000000
14101803.000000,75984565.000000
14170331.000000,75932327.000000
14170419.000000,75932176.000000
14170583.000000,75932121.000000
14276226.000000,75840147.000000
14276258.000000,75840084.000000
14276325.000000,75840059.000000
14409888.000000,75717396.000000
14409906.000000,75717357.000000
14409945.000000,75717342.000000
14562232.000000,75573039.000000
14562245.000000,75573011.000000
14562274.000000,75572999.000000
14724090.000000,75416099.000000
14724101.000000,75416073.000000
14724126.000000,75416063.000000
14886275.000000,75255615.000000
14886286.000000,75255588.000000
14886313.000000,75255577.000000
15039601.000000,75100626.000000
15039614.000000,75100593.000000
15039647.000000,75100579.000000
15174877.000000,74960173.000000
15174897.000000,74960123.000000
15174948.000000,74960099.000000
15282926.000000,74843285.000000
15282965.000000,74843180.000000
15283064.000000,74843129.000000
15354594.000000,74758953.000000
15354721.000000,74758559.000000
15355054.000000,74758316.000000
15380941.000000,74715826.000000
15381217.000000,74714057.000000
15381588.000000,74712317.000000
15380095.000000,74704233.000000
15379736.000000,74703679.000000
15379706.000000,74703021.000000
15348896.000000,74637218.000000
15348727.000000,74637064.000000
15348697.000000,74636835.000000
15282878.000000,74522989.000000
15282807.000000,74522935.000000
15282793.000000,74522848.000000
15188327.000000,74371242.000000
15188282.000000,74371210.000000
15188272.000000,74371155.000000
15071517.000000,74192073.000000
15071480.000000,74192048.000000
15071471.000000,74192004.000000
14938790.000000,73995729.000000
14938773.000000,73995718.000000
14938769.000000,73995697.000000
14901561.000000,73941563.000000
14901561.000000,73941562.000000
14770901.000000,73751061.000000
14655814.000000,73582648.000000
14563000.000000,73446166.000000
14499196.000000,73351518.000000
14471386.000000,73308982.000000
14471352.000000,73308891.000000
14479399.000000,73257873.000000
14510987.000000,73151622.000000
14560918.000000,73004483.000000
14623961.000000,72830151.000000
14695002.000000,72641944.000000
14768893.000000,72453287.000000
14840411.000000,72277774.000000
14904500.000000,72128593.000000
14955869.000000,72019462.000000
14989217.000000,71963928.000000
14991905.000000,71961154.000000
15015293.000000,71944069.000000
15055355.000000,71926593.000000
15120547.000000,71906936.000000
15218906.000000,71883389.000000
15358392.000000,71854193.000000
15547094.000000,71817533.000000
15793189.000000,71771577.000000
16104714.000000,71714515.000000
16104720.000000,71714511.000000
16104727.000000,71714513.000000
16169343.000000,71702502.000000
16169376.000000,71702481.000000
16169412.000000,71702488.000000
16354519.000000,71665361.000000
16354573.000000,71665325.000000
16354637.000000,71665336.000000
16510345.000000,71630159.000000
16510429.000000,71630099.000000
16510531.000000,71630113.000000
16622087.000000,71600379.000000
16622330.000000,71600193.000000
16622636.000000,71600198.000000
16675282.000000,71579400.000000
16676557.000000,71578167.000000
16677904.000000,71577013.000000
16686711.000000,71559661.000000
16686769.000000,71558905.000000
16687176.000000,71558266.000000
16701861.000000,71474914.000000
16701809.000000,71474680.000000
16701919.000000,71474467.000000
16713556.000000,71336288.000000
16713526.000000,71336195.000000
16713568.000000,71336106.000000
16722147.000000,71156047.000000
16722128.000000,71155993.000000
16722151.000000,71155941.000000
16727666.000000,70946947.000000
16727651.000000,70946908.000000
16727668.000000,70946869.000000
16730107.000000,70721889.000000
16730093.000000,70721855.000000
16730107.000000,70721821.000000
16729464.000000,70493800.000000
16729449.000000,70493764.000000
16729463.000000,70493728.000000
16725727.000000,70275614.000000
16725708.000000,70275570.000000
16725725.000000,70275525.000000
16718888.000000,70080263.000000
16718857.000000,70080196.000000
16718881.000000,70080127.000000
16708934.000000,69920666.000000
16708870.000000,69920534.000000
16708910.000000,69920391.000000
16695844.000000,69809675.000000
16695587.000000,69809216.000000
16695626.000000,69808692.000000
16679433.000000,69759672.000000
16679340.000000,69759564.000000
16679343.000000,69759420.000000
16678101.000000,69758127.000000
16676933.000000,69756773.000000
16676789.000000,69756762.000000
16676691.000000,69756660.000000
16660158.000000,69749417.000000
16659784.000000,69749409.000000
16659489.000000,69749179.000000
16577242.000000,69726351.000000
16577128.000000,69726365.000000
16577036.000000,69726299.000000
16438012.000000,69694011.000000
16437963.000000,69694019.000000
16437922.000000,69693991.000000
16253216.000000,69654650.000000
16253184.000000,69654656.000000
16253157.000000,69654638.000000
16033862.000000,69610651.000000
16033838.000000,69610656.000000
16033815.000000,69610641.000000
15791026.000000,69564414.000000
15791015.000000,69564416.000000
15791007.000000,69564411.000000
15658453.000000,69539716.000000
15658451.000000,69539715.000000
15431255.000000,69496891.000000
15431253.000000,69496890.000000
15235682.000000,69459387.000000
15235680.000000,69459387.000000
15082276.000000,69429263.000000
15082275.000000,69429262.000000
14981449.000000,69408544.000000
14945407.000000,69399703.000000
14945324.000000,69399592.000000
14921432.000000,69351396.000000
14875467.000000,69249504.000000
14813376.000000,69107834.000000
14813376.000000,69107833.000000
14740888.000000,68939866.000000
14663776.000000,68759186.000000
14587794.000000,68579331.000000
14518693.000000,68413836.000000
14518693.000000,68413835.000000
14462231.000000,68276251.000000
14424170.000000,68180137.000000
14410841.000000,68140770.000000
14416134.000000,68128300.000000
14456964.000000,68059523.000000
14531319.000000,67943295.000000
14633161.000000,67788862.000000
14756447.000000,67605453.000000
14756448.000000,67605452.000000
14895209.000000,67402174.000000
14971340.000000,67290847.000000
14971344.000000,67290828.000000
14971361.000000,67290817.000000
15102744.000000,67095637.000000
15102750.000000,67095608.000000
15102774.000000,67095592.000000
15215418.000000,66924298.000000
15215426.000000,66924258.000000
15215459.000000,66924235.000000
15303359.000000,66786166.000000
15303372.000000,66786093.000000
15303432.000000,66786048.000000
15360578.000000,66690546.000000
15360617.000000,66690279.000000
15360816.000000,66690097.000000
15381200.000000,66646506.000000
15381222.000000,66646009.000000
15381522.000000,66645605.000000
15381306.000000,66644148.000000
15381372.000000,66642682.000000
15381034.000000,66642313.000000
15380961.000000,66641819.000000
15366796.000000,66618173.000000
15366464.000000,66617927.000000
15366339.000000,66617530.000000
15307091.000000,66546876.000000
15306996.000000,66546827.000000
15306960.000000,66546726.000000
15209763.000000,66439799.000000
15209721.000000,66439779.000000
15209705.000000,66439736.000000
15083478.000000,66305596.000000
15083452.000000,66305584.000000
15083442.000000,66305558.000000
14937110.000000,66153266.000000
14937091.000000,66153258.000000
14937083.000000,66153237.000000
14779567.000000,65991855.000000
14779550.000000,65991848.000000
14779543.000000,65991830.000000
14619765.000000,65830417.000000
14619747.000000,65830409.000000
14619739.000000,65830390.000000
14466622.000000,65678006.000000
14466598.000000,65677996.000000
14466588.000000,65677972.000000
14329054.000000,65543680.000000
14329018.000000,65543665.000000
14329001.000000,65543628.000000
14215972.000000,65436486.000000
14215894.000000,65436456.000000
14215858.000000,65436382.000000
14136257.000000,65365453.000000
14135946.000000,65365345.000000
14135767.000000,65365068.000000
14098516.000000,65339411.000000
14097844.000000,65339267.000000
14097329.000000,65338808.000000
14096040.000000,65338882.000000
14094774.000000,65338611.000000
14094194.000000,65338987.000000
14093508.000000,65339026.000000
14072829.000000,65349002.000000
14072657.000000,65349195.000000
14072400.000000,65349235.000000
13996472.000000,65395500.000000
13996433.000000,65395553.000000
13996371.000000,65395564.000000
13873840.000000,65474301.000000
13873824.000000,65474325.000000
13873795.000000,65474330.000000
13713495.000000,65579768.000000
13713485.000000,65579783.000000
13713466.000000,65579787.000000
13524225.000000,65706158.000000
13524216.000000,65706171.000000
13524202.000000,65706174.000000
13314853.000000,65847707.000000
13314850.000000,65847712.000000
13314841.000000,65847714.000000
12569531.000000,66354518.000000
11948902.000000,66098675.000000
11328287.000000,65842837.000000
11159916.000000,64949714.000000
10991042.000000,64053927.000000
10990233.000000,64052688.000000
10989665.000000,64051317.000000
10989215.000000,64051131.000000
10988949.000000,64050723.000000
10987498.000000,64050420.000000
10986129.000000,64049853.000000
9121624.000000,64049853.000000
9120255.000000,64050420.000000
9118804.000000,64050723.000000
9118538.000000,64051131.000000
9118088.000000,64051317.000000
9117520.000000,64052688.000000
9116711.000000,64053927.000000
8779465.000000,65842837.000000
8158850.000000,66098675.000000
8158849.000000,66098676.000000
7538220.000000,66354519.000000
6792912.000000,65847714.000000
6792907.000000,65847713.000000
6792904.000000,65847709.000000
6644950.000000,65747498.000000
6644938.000000,65747496.000000
6644931.000000,65747485.000000
6448790.000000,65615947.000000
6448773.000000,65615944.000000
6448764.000000,65615930.000000
6278948.000000,65503583.000000
6278924.000000,65503578.000000
6278910.000000,65503558.000000
6144239.000000,65416169.000000
6144194.000000,65416161.000000
6144166.000000,65416122.000000
6053459.000000,65359458.000000
6053276.000000,65359427.000000
6053158.000000,65359284.000000
6015233.000000,65339114.000000
6014576.000000,65339051.000000
6014041.000000,65338664.000000
6012738.000000,65338874.000000
6011423.000000,65338747.000000
6010913.000000,65339167.000000
6010263.000000,65339272.000000
5986971.000000,65353616.000000
5986724.000000,65353957.000000
5986325.000000,65354089.000000
5916703.000000,65414192.000000
5916654.000000,65414289.000000
5916553.000000,65414327.000000
5811189.000000,65512963.000000
5811170.000000,65513006.000000
5811126.000000,65513023.000000
5678949.000000,65641134.000000
5678937.000000,65641161.000000
5678912.000000,65641171.000000
5528850.000000,65789700.000000
5528842.000000,65789720.000000
5528822.000000,65789728.000000
5369803.000000,65949620.000000
5369795.000000,65949639.000000
5369778.000000,65949646.000000
5210729.000000,66111841.000000
5210721.000000,66111860.000000
5210703.000000,66111868.000000
5060552.000000,66267311.000000
5060543.000000,66267335.000000
5060518.000000,66267346.000000
4928194.000000,66406980.000000
4928180.000000,66407017.000000
4928143.000000,66407034.000000
4822572.000000,66521801.000000
4822544.000000,66521879.000000
4822469.000000,66521916.000000
4752580.000000,66602760.000000
4752476.000000,66603072.000000
4752205.000000,66603254.000000
4726924.000000,66641117.000000
4726847.000000,66641502.000000
4726554.000000,66641770.000000
4726483.000000,66643337.000000
4726178.000000,66644870.000000
4726398.000000,66645199.000000
4726380.000000,66645593.000000
4732261.000000,66661860.000000
4732552.000000,66662179.000000
4732603.000000,66662607.000000
4773322.000000,66735170.000000
4773419.000000,66735246.000000
4773439.000000,66735367.000000
4847798.000000,66854789.000000
4847839.000000,66854819.000000
4847849.000000,66854870.000000
4949820.000000,67011788.000000
4949848.000000,67011807.000000
4949854.000000,67011839.000000
5073406.000000,67196893.000000
5073428.000000,67196908.000000
5073434.000000,67196935.000000
5212541.000000,67400760.000000
5212548.000000,67400764.000000
5212549.000000,67400771.000000
5288890.000000,67511936.000000
5288891.000000,67511936.000000
5420196.000000,67705443.000000
5420197.000000,67705443.000000
5532729.000000,67874258.000000
5532729.000000,67874259.000000
5620560.000000,68009333.000000
5677529.000000,68101256.000000
5697076.000000,68139680.000000
5697051.000000,68139843.000000
5679275.000000,68190062.000000
5638081.000000,68293640.000000
5579365.000000,68436607.000000
5508876.000000,68605413.000000
5432367.000000,68786501.000000
5432367.000000,68786502.000000
5355598.000000,68966302.000000
5355597.000000,68966303.000000
5284289.000000,69131332.000000
5284289.000000,69131333.000000
5224217.000000,69267981.000000
5181185.000000,69362587.000000
5161834.000000,69399924.000000
5152002.000000,69402768.000000
5078848.000000,69418476.000000
4948272.000000,69444537.000000
4948271.000000,69444537.000000
4770701.000000,69478916.000000
4770700.000000,69478917.000000
4556727.000000,69519550.000000
4556726.000000,69519550.000000
4316743.000000,69564411.000000
4316741.000000,69564413.000000
4316738.000000,69564412.000000
4190255.000000,69588197.000000
4190239.000000,69588208.000000
4190220.000000,69588204.000000
3958067.000000,69633586.000000
3958044.000000,69633601.000000
3958015.000000,69633596.000000
3755033.000000,69675506.000000
3755001.000000,69675528.000000
3754963.000000,69675521.000000
3592246.000000,69711554.000000
3592188.000000,69711594.000000
3592118.000000,69711584.000000
3480761.000000,69739332.000000
3480565.000000,69739477.000000
3480323.000000,69739463.000000
3431421.000000,69756519.000000
3430040.000000,69757750.000000
3428631.000000,69758935.000000
3419847.000000,69775843.000000
3419779.000000,69776621.000000
3419360.000000,69777280.000000
3404789.000000,69859894.000000
3404842.000000,69860131.000000
3404730.000000,69860348.000000
3393282.000000,69997943.000000
3393312.000000,69998037.000000
3393270.000000,69998126.000000
3384936.000000,70177759.000000
3384956.000000,70177814.000000
3384933.000000,70177866.000000
3379704.000000,70386589.000000
3379719.000000,70386627.000000
3379702.000000,70386667.000000
3377570.000000,70611532.000000
3377584.000000,70611566.000000
3377570.000000,70611600.000000
3378526.000000,70839661.000000
3378541.000000,70839697.000000
3378527.000000,70839732.000000
3382561.000000,71058042.000000
3382580.000000,71058085.000000
3382563.000000,71058131.000000
3389667.000000,71253745.000000
3389697.000000,71253811.000000
3389674.000000,71253880.000000
3399840.000000,71413849.000000
3399905.000000,71413981.000000
3399865.000000,71414121.000000
3413082.000000,71525499.000000
3413334.000000,71525948.000000
3413294.000000,71526461.000000
3429555.000000,71576301.000000
3430730.000000,71577674.000000
3431833.000000,71579094.000000
3441701.000000,71584716.000000
3442221.000000,71584782.000000
3442619.000000,71585123.000000
3516211.000000,71609237.000000
3516403.000000,71609222.000000
3516556.000000,71609336.000000
3644219.000000,71641240.000000
3644303.000000,71641227.000000
3644372.000000,71641275.000000
3811346.000000,71677477.000000
3811406.000000,71677466.000000
3811457.000000,71677500.000000
4002991.000000,71714506.000000
4003019.000000,71714500.000000
4003043.000000,71714516.000000
4067662.000000,71726300.000000
4366139.000000,71781113.000000
4366140.000000,71781113.000000
4600667.000000,71825156.000000
4779387.000000,71860255.000000
4910482.000000,71888249.000000
5001892.000000,71910914.000000
5061706.000000,71930035.000000
5097903.000000,71947275.000000
5119018.000000,71964452.000000
5120973.000000,71966749.000000
5156502.000000,72028592.000000
5209456.000000,72142567.000000
5274564.000000,72295133.000000
5346592.000000,72472698.000000
5420405.000000,72661883.000000
5490840.000000,72849241.000000
5552775.000000,73021421.000000
5601018.000000,73164884.000000
5630380.000000,73266037.000000
5635680.000000,73310114.000000
5632923.000000,73314562.000000
5594500.000000,73372494.000000
5522188.000000,73479428.000000
5422674.000000,73625538.000000
5422674.000000,73625539.000000
5302705.000000,73800910.000000
5168982.000000,73995699.000000
5168981.000000,73995703.000000
5168979.000000,73995704.000000
5132278.000000,74049299.000000
5132273.000000,74049323.000000
5132252.000000,74049337.000000
5003195.000000,74241580.000000
5003187.000000,74241621.000000
5003151.000000,74241646.000000
4891618.000000,74413574.000000
4891608.000000,74413629.000000
4891563.000000,74413661.000000
4803919.000000,74555079.000000
4803903.000000,74555176.000000
4803825.000000,74555237.000000
4746436.000000,74655950.000000
4746395.000000,74656272.000000
4746165.000000,74656501.000000
4725397.000000,74706310.000000
4725393.000000,74708086.000000
4725281.000000,74709851.000000
4729756.000000,74722946.000000
4730259.000000,74723517.000000
4730435.000000,74724258.000000
4777083.000000,74788786.000000
4777291.000000,74788914.000000
4777369.000000,74789145.000000
4869402.000000,74894516.000000
4869491.000000,74894560.000000
4869526.000000,74894652.000000
5000352.000000,75033776.000000
5000407.000000,75033801.000000
5000430.000000,75033857.000000
5163463.000000,75199641.000000
5163506.000000,75199659.000000
5163524.000000,75199702.000000
5352169.000000,75385054.000000
5352196.000000,75385065.000000
5352207.000000,75385091.000000
5460034.000000,75488838.000000
5460054.000000,75488846.000000
5460062.000000,75488864.000000
5630552.000000,75650447.000000
5630579.000000,75650457.000000
5630591.000000,75650484.000000
5779815.000000,75788886.000000
5779852.000000,75788900.000000
5779870.000000,75788937.000000
5899813.000000,75896871.000000
5899887.000000,75896897.000000
5899922.000000,75896965.000000
5982573.000000,75967145.000000
5982853.000000,75967235.000000
5983017.000000,75967482.000000
6020362.000000,75992621.000000
6020762.000000,75992702.000000
6021038.000000,75993004.000000
6022591.000000,75993073.000000
6024113.000000,75993381.000000
6024454.000000,75993155.000000
6024861.000000,75993173.000000
6050519.000000,75983854.000000
6050830.000000,75983569.000000
6051249.000000,75983520.000000
6130244.000000,75939437.000000
6130331.000000,75939327.000000
6130467.000000,75939304.000000
6245187.000000,75867209.000000
6245234.000000,75867143.000000
6245314.000000,75867127.000000
6380794.000000,75776152.000000
6380812.000000,75776125.000000
6380844.000000,75776118.000000
6477160.000000,75709736.000000
6669461.000000,75577903.000000
6874668.000000,75437891.000000
7062103.000000,75310661.000000
7062104.000000,75310661.000000
7426785.000000,75063995.000000
7732348.000000,75229211.000000
7732370.000000,75229213.000000
7732385.000000,75229231.000000
7804964.000000,75267698.000000
7805030.000000,75267704.000000
7805074.000000,75267755.000000
7937064.000000,75333552.000000
7937181.000000,75333560.000000
7937262.000000,75333645.000000
8039333.000000,75379072.000000
8039644.000000,75379080.000000
8039883.000000,75379279.000000
8094435.000000,75396216.000000
8095439.000000,75396124.000000
8096407.000000,75396418.000000
8097270.000000,75395956.000000
8098246.000000,75395867.000000
8098893.000000,75395088.000000
8099782.000000,75394613.000000
8117634.000000,75372862.000000
8117782.000000,75372374.000000
8118177.000000,75372050.000000
8162509.000000,75289230.000000
8162521.000000,75289112.000000
8162609.000000,75289033.000000
8228088.000000,75152488.000000
8228091.000000,75152438.000000
8228127.000000,75152404.000000
8311110.000000,74970799.000000
8311111.000000,74970770.000000
8311131.000000,74970751.000000
8407975.000000,74752751.000000
8407975.000000,74752732.000000
8407990.000000,74752718.000000
8515051.000000,74506990.000000
8515051.000000,74506975.000000
8515062.000000,74506965.000000
8628698.000000,74242173.000000
8628698.000000,74242160.000000
8628707.000000,74242151.000000
8745272.000000,73966963.000000
8745272.000000,73966951.000000
8745281.000000,73966942.000000
8861133.000000,73690020.000000
8861133.000000,73690007.000000
8861142.000000,73689998.000000
8972638.000000,73420010.000000
8972638.000000,73419995.000000
8972648.000000,73419985.000000
9076145.000000,73165594.000000
9076145.000000,73165577.000000
9076158.000000,73165564.000000
9168010.000000,72935437.000000
9168010.000000,72935412.000000
9168027.000000,72935394.000000
9244594.000000,72738198.000000
9244593.000000,72738156.000000
9244622.000000,72738125.000000
9302258.000000,72582523.000000
9302255.000000,72582432.000000
9302313.000000,72582365.000000
9337375.000000,72477025.000000
9337350.000000,72476676.000000
9337543.000000,72476382.000000
9346388.000000,72429967.000000
9346084.000000,72428501.000000
9346049.000000,72427010.000000
9345451.000000,72425655.000000
9344807.000000,72425040.000000
9344483.000000,72424212.000000
9303285.000000,72381305.000000
9302939.000000,72381153.000000
9302753.000000,72380825.000000
9216577.000000,72313625.000000
9216416.000000,72313581.000000
9216326.000000,72313442.000000
9102965.000000,72235881.000000
9102925.000000,72235873.000000
9102902.000000,72235839.000000
9067341.000000,72212302.000000
8795633.000000,71988077.000000
8570880.000000,71721149.000000
8398261.000000,71422513.000000
8283115.000000,71103327.000000
8230749.000000,70774733.000000
8246455.000000,70447737.000000
8310084.000000,70156853.000000
8424329.000000,69863136.000000
8590835.000000,69601164.000000
8819545.000000,69352080.000000
8909159.000000,69272731.000000
9199602.000000,69076729.000000
9513205.000000,68944791.000000
9841020.000000,68875640.000000
10173986.000000,68868092.000000
10503000.000000,68920977.000000
10818957.000000,69033109.000000
11112775.000000,69203307.000000
11375369.000000,69430396.000000
11597773.000000,69713351.000000
11640313.000000,69783062.000000
11785634.000000,70103301.000000
11862766.000000,70436575.000000
11873817.000000,70774451.000000
11820804.000000,71108315.000000
11705736.000000,71429530.000000
11530626.000000,71729468.000000
11297481.000000,71999490.000000
11008134.000000,72231102.000000
10998901.000000,72237235.000000
10998860.000000,72237297.000000
10998787.000000,72237313.000000
10886628.000000,72316351.000000
10886541.000000,72316488.000000
10886386.000000,72316533.000000
10802323.000000,72383730.000000
10802134.000000,72384073.000000
10801779.000000,72384236.000000
10763385.000000,72425631.000000
10763283.000000,72425905.000000
10763032.000000,72426056.000000
10762631.000000,72427663.000000
10762054.000000,72429219.000000
10762177.000000,72429486.000000
10762106.000000,72429769.000000
10766950.000000,72462224.000000
10767166.000000,72462584.000000
10767131.000000,72463004.000000
10797252.000000,72557499.000000
10797324.000000,72557584.000000
10797319.000000,72557693.000000
10850727.000000,72704152.000000
10850760.000000,72704188.000000
10850759.000000,72704235.000000
10923814.000000,72893991.000000
10923833.000000,72894011.000000
10923833.000000,72894040.000000
11012892.000000,73118425.000000
11012905.000000,73118439.000000
11012905.000000,73118457.000000
11114326.000000,73368805.000000
11114336.000000,73368815.000000
11114336.000000,73368830.000000
11224477.000000,73636471.000000
11224486.000000,73636480.000000
11224486.000000,73636493.000000
11339705.000000,73912761.000000
11339714.000000,73912770.000000
11339714.000000,73912781.000000
11456369.000000,74189009.000000
11456378.000000,74189018.000000
11456378.000000,74189030.000000
11570827.000000,74456548.000000
11570838.000000,74456559.000000
11570838.000000,74456572.000000
11679437.000000,74706715.000000
11679451.000000,74706728.000000
11679451.000000,74706746.000000
11778562.000000,74930846.000000
11778581.000000,74930864.000000
11778582.000000,74930891.000000
11864560.000000,75120280.000000
11864593.000000,75120311.000000
11864595.000000,75120354.000000
11933800.000000,75266365.000000
11933871.000000,75266430.000000
11933880.000000,75266528.000000
11982669.000000,75360493.000000
11982991.000000,75360764.000000
11983094.000000,75361173.000000
12007824.000000,75394425.000000
12008612.000000,75394896.000000
12009138.000000,75395652.000000
12010191.000000,75395840.000000
12011109.000000,75396389.000000
12012003.000000,75396164.000000
12012906.000000,75396325.000000
12033471.000000,75391821.000000
12033827.000000,75391573.000000
12034261.000000,75391578.000000
12115056.000000,75359212.000000
12115175.000000,75359096.000000
12115342.000000,75359087.000000
12234750.000000,75302338.000000
12234815.000000,75302266.000000
12234911.000000,75302258.000000
12375333.000000,75229249.000000
12375361.000000,75229215.000000
12375404.000000,75229211.000000
12680968.000000,75063995.000000
13045644.000000,75310657.000000
13045644.000000,75310658.000000
13154127.000000,75384202.000000
13154128.000000,75384202.000000
13355897.000000,75521609.000000
13355898.000000,75521609.000000
13557054.000000,75659236.000000
13726911.000000,75776120.000000
13726927.000000,75776123.000000
13726936.000000,75776137.000000
13820685.000000,75839839.000000
13820739.000000,75839850.000000
13820771.000000,75839897.000000
13942618.000000,75919042.000000
13942713.000000,75919060.000000
13942770.000000,75919137.000000
14033116.000000,75973317.000000
14033410.000000,75973361.000000
14033615.000000,75973580.000000
14077743.000000,75993669.000000
14077915.000000,75993675.000000
14078040.000000,75993793.000000
14079801.000000,75993740.000000
14081567.000000,75993801.000000
Z" /> 
</g>
<g >
</g>
<g style="fill:#000000; fill-opacity:1.0; 
stroke:#000000; stroke-width:1.000000; stroke-opacity:1; 
stroke-linecap:round; stroke-linejoin:round;">
<path style="fill:#000000; fill-opacity:1.0; 
stroke:#000000; stroke-width:1.000000; stroke-opacity:1; 
stroke-linecap:round; stroke-linejoin:round;fill-rule:evenodd;"
d="M 57310199.000000,86049999.000000
57310199.000000,85650001.000000
56760201.000000,85650001.000000
56760201.000000,86049999.000000
Z" /> 
<path style="fill:#000000; fill-opacity:1.0; 
stroke:#000000; stroke-width:1.000000; stroke-opacity:1; 
stroke-linecap:round; stroke-linejoin:round;fill-rule:evenodd;"
d="M 57310199.000000,85249999.000000
57310199.000000,84850001.000000
56760201.000000,84850001.000000
56760201.000000,85249999.000000
Z" /> 
<path style="fill:#000000; fill-opacity:1.0; 
stroke:#000000; stroke-width:1.000000; stroke-opacity:1; 
stroke-linecap:round; stroke-linejoin:round;fill-rule:evenodd;"
d="M 57310199.000000,84449999.000000
57310199.000000,84050001.000000
56760201.000000,84050001.000000
56760201.000000,84449999.000000
Z" /> 
<path style="fill:#000000; fill-opacity:1.0; 
stroke:#000000; stroke-width:1.000000; stroke-opacity:1; 
stroke-linecap:round; stroke-linejoin:round;fill-rule:evenodd;"
d="M 55010199.000000,84449999.000000
55010199.000000,84050001.000000
54460201.000000,84050001.000000
54460201.000000,84449999.000000
Z" /> 
<path style="fill:#000000; fill-opacity:1.0; 
stroke:#000000; stroke-width:1.000000; stroke-opacity:1; 
stroke-linecap:round; stroke-linejoin:round;fill-rule:evenodd;"
d="M 55010199.000000,85249999.000000
55010199.000000,84850001.000000
54460201.000000,84850001.000000
54460201.000000,85249999.000000
Z" /> 
<path style="fill:#000000; fill-opacity:1.0; 
stroke:#000000; stroke-width:1.000000; stroke-opacity:1; 
stroke-linecap:round; stroke-linejoin:round;fill-rule:evenodd;"
d="M 55010199.000000,86049999.000000
55010199.000000,85650001.000000
54460201.000000,85650001.000000
54460201.000000,86049999.000000
Z" /> 
</g>
<g >
</g>
<g >
</g>
<g >
</g>
<g >
</g>
<g style="fill:#000000; fill-opacity:1.0; 
stroke:#000000; stroke-width:1.000000; stroke-opacity:1; 
stroke-linecap:round; stroke-linejoin:round;">
<path style="fill:#000000; fill-opacity:1.0; 
stroke:#000000; stroke-width:1.000000; stroke-opacity:1; 
stroke-linecap:round; stroke-linejoin:round;fill-rule:evenodd;"
d="M 41835199.000000,79049999.000000
41835199.000000,77550001.000000
40435201.000000,77550001.000000
40435201.000000,79049999.000000
Z" /> 
<path style="fill:#000000; fill-opacity:1.0; 
stroke:#000000; stroke-width:1.000000; stroke-opacity:1; 
stroke-linecap:round; stroke-linejoin:round;fill-rule:evenodd;"
d="M 41835199.000000,75249999.000000
41835199.000000,73950001.000000
40435201.000000,73950001.000000
40435201.000000,75249999.000000
Z" /> 
<path style="fill:#000000; fill-opacity:1.0; 
stroke:#000000; stroke-width:1.000000; stroke-opacity:1; 
stroke-linecap:round; stroke-linejoin:round;fill-rule:evenodd;"
d="M 41835199.000000,72549999.000000
41835199.000000,71050001.000000
40435201.000000,71050001.000000
40435201.000000,72549999.000000
Z" /> 
<path style="fill:#000000; fill-opacity:1.0; 
stroke:#000000; stroke-width:1.000000; stroke-opacity:1; 
stroke-linecap:round; stroke-linejoin:round;fill-rule:evenodd;"
d="M 31635199.000000,72549999.000000
31635199.000000,71050001.000000
30235201.000000,71050001.000000
30235201.000000,72549999.000000
Z" /> 
<path style="fill:#000000; fill-opacity:1.0; 
stroke:#000000; stroke-width:1.000000; stroke-opacity:1; 
stroke-linecap:round; stroke-linejoin:round;fill-rule:evenodd;"
d="M 31635199.000000,75249999.000000
31635199.000000,73950001.000000
30235201.000000,73950001.000000
30235201.000000,75249999.000000
Z" /> 
<path style="fill:#000000; fill-opacity:1.0; 
stroke:#000000; stroke-width:1.000000; stroke-opacity:1; 
stroke-linecap:round; stroke-linejoin:round;fill-rule:evenodd;"
d="M 31635199.000000,79049999.000000
31635199.000000,77550001.000000
30235201.000000,77550001.000000
30235201.000000,79049999.000000
Z" /> 
</g>
<g >
</g>
<g style="fill:#000000; fill-opacity:1.0; 
stroke:#000000; stroke-width:1.000000; stroke-opacity:1; 
stroke-linecap:round; stroke-linejoin:round;">
<path style="fill:#000000; fill-opacity:1.0; 
stroke:#000000; stroke-width:1.000000; stroke-opacity:1; 
stroke-linecap:round; stroke-linejoin:round;fill-rule:evenodd;"
d="M 38190199.000000,66714999.000000
38190199.000000,65515001.000000
37690201.000000,65515001.000000
37690201.000000,66714999.000000
Z" /> 
<path style="fill:#000000; fill-opacity:1.0; 
stroke:#000000; stroke-width:1.000000; stroke-opacity:1; 
stroke-linecap:round; stroke-linejoin:round;fill-rule:evenodd;"
d="M 36920199.000000,66714999.000000
36920199.000000,65515001.000000
36420201.000000,65515001.000000
36420201.000000,66714999.000000
Z" /> 
<path style="fill:#000000; fill-opacity:1.0; 
stroke:#000000; stroke-width:1.000000; stroke-opacity:1; 
stroke-linecap:round; stroke-linejoin:round;fill-rule:evenodd;"
d="M 35650199.000000,66714999.000000
35650199.000000,65515001.000000
35150201.000000,65515001.000000
35150201.000000,66714999.000000
Z" /> 
<path style="fill:#000000; fill-opacity:1.0; 
stroke:#000000; stroke-width:1.000000; stroke-opacity:1; 
stroke-linecap:round; stroke-linejoin:round;fill-rule:evenodd;"
d="M 34380199.000000,66714999.000000
34380199.000000,65515001.000000
33880201.000000,65515001.000000
33880201.000000,66714999.000000
Z" /> 
</g>
<g >
</g>
<g >
</g>
<g >
</g>
</g> 
</svg>
