  0
SECTION
  2
HEADER
  9
$ACADVER
  1
AC1006
  9
$EXTMIN
 10
0.000000
 20
0.000000
 30
0.000000
  9
$EXTMAX
 10
1044.000000
 20
1450.000000
 30
0.000000
  0
ENDSEC
  0
SECTION
  2
ENTITIES
  0
POLYLINE
  8
0
 66
1
 70
1
  0
VERTEX
  8
0
 10
102.785423
 20
1321.250000
 42
0.000000
  0
VERTEX
  8
0
 10
0.097900
 20
1192.500000
 42
0.000000
  0
VERTEX
  8
0
 10
0.048950
 20
596.250000
 42
0.000000
  0
VERTEX
  8
0
 10
0.000000
 20
0.000000
 42
0.000000
  0
VERTEX
  8
0
 10
114.250000
 20
0.009384
 42
0.000000
  0
VERTEX
  8
0
 10
228.500000
 20
0.018768
 42
0.000000
  0
VERTEX
  8
0
 10
223.000000
 20
3.155815
 42
-0.049719
  0
VERTEX
  8
0
 10
217.089110
 20
7.355218
 42
-0.018175
  0
VERTEX
  8
0
 10
209.597897
 20
14.381874
 42
-0.018340
  0
VERTEX
  8
0
 10
202.575526
 20
22.005574
 42
-0.044360
  0
VERTEX
  8
0
 10
198.134735
 20
28.238785
 42
-0.031033
  0
VERTEX
  8
0
 10
195.074839
 20
34.287781
 42
-0.017319
  0
VERTEX
  8
0
 10
192.076640
 20
41.980452
 42
-0.017243
  0
VERTEX
  8
0
 10
189.580141
 20
49.979526
 42
-0.027253
  0
VERTEX
  8
0
 10
188.057750
 20
57.000000
 42
-0.029764
  0
VERTEX
  8
0
 10
187.229091
 20
65.297341
 42
-0.012817
  0
VERTEX
  8
0
 10
187.068952
 20
76.420178
 42
-0.012857
  0
VERTEX
  8
0
 10
187.493453
 20
87.903420
 42
-0.021586
  0
VERTEX
  8
0
 10
188.512856
 20
97.500000
 42
-0.016785
  0
VERTEX
  8
0
 10
190.443989
 20
107.960185
 42
-0.019938
  0
VERTEX
  8
0
 10
192.986913
 20
117.675557
 42
-0.020478
  0
VERTEX
  8
0
 10
196.226913
 20
126.928427
 42
-0.019749
  0
VERTEX
  8
0
 10
200.248272
 20
136.000000
 42
-0.012345
  0
VERTEX
  8
0
 10
203.349107
 20
141.935196
 42
-0.029044
  0
VERTEX
  8
0
 10
206.020920
 20
146.157239
 42
-0.028472
  0
VERTEX
  8
0
 10
209.196390
 20
150.090442
 42
-0.011441
  0
VERTEX
  8
0
 10
213.954062
 20
155.106027
 42
-0.027477
  0
VERTEX
  8
0
 10
221.110377
 20
161.561561
 42
-0.039767
  0
VERTEX
  8
0
 10
228.137306
 20
166.364069
 42
-0.038940
  0
VERTEX
  8
0
 10
235.948949
 20
170.062600
 42
-0.024932
  0
VERTEX
  8
0
 10
245.500000
 20
173.169515
 42
-0.019761
  0
VERTEX
  8
0
 10
250.365630
 20
174.283795
 42
-0.023786
  0
VERTEX
  8
0
 10
255.012634
 20
174.929409
 42
-0.017274
  0
VERTEX
  8
0
 10
260.753887
 20
175.250905
 42
-0.005199
  0
VERTEX
  8
0
 10
269.500000
 20
175.347075
 42
-0.009591
  0
VERTEX
  8
0
 10
279.386649
 20
175.163314
 42
-0.016100
  0
VERTEX
  8
0
 10
287.671874
 20
174.582709
 42
-0.011380
  0
VERTEX
  8
0
 10
297.662550
 20
173.328147
 42
-0.002599
  0
VERTEX
  8
0
 10
314.500000
 20
170.733830
 42
-0.000492
  0
VERTEX
  8
0
 10
342.359092
 20
166.264770
 42
-0.002345
  0
VERTEX
  8
0
 10
358.269685
 20
163.619736
 42
-0.001235
  0
VERTEX
  8
0
 10
369.199588
 20
161.722187
 42
-0.095087
  0
VERTEX
  8
0
 10
370.846755
 20
161.094710
 42
-0.294430
  0
VERTEX
  8
0
 10
371.234975
 20
160.279713
 42
-0.000657
  0
VERTEX
  8
0
 10
369.406749
 20
146.235349
 42
-0.003418
  0
VERTEX
  8
0
 10
367.013445
 20
128.951824
 42
-0.001395
  0
VERTEX
  8
0
 10
363.533912
 20
105.488723
 42
0.000696
  0
VERTEX
  8
0
 10
360.372832
 20
84.376633
 42
0.001150
  0
VERTEX
  8
0
 10
357.769343
 20
66.539267
 42
0.000068
  0
VERTEX
  8
0
 10
355.465780
 20
50.483198
 42
0.226373
  0
VERTEX
  8
0
 10
355.581453
 20
50.113037
 42
0.169089
  0
VERTEX
  8
0
 10
356.449821
 20
49.652463
 42
0.000105
  0
VERTEX
  8
0
 10
384.490396
 20
45.344388
 42
0.001299
  0
VERTEX
  8
0
 10
409.294918
 20
41.604726
 42
0.007208
  0
VERTEX
  8
0
 10
422.656679
 20
39.822149
 42
0.024291
  0
VERTEX
  8
0
 10
431.332576
 20
39.216999
 42
0.034075
  0
VERTEX
  8
0
 10
439.086931
 20
39.582183
 42
0.039392
  0
VERTEX
  8
0
 10
445.490704
 20
40.839861
 42
0.086743
  0
VERTEX
  8
0
 10
449.975960
 20
42.982882
 42
0.070757
  0
VERTEX
  8
0
 10
452.791168
 20
45.658888
 42
0.054827
  0
VERTEX
  8
0
 10
455.040137
 20
49.246687
 42
0.053477
  0
VERTEX
  8
0
 10
456.504199
 20
53.339605
 42
0.059237
  0
VERTEX
  8
0
 10
457.000000
 20
57.509822
 42
0.155876
  0
VERTEX
  8
0
 10
454.129140
 20
66.494846
 42
0.118508
  0
VERTEX
  8
0
 10
446.285669
 20
73.323637
 42
0.065169
  0
VERTEX
  8
0
 10
431.870037
 20
78.590363
 42
0.017780
  0
VERTEX
  8
0
 10
408.000000
 20
83.046857
 42
-0.000584
  0
VERTEX
  8
0
 10
402.040280
 20
83.948707
 42
-0.000950
  0
VERTEX
  8
0
 10
396.983164
 20
84.729843
 42
-0.000102
  0
VERTEX
  8
0
 10
392.466389
 20
85.437248
 42
-0.089920
  0
VERTEX
  8
0
 10
392.261834
 20
85.508439
 42
-0.312108
  0
VERTEX
  8
0
 10
391.953696
 20
86.143950
 42
-0.000070
  0
VERTEX
  8
0
 10
397.343737
 20
120.929876
 42
-0.000110
  0
VERTEX
  8
0
 10
402.709906
 20
155.479602
 42
-0.159095
  0
VERTEX
  8
0
 10
403.291361
 20
156.624694
 42
-0.240053
  0
VERTEX
  8
0
 10
404.914906
 20
157.152305
 42
-0.001996
  0
VERTEX
  8
0
 10
418.459739
 20
154.952924
 42
-0.007521
  0
VERTEX
  8
0
 10
432.072442
 20
152.475718
 42
-0.010913
  0
VERTEX
  8
0
 10
444.000000
 20
149.847588
 42
-0.023517
  0
VERTEX
  8
0
 10
460.155741
 20
145.101593
 42
-0.034873
  0
VERTEX
  8
0
 10
473.726876
 20
139.324225
 42
-0.038438
  0
VERTEX
  8
0
 10
485.323164
 20
132.229961
 42
-0.040089
  0
VERTEX
  8
0
 10
495.523071
 20
123.533487
 42
-0.033467
  0
VERTEX
  8
0
 10
500.838359
 20
117.445596
 42
-0.033893
  0
VERTEX
  8
0
 10
505.269346
 20
110.727687
 42
-0.032867
  0
VERTEX
  8
0
 10
508.864709
 20
103.277288
 42
-0.027850
  0
VERTEX
  8
0
 10
511.683374
 20
95.000000
 42
-0.056165
  0
VERTEX
  8
0
 10
513.197752
 20
85.634855
 42
-0.012149
  0
VERTEX
  8
0
 10
513.588795
 20
69.213388
 42
-0.013179
  0
VERTEX
  8
0
 10
513.137911
 20
52.420455
 42
-0.035875
  0
VERTEX
  8
0
 10
511.656854
 20
40.626003
 42
-0.014320
  0
VERTEX
  8
0
 10
509.587048
 20
31.594062
 42
-0.015783
  0
VERTEX
  8
0
 10
507.060951
 20
22.987010
 42
-0.016564
  0
VERTEX
  8
0
 10
504.136505
 20
14.979520
 42
-0.020541
  0
VERTEX
  8
0
 10
500.870072
 20
7.750000
 42
0.000000
  0
VERTEX
  8
0
 10
496.977679
 20
0.000000
 42
0.000000
  0
VERTEX
  8
0
 10
770.488839
 20
0.000000
 42
0.000000
  0
VERTEX
  8
0
 10
1044.000000
 20
0.000000
 42
0.000000
  0
VERTEX
  8
0
 10
1044.000000
 20
339.500000
 42
0.000202
  0
VERTEX
  8
0
 10
1043.941449
 20
484.155079
 42
0.000502
  0
VERTEX
  8
0
 10
1043.749295
 20
590.067070
 42
0.000013
  0
VERTEX
  8
0
 10
1043.497546
 20
678.546696
 42
0.413373
  0
VERTEX
  8
0
 10
1043.042939
 20
679.000000
 42
0.309130
  0
VERTEX
  8
0
 10
1042.548859
 20
678.662254
 42
0.002769
  0
VERTEX
  8
0
 10
1040.854330
 20
674.241148
 42
0.008152
  0
VERTEX
  8
0
 10
1038.979494
 20
669.010531
 42
0.005025
  0
VERTEX
  8
0
 10
1036.936316
 20
662.799652
 42
-0.011375
  0
VERTEX
  8
0
 10
1021.204601
 20
616.948084
 42
-0.010409
  0
VERTEX
  8
0
 10
1002.958945
 20
570.470134
 42
-0.010728
  0
VERTEX
  8
0
 10
983.561346
 20
526.604573
 42
-0.015418
  0
VERTEX
  8
0
 10
964.377203
 20
488.710560
 42
0.002939
  0
VERTEX
  8
0
 10
961.504145
 20
483.370480
 42
0.004831
  0
VERTEX
  8
0
 10
959.143871
 20
478.815243
 42
0.000977
  0
VERTEX
  8
0
 10
957.127826
 20
474.811172
 42
0.323055
  0
VERTEX
  8
0
 10
957.180412
 20
474.486254
 42
0.049312
  0
VERTEX
  8
0
 10
957.499971
 20
474.224197
 42
0.000059
  0
VERTEX
  8
0
 10
964.555010
 20
469.518914
 42
0.000539
  0
VERTEX
  8
0
 10
972.458025
 20
464.261729
 42
0.000332
  0
VERTEX
  8
0
 10
981.772750
 20
458.088836
 42
-0.002921
  0
VERTEX
  8
0
 10
991.060833
 20
451.864129
 42
-0.004721
  0
VERTEX
  8
0
 10
998.883245
 20
446.446617
 42
-0.001071
  0
VERTEX
  8
0
 10
1005.654379
 20
441.640178
 42
-0.242427
  0
VERTEX
  8
0
 10
1006.000000
 20
440.969236
 42
-0.473782
  0
VERTEX
  8
0
 10
1005.491315
 20
440.552904
 42
-0.083706
  0
VERTEX
  8
0
 10
1004.163525
 20
441.061872
 42
-0.012906
  0
VERTEX
  8
0
 10
1001.051893
 20
443.007847
 42
-0.000436
  0
VERTEX
  8
0
 10
989.000000
 20
451.000000
 42
0.000384
  0
VERTEX
  8
0
 10
983.356656
 20
454.743210
 42
0.000570
  0
VERTEX
  8
0
 10
978.406760
 20
458.012882
 42
0.000245
  0
VERTEX
  8
0
 10
974.169040
 20
460.802211
 42
0.011656
  0
VERTEX
  8
0
 10
973.299609
 20
461.345275
 42
0.317601
  0
VERTEX
  8
0
 10
972.519637
 20
461.282716
 42
0.032601
  0
VERTEX
  8
0
 10
971.102745
 20
459.935314
 42
0.027108
  0
VERTEX
  8
0
 10
969.293854
 20
457.748731
 42
0.010835
  0
VERTEX
  8
0
 10
967.049609
 20
454.573517
 42
0.005152
  0
VERTEX
  8
0
 10
965.114692
 20
451.641379
 42
0.007612
  0
VERTEX
  8
0
 10
963.483323
 20
449.026386
 42
0.003951
  0
VERTEX
  8
0
 10
962.160163
 20
446.791983
 42
0.132453
  0
VERTEX
  8
0
 10
962.000000
 20
446.197986
 42
0.243594
  0
VERTEX
  8
0
 10
962.287556
 20
445.642773
 42
0.000719
  0
VERTEX
  8
0
 10
969.161954
 20
440.801231
 42
0.003860
  0
VERTEX
  8
0
 10
977.033700
 20
435.364432
 42
0.002375
  0
VERTEX
  8
0
 10
986.381118
 20
429.079120
 42
-0.001609
  0
VERTEX
  8
0
 10
1001.728910
 20
418.793185
 42
-0.019734
  0
VERTEX
  8
0
 10
1007.417481
 20
414.618334
 42
-0.056478
  0
VERTEX
  8
0
 10
1010.178777
 20
411.856935
 42
-0.127859
  0
VERTEX
  8
0
 10
1011.370113
 20
409.176295
 42
-0.004705
  0
VERTEX
  8
0
 10
1011.603630
 20
407.676491
 42
-0.005076
  0
VERTEX
  8
0
 10
1011.802658
 20
406.210050
 42
-0.004804
  0
VERTEX
  8
0
 10
1011.948491
 20
404.949044
 42
-0.024201
  0
VERTEX
  8
0
 10
1011.988994
 20
404.240895
 42
-0.589272
  0
VERTEX
  8
0
 10
1011.576455
 20
404.007668
 42
-0.001308
  0
VERTEX
  8
0
 10
1004.069525
 20
408.641827
 42
-0.005189
  0
VERTEX
  8
0
 10
995.362988
 20
414.174050
 42
-0.003010
  0
VERTEX
  8
0
 10
985.013643
 20
420.990895
 42
0.001277
  0
VERTEX
  8
0
 10
974.612578
 20
427.893623
 42
0.002069
  0
VERTEX
  8
0
 10
965.730209
 20
433.703210
 42
0.000298
  0
VERTEX
  8
0
 10
957.823978
 20
438.821070
 42
0.151999
  0
VERTEX
  8
0
 10
957.263643
 20
438.977478
 42
0.223049
  0
VERTEX
  8
0
 10
956.813006
 20
438.749477
 42
0.004410
  0
VERTEX
  8
0
 10
955.203016
 20
436.652027
 42
0.009636
  0
VERTEX
  8
0
 10
953.361254
 20
434.107743
 42
0.006209
  0
VERTEX
  8
0
 10
951.321092
 20
431.092676
 42
0.000000
  0
VERTEX
  8
0
 10
946.142184
 20
423.230395
 42
0.000000
  0
VERTEX
  8
0
 10
981.472330
 20
399.679502
 42
0.000000
  0
VERTEX
  8
0
 10
1016.802476
 20
376.128609
 42
0.000000
  0
VERTEX
  8
0
 10
1017.500520
 20
371.996920
 42
-0.012898
  0
VERTEX
  8
0
 10
1017.731336
 20
370.377475
 42
-0.018448
  0
VERTEX
  8
0
 10
1017.845678
 20
368.931079
 42
-0.014556
  0
VERTEX
  8
0
 10
1017.860866
 20
367.752692
 42
-0.194700
  0
VERTEX
  8
0
 10
1017.695294
 20
367.361961
 42
-0.352972
  0
VERTEX
  8
0
 10
1017.251056
 20
367.314354
 42
-0.000238
  0
VERTEX
  8
0
 10
1006.309482
 20
374.364001
 42
-0.002405
  0
VERTEX
  8
0
 10
994.076186
 20
382.337714
 42
-0.001449
  0
VERTEX
  8
0
 10
979.641803
 20
391.905415
 42
0.000000
  0
VERTEX
  8
0
 10
942.091583
 20
416.952139
 42
0.000000
  0
VERTEX
  8
0
 10
936.715539
 20
408.726069
 42
0.000000
  0
VERTEX
  8
0
 10
931.339495
 20
400.500000
 42
0.000000
  0
VERTEX
  8
0
 10
976.746799
 20
370.195305
 42
-0.001491
  0
VERTEX
  8
0
 10
997.950978
 20
355.952113
 42
-0.005356
  0
VERTEX
  8
0
 10
1011.360047
 20
346.676049
 42
-0.001957
  0
VERTEX
  8
0
 10
1021.098064
 20
339.726770
 42
-0.420409
  0
VERTEX
  8
0
 10
1021.255135
 20
338.695305
 42
0.015126
  0
VERTEX
  8
0
 10
1020.552871
 20
337.700261
 42
0.000005
  0
VERTEX
  8
0
 10
993.356833
 20
296.579246
 42
0.000084
  0
VERTEX
  8
0
 10
963.194909
 20
250.956261
 42
0.000051
  0
VERTEX
  8
0
 10
927.544573
 20
197.000000
 42
-0.000150
  0
VERTEX
  8
0
 10
891.877245
 20
143.041199
 42
-0.000246
  0
VERTEX
  8
0
 10
861.661600
 20
97.408362
 42
-0.000015
  0
VERTEX
  8
0
 10
834.434848
 20
56.336059
 42
-0.039737
  0
VERTEX
  8
0
 10
833.593283
 20
55.262508
 42
-0.322791
  0
VERTEX
  8
0
 10
832.399390
 20
55.017946
 42
-0.021745
  0
VERTEX
  8
0
 10
829.108921
 20
56.672458
 42
-0.016417
  0
VERTEX
  8
0
 10
824.014834
 20
59.741376
 42
-0.003355
  0
VERTEX
  8
0
 10
815.226793
 20
65.521135
 42
-0.001592
  0
VERTEX
  8
0
 10
808.621896
 20
69.959311
 42
-0.002610
  0
VERTEX
  8
0
 10
803.060371
 20
73.764634
 42
-0.000330
  0
VERTEX
  8
0
 10
798.139308
 20
77.174402
 42
-0.245829
  0
VERTEX
  8
0
 10
798.000000
 20
77.440623
 42
-0.145731
  0
VERTEX
  8
0
 10
798.094619
 20
77.758363
 42
-0.000025
  0
VERTEX
  8
0
 10
808.016073
 20
92.938164
 42
-0.000582
  0
VERTEX
  8
0
 10
819.023363
 20
109.734706
 42
-0.000352
  0
VERTEX
  8
0
 10
832.097271
 20
129.603692
 42
0.000407
  0
VERTEX
  8
0
 10
845.201900
 20
149.524155
 42
0.000660
  0
VERTEX
  8
0
 10
856.310730
 20
166.489523
 42
0.000082
  0
VERTEX
  8
0
 10
866.189201
 20
181.624810
 42
0.052971
  0
VERTEX
  8
0
 10
866.644793
 20
182.516729
 42
0.340912
  0
VERTEX
  8
0
 10
866.414873
 20
183.285231
 42
0.001425
  0
VERTEX
  8
0
 10
858.794915
 20
188.726683
 42
0.005738
  0
VERTEX
  8
0
 10
849.743716
 20
194.996371
 42
0.003175
  0
VERTEX
  8
0
 10
838.556094
 20
202.454394
 42
-0.002850
  0
VERTEX
  8
0
 10
826.557112
 20
210.442056
 42
-0.006787
  0
VERTEX
  8
0
 10
817.755317
 20
216.549401
 42
-0.002310
  0
VERTEX
  8
0
 10
810.859629
 20
221.522399
 42
-0.385266
  0
VERTEX
  8
0
 10
810.684822
 20
222.359362
 42
-0.012887
  0
VERTEX
  8
0
 10
811.244962
 20
223.262093
 42
-0.000016
  0
VERTEX
  8
0
 10
823.023162
 20
241.194184
 42
-0.000144
  0
VERTEX
  8
0
 10
836.214134
 20
261.263251
 42
-0.000088
  0
VERTEX
  8
0
 10
851.750091
 20
284.876159
 42
0.001416
  0
VERTEX
  8
0
 10
867.180944
 20
308.465465
 42
0.002352
  0
VERTEX
  8
0
 10
880.038886
 20
328.448636
 42
0.000226
  0
VERTEX
  8
0
 10
891.412510
 20
346.326886
 42
0.361259
  0
VERTEX
  8
0
 10
891.323841
 20
347.020199
 42
0.040696
  0
VERTEX
  8
0
 10
890.631223
 20
347.567699
 42
0.000163
  0
VERTEX
  8
0
 10
882.399198
 20
353.046594
 42
0.000827
  0
VERTEX
  8
0
 10
873.045539
 20
359.245308
 42
0.000520
  0
VERTEX
  8
0
 10
862.098960
 20
366.457286
 42
0.001851
  0
VERTEX
  8
0
 10
846.955295
 20
376.331782
 42
0.011145
  0
VERTEX
  8
0
 10
838.956278
 20
381.256152
 42
0.012658
  0
VERTEX
  8
0
 10
833.886910
 20
384.053420
 42
0.333627
  0
VERTEX
  8
0
 10
832.445625
 20
383.813246
 42
0.043636
  0
VERTEX
  8
0
 10
831.547763
 20
382.690199
 42
0.000105
  0
VERTEX
  8
0
 10
820.051033
 20
365.407641
 42
0.000683
  0
VERTEX
  8
0
 10
807.121530
 20
345.904670
 42
0.000425
  0
VERTEX
  8
0
 10
792.009810
 20
323.000000
 42
-0.000435
  0
VERTEX
  8
0
 10
776.897543
 20
300.095491
 42
-0.000699
  0
VERTEX
  8
0
 10
763.966334
 20
280.592987
 42
-0.000108
  0
VERTEX
  8
0
 10
752.468065
 20
263.312201
 42
-0.044575
  0
VERTEX
  8
0
 10
751.566323
 20
262.188892
 42
-0.334882
  0
VERTEX
  8
0
 10
750.110601
 20
261.955464
 42
-0.011786
  0
VERTEX
  8
0
 10
744.827138
 20
264.916771
 42
-0.010712
  0
VERTEX
  8
0
 10
736.508446
 20
270.084210
 42
-0.001772
  0
VERTEX
  8
0
 10
720.727755
 20
280.441659
 42
0.000842
  0
VERTEX
  8
0
 10
709.290339
 20
287.978925
 42
0.001323
  0
VERTEX
  8
0
 10
699.432507
 20
294.414197
 42
0.000324
  0
VERTEX
  8
0
 10
690.787054
 20
300.017515
 42
0.052047
  0
VERTEX
  8
0
 10
689.769204
 20
300.535070
 42
0.344368
  0
VERTEX
  8
0
 10
688.681006
 20
300.202157
 42
0.001216
  0
VERTEX
  8
0
 10
680.416095
 20
288.330882
 42
0.004376
  0
VERTEX
  8
0
 10
669.746980
 20
272.634888
 42
0.001385
  0
VERTEX
  8
0
 10
654.097233
 20
249.031127
 42
-0.000645
  0
VERTEX
  8
0
 10
640.887351
 20
229.043073
 42
-0.001052
  0
VERTEX
  8
0
 10
629.623759
 20
212.125048
 42
-0.000106
  0
VERTEX
  8
0
 10
619.516010
 20
197.019049
 42
-0.107236
  0
VERTEX
  8
0
 10
618.938032
 20
196.461702
 42
-0.280369
  0
VERTEX
  8
0
 10
618.268232
 20
196.457098
 42
-0.001835
  0
VERTEX
  8
0
 10
613.021997
 20
199.626843
 42
-0.006469
  0
VERTEX
  8
0
 10
607.000297
 20
203.403031
 42
-0.003998
  0
VERTEX
  8
0
 10
600.016079
 20
207.989257
 42
0.000000
  0
VERTEX
  8
0
 10
581.961305
 20
220.052758
 42
0.000000
  0
VERTEX
  8
0
 10
585.831627
 20
225.776379
 42
0.002456
  0
VERTEX
  8
0
 10
588.813808
 20
230.233597
 42
0.000016
  0
VERTEX
  8
0
 10
615.080705
 20
269.915561
 42
0.000064
  0
VERTEX
  8
0
 10
645.089047
 20
315.265458
 42
0.000041
  0
VERTEX
  8
0
 10
679.968037
 20
368.000000
 42
-0.000103
  0
VERTEX
  8
0
 10
714.633470
 20
420.397527
 42
-0.000170
  0
VERTEX
  8
0
 10
743.943494
 20
464.647857
 42
-0.000007
  0
VERTEX
  8
0
 10
770.431822
 20
504.607466
 42
-0.039545
  0
VERTEX
  8
0
 10
771.000193
 20
505.333131
 42
-0.363530
  0
VERTEX
  8
0
 10
771.689979
 20
505.423279
 42
-0.000369
  0
VERTEX
  8
0
 10
785.673272
 20
496.497109
 42
-0.003007
  0
VERTEX
  8
0
 10
801.373407
 20
486.325139
 42
-0.001812
  0
VERTEX
  8
0
 10
819.875345
 20
474.083131
 42
0.000711
  0
VERTEX
  8
0
 10
838.375450
 20
461.783708
 42
0.001167
  0
VERTEX
  8
0
 10
854.074984
 20
451.431035
 42
0.000095
  0
VERTEX
  8
0
 10
868.178721
 20
442.181677
 42
0.153686
  0
VERTEX
  8
0
 10
868.742214
 20
442.022522
 42
0.223185
  0
VERTEX
  8
0
 10
869.189679
 20
442.249191
 42
0.004346
  0
VERTEX
  8
0
 10
870.799239
 20
444.348777
 42
0.009563
  0
VERTEX
  8
0
 10
872.640287
 20
446.893934
 42
0.006158
  0
VERTEX
  8
0
 10
874.680727
 20
449.910060
 42
0.000000
  0
VERTEX
  8
0
 10
879.861454
 20
457.775076
 42
0.000000
  0
VERTEX
  8
0
 10
837.308427
 20
486.127643
 42
0.000000
  0
VERTEX
  8
0
 10
794.755400
 20
514.480209
 42
0.000000
  0
VERTEX
  8
0
 10
799.364882
 20
515.911691
 42
0.000000
  0
VERTEX
  8
0
 10
803.974364
 20
517.343174
 42
0.000000
  0
VERTEX
  8
0
 10
843.974483
 20
490.678696
 42
0.000000
  0
VERTEX
  8
0
 10
883.974602
 20
464.014218
 42
0.000000
  0
VERTEX
  8
0
 10
889.453483
 20
472.197696
 42
0.000000
  0
VERTEX
  8
0
 10
894.932364
 20
480.381174
 42
0.000000
  0
VERTEX
  8
0
 10
862.216781
 20
502.188788
 42
-0.001287
  0
VERTEX
  8
0
 10
849.654023
 20
510.609679
 42
-0.002090
  0
VERTEX
  8
0
 10
839.029623
 20
517.835751
 42
-0.000287
  0
VERTEX
  8
0
 10
829.623700
 20
524.298696
 42
-0.163034
  0
VERTEX
  8
0
 10
829.222805
 20
524.831586
 42
-0.323762
  0
VERTEX
  8
0
 10
829.346764
 20
525.226055
 42
-0.034947
  0
VERTEX
  8
0
 10
830.199654
 20
525.773013
 42
-0.032446
  0
VERTEX
  8
0
 10
831.428020
 20
526.344564
 42
-0.019886
  0
VERTEX
  8
0
 10
832.939188
 20
526.863634
 42
0.000000
  0
VERTEX
  8
0
 10
836.933966
 20
528.060499
 42
0.000000
  0
VERTEX
  8
0
 10
867.048700
 20
507.967507
 42
0.000772
  0
VERTEX
  8
0
 10
878.676989
 20
500.234845
 42
0.001224
  0
VERTEX
  8
0
 10
888.660414
 20
493.653321
 42
0.000250
  0
VERTEX
  8
0
 10
897.465160
 20
487.886015
 42
0.058550
  0
VERTEX
  8
0
 10
898.331717
 20
487.454055
 42
0.298120
  0
VERTEX
  8
0
 10
899.010252
 20
487.615794
 42
0.013274
  0
VERTEX
  8
0
 10
900.699303
 20
489.500188
 42
0.018670
  0
VERTEX
  8
0
 10
902.653934
 20
491.983117
 42
0.011843
  0
VERTEX
  8
0
 10
904.751017
 20
495.010047
 42
0.000000
  0
VERTEX
  8
0
 10
910.002033
 20
502.986500
 42
0.000000
  0
VERTEX
  8
0
 10
885.254172
 20
519.493250
 42
-0.002944
  0
VERTEX
  8
0
 10
875.879955
 20
525.825890
 42
-0.005281
  0
VERTEX
  8
0
 10
868.269901
 20
531.151142
 42
-0.002022
  0
VERTEX
  8
0
 10
862.066729
 20
535.628283
 42
-0.726198
  0
VERTEX
  8
0
 10
862.187692
 20
536.000000
 42
-0.139995
  0
VERTEX
  8
0
 10
863.387888
 20
535.657238
 42
-0.000990
  0
VERTEX
  8
0
 10
872.427210
 20
530.010853
 42
-0.003699
  0
VERTEX
  8
0
 10
882.751067
 20
523.426707
 42
-0.002348
  0
VERTEX
  8
0
 10
894.684537
 20
515.611415
 42
0.001871
  0
VERTEX
  8
0
 10
906.550278
 20
507.824306
 42
0.003075
  0
VERTEX
  8
0
 10
916.654776
 20
501.335121
 42
0.000423
  0
VERTEX
  8
0
 10
925.646055
 20
495.649295
 42
0.282170
  0
VERTEX
  8
0
 10
926.204064
 20
495.642042
 42
0.135692
  0
VERTEX
  8
0
 10
927.606097
 20
497.105347
 42
0.001120
  0
VERTEX
  8
0
 10
935.172193
 20
511.220857
 42
0.004476
  0
VERTEX
  8
0
 10
942.660818
 20
525.575450
 42
0.006160
  0
VERTEX
  8
0
 10
949.114745
 20
538.615825
 42
0.017880
  0
VERTEX
  8
0
 10
976.466194
 20
601.288903
 42
0.015455
  0
VERTEX
  8
0
 10
1000.734633
 20
668.853645
 42
0.014798
  0
VERTEX
  8
0
 10
1021.773886
 20
740.843119
 42
0.013167
  0
VERTEX
  8
0
 10
1039.431342
 20
816.799619
 42
0.000000
  0
VERTEX
  8
0
 10
1044.000000
 20
839.099237
 42
0.000000
  0
VERTEX
  8
0
 10
1044.000000
 20
1015.518388
 42
0.000000
  0
VERTEX
  8
0
 10
1044.000000
 20
1191.937538
 42
0.000000
  0
VERTEX
  8
0
 10
923.409244
 20
1320.968769
 42
0.000000
  0
VERTEX
  8
0
 10
802.818487
 20
1450.000000
 42
0.000000
  0
VERTEX
  8
0
 10
761.454557
 20
1450.000000
 42
0.000000
  0
VERTEX
  8
0
 10
720.090626
 20
1450.000000
 42
0.000000
  0
VERTEX
  8
0
 10
719.519210
 20
1446.750000
 42
0.005417
  0
VERTEX
  8
0
 10
719.135503
 20
1444.419881
 42
0.000166
  0
VERTEX
  8
0
 10
717.660129
 20
1434.790981
 42
0.000327
  0
VERTEX
  8
0
 10
715.932801
 20
1423.442890
 42
0.000226
  0
VERTEX
  8
0
 10
713.992840
 20
1410.602276
 42
-0.001156
  0
VERTEX
  8
0
 10
712.057950
 20
1397.954413
 42
-0.001880
  0
VERTEX
  8
0
 10
710.349769
 20
1387.224624
 42
-0.000240
  0
VERTEX
  8
0
 10
708.789499
 20
1377.684554
 42
-0.156972
  0
VERTEX
  8
0
 10
708.548916
 20
1377.215583
 42
-0.226460
  0
VERTEX
  8
0
 10
708.096740
 20
1377.055636
 42
-0.001642
  0
VERTEX
  8
0
 10
704.008839
 20
1377.501756
 42
-0.005756
  0
VERTEX
  8
0
 10
699.289399
 20
1378.087571
 42
-0.003604
  0
VERTEX
  8
0
 10
693.779973
 20
1378.876429
 42
0.001348
  0
VERTEX
  8
0
 10
682.185784
 20
1380.589943
 42
0.032763
  0
VERTEX
  8
0
 10
678.932383
 20
1380.845956
 42
0.184971
  0
VERTEX
  8
0
 10
677.566502
 20
1380.343061
 42
0.216335
  0
VERTEX
  8
0
 10
677.000000
 20
1379.095022
 42
0.141336
  0
VERTEX
  8
0
 10
677.277679
 20
1378.132310
 42
0.053031
  0
VERTEX
  8
0
 10
678.155394
 20
1377.018933
 42
0.042237
  0
VERTEX
  8
0
 10
679.527376
 20
1375.832924
 42
0.024582
  0
VERTEX
  8
0
 10
681.349843
 20
1374.640866
 42
-0.069987
  0
VERTEX
  8
0
 10
689.214136
 20
1368.412425
 42
-0.044751
  0
VERTEX
  8
0
 10
696.481035
 20
1359.273262
 42
-0.044143
  0
VERTEX
  8
0
 10
702.129194
 20
1348.787770
 42
-0.060269
  0
VERTEX
  8
0
 10
705.148592
 20
1338.500000
 42
-0.018225
  0
VERTEX
  8
0
 10
705.692372
 20
1334.296153
 42
-0.036180
  0
VERTEX
  8
0
 10
705.759070
 20
1330.938770
 42
-0.028825
  0
VERTEX
  8
0
 10
705.340235
 20
1327.149963
 42
-0.007858
  0
VERTEX
  8
0
 10
704.241612
 20
1321.228537
 42
-0.023186
  0
VERTEX
  8
0
 10
701.980857
 20
1312.206540
 42
-0.036885
  0
VERTEX
  8
0
 10
699.136987
 20
1304.778214
 42
-0.040379
  0
VERTEX
  8
0
 10
695.454714
 20
1298.348178
 42
-0.036543
  0
VERTEX
  8
0
 10
690.673738
 20
1292.361001
 42
-0.040405
  0
VERTEX
  8
0
 10
685.259647
 20
1287.386283
 42
-0.037655
  0
VERTEX
  8
0
 10
678.991940
 20
1283.216068
 42
-0.036007
  0
VERTEX
  8
0
 10
671.893337
 20
1279.875639
 42
-0.030659
  0
VERTEX
  8
0
 10
664.000000
 20
1277.377175
 42
-0.049617
  0
VERTEX
  8
0
 10
653.396276
 20
1275.816866
 42
-0.011424
  0
VERTEX
  8
0
 10
635.303675
 20
1275.380777
 42
-0.012417
  0
VERTEX
  8
0
 10
616.508922
 20
1275.824069
 42
-0.027109
  0
VERTEX
  8
0
 10
602.178372
 20
1277.299849
 42
-0.023635
  0
VERTEX
  8
0
 10
578.382899
 20
1282.224769
 42
-0.039523
  0
VERTEX
  8
0
 10
559.059860
 20
1288.851056
 42
-0.047655
  0
VERTEX
  8
0
 10
543.954853
 20
1297.193365
 42
-0.072797
  0
VERTEX
  8
0
 10
532.971668
 20
1307.326652
 42
-0.045280
  0
VERTEX
  8
0
 10
525.438330
 20
1318.583035
 42
-0.038148
  0
VERTEX
  8
0
 10
519.548676
 20
1331.664981
 42
-0.027880
  0
VERTEX
  8
0
 10
514.379711
 20
1348.921927
 42
-0.010251
  0
VERTEX
  8
0
 10
508.956936
 20
1373.780767
 42
0.000143
  0
VERTEX
  8
0
 10
506.965314
 20
1383.887688
 42
0.000196
  0
VERTEX
  8
0
 10
505.168578
 20
1392.973100
 42
0.000125
  0
VERTEX
  8
0
 10
503.652854
 20
1400.611753
 42
0.002364
  0
VERTEX
  8
0
 10
503.166592
 20
1403.000000
 42
0.000000
  0
VERTEX
  8
0
 10
502.436721
 20
1406.500000
 42
0.000000
  0
VERTEX
  8
0
 10
490.968360
 20
1408.294350
 42
0.012749
  0
VERTEX
  8
0
 10
485.575572
 20
1408.997771
 42
0.006460
  0
VERTEX
  8
0
 10
478.756331
 20
1409.622019
 42
0.006412
  0
VERTEX
  8
0
 10
471.696220
 20
1410.085431
 42
0.009508
  0
VERTEX
  8
0
 10
465.500000
 20
1410.294350
 42
0.004039
  0
VERTEX
  8
0
 10
457.427179
 20
1410.347713
 42
0.025206
  0
VERTEX
  8
0
 10
453.300652
 20
1410.133483
 42
0.049495
  0
VERTEX
  8
0
 10
450.584892
 20
1409.579636
 42
0.061022
  0
VERTEX
  8
0
 10
448.228758
 20
1408.521845
 42
0.122573
  0
VERTEX
  8
0
 10
444.109890
 20
1404.383092
 42
0.078756
  0
VERTEX
  8
0
 10
441.572866
 20
1398.065565
 42
0.076513
  0
VERTEX
  8
0
 10
441.069034
 20
1391.075619
 42
0.102152
  0
VERTEX
  8
0
 10
442.849451
 20
1384.984398
 42
0.091515
  0
VERTEX
  8
0
 10
445.597379
 20
1381.519392
 42
0.072602
  0
VERTEX
  8
0
 10
449.619614
 20
1378.925144
 42
0.049904
  0
VERTEX
  8
0
 10
455.531211
 20
1376.912408
 42
0.017677
  0
VERTEX
  8
0
 10
464.313993
 20
1375.195166
 42
-0.004089
  0
VERTEX
  8
0
 10
468.836345
 20
1374.437875
 42
-0.006232
  0
VERTEX
  8
0
 10
472.747931
 20
1373.699551
 42
-0.002584
  0
VERTEX
  8
0
 10
476.070556
 20
1373.011514
 42
-0.145014
  0
VERTEX
  8
0
 10
476.620248
 20
1372.713085
 42
-0.232405
  0
VERTEX
  8
0
 10
476.823387
 20
1372.117489
 42
-0.000503
  0
VERTEX
  8
0
 10
475.555612
 20
1362.345299
 42
-0.003171
  0
VERTEX
  8
0
 10
474.039552
 20
1351.296157
 42
-0.001946
  0
VERTEX
  8
0
 10
472.119851
 20
1338.294597
 42
0.000361
  0
VERTEX
  8
0
 10
470.155555
 20
1325.276678
 42
0.000580
  0
VERTEX
  8
0
 10
468.501474
 20
1314.173003
 42
0.000089
  0
VERTEX
  8
0
 10
467.047094
 20
1304.319447
 42
0.037249
  0
VERTEX
  8
0
 10
466.997782
 20
1303.634777
 42
-0.468080
  0
VERTEX
  8
0
 10
465.594431
 20
1302.458052
 42
-0.005715
  0
VERTEX
  8
0
 10
452.432520
 20
1304.978684
 42
-0.014111
  0
VERTEX
  8
0
 10
439.118645
 20
1308.080168
 42
-0.025520
  0
VERTEX
  8
0
 10
428.455915
 20
1311.473631
 42
-0.039860
  0
VERTEX
  8
0
 10
416.582772
 20
1317.046251
 42
-0.044380
  0
VERTEX
  8
0
 10
406.192670
 20
1324.264967
 42
-0.046993
  0
VERTEX
  8
0
 10
397.769116
 20
1332.763451
 42
-0.057974
  0
VERTEX
  8
0
 10
391.741515
 20
1342.141857
 42
-0.023533
  0
VERTEX
  8
0
 10
388.251063
 20
1350.208896
 42
-0.038483
  0
VERTEX
  8
0
 10
386.161999
 20
1357.355979
 42
-0.032062
  0
VERTEX
  8
0
 10
384.971452
 20
1365.604507
 42
-0.011409
  0
VERTEX
  8
0
 10
384.299531
 20
1377.500000
 42
-0.023676
  0
VERTEX
  8
0
 10
384.545292
 20
1395.392686
 42
-0.029517
  0
VERTEX
  8
0
 10
386.536592
 20
1411.894115
 42
-0.031614
  0
VERTEX
  8
0
 10
390.275890
 20
1427.022248
 42
-0.036667
  0
VERTEX
  8
0
 10
395.759930
 20
1440.799377
 42
0.000302
  0
VERTEX
  8
0
 10
397.217150
 20
1443.804346
 42
0.000439
  0
VERTEX
  8
0
 10
398.499271
 20
1446.458254
 42
0.000218
  0
VERTEX
  8
0
 10
399.585638
 20
1448.714525
 42
0.007517
  0
VERTEX
  8
0
 10
399.833333
 20
1449.250000
 42
0.540161
  0
VERTEX
  8
0
 10
399.634706
 20
1449.558330
 42
0.000065
  0
VERTEX
  8
0
 10
371.473110
 20
1449.779687
 42
0.001211
  0
VERTEX
  8
0
 10
340.124841
 20
1449.946130
 42
0.000722
  0
VERTEX
  8
0
 10
302.819806
 20
1450.000000
 42
0.000000
  0
VERTEX
  8
0
 10
205.472946
 20
1450.000000
 42
0.000000
  0
SEQEND
  0
POLYLINE
  8
0
 66
1
 70
1
  0
VERTEX
  8
0
 10
393.678235
 20
1446.750000
 42
0.017961
  0
VERTEX
  8
0
 10
386.919615
 20
1429.272558
 42
0.032031
  0
VERTEX
  8
0
 10
382.823488
 20
1414.416473
 42
0.032465
  0
VERTEX
  8
0
 10
380.691361
 20
1399.296343
 42
0.019040
  0
VERTEX
  8
0
 10
380.013137
 20
1381.026234
 42
0.029690
  0
VERTEX
  8
0
 10
381.042415
 20
1363.987098
 42
0.047933
  0
VERTEX
  8
0
 10
384.147215
 20
1349.802613
 42
0.054309
  0
VERTEX
  8
0
 10
389.506142
 20
1337.795815
 42
0.055560
  0
VERTEX
  8
0
 10
397.291131
 20
1327.324695
 42
0.041121
  0
VERTEX
  8
0
 10
406.071381
 20
1319.335106
 42
0.038913
  0
VERTEX
  8
0
 10
416.197830
 20
1312.725098
 42
0.036161
  0
VERTEX
  8
0
 10
427.924469
 20
1307.372155
 42
0.026995
  0
VERTEX
  8
0
 10
441.500000
 20
1303.143574
 42
0.015226
  0
VERTEX
  8
0
 10
448.854661
 20
1301.517968
 42
0.006876
  0
VERTEX
  8
0
 10
458.583073
 20
1299.814645
 42
0.001678
  0
VERTEX
  8
0
 10
468.762653
 20
1298.211299
 42
0.235275
  0
VERTEX
  8
0
 10
469.895800
 20
1298.573376
 42
0.163528
  0
VERTEX
  8
0
 10
470.313101
 20
1299.384445
 42
0.000047
  0
VERTEX
  8
0
 10
476.127529
 20
1337.621432
 42
0.000032
  0
VERTEX
  8
0
 10
481.958019
 20
1376.004720
 42
0.277221
  0
VERTEX
  8
0
 10
481.742477
 20
1376.528825
 42
0.120431
  0
VERTEX
  8
0
 10
481.527573
 20
1376.619699
 42
0.000293
  0
VERTEX
  8
0
 10
478.193102
 20
1377.157002
 42
0.001854
  0
VERTEX
  8
0
 10
474.426210
 20
1377.747400
 42
0.001151
  0
VERTEX
  8
0
 10
470.000000
 20
1378.413908
 42
-0.005776
  0
VERTEX
  8
0
 10
459.853651
 20
1380.037891
 42
-0.029716
  0
VERTEX
  8
0
 10
454.311032
 20
1381.333761
 42
-0.054214
  0
VERTEX
  8
0
 10
450.705856
 20
1382.847014
 42
-0.070031
  0
VERTEX
  8
0
 10
447.841983
 20
1385.004170
 42
-0.036221
  0
VERTEX
  8
0
 10
446.345312
 20
1386.734956
 42
-0.076695
  0
VERTEX
  8
0
 10
445.516898
 20
1388.297519
 42
-0.064323
  0
VERTEX
  8
0
 10
445.117541
 20
1390.209326
 42
-0.019543
  0
VERTEX
  8
0
 10
445.003738
 20
1393.173077
 42
-0.085447
  0
VERTEX
  8
0
 10
446.227579
 20
1400.252503
 42
-0.173856
  0
VERTEX
  8
0
 10
449.756657
 20
1404.564053
 42
-0.119090
  0
VERTEX
  8
0
 10
456.325223
 20
1406.621400
 42
-0.030791
  0
VERTEX
  8
0
 10
467.500000
 20
1406.676229
 42
-0.012720
  0
VERTEX
  8
0
 10
475.689410
 20
1406.002412
 42
-0.005783
  0
VERTEX
  8
0
 10
486.361835
 20
1404.725304
 42
-0.001553
  0
VERTEX
  8
0
 10
497.417334
 20
1403.237525
 42
-0.163566
  0
VERTEX
  8
0
 10
498.765829
 20
1402.567504
 42
-0.145203
  0
VERTEX
  8
0
 10
498.958457
 20
1402.212380
 42
-0.000191
  0
VERTEX
  8
0
 10
500.605260
 20
1394.418670
 42
-0.001622
  0
VERTEX
  8
0
 10
502.421103
 20
1385.668230
 42
-0.000996
  0
VERTEX
  8
0
 10
504.506386
 20
1375.348125
 42
0.004137
  0
VERTEX
  8
0
 10
509.025897
 20
1353.682920
 42
0.015745
  0
VERTEX
  8
0
 10
512.382311
 20
1340.282290
 42
0.023419
  0
VERTEX
  8
0
 10
515.803173
 20
1330.087145
 42
0.021774
  0
VERTEX
  8
0
 10
520.236667
 20
1320.000000
 42
0.012296
  0
VERTEX
  8
0
 10
523.346452
 20
1314.059145
 42
0.029210
  0
VERTEX
  8
0
 10
526.016990
 20
1309.848673
 42
0.028674
  0
VERTEX
  8
0
 10
529.189981
 20
1305.932669
 42
0.011459
  0
VERTEX
  8
0
 10
533.954062
 20
1300.932431
 42
0.011694
  0
VERTEX
  8
0
 10
538.505051
 20
1296.578470
 42
0.021921
  0
VERTEX
  8
0
 10
542.412442
 20
1293.313586
 42
0.024551
  0
VERTEX
  8
0
 10
546.271614
 20
1290.655634
 42
0.020013
  0
VERTEX
  8
0
 10
550.640656
 20
1288.188694
 42
0.033109
  0
VERTEX
  8
0
 10
563.087774
 20
1282.811289
 42
0.021493
  0
VERTEX
  8
0
 10
578.074158
 20
1278.197941
 42
0.019860
  0
VERTEX
  8
0
 10
594.848592
 20
1274.518347
 42
0.017090
  0
VERTEX
  8
0
 10
612.723322
 20
1271.962111
 42
0.022195
  0
VERTEX
  8
0
 10
626.011168
 20
1271.117385
 42
0.013460
  0
VERTEX
  8
0
 10
641.767406
 20
1271.240501
 42
0.012938
  0
VERTEX
  8
0
 10
656.597443
 20
1272.140399
 42
0.043779
  0
VERTEX
  8
0
 10
666.143526
 20
1273.818217
 42
0.072081
  0
VERTEX
  8
0
 10
683.394974
 20
1281.222005
 42
0.088992
  0
VERTEX
  8
0
 10
696.450475
 20
1292.831177
 42
0.084293
  0
VERTEX
  8
0
 10
705.136056
 20
1308.795807
 42
0.057701
  0
VERTEX
  8
0
 10
709.543927
 20
1329.000000
 42
0.066281
  0
VERTEX
  8
0
 10
709.215242
 20
1339.003988
 42
0.051023
  0
VERTEX
  8
0
 10
706.328404
 20
1349.550888
 42
0.048174
  0
VERTEX
  8
0
 10
701.131239
 20
1359.899763
 42
0.045051
  0
VERTEX
  8
0
 10
693.947064
 20
1369.316463
 42
0.000000
  0
VERTEX
  8
0
 10
688.118594
 20
1375.677211
 42
0.000000
  0
VERTEX
  8
0
 10
699.792929
 20
1373.872238
 42
0.006337
  0
VERTEX
  8
0
 10
704.311382
 20
1373.232159
 42
0.009908
  0
VERTEX
  8
0
 10
708.215831
 20
1372.807909
 42
0.004481
  0
VERTEX
  8
0
 10
711.508930
 20
1372.545700
 42
0.239283
  0
VERTEX
  8
0
 10
712.072888
 20
1372.783632
 42
0.135981
  0
VERTEX
  8
0
 10
712.373288
 20
1373.436020
 42
0.000331
  0
VERTEX
  8
0
 10
714.038391
 20
1383.717692
 42
0.002081
  0
VERTEX
  8
0
 10
715.862927
 20
1395.338722
 42
0.001290
  0
VERTEX
  8
0
 10
717.913512
 20
1409.000000
 42
-0.000610
  0
VERTEX
  8
0
 10
719.955895
 20
1422.733764
 42
-0.000945
  0
VERTEX
  8
0
 10
721.756690
 20
1434.589408
 42
-0.000277
  0
VERTEX
  8
0
 10
723.347625
 20
1444.893748
 42
-0.030297
  0
VERTEX
  8
0
 10
723.645394
 20
1446.261815
 42
-0.301695
  0
VERTEX
  8
0
 10
724.887401
 20
1447.329108
 42
-0.021162
  0
VERTEX
  8
0
 10
729.693196
 20
1447.721868
 42
-0.010659
  0
VERTEX
  8
0
 10
738.632492
 20
1447.881997
 42
-0.000884
  0
VERTEX
  8
0
 10
761.863935
 20
1447.761815
 42
0.000000
  0
VERTEX
  8
0
 10
799.585595
 20
1447.500000
 42
0.000000
  0
VERTEX
  8
0
 10
920.732006
 20
1318.000000
 42
0.000000
  0
VERTEX
  8
0
 10
1041.878417
 20
1188.500000
 42
0.000000
  0
VERTEX
  8
0
 10
1041.939209
 20
1019.849105
 42
0.000000
  0
VERTEX
  8
0
 10
1042.000000
 20
851.198209
 42
0.000000
  0
VERTEX
  8
0
 10
1037.934103
 20
830.349105
 42
-0.013850
  0
VERTEX
  8
0
 10
1020.309450
 20
751.642912
 42
-0.015081
  0
VERTEX
  8
0
 10
998.783852
 20
676.261615
 42
-0.015740
  0
VERTEX
  8
0
 10
973.798326
 20
605.581872
 42
-0.019001
  0
VERTEX
  8
0
 10
945.785171
 20
541.000000
 42
-0.005486
  0
VERTEX
  8
0
 10
939.977653
 20
529.226203
 42
-0.004084
  0
VERTEX
  8
0
 10
933.319991
 20
516.355824
 42
-0.001712
  0
VERTEX
  8
0
 10
926.825571
 20
504.149823
 42
-0.067149
  0
VERTEX
  8
0
 10
925.032972
 20
501.673021
 42
-0.354597
  0
VERTEX
  8
0
 10
924.340635
 20
501.583437
 42
-0.000938
  0
VERTEX
  8
0
 10
915.598604
 20
507.000236
 42
-0.004797
  0
VERTEX
  8
0
 10
905.666718
 20
513.313093
 42
-0.002901
  0
VERTEX
  8
0
 10
894.021024
 20
520.969510
 42
0.000000
  0
VERTEX
  8
0
 10
863.796006
 20
541.092977
 42
0.000000
  0
VERTEX
  8
0
 10
858.648003
 20
539.413340
 42
0.003450
  0
VERTEX
  8
0
 10
856.613650
 20
538.734027
 42
0.004481
  0
VERTEX
  8
0
 10
854.759711
 20
538.082096
 42
0.003385
  0
VERTEX
  8
0
 10
853.216645
 20
537.512048
 42
0.040174
  0
VERTEX
  8
0
 10
852.640376
 20
537.240083
 42
0.553551
  0
VERTEX
  8
0
 10
852.617786
 20
536.652261
 42
0.000193
  0
VERTEX
  8
0
 10
874.709378
 20
521.613426
 42
0.001771
  0
VERTEX
  8
0
 10
894.464041
 20
508.278757
 42
0.017822
  0
VERTEX
  8
0
 10
902.916048
 20
503.043421
 42
-0.180423
  0
VERTEX
  8
0
 10
903.458338
 20
502.392826
 42
-0.153089
  0
VERTEX
  8
0
 10
903.488945
 20
501.493740
 42
-0.062698
  0
VERTEX
  8
0
 10
902.904229
 20
500.091333
 42
-0.010804
  0
VERTEX
  8
0
 10
901.416048
 20
497.619111
 42
-0.011011
  0
VERTEX
  8
0
 10
900.243352
 20
495.850447
 42
-0.016318
  0
VERTEX
  8
0
 10
899.132473
 20
494.358864
 42
-0.011467
  0
VERTEX
  8
0
 10
898.160219
 20
493.194455
 42
-0.215709
  0
VERTEX
  8
0
 10
897.737052
 20
493.001788
 42
-0.145471
  0
VERTEX
  8
0
 10
897.176392
 20
493.167005
 42
-0.000253
  0
VERTEX
  8
0
 10
888.756711
 20
498.635198
 42
-0.001868
  0
VERTEX
  8
0
 10
879.309334
 20
504.827971
 42
-0.001152
  0
VERTEX
  8
0
 10
868.237052
 20
512.181866
 42
0.002189
  0
VERTEX
  8
0
 10
857.078448
 20
519.559764
 42
0.003371
  0
VERTEX
  8
0
 10
847.354009
 20
525.835126
 42
0.001128
  0
VERTEX
  8
0
 10
838.908523
 20
531.178141
 42
0.096096
  0
VERTEX
  8
0
 10
837.500000
 20
531.724810
 42
0.092955
  0
VERTEX
  8
0
 10
836.275997
 20
531.716534
 42
0.010883
  0
VERTEX
  8
0
 10
833.594982
 20
531.134146
 42
0.012748
  0
VERTEX
  8
0
 10
830.410350
 20
530.282995
 42
0.010110
  0
VERTEX
  8
0
 10
827.014833
 20
529.206994
 42
0.000000
  0
VERTEX
  8
0
 10
818.529667
 20
526.328099
 42
0.000000
  0
VERTEX
  8
0
 10
853.514833
 20
503.028112
 42
-0.000117
  0
VERTEX
  8
0
 10
866.953476
 20
494.073487
 42
-0.000192
  0
VERTEX
  8
0
 10
878.324860
 20
486.486196
 42
-0.000013
  0
VERTEX
  8
0
 10
888.552246
 20
479.656152
 42
-0.028654
  0
VERTEX
  8
0
 10
888.846391
 20
479.434337
 42
-0.355526
  0
VERTEX
  8
0
 10
888.893243
 20
479.182880
 42
-0.006010
  0
VERTEX
  8
0
 10
888.155717
 20
477.867419
 42
-0.012367
  0
VERTEX
  8
0
 10
887.204558
 20
476.308158
 42
-0.007540
  0
VERTEX
  8
0
 10
886.008737
 20
474.512699
 42
0.000000
  0
VERTEX
  8
0
 10
882.824691
 20
469.884847
 42
0.000000
  0
VERTEX
  8
0
 10
880.162346
 20
471.618501
 42
-0.002417
  0
VERTEX
  8
0
 10
878.190550
 20
472.916102
 42
-0.000042
  0
VERTEX
  8
0
 10
867.555251
 20
479.990193
 42
-0.000107
  0
VERTEX
  8
0
 10
855.169870
 20
488.233686
 42
-0.000071
  0
VERTEX
  8
0
 10
840.983189
 20
497.683385
 42
0.000000
  0
VERTEX
  8
0
 10
804.466378
 20
522.014614
 42
0.000000
  0
VERTEX
  8
0
 10
795.150326
 20
518.890171
 42
0.009497
  0
VERTEX
  8
0
 10
791.635796
 20
517.636712
 42
0.017143
  0
VERTEX
  8
0
 10
788.815517
 20
516.458049
 42
0.013077
  0
VERTEX
  8
0
 10
786.724290
 20
515.431582
 42
0.518864
  0
VERTEX
  8
0
 10
786.667136
 20
514.998124
 42
0.038699
  0
VERTEX
  8
0
 10
787.376039
 20
514.439618
 42
0.000072
  0
VERTEX
  8
0
 10
799.739721
 20
506.165305
 42
0.000529
  0
VERTEX
  8
0
 10
813.646668
 20
496.882339
 42
0.000328
  0
VERTEX
  8
0
 10
830.000000
 20
486.006863
 42
-0.000277
  0
VERTEX
  8
0
 10
846.345145
 20
475.139234
 42
-0.000449
  0
VERTEX
  8
0
 10
860.225076
 20
465.881608
 42
-0.000052
  0
VERTEX
  8
0
 10
872.603716
 20
457.607375
 42
-0.038369
  0
VERTEX
  8
0
 10
873.213024
 20
457.128578
 42
-0.295458
  0
VERTEX
  8
0
 10
873.340235
 20
456.637557
 42
-0.022547
  0
VERTEX
  8
0
 10
872.826625
 20
455.298097
 42
-0.025252
  0
VERTEX
  8
0
 10
872.005915
 20
453.648794
 42
-0.016125
  0
VERTEX
  8
0
 10
870.896357
 20
451.816413
 42
0.000000
  0
VERTEX
  8
0
 10
867.866666
 20
447.158873
 42
0.000000
  0
VERTEX
  8
0
 10
819.375688
 20
479.236077
 42
0.000967
  0
VERTEX
  8
0
 10
792.248076
 20
497.105933
 42
0.007311
  0
VERTEX
  8
0
 10
779.301521
 20
505.330211
 42
0.006904
  0
VERTEX
  8
0
 10
771.230474
 20
510.140902
 42
0.341457
  0
VERTEX
  8
0
 10
769.497850
 20
509.906640
 42
0.048471
  0
VERTEX
  8
0
 10
766.929086
 20
506.739489
 42
0.000014
  0
VERTEX
  8
0
 10
672.520978
 20
364.064927
 42
0.000005
  0
VERTEX
  8
0
 10
577.397654
 20
220.297854
 42
0.147177
  0
VERTEX
  8
0
 10
577.000000
 20
218.976178
 42
0.244808
  0
VERTEX
  8
0
 10
577.253089
 20
218.490244
 42
0.000882
  0
VERTEX
  8
0
 10
582.728125
 20
214.674322
 42
0.004289
  0
VERTEX
  8
0
 10
589.024061
 20
210.382330
 42
0.002646
  0
VERTEX
  8
0
 10
596.500000
 20
205.436385
 42
-0.001999
  0
VERTEX
  8
0
 10
603.975977
 20
200.504291
 42
-0.003266
  0
VERTEX
  8
0
 10
610.270617
 20
196.255754
 42
-0.000511
  0
VERTEX
  8
0
 10
615.803579
 20
192.460172
 42
-0.248893
  0
VERTEX
  8
0
 10
615.995719
 20
192.091679
 42
-0.126848
  0
VERTEX
  8
0
 10
615.892410
 20
191.702680
 42
-0.004625
  0
VERTEX
  8
0
 10
615.124298
 20
190.364814
 42
-0.008196
  0
VERTEX
  8
0
 10
614.168196
 20
188.794193
 42
-0.005632
  0
VERTEX
  8
0
 10
613.035193
 20
187.043859
 42
0.004422
  0
VERTEX
  8
0
 10
611.916774
 20
185.325187
 42
0.007366
  0
VERTEX
  8
0
 10
611.009188
 20
183.855864
 42
0.002168
  0
VERTEX
  8
0
 10
610.257622
 20
182.585581
 42
0.398548
  0
VERTEX
  8
0
 10
610.289475
 20
182.448671
 42
-0.001702
  0
VERTEX
  8
0
 10
610.454541
 20
182.338840
 42
-0.000007
  0
VERTEX
  8
0
 10
612.261518
 20
181.127589
 42
-0.000035
  0
VERTEX
  8
0
 10
614.312577
 20
179.752473
 42
-0.000022
  0
VERTEX
  8
0
 10
616.707182
 20
178.146628
 42
0.000000
  0
VERTEX
  8
0
 10
622.914363
 20
173.983633
 42
0.000000
  0
VERTEX
  8
0
 10
626.939628
 20
179.911098
 42
0.000000
  0
VERTEX
  8
0
 10
630.964892
 20
185.838563
 42
0.000000
  0
VERTEX
  8
0
 10
626.484234
 20
188.669281
 42
-0.010422
  0
VERTEX
  8
0
 10
624.767185
 20
189.804798
 42
-0.015545
  0
VERTEX
  8
0
 10
623.319244
 20
190.874374
 42
-0.010510
  0
VERTEX
  8
0
 10
622.182192
 20
191.809635
 42
-0.218086
  0
VERTEX
  8
0
 10
622.001788
 20
192.200930
 42
-0.146589
  0
VERTEX
  8
0
 10
622.240022
 20
193.003503
 42
-0.000019
  0
VERTEX
  8
0
 10
651.233489
 20
237.286430
 42
-0.000411
  0
VERTEX
  8
0
 10
676.885915
 20
276.393006
 42
-0.004709
  0
VERTEX
  8
0
 10
687.148903
 20
291.694688
 42
0.000000
  0
VERTEX
  8
0
 10
690.019970
 20
295.889375
 42
0.000000
  0
VERTEX
  8
0
 10
718.759985
 20
276.933800
 42
-0.001337
  0
VERTEX
  8
0
 10
729.796910
 20
269.611929
 42
-0.002169
  0
VERTEX
  8
0
 10
739.132924
 20
263.323713
 42
-0.000309
  0
VERTEX
  8
0
 10
747.390283
 20
257.702333
 42
-0.163027
  0
VERTEX
  8
0
 10
747.756352
 20
257.220055
 42
-0.211130
  0
VERTEX
  8
0
 10
747.707580
 20
256.680179
 42
-0.003403
  0
VERTEX
  8
0
 10
746.173035
 20
253.956312
 42
-0.008250
  0
VERTEX
  8
0
 10
744.289983
 20
250.788775
 42
-0.005299
  0
VERTEX
  8
0
 10
742.006352
 20
247.174102
 42
0.003227
  0
VERTEX
  8
0
 10
739.704792
 20
243.564248
 42
0.004979
  0
VERTEX
  8
0
 10
737.766391
 20
240.410989
 42
0.001774
  0
VERTEX
  8
0
 10
736.137097
 20
237.678523
 42
0.136862
  0
VERTEX
  8
0
 10
736.006892
 20
237.193159
 42
0.244983
  0
VERTEX
  8
0
 10
736.239018
 20
236.758435
 42
0.000310
  0
VERTEX
  8
0
 10
744.584854
 20
231.058204
 42
0.002528
  0
VERTEX
  8
0
 10
754.008485
 20
224.699983
 42
0.001541
  0
VERTEX
  8
0
 10
765.198785
 20
217.281579
 42
0.000000
  0
VERTEX
  8
0
 10
794.383785
 20
198.063158
 42
0.000000
  0
VERTEX
  8
0
 10
801.042312
 20
208.063549
 42
0.000000
  0
VERTEX
  8
0
 10
807.700840
 20
218.063939
 42
0.000000
  0
VERTEX
  8
0
 10
834.350420
 20
200.402966
 42
-0.002382
  0
VERTEX
  8
0
 10
844.567540
 20
193.561689
 42
-0.003872
  0
VERTEX
  8
0
 10
853.171686
 20
187.643238
 42
-0.000723
  0
VERTEX
  8
0
 10
860.685134
 20
182.372666
 42
-0.244088
  0
VERTEX
  8
0
 10
861.000000
 20
181.766110
 42
-0.145938
  0
VERTEX
  8
0
 10
860.600701
 20
180.427206
 42
-0.000043
  0
VERTEX
  8
0
 10
828.584235
 20
131.532590
 42
-0.000147
  0
VERTEX
  8
0
 10
797.437741
 20
84.005958
 42
-0.039356
  0
VERTEX
  8
0
 10
794.438480
 20
80.134200
 42
-0.139012
  0
VERTEX
  8
0
 10
793.579519
 20
79.599521
 42
-0.144747
  0
VERTEX
  8
0
 10
792.582263
 20
79.606472
 42
-0.065851
  0
VERTEX
  8
0
 10
791.158253
 20
80.252636
 42
-0.011287
  0
VERTEX
  8
0
 10
788.668310
 20
81.884200
 42
0.004121
  0
VERTEX
  8
0
 10
786.901773
 20
83.078278
 42
0.006247
  0
VERTEX
  8
0
 10
785.344147
 20
84.084734
 42
0.002682
  0
VERTEX
  8
0
 10
784.003267
 20
84.917582
 42
0.138486
  0
VERTEX
  8
0
 10
783.711405
 20
85.000000
 42
0.247439
  0
VERTEX
  8
0
 10
783.205010
 20
84.733052
 42
0.001113
  0
VERTEX
  8
0
 10
779.684645
 20
79.568571
 42
0.001615
  0
VERTEX
  8
0
 10
776.257825
 20
74.481907
 42
0.148481
  0
VERTEX
  8
0
 10
776.000000
 20
73.632843
 42
0.262156
  0
VERTEX
  8
0
 10
776.663241
 20
72.454806
 42
0.005385
  0
VERTEX
  8
0
 10
782.703310
 20
68.879394
 42
0.004781
  0
VERTEX
  8
0
 10
788.852064
 20
65.406483
 42
0.388652
  0
VERTEX
  8
0
 10
789.834403
 20
65.643534
 42
0.004781
  0
VERTEX
  8
0
 10
790.221519
 20
66.230448
 42
0.000735
  0
VERTEX
  8
0
 10
790.977675
 20
67.404860
 42
0.000821
  0
VERTEX
  8
0
 10
791.865511
 20
68.793268
 42
0.000713
  0
VERTEX
  8
0
 10
792.791723
 20
70.251527
 42
0.000000
  0
VERTEX
  8
0
 10
795.083447
 20
73.871088
 42
0.000000
  0
VERTEX
  8
0
 10
814.058887
 20
61.435544
 42
0.001668
  0
VERTEX
  8
0
 10
821.386037
 20
56.668565
 42
0.002672
  0
VERTEX
  8
0
 10
827.675562
 20
52.653915
 42
0.000519
  0
VERTEX
  8
0
 10
833.234369
 20
49.155417
 42
0.142252
  0
VERTEX
  8
0
 10
833.767163
 20
49.003315
 42
0.250346
  0
VERTEX
  8
0
 10
834.734938
 20
49.525911
 42
0.000005
  0
VERTEX
  8
0
 10
930.424361
 20
193.983444
 42
0.000013
  0
VERTEX
  8
0
 10
1025.645022
 20
337.744652
 42
0.089593
  0
VERTEX
  8
0
 10
1026.791182
 20
340.408829
 42
0.306137
  0
VERTEX
  8
0
 10
1026.481264
 20
341.216030
 42
0.000559
  0
VERTEX
  8
0
 10
1014.137085
 20
349.824070
 42
0.003564
  0
VERTEX
  8
0
 10
999.947209
 20
359.546254
 42
0.002075
  0
VERTEX
  8
0
 10
982.791182
 20
371.018537
 42
-0.000227
  0
VERTEX
  8
0
 10
965.749076
 20
382.323700
 42
-0.000367
  0
VERTEX
  8
0
 10
951.257916
 20
391.961459
 42
-0.000047
  0
VERTEX
  8
0
 10
938.358668
 20
400.555895
 42
-0.028083
  0
VERTEX
  8
0
 10
937.640022
 20
401.095415
 42
-0.354709
  0
VERTEX
  8
0
 10
937.475771
 20
401.954378
 42
-0.006607
  0
VERTEX
  8
0
 10
939.858983
 20
406.255276
 42
-0.007303
  0
VERTEX
  8
0
 10
942.347339
 20
410.465258
 42
-0.261307
  0
VERTEX
  8
0
 10
943.300679
 20
411.000000
 42
-0.146542
  0
VERTEX
  8
0
 10
943.454646
 20
410.953884
 42
-0.000010
  0
VERTEX
  8
0
 10
955.187090
 20
403.232793
 42
-0.000366
  0
VERTEX
  8
0
 10
968.136088
 20
394.697132
 42
-0.000221
  0
VERTEX
  8
0
 10
983.477748
 20
384.558443
 42
0.000695
  0
VERTEX
  8
0
 10
998.823427
 20
374.437990
 42
0.001156
  0
VERTEX
  8
0
 10
1011.783639
 20
365.959427
 42
0.000055
  0
VERTEX
  8
0
 10
1023.477962
 20
358.349397
 42
0.354352
  0
VERTEX
  8
0
 10
1023.706672
 20
358.373339
 42
0.235530
  0
VERTEX
  8
0
 10
1023.787240
 20
358.614224
 42
0.000971
  0
VERTEX
  8
0
 10
1023.379146
 20
361.472896
 42
0.004450
  0
VERTEX
  8
0
 10
1022.876921
 20
364.737562
 42
0.002754
  0
VERTEX
  8
0
 10
1022.231563
 20
368.564896
 42
0.000000
  0
VERTEX
  8
0
 10
1020.500000
 20
378.500000
 42
0.000000
  0
VERTEX
  8
0
 10
986.281851
 20
401.399627
 42
0.000000
  0
VERTEX
  8
0
 10
952.063702
 20
424.299255
 42
0.000000
  0
VERTEX
  8
0
 10
953.638799
 20
426.965682
 42
-0.008033
  0
VERTEX
  8
0
 10
954.361536
 20
428.145477
 42
-0.005177
  0
VERTEX
  8
0
 10
955.234963
 20
429.490169
 42
-0.005203
  0
VERTEX
  8
0
 10
956.116756
 20
430.787949
 42
-0.009759
  0
VERTEX
  8
0
 10
956.860708
 20
431.815337
 42
-0.294607
  0
VERTEX
  8
0
 10
958.749802
 20
432.508216
 42
-0.072577
  0
VERTEX
  8
0
 10
961.986180
 20
431.266475
 42
-0.018261
  0
VERTEX
  8
0
 10
968.275087
 20
427.429900
 42
-0.000967
  0
VERTEX
  8
0
 10
987.850653
 20
414.429508
 42
0.001115
  0
VERTEX
  8
0
 10
999.122020
 20
406.948838
 42
0.001855
  0
VERTEX
  8
0
 10
1008.655552
 20
400.702796
 42
0.000140
  0
VERTEX
  8
0
 10
1017.214520
 20
395.143935
 42
0.374414
  0
VERTEX
  8
0
 10
1017.470591
 20
395.180226
 42
0.212113
  0
VERTEX
  8
0
 10
1017.557852
 20
395.466914
 42
0.001227
  0
VERTEX
  8
0
 10
1017.200761
 20
398.308384
 42
0.004848
  0
VERTEX
  8
0
 10
1016.750615
 20
401.569576
 42
0.003029
  0
VERTEX
  8
0
 10
1016.163316
 20
405.380230
 42
0.000000
  0
VERTEX
  8
0
 10
1014.579235
 20
415.260460
 42
0.000000
  0
VERTEX
  8
0
 10
990.761507
 20
431.159198
 42
0.000000
  0
VERTEX
  8
0
 10
966.943779
 20
447.057936
 42
0.000000
  0
VERTEX
  8
0
 10
970.019930
 20
451.528968
 42
-0.006698
  0
VERTEX
  8
0
 10
971.233057
 20
453.242570
 42
-0.010350
  0
VERTEX
  8
0
 10
972.331139
 20
454.686634
 42
-0.005027
  0
VERTEX
  8
0
 10
973.288476
 20
455.868348
 42
-0.223582
  0
VERTEX
  8
0
 10
973.568173
 20
456.000000
 42
-0.145057
  0
VERTEX
  8
0
 10
973.915204
 20
455.897158
 42
-0.000244
  0
VERTEX
  8
0
 10
979.210154
 20
452.453022
 42
-0.001834
  0
VERTEX
  8
0
 10
985.149551
 20
448.554487
 42
-0.001130
  0
VERTEX
  8
0
 10
992.111979
 20
443.925180
 42
0.003160
  0
VERTEX
  8
0
 10
999.079091
 20
439.333444
 42
0.005213
  0
VERTEX
  8
0
 10
1005.030386
 20
435.552597
 42
0.001112
  0
VERTEX
  8
0
 10
1010.255490
 20
432.325145
 42
0.347138
  0
VERTEX
  8
0
 10
1010.712232
 20
432.378899
 42
0.203335
  0
VERTEX
  8
0
 10
1010.888114
 20
432.813939
 42
0.009248
  0
VERTEX
  8
0
 10
1010.829837
 20
434.454837
 42
0.014195
  0
VERTEX
  8
0
 10
1010.665560
 20
436.444379
 42
0.009570
  0
VERTEX
  8
0
 10
1010.370386
 20
438.703719
 42
0.000000
  0
VERTEX
  8
0
 10
1009.500000
 20
444.500000
 42
0.000000
  0
VERTEX
  8
0
 10
985.762383
 20
460.210556
 42
0.000000
  0
VERTEX
  8
0
 10
962.024765
 20
475.921112
 42
0.000000
  0
VERTEX
  8
0
 10
966.057353
 20
483.210556
 42
0.014399
  0
VERTEX
  8
0
 10
983.797618
 20
517.578986
 42
0.010619
  0
VERTEX
  8
0
 10
1001.513314
 20
556.569527
 42
0.010045
  0
VERTEX
  8
0
 10
1018.637859
 20
598.811421
 42
0.009172
  0
VERTEX
  8
0
 10
1034.603582
 20
643.000000
 42
0.000000
  0
VERTEX
  8
0
 10
1041.928740
 20
664.500000
 42
0.000000
  0
VERTEX
  8
0
 10
1041.964370
 20
333.250000
 42
0.000000
  0
VERTEX
  8
0
 10
1042.000000
 20
2.000000
 42
0.000000
  0
VERTEX
  8
0
 10
772.500000
 20
2.000000
 42
-0.000138
  0
VERTEX
  8
0
 10
669.159981
 20
2.028471
 42
-0.000230
  0
VERTEX
  8
0
 10
582.165625
 20
2.116386
 42
-0.000002
  0
VERTEX
  8
0
 10
503.163098
 20
2.232869
 42
-0.413781
  0
VERTEX
  8
0
 10
503.000000
 20
2.396208
 42
-0.104501
  0
VERTEX
  8
0
 10
503.061593
 20
2.687692
 42
-0.000859
  0
VERTEX
  8
0
 10
504.016453
 20
4.836207
 42
-0.003029
  0
VERTEX
  8
0
 10
505.133952
 20
7.298893
 42
-0.001940
  0
VERTEX
  8
0
 10
506.460266
 20
10.146208
 42
0.037357
  0
VERTEX
  8
0
 10
511.780390
 20
24.063531
 42
0.029558
  0
VERTEX
  8
0
 10
515.475672
 20
39.750378
 42
0.027779
  0
VERTEX
  8
0
 10
517.474350
 20
56.798633
 42
0.024095
  0
VERTEX
  8
0
 10
517.707986
 20
74.798525
 42
0.021892
  0
VERTEX
  8
0
 10
516.543555
 20
89.511634
 42
0.043576
  0
VERTEX
  8
0
 10
514.110774
 20
100.933826
 42
0.049502
  0
VERTEX
  8
0
 10
509.993992
 20
110.784082
 42
0.038398
  0
VERTEX
  8
0
 10
503.703983
 20
120.563857
 42
0.059882
  0
VERTEX
  8
0
 10
493.163142
 20
131.479449
 42
0.044285
  0
VERTEX
  8
0
 10
479.247133
 20
140.892604
 42
0.039612
  0
VERTEX
  8
0
 10
462.256274
 20
148.624028
 42
0.029494
  0
VERTEX
  8
0
 10
442.500000
 20
154.495425
 42
0.012333
  0
VERTEX
  8
0
 10
432.954690
 20
156.482506
 42
0.003209
  0
VERTEX
  8
0
 10
417.513829
 20
159.199197
 42
0.000387
  0
VERTEX
  8
0
 10
400.335459
 20
162.094376
 42
0.269896
  0
VERTEX
  8
0
 10
399.495981
 20
161.777400
 42
0.133481
  0
VERTEX
  8
0
 10
399.382171
 20
161.520575
 42
0.000041
  0
VERTEX
  8
0
 10
397.663007
 20
150.272111
 42
0.000724
  0
VERTEX
  8
0
 10
395.773584
 20
137.781690
 42
0.000439
  0
VERTEX
  8
0
 10
393.572710
 20
123.000000
 42
-0.000584
  0
VERTEX
  8
0
 10
391.352317
 20
108.116808
 42
-0.000909
  0
VERTEX
  8
0
 10
389.400350
 20
95.295312
 42
-0.000247
  0
VERTEX
  8
0
 10
387.672313
 20
84.118438
 42
-0.031754
  0
VERTEX
  8
0
 10
387.370075
 20
82.750000
 42
0.119125
  0
VERTEX
  8
0
 10
387.331080
 20
81.858808
 42
0.240687
  0
VERTEX
  8
0
 10
387.753856
 20
81.320534
 42
0.095234
  0
VERTEX
  8
0
 10
388.828330
 20
81.054493
 42
0.012593
  0
VERTEX
  8
0
 10
391.182612
 20
80.989408
 42
-0.033185
  0
VERTEX
  8
0
 10
397.850305
 20
80.529956
 42
-0.006796
  0
VERTEX
  8
0
 10
409.535083
 20
78.779076
 42
-0.007589
  0
VERTEX
  8
0
 10
421.617884
 20
76.611495
 42
-0.016828
  0
VERTEX
  8
0
 10
430.736073
 20
74.511744
 42
-0.013997
  0
VERTEX
  8
0
 10
438.146156
 20
72.316765
 42
-0.034121
  0
VERTEX
  8
0
 10
443.423653
 20
70.183189
 42
-0.045658
  0
VERTEX
  8
0
 10
447.325927
 20
67.824601
 42
-0.059163
  0
VERTEX
  8
0
 10
450.374209
 20
64.967125
 42
-0.125622
  0
VERTEX
  8
0
 10
452.703331
 20
60.140202
 42
-0.104744
  0
VERTEX
  8
0
 10
452.651432
 20
54.429993
 42
-0.102899
  0
VERTEX
  8
0
 10
450.274871
 20
49.149282
 42
-0.116923
  0
VERTEX
  8
0
 10
446.074104
 20
45.538321
 42
-0.080464
  0
VERTEX
  8
0
 10
441.565619
 20
44.060917
 42
-0.028292
  0
VERTEX
  8
0
 10
434.768874
 20
43.382294
 42
-0.026241
  0
VERTEX
  8
0
 10
426.810202
 20
43.458083
 42
-0.022667
  0
VERTEX
  8
0
 10
418.500000
 20
44.353357
 42
0.000356
  0
VERTEX
  8
0
 10
413.115923
 20
45.177724
 42
0.000091
  0
VERTEX
  8
0
 10
404.390069
 20
46.505786
 42
0.000092
  0
VERTEX
  8
0
 10
394.427271
 20
48.018376
 42
0.000094
  0
VERTEX
  8
0
 10
384.508744
 20
49.520468
 42
-0.001108
  0
VERTEX
  8
0
 10
375.286053
 20
50.936317
 42
-0.001803
  0
VERTEX
  8
0
 10
367.464440
 20
52.183724
 42
-0.000221
  0
VERTEX
  8
0
 10
360.503904
 20
53.322719
 42
-0.156960
  0
VERTEX
  8
0
 10
360.175430
 20
53.491237
 42
-0.236293
  0
VERTEX
  8
0
 10
360.064145
 20
53.825566
 42
-0.000063
  0
VERTEX
  8
0
 10
362.308324
 20
69.425790
 42
-0.001117
  0
VERTEX
  8
0
 10
364.841888
 20
86.747595
 42
-0.000675
  0
VERTEX
  8
0
 10
367.916686
 20
107.256188
 42
0.000438
  0
VERTEX
  8
0
 10
373.152360
 20
142.065100
 42
0.004855
  0
VERTEX
  8
0
 10
375.097783
 20
156.000506
 42
0.004371
  0
VERTEX
  8
0
 10
376.092619
 20
164.233353
 42
0.447265
  0
VERTEX
  8
0
 10
375.407027
 20
165.000000
 42
-0.039892
  0
VERTEX
  8
0
 10
374.935691
 20
165.037665
 42
-0.000070
  0
VERTEX
  8
0
 10
367.010863
 20
166.313508
 42
-0.000529
  0
VERTEX
  8
0
 10
358.111062
 20
167.757250
 42
-0.000328
  0
VERTEX
  8
0
 10
347.657027
 20
169.471515
 42
0.001764
  0
VERTEX
  8
0
 10
311.467928
 20
175.299109
 42
0.008383
  0
VERTEX
  8
0
 10
290.697973
 20
178.212627
 42
0.014600
  0
VERTEX
  8
0
 10
276.544819
 20
179.538421
 42
0.027001
  0
VERTEX
  8
0
 10
265.000000
 20
179.656359
 42
0.054358
  0
VERTEX
  8
0
 10
241.561435
 20
176.056802
 42
0.077385
  0
VERTEX
  8
0
 10
222.318150
 20
167.567944
 42
0.079745
  0
VERTEX
  8
0
 10
206.974970
 20
153.862672
 42
0.061785
  0
VERTEX
  8
0
 10
195.073236
 20
134.843520
 42
0.051786
  0
VERTEX
  8
0
 10
187.171278
 20
111.943184
 42
0.040374
  0
VERTEX
  8
0
 10
183.284735
 20
85.889774
 42
0.041253
  0
VERTEX
  8
0
 10
183.669755
 20
60.356302
 42
0.065484
  0
VERTEX
  8
0
 10
188.611491
 20
39.089656
 42
0.033261
  0
VERTEX
  8
0
 10
192.923002
 20
29.578324
 42
0.031809
  0
VERTEX
  8
0
 10
198.514795
 20
20.573288
 42
0.032408
  0
VERTEX
  8
0
 10
205.081039
 20
12.520840
 42
0.038276
  0
VERTEX
  8
0
 10
212.301879
 20
5.855613
 42
0.000000
  0
VERTEX
  8
0
 10
217.179595
 20
2.000000
 42
0.000000
  0
VERTEX
  8
0
 10
109.589798
 20
2.000000
 42
0.000000
  0
VERTEX
  8
0
 10
2.000000
 20
2.000000
 42
0.000000
  0
VERTEX
  8
0
 10
2.048068
 20
595.250000
 42
0.000000
  0
VERTEX
  8
0
 10
2.096135
 20
1188.500000
 42
0.000000
  0
VERTEX
  8
0
 10
75.093946
 20
1280.000000
 42
0.000007
  0
VERTEX
  8
0
 10
105.278520
 20
1317.836326
 42
0.000007
  0
VERTEX
  8
0
 10
135.609051
 20
1355.857813
 42
0.000007
  0
VERTEX
  8
0
 10
162.181290
 20
1389.169907
 42
0.000027
  0
VERTEX
  8
0
 10
178.595251
 20
1409.750000
 42
0.000000
  0
VERTEX
  8
0
 10
209.098745
 20
1448.000000
 42
0.000000
  0
VERTEX
  8
0
 10
301.656362
 20
1448.000000
 42
-0.000519
  0
VERTEX
  8
0
 10
349.643606
 20
1447.950156
 42
-0.002876
  0
VERTEX
  8
0
 10
375.451628
 20
1447.748071
 42
-0.000884
  0
VERTEX
  8
0
 10
393.208735
 20
1447.475466
 42
-0.532935
  0
SEQEND
  0
POLYLINE
  8
0
 66
1
 70
1
  0
VERTEX
  8
0
 10
868.286775
 20
357.493829
 42
-0.003669
  0
VERTEX
  8
0
 10
876.899212
 20
351.659519
 42
-0.014895
  0
VERTEX
  8
0
 10
882.006964
 20
347.915448
 42
-0.015952
  0
VERTEX
  8
0
 10
885.192473
 20
345.263585
 42
-0.312371
  0
VERTEX
  8
0
 10
885.479539
 20
344.086083
 42
-0.054606
  0
VERTEX
  8
0
 10
883.442886
 20
340.130786
 42
-0.000116
  0
VERTEX
  8
0
 10
845.590622
 20
282.962087
 42
-0.000030
  0
VERTEX
  8
0
 10
806.856099
 20
224.497973
 42
-0.251510
  0
VERTEX
  8
0
 10
805.928757
 20
224.000000
 42
-0.144663
  0
VERTEX
  8
0
 10
805.126706
 20
224.237014
 42
-0.000060
  0
VERTEX
  8
0
 10
780.530173
 20
240.169193
 42
-0.000244
  0
VERTEX
  8
0
 10
756.916908
 20
255.484844
 42
-0.032885
  0
VERTEX
  8
0
 10
754.188949
 20
257.522830
 42
-0.376646
  0
VERTEX
  8
0
 10
754.153075
 20
257.771983
 42
-0.000031
  0
VERTEX
  8
0
 10
765.788453
 20
275.629093
 42
-0.000868
  0
VERTEX
  8
0
 10
778.707535
 20
295.378674
 42
-0.000521
  0
VERTEX
  8
0
 10
794.113420
 20
318.787726
 42
0.000000
  0
VERTEX
  8
0
 10
834.348942
 20
379.786683
 42
0.000000
  0
VERTEX
  8
0
 10
842.424471
 20
374.570144
 42
-0.001962
  0
VERTEX
  8
0
 10
846.688832
 20
371.791719
 42
-0.000545
  0
VERTEX
  8
0
 10
853.352679
 20
367.402154
 42
-0.000550
  0
VERTEX
  8
0
 10
860.884741
 20
362.416983
 42
-0.000577
  0
SEQEND
  0
POLYLINE
  8
0
 66
1
 70
1
  0
VERTEX
  8
0
 10
778.180263
 20
236.880006
 42
0.000000
  0
VERTEX
  8
0
 10
803.899005
 20
219.760012
 42
0.000000
  0
VERTEX
  8
0
 10
798.799120
 20
212.130006
 42
-0.000578
  0
VERTEX
  8
0
 10
796.819860
 20
209.176206
 42
-0.000886
  0
VERTEX
  8
0
 10
795.097067
 20
206.621360
 42
-0.000291
  0
VERTEX
  8
0
 10
793.600715
 20
204.413541
 42
-0.025000
  0
VERTEX
  8
0
 10
793.357928
 20
204.091644
 42
-0.380098
  0
VERTEX
  8
0
 10
792.819311
 20
204.011267
 42
-0.000080
  0
VERTEX
  8
0
 10
768.728890
 20
219.742645
 42
-0.000564
  0
VERTEX
  8
0
 10
746.189707
 20
234.502486
 42
-0.033150
  0
VERTEX
  8
0
 10
742.275020
 20
237.461090
 42
-0.258191
  0
VERTEX
  8
0
 10
741.939697
 20
238.374067
 42
-0.065726
  0
VERTEX
  8
0
 10
742.398709
 20
239.943022
 42
-0.034231
  0
VERTEX
  8
0
 10
743.667551
 20
242.354774
 42
-0.007730
  0
VERTEX
  8
0
 10
746.161269
 20
246.260694
 42
-0.005003
  0
VERTEX
  8
0
 10
748.163412
 20
249.227312
 42
-0.007901
  0
VERTEX
  8
0
 10
749.945712
 20
251.726579
 42
-0.002951
  0
VERTEX
  8
0
 10
751.509899
 20
253.822245
 42
-0.235121
  0
VERTEX
  8
0
 10
751.867009
 20
254.000000
 42
-0.145015
  0
VERTEX
  8
0
 10
752.305636
 20
253.870052
 42
-0.000192
  0
VERTEX
  8
0
 10
759.841763
 20
248.971002
 42
-0.001625
  0
VERTEX
  8
0
 10
768.277085
 20
243.443682
 42
-0.000998
  0
SEQEND
  0
POLYLINE
  8
0
 66
1
 70
1
  0
VERTEX
  8
0
 10
622.760629
 20
186.215445
 42
-0.023182
  0
VERTEX
  8
0
 10
624.059113
 20
185.116481
 42
-0.164013
  0
VERTEX
  8
0
 10
624.447522
 20
184.400303
 42
-0.171480
  0
VERTEX
  8
0
 10
624.313982
 20
183.612179
 42
-0.025883
  0
VERTEX
  8
0
 10
623.451461
 20
182.234163
 42
-0.060414
  0
VERTEX
  8
0
 10
622.313760
 20
180.967200
 42
-0.206149
  0
VERTEX
  8
0
 10
621.281769
 20
180.634555
 42
-0.111702
  0
VERTEX
  8
0
 10
619.918124
 20
181.082320
 42
-0.012668
  0
VERTEX
  8
0
 10
617.157830
 20
182.832494
 42
-0.069141
  0
VERTEX
  8
0
 10
616.525714
 20
183.396457
 42
-0.177102
  0
VERTEX
  8
0
 10
616.316498
 20
183.963116
 42
-0.117692
  0
VERTEX
  8
0
 10
616.487544
 20
184.689739
 42
-0.023192
  0
VERTEX
  8
0
 10
617.148377
 20
185.865981
 42
-0.055550
  0
VERTEX
  8
0
 10
618.325558
 20
187.354188
 42
-0.184137
  0
VERTEX
  8
0
 10
619.442968
 20
187.861771
 42
-0.148202
  0
VERTEX
  8
0
 10
620.778094
 20
187.546237
 42
-0.032430
  0
SEQEND
  0
POLYLINE
  8
0
 66
1
 70
1
  0
VERTEX
  8
0
 10
788.095708
 20
77.284392
 42
-0.015995
  0
VERTEX
  8
0
 10
790.238958
 20
75.924050
 42
-0.190151
  0
VERTEX
  8
0
 10
790.781713
 20
75.126336
 42
-0.203747
  0
VERTEX
  8
0
 10
790.613182
 20
74.202101
 42
-0.018684
  0
VERTEX
  8
0
 10
789.227764
 20
72.260341
 42
0.000000
  0
VERTEX
  8
0
 10
787.500000
 20
70.020682
 42
0.000000
  0
VERTEX
  8
0
 10
784.615007
 20
72.323846
 42
-0.020431
  0
VERTEX
  8
0
 10
783.046210
 20
73.684803
 42
-0.113108
  0
VERTEX
  8
0
 10
782.428666
 20
74.606910
 42
-0.161134
  0
VERTEX
  8
0
 10
782.386450
 20
75.537629
 42
-0.054354
  0
VERTEX
  8
0
 10
782.900191
 20
76.813505
 42
-0.030712
  0
VERTEX
  8
0
 10
783.884083
 20
78.408229
 42
-0.220000
  0
VERTEX
  8
0
 10
784.648242
 20
78.849303
 42
-0.145452
  0
VERTEX
  8
0
 10
785.667029
 20
78.644384
 42
-0.011549
  0
SEQEND
  0
POLYLINE
  8
0
 66
1
 70
1
  0
VERTEX
  8
0
 10
544.037200
 20
1393.369917
 42
0.040103
  0
VERTEX
  8
0
 10
548.823246
 20
1380.604482
 42
0.063714
  0
VERTEX
  8
0
 10
555.073789
 20
1370.769019
 42
0.070553
  0
VERTEX
  8
0
 10
563.067312
 20
1363.520695
 42
0.063734
  0
VERTEX
  8
0
 10
573.032766
 20
1358.478901
 42
0.041566
  0
VERTEX
  8
0
 10
578.337306
 20
1357.079135
 42
0.002665
  0
VERTEX
  8
0
 10
594.140821
 20
1354.373075
 42
0.004352
  0
VERTEX
  8
0
 10
610.665094
 20
1351.781739
 42
0.007802
  0
VERTEX
  8
0
 10
624.282916
 20
1349.984134
 42
0.040583
  0
VERTEX
  8
0
 10
634.105919
 20
1349.644911
 42
0.071639
  0
VERTEX
  8
0
 10
642.059805
 20
1351.171586
 42
0.089320
  0
VERTEX
  8
0
 10
648.033210
 20
1354.519403
 42
0.107304
  0
VERTEX
  8
0
 10
652.014836
 20
1359.565724
 42
0.116337
  0
VERTEX
  8
0
 10
653.830236
 20
1367.586549
 42
0.133291
  0
VERTEX
  8
0
 10
651.708465
 20
1375.133562
 42
0.115492
  0
VERTEX
  8
0
 10
645.697497
 20
1381.344343
 42
0.073740
  0
VERTEX
  8
0
 10
636.500000
 20
1385.502177
 42
0.030300
  0
VERTEX
  8
0
 10
630.347264
 20
1386.857212
 42
0.000363
  0
VERTEX
  8
0
 10
589.739970
 20
1393.221638
 42
0.000291
  0
VERTEX
  8
0
 10
548.630476
 20
1399.609736
 42
0.038413
  0
VERTEX
  8
0
 10
543.558163
 20
1400.000000
 42
0.277185
  0
VERTEX
  8
0
 10
542.956938
 20
1399.638960
 42
0.141263
  0
VERTEX
  8
0
 10
542.767916
 20
1398.745741
 42
0.045190
  0
VERTEX
  8
0
 10
543.060858
 20
1396.958310
 42
0.006444
  0
SEQEND
  0
POLYLINE
  8
0
 66
1
 70
1
  0
VERTEX
  8
0
 10
590.741412
 20
1388.960745
 42
-0.000990
  0
VERTEX
  8
0
 10
619.713732
 20
1384.501221
 42
-0.011508
  0
VERTEX
  8
0
 10
631.000311
 20
1382.473984
 42
-0.030379
  0
VERTEX
  8
0
 10
637.547756
 20
1380.721882
 42
-0.050683
  0
VERTEX
  8
0
 10
642.744431
 20
1378.379386
 42
-0.076072
  0
VERTEX
  8
0
 10
647.001910
 20
1374.960236
 42
-0.108980
  0
VERTEX
  8
0
 10
649.420875
 20
1370.786090
 42
-0.112064
  0
VERTEX
  8
0
 10
649.822231
 20
1366.071156
 42
-0.083920
  0
VERTEX
  8
0
 10
648.248446
 20
1361.084806
 42
-0.160906
  0
VERTEX
  8
0
 10
643.447247
 20
1356.348933
 42
-0.096088
  0
VERTEX
  8
0
 10
635.636848
 20
1354.205128
 42
-0.047704
  0
VERTEX
  8
0
 10
622.871064
 20
1354.448215
 42
-0.009973
  0
VERTEX
  8
0
 10
600.672978
 20
1357.447944
 42
-0.004591
  0
VERTEX
  8
0
 10
584.674120
 20
1360.086459
 42
-0.024861
  0
VERTEX
  8
0
 10
576.092384
 20
1362.026599
 42
-0.043165
  0
VERTEX
  8
0
 10
570.094328
 20
1364.272844
 42
-0.038939
  0
VERTEX
  8
0
 10
564.348733
 20
1367.581232
 42
-0.035491
  0
VERTEX
  8
0
 10
560.435979
 20
1370.689008
 42
-0.042235
  0
VERTEX
  8
0
 10
557.243105
 20
1374.156500
 42
-0.037788
  0
VERTEX
  8
0
 10
554.419975
 20
1378.425992
 42
-0.021028
  0
VERTEX
  8
0
 10
551.612074
 20
1384.000000
 42
-0.010654
  0
VERTEX
  8
0
 10
549.379881
 20
1389.231653
 42
-0.045542
  0
VERTEX
  8
0
 10
548.407299
 20
1392.479495
 42
-0.115012
  0
VERTEX
  8
0
 10
548.459937
 20
1394.288989
 42
-0.340486
  0
VERTEX
  8
0
 10
549.383004
 20
1395.000000
 42
-0.036059
  0
VERTEX
  8
0
 10
550.622689
 20
1394.910479
 42
-0.000206
  0
VERTEX
  8
0
 10
562.191962
 20
1393.225969
 42
-0.000879
  0
VERTEX
  8
0
 10
575.385868
 20
1391.275679
 42
-0.000558
  0
SEQEND
  0
POLYLINE
  8
0
 66
1
 70
1
  0
VERTEX
  8
0
 10
254.644457
 20
101.560297
 42
0.034517
  0
VERTEX
  8
0
 10
252.343152
 20
100.768149
 42
0.031698
  0
VERTEX
  8
0
 10
250.103579
 20
99.647668
 42
0.031506
  0
VERTEX
  8
0
 10
248.010018
 20
98.245121
 42
0.033049
  0
VERTEX
  8
0
 10
246.144457
 20
96.611124
 42
0.024612
  0
VERTEX
  8
0
 10
243.941791
 20
94.180233
 42
0.095759
  0
VERTEX
  8
0
 10
242.979853
 20
92.402695
 42
0.067868
  0
VERTEX
  8
0
 10
242.586208
 20
90.103540
 42
0.008510
  0
VERTEX
  8
0
 10
242.500000
 20
85.038875
 42
0.008631
  0
VERTEX
  8
0
 10
242.585979
 20
80.058594
 42
0.063742
  0
VERTEX
  8
0
 10
242.968020
 20
77.718584
 42
0.092581
  0
VERTEX
  8
0
 10
243.887145
 20
75.926000
 42
0.027846
  0
VERTEX
  8
0
 10
245.902837
 20
73.600247
 42
0.051833
  0
VERTEX
  8
0
 10
249.415929
 20
70.656527
 42
0.031150
  0
VERTEX
  8
0
 10
254.109631
 20
67.896376
 42
0.028582
  0
VERTEX
  8
0
 10
259.632135
 20
65.481921
 42
0.024744
  0
VERTEX
  8
0
 10
265.664106
 20
63.579373
 42
0.025174
  0
VERTEX
  8
0
 10
273.072981
 20
62.033364
 42
0.002774
  0
VERTEX
  8
0
 10
290.223588
 20
59.444242
 42
0.000488
  0
VERTEX
  8
0
 10
309.275310
 20
56.695102
 42
0.240338
  0
VERTEX
  8
0
 10
310.399830
 20
57.079518
 42
0.151389
  0
VERTEX
  8
0
 10
310.599615
 20
57.473629
 42
0.000473
  0
VERTEX
  8
0
 10
311.545540
 20
63.060196
 42
0.002615
  0
VERTEX
  8
0
 10
312.578905
 20
69.400884
 42
0.001627
  0
VERTEX
  8
0
 10
313.727943
 20
76.848808
 42
0.003568
  0
VERTEX
  8
0
 10
314.974577
 20
85.526620
 42
0.010534
  0
VERTEX
  8
0
 10
315.662706
 20
91.511248
 42
0.006479
  0
VERTEX
  8
0
 10
316.016328
 20
95.897025
 42
0.341334
  0
VERTEX
  8
0
 10
315.574299
 20
96.556681
 42
0.041539
  0
VERTEX
  8
0
 10
314.737812
 20
96.760965
 42
0.000423
  0
VERTEX
  8
0
 10
308.728850
 20
97.703895
 42
0.001369
  0
VERTEX
  8
0
 10
301.798580
 20
98.765952
 42
0.000888
  0
VERTEX
  8
0
 10
293.779233
 20
99.957873
 42
0.006634
  0
VERTEX
  8
0
 10
278.950705
 20
101.934320
 42
0.019581
  0
VERTEX
  8
0
 10
268.704224
 20
102.756622
 42
0.028311
  0
VERTEX
  8
0
 10
261.009972
 20
102.635939
 42
0.047590
  0
SEQEND
  0
POLYLINE
  8
0
 66
1
 70
1
  0
VERTEX
  8
0
 10
295.833369
 20
95.596541
 42
-0.002128
  0
VERTEX
  8
0
 10
301.741906
 20
94.634389
 42
-0.003387
  0
VERTEX
  8
0
 10
306.787410
 20
93.755542
 42
-0.000782
  0
VERTEX
  8
0
 10
311.195568
 20
92.949792
 42
-0.151914
  0
VERTEX
  8
0
 10
311.591758
 20
92.741576
 42
-0.237733
  0
VERTEX
  8
0
 10
311.861902
 20
91.922542
 42
-0.000424
  0
VERTEX
  8
0
 10
309.651146
 20
77.200481
 42
-0.000519
  0
VERTEX
  8
0
 10
307.427001
 20
62.577027
 42
-0.180323
  0
VERTEX
  8
0
 10
306.890676
 20
61.615470
 42
-0.214358
  0
VERTEX
  8
0
 10
305.664519
 20
61.259066
 42
-0.000825
  0
VERTEX
  8
0
 10
290.866355
 20
63.361088
 42
-0.004314
  0
VERTEX
  8
0
 10
277.390207
 20
65.416819
 42
-0.017607
  0
VERTEX
  8
0
 10
269.266300
 20
67.023192
 42
-0.025398
  0
VERTEX
  8
0
 10
261.731798
 20
69.199651
 42
-0.033461
  0
VERTEX
  8
0
 10
255.142924
 20
71.976788
 42
-0.037369
  0
VERTEX
  8
0
 10
250.084848
 20
75.012134
 42
-0.120161
  0
VERTEX
  8
0
 10
247.524678
 20
77.952278
 42
-0.072085
  0
VERTEX
  8
0
 10
246.434385
 20
81.101157
 42
-0.046154
  0
VERTEX
  8
0
 10
246.058266
 20
84.959907
 42
-0.046270
  0
VERTEX
  8
0
 10
246.395870
 20
88.806111
 42
-0.074443
  0
VERTEX
  8
0
 10
247.455949
 20
91.914815
 42
-0.084275
  0
VERTEX
  8
0
 10
248.891722
 20
93.821617
 42
-0.046811
  0
VERTEX
  8
0
 10
251.190916
 20
95.619660
 42
-0.041616
  0
VERTEX
  8
0
 10
254.129309
 20
97.175473
 42
-0.033636
  0
VERTEX
  8
0
 10
257.500000
 20
98.354634
 42
-0.077438
  0
VERTEX
  8
0
 10
261.901008
 20
98.861685
 42
-0.007991
  0
VERTEX
  8
0
 10
272.361600
 20
98.276916
 42
-0.010370
  0
VERTEX
  8
0
 10
284.235341
 20
97.174655
 42
-0.010966
  0
SEQEND
  0
POLYLINE
  8
0
 66
1
 70
1
  0
VERTEX
  8
0
 10
303.726560
 20
1255.248022
 42
0.000602
  0
VERTEX
  8
0
 10
301.515205
 20
1240.283153
 42
0.000947
  0
VERTEX
  8
0
 10
299.655953
 20
1227.425840
 42
0.000221
  0
VERTEX
  8
0
 10
298.052390
 20
1216.150812
 42
0.038999
  0
VERTEX
  8
0
 10
297.976560
 20
1214.946326
 42
0.321004
  0
VERTEX
  8
0
 10
298.666786
 20
1214.012109
 42
0.022144
  0
VERTEX
  8
0
 10
302.012335
 20
1213.089886
 42
0.015644
  0
VERTEX
  8
0
 10
307.651599
 20
1211.985383
 42
0.002797
  0
VERTEX
  8
0
 10
318.250000
 20
1210.312707
 42
0.001434
  0
VERTEX
  8
0
 10
326.035817
 20
1209.151356
 42
0.002347
  0
VERTEX
  8
0
 10
332.640905
 20
1208.217131
 42
0.000288
  0
VERTEX
  8
0
 10
338.520391
 20
1207.417117
 42
0.219075
  0
VERTEX
  8
0
 10
338.804145
 20
1207.503860
 42
0.175372
  0
VERTEX
  8
0
 10
339.258087
 20
1208.343612
 42
0.000052
  0
VERTEX
  8
0
 10
345.116120
 20
1247.567581
 42
0.000042
  0
VERTEX
  8
0
 10
350.981461
 20
1286.891198
 42
0.237674
  0
VERTEX
  8
0
 10
350.754607
 20
1287.578727
 42
0.158779
  0
VERTEX
  8
0
 10
350.276316
 20
1287.821965
 42
0.000060
  0
VERTEX
  8
0
 10
330.672241
 20
1290.893650
 42
0.000214
  0
VERTEX
  8
0
 10
311.708137
 20
1293.854444
 42
0.040585
  0
VERTEX
  8
0
 10
309.753493
 20
1293.998022
 42
0.367448
  0
VERTEX
  8
0
 10
309.633944
 20
1293.894836
 42
0.000041
  0
VERTEX
  8
0
 10
307.878515
 20
1282.614394
 42
0.000998
  0
VERTEX
  8
0
 10
305.958586
 20
1270.105978
 42
0.000599
  0
SEQEND
  0
POLYLINE
  8
0
 66
1
 70
1
  0
VERTEX
  8
0
 10
330.750000
 20
1286.798202
 42
-0.002811
  0
VERTEX
  8
0
 10
339.894659
 20
1285.417975
 42
-0.029185
  0
VERTEX
  8
0
 10
343.611634
 20
1284.611044
 42
-0.089325
  0
VERTEX
  8
0
 10
345.383837
 20
1283.754304
 42
-0.239748
  0
VERTEX
  8
0
 10
346.002218
 20
1282.542046
 42
-0.037256
  0
VERTEX
  8
0
 10
345.762256
 20
1279.278252
 42
-0.000185
  0
VERTEX
  8
0
 10
340.894443
 20
1246.681272
 42
-0.000053
  0
VERTEX
  8
0
 10
335.851432
 20
1213.020789
 42
-0.140545
  0
VERTEX
  8
0
 10
335.468358
 20
1212.181267
 42
-0.258730
  0
VERTEX
  8
0
 10
334.875861
 20
1211.960210
 42
-0.000217
  0
VERTEX
  8
0
 10
319.050222
 20
1214.347014
 42
-0.000309
  0
VERTEX
  8
0
 10
303.366061
 20
1216.729355
 42
-0.159850
  0
VERTEX
  8
0
 10
302.498273
 20
1217.168394
 42
-0.236785
  0
VERTEX
  8
0
 10
302.325275
 20
1217.689744
 42
-0.000040
  0
VERTEX
  8
0
 10
306.765291
 20
1248.161388
 42
-0.000727
  0
VERTEX
  8
0
 10
310.735620
 20
1275.119657
 42
-0.008255
  0
VERTEX
  8
0
 10
312.496873
 20
1285.750000
 42
-0.033799
  0
VERTEX
  8
0
 10
312.812447
 20
1286.994852
 42
-0.047229
  0
VERTEX
  8
0
 10
313.270088
 20
1288.047121
 42
-0.056824
  0
VERTEX
  8
0
 10
313.791018
 20
1288.779671
 42
-0.211578
  0
VERTEX
  8
0
 10
314.295313
 20
1289.006156
 42
-0.033955
  0
VERTEX
  8
0
 10
315.179178
 20
1288.950600
 42
-0.000682
  0
VERTEX
  8
0
 10
319.625811
 20
1288.360109
 42
-0.001615
  0
VERTEX
  8
0
 10
324.818861
 20
1287.646207
 42
-0.001084
  0
SEQEND
  0
POLYLINE
  8
0
 66
1
 70
1
  0
VERTEX
  8
0
 10
366.534979
 20
1282.750000
 42
0.018847
  0
VERTEX
  8
0
 10
364.892214
 20
1273.838843
 42
0.000771
  0
VERTEX
  8
0
 10
360.239373
 20
1241.539923
 42
0.000083
  0
VERTEX
  8
0
 10
355.190266
 20
1206.061028
 42
0.235883
  0
VERTEX
  8
0
 10
355.483092
 20
1205.183575
 42
0.158448
  0
VERTEX
  8
0
 10
356.058314
 20
1204.890574
 42
0.000084
  0
VERTEX
  8
0
 10
375.938566
 20
1201.750280
 42
0.001110
  0
VERTEX
  8
0
 10
398.091245
 20
1198.305202
 42
0.000675
  0
VERTEX
  8
0
 10
424.287516
 20
1194.326998
 42
-0.000017
  0
VERTEX
  8
0
 10
453.079601
 20
1189.993353
 42
-0.000015
  0
VERTEX
  8
0
 10
483.184458
 20
1185.460147
 42
-0.000015
  0
VERTEX
  8
0
 10
510.384352
 20
1181.362710
 42
-0.000045
  0
VERTEX
  8
0
 10
529.000000
 20
1178.556144
 42
-0.000001
  0
VERTEX
  8
0
 10
546.943520
 20
1175.849238
 42
-0.000000
  0
VERTEX
  8
0
 10
571.481656
 20
1172.147429
 42
-0.000000
  0
VERTEX
  8
0
 10
597.919258
 20
1168.159031
 42
-0.000000
  0
VERTEX
  8
0
 10
622.363083
 20
1164.471379
 42
0.000666
  0
VERTEX
  8
0
 10
644.191993
 20
1161.207919
 42
0.001102
  0
VERTEX
  8
0
 10
662.628130
 20
1158.518275
 42
0.000061
  0
VERTEX
  8
0
 10
679.234210
 20
1156.135036
 42
0.236206
  0
VERTEX
  8
0
 10
679.585296
 20
1156.251963
 42
0.161630
  0
VERTEX
  8
0
 10
680.297290
 20
1157.671469
 42
0.000138
  0
VERTEX
  8
0
 10
685.900647
 20
1196.274582
 42
0.000101
  0
VERTEX
  8
0
 10
691.515623
 20
1235.088163
 42
0.243008
  0
VERTEX
  8
0
 10
691.156644
 20
1236.125001
 42
0.150054
  0
VERTEX
  8
0
 10
690.540440
 20
1236.432472
 42
0.000357
  0
VERTEX
  8
0
 10
680.558514
 20
1238.086684
 42
0.002256
  0
VERTEX
  8
0
 10
669.273707
 20
1239.896262
 42
0.001397
  0
VERTEX
  8
0
 10
656.000000
 20
1241.925407
 42
-0.000123
  0
VERTEX
  8
0
 10
635.581943
 20
1244.993502
 42
-0.000019
  0
VERTEX
  8
0
 10
594.709715
 20
1251.146980
 42
-0.000021
  0
VERTEX
  8
0
 10
546.454640
 20
1258.415874
 42
-0.000018
  0
VERTEX
  8
0
 10
495.799030
 20
1266.050406
 42
0.000168
  0
VERTEX
  8
0
 10
447.494243
 20
1273.315820
 42
0.000275
  0
VERTEX
  8
0
 10
406.573289
 20
1279.433557
 42
0.000021
  0
VERTEX
  8
0
 10
369.802149
 20
1284.908655
 42
0.036959
  0
VERTEX
  8
0
 10
368.568082
 20
1285.000000
 42
0.132994
  0
VERTEX
  8
0
 10
367.945609
 20
1284.831448
 42
0.076932
  0
VERTEX
  8
0
 10
367.339742
 20
1284.339062
 42
0.067664
  0
VERTEX
  8
0
 10
366.841489
 20
1283.610265
 42
0.061217
  0
SEQEND
  0
POLYLINE
  8
0
 66
1
 70
1
  0
VERTEX
  8
0
 10
531.318164
 20
1256.551032
 42
-0.000255
  0
VERTEX
  8
0
 10
590.717761
 20
1247.559670
 42
-0.000424
  0
VERTEX
  8
0
 10
640.807875
 20
1239.907868
 42
-0.000012
  0
VERTEX
  8
0
 10
686.145127
 20
1232.941655
 42
-0.159562
  0
VERTEX
  8
0
 10
686.644862
 20
1232.688472
 42
-0.233185
  0
VERTEX
  8
0
 10
686.811032
 20
1232.198898
 42
-0.000304
  0
VERTEX
  8
0
 10
685.444746
 20
1221.874767
 42
-0.002464
  0
VERTEX
  8
0
 10
683.843830
 20
1210.271994
 42
-0.001504
  0
VERTEX
  8
0
 10
681.845251
 20
1196.589969
 42
-0.001145
  0
VERTEX
  8
0
 10
678.637553
 20
1175.415530
 42
-0.011692
  0
VERTEX
  8
0
 10
677.083202
 20
1166.676390
 42
-0.021463
  0
VERTEX
  8
0
 10
675.913439
 20
1161.943988
 42
-0.332930
  0
VERTEX
  8
0
 10
674.652884
 20
1161.000000
 42
-0.037069
  0
VERTEX
  8
0
 10
672.206590
 20
1161.181611
 42
-0.000048
  0
VERTEX
  8
0
 10
624.564651
 20
1168.299322
 42
-0.000256
  0
VERTEX
  8
0
 10
555.321340
 20
1178.687378
 42
-0.000041
  0
VERTEX
  8
0
 10
420.628186
 20
1198.976364
 42
0.000087
  0
VERTEX
  8
0
 10
397.644455
 20
1202.436279
 42
0.000144
  0
VERTEX
  8
0
 10
378.232626
 20
1205.349307
 42
0.000006
  0
VERTEX
  8
0
 10
360.685743
 20
1207.977100
 42
0.037178
  0
VERTEX
  8
0
 10
360.378186
 20
1208.000000
 42
-0.445335
  0
VERTEX
  8
0
 10
359.846080
 20
1208.591174
 42
-0.004223
  0
VERTEX
  8
0
 10
360.582597
 20
1215.051252
 42
-0.005981
  0
VERTEX
  8
0
 10
361.949791
 20
1225.198589
 42
-0.000879
  0
VERTEX
  8
0
 10
365.000743
 20
1245.712152
 42
0.000449
  0
VERTEX
  8
0
 10
366.917152
 20
1258.521790
 42
0.000714
  0
VERTEX
  8
0
 10
368.531468
 20
1269.486413
 42
0.000138
  0
VERTEX
  8
0
 10
369.938707
 20
1279.158836
 42
0.036066
  0
VERTEX
  8
0
 10
370.000000
 20
1280.007465
 42
-0.261680
  0
VERTEX
  8
0
 10
370.228999
 20
1280.415059
 42
-0.099647
  0
VERTEX
  8
0
 10
370.863301
 20
1280.645443
 42
-0.058356
  0
VERTEX
  8
0
 10
371.882573
 20
1280.679270
 42
-0.024257
  0
VERTEX
  8
0
 10
373.250000
 20
1280.497842
 42
0.007502
  0
VERTEX
  8
0
 10
375.858056
 20
1280.062472
 42
0.000013
  0
VERTEX
  8
0
 10
421.023148
 20
1273.218943
 42
0.000098
  0
VERTEX
  8
0
 10
471.730575
 20
1265.547093
 42
0.000061
  0
SEQEND
  0
POLYLINE
  8
0
 66
1
 70
1
  0
VERTEX
  8
0
 10
710.083472
 20
1227.451344
 42
0.064379
  0
VERTEX
  8
0
 10
704.833123
 20
1223.477623
 42
0.100334
  0
VERTEX
  8
0
 10
701.666864
 20
1218.792898
 42
0.053615
  0
VERTEX
  8
0
 10
699.453302
 20
1211.299159
 42
0.007907
  0
VERTEX
  8
0
 10
696.865460
 20
1195.688441
 42
0.007655
  0
VERTEX
  8
0
 10
694.831745
 20
1180.505752
 42
0.033201
  0
VERTEX
  8
0
 10
694.364459
 20
1171.435005
 42
0.056399
  0
VERTEX
  8
0
 10
695.183491
 20
1165.050439
 42
0.072583
  0
VERTEX
  8
0
 10
697.403878
 20
1159.573808
 42
0.145973
  0
VERTEX
  8
0
 10
704.689177
 20
1152.775870
 42
0.089561
  0
VERTEX
  8
0
 10
716.053830
 20
1149.480081
 42
0.090836
  0
VERTEX
  8
0
 10
727.701930
 20
1150.385323
 42
0.156942
  0
VERTEX
  8
0
 10
735.805756
 20
1155.580516
 42
0.053115
  0
VERTEX
  8
0
 10
738.139506
 20
1159.117495
 42
0.032953
  0
VERTEX
  8
0
 10
740.130123
 20
1163.682123
 42
0.030366
  0
VERTEX
  8
0
 10
741.667747
 20
1168.937504
 42
0.026739
  0
VERTEX
  8
0
 10
742.636985
 20
1174.568402
 42
0.000000
  0
VERTEX
  8
0
 10
743.259001
 20
1179.860785
 42
0.000000
  0
VERTEX
  8
0
 10
739.879500
 20
1180.446567
 42
0.006589
  0
VERTEX
  8
0
 10
736.081885
 20
1181.053389
 42
0.001605
  0
VERTEX
  8
0
 10
729.801971
 20
1181.951581
 42
0.000725
  0
VERTEX
  8
0
 10
723.239375
 20
1182.859019
 42
0.027394
  0
VERTEX
  8
0
 10
721.750000
 20
1182.980191
 42
0.328454
  0
VERTEX
  8
0
 10
721.457409
 20
1182.776433
 42
0.031995
  0
VERTEX
  8
0
 10
721.218674
 20
1181.892619
 42
0.030766
  0
VERTEX
  8
0
 10
721.050684
 20
1180.686048
 42
0.018837
  0
VERTEX
  8
0
 10
720.994423
 20
1179.250000
 42
-0.035074
  0
VERTEX
  8
0
 10
720.702955
 20
1175.186582
 42
-0.043618
  0
VERTEX
  8
0
 10
719.843761
 20
1171.498926
 42
-0.049307
  0
VERTEX
  8
0
 10
718.646071
 20
1168.777752
 42
-0.270749
  0
VERTEX
  8
0
 10
717.315064
 20
1168.000000
 42
-0.225561
  0
VERTEX
  8
0
 10
716.529459
 20
1168.373403
 42
-0.141805
  0
VERTEX
  8
0
 10
716.124496
 20
1169.326789
 42
-0.046746
  0
VERTEX
  8
0
 10
716.072430
 20
1171.290058
 42
-0.005865
  0
VERTEX
  8
0
 10
716.406958
 20
1175.535193
 42
-0.006428
  0
VERTEX
  8
0
 10
717.074748
 20
1181.981317
 42
-0.076516
  0
VERTEX
  8
0
 10
717.739129
 20
1184.392983
 42
-0.228210
  0
VERTEX
  8
0
 10
718.879188
 20
1185.354233
 42
-0.109111
  0
VERTEX
  8
0
 10
720.840453
 20
1185.421748
 42
0.010554
  0
VERTEX
  8
0
 10
728.701121
 20
1184.138324
 42
0.012873
  0
VERTEX
  8
0
 10
736.105521
 20
1183.283115
 42
0.005659
  0
VERTEX
  8
0
 10
742.616229
 20
1182.774717
 42
0.346811
  0
VERTEX
  8
0
 10
743.517274
 20
1183.392547
 42
0.037001
  0
VERTEX
  8
0
 10
744.414618
 20
1187.257825
 42
0.004620
  0
VERTEX
  8
0
 10
745.659100
 20
1195.785797
 42
0.005110
  0
VERTEX
  8
0
 10
746.735613
 20
1204.322121
 42
0.028815
  0
VERTEX
  8
0
 10
747.000000
 20
1208.905984
 42
0.099462
  0
VERTEX
  8
0
 10
745.219430
 20
1217.768445
 42
0.123533
  0
VERTEX
  8
0
 10
740.197504
 20
1224.480219
 42
0.108097
  0
VERTEX
  8
0
 10
732.005113
 20
1228.613385
 42
0.063517
  0
VERTEX
  8
0
 10
721.068499
 20
1229.987955
 42
0.017538
  0
VERTEX
  8
0
 10
717.576046
 20
1229.859001
 42
0.038759
  0
VERTEX
  8
0
 10
714.940097
 20
1229.462077
 42
0.043809
  0
VERTEX
  8
0
 10
712.603400
 20
1228.701959
 42
0.029315
  0
SEQEND
  0
POLYLINE
  8
0
 66
1
 70
1
  0
VERTEX
  8
0
 10
734.269694
 20
1223.590885
 42
-0.058943
  0
VERTEX
  8
0
 10
737.465420
 20
1221.536703
 42
-0.063236
  0
VERTEX
  8
0
 10
740.008988
 20
1218.836046
 42
-0.063557
  0
VERTEX
  8
0
 10
741.787059
 20
1215.598298
 42
-0.060556
  0
VERTEX
  8
0
 10
742.731605
 20
1211.964366
 42
-0.052536
  0
VERTEX
  8
0
 10
742.856616
 20
1207.556940
 42
-0.008994
  0
VERTEX
  8
0
 10
742.063937
 20
1199.203392
 42
-0.006426
  0
VERTEX
  8
0
 10
740.995485
 20
1190.730999
 42
-0.104193
  0
VERTEX
  8
0
 10
740.026749
 20
1188.043280
 42
-0.227756
  0
VERTEX
  8
0
 10
739.180130
 20
1187.501401
 42
-0.038524
  0
VERTEX
  8
0
 10
737.208137
 20
1187.413655
 42
-0.023539
  0
VERTEX
  8
0
 10
734.027696
 20
1187.667397
 42
-0.005201
  0
VERTEX
  8
0
 10
728.608185
 20
1188.415014
 42
0.004259
  0
VERTEX
  8
0
 10
718.054005
 20
1189.891220
 42
0.134996
  0
VERTEX
  8
0
 10
715.486361
 20
1189.534829
 42
0.243505
  0
VERTEX
  8
0
 10
714.118534
 20
1187.866662
 42
0.017019
  0
VERTEX
  8
0
 10
713.030228
 20
1181.712946
 42
0.013745
  0
VERTEX
  8
0
 10
712.175376
 20
1174.214836
 42
0.047485
  0
VERTEX
  8
0
 10
712.218693
 20
1169.331245
 42
0.082482
  0
VERTEX
  8
0
 10
713.082873
 20
1166.188705
 42
0.171039
  0
VERTEX
  8
0
 10
714.834423
 20
1164.388690
 42
0.137685
  0
VERTEX
  8
0
 10
718.194460
 20
1163.754343
 42
0.174207
  0
VERTEX
  8
0
 10
721.045649
 20
1165.068882
 42
0.114799
  0
VERTEX
  8
0
 10
723.226894
 20
1168.507824
 42
0.044550
  0
VERTEX
  8
0
 10
724.617221
 20
1174.007695
 42
0.000000
  0
VERTEX
  8
0
 10
725.291649
 20
1178.225336
 42
0.000000
  0
VERTEX
  8
0
 10
731.395825
 20
1177.544120
 42
-0.009254
  0
VERTEX
  8
0
 10
733.786106
 20
1177.232483
 42
-0.012786
  0
VERTEX
  8
0
 10
735.916793
 20
1176.858565
 42
-0.009390
  0
VERTEX
  8
0
 10
737.662629
 20
1176.471694
 42
-0.134654
  0
VERTEX
  8
0
 10
738.214535
 20
1176.166917
 42
-0.253468
  0
VERTEX
  8
0
 10
738.672113
 20
1174.698446
 42
-0.012752
  0
VERTEX
  8
0
 10
737.538109
 20
1169.625324
 42
-0.020652
  0
VERTEX
  8
0
 10
736.033891
 20
1164.523527
 42
-0.050474
  0
VERTEX
  8
0
 10
734.407221
 20
1160.966117
 42
-0.050451
  0
VERTEX
  8
0
 10
731.717470
 20
1157.281347
 42
-0.095057
  0
VERTEX
  8
0
 10
728.796285
 20
1155.061193
 42
-0.084297
  0
VERTEX
  8
0
 10
725.017420
 20
1153.924710
 42
-0.033194
  0
VERTEX
  8
0
 10
719.574378
 20
1153.610946
 42
-0.040738
  0
VERTEX
  8
0
 10
712.771509
 20
1154.226336
 42
-0.069867
  0
VERTEX
  8
0
 10
707.358990
 20
1155.967004
 42
-0.081441
  0
VERTEX
  8
0
 10
703.210063
 20
1158.886483
 42
-0.079511
  0
VERTEX
  8
0
 10
700.170337
 20
1163.000000
 42
-0.080716
  0
VERTEX
  8
0
 10
698.644519
 20
1167.656867
 42
-0.047963
  0
VERTEX
  8
0
 10
698.295387
 20
1173.499055
 42
-0.024943
  0
VERTEX
  8
0
 10
699.063724
 20
1182.406997
 42
-0.004485
  0
VERTEX
  8
0
 10
701.468833
 20
1198.890640
 42
-0.009780
  0
VERTEX
  8
0
 10
703.533443
 20
1210.676667
 42
-0.049666
  0
VERTEX
  8
0
 10
705.451380
 20
1217.052017
 42
-0.088867
  0
VERTEX
  8
0
 10
708.003743
 20
1221.045092
 42
-0.082067
  0
VERTEX
  8
0
 10
711.847806
 20
1224.034756
 42
-0.092893
  0
VERTEX
  8
0
 10
716.277939
 20
1225.463599
 42
-0.036650
  0
VERTEX
  8
0
 10
722.700260
 20
1225.807346
 42
-0.036751
  0
VERTEX
  8
0
 10
729.271379
 20
1225.192728
 42
-0.071826
  0
SEQEND
  0
POLYLINE
  8
0
 66
1
 70
1
  0
VERTEX
  8
0
 10
771.540206
 20
1214.750000
 42
0.009127
  0
VERTEX
  8
0
 10
771.303770
 20
1208.124020
 42
0.002278
  0
VERTEX
  8
0
 10
771.164452
 20
1197.290132
 42
0.002327
  0
VERTEX
  8
0
 10
771.119210
 20
1184.892797
 42
0.002337
  0
VERTEX
  8
0
 10
771.189512
 20
1172.514279
 42
0.000000
  0
VERTEX
  8
0
 10
771.500000
 20
1142.528558
 42
0.000000
  0
VERTEX
  8
0
 10
784.810729
 20
1140.658341
 42
0.002796
  0
VERTEX
  8
0
 10
789.939042
 20
1139.967010
 42
0.004507
  0
VERTEX
  8
0
 10
794.314989
 20
1139.442058
 42
0.001016
  0
VERTEX
  8
0
 10
798.141758
 20
1139.025812
 42
0.227959
  0
VERTEX
  8
0
 10
798.473993
 20
1139.144062
 42
0.127457
  0
VERTEX
  8
0
 10
799.017692
 20
1140.078320
 42
0.000046
  0
VERTEX
  8
0
 10
809.936231
 20
1179.013109
 42
0.000083
  0
VERTEX
  8
0
 10
820.732223
 20
1217.549292
 42
0.068352
  0
VERTEX
  8
0
 10
821.000000
 20
1219.498946
 42
0.366775
  0
VERTEX
  8
0
 10
820.130555
 20
1220.524757
 42
0.004620
  0
VERTEX
  8
0
 10
811.043570
 20
1221.948312
 42
0.005595
  0
VERTEX
  8
0
 10
802.035350
 20
1223.171541
 42
0.226513
  0
VERTEX
  8
0
 10
800.202121
 20
1222.560499
 42
0.130235
  0
VERTEX
  8
0
 10
799.835414
 20
1221.954996
 42
0.001781
  0
VERTEX
  8
0
 10
798.622094
 20
1217.766624
 42
0.004891
  0
VERTEX
  8
0
 10
797.274568
 20
1212.871478
 42
0.003181
  0
VERTEX
  8
0
 10
795.809264
 20
1207.191712
 42
0.000000
  0
VERTEX
  8
0
 10
792.118529
 20
1192.500000
 42
0.000000
  0
VERTEX
  8
0
 10
792.309264
 20
1208.478198
 42
0.000000
  0
VERTEX
  8
0
 10
792.500000
 20
1224.456395
 42
0.000000
  0
VERTEX
  8
0
 10
784.500000
 20
1225.653080
 42
0.006905
  0
VERTEX
  8
0
 10
775.386729
 20
1226.887876
 42
0.207995
  0
VERTEX
  8
0
 10
773.218403
 20
1226.242522
 42
0.200621
  0
VERTEX
  8
0
 10
772.171729
 20
1224.209222
 42
0.006371
  0
SEQEND
  0
POLYLINE
  8
0
 66
1
 70
1
  0
VERTEX
  8
0
 10
784.391821
 20
1221.501519
 42
0.000000
  0
VERTEX
  8
0
 10
789.283643
 20
1220.834919
 42
0.000000
  0
VERTEX
  8
0
 10
788.651558
 20
1209.667460
 42
0.001137
  0
VERTEX
  8
0
 10
788.362407
 20
1204.344332
 42
0.000531
  0
VERTEX
  8
0
 10
788.010856
 20
1197.447629
 42
0.000526
  0
VERTEX
  8
0
 10
787.657420
 20
1190.212994
 42
0.000737
  0
VERTEX
  8
0
 10
787.358055
 20
1183.750000
 42
0.001999
  0
VERTEX
  8
0
 10
786.967260
 20
1174.180244
 42
0.032628
  0
VERTEX
  8
0
 10
787.058492
 20
1170.970775
 42
0.141367
  0
VERTEX
  8
0
 10
787.614577
 20
1169.556079
 42
0.232930
  0
VERTEX
  8
0
 10
788.743473
 20
1169.000000
 42
0.278833
  0
VERTEX
  8
0
 10
790.102956
 20
1169.822049
 42
0.041863
  0
VERTEX
  8
0
 10
791.396893
 20
1172.887480
 42
0.017864
  0
VERTEX
  8
0
 10
793.112561
 20
1178.853537
 42
0.001867
  0
VERTEX
  8
0
 10
796.580591
 20
1192.991025
 42
-0.001372
  0
VERTEX
  8
0
 10
798.844168
 20
1202.258192
 42
-0.002141
  0
VERTEX
  8
0
 10
800.849633
 20
1210.225376
 42
-0.000587
  0
VERTEX
  8
0
 10
802.634577
 20
1217.156526
 42
-0.075230
  0
VERTEX
  8
0
 10
802.982468
 20
1217.971633
 42
-0.279128
  0
VERTEX
  8
0
 10
804.040211
 20
1218.512691
 42
-0.008506
  0
VERTEX
  8
0
 10
809.147159
 20
1218.059087
 42
-0.011127
  0
VERTEX
  8
0
 10
814.136695
 20
1217.417664
 42
-0.160172
  0
VERTEX
  8
0
 10
815.710829
 20
1216.622504
 42
-0.267029
  0
VERTEX
  8
0
 10
815.823530
 20
1216.204768
 42
-0.000222
  0
VERTEX
  8
0
 10
813.005847
 20
1205.561867
 42
-0.002192
  0
VERTEX
  8
0
 10
809.790323
 20
1193.649070
 42
-0.001330
  0
VERTEX
  8
0
 10
805.887409
 20
1179.584241
 42
-0.001515
  0
VERTEX
  8
0
 10
800.388531
 20
1160.196917
 42
-0.009139
  0
VERTEX
  8
0
 10
797.319721
 20
1150.194196
 42
-0.008590
  0
VERTEX
  8
0
 10
795.171255
 20
1143.985406
 42
-0.390483
  0
VERTEX
  8
0
 10
794.063028
 20
1143.414178
 42
0.026198
  0
VERTEX
  8
0
 10
793.043352
 20
1143.638177
 42
0.002217
  0
VERTEX
  8
0
 10
790.388827
 20
1144.064993
 42
0.002937
  0
VERTEX
  8
0
 10
787.215195
 20
1144.541768
 42
0.002268
  0
VERTEX
  8
0
 10
783.750000
 20
1145.025511
 42
0.000000
  0
VERTEX
  8
0
 10
775.000000
 20
1146.206576
 42
0.000000
  0
VERTEX
  8
0
 10
775.003331
 20
1168.853288
 42
-0.002419
  0
VERTEX
  8
0
 10
775.052311
 20
1178.677415
 42
-0.001821
  0
VERTEX
  8
0
 10
775.197782
 20
1189.479222
 42
-0.001841
  0
VERTEX
  8
0
 10
775.408955
 20
1199.635232
 42
-0.004245
  0
VERTEX
  8
0
 10
775.660612
 20
1207.267469
 42
-0.002701
  0
VERTEX
  8
0
 10
776.081454
 20
1216.243168
 42
-0.023311
  0
VERTEX
  8
0
 10
776.477027
 20
1220.231182
 42
-0.064544
  0
VERTEX
  8
0
 10
777.023851
 20
1222.173795
 42
-0.374459
  0
VERTEX
  8
0
 10
777.907281
 20
1222.601528
 42
0.020419
  0
VERTEX
  8
0
 10
778.816492
 20
1222.393571
 42
0.003997
  0
VERTEX
  8
0
 10
780.469111
 20
1222.099619
 42
0.004236
  0
VERTEX
  8
0
 10
782.402193
 20
1221.788524
 42
0.003914
  0
SEQEND
  0
POLYLINE
  8
0
 66
1
 70
1
  0
VERTEX
  8
0
 10
395.873755
 20
1164.963183
 42
0.033782
  0
VERTEX
  8
0
 10
383.022203
 20
1162.573919
 42
0.042909
  0
VERTEX
  8
0
 10
371.637828
 20
1158.583742
 42
0.046150
  0
VERTEX
  8
0
 10
361.802377
 20
1153.015934
 42
0.051844
  0
VERTEX
  8
0
 10
353.566760
 20
1145.923622
 42
0.046835
  0
VERTEX
  8
0
 10
346.381410
 20
1136.715943
 42
0.049770
  0
VERTEX
  8
0
 10
341.203021
 20
1126.511267
 42
0.046633
  0
VERTEX
  8
0
 10
337.904023
 20
1114.904792
 42
0.033424
  0
VERTEX
  8
0
 10
336.329673
 20
1101.500000
 42
0.023395
  0
VERTEX
  8
0
 10
336.299543
 20
1092.387871
 42
0.042118
  0
VERTEX
  8
0
 10
337.250213
 20
1084.981490
 42
0.043424
  0
VERTEX
  8
0
 10
339.401775
 20
1077.992385
 42
0.026673
  0
VERTEX
  8
0
 10
343.063907
 20
1070.188530
 42
0.000000
  0
VERTEX
  8
0
 10
346.983479
 20
1062.877060
 42
0.000000
  0
VERTEX
  8
0
 10
340.311392
 20
1063.188530
 42
0.000000
  0
VERTEX
  8
0
 10
333.639304
 20
1063.500000
 42
0.000000
  0
VERTEX
  8
0
 10
327.879382
 20
1025.500000
 42
0.000783
  0
VERTEX
  8
0
 10
325.667657
 20
1010.752733
 42
0.001186
  0
VERTEX
  8
0
 10
323.793891
 20
997.914435
 42
0.000437
  0
VERTEX
  8
0
 10
322.216084
 20
986.852855
 42
0.029348
  0
VERTEX
  8
0
 10
322.059730
 20
984.953397
 42
0.000000
  0
VERTEX
  8
0
 10
322.000000
 20
982.406795
 42
0.000000
  0
VERTEX
  8
0
 10
436.750000
 20
965.122152
 42
-0.000000
  0
VERTEX
  8
0
 10
485.577653
 20
957.767275
 42
-0.000000
  0
VERTEX
  8
0
 10
537.407792
 20
949.960073
 42
-0.000000
  0
VERTEX
  8
0
 10
584.802989
 20
942.820857
 42
-0.000001
  0
VERTEX
  8
0
 10
618.276525
 20
937.778614
 42
0.000913
  0
VERTEX
  8
0
 10
643.921851
 20
933.963392
 42
0.001506
  0
VERTEX
  8
0
 10
665.607349
 20
930.844421
 42
0.000114
  0
VERTEX
  8
0
 10
685.068539
 20
928.109687
 42
0.235404
  0
VERTEX
  8
0
 10
685.631443
 20
928.298109
 42
0.159192
  0
VERTEX
  8
0
 10
686.132549
 20
929.285425
 42
0.000068
  0
VERTEX
  8
0
 10
692.009068
 20
967.193910
 42
0.000272
  0
VERTEX
  8
0
 10
697.627626
 20
1003.601894
 42
0.036177
  0
VERTEX
  8
0
 10
697.987503
 20
1008.076819
 42
0.331460
  0
VERTEX
  8
0
 10
697.282575
 20
1009.039190
 42
0.021405
  0
VERTEX
  8
0
 10
693.714803
 20
1009.971753
 42
0.014768
  0
VERTEX
  8
0
 10
687.622214
 20
1011.101374
 42
0.002414
  0
VERTEX
  8
0
 10
675.750000
 20
1012.883132
 42
-0.001054
  0
VERTEX
  8
0
 10
667.097068
 20
1014.157706
 42
-0.001564
  0
VERTEX
  8
0
 10
659.521864
 20
1015.314095
 42
-0.000681
  0
VERTEX
  8
0
 10
653.052706
 20
1016.331384
 42
-0.031712
  0
VERTEX
  8
0
 10
651.749962
 20
1016.623713
 42
-0.238858
  0
VERTEX
  8
0
 10
651.141397
 20
1017.194151
 42
-0.199332
  0
VERTEX
  8
0
 10
651.181440
 20
1018.089156
 42
-0.055123
  0
VERTEX
  8
0
 10
652.146765
 20
1019.669487
 42
-0.006891
  0
VERTEX
  8
0
 10
654.652342
 20
1022.817400
 42
0.076393
  0
VERTEX
  8
0
 10
663.856176
 20
1038.398458
 42
0.061295
  0
VERTEX
  8
0
 10
668.843448
 20
1057.249834
 42
0.059285
  0
VERTEX
  8
0
 10
669.201310
 20
1077.393378
 42
0.061707
  0
VERTEX
  8
0
 10
664.787575
 20
1096.773428
 42
0.042693
  0
VERTEX
  8
0
 10
661.436429
 20
1104.032097
 42
0.050200
  0
VERTEX
  8
0
 10
657.048489
 20
1110.202290
 42
0.044039
  0
VERTEX
  8
0
 10
651.034758
 20
1115.967328
 42
0.023438
  0
VERTEX
  8
0
 10
642.693311
 20
1122.041516
 42
0.051125
  0
VERTEX
  8
0
 10
625.636033
 20
1130.929736
 42
0.038520
  0
VERTEX
  8
0
 10
605.431741
 20
1137.206375
 42
0.016938
  0
VERTEX
  8
0
 10
572.618354
 20
1143.528344
 42
0.001958
  0
VERTEX
  8
0
 10
498.500000
 20
1154.923150
 42
0.001370
  0
VERTEX
  8
0
 10
448.157555
 20
1162.320068
 42
0.011407
  0
VERTEX
  8
0
 10
425.272485
 20
1165.087307
 42
0.024799
  0
VERTEX
  8
0
 10
410.213013
 20
1165.809696
 42
0.028663
  0
SEQEND
  0
POLYLINE
  8
0
 66
1
 70
1
  0
VERTEX
  8
0
 10
427.008399
 20
1161.001808
 42
-0.012899
  0
VERTEX
  8
0
 10
441.047790
 20
1159.304026
 42
-0.000369
  0
VERTEX
  8
0
 10
500.776483
 20
1150.467403
 42
-0.000613
  0
VERTEX
  8
0
 10
558.170880
 20
1141.860902
 42
-0.006208
  0
VERTEX
  8
0
 10
582.000000
 20
1137.954567
 42
-0.009164
  0
VERTEX
  8
0
 10
594.360020
 20
1135.536096
 42
-0.009276
  0
VERTEX
  8
0
 10
606.572914
 20
1132.675174
 42
-0.009653
  0
VERTEX
  8
0
 10
617.307571
 20
1129.727811
 42
-0.025969
  0
VERTEX
  8
0
 10
624.770211
 20
1127.094758
 42
-0.029575
  0
VERTEX
  8
0
 10
633.854530
 20
1122.703669
 42
-0.024126
  0
VERTEX
  8
0
 10
643.019751
 20
1116.987731
 42
-0.024673
  0
VERTEX
  8
0
 10
650.905945
 20
1110.927509
 42
-0.061387
  0
VERTEX
  8
0
 10
655.823005
 20
1105.581522
 42
-0.061985
  0
VERTEX
  8
0
 10
660.231043
 20
1097.458644
 42
-0.035086
  0
VERTEX
  8
0
 10
663.579525
 20
1086.756939
 42
-0.034346
  0
VERTEX
  8
0
 10
665.486466
 20
1075.264554
 42
-0.045726
  0
VERTEX
  8
0
 10
665.532789
 20
1064.683449
 42
-0.037820
  0
VERTEX
  8
0
 10
663.032463
 20
1049.443537
 42
-0.051577
  0
VERTEX
  8
0
 10
658.376233
 20
1036.334062
 42
-0.057916
  0
VERTEX
  8
0
 10
651.706466
 20
1025.696743
 42
-0.073232
  0
VERTEX
  8
0
 10
643.212737
 20
1017.802358
 42
0.013112
  0
VERTEX
  8
0
 10
641.510981
 20
1016.564546
 42
0.025683
  0
VERTEX
  8
0
 10
640.236585
 20
1015.477036
 42
0.031971
  0
VERTEX
  8
0
 10
639.460630
 20
1014.642573
 42
0.532076
  0
VERTEX
  8
0
 10
639.552263
 20
1014.338605
 42
0.036299
  0
VERTEX
  8
0
 10
640.305914
 20
1014.164142
 42
0.000183
  0
VERTEX
  8
0
 10
647.959607
 20
1012.971743
 42
0.000829
  0
VERTEX
  8
0
 10
656.676201
 20
1011.631801
 42
0.000525
  0
VERTEX
  8
0
 10
666.842144
 20
1010.097215
 42
-0.000984
  0
VERTEX
  8
0
 10
676.961785
 20
1008.560107
 42
-0.001612
  0
VERTEX
  8
0
 10
685.527486
 20
1007.213492
 42
-0.000160
  0
VERTEX
  8
0
 10
693.179600
 20
1005.982704
 42
-0.178213
  0
VERTEX
  8
0
 10
693.460725
 20
1005.824523
 42
-0.216310
  0
VERTEX
  8
0
 10
693.591972
 20
1005.367238
 42
-0.000019
  0
VERTEX
  8
0
 10
688.248022
 20
969.174679
 42
-0.000034
  0
VERTEX
  8
0
 10
682.928452
 20
933.173652
 42
-0.110588
  0
VERTEX
  8
0
 10
682.607414
 20
932.338644
 42
-0.289990
  0
VERTEX
  8
0
 10
682.484837
 20
932.284056
 42
-0.000021
  0
VERTEX
  8
0
 10
670.928428
 20
933.978293
 42
-0.000685
  0
VERTEX
  8
0
 10
658.153726
 20
935.869560
 42
-0.000412
  0
VERTEX
  8
0
 10
643.000000
 20
938.147012
 42
0.000075
  0
VERTEX
  8
0
 10
619.830743
 20
941.645100
 42
0.000012
  0
VERTEX
  8
0
 10
574.472743
 20
948.485220
 42
0.000013
  0
VERTEX
  8
0
 10
521.035516
 20
956.540974
 42
0.000012
  0
VERTEX
  8
0
 10
465.183806
 20
964.957895
 42
-0.000201
  0
VERTEX
  8
0
 10
412.122148
 20
972.974916
 42
-0.000334
  0
VERTEX
  8
0
 10
367.393036
 20
979.781922
 42
-0.000008
  0
VERTEX
  8
0
 10
326.861942
 20
985.978376
 42
-0.159758
  0
VERTEX
  8
0
 10
326.510310
 20
986.156357
 42
-0.237142
  0
VERTEX
  8
0
 10
326.321096
 20
986.727870
 42
-0.000034
  0
VERTEX
  8
0
 10
331.637359
 20
1022.873350
 42
-0.000043
  0
VERTEX
  8
0
 10
336.946295
 20
1058.930171
 42
-0.172136
  0
VERTEX
  8
0
 10
337.323768
 20
1059.642646
 42
-0.223267
  0
VERTEX
  8
0
 10
337.488095
 20
1059.694079
 42
-0.000469
  0
VERTEX
  8
0
 10
340.190994
 20
1059.321618
 42
-0.003022
  0
VERTEX
  8
0
 10
343.244614
 20
1058.879076
 42
-0.001856
  0
VERTEX
  8
0
 10
346.837063
 20
1058.322608
 42
0.006066
  0
VERTEX
  8
0
 10
350.454504
 20
1057.793420
 42
0.009410
  0
VERTEX
  8
0
 10
353.588861
 20
1057.433574
 42
0.004257
  0
VERTEX
  8
0
 10
356.237746
 20
1057.202604
 42
0.219386
  0
VERTEX
  8
0
 10
356.710288
 20
1057.376955
 42
0.348546
  0
VERTEX
  8
0
 10
356.756496
 20
1057.778253
 42
0.012441
  0
VERTEX
  8
0
 10
355.846820
 20
1059.163693
 42
0.018141
  0
VERTEX
  8
0
 10
354.600398
 20
1060.830246
 42
0.011108
  0
VERTEX
  8
0
 10
353.017913
 20
1062.706559
 42
-0.047179
  0
VERTEX
  8
0
 10
347.521314
 20
1070.267871
 42
-0.044382
  0
VERTEX
  8
0
 10
343.408944
 20
1078.878052
 42
-0.044091
  0
VERTEX
  8
0
 10
340.859013
 20
1088.136575
 42
-0.045188
  0
VERTEX
  8
0
 10
340.000000
 20
1097.622131
 42
-0.057006
  0
VERTEX
  8
0
 10
342.059380
 20
1115.626264
 42
-0.067597
  0
VERTEX
  8
0
 10
348.130056
 20
1131.620060
 42
-0.072090
  0
VERTEX
  8
0
 10
357.824963
 20
1144.595621
 42
-0.079632
  0
VERTEX
  8
0
 10
370.512102
 20
1153.773387
 42
-0.050857
  0
VERTEX
  8
0
 10
381.758728
 20
1158.079970
 42
-0.034218
  0
VERTEX
  8
0
 10
395.260974
 20
1160.756089
 42
-0.030957
  0
VERTEX
  8
0
 10
410.505504
 20
1161.753889
 42
-0.024508
  0
SEQEND
  0
POLYLINE
  8
0
 66
1
 70
1
  0
VERTEX
  8
0
 10
742.125653
 20
1158.486659
 42
0.004898
  0
VERTEX
  8
0
 10
741.104390
 20
1151.125281
 42
0.076167
  0
VERTEX
  8
0
 10
741.165333
 20
1148.584699
 42
0.226636
  0
VERTEX
  8
0
 10
742.089157
 20
1147.295484
 42
0.084286
  0
VERTEX
  8
0
 10
744.250000
 20
1146.542972
 42
0.003726
  0
VERTEX
  8
0
 10
751.378646
 20
1145.396293
 42
0.008538
  0
VERTEX
  8
0
 10
756.769438
 20
1144.664290
 42
0.005344
  0
VERTEX
  8
0
 10
760.919593
 20
1144.217679
 42
0.163968
  0
VERTEX
  8
0
 10
761.919508
 20
1144.450253
 42
0.189421
  0
VERTEX
  8
0
 10
762.272978
 20
1144.922220
 42
0.011761
  0
VERTEX
  8
0
 10
762.704612
 20
1146.649415
 42
0.016088
  0
VERTEX
  8
0
 10
763.114088
 20
1148.787844
 42
0.011148
  0
VERTEX
  8
0
 10
763.444792
 20
1151.227623
 42
-0.003139
  0
VERTEX
  8
0
 10
763.753902
 20
1153.819348
 42
-0.003093
  0
VERTEX
  8
0
 10
764.096976
 20
1156.419810
 42
-0.003039
  0
VERTEX
  8
0
 10
764.425484
 20
1158.694389
 42
-0.011833
  0
VERTEX
  8
0
 10
764.670517
 20
1160.095133
 42
0.103925
  0
VERTEX
  8
0
 10
764.654619
 20
1161.644100
 42
0.240762
  0
VERTEX
  8
0
 10
763.935106
 20
1162.516060
 42
0.065982
  0
VERTEX
  8
0
 10
762.021690
 20
1163.059221
 42
0.003642
  0
VERTEX
  8
0
 10
755.844027
 20
1163.914272
 42
-0.002383
  0
VERTEX
  8
0
 10
752.146815
 20
1164.416513
 42
-0.003104
  0
VERTEX
  8
0
 10
748.767656
 20
1164.913371
 42
-0.002314
  0
VERTEX
  8
0
 10
745.941718
 20
1165.360218
 42
-0.028403
  0
VERTEX
  8
0
 10
744.875653
 20
1165.596646
 42
0.243798
  0
VERTEX
  8
0
 10
744.007714
 20
1165.417784
 42
0.130798
  0
VERTEX
  8
0
 10
743.347271
 20
1164.510404
 42
0.047824
  0
VERTEX
  8
0
 10
742.786805
 20
1162.512391
 42
0.007565
  0
SEQEND
  0
POLYLINE
  8
0
 66
1
 70
1
  0
VERTEX
  8
0
 10
759.374818
 20
1158.961209
 42
-0.173373
  0
VERTEX
  8
0
 10
759.675959
 20
1158.382770
 42
-0.025416
  0
VERTEX
  8
0
 10
759.791119
 20
1157.044590
 42
-0.026202
  0
VERTEX
  8
0
 10
759.762322
 20
1155.386505
 42
-0.019776
  0
VERTEX
  8
0
 10
759.563545
 20
1153.575182
 42
-0.041879
  0
VERTEX
  8
0
 10
758.830013
 20
1150.478070
 42
-0.222624
  0
VERTEX
  8
0
 10
757.669162
 20
1149.242853
 42
-0.120015
  0
VERTEX
  8
0
 10
755.513651
 20
1148.940342
 42
-0.009190
  0
VERTEX
  8
0
 10
749.649276
 20
1149.634594
 42
0.000000
  0
VERTEX
  8
0
 10
745.019410
 20
1150.269188
 42
0.000000
  0
VERTEX
  8
0
 10
745.593078
 20
1154.384594
 42
-0.012182
  0
VERTEX
  8
0
 10
746.337811
 20
1158.916761
 42
-0.171554
  0
VERTEX
  8
0
 10
747.154162
 20
1160.319588
 42
-0.192054
  0
VERTEX
  8
0
 10
748.632159
 20
1160.816741
 42
-0.015933
  0
VERTEX
  8
0
 10
752.746400
 20
1160.458433
 42
-0.011188
  0
VERTEX
  8
0
 10
755.013772
 20
1160.136344
 42
-0.014668
  0
VERTEX
  8
0
 10
757.066858
 20
1159.735492
 42
-0.012169
  0
VERTEX
  8
0
 10
758.743484
 20
1159.313644
 42
-0.119727
  0
SEQEND
  0
POLYLINE
  8
0
 66
1
 70
1
  0
VERTEX
  8
0
 10
809.673381
 20
1153.750000
 42
0.022462
  0
VERTEX
  8
0
 10
809.422292
 20
1152.458846
 42
0.004255
  0
VERTEX
  8
0
 10
809.090758
 20
1150.082939
 42
0.004537
  0
VERTEX
  8
0
 10
808.752103
 20
1147.299253
 42
0.004150
  0
VERTEX
  8
0
 10
808.453102
 20
1144.425962
 42
0.000000
  0
VERTEX
  8
0
 10
807.776257
 20
1137.351923
 42
0.000000
  0
VERTEX
  8
0
 10
817.936008
 20
1136.057174
 42
0.006371
  0
VERTEX
  8
0
 10
821.874992
 20
1135.606122
 42
0.009800
  0
VERTEX
  8
0
 10
825.294776
 20
1135.326202
 42
0.004697
  0
VERTEX
  8
0
 10
828.174017
 20
1135.174389
 42
0.210186
  0
VERTEX
  8
0
 10
828.720251
 20
1135.386917
 42
0.157512
  0
VERTEX
  8
0
 10
829.535988
 20
1136.981179
 42
0.004865
  0
VERTEX
  8
0
 10
830.656719
 20
1144.359001
 42
0.003602
  0
VERTEX
  8
0
 10
831.673865
 20
1151.914500
 42
0.253210
  0
VERTEX
  8
0
 10
831.229530
 20
1153.062204
 42
0.139472
  0
VERTEX
  8
0
 10
830.233123
 20
1153.517084
 42
0.001287
  0
VERTEX
  8
0
 10
822.124827
 20
1154.730367
 42
0.003717
  0
VERTEX
  8
0
 10
814.595640
 20
1155.780070
 42
0.032785
  0
VERTEX
  8
0
 10
811.245072
 20
1156.000000
 42
0.179368
  0
VERTEX
  8
0
 10
810.811797
 20
1155.839402
 42
0.062866
  0
VERTEX
  8
0
 10
810.359232
 20
1155.339062
 42
0.052580
  0
VERTEX
  8
0
 10
809.957121
 20
1154.611111
 42
0.040678
  0
SEQEND
  0
POLYLINE
  8
0
 66
1
 70
1
  0
VERTEX
  8
0
 10
826.779565
 20
1149.553768
 42
-0.203759
  0
VERTEX
  8
0
 10
826.923207
 20
1149.197639
 42
-0.007889
  0
VERTEX
  8
0
 10
826.873332
 20
1147.748767
 42
-0.012962
  0
VERTEX
  8
0
 10
826.739990
 20
1146.000169
 42
-0.008662
  0
VERTEX
  8
0
 10
826.500950
 20
1144.006904
 42
-0.009572
  0
VERTEX
  8
0
 10
826.001913
 20
1140.830233
 42
-0.113747
  0
VERTEX
  8
0
 10
825.518288
 20
1139.691072
 42
-0.232300
  0
VERTEX
  8
0
 10
824.713015
 20
1139.265382
 42
-0.054478
  0
VERTEX
  8
0
 10
823.148306
 20
1139.389352
 42
0.004214
  0
VERTEX
  8
0
 10
821.835735
 20
1139.627501
 42
0.001638
  0
VERTEX
  8
0
 10
820.015725
 20
1139.935761
 42
0.001621
  0
VERTEX
  8
0
 10
818.042235
 20
1140.256800
 42
0.002009
  0
VERTEX
  8
0
 10
816.203097
 20
1140.542294
 42
0.000000
  0
VERTEX
  8
0
 10
811.906193
 20
1141.191644
 42
0.000000
  0
VERTEX
  8
0
 10
812.580511
 20
1145.845822
 42
-0.004822
  0
VERTEX
  8
0
 10
812.863043
 20
1147.671613
 42
-0.006636
  0
VERTEX
  8
0
 10
813.154474
 20
1149.306133
 42
-0.004410
  0
VERTEX
  8
0
 10
813.428426
 20
1150.667822
 42
-0.076679
  0
VERTEX
  8
0
 10
813.587514
 20
1151.089948
 42
-0.298461
  0
VERTEX
  8
0
 10
814.304745
 20
1151.460832
 42
-0.003268
  0
VERTEX
  8
0
 10
820.035192
 20
1150.831475
 42
-0.004652
  0
VERTEX
  8
0
 10
825.619485
 20
1150.128479
 42
-0.164168
  0
SEQEND
  0
POLYLINE
  8
0
 66
1
 70
1
  0
VERTEX
  8
0
 10
375.000000
 20
941.535642
 42
0.034195
  0
VERTEX
  8
0
 10
360.390521
 20
937.802150
 42
0.040724
  0
VERTEX
  8
0
 10
347.292014
 20
932.264737
 42
0.041719
  0
VERTEX
  8
0
 10
335.527774
 20
924.810948
 42
0.039196
  0
VERTEX
  8
0
 10
324.897495
 20
915.364528
 42
0.039423
  0
VERTEX
  8
0
 10
315.774366
 20
904.246047
 42
0.041557
  0
VERTEX
  8
0
 10
308.688717
 20
892.020515
 42
0.039081
  0
VERTEX
  8
0
 10
303.394250
 20
878.126755
 42
0.028354
  0
VERTEX
  8
0
 10
299.630797
 20
862.000000
 42
0.031398
  0
VERTEX
  8
0
 10
297.582865
 20
843.422673
 42
0.041739
  0
VERTEX
  8
0
 10
298.201185
 20
826.448076
 42
0.044668
  0
VERTEX
  8
0
 10
301.528479
 20
810.769419
 42
0.045796
  0
VERTEX
  8
0
 10
307.570085
 20
796.068208
 42
0.057156
  0
VERTEX
  8
0
 10
318.933586
 20
779.301573
 42
0.057445
  0
VERTEX
  8
0
 10
333.780585
 20
765.574805
 42
0.054942
  0
VERTEX
  8
0
 10
351.986760
 20
755.110082
 42
0.044993
  0
VERTEX
  8
0
 10
373.292605
 20
748.002798
 42
0.020530
  0
VERTEX
  8
0
 10
391.790134
 20
744.426267
 42
0.000968
  0
VERTEX
  8
0
 10
454.558862
 20
735.067748
 42
0.000852
  0
VERTEX
  8
0
 10
518.006124
 20
725.843997
 42
0.024256
  0
VERTEX
  8
0
 10
534.500000
 20
724.286348
 42
0.033981
  0
VERTEX
  8
0
 10
552.818099
 20
724.694518
 42
0.043479
  0
VERTEX
  8
0
 10
569.421667
 20
727.666430
 42
0.046443
  0
VERTEX
  8
0
 10
584.339092
 20
733.227624
 42
0.049540
  0
VERTEX
  8
0
 10
597.631273
 20
741.352622
 42
0.086115
  0
VERTEX
  8
0
 10
612.768232
 20
757.557734
 42
0.056498
  0
VERTEX
  8
0
 10
624.287262
 20
780.424045
 42
0.051845
  0
VERTEX
  8
0
 10
631.214647
 20
807.534239
 42
0.047256
  0
VERTEX
  8
0
 10
632.718920
 20
836.361815
 42
0.018302
  0
VERTEX
  8
0
 10
631.857992
 20
847.249895
 42
0.028933
  0
VERTEX
  8
0
 10
630.243128
 20
856.471758
 42
0.031056
  0
VERTEX
  8
0
 10
627.680751
 20
864.956265
 42
0.026083
  0
VERTEX
  8
0
 10
623.956623
 20
873.582634
 42
0.063908
  0
VERTEX
  8
0
 10
613.552486
 20
889.211187
 42
0.060463
  0
VERTEX
  8
0
 10
599.361972
 20
902.039675
 42
0.055314
  0
VERTEX
  8
0
 10
581.323849
 20
911.981610
 42
0.040193
  0
VERTEX
  8
0
 10
559.500000
 20
919.041660
 42
0.017783
  0
VERTEX
  8
0
 10
553.857192
 20
920.167730
 42
0.000708
  0
VERTEX
  8
0
 10
533.140625
 20
923.510810
 42
0.001248
  0
VERTEX
  8
0
 10
508.590764
 20
927.374016
 42
0.000882
  0
VERTEX
  8
0
 10
481.000000
 20
931.595380
 42
0.001968
  0
VERTEX
  8
0
 10
430.967104
 20
938.958752
 42
0.012171
  0
VERTEX
  8
0
 10
405.159483
 20
942.014186
 42
0.023940
  0
VERTEX
  8
0
 10
388.451228
 20
942.777153
 42
0.044929
  0
SEQEND
  0
POLYLINE
  8
0
 66
1
 70
1
  0
VERTEX
  8
0
 10
480.432958
 20
927.570129
 42
-0.000906
  0
VERTEX
  8
0
 10
507.811139
 20
923.376561
 42
-0.001279
  0
VERTEX
  8
0
 10
532.192804
 20
919.532830
 42
-0.000734
  0
VERTEX
  8
0
 10
552.756840
 20
916.206039
 42
-0.017926
  0
VERTEX
  8
0
 10
558.432958
 20
915.068994
 42
-0.025705
  0
VERTEX
  8
0
 10
573.385931
 20
910.688941
 42
-0.034793
  0
VERTEX
  8
0
 10
586.318749
 20
905.130766
 42
-0.037846
  0
VERTEX
  8
0
 10
597.450060
 20
898.288932
 42
-0.042138
  0
VERTEX
  8
0
 10
607.000000
 20
890.063826
 42
-0.021395
  0
VERTEX
  8
0
 10
612.905872
 20
883.501353
 42
-0.032807
  0
VERTEX
  8
0
 10
617.375983
 20
877.297941
 42
-0.033447
  0
VERTEX
  8
0
 10
620.936364
 20
870.654145
 42
-0.023442
  0
VERTEX
  8
0
 10
624.072493
 20
862.761215
 42
-0.022750
  0
VERTEX
  8
0
 10
626.683785
 20
853.875826
 42
-0.029892
  0
VERTEX
  8
0
 10
628.201695
 20
845.561591
 42
-0.026788
  0
VERTEX
  8
0
 10
628.815748
 20
836.444426
 42
-0.013787
  0
VERTEX
  8
0
 10
628.656829
 20
825.000000
 42
-0.045296
  0
VERTEX
  8
0
 10
624.657554
 20
794.875764
 42
-0.065046
  0
VERTEX
  8
0
 10
615.376814
 20
769.641376
 42
-0.074142
  0
VERTEX
  8
0
 10
601.138788
 20
750.127915
 42
-0.086844
  0
VERTEX
  8
0
 10
582.500000
 20
736.844617
 42
-0.023323
  0
VERTEX
  8
0
 10
572.577693
 20
732.657875
 42
-0.040313
  0
VERTEX
  8
0
 10
563.956216
 20
730.252623
 42
-0.034816
  0
VERTEX
  8
0
 10
554.230871
 20
729.061403
 42
-0.013074
  0
VERTEX
  8
0
 10
540.500000
 20
728.702548
 42
-0.013581
  0
VERTEX
  8
0
 10
527.555913
 20
729.054411
 42
-0.016864
  0
VERTEX
  8
0
 10
515.557470
 20
730.113744
 42
-0.006896
  0
VERTEX
  8
0
 10
497.457072
 20
732.582904
 42
-0.000558
  0
VERTEX
  8
0
 10
450.000000
 20
739.778925
 42
-0.001249
  0
VERTEX
  8
0
 10
419.068280
 20
744.583555
 42
-0.002434
  0
VERTEX
  8
0
 10
394.423616
 20
748.597740
 42
-0.001925
  0
VERTEX
  8
0
 10
375.297394
 20
751.884499
 42
-0.026972
  0
VERTEX
  8
0
 10
368.500000
 20
753.461481
 42
-0.054857
  0
VERTEX
  8
0
 10
345.422254
 20
762.988205
 42
-0.067800
  0
VERTEX
  8
0
 10
326.732014
 20
776.802403
 42
-0.070493
  0
VERTEX
  8
0
 10
312.957040
 20
794.619071
 42
-0.066379
  0
VERTEX
  8
0
 10
304.328662
 20
815.922045
 42
-0.013971
  0
VERTEX
  8
0
 10
303.083173
 20
821.380562
 42
-0.021355
  0
VERTEX
  8
0
 10
302.339919
 20
826.178483
 42
-0.018765
  0
VERTEX
  8
0
 10
301.951997
 20
831.449698
 42
-0.008073
  0
VERTEX
  8
0
 10
301.812470
 20
838.500000
 42
-0.062896
  0
VERTEX
  8
0
 10
305.935050
 20
872.127799
 42
-0.082403
  0
VERTEX
  8
0
 10
318.312236
 20
900.446483
 42
-0.088770
  0
VERTEX
  8
0
 10
338.276805
 20
921.724669
 42
-0.087206
  0
VERTEX
  8
0
 10
364.500000
 20
934.919762
 42
-0.047844
  0
VERTEX
  8
0
 10
380.663535
 20
938.139193
 42
-0.041098
  0
VERTEX
  8
0
 10
398.004456
 20
938.465933
 42
-0.019247
  0
VERTEX
  8
0
 10
424.313159
 20
935.778409
 42
-0.002472
  0
SEQEND
  0
POLYLINE
  8
0
 66
1
 70
1
  0
VERTEX
  8
0
 10
312.500000
 20
736.612403
 42
0.051584
  0
VERTEX
  8
0
 10
304.000946
 20
733.587513
 42
0.050213
  0
VERTEX
  8
0
 10
296.218017
 20
728.865452
 42
0.047757
  0
VERTEX
  8
0
 10
289.202870
 20
722.445467
 42
0.038909
  0
VERTEX
  8
0
 10
282.985700
 20
714.375706
 42
0.031233
  0
VERTEX
  8
0
 10
278.409580
 20
706.312876
 42
0.046167
  0
VERTEX
  8
0
 10
275.535012
 20
698.710770
 42
0.043429
  0
VERTEX
  8
0
 10
273.996240
 20
690.370043
 42
0.023913
  0
VERTEX
  8
0
 10
273.500000
 20
680.000000
 42
0.005449
  0
VERTEX
  8
0
 10
273.584799
 20
672.218505
 42
0.035446
  0
VERTEX
  8
0
 10
273.946883
 20
668.321935
 42
0.051157
  0
VERTEX
  8
0
 10
274.815187
 20
665.131795
 42
0.018618
  0
VERTEX
  8
0
 10
276.664521
 20
660.820391
 42
0.033745
  0
VERTEX
  8
0
 10
279.637935
 20
655.503373
 42
0.029923
  0
VERTEX
  8
0
 10
283.411018
 20
650.405906
 42
0.031013
  0
VERTEX
  8
0
 10
287.564574
 20
646.027286
 42
0.049087
  0
VERTEX
  8
0
 10
291.673861
 20
642.892548
 42
-0.012284
  0
VERTEX
  8
0
 10
292.962342
 20
642.051796
 42
-0.021214
  0
VERTEX
  8
0
 10
293.984787
 20
641.282359
 42
-0.017406
  0
VERTEX
  8
0
 10
294.718890
 20
640.635430
 42
-0.422506
  0
VERTEX
  8
0
 10
294.722368
 20
640.389034
 42
-0.224921
  0
VERTEX
  8
0
 10
294.367147
 20
640.262211
 42
-0.001506
  0
VERTEX
  8
0
 10
291.023088
 20
640.606421
 42
-0.005494
  0
VERTEX
  8
0
 10
287.169053
 20
641.057737
 42
-0.003436
  0
VERTEX
  8
0
 10
282.666667
 20
641.666667
 42
0.003652
  0
VERTEX
  8
0
 10
278.165860
 20
642.273399
 42
0.005859
  0
VERTEX
  8
0
 10
274.316993
 20
642.717884
 42
0.001632
  0
VERTEX
  8
0
 10
270.982591
 20
643.052417
 42
0.242453
  0
VERTEX
  8
0
 10
270.633936
 20
642.913565
 42
0.140519
  0
VERTEX
  8
0
 10
270.453555
 20
642.527271
 42
0.000096
  0
VERTEX
  8
0
 10
268.626211
 20
631.018360
 42
0.001130
  0
VERTEX
  8
0
 10
266.619159
 20
618.174392
 42
0.000689
  0
VERTEX
  8
0
 10
264.304462
 20
603.000000
 42
0.000000
  0
VERTEX
  8
0
 10
258.334848
 20
563.500000
 42
0.000000
  0
VERTEX
  8
0
 10
260.917424
 20
562.760313
 42
0.031243
  0
VERTEX
  8
0
 10
262.957524
 20
562.311639
 42
0.000177
  0
VERTEX
  8
0
 10
282.422618
 20
559.296856
 42
0.000760
  0
VERTEX
  8
0
 10
304.631472
 20
555.899714
 42
0.000483
  0
VERTEX
  8
0
 10
330.500000
 20
552.008529
 42
-0.000146
  0
VERTEX
  8
0
 10
362.690941
 20
547.188461
 42
-0.000066
  0
VERTEX
  8
0
 10
404.978828
 20
540.838192
 42
-0.000065
  0
VERTEX
  8
0
 10
449.661926
 20
534.116283
 42
-0.000089
  0
VERTEX
  8
0
 10
489.959840
 20
528.041390
 42
0.000505
  0
VERTEX
  8
0
 10
525.444094
 20
522.722341
 42
0.000837
  0
VERTEX
  8
0
 10
555.389603
 20
518.315641
 42
0.000035
  0
VERTEX
  8
0
 10
582.428332
 20
514.384845
 42
0.236701
  0
VERTEX
  8
0
 10
582.862235
 20
514.528902
 42
0.160477
  0
VERTEX
  8
0
 10
583.380511
 20
515.556419
 42
0.000070
  0
VERTEX
  8
0
 10
589.227934
 20
554.569150
 42
0.000050
  0
VERTEX
  8
0
 10
595.090376
 20
593.746436
 42
0.249810
  0
VERTEX
  8
0
 10
594.832959
 20
594.471455
 42
0.148359
  0
VERTEX
  8
0
 10
594.513353
 20
594.624058
 42
0.000007
  0
VERTEX
  8
0
 10
558.025932
 20
600.171325
 42
0.000311
  0
VERTEX
  8
0
 10
517.762195
 20
606.266556
 42
0.000187
  0
VERTEX
  8
0
 10
470.000000
 20
613.448314
 42
-0.000447
  0
VERTEX
  8
0
 10
404.601641
 20
623.316696
 42
-0.002435
  0
VERTEX
  8
0
 10
369.222650
 20
628.863973
 42
-0.001856
  0
VERTEX
  8
0
 10
346.010603
 20
632.707895
 42
-0.072532
  0
VERTEX
  8
0
 10
341.052350
 20
634.310566
 42
-0.096614
  0
VERTEX
  8
0
 10
336.091018
 20
638.082762
 42
-0.132145
  0
VERTEX
  8
0
 10
333.584313
 20
643.075214
 42
-0.149568
  0
VERTEX
  8
0
 10
334.068884
 20
648.194376
 42
-0.135619
  0
VERTEX
  8
0
 10
337.337612
 20
652.398232
 42
-0.141102
  0
VERTEX
  8
0
 10
341.617399
 20
654.008889
 42
-0.039568
  0
VERTEX
  8
0
 10
348.834094
 20
654.012468
 42
-0.016285
  0
VERTEX
  8
0
 10
361.651361
 20
652.581710
 42
-0.001659
  0
VERTEX
  8
0
 10
391.905819
 20
648.100359
 42
0.000676
  0
VERTEX
  8
0
 10
407.416434
 20
645.771723
 42
0.001119
  0
VERTEX
  8
0
 10
420.514835
 20
643.853283
 42
0.000061
  0
VERTEX
  8
0
 10
432.313001
 20
642.153717
 42
0.243827
  0
VERTEX
  8
0
 10
432.558125
 20
642.239153
 42
0.154524
  0
VERTEX
  8
0
 10
433.104201
 20
643.368239
 42
0.000084
  0
VERTEX
  8
0
 10
438.610794
 20
681.427676
 42
0.000061
  0
VERTEX
  8
0
 10
444.131598
 20
719.663506
 42
0.236432
  0
VERTEX
  8
0
 10
443.863410
 20
720.469924
 42
0.161507
  0
VERTEX
  8
0
 10
441.903114
 20
721.453756
 42
0.000124
  0
VERTEX
  8
0
 10
385.710413
 20
729.639443
 42
0.000459
  0
VERTEX
  8
0
 10
332.113153
 20
737.383264
 42
0.038985
  0
VERTEX
  8
0
 10
323.899328
 20
737.914955
 42
0.014844
  0
VERTEX
  8
0
 10
321.084267
 20
737.793904
 42
0.010278
  0
VERTEX
  8
0
 10
317.911053
 20
737.497249
 42
0.010375
  0
VERTEX
  8
0
 10
314.871534
 20
737.085885
 42
0.020899
  0
SEQEND
  0
POLYLINE
  8
0
 66
1
 70
1
  0
VERTEX
  8
0
 10
384.000000
 20
725.856717
 42
-0.000835
  0
VERTEX
  8
0
 10
404.942539
 20
722.682950
 42
-0.001366
  0
VERTEX
  8
0
 10
422.682973
 20
719.914507
 42
-0.000135
  0
VERTEX
  8
0
 10
438.538519
 20
717.391423
 42
-0.145960
  0
VERTEX
  8
0
 10
439.154800
 20
717.095282
 42
-0.249968
  0
VERTEX
  8
0
 10
439.609474
 20
715.822405
 42
-0.000214
  0
VERTEX
  8
0
 10
434.651565
 20
682.395825
 42
-0.000296
  0
VERTEX
  8
0
 10
429.699407
 20
649.240792
 42
-0.161454
  0
VERTEX
  8
0
 10
428.795465
 20
647.456864
 42
-0.231407
  0
VERTEX
  8
0
 10
428.121870
 20
647.228518
 42
-0.000411
  0
VERTEX
  8
0
 10
415.941581
 20
648.805973
 42
-0.002860
  0
VERTEX
  8
0
 10
402.204926
 20
650.676447
 42
-0.001752
  0
VERTEX
  8
0
 10
386.026911
 20
653.031527
 42
0.001850
  0
VERTEX
  8
0
 10
356.034034
 20
657.391642
 42
0.025842
  0
VERTEX
  8
0
 10
345.164530
 20
658.361462
 42
0.077768
  0
VERTEX
  8
0
 10
338.895575
 20
657.618859
 42
0.098664
  0
VERTEX
  8
0
 10
333.707790
 20
654.984788
 42
0.084814
  0
VERTEX
  8
0
 10
331.583961
 20
652.635593
 42
0.060254
  0
VERTEX
  8
0
 10
330.050849
 20
649.424783
 42
0.058615
  0
VERTEX
  8
0
 10
329.293679
 20
645.837446
 42
0.069201
  0
VERTEX
  8
0
 10
329.457443
 20
642.375156
 42
0.092331
  0
VERTEX
  8
0
 10
330.847703
 20
638.786334
 42
0.048251
  0
VERTEX
  8
0
 10
333.759445
 20
634.957338
 42
0.047328
  0
VERTEX
  8
0
 10
337.473362
 20
631.636163
 42
0.069913
  0
VERTEX
  8
0
 10
341.313576
 20
629.560902
 42
0.047917
  0
VERTEX
  8
0
 10
344.534884
 20
628.703671
 42
0.000704
  0
VERTEX
  8
0
 10
363.951488
 20
625.512099
 42
0.001918
  0
VERTEX
  8
0
 10
386.520041
 20
621.923897
 42
0.001265
  0
VERTEX
  8
0
 10
412.500000
 20
617.962701
 42
-0.000043
  0
VERTEX
  8
0
 10
501.201427
 20
604.660027
 42
-0.000219
  0
VERTEX
  8
0
 10
550.372740
 20
597.259449
 42
-0.000077
  0
VERTEX
  8
0
 10
584.500629
 20
592.102311
 42
-0.014066
  0
VERTEX
  8
0
 10
588.050750
 20
591.462671
 42
0.000000
  0
VERTEX
  8
0
 10
590.601501
 20
590.928615
 42
0.000000
  0
VERTEX
  8
0
 10
585.230244
 20
555.227134
 42
-0.000874
  0
VERTEX
  8
0
 10
583.142009
 20
541.510156
 42
-0.001430
  0
VERTEX
  8
0
 10
581.318958
 20
529.895128
 42
-0.000139
  0
VERTEX
  8
0
 10
579.655892
 20
519.512230
 42
-0.157866
  0
VERTEX
  8
0
 10
579.457846
 20
519.124512
 42
-0.236172
  0
VERTEX
  8
0
 10
579.065665
 20
518.993872
 42
-0.000060
  0
VERTEX
  8
0
 10
560.439649
 20
521.664533
 42
-0.001097
  0
VERTEX
  8
0
 10
539.761819
 20
524.678258
 42
-0.000663
  0
VERTEX
  8
0
 10
515.278352
 20
528.334697
 42
0.000015
  0
VERTEX
  8
0
 10
484.256825
 20
533.008649
 42
0.000006
  0
VERTEX
  8
0
 10
442.622391
 20
539.279798
 42
0.000006
  0
VERTEX
  8
0
 10
398.156816
 20
545.976230
 42
0.000008
  0
VERTEX
  8
0
 10
357.500000
 20
552.097860
 42
-0.000182
  0
VERTEX
  8
0
 10
321.437402
 20
557.540559
 42
-0.000302
  0
VERTEX
  8
0
 10
291.033576
 20
562.159324
 42
-0.000007
  0
VERTEX
  8
0
 10
263.484301
 20
566.361869
 42
-0.138494
  0
VERTEX
  8
0
 10
263.231321
 20
566.476860
 42
-0.260553
  0
VERTEX
  8
0
 10
263.018180
 20
567.044570
 42
-0.000040
  0
VERTEX
  8
0
 10
268.390946
 20
602.427573
 42
-0.000058
  0
VERTEX
  8
0
 10
273.748734
 20
637.665507
 42
-0.159941
  0
VERTEX
  8
0
 10
274.174911
 20
638.508245
 42
-0.231550
  0
VERTEX
  8
0
 10
274.523845
 20
638.627887
 42
-0.000829
  0
VERTEX
  8
0
 10
278.982521
 20
638.061204
 42
-0.004082
  0
VERTEX
  8
0
 10
284.061801
 20
637.364886
 42
-0.002522
  0
VERTEX
  8
0
 10
290.022249
 20
636.467409
 42
0.000973
  0
VERTEX
  8
0
 10
302.671377
 20
634.522698
 42
0.027801
  0
VERTEX
  8
0
 10
305.956511
 20
634.209615
 42
0.154021
  0
VERTEX
  8
0
 10
307.429759
 20
634.611346
 42
0.202494
  0
VERTEX
  8
0
 10
308.207684
 20
635.750000
 42
0.201190
  0
VERTEX
  8
0
 10
308.002233
 20
636.777742
 42
0.066125
  0
VERTEX
  8
0
 10
306.956576
 20
637.954582
 42
0.039264
  0
VERTEX
  8
0
 10
305.015493
 20
639.381213
 42
0.011578
  0
VERTEX
  8
0
 10
301.831415
 20
641.256104
 42
-0.031543
  0
VERTEX
  8
0
 10
294.821577
 20
645.769778
 42
-0.035144
  0
VERTEX
  8
0
 10
288.699479
 20
650.983159
 42
-0.037776
  0
VERTEX
  8
0
 10
283.799161
 20
656.574629
 42
-0.054784
  0
VERTEX
  8
0
 10
280.457341
 20
662.217973
 42
-0.071156
  0
VERTEX
  8
0
 10
277.576915
 20
672.118834
 42
-0.051063
  0
VERTEX
  8
0
 10
277.127009
 20
683.648325
 42
-0.048683
  0
VERTEX
  8
0
 10
279.065939
 20
695.638353
 42
-0.049987
  0
VERTEX
  8
0
 10
283.278603
 20
706.915551
 42
-0.055147
  0
VERTEX
  8
0
 10
288.824524
 20
715.614280
 42
-0.046292
  0
VERTEX
  8
0
 10
296.443993
 20
723.467744
 42
-0.047675
  0
VERTEX
  8
0
 10
305.073668
 20
729.534238
 42
-0.071838
  0
VERTEX
  8
0
 10
313.617739
 20
732.887696
 42
-0.061637
  0
VERTEX
  8
0
 10
321.016244
 20
733.685863
 42
-0.020982
  0
VERTEX
  8
0
 10
331.826749
 20
733.062387
 42
-0.010658
  0
VERTEX
  8
0
 10
349.315476
 20
730.937960
 42
-0.001634
  0
SEQEND
  0
POLYLINE
  8
0
 66
1
 70
1
  0
VERTEX
  8
0
 10
266.680997
 20
533.343105
 42
0.019615
  0
VERTEX
  8
0
 10
266.442066
 20
532.332573
 42
0.004764
  0
VERTEX
  8
0
 10
266.129210
 20
530.646100
 42
0.004878
  0
VERTEX
  8
0
 10
265.807494
 20
528.703712
 42
0.004838
  0
VERTEX
  8
0
 10
265.522786
 20
526.750000
 42
-0.014788
  0
VERTEX
  8
0
 10
265.091449
 20
524.153306
 42
-0.086569
  0
VERTEX
  8
0
 10
264.596950
 20
522.866511
 42
-0.165198
  0
VERTEX
  8
0
 10
263.852173
 20
522.234387
 42
-0.096403
  0
VERTEX
  8
0
 10
262.688727
 20
522.017729
 42
-0.032626
  0
VERTEX
  8
0
 10
261.060092
 20
522.137369
 42
-0.000508
  0
VERTEX
  8
0
 10
251.786585
 20
523.440182
 42
-0.001350
  0
VERTEX
  8
0
 10
241.013476
 20
524.994528
 42
-0.000894
  0
VERTEX
  8
0
 10
228.648583
 20
526.835228
 42
0.002251
  0
VERTEX
  8
0
 10
214.596620
 20
528.888097
 42
0.006297
  0
VERTEX
  8
0
 10
204.723396
 20
530.158499
 42
0.002268
  0
VERTEX
  8
0
 10
197.121637
 20
531.004530
 42
0.352767
  0
VERTEX
  8
0
 10
196.442760
 20
530.567499
 42
0.043561
  0
VERTEX
  8
0
 10
195.660373
 20
527.277631
 42
0.000190
  0
VERTEX
  8
0
 10
190.374174
 20
491.336583
 42
0.000042
  0
VERTEX
  8
0
 10
184.926084
 20
454.175047
 42
0.237015
  0
VERTEX
  8
0
 10
185.141374
 20
453.525293
 42
0.157797
  0
VERTEX
  8
0
 10
185.513462
 20
453.335167
 42
0.000147
  0
VERTEX
  8
0
 10
195.210090
 20
451.779493
 42
0.001470
  0
VERTEX
  8
0
 10
206.062560
 20
450.074350
 42
0.000899
  0
VERTEX
  8
0
 10
218.876897
 20
448.123103
 42
-0.000833
  0
VERTEX
  8
0
 10
231.689321
 20
446.173866
 42
-0.001364
  0
VERTEX
  8
0
 10
242.535446
 20
444.474971
 42
-0.000126
  0
VERTEX
  8
0
 10
252.238756
 20
442.925424
 42
-0.157993
  0
VERTEX
  8
0
 10
252.584310
 20
442.749023
 42
-0.216287
  0
VERTEX
  8
0
 10
252.700592
 20
442.439517
 42
-0.005376
  0
VERTEX
  8
0
 10
252.581002
 20
440.897060
 42
-0.010637
  0
VERTEX
  8
0
 10
252.379105
 20
439.058968
 42
-0.006929
  0
VERTEX
  8
0
 10
252.071563
 20
436.945952
 42
0.003057
  0
VERTEX
  8
0
 10
251.749266
 20
434.845796
 42
0.004897
  0
VERTEX
  8
0
 10
251.502726
 20
433.049098
 42
0.001234
  0
VERTEX
  8
0
 10
251.307445
 20
431.483658
 42
0.216694
  0
VERTEX
  8
0
 10
251.356610
 20
431.327571
 42
0.173840
  0
VERTEX
  8
0
 10
251.700853
 20
431.141911
 42
0.000015
  0
VERTEX
  8
0
 10
281.775443
 20
426.585982
 42
0.000063
  0
VERTEX
  8
0
 10
311.229274
 20
422.128757
 42
0.037534
  0
VERTEX
  8
0
 10
312.942078
 20
422.000000
 42
0.317585
  0
VERTEX
  8
0
 10
313.299607
 20
422.252566
 42
0.018007
  0
VERTEX
  8
0
 10
313.728342
 20
423.615625
 42
0.022211
  0
VERTEX
  8
0
 10
314.133582
 20
425.391791
 42
0.013901
  0
VERTEX
  8
0
 10
314.456733
 20
427.500000
 42
-0.011857
  0
VERTEX
  8
0
 10
314.905362
 20
430.508895
 42
-0.072686
  0
VERTEX
  8
0
 10
315.392931
 20
431.995906
 42
-0.156662
  0
VERTEX
  8
0
 10
316.108642
 20
432.729949
 42
-0.122417
  0
VERTEX
  8
0
 10
317.195108
 20
433.000000
 42
-0.036663
  0
VERTEX
  8
0
 10
318.829967
 20
432.879961
 42
-0.000057
  0
VERTEX
  8
0
 10
347.909151
 20
428.583166
 42
-0.000460
  0
VERTEX
  8
0
 10
380.530601
 20
423.728460
 42
-0.000284
  0
VERTEX
  8
0
 10
418.873151
 20
417.963969
 42
0.000494
  0
VERTEX
  8
0
 10
457.595587
 20
412.158977
 42
0.000739
  0
VERTEX
  8
0
 10
491.442018
 20
407.170276
 42
0.000301
  0
VERTEX
  8
0
 10
520.470753
 20
402.953335
 42
0.016194
  0
VERTEX
  8
0
 10
526.014568
 20
402.333907
 42
0.018104
  0
VERTEX
  8
0
 10
529.462340
 20
402.186658
 42
0.012021
  0
VERTEX
  8
0
 10
533.421012
 20
402.256189
 42
0.012061
  0
VERTEX
  8
0
 10
537.341399
 20
402.514226
 42
0.019316
  0
VERTEX
  8
0
 10
540.667169
 20
402.943861
 42
0.078447
  0
VERTEX
  8
0
 10
554.730900
 20
407.661808
 42
0.101524
  0
VERTEX
  8
0
 10
565.266001
 20
416.226503
 42
0.087777
  0
VERTEX
  8
0
 10
572.591405
 20
429.299882
 42
0.045637
  0
VERTEX
  8
0
 10
577.130724
 20
447.500000
 42
0.027827
  0
VERTEX
  8
0
 10
577.993484
 20
456.313980
 42
0.009811
  0
VERTEX
  8
0
 10
578.276880
 20
469.013232
 42
0.006484
  0
VERTEX
  8
0
 10
578.147469
 20
481.604875
 42
0.090224
  0
VERTEX
  8
0
 10
577.234401
 20
486.036170
 42
0.176686
  0
VERTEX
  8
0
 10
575.786263
 20
487.644845
 42
0.064361
  0
VERTEX
  8
0
 10
572.871622
 20
488.740464
 42
0.020032
  0
VERTEX
  8
0
 10
567.024469
 20
489.870791
 42
0.001376
  0
VERTEX
  8
0
 10
550.356049
 20
492.358376
 42
-0.000811
  0
VERTEX
  8
0
 10
540.324411
 20
493.843914
 42
-0.001227
  0
VERTEX
  8
0
 10
531.597015
 20
495.172689
 42
-0.000458
  0
VERTEX
  8
0
 10
524.089800
 20
496.341589
 42
-0.029848
  0
VERTEX
  8
0
 10
522.804002
 20
496.622454
 42
0.163078
  0
VERTEX
  8
0
 10
521.937871
 20
496.580350
 42
0.204049
  0
VERTEX
  8
0
 10
521.367995
 20
496.022811
 42
0.073807
  0
VERTEX
  8
0
 10
521.028572
 20
494.673398
 42
0.010423
  0
VERTEX
  8
0
 10
520.804002
 20
491.808591
 42
-0.103536
  0
VERTEX
  8
0
 10
519.489431
 20
486.939959
 42
-0.242799
  0
VERTEX
  8
0
 10
516.518302
 20
484.799220
 42
-0.069825
  0
VERTEX
  8
0
 10
510.148475
 20
484.744700
 42
-0.004244
  0
VERTEX
  8
0
 10
491.224004
 20
487.399056
 42
-0.000340
  0
VERTEX
  8
0
 10
437.114732
 20
495.494915
 42
-0.000330
  0
VERTEX
  8
0
 10
382.490788
 20
503.742661
 42
-0.000005
  0
VERTEX
  8
0
 10
327.835319
 20
512.032707
 42
-0.173644
  0
VERTEX
  8
0
 10
327.455755
 20
512.237313
 42
-0.211959
  0
VERTEX
  8
0
 10
327.379733
 20
512.470771
 42
-0.002042
  0
VERTEX
  8
0
 10
327.574483
 20
514.283641
 42
-0.006310
  0
VERTEX
  8
0
 10
327.836101
 20
516.387478
 42
-0.003990
  0
VERTEX
  8
0
 10
328.191743
 20
518.834658
 42
0.005482
  0
VERTEX
  8
0
 10
328.540435
 20
521.285375
 42
0.008590
  0
VERTEX
  8
0
 10
328.780885
 20
523.400592
 42
0.003516
  0
VERTEX
  8
0
 10
328.941230
 20
525.197884
 42
0.227838
  0
VERTEX
  8
0
 10
328.832009
 20
525.482787
 42
0.150478
  0
VERTEX
  8
0
 10
328.516582
 20
525.638269
 42
0.000145
  0
VERTEX
  8
0
 10
320.519403
 20
526.920379
 42
0.001434
  0
VERTEX
  8
0
 10
311.567439
 20
528.326576
 42
0.000877
  0
VERTEX
  8
0
 10
301.000000
 20
529.936524
 42
-0.000264
  0
VERTEX
  8
0
 10
290.235287
 20
531.563024
 42
-0.000374
  0
VERTEX
  8
0
 10
280.651913
 20
533.023534
 42
-0.000212
  0
VERTEX
  8
0
 10
272.559727
 20
534.266479
 42
-0.005329
  0
VERTEX
  8
0
 10
270.346938
 20
534.631501
 42
0.025754
  0
VERTEX
  8
0
 10
268.720826
 20
534.831947
 42
0.102638
  0
VERTEX
  8
0
 10
267.730315
 20
534.699017
 42
0.155464
  0
VERTEX
  8
0
 10
267.099002
 20
534.222641
 42
0.086341
  0
SEQEND
  0
POLYLINE
  8
0
 66
1
 70
1
  0
VERTEX
  8
0
 10
299.000000
 20
526.182588
 42
0.000000
  0
VERTEX
  8
0
 10
323.500000
 20
522.445074
 42
0.000000
  0
VERTEX
  8
0
 10
323.225718
 20
515.472537
 42
0.000000
  0
VERTEX
  8
0
 10
322.951436
 20
508.500000
 42
0.000000
  0
VERTEX
  8
0
 10
415.725718
 20
494.551256
 42
0.000831
  0
VERTEX
  8
0
 10
451.704493
 20
489.202953
 42
0.001266
  0
VERTEX
  8
0
 10
482.966262
 20
484.689795
 42
0.000443
  0
VERTEX
  8
0
 10
509.962235
 20
480.886626
 42
0.033302
  0
VERTEX
  8
0
 10
514.350920
 20
480.567923
 42
0.014543
  0
VERTEX
  8
0
 10
517.717473
 20
480.645950
 42
0.067599
  0
VERTEX
  8
0
 10
519.622850
 20
481.006960
 42
0.093019
  0
VERTEX
  8
0
 10
521.057510
 20
481.805211
 42
0.041819
  0
VERTEX
  8
0
 10
522.600920
 20
483.322430
 42
0.043309
  0
VERTEX
  8
0
 10
523.536842
 20
484.622930
 42
0.035248
  0
VERTEX
  8
0
 10
524.309463
 20
486.156182
 42
0.036340
  0
VERTEX
  8
0
 10
524.829917
 20
487.707682
 42
0.062834
  0
VERTEX
  8
0
 10
525.000000
 20
489.055764
 42
-0.015176
  0
VERTEX
  8
0
 10
525.034266
 20
490.184462
 42
-0.024848
  0
VERTEX
  8
0
 10
525.139634
 20
491.135131
 42
-0.022114
  0
VERTEX
  8
0
 10
525.288742
 20
491.854832
 42
-0.343163
  0
VERTEX
  8
0
 10
525.475349
 20
492.000000
 42
-0.038846
  0
VERTEX
  8
0
 10
527.895107
 20
491.811721
 42
-0.000238
  0
VERTEX
  8
0
 10
549.648799
 20
488.395209
 42
-0.000097
  0
VERTEX
  8
0
 10
572.038633
 20
484.863386
 42
-0.099559
  0
VERTEX
  8
0
 10
572.972166
 20
484.517202
 42
-0.242347
  0
VERTEX
  8
0
 10
573.965479
 20
482.866457
 42
-0.007437
  0
VERTEX
  8
0
 10
574.385869
 20
474.678005
 42
-0.014664
  0
VERTEX
  8
0
 10
574.449643
 20
465.689441
 42
-0.016540
  0
VERTEX
  8
0
 10
573.972319
 20
457.067971
 42
-0.020009
  0
VERTEX
  8
0
 10
572.138697
 20
442.865895
 42
-0.042989
  0
VERTEX
  8
0
 10
569.363332
 20
432.190099
 42
-0.053506
  0
VERTEX
  8
0
 10
565.306063
 20
423.729930
 42
-0.055546
  0
VERTEX
  8
0
 10
559.588402
 20
416.439274
 42
-0.094660
  0
VERTEX
  8
0
 10
549.885777
 20
409.715517
 42
-0.086300
  0
VERTEX
  8
0
 10
538.065142
 20
406.759216
 42
-0.047092
  0
VERTEX
  8
0
 10
520.482484
 20
407.132352
 42
-0.009525
  0
VERTEX
  8
0
 10
489.500000
 20
411.321079
 42
0.000352
  0
VERTEX
  8
0
 10
475.208120
 20
413.520966
 42
0.000165
  0
VERTEX
  8
0
 10
456.709375
 20
416.348822
 42
0.000163
  0
VERTEX
  8
0
 10
437.314393
 20
419.300653
 42
0.000229
  0
VERTEX
  8
0
 10
420.000000
 20
421.921912
 42
0.000004
  0
VERTEX
  8
0
 10
402.411092
 20
424.576334
 42
0.000003
  0
VERTEX
  8
0
 10
382.155037
 20
427.632996
 42
0.000003
  0
VERTEX
  8
0
 10
362.432968
 20
430.608869
 42
0.000005
  0
VERTEX
  8
0
 10
346.634167
 20
432.992511
 42
0.001192
  0
VERTEX
  8
0
 10
333.621914
 20
434.923887
 42
0.001960
  0
VERTEX
  8
0
 10
322.603911
 20
436.488341
 42
0.000193
  0
VERTEX
  8
0
 10
312.756163
 20
437.843406
 42
0.234606
  0
VERTEX
  8
0
 10
312.385315
 20
437.718648
 42
0.131382
  0
VERTEX
  8
0
 10
312.201980
 20
437.401493
 42
0.004959
  0
VERTEX
  8
0
 10
311.856110
 20
436.063401
 42
0.008640
  0
VERTEX
  8
0
 10
311.486861
 20
434.455602
 42
0.005944
  0
VERTEX
  8
0
 10
311.121623
 20
432.621623
 42
-0.009336
  0
VERTEX
  8
0
 10
310.740198
 20
430.771965
 42
-0.012580
  0
VERTEX
  8
0
 10
310.321972
 20
429.114680
 42
-0.009671
  0
VERTEX
  8
0
 10
309.915120
 20
427.759690
 42
-0.119149
  0
VERTEX
  8
0
 10
309.636092
 20
427.302759
 42
-0.229592
  0
VERTEX
  8
0
 10
309.063473
 20
427.104036
 42
-0.000755
  0
VERTEX
  8
0
 10
301.418806
 20
428.016783
 42
-0.003883
  0
VERTEX
  8
0
 10
292.722347
 20
429.137013
 42
-0.002396
  0
VERTEX
  8
0
 10
282.511731
 20
430.582859
 42
0.000000
  0
VERTEX
  8
0
 10
255.992230
 20
434.467819
 42
0.000000
  0
VERTEX
  8
0
 10
256.609254
 20
440.490321
 42
0.000000
  0
VERTEX
  8
0
 10
257.226277
 20
446.512823
 42
0.000000
  0
VERTEX
  8
0
 10
223.863139
 20
451.417989
 42
-0.001375
  0
VERTEX
  8
0
 10
211.029430
 20
453.340910
 42
-0.002225
  0
VERTEX
  8
0
 10
200.125022
 20
455.055111
 42
-0.000337
  0
VERTEX
  8
0
 10
190.469811
 20
456.623674
 42
-0.155319
  0
VERTEX
  8
0
 10
189.902895
 20
456.911577
 42
-0.239219
  0
VERTEX
  8
0
 10
189.553337
 20
457.955524
 42
-0.000133
  0
VERTEX
  8
0
 10
194.534572
 20
491.650254
 42
-0.000179
  0
VERTEX
  8
0
 10
199.507012
 20
525.140963
 42
-0.160775
  0
VERTEX
  8
0
 10
200.216727
 20
526.550060
 42
-0.234038
  0
VERTEX
  8
0
 10
200.627577
 20
526.688769
 42
-0.000244
  0
VERTEX
  8
0
 10
210.313929
 20
525.376167
 42
-0.002206
  0
VERTEX
  8
0
 10
221.175101
 20
523.850122
 42
-0.001344
  0
VERTEX
  8
0
 10
233.992635
 20
521.956284
 42
0.001577
  0
VERTEX
  8
0
 10
257.628822
 20
518.475173
 42
0.033414
  0
VERTEX
  8
0
 10
264.702136
 20
517.934638
 42
0.175165
  0
VERTEX
  8
0
 10
267.724007
 20
518.994563
 42
0.223471
  0
VERTEX
  8
0
 10
268.984687
 20
521.625000
 42
-0.028628
  0
VERTEX
  8
0
 10
269.216440
 20
525.216049
 42
-0.066254
  0
VERTEX
  8
0
 10
269.894023
 20
527.826070
 42
-0.104990
  0
VERTEX
  8
0
 10
270.965588
 20
529.407500
 42
-0.198770
  0
VERTEX
  8
0
 10
272.375000
 20
529.960051
 42
-0.029835
  0
VERTEX
  8
0
 10
273.916906
 20
529.838839
 42
-0.000708
  0
VERTEX
  8
0
 10
281.072656
 20
528.833942
 42
-0.001556
  0
VERTEX
  8
0
 10
289.457940
 20
527.617631
 42
-0.001056
  0
SEQEND
  0
POLYLINE
  8
0
 66
1
 70
1
  0
VERTEX
  8
0
 10
277.633056
 20
399.937972
 42
0.032068
  0
VERTEX
  8
0
 10
265.991434
 20
397.897539
 42
0.047038
  0
VERTEX
  8
0
 10
256.169224
 20
394.515312
 42
0.049459
  0
VERTEX
  8
0
 10
247.519881
 20
389.511538
 42
0.040953
  0
VERTEX
  8
0
 10
239.412425
 20
382.610754
 42
0.046569
  0
VERTEX
  8
0
 10
231.996982
 20
373.638693
 42
0.050244
  0
VERTEX
  8
0
 10
226.584881
 20
363.666072
 42
0.047702
  0
VERTEX
  8
0
 10
223.069354
 20
352.360687
 42
0.035531
  0
VERTEX
  8
0
 10
221.308432
 20
339.407510
 42
0.042365
  0
VERTEX
  8
0
 10
221.538010
 20
328.261635
 42
0.061353
  0
VERTEX
  8
0
 10
223.759730
 20
318.679099
 42
0.062455
  0
VERTEX
  8
0
 10
228.200557
 20
310.046606
 42
0.045903
  0
VERTEX
  8
0
 10
235.070610
 20
301.750000
 42
-0.009487
  0
VERTEX
  8
0
 10
237.554961
 20
299.158973
 42
-0.018439
  0
VERTEX
  8
0
 10
239.419899
 20
296.982813
 42
-0.018962
  0
VERTEX
  8
0
 10
240.621167
 20
295.348128
 42
-0.601682
  0
VERTEX
  8
0
 10
240.436602
 20
295.000000
 42
-0.033036
  0
VERTEX
  8
0
 10
239.511775
 20
295.061173
 42
-0.001662
  0
VERTEX
  8
0
 10
236.509915
 20
295.470190
 42
-0.002661
  0
VERTEX
  8
0
 10
232.944128
 20
295.987483
 42
-0.001923
  0
VERTEX
  8
0
 10
228.974029
 20
296.600645
 42
0.003657
  0
VERTEX
  8
0
 10
225.075216
 20
297.188963
 42
0.005846
  0
VERTEX
  8
0
 10
221.736112
 20
297.628099
 42
0.001669
  0
VERTEX
  8
0
 10
218.844363
 20
297.964274
 42
0.231525
  0
VERTEX
  8
0
 10
218.525814
 20
297.850645
 42
0.156826
  0
VERTEX
  8
0
 10
218.210645
 20
297.217713
 42
0.000029
  0
VERTEX
  8
0
 10
212.627484
 20
260.482702
 42
0.000249
  0
VERTEX
  8
0
 10
207.415740
 20
226.062541
 42
0.016170
  0
VERTEX
  8
0
 10
206.707899
 20
220.062905
 42
0.214955
  0
VERTEX
  8
0
 10
207.232571
 20
218.571937
 42
0.132676
  0
VERTEX
  8
0
 10
208.849656
 20
217.591253
 42
0.031255
  0
VERTEX
  8
0
 10
212.660339
 20
216.743717
 42
0.001801
  0
VERTEX
  8
0
 10
224.500000
 20
214.920927
 42
-0.000104
  0
VERTEX
  8
0
 10
236.946556
 20
213.047930
 42
-0.000005
  0
VERTEX
  8
0
 10
279.464974
 20
206.640200
 42
-0.000008
  0
VERTEX
  8
0
 10
329.926178
 20
199.034151
 42
-0.000006
  0
VERTEX
  8
0
 10
386.338210
 20
190.529565
 42
0.000403
  0
VERTEX
  8
0
 10
441.530941
 20
182.253669
 42
0.000669
  0
VERTEX
  8
0
 10
488.085540
 20
175.375084
 42
0.000022
  0
VERTEX
  8
0
 10
530.186181
 20
169.214090
 42
0.236957
  0
VERTEX
  8
0
 10
530.726530
 20
169.393196
 42
0.161294
  0
VERTEX
  8
0
 10
531.671482
 20
171.274077
 42
0.000249
  0
VERTEX
  8
0
 10
537.236336
 20
209.320741
 42
0.000179
  0
VERTEX
  8
0
 10
542.809936
 20
247.656276
 42
0.250218
  0
VERTEX
  8
0
 10
542.328339
 20
248.990724
 42
0.142315
  0
VERTEX
  8
0
 10
541.573003
 20
249.356851
 42
0.000627
  0
VERTEX
  8
0
 10
532.637075
 20
250.866521
 42
0.002943
  0
VERTEX
  8
0
 10
522.443434
 20
252.513896
 42
0.001845
  0
VERTEX
  8
0
 10
510.500000
 20
254.326871
 42
-0.000539
  0
VERTEX
  8
0
 10
419.415457
 20
267.909880
 42
-0.001508
  0
VERTEX
  8
0
 10
355.622138
 20
277.690214
 42
-0.000814
  0
VERTEX
  8
0
 10
307.727857
 20
285.260819
 42
-0.036912
  0
VERTEX
  8
0
 10
297.984972
 20
287.564561
 42
-0.039856
  0
VERTEX
  8
0
 10
290.376695
 20
290.653359
 42
-0.079823
  0
VERTEX
  8
0
 10
285.127308
 20
294.437751
 42
-0.100238
  0
VERTEX
  8
0
 10
282.072721
 20
299.029098
 42
-0.097114
  0
VERTEX
  8
0
 10
281.000000
 20
304.500000
 42
-0.105907
  0
VERTEX
  8
0
 10
282.235029
 20
310.265344
 42
-0.130355
  0
VERTEX
  8
0
 10
285.688137
 20
314.524142
 42
-0.104773
  0
VERTEX
  8
0
 10
291.467674
 20
317.115263
 42
-0.051805
  0
VERTEX
  8
0
 10
299.500000
 20
317.995572
 42
-0.036170
  0
VERTEX
  8
0
 10
305.162530
 20
317.617510
 42
-0.000550
  0
VERTEX
  8
0
 10
337.777252
 20
313.018878
 42
-0.001382
  0
VERTEX
  8
0
 10
377.444445
 20
307.269505
 42
-0.000723
  0
VERTEX
  8
0
 10
426.802450
 20
299.903318
 42
0.000566
  0
VERTEX
  8
0
 10
472.977010
 20
292.997467
 42
0.000938
  0
VERTEX
  8
0
 10
511.955963
 20
287.287676
 42
0.000044
  0
VERTEX
  8
0
 10
547.118237
 20
282.207534
 42
0.236464
  0
VERTEX
  8
0
 10
547.751393
 20
282.418059
 42
0.160417
  0
VERTEX
  8
0
 10
548.544483
 20
283.989962
 42
0.000176
  0
VERTEX
  8
0
 10
554.200892
 20
321.722572
 42
0.000130
  0
VERTEX
  8
0
 10
559.867480
 20
359.681363
 42
0.237660
  0
VERTEX
  8
0
 10
559.481113
 20
360.852220
 42
0.159454
  0
VERTEX
  8
0
 10
558.445785
 20
361.377028
 42
0.000248
  0
VERTEX
  8
0
 10
537.573106
 20
364.583102
 42
0.000779
  0
VERTEX
  8
0
 10
503.109706
 20
369.804293
 42
0.000053
  0
VERTEX
  8
0
 10
405.500000
 20
384.425861
 42
0.000702
  0
VERTEX
  8
0
 10
365.415053
 20
390.368553
 42
0.001039
  0
VERTEX
  8
0
 10
330.259375
 20
395.455419
 42
0.000455
  0
VERTEX
  8
0
 10
300.206440
 20
399.712272
 42
0.020874
  0
VERTEX
  8
0
 10
294.000000
 20
400.322820
 42
0.012299
  0
VERTEX
  8
0
 10
290.174246
 20
400.444214
 42
0.007658
  0
VERTEX
  8
0
 10
285.685960
 20
400.407441
 42
0.007683
  0
VERTEX
  8
0
 10
281.258087
 20
400.235224
 42
0.013790
  0
SEQEND
  0
POLYLINE
  8
0
 66
1
 70
1
  0
VERTEX
  8
0
 10
431.417780
 20
376.614413
 42
-0.000319
  0
VERTEX
  8
0
 10
478.584915
 20
369.439853
 42
-0.000529
  0
VERTEX
  8
0
 10
518.376818
 20
363.318056
 42
-0.000019
  0
VERTEX
  8
0
 10
554.345168
 20
357.744141
 42
-0.159230
  0
VERTEX
  8
0
 10
554.840599
 20
357.492734
 42
-0.236052
  0
VERTEX
  8
0
 10
555.086646
 20
356.754666
 42
-0.000061
  0
VERTEX
  8
0
 10
550.109752
 20
321.932229
 42
-0.000071
  0
VERTEX
  8
0
 10
545.132831
 20
287.175029
 42
-0.193528
  0
VERTEX
  8
0
 10
544.666663
 20
286.369642
 42
-0.205475
  0
VERTEX
  8
0
 10
544.512578
 20
286.328906
 42
-0.000015
  0
VERTEX
  8
0
 10
531.183332
 20
288.300867
 42
-0.000520
  0
VERTEX
  8
0
 10
516.458462
 20
290.495401
 42
-0.000313
  0
VERTEX
  8
0
 10
499.000000
 20
293.127082
 42
0.000072
  0
VERTEX
  8
0
 10
356.014228
 20
314.751321
 42
0.002269
  0
VERTEX
  8
0
 10
320.856095
 20
319.900175
 42
0.007356
  0
VERTEX
  8
0
 10
303.165366
 20
322.144060
 42
0.063052
  0
VERTEX
  8
0
 10
295.203377
 20
322.028747
 42
0.046317
  0
VERTEX
  8
0
 10
287.276085
 20
320.147625
 42
0.100862
  0
VERTEX
  8
0
 10
281.896012
 20
317.019864
 42
0.117055
  0
VERTEX
  8
0
 10
278.653891
 20
312.382098
 42
0.076359
  0
VERTEX
  8
0
 10
277.192667
 20
305.986844
 42
0.091065
  0
VERTEX
  8
0
 10
278.008768
 20
298.558241
 42
0.108602
  0
VERTEX
  8
0
 10
281.426006
 20
292.411647
 42
0.089914
  0
VERTEX
  8
0
 10
287.705733
 20
287.460084
 42
0.045622
  0
VERTEX
  8
0
 10
297.017227
 20
283.554372
 42
0.032237
  0
VERTEX
  8
0
 10
303.000104
 20
282.080569
 42
0.002580
  0
VERTEX
  8
0
 10
319.033814
 20
279.296633
 42
0.003003
  0
VERTEX
  8
0
 10
340.284523
 20
275.850843
 42
0.001367
  0
VERTEX
  8
0
 10
368.107664
 20
271.588521
 42
-0.000054
  0
VERTEX
  8
0
 10
455.978829
 20
258.363326
 42
-0.000287
  0
VERTEX
  8
0
 10
503.847281
 20
251.125410
 42
-0.000011
  0
VERTEX
  8
0
 10
538.253191
 20
245.902090
 42
-0.209478
  0
VERTEX
  8
0
 10
538.545481
 20
245.717340
 42
-0.187776
  0
VERTEX
  8
0
 10
538.617726
 20
245.398631
 42
-0.000058
  0
VERTEX
  8
0
 10
536.633185
 20
232.126856
 42
-0.000760
  0
VERTEX
  8
0
 10
534.036081
 20
214.950611
 42
-0.000216
  0
VERTEX
  8
0
 10
529.945551
 20
188.250000
 42
-0.002708
  0
VERTEX
  8
0
 10
528.517295
 20
179.277980
 42
-0.035855
  0
VERTEX
  8
0
 10
527.737293
 20
176.019570
 42
-0.127118
  0
VERTEX
  8
0
 10
526.817948
 20
174.551622
 42
-0.191904
  0
VERTEX
  8
0
 10
525.433648
 20
174.000000
 42
-0.036666
  0
VERTEX
  8
0
 10
523.580898
 20
174.136047
 42
-0.000054
  0
VERTEX
  8
0
 10
489.628613
 20
179.153054
 42
-0.000446
  0
VERTEX
  8
0
 10
451.562157
 20
184.816930
 42
-0.000276
  0
VERTEX
  8
0
 10
406.805568
 20
191.542310
 42
0.000010
  0
VERTEX
  8
0
 10
359.389680
 20
198.693041
 42
0.000011
  0
VERTEX
  8
0
 10
313.095072
 20
205.672681
 42
0.000010
  0
VERTEX
  8
0
 10
273.338159
 20
211.664937
 42
0.000052
  0
VERTEX
  8
0
 10
251.113826
 20
215.011817
 42
-0.000875
  0
VERTEX
  8
0
 10
235.981109
 20
217.316215
 42
-0.001432
  0
VERTEX
  8
0
 10
223.167209
 20
219.328032
 42
-0.000139
  0
VERTEX
  8
0
 10
211.712815
 20
221.163297
 42
-0.157853
  0
VERTEX
  8
0
 10
211.284650
 20
221.382017
 42
-0.236603
  0
VERTEX
  8
0
 10
211.054513
 20
222.074767
 42
-0.000062
  0
VERTEX
  8
0
 10
215.775296
 20
254.619978
 42
-0.000572
  0
VERTEX
  8
0
 10
220.154405
 20
284.542540
 42
-0.019607
  0
VERTEX
  8
0
 10
221.474767
 20
291.571938
 42
0.000000
  0
VERTEX
  8
0
 10
221.948723
 20
293.643876
 42
0.000000
  0
VERTEX
  8
0
 10
238.987669
 20
291.001912
 42
0.003015
  0
VERTEX
  8
0
 10
245.554852
 20
290.024159
 42
0.004851
  0
VERTEX
  8
0
 10
251.164390
 20
289.278991
 42
0.001167
  0
VERTEX
  8
0
 10
256.058114
 20
288.688764
 42
0.229689
  0
VERTEX
  8
0
 10
256.513307
 20
288.846641
 42
0.186250
  0
VERTEX
  8
0
 10
257.110103
 20
290.193446
 42
0.163198
  0
VERTEX
  8
0
 10
256.690453
 20
291.682460
 42
0.102354
  0
VERTEX
  8
0
 10
255.175817
 20
293.146899
 42
0.049114
  0
VERTEX
  8
0
 10
252.750000
 20
294.368177
 42
-0.046791
  0
VERTEX
  8
0
 10
248.523104
 20
296.471703
 42
-0.019291
  0
VERTEX
  8
0
 10
243.217769
 20
300.053645
 42
-0.019398
  0
VERTEX
  8
0
 10
238.145361
 20
304.082416
 42
-0.041082
  0
VERTEX
  8
0
 10
234.622896
 20
307.652663
 42
-0.030721
  0
VERTEX
  8
0
 10
233.389365
 20
309.326411
 42
-0.010540
  0
VERTEX
  8
0
 10
231.807969
 20
311.890636
 42
-0.010430
  0
VERTEX
  8
0
 10
230.178033
 20
314.799918
 42
-0.011876
  0
VERTEX
  8
0
 10
228.743010
 20
317.652663
 42
-0.017171
  0
VERTEX
  8
0
 10
226.858469
 20
322.012675
 42
-0.049752
  0
VERTEX
  8
0
 10
225.969459
 20
325.172938
 42
-0.037274
  0
VERTEX
  8
0
 10
225.593293
 20
328.911244
 42
-0.006504
  0
VERTEX
  8
0
 10
225.502805
 20
336.000000
 42
-0.008745
  0
VERTEX
  8
0
 10
225.612671
 20
342.194700
 42
-0.021844
  0
VERTEX
  8
0
 10
225.969349
 20
346.705679
 42
-0.026139
  0
VERTEX
  8
0
 10
226.668690
 20
350.664451
 42
-0.018772
  0
VERTEX
  8
0
 10
227.843683
 20
355.000000
 42
-0.052517
  0
VERTEX
  8
0
 10
233.955196
 20
369.172370
 42
-0.069478
  0
VERTEX
  8
0
 10
242.460508
 20
380.341888
 42
-0.071138
  0
VERTEX
  8
0
 10
253.525360
 20
388.566769
 42
-0.058526
  0
VERTEX
  8
0
 10
267.201713
 20
394.033490
 42
-0.022703
  0
VERTEX
  8
0
 10
271.805929
 20
395.053173
 42
-0.026884
  0
VERTEX
  8
0
 10
276.231132
 20
395.581358
 42
-0.017696
  0
VERTEX
  8
0
 10
281.964911
 20
395.751432
 42
-0.004228
  0
VERTEX
  8
0
 10
291.500000
 20
395.616111
 42
-0.019625
  0
VERTEX
  8
0
 10
305.527976
 20
394.746795
 42
-0.008461
  0
VERTEX
  8
0
 10
324.134645
 20
392.539868
 42
-0.003488
  0
VERTEX
  8
0
 10
355.716517
 20
388.026286
 42
-0.000346
  0
SEQEND
  0
POLYLINE
  8
0
 66
1
 70
1
  0
VERTEX
  8
0
 10
636.526567
 20
173.763348
 42
0.005583
  0
VERTEX
  8
0
 10
635.175322
 20
171.707690
 42
0.008165
  0
VERTEX
  8
0
 10
634.035929
 20
169.865926
 42
0.004510
  0
VERTEX
  8
0
 10
633.118706
 20
168.295671
 42
0.130647
  0
VERTEX
  8
0
 10
633.000000
 20
167.849123
 42
0.249400
  0
VERTEX
  8
0
 10
633.339366
 20
167.211079
 42
0.002397
  0
VERTEX
  8
0
 10
637.849636
 20
164.201999
 42
0.003501
  0
VERTEX
  8
0
 10
642.283038
 20
161.319194
 42
0.143357
  0
VERTEX
  8
0
 10
643.373443
 20
161.000000
 42
0.248791
  0
VERTEX
  8
0
 10
643.803750
 20
161.228240
 42
0.000796
  0
VERTEX
  8
0
 10
647.331137
 20
166.452929
 42
0.001169
  0
VERTEX
  8
0
 10
650.778267
 20
171.602247
 42
0.147961
  0
VERTEX
  8
0
 10
651.000000
 20
172.335140
 42
0.256014
  0
VERTEX
  8
0
 10
650.756435
 20
172.779649
 42
0.001102
  0
VERTEX
  8
0
 10
645.971445
 20
175.820209
 42
0.001709
  0
VERTEX
  8
0
 10
641.276693
 20
178.766504
 42
0.140164
  0
VERTEX
  8
0
 10
640.460122
 20
179.000000
 42
0.232750
  0
VERTEX
  8
0
 10
640.214687
 20
178.879206
 42
0.002960
  0
VERTEX
  8
0
 10
639.136758
 20
177.461734
 42
0.007890
  0
VERTEX
  8
0
 10
637.907738
 20
175.770642
 42
0.005001
  0
SEQEND
  0
POLYLINE
  8
0
 66
1
 70
1
  0
VERTEX
  8
0
 10
645.000000
 20
171.399075
 42
-0.119601
  0
VERTEX
  8
0
 10
644.692014
 20
170.129933
 42
-0.048187
  0
VERTEX
  8
0
 10
643.719384
 20
168.620614
 42
-0.047623
  0
VERTEX
  8
0
 10
642.522525
 20
167.371190
 42
-0.179829
  0
VERTEX
  8
0
 10
641.523833
 20
167.000000
 42
-0.133102
  0
VERTEX
  8
0
 10
640.196735
 20
167.359650
 42
-0.183014
  0
VERTEX
  8
0
 10
639.427300
 20
168.312157
 42
-0.137084
  0
VERTEX
  8
0
 10
639.361307
 20
169.778039
 42
-0.066075
  0
VERTEX
  8
0
 10
640.028045
 20
171.552403
 42
-0.033643
  0
VERTEX
  8
0
 10
640.757704
 20
172.719704
 42
-0.133541
  0
VERTEX
  8
0
 10
641.409509
 20
173.246109
 42
-0.167016
  0
VERTEX
  8
0
 10
642.150577
 20
173.307665
 42
-0.060899
  0
VERTEX
  8
0
 10
643.145994
 20
172.921867
 42
-0.020727
  0
VERTEX
  8
0
 10
643.856045
 20
172.503118
 42
-0.028341
  0
VERTEX
  8
0
 10
644.455386
 20
172.065250
 42
-0.027990
  0
VERTEX
  8
0
 10
644.892923
 20
171.662849
 42
-0.195235
  0
SEQEND
  0
POLYLINE
  8
0
 66
1
 70
1
  0
VERTEX
  8
0
 10
656.835964
 20
160.039292
 42
0.000000
  0
VERTEX
  8
0
 10
653.171929
 20
154.169006
 42
0.000000
  0
VERTEX
  8
0
 10
658.482996
 20
150.642656
 42
0.000000
  0
VERTEX
  8
0
 10
663.794063
 20
147.116306
 42
0.000000
  0
VERTEX
  8
0
 10
667.397031
 20
152.542769
 42
0.006263
  0
VERTEX
  8
0
 10
668.776170
 20
154.677454
 42
0.009063
  0
VERTEX
  8
0
 10
669.936350
 20
156.600040
 42
0.005357
  0
VERTEX
  8
0
 10
670.859833
 20
158.235187
 42
0.132485
  0
VERTEX
  8
0
 10
670.982033
 20
158.734616
 42
0.234524
  0
VERTEX
  8
0
 10
670.607643
 20
159.446448
 42
0.002710
  0
VERTEX
  8
0
 10
666.141156
 20
162.638215
 42
0.003045
  0
VERTEX
  8
0
 10
661.671259
 20
165.755319
 42
0.195948
  0
VERTEX
  8
0
 10
660.761615
 20
165.954789
 42
0.205266
  0
VERTEX
  8
0
 10
660.602002
 20
165.851118
 42
0.000991
  0
VERTEX
  8
0
 10
659.500539
 20
164.198462
 42
0.004296
  0
VERTEX
  8
0
 10
658.259459
 20
162.292967
 42
0.002677
  0
SEQEND
  0
POLYLINE
  8
0
 66
1
 70
1
  0
VERTEX
  8
0
 10
664.386500
 20
158.706652
 42
-0.036706
  0
VERTEX
  8
0
 10
665.376148
 20
157.865013
 42
-0.217782
  0
VERTEX
  8
0
 10
665.611784
 20
157.246131
 42
-0.142840
  0
VERTEX
  8
0
 10
665.341834
 20
156.503904
 42
-0.013476
  0
VERTEX
  8
0
 10
664.142142
 20
154.956652
 42
-0.016613
  0
VERTEX
  8
0
 10
662.894829
 20
153.533695
 42
-0.149676
  0
VERTEX
  8
0
 10
662.184441
 20
153.126282
 42
-0.214512
  0
VERTEX
  8
0
 10
661.498014
 20
153.264752
 42
-0.038753
  0
VERTEX
  8
0
 10
660.476918
 20
154.123308
 42
-0.039563
  0
VERTEX
  8
0
 10
659.646110
 20
155.079972
 42
-0.138333
  0
VERTEX
  8
0
 10
659.360195
 20
155.837046
 42
-0.129187
  0
VERTEX
  8
0
 10
659.502584
 20
156.662710
 42
-0.032642
  0
VERTEX
  8
0
 10
660.152953
 20
157.873308
 42
-0.025141
  0
VERTEX
  8
0
 10
661.219223
 20
159.403732
 42
-0.181362
  0
VERTEX
  8
0
 10
661.970654
 20
159.867736
 42
-0.182817
  0
VERTEX
  8
0
 10
662.838474
 20
159.721196
 42
-0.025618
  0
SEQEND
  0
POLYLINE
  8
0
 66
1
 70
1
  0
VERTEX
  8
0
 10
677.526567
 20
146.763348
 42
0.005432
  0
VERTEX
  8
0
 10
676.175298
 20
144.709007
 42
0.007972
  0
VERTEX
  8
0
 10
675.035929
 20
142.871352
 42
0.004313
  0
VERTEX
  8
0
 10
674.116382
 20
141.303498
 42
0.131197
  0
VERTEX
  8
0
 10
674.000000
 20
140.867594
 42
0.256834
  0
VERTEX
  8
0
 10
674.688757
 20
139.615180
 42
0.010865
  0
VERTEX
  8
0
 10
679.177158
 20
136.903508
 42
0.009869
  0
VERTEX
  8
0
 10
683.786002
 20
134.373712
 42
0.379666
  0
VERTEX
  8
0
 10
684.840618
 20
134.635653
 42
-0.001884
  0
VERTEX
  8
0
 10
685.260989
 20
135.243041
 42
-0.000181
  0
VERTEX
  8
0
 10
686.289309
 20
136.715808
 42
-0.000231
  0
VERTEX
  8
0
 10
687.516692
 20
138.470593
 42
-0.000182
  0
VERTEX
  8
0
 10
688.846391
 20
140.368323
 42
0.007033
  0
VERTEX
  8
0
 10
690.104538
 20
142.217337
 42
0.011624
  0
VERTEX
  8
0
 10
691.108028
 20
143.817337
 42
0.005316
  0
VERTEX
  8
0
 10
691.894212
 20
145.170632
 42
0.373139
  0
VERTEX
  8
0
 10
691.846391
 20
145.408222
 42
0.017513
  0
VERTEX
  8
0
 10
689.741915
 20
146.919779
 42
0.004086
  0
VERTEX
  8
0
 10
686.104279
 20
149.301384
 42
0.001037
  0
VERTEX
  8
0
 10
682.133379
 20
151.843445
 42
0.142799
  0
VERTEX
  8
0
 10
681.596392
 20
152.000000
 42
0.226304
  0
VERTEX
  8
0
 10
681.275685
 20
151.847011
 42
0.004976
  0
VERTEX
  8
0
 10
680.176787
 20
150.461734
 42
0.010328
  0
VERTEX
  8
0
 10
678.917479
 20
148.770408
 42
0.006671
  0
SEQEND
  0
POLYLINE
  8
0
 66
1
 70
1
  0
VERTEX
  8
0
 10
686.000000
 20
144.399075
 42
-0.088289
  0
VERTEX
  8
0
 10
685.944702
 20
144.088352
 42
-0.011344
  0
VERTEX
  8
0
 10
685.695915
 20
143.456180
 42
-0.012967
  0
VERTEX
  8
0
 10
685.361197
 20
142.713739
 42
-0.010479
  0
VERTEX
  8
0
 10
684.964816
 20
141.934259
 42
-0.082702
  0
VERTEX
  8
0
 10
683.986366
 20
140.664193
 42
-0.146599
  0
VERTEX
  8
0
 10
682.810847
 20
140.084392
 42
-0.150598
  0
VERTEX
  8
0
 10
681.533326
 20
140.253826
 42
-0.088880
  0
VERTEX
  8
0
 10
680.259383
 20
141.140617
 42
-0.251193
  0
VERTEX
  8
0
 10
679.784216
 20
142.714557
 42
-0.126395
  0
VERTEX
  8
0
 10
680.713918
 20
144.636908
 42
-0.119399
  0
VERTEX
  8
0
 10
682.501082
 20
145.943247
 42
-0.224189
  0
VERTEX
  8
0
 10
684.250000
 20
145.860011
 42
-0.022015
  0
VERTEX
  8
0
 10
684.920173
 20
145.464942
 42
-0.029740
  0
VERTEX
  8
0
 10
685.485937
 20
145.047080
 42
-0.030042
  0
VERTEX
  8
0
 10
685.896409
 20
144.660307
 42
-0.191037
  0
SEQEND
  0
POLYLINE
  8
0
 66
1
 70
1
  0
VERTEX
  8
0
 10
699.420775
 20
135.737621
 42
-0.000319
  0
VERTEX
  8
0
 10
698.501717
 20
134.308535
 42
-0.000218
  0
VERTEX
  8
0
 10
697.456979
 20
132.687851
 42
-0.000220
  0
VERTEX
  8
0
 10
696.449322
 20
131.127699
 42
-0.000447
  0
VERTEX
  8
0
 10
695.655275
 20
129.901871
 42
0.000000
  0
VERTEX
  8
0
 10
693.969000
 20
127.303743
 42
0.000000
  0
VERTEX
  8
0
 10
699.425526
 20
123.680813
 42
0.000000
  0
VERTEX
  8
0
 10
704.882053
 20
120.057883
 42
0.000000
  0
VERTEX
  8
0
 10
708.441026
 20
125.747654
 42
0.004129
  0
VERTEX
  8
0
 10
709.803628
 20
127.966608
 42
0.006246
  0
VERTEX
  8
0
 10
710.949274
 20
129.922120
 42
0.002716
  0
VERTEX
  8
0
 10
711.893904
 20
131.602879
 42
0.135928
  0
VERTEX
  8
0
 10
711.982033
 20
131.968712
 42
0.236617
  0
VERTEX
  8
0
 10
711.695479
 20
132.495128
 42
0.001459
  0
VERTEX
  8
0
 10
707.103749
 20
135.668270
 42
0.001915
  0
VERTEX
  8
0
 10
702.558615
 20
138.764108
 42
0.161739
  0
VERTEX
  8
0
 10
701.761615
 20
138.987621
 42
0.225334
  0
VERTEX
  8
0
 10
701.606114
 20
138.904570
 42
0.003198
  0
VERTEX
  8
0
 10
700.966077
 20
138.027828
 42
0.008142
  0
VERTEX
  8
0
 10
700.236645
 20
136.979510
 42
0.005187
  0
SEQEND
  0
POLYLINE
  8
0
 66
1
 70
1
  0
VERTEX
  8
0
 10
705.278421
 20
131.750000
 42
-0.044862
  0
VERTEX
  8
0
 10
706.166106
 20
130.947739
 42
-0.206818
  0
VERTEX
  8
0
 10
706.390960
 20
130.308745
 42
-0.132285
  0
VERTEX
  8
0
 10
706.121693
 20
129.529166
 42
-0.014944
  0
VERTEX
  8
0
 10
705.017262
 20
128.000000
 42
-0.016481
  0
VERTEX
  8
0
 10
703.824464
 20
126.549887
 42
-0.153143
  0
VERTEX
  8
0
 10
703.139487
 20
126.134090
 42
-0.220909
  0
VERTEX
  8
0
 10
702.468768
 20
126.265302
 42
-0.038442
  0
VERTEX
  8
0
 10
701.460117
 20
127.123308
 42
-0.039947
  0
VERTEX
  8
0
 10
700.639866
 20
128.079105
 42
-0.137774
  0
VERTEX
  8
0
 10
700.358344
 20
128.837245
 42
-0.128139
  0
VERTEX
  8
0
 10
700.502921
 20
129.663813
 42
-0.032561
  0
VERTEX
  8
0
 10
701.152953
 20
130.873308
 42
-0.024779
  0
VERTEX
  8
0
 10
702.214211
 20
132.398888
 42
-0.177855
  0
VERTEX
  8
0
 10
702.961157
 20
132.868666
 42
-0.187704
  0
VERTEX
  8
0
 10
703.811745
 20
132.729917
 42
-0.028118
  0
SEQEND
  0
POLYLINE
  8
0
 66
1
 70
1
  0
VERTEX
  8
0
 10
718.585169
 20
120.116023
 42
0.009164
  0
VERTEX
  8
0
 10
717.211897
 20
118.171525
 42
0.012556
  0
VERTEX
  8
0
 10
716.053143
 20
116.369505
 42
0.009340
  0
VERTEX
  8
0
 10
715.160772
 20
114.838300
 42
0.127939
  0
VERTEX
  8
0
 10
715.000000
 20
114.220269
 42
0.240745
  0
VERTEX
  8
0
 10
715.549742
 20
113.144693
 42
0.006602
  0
VERTEX
  8
0
 10
719.986806
 20
110.026386
 42
0.005660
  0
VERTEX
  8
0
 10
724.537960
 20
106.991841
 42
0.380742
  0
VERTEX
  8
0
 10
725.390063
 20
107.121356
 42
0.024116
  0
VERTEX
  8
0
 10
725.608341
 20
107.412004
 42
0.000454
  0
VERTEX
  8
0
 10
726.672909
 20
108.984859
 42
0.001108
  0
VERTEX
  8
0
 10
727.909274
 20
110.823890
 42
0.000741
  0
VERTEX
  8
0
 10
729.316235
 20
112.933483
 42
0.000000
  0
VERTEX
  8
0
 10
732.928389
 20
118.366967
 42
0.000000
  0
VERTEX
  8
0
 10
728.003644
 20
121.683483
 42
0.003989
  0
VERTEX
  8
0
 10
726.083420
 20
122.954491
 42
0.006053
  0
VERTEX
  8
0
 10
724.392099
 20
124.025773
 42
0.002558
  0
VERTEX
  8
0
 10
722.935585
 20
124.913556
 42
0.136406
  0
VERTEX
  8
0
 10
722.624619
 20
125.000000
 42
0.219615
  0
VERTEX
  8
0
 10
722.348471
 20
124.872561
 42
0.003757
  0
VERTEX
  8
0
 10
721.250639
 20
123.565332
 42
0.008803
  0
VERTEX
  8
0
 10
719.992146
 20
121.987989
 42
0.005650
  0
SEQEND
  0
POLYLINE
  8
0
 66
1
 70
1
  0
VERTEX
  8
0
 10
726.968197
 20
117.214816
 42
-0.133952
  0
VERTEX
  8
0
 10
726.623070
 20
116.140290
 42
-0.033431
  0
VERTEX
  8
0
 10
725.505672
 20
114.651782
 42
-0.031593
  0
VERTEX
  8
0
 10
724.223003
 20
113.339377
 42
-0.185508
  0
VERTEX
  8
0
 10
723.339757
 20
113.000000
 42
-0.133885
  0
VERTEX
  8
0
 10
721.903471
 20
113.391615
 42
-0.174436
  0
VERTEX
  8
0
 10
721.039296
 20
114.432247
 42
-0.145720
  0
VERTEX
  8
0
 10
720.951011
 20
115.946823
 42
-0.087437
  0
VERTEX
  8
0
 10
721.667462
 20
117.615235
 42
-0.032529
  0
VERTEX
  8
0
 10
722.540459
 20
118.775422
 42
-0.123429
  0
VERTEX
  8
0
 10
723.275918
 20
119.295018
 42
-0.155111
  0
VERTEX
  8
0
 10
724.070216
 20
119.344076
 42
-0.061405
  0
VERTEX
  8
0
 10
725.102219
 20
118.945294
 42
-0.027917
  0
VERTEX
  8
0
 10
725.826465
 20
118.504025
 42
-0.036192
  0
VERTEX
  8
0
 10
726.433184
 20
118.018006
 42
-0.039300
  0
VERTEX
  8
0
 10
726.858504
 20
117.556388
 42
-0.179491
  0
SEQEND
  0
POLYLINE
  8
0
 66
1
 70
1
  0
VERTEX
  8
0
 10
739.145754
 20
106.744838
 42
0.008700
  0
VERTEX
  8
0
 10
737.864799
 20
104.662945
 42
0.011989
  0
VERTEX
  8
0
 10
736.792534
 20
102.746921
 42
0.008714
  0
VERTEX
  8
0
 10
735.970982
 20
101.124773
 42
0.126880
  0
VERTEX
  8
0
 10
735.845010
 20
100.500000
 42
0.192364
  0
VERTEX
  8
0
 10
736.095204
 20
99.959516
 42
0.014893
  0
VERTEX
  8
0
 10
737.310618
 20
98.877518
 42
0.018668
  0
VERTEX
  8
0
 10
738.893219
 20
97.648555
 42
0.013108
  0
VERTEX
  8
0
 10
740.759186
 20
96.380914
 42
0.000000
  0
VERTEX
  8
0
 10
745.619861
 20
93.261827
 42
0.000000
  0
VERTEX
  8
0
 10
749.442253
 20
99.165257
 42
0.006476
  0
VERTEX
  8
0
 10
750.880282
 20
101.450535
 42
0.010657
  0
VERTEX
  8
0
 10
752.029511
 20
103.423738
 42
0.004499
  0
VERTEX
  8
0
 10
752.939093
 20
105.100335
 42
0.361560
  0
VERTEX
  8
0
 10
752.882323
 20
105.372290
 42
0.020305
  0
VERTEX
  8
0
 10
751.335051
 20
106.501684
 42
0.001962
  0
VERTEX
  8
0
 10
747.460833
 20
109.073311
 42
0.000384
  0
VERTEX
  8
0
 10
743.167967
 20
111.893898
 42
0.150286
  0
VERTEX
  8
0
 10
742.819825
 20
111.994838
 42
0.238428
  0
VERTEX
  8
0
 10
742.626724
 20
111.893260
 42
0.001954
  0
VERTEX
  8
0
 10
741.608639
 20
110.450521
 42
0.006399
  0
VERTEX
  8
0
 10
740.454652
 20
108.755789
 42
0.004008
  0
SEQEND
  0
POLYLINE
  8
0
 66
1
 70
1
  0
VERTEX
  8
0
 10
745.943144
 20
105.056301
 42
-0.079352
  0
VERTEX
  8
0
 10
746.609682
 20
104.468762
 42
-0.154256
  0
VERTEX
  8
0
 10
746.872715
 20
103.817479
 42
-0.102501
  0
VERTEX
  8
0
 10
746.761653
 20
102.944556
 42
-0.024177
  0
VERTEX
  8
0
 10
746.214583
 20
101.571613
 42
-0.040977
  0
VERTEX
  8
0
 10
745.232362
 20
99.813304
 42
-0.180181
  0
VERTEX
  8
0
 10
744.283383
 20
99.131632
 42
-0.225064
  0
VERTEX
  8
0
 10
743.261102
 20
99.313825
 42
-0.064829
  0
VERTEX
  8
0
 10
742.053051
 20
100.436078
 42
-0.065019
  0
VERTEX
  8
0
 10
741.552403
 20
101.229555
 42
-0.102377
  0
VERTEX
  8
0
 10
741.370208
 20
102.011316
 42
-0.089281
  0
VERTEX
  8
0
 10
741.503863
 20
102.877113
 42
-0.040058
  0
VERTEX
  8
0
 10
741.965790
 20
103.936078
 42
-0.036347
  0
VERTEX
  8
0
 10
742.843562
 20
105.323598
 42
-0.166395
  0
VERTEX
  8
0
 10
743.616928
 20
105.857590
 42
-0.171951
  0
VERTEX
  8
0
 10
744.539629
 20
105.796573
 42
-0.039398
  0
SEQEND
  0
POLYLINE
  8
0
 66
1
 70
1
  0
VERTEX
  8
0
 10
759.250000
 20
92.993648
 42
0.007758
  0
VERTEX
  8
0
 10
758.005046
 20
91.023592
 42
0.010742
  0
VERTEX
  8
0
 10
756.954687
 20
89.216750
 42
0.007535
  0
VERTEX
  8
0
 10
756.137859
 20
87.685427
 42
0.119299
  0
VERTEX
  8
0
 10
756.000000
 20
87.115860
 42
0.243377
  0
VERTEX
  8
0
 10
756.521759
 20
86.107438
 42
0.005837
  0
VERTEX
  8
0
 10
760.999781
 20
83.016299
 42
0.005008
  0
VERTEX
  8
0
 10
765.583308
 20
79.996969
 42
0.379519
  0
VERTEX
  8
0
 10
766.390063
 20
80.121356
 42
0.024116
  0
VERTEX
  8
0
 10
766.608341
 20
80.412004
 42
0.000454
  0
VERTEX
  8
0
 10
767.672909
 20
81.984859
 42
0.001108
  0
VERTEX
  8
0
 10
768.909274
 20
83.823890
 42
0.000741
  0
VERTEX
  8
0
 10
770.316235
 20
85.933483
 42
0.000000
  0
VERTEX
  8
0
 10
773.928389
 20
91.366967
 42
0.000000
  0
VERTEX
  8
0
 10
769.003644
 20
94.683483
 42
0.007138
  0
VERTEX
  8
0
 10
767.059537
 20
95.952761
 42
0.010149
  0
VERTEX
  8
0
 10
765.293643
 20
97.020495
 42
0.006539
  0
VERTEX
  8
0
 10
763.794698
 20
97.859830
 42
0.130770
  0
VERTEX
  8
0
 10
763.289450
 20
97.982033
 42
0.209599
  0
VERTEX
  8
0
 10
762.846252
 20
97.775560
 42
0.010235
  0
VERTEX
  8
0
 10
761.777213
 20
96.509283
 42
0.015168
  0
VERTEX
  8
0
 10
760.552585
 20
94.899487
 42
0.010228
  0
SEQEND
  0
POLYLINE
  8
0
 66
1
 70
1
  0
VERTEX
  8
0
 10
767.819288
 20
90.380346
 42
-0.422731
  0
VERTEX
  8
0
 10
767.970373
 20
89.774455
 42
-0.024703
  0
VERTEX
  8
0
 10
766.771225
 20
88.040012
 42
-0.026002
  0
VERTEX
  8
0
 10
765.362136
 20
86.388318
 42
-0.205966
  0
VERTEX
  8
0
 10
764.459453
 20
86.000000
 42
-0.125544
  0
VERTEX
  8
0
 10
762.947143
 20
86.385803
 42
-0.178900
  0
VERTEX
  8
0
 10
762.044759
 20
87.420538
 42
-0.151537
  0
VERTEX
  8
0
 10
761.949804
 20
88.941718
 42
-0.085607
  0
VERTEX
  8
0
 10
762.691710
 20
90.652243
 42
-0.025775
  0
VERTEX
  8
0
 10
763.590484
 20
91.880856
 42
-0.136247
  0
VERTEX
  8
0
 10
764.264580
 20
92.358904
 42
-0.191186
  0
VERTEX
  8
0
 10
764.960828
 20
92.336767
 42
-0.060203
  0
VERTEX
  8
0
 10
765.876467
 20
91.800454
 42
0.002058
  0
VERTEX
  8
0
 10
766.521564
 20
91.314105
 42
0.002672
  0
VERTEX
  8
0
 10
767.116878
 20
90.874058
 42
0.002002
  0
VERTEX
  8
0
 10
767.619080
 20
90.510050
 42
0.024171
  0
SEQEND
  0
POLYLINE
  8
0
 66
1
 70
1
  0
VERTEX
  8
0
 10
720.326041
 20
1215.515814
 42
0.116133
  0
VERTEX
  8
0
 10
718.950564
 20
1213.974344
 42
0.044164
  0
VERTEX
  8
0
 10
717.797242
 20
1211.313879
 42
0.029358
  0
VERTEX
  8
0
 10
716.724926
 20
1207.316461
 42
0.009560
  0
VERTEX
  8
0
 10
715.604696
 20
1201.305904
 42
0.060740
  0
VERTEX
  8
0
 10
715.508870
 20
1199.120175
 42
0.236204
  0
VERTEX
  8
0
 10
716.186534
 20
1197.993301
 42
0.100694
  0
VERTEX
  8
0
 10
717.949375
 20
1197.320174
 42
0.007359
  0
VERTEX
  8
0
 10
723.108584
 20
1196.543993
 42
0.000000
  0
VERTEX
  8
0
 10
727.717169
 20
1195.919867
 42
0.000000
  0
VERTEX
  8
0
 10
728.358584
 20
1200.599505
 42
0.015439
  0
VERTEX
  8
0
 10
728.947797
 20
1206.172142
 42
0.042158
  0
VERTEX
  8
0
 10
728.908997
 20
1210.131760
 42
0.062209
  0
VERTEX
  8
0
 10
728.276761
 20
1212.981474
 42
0.111159
  0
VERTEX
  8
0
 10
727.000000
 20
1215.000000
 42
0.049461
  0
VERTEX
  8
0
 10
725.308140
 20
1216.386587
 42
0.128343
  0
VERTEX
  8
0
 10
723.829911
 20
1216.896924
 42
0.125948
  0
VERTEX
  8
0
 10
722.272994
 20
1216.624150
 42
0.046783
  0
SEQEND
  0
POLYLINE
  8
0
 66
1
 70
1
  0
VERTEX
  8
0
 10
725.000000
 20
1208.022770
 42
-0.023333
  0
VERTEX
  8
0
 10
724.841641
 20
1204.631192
 42
-0.084785
  0
VERTEX
  8
0
 10
724.283785
 20
1202.554908
 42
-0.149494
  0
VERTEX
  8
0
 10
723.272931
 20
1201.421799
 42
-0.137244
  0
VERTEX
  8
0
 10
721.765203
 20
1201.000000
 42
-0.079295
  0
VERTEX
  8
0
 10
720.694361
 20
1201.170899
 42
-0.238252
  0
VERTEX
  8
0
 10
720.185408
 20
1201.678736
 42
-0.107993
  0
VERTEX
  8
0
 10
720.077172
 20
1202.720154
 42
-0.011744
  0
VERTEX
  8
0
 10
720.404037
 20
1205.125244
 42
-0.031114
  0
VERTEX
  8
0
 10
721.560274
 20
1210.277124
 42
-0.183341
  0
VERTEX
  8
0
 10
723.196708
 20
1212.449369
 42
-0.514278
  0
VERTEX
  8
0
 10
724.545834
 20
1211.898742
 42
-0.058388
  0
SEQEND
  0
POLYLINE
  8
0
 66
1
 70
1
  0
VERTEX
  8
0
 10
403.030345
 20
1084.719278
 42
0.022703
  0
VERTEX
  8
0
 10
400.207639
 20
1083.421834
 42
0.050305
  0
VERTEX
  8
0
 10
398.224157
 20
1082.131460
 42
0.056975
  0
VERTEX
  8
0
 10
396.691698
 20
1080.581361
 42
0.037724
  0
VERTEX
  8
0
 10
395.296795
 20
1078.500000
 42
0.066993
  0
VERTEX
  8
0
 10
393.715150
 20
1074.554254
 42
0.052269
  0
VERTEX
  8
0
 10
393.056280
 20
1069.978458
 42
0.052383
  0
VERTEX
  8
0
 10
393.360905
 20
1065.377118
 42
0.068177
  0
VERTEX
  8
0
 10
394.635327
 20
1061.356062
 42
0.108258
  0
VERTEX
  8
0
 10
398.136517
 20
1056.833097
 42
0.054352
  0
VERTEX
  8
0
 10
404.178213
 20
1052.807235
 42
0.045301
  0
VERTEX
  8
0
 10
412.268115
 20
1049.494650
 42
0.030274
  0
VERTEX
  8
0
 10
422.000000
 20
1047.138076
 42
0.005832
  0
VERTEX
  8
0
 10
426.699046
 20
1046.353767
 42
0.000161
  0
VERTEX
  8
0
 10
447.153125
 20
1043.191323
 42
0.000331
  0
VERTEX
  8
0
 10
471.207017
 20
1039.496548
 42
0.000227
  0
VERTEX
  8
0
 10
498.500000
 20
1035.335457
 42
0.001626
  0
VERTEX
  8
0
 10
550.597284
 20
1027.590195
 42
0.014655
  0
VERTEX
  8
0
 10
573.502188
 20
1024.943783
 42
0.034131
  0
VERTEX
  8
0
 10
586.798300
 20
1024.711250
 42
0.103593
  0
VERTEX
  8
0
 10
595.500000
 20
1027.000000
 42
0.069330
  0
VERTEX
  8
0
 10
599.518957
 20
1029.761847
 42
0.074188
  0
VERTEX
  8
0
 10
602.523626
 20
1033.461046
 42
0.072341
  0
VERTEX
  8
0
 10
604.371137
 20
1037.960341
 42
0.061377
  0
VERTEX
  8
0
 10
605.000000
 20
1043.064007
 42
0.112271
  0
VERTEX
  8
0
 10
603.605915
 20
1049.194301
 42
0.104160
  0
VERTEX
  8
0
 10
599.676437
 20
1054.312261
 42
0.077057
  0
VERTEX
  8
0
 10
592.903581
 20
1058.508005
 42
0.034802
  0
VERTEX
  8
0
 10
583.000000
 20
1061.914020
 42
0.023482
  0
VERTEX
  8
0
 10
577.824162
 20
1063.042750
 42
0.001213
  0
VERTEX
  8
0
 10
560.959375
 20
1065.856756
 42
0.001925
  0
VERTEX
  8
0
 10
540.880845
 20
1069.077628
 42
0.001396
  0
VERTEX
  8
0
 10
518.500000
 20
1072.515533
 42
0.000465
  0
VERTEX
  8
0
 10
444.373797
 20
1083.619732
 42
0.010617
  0
VERTEX
  8
0
 10
423.035243
 20
1086.334220
 42
0.039487
  0
VERTEX
  8
0
 10
411.636459
 20
1086.634811
 42
0.083413
  0
SEQEND
  0
POLYLINE
  8
0
 66
1
 70
1
  0
VERTEX
  8
0
 10
494.500000
 20
1072.045143
 42
-0.000262
  0
VERTEX
  8
0
 10
543.967586
 20
1064.564142
 42
-0.002458
  0
VERTEX
  8
0
 10
565.232859
 20
1061.229740
 42
-0.005123
  0
VERTEX
  8
0
 10
577.396659
 20
1059.133029
 42
-0.025945
  0
VERTEX
  8
0
 10
584.092509
 20
1057.545320
 42
-0.024540
  0
VERTEX
  8
0
 10
588.855812
 20
1055.893697
 42
-0.030077
  0
VERTEX
  8
0
 10
593.110890
 20
1053.875011
 42
-0.033434
  0
VERTEX
  8
0
 10
596.576236
 20
1051.654062
 42
-0.066971
  0
VERTEX
  8
0
 10
598.905474
 20
1049.393041
 42
-0.133330
  0
VERTEX
  8
0
 10
600.863083
 20
1044.781143
 42
-0.097148
  0
VERTEX
  8
0
 10
600.542212
 20
1039.193614
 42
-0.094412
  0
VERTEX
  8
0
 10
598.104044
 20
1034.005438
 42
-0.117021
  0
VERTEX
  8
0
 10
594.069302
 20
1030.535838
 42
-0.070027
  0
VERTEX
  8
0
 10
590.082623
 20
1029.137146
 42
-0.031130
  0
VERTEX
  8
0
 10
584.551129
 20
1028.383801
 42
-0.027816
  0
VERTEX
  8
0
 10
578.043746
 20
1028.269901
 42
-0.021748
  0
VERTEX
  8
0
 10
571.000000
 20
1028.845998
 42
-0.006252
  0
VERTEX
  8
0
 10
547.743583
 20
1032.066450
 42
-0.000536
  0
VERTEX
  8
0
 10
488.342837
 20
1041.115567
 42
-0.000181
  0
VERTEX
  8
0
 10
424.263892
 20
1050.971421
 42
-0.023943
  0
VERTEX
  8
0
 10
416.500000
 20
1052.552109
 42
-0.035507
  0
VERTEX
  8
0
 10
407.789112
 20
1055.435996
 42
-0.076856
  0
VERTEX
  8
0
 10
401.768289
 20
1059.078724
 42
-0.103785
  0
VERTEX
  8
0
 10
398.249611
 20
1063.552585
 42
-0.115414
  0
VERTEX
  8
0
 10
397.000000
 20
1068.894051
 42
-0.060452
  0
VERTEX
  8
0
 10
397.578375
 20
1073.660282
 42
-0.101108
  0
VERTEX
  8
0
 10
399.303110
 20
1077.295059
 42
-0.098039
  0
VERTEX
  8
0
 10
402.360090
 20
1080.035005
 42
-0.054188
  0
VERTEX
  8
0
 10
406.941601
 20
1082.119781
 42
-0.099144
  0
VERTEX
  8
0
 10
413.090522
 20
1082.868240
 42
-0.009511
  0
VERTEX
  8
0
 10
428.179674
 20
1081.422268
 42
-0.007323
  0
VERTEX
  8
0
 10
451.891962
 20
1078.341381
 42
-0.001430
  0
SEQEND
  0
POLYLINE
  8
0
 66
1
 70
1
  0
VERTEX
  8
0
 10
373.500000
 20
865.135062
 42
0.047021
  0
VERTEX
  8
0
 10
368.244508
 20
863.212113
 42
0.073702
  0
VERTEX
  8
0
 10
364.257948
 20
860.532067
 42
0.077939
  0
VERTEX
  8
0
 10
361.370333
 20
856.933497
 42
0.059507
  0
VERTEX
  8
0
 10
359.392918
 20
852.279648
 42
0.097176
  0
VERTEX
  8
0
 10
358.672273
 20
844.219118
 42
0.117667
  0
VERTEX
  8
0
 10
361.189391
 20
837.076830
 42
0.107079
  0
VERTEX
  8
0
 10
366.911927
 20
831.366163
 42
0.070000
  0
VERTEX
  8
0
 10
375.413646
 20
827.454301
 42
0.035286
  0
VERTEX
  8
0
 10
385.193849
 20
825.257731
 42
0.000287
  0
VERTEX
  8
0
 10
463.395465
 20
813.453938
 42
0.000267
  0
VERTEX
  8
0
 10
541.894305
 20
801.694297
 42
0.038099
  0
VERTEX
  8
0
 10
551.215475
 20
801.021962
 42
0.114891
  0
VERTEX
  8
0
 10
561.437143
 20
803.446971
 42
0.130046
  0
VERTEX
  8
0
 10
568.996804
 20
810.082060
 42
0.136157
  0
VERTEX
  8
0
 10
572.072950
 20
819.328947
 42
0.131309
  0
VERTEX
  8
0
 10
570.009231
 20
828.981906
 42
0.057191
  0
VERTEX
  8
0
 10
567.763209
 20
832.365592
 42
0.053274
  0
VERTEX
  8
0
 10
564.760009
 20
835.243461
 42
0.049433
  0
VERTEX
  8
0
 10
560.998942
 20
837.595479
 42
0.037839
  0
VERTEX
  8
0
 10
556.500000
 20
839.415564
 42
0.039360
  0
VERTEX
  8
0
 10
547.629315
 20
841.493596
 42
0.000281
  0
VERTEX
  8
0
 10
471.800834
 20
853.021304
 42
0.000436
  0
VERTEX
  8
0
 10
397.868455
 20
864.152353
 42
0.024409
  0
VERTEX
  8
0
 10
384.000000
 20
865.540403
 42
0.011162
  0
VERTEX
  8
0
 10
380.908595
 20
865.628913
 42
0.011222
  0
VERTEX
  8
0
 10
377.821875
 20
865.579084
 42
0.011095
  0
VERTEX
  8
0
 10
375.135663
 20
865.415629
 42
0.043484
  0
SEQEND
  0
POLYLINE
  8
0
 66
1
 70
1
  0
VERTEX
  8
0
 10
470.813818
 20
849.043967
 42
-0.000520
  0
VERTEX
  8
0
 10
501.480320
 20
844.371100
 42
-0.000808
  0
VERTEX
  8
0
 10
527.912018
 20
840.271659
 42
-0.000223
  0
VERTEX
  8
0
 10
550.941045
 20
836.651306
 42
-0.027715
  0
VERTEX
  8
0
 10
553.813818
 20
836.033608
 42
-0.085991
  0
VERTEX
  8
0
 10
561.391577
 20
832.477547
 42
-0.117735
  0
VERTEX
  8
0
 10
566.376270
 20
826.863396
 42
-0.129744
  0
VERTEX
  8
0
 10
568.001248
 20
820.035413
 42
-0.117502
  0
VERTEX
  8
0
 10
566.144664
 20
813.009323
 42
-0.088038
  0
VERTEX
  8
0
 10
563.721092
 20
809.936959
 42
-0.057980
  0
VERTEX
  8
0
 10
560.025892
 20
807.346336
 42
-0.056149
  0
VERTEX
  8
0
 10
555.681794
 20
805.593907
 42
-0.067919
  0
VERTEX
  8
0
 10
551.329766
 20
805.000000
 42
-0.037603
  0
VERTEX
  8
0
 10
540.255534
 20
805.834034
 42
-0.000377
  0
VERTEX
  8
0
 10
462.047584
 20
817.741649
 42
-0.000281
  0
VERTEX
  8
0
 10
382.708739
 20
829.928302
 42
-0.051307
  0
VERTEX
  8
0
 10
374.618624
 20
832.041501
 42
-0.060773
  0
VERTEX
  8
0
 10
368.871412
 20
835.029334
 42
-0.090645
  0
VERTEX
  8
0
 10
364.860831
 20
839.009682
 42
-0.100603
  0
VERTEX
  8
0
 10
362.783397
 20
843.817654
 42
-0.091727
  0
VERTEX
  8
0
 10
362.651604
 20
849.222713
 42
-0.107554
  0
VERTEX
  8
0
 10
364.875382
 20
854.908035
 42
-0.115542
  0
VERTEX
  8
0
 10
369.217637
 20
858.982563
 42
-0.094968
  0
VERTEX
  8
0
 10
375.664748
 20
861.220931
 42
-0.052933
  0
VERTEX
  8
0
 10
384.000000
 20
861.546453
 42
-0.018561
  0
VERTEX
  8
0
 10
389.387013
 20
860.984991
 42
-0.000516
  0
VERTEX
  8
0
 10
412.595309
 20
857.667087
 42
-0.001059
  0
VERTEX
  8
0
 10
439.879604
 20
853.678744
 42
-0.000727
  0
SEQEND
  0
ENDSEC
  0
EOF
