%TF.GenerationSoftware,KiCad,Pcbnew,5.1.10*%
%TF.CreationDate,2021-11-06T17:19:15+01:00*%
%TF.ProjectId,Teebeutel,54656562-6575-4746-956c-2e6b69636164,rev?*%
%TF.SameCoordinates,Original*%
%TF.FileFunction,Legend,Top*%
%TF.FilePolarity,Positive*%
%FSLAX46Y46*%
G04 Gerber Fmt 4.6, Leading zero omitted, Abs format (unit mm)*
G04 Created by KiCad (PCBNEW 5.1.10) date 2021-11-06 17:19:15*
%MOMM*%
%LPD*%
G01*
G04 APERTURE LIST*
%ADD10C,0.150000*%
%ADD11C,0.120000*%
%ADD12C,0.100000*%
%ADD13C,0.200000*%
%ADD14C,0.010000*%
G04 APERTURE END LIST*
D10*
X130510952Y-54853571D02*
X130177619Y-54853571D01*
X130177619Y-55377380D02*
X130177619Y-54377380D01*
X130653809Y-54377380D01*
X131034761Y-54377380D02*
X131034761Y-55186904D01*
X131082380Y-55282142D01*
X131130000Y-55329761D01*
X131225238Y-55377380D01*
X131415714Y-55377380D01*
X131510952Y-55329761D01*
X131558571Y-55282142D01*
X131606190Y-55186904D01*
X131606190Y-54377380D01*
X132558571Y-55377380D02*
X132082380Y-55377380D01*
X132082380Y-54377380D01*
X133368095Y-55377380D02*
X132891904Y-55377380D01*
X132891904Y-54377380D01*
X133891904Y-54901190D02*
X133891904Y-55377380D01*
X133558571Y-54377380D02*
X133891904Y-54901190D01*
X134225238Y-54377380D01*
X129534761Y-56932142D02*
X129487142Y-56979761D01*
X129344285Y-57027380D01*
X129249047Y-57027380D01*
X129106190Y-56979761D01*
X129010952Y-56884523D01*
X128963333Y-56789285D01*
X128915714Y-56598809D01*
X128915714Y-56455952D01*
X128963333Y-56265476D01*
X129010952Y-56170238D01*
X129106190Y-56075000D01*
X129249047Y-56027380D01*
X129344285Y-56027380D01*
X129487142Y-56075000D01*
X129534761Y-56122619D01*
X129963333Y-57027380D02*
X129963333Y-56027380D01*
X129963333Y-56503571D02*
X130534761Y-56503571D01*
X130534761Y-57027380D02*
X130534761Y-56027380D01*
X130963333Y-56741666D02*
X131439523Y-56741666D01*
X130868095Y-57027380D02*
X131201428Y-56027380D01*
X131534761Y-57027380D01*
X132439523Y-57027380D02*
X132106190Y-56551190D01*
X131868095Y-57027380D02*
X131868095Y-56027380D01*
X132249047Y-56027380D01*
X132344285Y-56075000D01*
X132391904Y-56122619D01*
X132439523Y-56217857D01*
X132439523Y-56360714D01*
X132391904Y-56455952D01*
X132344285Y-56503571D01*
X132249047Y-56551190D01*
X131868095Y-56551190D01*
X133391904Y-56075000D02*
X133296666Y-56027380D01*
X133153809Y-56027380D01*
X133010952Y-56075000D01*
X132915714Y-56170238D01*
X132868095Y-56265476D01*
X132820476Y-56455952D01*
X132820476Y-56598809D01*
X132868095Y-56789285D01*
X132915714Y-56884523D01*
X133010952Y-56979761D01*
X133153809Y-57027380D01*
X133249047Y-57027380D01*
X133391904Y-56979761D01*
X133439523Y-56932142D01*
X133439523Y-56598809D01*
X133249047Y-56598809D01*
X133868095Y-56503571D02*
X134201428Y-56503571D01*
X134344285Y-57027380D02*
X133868095Y-57027380D01*
X133868095Y-56027380D01*
X134344285Y-56027380D01*
X134772857Y-57027380D02*
X134772857Y-56027380D01*
X135010952Y-56027380D01*
X135153809Y-56075000D01*
X135249047Y-56170238D01*
X135296666Y-56265476D01*
X135344285Y-56455952D01*
X135344285Y-56598809D01*
X135296666Y-56789285D01*
X135249047Y-56884523D01*
X135153809Y-56979761D01*
X135010952Y-57027380D01*
X134772857Y-57027380D01*
X156965238Y-55357142D02*
X156917619Y-55404761D01*
X156774761Y-55452380D01*
X156679523Y-55452380D01*
X156536666Y-55404761D01*
X156441428Y-55309523D01*
X156393809Y-55214285D01*
X156346190Y-55023809D01*
X156346190Y-54880952D01*
X156393809Y-54690476D01*
X156441428Y-54595238D01*
X156536666Y-54500000D01*
X156679523Y-54452380D01*
X156774761Y-54452380D01*
X156917619Y-54500000D01*
X156965238Y-54547619D01*
X157393809Y-55452380D02*
X157393809Y-54452380D01*
X157393809Y-54928571D02*
X157965238Y-54928571D01*
X157965238Y-55452380D02*
X157965238Y-54452380D01*
X158393809Y-55166666D02*
X158870000Y-55166666D01*
X158298571Y-55452380D02*
X158631904Y-54452380D01*
X158965238Y-55452380D01*
X159870000Y-55452380D02*
X159536666Y-54976190D01*
X159298571Y-55452380D02*
X159298571Y-54452380D01*
X159679523Y-54452380D01*
X159774761Y-54500000D01*
X159822380Y-54547619D01*
X159870000Y-54642857D01*
X159870000Y-54785714D01*
X159822380Y-54880952D01*
X159774761Y-54928571D01*
X159679523Y-54976190D01*
X159298571Y-54976190D01*
X160822380Y-54500000D02*
X160727142Y-54452380D01*
X160584285Y-54452380D01*
X160441428Y-54500000D01*
X160346190Y-54595238D01*
X160298571Y-54690476D01*
X160250952Y-54880952D01*
X160250952Y-55023809D01*
X160298571Y-55214285D01*
X160346190Y-55309523D01*
X160441428Y-55404761D01*
X160584285Y-55452380D01*
X160679523Y-55452380D01*
X160822380Y-55404761D01*
X160870000Y-55357142D01*
X160870000Y-55023809D01*
X160679523Y-55023809D01*
X161298571Y-55452380D02*
X161298571Y-54452380D01*
X161774761Y-55452380D02*
X161774761Y-54452380D01*
X162346190Y-55452380D01*
X162346190Y-54452380D01*
X163346190Y-54500000D02*
X163250952Y-54452380D01*
X163108095Y-54452380D01*
X162965238Y-54500000D01*
X162870000Y-54595238D01*
X162822380Y-54690476D01*
X162774761Y-54880952D01*
X162774761Y-55023809D01*
X162822380Y-55214285D01*
X162870000Y-55309523D01*
X162965238Y-55404761D01*
X163108095Y-55452380D01*
X163203333Y-55452380D01*
X163346190Y-55404761D01*
X163393809Y-55357142D01*
X163393809Y-55023809D01*
X163203333Y-55023809D01*
X116773809Y-69202380D02*
X117392857Y-69202380D01*
X117059523Y-69583333D01*
X117202380Y-69583333D01*
X117297619Y-69630952D01*
X117345238Y-69678571D01*
X117392857Y-69773809D01*
X117392857Y-70011904D01*
X117345238Y-70107142D01*
X117297619Y-70154761D01*
X117202380Y-70202380D01*
X116916666Y-70202380D01*
X116821428Y-70154761D01*
X116773809Y-70107142D01*
X117821428Y-70107142D02*
X117869047Y-70154761D01*
X117821428Y-70202380D01*
X117773809Y-70154761D01*
X117821428Y-70107142D01*
X117821428Y-70202380D01*
X118202380Y-69202380D02*
X118869047Y-69202380D01*
X118440476Y-70202380D01*
X119107142Y-69202380D02*
X119440476Y-70202380D01*
X119773809Y-69202380D01*
X114345238Y-68452380D02*
X113869047Y-68452380D01*
X113869047Y-67452380D01*
X114678571Y-68452380D02*
X114678571Y-67785714D01*
X114678571Y-67452380D02*
X114630952Y-67500000D01*
X114678571Y-67547619D01*
X114726190Y-67500000D01*
X114678571Y-67452380D01*
X114678571Y-67547619D01*
X115154761Y-68452380D02*
X115154761Y-67452380D01*
X115535714Y-67452380D01*
X115630952Y-67500000D01*
X115678571Y-67547619D01*
X115726190Y-67642857D01*
X115726190Y-67785714D01*
X115678571Y-67880952D01*
X115630952Y-67928571D01*
X115535714Y-67976190D01*
X115154761Y-67976190D01*
X116297619Y-68452380D02*
X116202380Y-68404761D01*
X116154761Y-68357142D01*
X116107142Y-68261904D01*
X116107142Y-67976190D01*
X116154761Y-67880952D01*
X116202380Y-67833333D01*
X116297619Y-67785714D01*
X116440476Y-67785714D01*
X116535714Y-67833333D01*
X116583333Y-67880952D01*
X116630952Y-67976190D01*
X116630952Y-68261904D01*
X116583333Y-68357142D01*
X116535714Y-68404761D01*
X116440476Y-68452380D01*
X116297619Y-68452380D01*
X118154761Y-67928571D02*
X118297619Y-67976190D01*
X118345238Y-68023809D01*
X118392857Y-68119047D01*
X118392857Y-68261904D01*
X118345238Y-68357142D01*
X118297619Y-68404761D01*
X118202380Y-68452380D01*
X117821428Y-68452380D01*
X117821428Y-67452380D01*
X118154761Y-67452380D01*
X118250000Y-67500000D01*
X118297619Y-67547619D01*
X118345238Y-67642857D01*
X118345238Y-67738095D01*
X118297619Y-67833333D01*
X118250000Y-67880952D01*
X118154761Y-67928571D01*
X117821428Y-67928571D01*
X119250000Y-68452380D02*
X119250000Y-67928571D01*
X119202380Y-67833333D01*
X119107142Y-67785714D01*
X118916666Y-67785714D01*
X118821428Y-67833333D01*
X119250000Y-68404761D02*
X119154761Y-68452380D01*
X118916666Y-68452380D01*
X118821428Y-68404761D01*
X118773809Y-68309523D01*
X118773809Y-68214285D01*
X118821428Y-68119047D01*
X118916666Y-68071428D01*
X119154761Y-68071428D01*
X119250000Y-68023809D01*
X119583333Y-67785714D02*
X119964285Y-67785714D01*
X119726190Y-67452380D02*
X119726190Y-68309523D01*
X119773809Y-68404761D01*
X119869047Y-68452380D01*
X119964285Y-68452380D01*
X120154761Y-67785714D02*
X120535714Y-67785714D01*
X120297619Y-67452380D02*
X120297619Y-68309523D01*
X120345238Y-68404761D01*
X120440476Y-68452380D01*
X120535714Y-68452380D01*
X121250000Y-68404761D02*
X121154761Y-68452380D01*
X120964285Y-68452380D01*
X120869047Y-68404761D01*
X120821428Y-68309523D01*
X120821428Y-67928571D01*
X120869047Y-67833333D01*
X120964285Y-67785714D01*
X121154761Y-67785714D01*
X121250000Y-67833333D01*
X121297619Y-67928571D01*
X121297619Y-68023809D01*
X120821428Y-68119047D01*
X121726190Y-68452380D02*
X121726190Y-67785714D01*
X121726190Y-67976190D02*
X121773809Y-67880952D01*
X121821428Y-67833333D01*
X121916666Y-67785714D01*
X122011904Y-67785714D01*
X122250000Y-67785714D02*
X122488095Y-68452380D01*
X122726190Y-67785714D02*
X122488095Y-68452380D01*
X122392857Y-68690476D01*
X122345238Y-68738095D01*
X122250000Y-68785714D01*
X116619047Y-71321428D02*
X117380952Y-71321428D01*
X119119047Y-71321428D02*
X119880952Y-71321428D01*
X119500000Y-71702380D02*
X119500000Y-70940476D01*
D11*
X123250000Y-110000000D02*
X113250000Y-110000000D01*
X113250000Y-80000000D02*
X123250000Y-80000000D01*
X113250000Y-110000000D02*
X113250000Y-80000000D01*
X120750000Y-110000000D02*
X123250000Y-100000000D01*
X118250000Y-110000000D02*
X123250000Y-92500000D01*
X115750000Y-80000000D02*
X113250000Y-87500000D01*
X115750000Y-110000000D02*
X123250000Y-85000000D01*
X118250000Y-80000000D02*
X113250000Y-95000000D01*
X113250000Y-102500000D02*
X113250000Y-97500000D01*
X123250000Y-80000000D02*
X113250000Y-110000000D01*
X123250000Y-80000000D02*
X123250000Y-110000000D01*
X120750000Y-80000000D02*
X113250000Y-102500000D01*
X171250000Y-80000000D02*
X168750000Y-87500000D01*
X173750000Y-80000000D02*
X168750000Y-95000000D01*
X168750000Y-102500000D02*
X168750000Y-97500000D01*
X176250000Y-80000000D02*
X168750000Y-102500000D01*
X176250000Y-110000000D02*
X178750000Y-100000000D01*
X173750000Y-110000000D02*
X178750000Y-92500000D01*
X171250000Y-110000000D02*
X178750000Y-85000000D01*
X178750000Y-80000000D02*
X168750000Y-110000000D01*
X168750000Y-110000000D02*
X168750000Y-80000000D01*
X178750000Y-110000000D02*
X168750000Y-110000000D01*
X178750000Y-80000000D02*
X178750000Y-110000000D01*
X168750000Y-80000000D02*
X178750000Y-80000000D01*
%TO.C,R11*%
X125962742Y-143477500D02*
X126437258Y-143477500D01*
X125962742Y-144522500D02*
X126437258Y-144522500D01*
%TO.C,U8*%
X117800000Y-137810000D02*
X119600000Y-137810000D01*
X119600000Y-134590000D02*
X117150000Y-134590000D01*
%TO.C,U10*%
X123410000Y-129410000D02*
X123410000Y-128150000D01*
X123410000Y-122590000D02*
X123410000Y-123850000D01*
X119650000Y-129410000D02*
X123410000Y-129410000D01*
X117400000Y-122590000D02*
X123410000Y-122590000D01*
%TO.C,D12*%
X119236003Y-59512707D02*
X121963997Y-56587293D01*
X121963997Y-56587293D02*
X121318117Y-56326832D01*
X119236003Y-59512707D02*
X118965223Y-58850002D01*
X118965223Y-58850002D02*
X121318117Y-56326832D01*
X119101623Y-58703732D02*
X119420861Y-58727960D01*
X119420861Y-58727960D02*
X121228156Y-56789873D01*
X121228156Y-56789873D02*
X121181718Y-56473103D01*
X121963997Y-56587293D02*
X122493219Y-57559365D01*
X119236003Y-59512707D02*
X120242624Y-59972832D01*
X120242624Y-59972832D02*
X122493219Y-57559365D01*
%TO.C,D11*%
X174000000Y-149000000D02*
X170000000Y-149000000D01*
X170000000Y-149000000D02*
X170250000Y-149650000D01*
X174000000Y-149000000D02*
X173700000Y-149650000D01*
X173700000Y-149650000D02*
X170250000Y-149650000D01*
X173500000Y-149650000D02*
X173300000Y-149400000D01*
X173300000Y-149400000D02*
X170650000Y-149400000D01*
X170650000Y-149400000D02*
X170450000Y-149650000D01*
X170000000Y-149000000D02*
X170350000Y-147950000D01*
X174000000Y-149000000D02*
X173650000Y-147950000D01*
X173650000Y-147950000D02*
X170350000Y-147950000D01*
%TO.C,D10*%
X111000000Y-82000000D02*
X111000000Y-78000000D01*
X111000000Y-78000000D02*
X110350000Y-78250000D01*
X111000000Y-82000000D02*
X110350000Y-81700000D01*
X110350000Y-81700000D02*
X110350000Y-78250000D01*
X110350000Y-81500000D02*
X110600000Y-81300000D01*
X110600000Y-81300000D02*
X110600000Y-78650000D01*
X110600000Y-78650000D02*
X110350000Y-78450000D01*
X111000000Y-78000000D02*
X112050000Y-78350000D01*
X111000000Y-82000000D02*
X112050000Y-81650000D01*
X112050000Y-81650000D02*
X112050000Y-78350000D01*
%TO.C,D9*%
X181000000Y-138000000D02*
X181000000Y-142000000D01*
X181000000Y-142000000D02*
X181650000Y-141750000D01*
X181000000Y-138000000D02*
X181650000Y-138300000D01*
X181650000Y-138300000D02*
X181650000Y-141750000D01*
X181650000Y-138500000D02*
X181400000Y-138700000D01*
X181400000Y-138700000D02*
X181400000Y-141350000D01*
X181400000Y-141350000D02*
X181650000Y-141550000D01*
X181000000Y-142000000D02*
X179950000Y-141650000D01*
X181000000Y-138000000D02*
X179950000Y-138350000D01*
X179950000Y-138350000D02*
X179950000Y-141650000D01*
%TO.C,D8*%
X111000000Y-102000000D02*
X111000000Y-98000000D01*
X111000000Y-98000000D02*
X110350000Y-98250000D01*
X111000000Y-102000000D02*
X110350000Y-101700000D01*
X110350000Y-101700000D02*
X110350000Y-98250000D01*
X110350000Y-101500000D02*
X110600000Y-101300000D01*
X110600000Y-101300000D02*
X110600000Y-98650000D01*
X110600000Y-98650000D02*
X110350000Y-98450000D01*
X111000000Y-98000000D02*
X112050000Y-98350000D01*
X111000000Y-102000000D02*
X112050000Y-101650000D01*
X112050000Y-101650000D02*
X112050000Y-98350000D01*
%TO.C,D7*%
X181000000Y-118000000D02*
X181000000Y-122000000D01*
X181000000Y-122000000D02*
X181650000Y-121750000D01*
X181000000Y-118000000D02*
X181650000Y-118300000D01*
X181650000Y-118300000D02*
X181650000Y-121750000D01*
X181650000Y-118500000D02*
X181400000Y-118700000D01*
X181400000Y-118700000D02*
X181400000Y-121350000D01*
X181400000Y-121350000D02*
X181650000Y-121550000D01*
X181000000Y-122000000D02*
X179950000Y-121650000D01*
X181000000Y-118000000D02*
X179950000Y-118350000D01*
X179950000Y-118350000D02*
X179950000Y-121650000D01*
%TO.C,D6*%
X111000000Y-122000000D02*
X111000000Y-118000000D01*
X111000000Y-118000000D02*
X110350000Y-118250000D01*
X111000000Y-122000000D02*
X110350000Y-121700000D01*
X110350000Y-121700000D02*
X110350000Y-118250000D01*
X110350000Y-121500000D02*
X110600000Y-121300000D01*
X110600000Y-121300000D02*
X110600000Y-118650000D01*
X110600000Y-118650000D02*
X110350000Y-118450000D01*
X111000000Y-118000000D02*
X112050000Y-118350000D01*
X111000000Y-122000000D02*
X112050000Y-121650000D01*
X112050000Y-121650000D02*
X112050000Y-118350000D01*
%TO.C,D5*%
X181000000Y-98000000D02*
X181000000Y-102000000D01*
X181000000Y-102000000D02*
X181650000Y-101750000D01*
X181000000Y-98000000D02*
X181650000Y-98300000D01*
X181650000Y-98300000D02*
X181650000Y-101750000D01*
X181650000Y-98500000D02*
X181400000Y-98700000D01*
X181400000Y-98700000D02*
X181400000Y-101350000D01*
X181400000Y-101350000D02*
X181650000Y-101550000D01*
X181000000Y-102000000D02*
X179950000Y-101650000D01*
X181000000Y-98000000D02*
X179950000Y-98350000D01*
X179950000Y-98350000D02*
X179950000Y-101650000D01*
%TO.C,D4*%
X111000000Y-142000000D02*
X111000000Y-138000000D01*
X111000000Y-138000000D02*
X110350000Y-138250000D01*
X111000000Y-142000000D02*
X110350000Y-141700000D01*
X110350000Y-141700000D02*
X110350000Y-138250000D01*
X110350000Y-141500000D02*
X110600000Y-141300000D01*
X110600000Y-141300000D02*
X110600000Y-138650000D01*
X110600000Y-138650000D02*
X110350000Y-138450000D01*
X111000000Y-138000000D02*
X112050000Y-138350000D01*
X111000000Y-142000000D02*
X112050000Y-141650000D01*
X112050000Y-141650000D02*
X112050000Y-138350000D01*
%TO.C,D3*%
X181000000Y-78000000D02*
X181000000Y-82000000D01*
X181000000Y-82000000D02*
X181650000Y-81750000D01*
X181000000Y-78000000D02*
X181650000Y-78300000D01*
X181650000Y-78300000D02*
X181650000Y-81750000D01*
X181650000Y-78500000D02*
X181400000Y-78700000D01*
X181400000Y-78700000D02*
X181400000Y-81350000D01*
X181400000Y-81350000D02*
X181650000Y-81550000D01*
X181000000Y-82000000D02*
X179950000Y-81650000D01*
X181000000Y-78000000D02*
X179950000Y-78350000D01*
X179950000Y-78350000D02*
X179950000Y-81650000D01*
%TO.C,D2*%
X122000000Y-149000000D02*
X118000000Y-149000000D01*
X118000000Y-149000000D02*
X118250000Y-149650000D01*
X122000000Y-149000000D02*
X121700000Y-149650000D01*
X121700000Y-149650000D02*
X118250000Y-149650000D01*
X121500000Y-149650000D02*
X121300000Y-149400000D01*
X121300000Y-149400000D02*
X118650000Y-149400000D01*
X118650000Y-149400000D02*
X118450000Y-149650000D01*
X118000000Y-149000000D02*
X118350000Y-147950000D01*
X122000000Y-149000000D02*
X121650000Y-147950000D01*
X121650000Y-147950000D02*
X118350000Y-147950000D01*
%TO.C,D1*%
X172604971Y-58234784D02*
X175095029Y-61365216D01*
X175095029Y-61365216D02*
X175448096Y-60764930D01*
X172604971Y-58234784D02*
X173300420Y-58064932D01*
X173300420Y-58064932D02*
X175448096Y-60764930D01*
X173424923Y-58221453D02*
X173353774Y-58533604D01*
X173353774Y-58533604D02*
X175003438Y-60607515D01*
X175003438Y-60607515D02*
X175323593Y-60608408D01*
X175095029Y-61365216D02*
X174055411Y-61744944D01*
X172604971Y-58234784D02*
X172001112Y-59162337D01*
X172001112Y-59162337D02*
X174055411Y-61744944D01*
%TO.C,U9*%
X169400000Y-118010000D02*
X171200000Y-118010000D01*
X171200000Y-114790000D02*
X168750000Y-114790000D01*
%TO.C,U7*%
X125890000Y-67100000D02*
X125890000Y-68900000D01*
X129110000Y-68900000D02*
X129110000Y-66450000D01*
%TO.C,U4*%
X124700000Y-137100000D02*
X124700000Y-138790000D01*
D12*
X127300000Y-137200000D02*
X127300000Y-138200000D01*
D11*
%TO.C,U3*%
X147300000Y-69350000D02*
X147300000Y-67660000D01*
D12*
X144700000Y-69250000D02*
X144700000Y-68250000D01*
D11*
%TO.C,TP30*%
X164700000Y-60000000D02*
G75*
G03*
X164700000Y-60000000I-700000J0D01*
G01*
%TO.C,TP29*%
X167700000Y-78000000D02*
G75*
G03*
X167700000Y-78000000I-700000J0D01*
G01*
%TO.C,TP28*%
X174700000Y-77000000D02*
G75*
G03*
X174700000Y-77000000I-700000J0D01*
G01*
%TO.C,TP27*%
X125700000Y-78000000D02*
G75*
G03*
X125700000Y-78000000I-700000J0D01*
G01*
%TO.C,TP26*%
X166700000Y-93000000D02*
G75*
G03*
X166700000Y-93000000I-700000J0D01*
G01*
%TO.C,TP25*%
X126700000Y-93000000D02*
G75*
G03*
X126700000Y-93000000I-700000J0D01*
G01*
%TO.C,TP24*%
X126700000Y-97000000D02*
G75*
G03*
X126700000Y-97000000I-700000J0D01*
G01*
%TO.C,TP23*%
X118700000Y-113000000D02*
G75*
G03*
X118700000Y-113000000I-700000J0D01*
G01*
%TO.C,TP22*%
X113700000Y-113000000D02*
G75*
G03*
X113700000Y-113000000I-700000J0D01*
G01*
%TO.C,TP21*%
X135700000Y-63250000D02*
G75*
G03*
X135700000Y-63250000I-700000J0D01*
G01*
%TO.C,TP20*%
X138700000Y-94000000D02*
G75*
G03*
X138700000Y-94000000I-700000J0D01*
G01*
%TO.C,TP19*%
X166700000Y-99000000D02*
G75*
G03*
X166700000Y-99000000I-700000J0D01*
G01*
%TO.C,TP18*%
X176700000Y-142000000D02*
G75*
G03*
X176700000Y-142000000I-700000J0D01*
G01*
%TO.C,TP17*%
X166700000Y-111000000D02*
G75*
G03*
X166700000Y-111000000I-700000J0D01*
G01*
%TO.C,TP16*%
X127700000Y-105000000D02*
G75*
G03*
X127700000Y-105000000I-700000J0D01*
G01*
%TO.C,TP15*%
X124700000Y-117000000D02*
G75*
G03*
X124700000Y-117000000I-700000J0D01*
G01*
%TO.C,TP14*%
X163700000Y-148000000D02*
G75*
G03*
X163700000Y-148000000I-700000J0D01*
G01*
%TO.C,TP13*%
X163700000Y-136000000D02*
G75*
G03*
X163700000Y-136000000I-700000J0D01*
G01*
%TO.C,TP12*%
X162700000Y-132000000D02*
G75*
G03*
X162700000Y-132000000I-700000J0D01*
G01*
%TO.C,TP11*%
X141700000Y-77000000D02*
G75*
G03*
X141700000Y-77000000I-700000J0D01*
G01*
%TO.C,TP10*%
X160700000Y-71000000D02*
G75*
G03*
X160700000Y-71000000I-700000J0D01*
G01*
%TO.C,TP9*%
X158700000Y-64000000D02*
G75*
G03*
X158700000Y-64000000I-700000J0D01*
G01*
%TO.C,TP8*%
X156700000Y-77000000D02*
G75*
G03*
X156700000Y-77000000I-700000J0D01*
G01*
%TO.C,TP7*%
X162700000Y-140000000D02*
G75*
G03*
X162700000Y-140000000I-700000J0D01*
G01*
%TO.C,TP6*%
X124700000Y-113000000D02*
G75*
G03*
X124700000Y-113000000I-700000J0D01*
G01*
%TO.C,TP5*%
X138700000Y-98000000D02*
G75*
G03*
X138700000Y-98000000I-700000J0D01*
G01*
%TO.C,TP4*%
X118700000Y-117000000D02*
G75*
G03*
X118700000Y-117000000I-700000J0D01*
G01*
%TO.C,TP3*%
X126700000Y-109000000D02*
G75*
G03*
X126700000Y-109000000I-700000J0D01*
G01*
%TO.C,TP2*%
X120700000Y-146250000D02*
G75*
G03*
X120700000Y-146250000I-700000J0D01*
G01*
%TO.C,TP1*%
X162700000Y-144000000D02*
G75*
G03*
X162700000Y-144000000I-700000J0D01*
G01*
%TO.C,R25*%
X158762742Y-106477500D02*
X159237258Y-106477500D01*
X158762742Y-107522500D02*
X159237258Y-107522500D01*
%TO.C,R24*%
X157762742Y-113477500D02*
X158237258Y-113477500D01*
X157762742Y-114522500D02*
X158237258Y-114522500D01*
%TO.C,R23*%
X146762742Y-76477500D02*
X147237258Y-76477500D01*
X146762742Y-77522500D02*
X147237258Y-77522500D01*
%TO.C,R22*%
X131762742Y-104477500D02*
X132237258Y-104477500D01*
X131762742Y-105522500D02*
X132237258Y-105522500D01*
%TO.C,R21*%
X118987258Y-133022500D02*
X118512742Y-133022500D01*
X118987258Y-131977500D02*
X118512742Y-131977500D01*
%TO.C,R20*%
X118512742Y-130477500D02*
X118987258Y-130477500D01*
X118512742Y-131522500D02*
X118987258Y-131522500D01*
%TO.C,R19*%
X131892742Y-59477500D02*
X132367258Y-59477500D01*
X131892742Y-60522500D02*
X132367258Y-60522500D01*
%TO.C,R18*%
X159632742Y-59477500D02*
X160107258Y-59477500D01*
X159632742Y-60522500D02*
X160107258Y-60522500D01*
%TO.C,R17*%
X178762742Y-146477500D02*
X179237258Y-146477500D01*
X178762742Y-147522500D02*
X179237258Y-147522500D01*
%TO.C,R16*%
X129977500Y-68237258D02*
X129977500Y-67762742D01*
X131022500Y-68237258D02*
X131022500Y-67762742D01*
%TO.C,R15*%
X145762742Y-112477500D02*
X146237258Y-112477500D01*
X145762742Y-113522500D02*
X146237258Y-113522500D01*
%TO.C,R14*%
X164762742Y-104477500D02*
X165237258Y-104477500D01*
X164762742Y-105522500D02*
X165237258Y-105522500D01*
%TO.C,R13*%
X145762742Y-104477500D02*
X146237258Y-104477500D01*
X145762742Y-105522500D02*
X146237258Y-105522500D01*
%TO.C,R12*%
X132677500Y-138437258D02*
X132677500Y-137962742D01*
X133722500Y-138437258D02*
X133722500Y-137962742D01*
%TO.C,R10*%
X149722500Y-120562742D02*
X149722500Y-121037258D01*
X148677500Y-120562742D02*
X148677500Y-121037258D01*
%TO.C,R9*%
X144722500Y-120562742D02*
X144722500Y-121037258D01*
X143677500Y-120562742D02*
X143677500Y-121037258D01*
%TO.C,R8*%
X134077500Y-138437258D02*
X134077500Y-137962742D01*
X135122500Y-138437258D02*
X135122500Y-137962742D01*
%TO.C,R7*%
X149722500Y-68562742D02*
X149722500Y-69037258D01*
X148677500Y-68562742D02*
X148677500Y-69037258D01*
%TO.C,R6*%
X143322500Y-120562742D02*
X143322500Y-121037258D01*
X142277500Y-120562742D02*
X142277500Y-121037258D01*
%TO.C,R5*%
X145762742Y-116477500D02*
X146237258Y-116477500D01*
X145762742Y-117522500D02*
X146237258Y-117522500D01*
%TO.C,R4*%
X133762742Y-114477500D02*
X134237258Y-114477500D01*
X133762742Y-115522500D02*
X134237258Y-115522500D01*
%TO.C,R3*%
X150762742Y-71477500D02*
X151237258Y-71477500D01*
X150762742Y-72522500D02*
X151237258Y-72522500D01*
%TO.C,R2*%
X137762742Y-70477500D02*
X138237258Y-70477500D01*
X137762742Y-71522500D02*
X138237258Y-71522500D01*
%TO.C,R1*%
X145762742Y-108477500D02*
X146237258Y-108477500D01*
X145762742Y-109522500D02*
X146237258Y-109522500D01*
%TO.C,Q2*%
X139760000Y-115580000D02*
X139760000Y-114650000D01*
X139760000Y-112420000D02*
X139760000Y-113350000D01*
X139760000Y-112420000D02*
X137600000Y-112420000D01*
X139760000Y-115580000D02*
X138300000Y-115580000D01*
%TO.C,Q1*%
X151760000Y-116580000D02*
X151760000Y-115650000D01*
X151760000Y-113420000D02*
X151760000Y-114350000D01*
X151760000Y-113420000D02*
X149600000Y-113420000D01*
X151760000Y-116580000D02*
X150300000Y-116580000D01*
%TO.C,L1*%
X175397936Y-114640000D02*
X176602064Y-114640000D01*
X175397936Y-117360000D02*
X176602064Y-117360000D01*
%TO.C,J3*%
X120870000Y-75330000D02*
X120870000Y-72670000D01*
X118270000Y-75330000D02*
X120870000Y-75330000D01*
X118270000Y-72670000D02*
X120870000Y-72670000D01*
X118270000Y-75330000D02*
X118270000Y-72670000D01*
X117000000Y-75330000D02*
X115670000Y-75330000D01*
X115670000Y-75330000D02*
X115670000Y-74000000D01*
D13*
%TO.C,J2*%
X165100000Y-127400000D02*
G75*
G02*
X165100000Y-127600000I0J-100000D01*
G01*
X165100000Y-127600000D02*
G75*
G02*
X165100000Y-127400000I0J100000D01*
G01*
D12*
X167900000Y-137150000D02*
X175100000Y-137150000D01*
X177800000Y-137150000D02*
X180900000Y-137150000D01*
X180900000Y-137150000D02*
X180900000Y-122400000D01*
X180900000Y-122400000D02*
X177800000Y-122400000D01*
X175100000Y-122400000D02*
X167900000Y-122400000D01*
X166400000Y-123900000D02*
X166400000Y-126900000D01*
D13*
X165100000Y-127600000D02*
X165100000Y-127600000D01*
X165100000Y-127400000D02*
X165100000Y-127400000D01*
D11*
%TO.C,J1*%
X137590000Y-49880000D02*
X154230000Y-49880000D01*
X137545000Y-49880000D02*
X137545000Y-57490000D01*
X154275000Y-49880000D02*
X154275000Y-57490000D01*
X137590000Y-65850000D02*
X154275000Y-65850000D01*
X137545000Y-65850000D02*
X137545000Y-60290000D01*
X154275000Y-65850000D02*
X154275000Y-60290000D01*
X137350000Y-57290000D02*
X136850000Y-57790000D01*
X136850000Y-57790000D02*
X136850000Y-56790000D01*
X136850000Y-56790000D02*
X137350000Y-57290000D01*
%TO.C,D17*%
X135600000Y-106350000D02*
X135600000Y-109650000D01*
X135600000Y-109650000D02*
X141000000Y-109650000D01*
X135600000Y-106350000D02*
X141000000Y-106350000D01*
%TO.C,D16*%
X128850000Y-143400000D02*
X128850000Y-144600000D01*
X130700000Y-143400000D02*
X128850000Y-143400000D01*
X130700000Y-144600000D02*
X128850000Y-144600000D01*
%TO.C,D15*%
X128850000Y-114400000D02*
X128850000Y-115600000D01*
X130700000Y-114400000D02*
X128850000Y-114400000D01*
X130700000Y-115600000D02*
X128850000Y-115600000D01*
%TO.C,D14*%
X133730000Y-50915000D02*
X129845000Y-50915000D01*
X129845000Y-50915000D02*
X129845000Y-54085000D01*
X129845000Y-54085000D02*
X133730000Y-54085000D01*
%TO.C,D13*%
X161470000Y-50915000D02*
X157585000Y-50915000D01*
X157585000Y-50915000D02*
X157585000Y-54085000D01*
X157585000Y-54085000D02*
X161470000Y-54085000D01*
%TO.C,C32*%
X166859420Y-144490000D02*
X167140580Y-144490000D01*
X166859420Y-145510000D02*
X167140580Y-145510000D01*
%TO.C,C31*%
X132859420Y-92490000D02*
X133140580Y-92490000D01*
X132859420Y-93510000D02*
X133140580Y-93510000D01*
%TO.C,C30*%
X126859420Y-147490000D02*
X127140580Y-147490000D01*
X126859420Y-148510000D02*
X127140580Y-148510000D01*
%TO.C,C29*%
X111859420Y-145490000D02*
X112140580Y-145490000D01*
X111859420Y-146510000D02*
X112140580Y-146510000D01*
%TO.C,C28*%
X167859420Y-55490000D02*
X168140580Y-55490000D01*
X167859420Y-56510000D02*
X168140580Y-56510000D01*
%TO.C,C27*%
X122010000Y-135959420D02*
X122010000Y-136240580D01*
X120990000Y-135959420D02*
X120990000Y-136240580D01*
%TO.C,C26*%
X166859420Y-70490000D02*
X167140580Y-70490000D01*
X166859420Y-71510000D02*
X167140580Y-71510000D01*
%TO.C,C25*%
X136859420Y-76490000D02*
X137140580Y-76490000D01*
X136859420Y-77510000D02*
X137140580Y-77510000D01*
%TO.C,C24*%
X163859420Y-114490000D02*
X164140580Y-114490000D01*
X163859420Y-115510000D02*
X164140580Y-115510000D01*
%TO.C,C23*%
X155859420Y-70490000D02*
X156140580Y-70490000D01*
X155859420Y-71510000D02*
X156140580Y-71510000D01*
%TO.C,C22*%
X132859420Y-71490000D02*
X133140580Y-71490000D01*
X132859420Y-72510000D02*
X133140580Y-72510000D01*
%TO.C,C21*%
X132859420Y-96490000D02*
X133140580Y-96490000D01*
X132859420Y-97510000D02*
X133140580Y-97510000D01*
%TO.C,C20*%
X121609420Y-130490000D02*
X121890580Y-130490000D01*
X121609420Y-131510000D02*
X121890580Y-131510000D01*
%TO.C,C19*%
X151859420Y-76490000D02*
X152140580Y-76490000D01*
X151859420Y-77510000D02*
X152140580Y-77510000D01*
%TO.C,C18*%
X123760000Y-73859420D02*
X123760000Y-74140580D01*
X122740000Y-73859420D02*
X122740000Y-74140580D01*
%TO.C,C17*%
X124240000Y-68140580D02*
X124240000Y-67859420D01*
X125260000Y-68140580D02*
X125260000Y-67859420D01*
%TO.C,C16*%
X152859420Y-107490000D02*
X153140580Y-107490000D01*
X152859420Y-108510000D02*
X153140580Y-108510000D01*
%TO.C,C15*%
X146859420Y-95490000D02*
X147140580Y-95490000D01*
X146859420Y-96510000D02*
X147140580Y-96510000D01*
%TO.C,C14*%
X167859420Y-59490000D02*
X168140580Y-59490000D01*
X167859420Y-60510000D02*
X168140580Y-60510000D01*
%TO.C,C13*%
X141859420Y-95490000D02*
X142140580Y-95490000D01*
X141859420Y-96510000D02*
X142140580Y-96510000D01*
%TO.C,C12*%
X171859420Y-70490000D02*
X172140580Y-70490000D01*
X171859420Y-71510000D02*
X172140580Y-71510000D01*
%TO.C,C11*%
X162859420Y-63490000D02*
X163140580Y-63490000D01*
X162859420Y-64510000D02*
X163140580Y-64510000D01*
%TO.C,C10*%
X151859420Y-95490000D02*
X152140580Y-95490000D01*
X151859420Y-96510000D02*
X152140580Y-96510000D01*
%TO.C,C9*%
X156859420Y-95490000D02*
X157140580Y-95490000D01*
X156859420Y-96510000D02*
X157140580Y-96510000D01*
%TO.C,C8*%
X115859420Y-141490000D02*
X116140580Y-141490000D01*
X115859420Y-142510000D02*
X116140580Y-142510000D01*
%TO.C,C7*%
X125859420Y-58490000D02*
X126140580Y-58490000D01*
X125859420Y-59510000D02*
X126140580Y-59510000D01*
%TO.C,C6*%
X172859420Y-64490000D02*
X173140580Y-64490000D01*
X172859420Y-65510000D02*
X173140580Y-65510000D01*
%TO.C,C5*%
X167859420Y-63490000D02*
X168140580Y-63490000D01*
X167859420Y-64510000D02*
X168140580Y-64510000D01*
%TO.C,C4*%
X120859420Y-141490000D02*
X121140580Y-141490000D01*
X120859420Y-142510000D02*
X121140580Y-142510000D01*
%TO.C,C3*%
X120859420Y-62490000D02*
X121140580Y-62490000D01*
X120859420Y-63510000D02*
X121140580Y-63510000D01*
%TO.C,C2*%
X165859420Y-51490000D02*
X166140580Y-51490000D01*
X165859420Y-52510000D02*
X166140580Y-52510000D01*
%TO.C,C1*%
X171859420Y-144490000D02*
X172140580Y-144490000D01*
X171859420Y-145510000D02*
X172140580Y-145510000D01*
D14*
%TO.C,G\u002A\u002A\u002A*%
G36*
X142184619Y-97716545D02*
G01*
X142263157Y-97735129D01*
X142338371Y-97767524D01*
X142413021Y-97815060D01*
X142489862Y-97879069D01*
X142530553Y-97918254D01*
X142625403Y-98025611D01*
X142713568Y-98150594D01*
X142794615Y-98292318D01*
X142868112Y-98449897D01*
X142933626Y-98622447D01*
X142990726Y-98809082D01*
X143018107Y-98916244D01*
X143049756Y-99048758D01*
X143183012Y-99081263D01*
X143388107Y-99137530D01*
X143575911Y-99202036D01*
X143746321Y-99274732D01*
X143899235Y-99355567D01*
X144034550Y-99444490D01*
X144152162Y-99541450D01*
X144186083Y-99574207D01*
X144258098Y-99653567D01*
X144313090Y-99730615D01*
X144352842Y-99808347D01*
X144379134Y-99889763D01*
X144382534Y-99904849D01*
X144392641Y-99998360D01*
X144383658Y-100091531D01*
X144356030Y-100183779D01*
X144310204Y-100274523D01*
X144246627Y-100363181D01*
X144165745Y-100449172D01*
X144068005Y-100531913D01*
X143953852Y-100610822D01*
X143823734Y-100685319D01*
X143758743Y-100717896D01*
X143719278Y-100735799D01*
X143670169Y-100756423D01*
X143614309Y-100778722D01*
X143554594Y-100801652D01*
X143493919Y-100824168D01*
X143435179Y-100845223D01*
X143381269Y-100863772D01*
X143335083Y-100878771D01*
X143299516Y-100889173D01*
X143277465Y-100893934D01*
X143271960Y-100893669D01*
X143271482Y-100883317D01*
X143273622Y-100856505D01*
X143278057Y-100816092D01*
X143284463Y-100764936D01*
X143292517Y-100705891D01*
X143295911Y-100682190D01*
X143326038Y-100474528D01*
X143360230Y-100463062D01*
X143500490Y-100412565D01*
X143621655Y-100361437D01*
X143724167Y-100309362D01*
X143808469Y-100256026D01*
X143875000Y-100201113D01*
X143924203Y-100144310D01*
X143956519Y-100085302D01*
X143971978Y-100026932D01*
X143970874Y-99964500D01*
X143950697Y-99902782D01*
X143911912Y-99842207D01*
X143854983Y-99783203D01*
X143780372Y-99726197D01*
X143688545Y-99671618D01*
X143579964Y-99619893D01*
X143493033Y-99585164D01*
X143455070Y-99571955D01*
X143408380Y-99557105D01*
X143356340Y-99541528D01*
X143302326Y-99526139D01*
X143249717Y-99511853D01*
X143201889Y-99499583D01*
X143162221Y-99490245D01*
X143134088Y-99484754D01*
X143120869Y-99484023D01*
X143120468Y-99484274D01*
X143119504Y-99495218D01*
X143120386Y-99521227D01*
X143122903Y-99557932D01*
X143125326Y-99585553D01*
X143139936Y-99801814D01*
X143143690Y-100023393D01*
X143136938Y-100247407D01*
X143120032Y-100470974D01*
X143093323Y-100691211D01*
X143057162Y-100905235D01*
X143011900Y-101110163D01*
X142957888Y-101303112D01*
X142895477Y-101481200D01*
X142894015Y-101484923D01*
X142827754Y-101638658D01*
X142755902Y-101778056D01*
X142679075Y-101902357D01*
X142597891Y-102010799D01*
X142512964Y-102102620D01*
X142424912Y-102177059D01*
X142334350Y-102233355D01*
X142263828Y-102263675D01*
X142182112Y-102284360D01*
X142097556Y-102291901D01*
X142017306Y-102285811D01*
X141997423Y-102281794D01*
X141913689Y-102255779D01*
X141834805Y-102217125D01*
X141757788Y-102163974D01*
X141679652Y-102094464D01*
X141652122Y-102066588D01*
X141562643Y-101961231D01*
X141478809Y-101837592D01*
X141400896Y-101696174D01*
X141329182Y-101537481D01*
X141263942Y-101362018D01*
X141261087Y-101353509D01*
X141242958Y-101298342D01*
X141227515Y-101249636D01*
X141215657Y-101210369D01*
X141208280Y-101183517D01*
X141206284Y-101172057D01*
X141206330Y-101171960D01*
X141216683Y-101171482D01*
X141243492Y-101173627D01*
X141283898Y-101178068D01*
X141335042Y-101184482D01*
X141394065Y-101192546D01*
X141417531Y-101195911D01*
X141624916Y-101226038D01*
X141660406Y-101328615D01*
X141710142Y-101459655D01*
X141762515Y-101573189D01*
X141817276Y-101668957D01*
X141874179Y-101746697D01*
X141932976Y-101806151D01*
X141993422Y-101847057D01*
X142055267Y-101869155D01*
X142118266Y-101872186D01*
X142166561Y-101861644D01*
X142225650Y-101834503D01*
X142281184Y-101792957D01*
X142334213Y-101735816D01*
X142385790Y-101661894D01*
X142436965Y-101570003D01*
X142452445Y-101538653D01*
X142514354Y-101393492D01*
X142568620Y-101230970D01*
X142615278Y-101050937D01*
X142654363Y-100853244D01*
X142685911Y-100637744D01*
X142701876Y-100493346D01*
X142708033Y-100414908D01*
X142712899Y-100321126D01*
X142716453Y-100216150D01*
X142718673Y-100104132D01*
X142719537Y-99989226D01*
X142719024Y-99875581D01*
X142717112Y-99767352D01*
X142713779Y-99668689D01*
X142709003Y-99583745D01*
X142706769Y-99555500D01*
X142702225Y-99504444D01*
X142698192Y-99460933D01*
X142695000Y-99428370D01*
X142692976Y-99410159D01*
X142692502Y-99407497D01*
X142682801Y-99406167D01*
X142657037Y-99403472D01*
X142618615Y-99399747D01*
X142570937Y-99395328D01*
X142544500Y-99392945D01*
X142477065Y-99388334D01*
X142391583Y-99384870D01*
X142289510Y-99382586D01*
X142172306Y-99381517D01*
X142053553Y-99381628D01*
X141709144Y-99383399D01*
X141713856Y-99361988D01*
X141716676Y-99345762D01*
X141721651Y-99313671D01*
X141728263Y-99269207D01*
X141735992Y-99215858D01*
X141743936Y-99159846D01*
X141752375Y-99102352D01*
X141760544Y-99051469D01*
X141767872Y-99010394D01*
X141773789Y-98982323D01*
X141777704Y-98970474D01*
X141789823Y-98967842D01*
X141818826Y-98965691D01*
X141862064Y-98964012D01*
X141916890Y-98962799D01*
X141980655Y-98962043D01*
X142050710Y-98961737D01*
X142124408Y-98961874D01*
X142199100Y-98962447D01*
X142272138Y-98963447D01*
X142340873Y-98964867D01*
X142402657Y-98966701D01*
X142454842Y-98968940D01*
X142494779Y-98971577D01*
X142504694Y-98972520D01*
X142548135Y-98976715D01*
X142583884Y-98979396D01*
X142607810Y-98980304D01*
X142615742Y-98979514D01*
X142614996Y-98969026D01*
X142610019Y-98943125D01*
X142601560Y-98905290D01*
X142590374Y-98859001D01*
X142585451Y-98839470D01*
X142545601Y-98699230D01*
X142501200Y-98572435D01*
X142452761Y-98459839D01*
X142400793Y-98362200D01*
X142345807Y-98280273D01*
X142288314Y-98214814D01*
X142228826Y-98166580D01*
X142167853Y-98136327D01*
X142105905Y-98124810D01*
X142102547Y-98124736D01*
X142061854Y-98130459D01*
X142014160Y-98146629D01*
X141966720Y-98170336D01*
X141934730Y-98192053D01*
X141883456Y-98241783D01*
X141832084Y-98309079D01*
X141781632Y-98392000D01*
X141733123Y-98488607D01*
X141687577Y-98596958D01*
X141646015Y-98715114D01*
X141627267Y-98776503D01*
X141596395Y-98891053D01*
X141569293Y-99010067D01*
X141545548Y-99136165D01*
X141524748Y-99271964D01*
X141506481Y-99420085D01*
X141490332Y-99583147D01*
X141479559Y-99714250D01*
X141473426Y-99794846D01*
X141938701Y-99794846D01*
X141601768Y-100131885D01*
X141264836Y-100468923D01*
X140930124Y-100134327D01*
X140595412Y-99799730D01*
X141053174Y-99794496D01*
X141058318Y-99733613D01*
X141072180Y-99580621D01*
X141086669Y-99443974D01*
X141102254Y-99320479D01*
X141119404Y-99206945D01*
X141138588Y-99100177D01*
X141160276Y-98996984D01*
X141177150Y-98925367D01*
X141228625Y-98736877D01*
X141286975Y-98562009D01*
X141351791Y-98401397D01*
X141422668Y-98255674D01*
X141499197Y-98125474D01*
X141580973Y-98011429D01*
X141667587Y-97914173D01*
X141758634Y-97834338D01*
X141853707Y-97772559D01*
X141943692Y-97732455D01*
X141984603Y-97720214D01*
X142025780Y-97713296D01*
X142075123Y-97710589D01*
X142100000Y-97710439D01*
X142184619Y-97716545D01*
G37*
X142184619Y-97716545D02*
X142263157Y-97735129D01*
X142338371Y-97767524D01*
X142413021Y-97815060D01*
X142489862Y-97879069D01*
X142530553Y-97918254D01*
X142625403Y-98025611D01*
X142713568Y-98150594D01*
X142794615Y-98292318D01*
X142868112Y-98449897D01*
X142933626Y-98622447D01*
X142990726Y-98809082D01*
X143018107Y-98916244D01*
X143049756Y-99048758D01*
X143183012Y-99081263D01*
X143388107Y-99137530D01*
X143575911Y-99202036D01*
X143746321Y-99274732D01*
X143899235Y-99355567D01*
X144034550Y-99444490D01*
X144152162Y-99541450D01*
X144186083Y-99574207D01*
X144258098Y-99653567D01*
X144313090Y-99730615D01*
X144352842Y-99808347D01*
X144379134Y-99889763D01*
X144382534Y-99904849D01*
X144392641Y-99998360D01*
X144383658Y-100091531D01*
X144356030Y-100183779D01*
X144310204Y-100274523D01*
X144246627Y-100363181D01*
X144165745Y-100449172D01*
X144068005Y-100531913D01*
X143953852Y-100610822D01*
X143823734Y-100685319D01*
X143758743Y-100717896D01*
X143719278Y-100735799D01*
X143670169Y-100756423D01*
X143614309Y-100778722D01*
X143554594Y-100801652D01*
X143493919Y-100824168D01*
X143435179Y-100845223D01*
X143381269Y-100863772D01*
X143335083Y-100878771D01*
X143299516Y-100889173D01*
X143277465Y-100893934D01*
X143271960Y-100893669D01*
X143271482Y-100883317D01*
X143273622Y-100856505D01*
X143278057Y-100816092D01*
X143284463Y-100764936D01*
X143292517Y-100705891D01*
X143295911Y-100682190D01*
X143326038Y-100474528D01*
X143360230Y-100463062D01*
X143500490Y-100412565D01*
X143621655Y-100361437D01*
X143724167Y-100309362D01*
X143808469Y-100256026D01*
X143875000Y-100201113D01*
X143924203Y-100144310D01*
X143956519Y-100085302D01*
X143971978Y-100026932D01*
X143970874Y-99964500D01*
X143950697Y-99902782D01*
X143911912Y-99842207D01*
X143854983Y-99783203D01*
X143780372Y-99726197D01*
X143688545Y-99671618D01*
X143579964Y-99619893D01*
X143493033Y-99585164D01*
X143455070Y-99571955D01*
X143408380Y-99557105D01*
X143356340Y-99541528D01*
X143302326Y-99526139D01*
X143249717Y-99511853D01*
X143201889Y-99499583D01*
X143162221Y-99490245D01*
X143134088Y-99484754D01*
X143120869Y-99484023D01*
X143120468Y-99484274D01*
X143119504Y-99495218D01*
X143120386Y-99521227D01*
X143122903Y-99557932D01*
X143125326Y-99585553D01*
X143139936Y-99801814D01*
X143143690Y-100023393D01*
X143136938Y-100247407D01*
X143120032Y-100470974D01*
X143093323Y-100691211D01*
X143057162Y-100905235D01*
X143011900Y-101110163D01*
X142957888Y-101303112D01*
X142895477Y-101481200D01*
X142894015Y-101484923D01*
X142827754Y-101638658D01*
X142755902Y-101778056D01*
X142679075Y-101902357D01*
X142597891Y-102010799D01*
X142512964Y-102102620D01*
X142424912Y-102177059D01*
X142334350Y-102233355D01*
X142263828Y-102263675D01*
X142182112Y-102284360D01*
X142097556Y-102291901D01*
X142017306Y-102285811D01*
X141997423Y-102281794D01*
X141913689Y-102255779D01*
X141834805Y-102217125D01*
X141757788Y-102163974D01*
X141679652Y-102094464D01*
X141652122Y-102066588D01*
X141562643Y-101961231D01*
X141478809Y-101837592D01*
X141400896Y-101696174D01*
X141329182Y-101537481D01*
X141263942Y-101362018D01*
X141261087Y-101353509D01*
X141242958Y-101298342D01*
X141227515Y-101249636D01*
X141215657Y-101210369D01*
X141208280Y-101183517D01*
X141206284Y-101172057D01*
X141206330Y-101171960D01*
X141216683Y-101171482D01*
X141243492Y-101173627D01*
X141283898Y-101178068D01*
X141335042Y-101184482D01*
X141394065Y-101192546D01*
X141417531Y-101195911D01*
X141624916Y-101226038D01*
X141660406Y-101328615D01*
X141710142Y-101459655D01*
X141762515Y-101573189D01*
X141817276Y-101668957D01*
X141874179Y-101746697D01*
X141932976Y-101806151D01*
X141993422Y-101847057D01*
X142055267Y-101869155D01*
X142118266Y-101872186D01*
X142166561Y-101861644D01*
X142225650Y-101834503D01*
X142281184Y-101792957D01*
X142334213Y-101735816D01*
X142385790Y-101661894D01*
X142436965Y-101570003D01*
X142452445Y-101538653D01*
X142514354Y-101393492D01*
X142568620Y-101230970D01*
X142615278Y-101050937D01*
X142654363Y-100853244D01*
X142685911Y-100637744D01*
X142701876Y-100493346D01*
X142708033Y-100414908D01*
X142712899Y-100321126D01*
X142716453Y-100216150D01*
X142718673Y-100104132D01*
X142719537Y-99989226D01*
X142719024Y-99875581D01*
X142717112Y-99767352D01*
X142713779Y-99668689D01*
X142709003Y-99583745D01*
X142706769Y-99555500D01*
X142702225Y-99504444D01*
X142698192Y-99460933D01*
X142695000Y-99428370D01*
X142692976Y-99410159D01*
X142692502Y-99407497D01*
X142682801Y-99406167D01*
X142657037Y-99403472D01*
X142618615Y-99399747D01*
X142570937Y-99395328D01*
X142544500Y-99392945D01*
X142477065Y-99388334D01*
X142391583Y-99384870D01*
X142289510Y-99382586D01*
X142172306Y-99381517D01*
X142053553Y-99381628D01*
X141709144Y-99383399D01*
X141713856Y-99361988D01*
X141716676Y-99345762D01*
X141721651Y-99313671D01*
X141728263Y-99269207D01*
X141735992Y-99215858D01*
X141743936Y-99159846D01*
X141752375Y-99102352D01*
X141760544Y-99051469D01*
X141767872Y-99010394D01*
X141773789Y-98982323D01*
X141777704Y-98970474D01*
X141789823Y-98967842D01*
X141818826Y-98965691D01*
X141862064Y-98964012D01*
X141916890Y-98962799D01*
X141980655Y-98962043D01*
X142050710Y-98961737D01*
X142124408Y-98961874D01*
X142199100Y-98962447D01*
X142272138Y-98963447D01*
X142340873Y-98964867D01*
X142402657Y-98966701D01*
X142454842Y-98968940D01*
X142494779Y-98971577D01*
X142504694Y-98972520D01*
X142548135Y-98976715D01*
X142583884Y-98979396D01*
X142607810Y-98980304D01*
X142615742Y-98979514D01*
X142614996Y-98969026D01*
X142610019Y-98943125D01*
X142601560Y-98905290D01*
X142590374Y-98859001D01*
X142585451Y-98839470D01*
X142545601Y-98699230D01*
X142501200Y-98572435D01*
X142452761Y-98459839D01*
X142400793Y-98362200D01*
X142345807Y-98280273D01*
X142288314Y-98214814D01*
X142228826Y-98166580D01*
X142167853Y-98136327D01*
X142105905Y-98124810D01*
X142102547Y-98124736D01*
X142061854Y-98130459D01*
X142014160Y-98146629D01*
X141966720Y-98170336D01*
X141934730Y-98192053D01*
X141883456Y-98241783D01*
X141832084Y-98309079D01*
X141781632Y-98392000D01*
X141733123Y-98488607D01*
X141687577Y-98596958D01*
X141646015Y-98715114D01*
X141627267Y-98776503D01*
X141596395Y-98891053D01*
X141569293Y-99010067D01*
X141545548Y-99136165D01*
X141524748Y-99271964D01*
X141506481Y-99420085D01*
X141490332Y-99583147D01*
X141479559Y-99714250D01*
X141473426Y-99794846D01*
X141938701Y-99794846D01*
X141601768Y-100131885D01*
X141264836Y-100468923D01*
X140930124Y-100134327D01*
X140595412Y-99799730D01*
X141053174Y-99794496D01*
X141058318Y-99733613D01*
X141072180Y-99580621D01*
X141086669Y-99443974D01*
X141102254Y-99320479D01*
X141119404Y-99206945D01*
X141138588Y-99100177D01*
X141160276Y-98996984D01*
X141177150Y-98925367D01*
X141228625Y-98736877D01*
X141286975Y-98562009D01*
X141351791Y-98401397D01*
X141422668Y-98255674D01*
X141499197Y-98125474D01*
X141580973Y-98011429D01*
X141667587Y-97914173D01*
X141758634Y-97834338D01*
X141853707Y-97772559D01*
X141943692Y-97732455D01*
X141984603Y-97720214D01*
X142025780Y-97713296D01*
X142075123Y-97710589D01*
X142100000Y-97710439D01*
X142184619Y-97716545D01*
G36*
X140928039Y-99106330D02*
G01*
X140928517Y-99116683D01*
X140926373Y-99143492D01*
X140921931Y-99183898D01*
X140915517Y-99235042D01*
X140907454Y-99294065D01*
X140904088Y-99317531D01*
X140873961Y-99524916D01*
X140771384Y-99560406D01*
X140645475Y-99607622D01*
X140537854Y-99655972D01*
X140447277Y-99706121D01*
X140372501Y-99758730D01*
X140331460Y-99794870D01*
X140277713Y-99856739D01*
X140243272Y-99919023D01*
X140227919Y-99981357D01*
X140231435Y-100043378D01*
X140253603Y-100104722D01*
X140294206Y-100165025D01*
X140353025Y-100223922D01*
X140429844Y-100281049D01*
X140524444Y-100336044D01*
X140636607Y-100388541D01*
X140702297Y-100414921D01*
X140827891Y-100458410D01*
X140964088Y-100496880D01*
X141112372Y-100530605D01*
X141274231Y-100559860D01*
X141451151Y-100584920D01*
X141644620Y-100606060D01*
X141814071Y-100620467D01*
X141894489Y-100626542D01*
X141897110Y-100396246D01*
X141899730Y-100165951D01*
X142234327Y-100500662D01*
X142568923Y-100835374D01*
X142231885Y-101172307D01*
X141894846Y-101509240D01*
X141894846Y-101046862D01*
X141833788Y-101041602D01*
X141709089Y-101030466D01*
X141600626Y-101019829D01*
X141505120Y-101009240D01*
X141419291Y-100998245D01*
X141339860Y-100986392D01*
X141263548Y-100973229D01*
X141187075Y-100958304D01*
X141109266Y-100941630D01*
X140918392Y-100894219D01*
X140740049Y-100839725D01*
X140574955Y-100778590D01*
X140423826Y-100711254D01*
X140287381Y-100638160D01*
X140166336Y-100559747D01*
X140061410Y-100476459D01*
X139973318Y-100388735D01*
X139902779Y-100297017D01*
X139850510Y-100201746D01*
X139832610Y-100156307D01*
X139814522Y-100079226D01*
X139809267Y-99994745D01*
X139816781Y-99910139D01*
X139835398Y-99837086D01*
X139876842Y-99747031D01*
X139936731Y-99658110D01*
X140015562Y-99569610D01*
X140033275Y-99552252D01*
X140135175Y-99465618D01*
X140255125Y-99383761D01*
X140392094Y-99307246D01*
X140545054Y-99236637D01*
X140712975Y-99172499D01*
X140746784Y-99160991D01*
X140801904Y-99142877D01*
X140850560Y-99127452D01*
X140889773Y-99115613D01*
X140916564Y-99108259D01*
X140927953Y-99106288D01*
X140928039Y-99106330D01*
G37*
X140928039Y-99106330D02*
X140928517Y-99116683D01*
X140926373Y-99143492D01*
X140921931Y-99183898D01*
X140915517Y-99235042D01*
X140907454Y-99294065D01*
X140904088Y-99317531D01*
X140873961Y-99524916D01*
X140771384Y-99560406D01*
X140645475Y-99607622D01*
X140537854Y-99655972D01*
X140447277Y-99706121D01*
X140372501Y-99758730D01*
X140331460Y-99794870D01*
X140277713Y-99856739D01*
X140243272Y-99919023D01*
X140227919Y-99981357D01*
X140231435Y-100043378D01*
X140253603Y-100104722D01*
X140294206Y-100165025D01*
X140353025Y-100223922D01*
X140429844Y-100281049D01*
X140524444Y-100336044D01*
X140636607Y-100388541D01*
X140702297Y-100414921D01*
X140827891Y-100458410D01*
X140964088Y-100496880D01*
X141112372Y-100530605D01*
X141274231Y-100559860D01*
X141451151Y-100584920D01*
X141644620Y-100606060D01*
X141814071Y-100620467D01*
X141894489Y-100626542D01*
X141897110Y-100396246D01*
X141899730Y-100165951D01*
X142234327Y-100500662D01*
X142568923Y-100835374D01*
X142231885Y-101172307D01*
X141894846Y-101509240D01*
X141894846Y-101046862D01*
X141833788Y-101041602D01*
X141709089Y-101030466D01*
X141600626Y-101019829D01*
X141505120Y-101009240D01*
X141419291Y-100998245D01*
X141339860Y-100986392D01*
X141263548Y-100973229D01*
X141187075Y-100958304D01*
X141109266Y-100941630D01*
X140918392Y-100894219D01*
X140740049Y-100839725D01*
X140574955Y-100778590D01*
X140423826Y-100711254D01*
X140287381Y-100638160D01*
X140166336Y-100559747D01*
X140061410Y-100476459D01*
X139973318Y-100388735D01*
X139902779Y-100297017D01*
X139850510Y-100201746D01*
X139832610Y-100156307D01*
X139814522Y-100079226D01*
X139809267Y-99994745D01*
X139816781Y-99910139D01*
X139835398Y-99837086D01*
X139876842Y-99747031D01*
X139936731Y-99658110D01*
X140015562Y-99569610D01*
X140033275Y-99552252D01*
X140135175Y-99465618D01*
X140255125Y-99383761D01*
X140392094Y-99307246D01*
X140545054Y-99236637D01*
X140712975Y-99172499D01*
X140746784Y-99160991D01*
X140801904Y-99142877D01*
X140850560Y-99127452D01*
X140889773Y-99115613D01*
X140916564Y-99108259D01*
X140927953Y-99106288D01*
X140928039Y-99106330D01*
D11*
%TO.C,U2*%
X155120000Y-124900000D02*
X155120000Y-124120000D01*
X155120000Y-124120000D02*
X154120000Y-124120000D01*
X136880000Y-124900000D02*
X136880000Y-124120000D01*
X136880000Y-124120000D02*
X137880000Y-124120000D01*
X155120000Y-149865000D02*
X136880000Y-149865000D01*
X136880000Y-149865000D02*
X136880000Y-143445000D01*
X155120000Y-149865000D02*
X155120000Y-143445000D01*
X155120000Y-143445000D02*
X155500000Y-143445000D01*
%TO.C,SW2*%
X114120000Y-131400000D02*
X114120000Y-131600000D01*
X109980000Y-128600000D02*
X109770000Y-128800000D01*
X109980000Y-129900000D02*
X109770000Y-129700000D01*
X111270000Y-128600000D02*
X109980000Y-128600000D01*
X109770000Y-128800000D02*
X109770000Y-129700000D01*
X109980000Y-129900000D02*
X111270000Y-129900000D01*
X111270000Y-127150000D02*
X111270000Y-132850000D01*
X114120000Y-128400000D02*
X114120000Y-130100000D01*
X113070000Y-126550000D02*
X112280000Y-126550000D01*
X112280000Y-133450000D02*
X113070000Y-133450000D01*
%TO.C,J4*%
X127955000Y-83940000D02*
X127955000Y-83400000D01*
X127955000Y-83400000D02*
X126930000Y-83400000D01*
X126930000Y-83400000D02*
X126930000Y-82290000D01*
X126930000Y-82290000D02*
X165070000Y-82290000D01*
X165070000Y-82290000D02*
X165070000Y-83400000D01*
X165070000Y-83400000D02*
X164045000Y-83400000D01*
X164045000Y-83400000D02*
X164045000Y-83940000D01*
X161890000Y-87910000D02*
X161065000Y-87910000D01*
X161065000Y-87910000D02*
X161065000Y-89710000D01*
X130935000Y-87910000D02*
X130110000Y-87910000D01*
%TO.C,U1*%
X146600000Y-98900000D02*
X147100000Y-98900000D01*
X147100000Y-98900000D02*
X147100000Y-99400000D01*
X147100000Y-99400000D02*
X147100000Y-99400000D01*
X147100000Y-100600000D02*
X147100000Y-101100000D01*
X147100000Y-101100000D02*
X146600000Y-101100000D01*
X146600000Y-101100000D02*
X146600000Y-101100000D01*
X145400000Y-101100000D02*
X144900000Y-101100000D01*
X144900000Y-101100000D02*
X144900000Y-100600000D01*
X144900000Y-100600000D02*
X144900000Y-100600000D01*
X145400000Y-98900000D02*
X144900000Y-98900000D01*
X144900000Y-98900000D02*
X144900000Y-98900000D01*
%TO.C,R11*%
D10*
X125557142Y-143022380D02*
X125223809Y-142546190D01*
X124985714Y-143022380D02*
X124985714Y-142022380D01*
X125366666Y-142022380D01*
X125461904Y-142070000D01*
X125509523Y-142117619D01*
X125557142Y-142212857D01*
X125557142Y-142355714D01*
X125509523Y-142450952D01*
X125461904Y-142498571D01*
X125366666Y-142546190D01*
X124985714Y-142546190D01*
X126509523Y-143022380D02*
X125938095Y-143022380D01*
X126223809Y-143022380D02*
X126223809Y-142022380D01*
X126128571Y-142165238D01*
X126033333Y-142260476D01*
X125938095Y-142308095D01*
X127461904Y-143022380D02*
X126890476Y-143022380D01*
X127176190Y-143022380D02*
X127176190Y-142022380D01*
X127080952Y-142165238D01*
X126985714Y-142260476D01*
X126890476Y-142308095D01*
%TO.C,U8*%
D12*
X118319047Y-133926190D02*
X118319047Y-134330952D01*
X118342857Y-134378571D01*
X118366666Y-134402380D01*
X118414285Y-134426190D01*
X118509523Y-134426190D01*
X118557142Y-134402380D01*
X118580952Y-134378571D01*
X118604761Y-134330952D01*
X118604761Y-133926190D01*
X118914285Y-134140476D02*
X118866666Y-134116666D01*
X118842857Y-134092857D01*
X118819047Y-134045238D01*
X118819047Y-134021428D01*
X118842857Y-133973809D01*
X118866666Y-133950000D01*
X118914285Y-133926190D01*
X119009523Y-133926190D01*
X119057142Y-133950000D01*
X119080952Y-133973809D01*
X119104761Y-134021428D01*
X119104761Y-134045238D01*
X119080952Y-134092857D01*
X119057142Y-134116666D01*
X119009523Y-134140476D01*
X118914285Y-134140476D01*
X118866666Y-134164285D01*
X118842857Y-134188095D01*
X118819047Y-134235714D01*
X118819047Y-134330952D01*
X118842857Y-134378571D01*
X118866666Y-134402380D01*
X118914285Y-134426190D01*
X119009523Y-134426190D01*
X119057142Y-134402380D01*
X119080952Y-134378571D01*
X119104761Y-134330952D01*
X119104761Y-134235714D01*
X119080952Y-134188095D01*
X119057142Y-134164285D01*
X119009523Y-134140476D01*
%TO.C,U10*%
X120880952Y-121726190D02*
X120880952Y-122130952D01*
X120904761Y-122178571D01*
X120928571Y-122202380D01*
X120976190Y-122226190D01*
X121071428Y-122226190D01*
X121119047Y-122202380D01*
X121142857Y-122178571D01*
X121166666Y-122130952D01*
X121166666Y-121726190D01*
X121666666Y-122226190D02*
X121380952Y-122226190D01*
X121523809Y-122226190D02*
X121523809Y-121726190D01*
X121476190Y-121797619D01*
X121428571Y-121845238D01*
X121380952Y-121869047D01*
X121976190Y-121726190D02*
X122023809Y-121726190D01*
X122071428Y-121750000D01*
X122095238Y-121773809D01*
X122119047Y-121821428D01*
X122142857Y-121916666D01*
X122142857Y-122035714D01*
X122119047Y-122130952D01*
X122095238Y-122178571D01*
X122071428Y-122202380D01*
X122023809Y-122226190D01*
X121976190Y-122226190D01*
X121928571Y-122202380D01*
X121904761Y-122178571D01*
X121880952Y-122130952D01*
X121857142Y-122035714D01*
X121857142Y-121916666D01*
X121880952Y-121821428D01*
X121904761Y-121773809D01*
X121928571Y-121750000D01*
X121976190Y-121726190D01*
%TO.C,D12*%
X120717031Y-58989296D02*
X120351354Y-58648297D01*
X120432545Y-58561231D01*
X120498672Y-58525230D01*
X120565975Y-58522879D01*
X120617039Y-58537942D01*
X120702930Y-58585481D01*
X120755169Y-58634196D01*
X120808584Y-58716561D01*
X120827172Y-58766450D01*
X120829523Y-58833753D01*
X120798222Y-58902230D01*
X120717031Y-58989296D01*
X121236649Y-58432074D02*
X121041792Y-58641033D01*
X121139221Y-58536553D02*
X120773544Y-58195554D01*
X120793307Y-58279095D01*
X120795658Y-58346397D01*
X120780595Y-58397462D01*
X121035703Y-57984246D02*
X121034528Y-57950595D01*
X121049591Y-57899530D01*
X121130781Y-57812464D01*
X121180670Y-57793876D01*
X121214322Y-57792701D01*
X121265386Y-57807764D01*
X121300212Y-57840240D01*
X121336214Y-57906367D01*
X121350316Y-58310182D01*
X121561410Y-58083811D01*
%TO.C,D11*%
X171392857Y-148726190D02*
X171392857Y-148226190D01*
X171511904Y-148226190D01*
X171583333Y-148250000D01*
X171630952Y-148297619D01*
X171654761Y-148345238D01*
X171678571Y-148440476D01*
X171678571Y-148511904D01*
X171654761Y-148607142D01*
X171630952Y-148654761D01*
X171583333Y-148702380D01*
X171511904Y-148726190D01*
X171392857Y-148726190D01*
X172154761Y-148726190D02*
X171869047Y-148726190D01*
X172011904Y-148726190D02*
X172011904Y-148226190D01*
X171964285Y-148297619D01*
X171916666Y-148345238D01*
X171869047Y-148369047D01*
X172630952Y-148726190D02*
X172345238Y-148726190D01*
X172488095Y-148726190D02*
X172488095Y-148226190D01*
X172440476Y-148297619D01*
X172392857Y-148345238D01*
X172345238Y-148369047D01*
%TO.C,D10*%
X111726190Y-80607142D02*
X111226190Y-80607142D01*
X111226190Y-80488095D01*
X111250000Y-80416666D01*
X111297619Y-80369047D01*
X111345238Y-80345238D01*
X111440476Y-80321428D01*
X111511904Y-80321428D01*
X111607142Y-80345238D01*
X111654761Y-80369047D01*
X111702380Y-80416666D01*
X111726190Y-80488095D01*
X111726190Y-80607142D01*
X111726190Y-79845238D02*
X111726190Y-80130952D01*
X111726190Y-79988095D02*
X111226190Y-79988095D01*
X111297619Y-80035714D01*
X111345238Y-80083333D01*
X111369047Y-80130952D01*
X111226190Y-79535714D02*
X111226190Y-79488095D01*
X111250000Y-79440476D01*
X111273809Y-79416666D01*
X111321428Y-79392857D01*
X111416666Y-79369047D01*
X111535714Y-79369047D01*
X111630952Y-79392857D01*
X111678571Y-79416666D01*
X111702380Y-79440476D01*
X111726190Y-79488095D01*
X111726190Y-79535714D01*
X111702380Y-79583333D01*
X111678571Y-79607142D01*
X111630952Y-79630952D01*
X111535714Y-79654761D01*
X111416666Y-79654761D01*
X111321428Y-79630952D01*
X111273809Y-79607142D01*
X111250000Y-79583333D01*
X111226190Y-79535714D01*
%TO.C,D9*%
X180726190Y-140369047D02*
X180226190Y-140369047D01*
X180226190Y-140250000D01*
X180250000Y-140178571D01*
X180297619Y-140130952D01*
X180345238Y-140107142D01*
X180440476Y-140083333D01*
X180511904Y-140083333D01*
X180607142Y-140107142D01*
X180654761Y-140130952D01*
X180702380Y-140178571D01*
X180726190Y-140250000D01*
X180726190Y-140369047D01*
X180726190Y-139845238D02*
X180726190Y-139750000D01*
X180702380Y-139702380D01*
X180678571Y-139678571D01*
X180607142Y-139630952D01*
X180511904Y-139607142D01*
X180321428Y-139607142D01*
X180273809Y-139630952D01*
X180250000Y-139654761D01*
X180226190Y-139702380D01*
X180226190Y-139797619D01*
X180250000Y-139845238D01*
X180273809Y-139869047D01*
X180321428Y-139892857D01*
X180440476Y-139892857D01*
X180488095Y-139869047D01*
X180511904Y-139845238D01*
X180535714Y-139797619D01*
X180535714Y-139702380D01*
X180511904Y-139654761D01*
X180488095Y-139630952D01*
X180440476Y-139607142D01*
%TO.C,D8*%
X111726190Y-100369047D02*
X111226190Y-100369047D01*
X111226190Y-100250000D01*
X111250000Y-100178571D01*
X111297619Y-100130952D01*
X111345238Y-100107142D01*
X111440476Y-100083333D01*
X111511904Y-100083333D01*
X111607142Y-100107142D01*
X111654761Y-100130952D01*
X111702380Y-100178571D01*
X111726190Y-100250000D01*
X111726190Y-100369047D01*
X111440476Y-99797619D02*
X111416666Y-99845238D01*
X111392857Y-99869047D01*
X111345238Y-99892857D01*
X111321428Y-99892857D01*
X111273809Y-99869047D01*
X111250000Y-99845238D01*
X111226190Y-99797619D01*
X111226190Y-99702380D01*
X111250000Y-99654761D01*
X111273809Y-99630952D01*
X111321428Y-99607142D01*
X111345238Y-99607142D01*
X111392857Y-99630952D01*
X111416666Y-99654761D01*
X111440476Y-99702380D01*
X111440476Y-99797619D01*
X111464285Y-99845238D01*
X111488095Y-99869047D01*
X111535714Y-99892857D01*
X111630952Y-99892857D01*
X111678571Y-99869047D01*
X111702380Y-99845238D01*
X111726190Y-99797619D01*
X111726190Y-99702380D01*
X111702380Y-99654761D01*
X111678571Y-99630952D01*
X111630952Y-99607142D01*
X111535714Y-99607142D01*
X111488095Y-99630952D01*
X111464285Y-99654761D01*
X111440476Y-99702380D01*
%TO.C,D7*%
X180726190Y-120369047D02*
X180226190Y-120369047D01*
X180226190Y-120250000D01*
X180250000Y-120178571D01*
X180297619Y-120130952D01*
X180345238Y-120107142D01*
X180440476Y-120083333D01*
X180511904Y-120083333D01*
X180607142Y-120107142D01*
X180654761Y-120130952D01*
X180702380Y-120178571D01*
X180726190Y-120250000D01*
X180726190Y-120369047D01*
X180226190Y-119916666D02*
X180226190Y-119583333D01*
X180726190Y-119797619D01*
%TO.C,D6*%
X111726190Y-120369047D02*
X111226190Y-120369047D01*
X111226190Y-120250000D01*
X111250000Y-120178571D01*
X111297619Y-120130952D01*
X111345238Y-120107142D01*
X111440476Y-120083333D01*
X111511904Y-120083333D01*
X111607142Y-120107142D01*
X111654761Y-120130952D01*
X111702380Y-120178571D01*
X111726190Y-120250000D01*
X111726190Y-120369047D01*
X111226190Y-119654761D02*
X111226190Y-119750000D01*
X111250000Y-119797619D01*
X111273809Y-119821428D01*
X111345238Y-119869047D01*
X111440476Y-119892857D01*
X111630952Y-119892857D01*
X111678571Y-119869047D01*
X111702380Y-119845238D01*
X111726190Y-119797619D01*
X111726190Y-119702380D01*
X111702380Y-119654761D01*
X111678571Y-119630952D01*
X111630952Y-119607142D01*
X111511904Y-119607142D01*
X111464285Y-119630952D01*
X111440476Y-119654761D01*
X111416666Y-119702380D01*
X111416666Y-119797619D01*
X111440476Y-119845238D01*
X111464285Y-119869047D01*
X111511904Y-119892857D01*
%TO.C,D5*%
X180726190Y-100369047D02*
X180226190Y-100369047D01*
X180226190Y-100250000D01*
X180250000Y-100178571D01*
X180297619Y-100130952D01*
X180345238Y-100107142D01*
X180440476Y-100083333D01*
X180511904Y-100083333D01*
X180607142Y-100107142D01*
X180654761Y-100130952D01*
X180702380Y-100178571D01*
X180726190Y-100250000D01*
X180726190Y-100369047D01*
X180226190Y-99630952D02*
X180226190Y-99869047D01*
X180464285Y-99892857D01*
X180440476Y-99869047D01*
X180416666Y-99821428D01*
X180416666Y-99702380D01*
X180440476Y-99654761D01*
X180464285Y-99630952D01*
X180511904Y-99607142D01*
X180630952Y-99607142D01*
X180678571Y-99630952D01*
X180702380Y-99654761D01*
X180726190Y-99702380D01*
X180726190Y-99821428D01*
X180702380Y-99869047D01*
X180678571Y-99892857D01*
%TO.C,D4*%
X111726190Y-140369047D02*
X111226190Y-140369047D01*
X111226190Y-140250000D01*
X111250000Y-140178571D01*
X111297619Y-140130952D01*
X111345238Y-140107142D01*
X111440476Y-140083333D01*
X111511904Y-140083333D01*
X111607142Y-140107142D01*
X111654761Y-140130952D01*
X111702380Y-140178571D01*
X111726190Y-140250000D01*
X111726190Y-140369047D01*
X111392857Y-139654761D02*
X111726190Y-139654761D01*
X111202380Y-139773809D02*
X111559523Y-139892857D01*
X111559523Y-139583333D01*
%TO.C,D3*%
X180726190Y-80369047D02*
X180226190Y-80369047D01*
X180226190Y-80250000D01*
X180250000Y-80178571D01*
X180297619Y-80130952D01*
X180345238Y-80107142D01*
X180440476Y-80083333D01*
X180511904Y-80083333D01*
X180607142Y-80107142D01*
X180654761Y-80130952D01*
X180702380Y-80178571D01*
X180726190Y-80250000D01*
X180726190Y-80369047D01*
X180226190Y-79916666D02*
X180226190Y-79607142D01*
X180416666Y-79773809D01*
X180416666Y-79702380D01*
X180440476Y-79654761D01*
X180464285Y-79630952D01*
X180511904Y-79607142D01*
X180630952Y-79607142D01*
X180678571Y-79630952D01*
X180702380Y-79654761D01*
X180726190Y-79702380D01*
X180726190Y-79845238D01*
X180702380Y-79892857D01*
X180678571Y-79916666D01*
%TO.C,D2*%
X119630952Y-148726190D02*
X119630952Y-148226190D01*
X119750000Y-148226190D01*
X119821428Y-148250000D01*
X119869047Y-148297619D01*
X119892857Y-148345238D01*
X119916666Y-148440476D01*
X119916666Y-148511904D01*
X119892857Y-148607142D01*
X119869047Y-148654761D01*
X119821428Y-148702380D01*
X119750000Y-148726190D01*
X119630952Y-148726190D01*
X120107142Y-148273809D02*
X120130952Y-148250000D01*
X120178571Y-148226190D01*
X120297619Y-148226190D01*
X120345238Y-148250000D01*
X120369047Y-148273809D01*
X120392857Y-148321428D01*
X120392857Y-148369047D01*
X120369047Y-148440476D01*
X120083333Y-148726190D01*
X120392857Y-148726190D01*
%TO.C,D1*%
X173051939Y-59963244D02*
X173443244Y-59651986D01*
X173517352Y-59745154D01*
X173543184Y-59815876D01*
X173535561Y-59882787D01*
X173513115Y-59931064D01*
X173453403Y-60008985D01*
X173397503Y-60053450D01*
X173308147Y-60094104D01*
X173256058Y-60105114D01*
X173189147Y-60097490D01*
X173126048Y-60056411D01*
X173051939Y-59963244D01*
X173526236Y-60559517D02*
X173348375Y-60335914D01*
X173437306Y-60447715D02*
X173828610Y-60136458D01*
X173743066Y-60143656D01*
X173676155Y-60136033D01*
X173627878Y-60113588D01*
%TO.C,U9*%
X169919047Y-113226190D02*
X169919047Y-113630952D01*
X169942857Y-113678571D01*
X169966666Y-113702380D01*
X170014285Y-113726190D01*
X170109523Y-113726190D01*
X170157142Y-113702380D01*
X170180952Y-113678571D01*
X170204761Y-113630952D01*
X170204761Y-113226190D01*
X170466666Y-113726190D02*
X170561904Y-113726190D01*
X170609523Y-113702380D01*
X170633333Y-113678571D01*
X170680952Y-113607142D01*
X170704761Y-113511904D01*
X170704761Y-113321428D01*
X170680952Y-113273809D01*
X170657142Y-113250000D01*
X170609523Y-113226190D01*
X170514285Y-113226190D01*
X170466666Y-113250000D01*
X170442857Y-113273809D01*
X170419047Y-113321428D01*
X170419047Y-113440476D01*
X170442857Y-113488095D01*
X170466666Y-113511904D01*
X170514285Y-113535714D01*
X170609523Y-113535714D01*
X170657142Y-113511904D01*
X170680952Y-113488095D01*
X170704761Y-113440476D01*
%TO.C,U7*%
X127119047Y-69226190D02*
X127119047Y-69630952D01*
X127142857Y-69678571D01*
X127166666Y-69702380D01*
X127214285Y-69726190D01*
X127309523Y-69726190D01*
X127357142Y-69702380D01*
X127380952Y-69678571D01*
X127404761Y-69630952D01*
X127404761Y-69226190D01*
X127595238Y-69226190D02*
X127928571Y-69226190D01*
X127714285Y-69726190D01*
%TO.C,U4*%
X123726190Y-137330952D02*
X124130952Y-137330952D01*
X124178571Y-137307142D01*
X124202380Y-137283333D01*
X124226190Y-137235714D01*
X124226190Y-137140476D01*
X124202380Y-137092857D01*
X124178571Y-137069047D01*
X124130952Y-137045238D01*
X123726190Y-137045238D01*
X123892857Y-136592857D02*
X124226190Y-136592857D01*
X123702380Y-136711904D02*
X124059523Y-136830952D01*
X124059523Y-136521428D01*
%TO.C,U3*%
X147726190Y-69880952D02*
X148130952Y-69880952D01*
X148178571Y-69857142D01*
X148202380Y-69833333D01*
X148226190Y-69785714D01*
X148226190Y-69690476D01*
X148202380Y-69642857D01*
X148178571Y-69619047D01*
X148130952Y-69595238D01*
X147726190Y-69595238D01*
X147726190Y-69404761D02*
X147726190Y-69095238D01*
X147916666Y-69261904D01*
X147916666Y-69190476D01*
X147940476Y-69142857D01*
X147964285Y-69119047D01*
X148011904Y-69095238D01*
X148130952Y-69095238D01*
X148178571Y-69119047D01*
X148202380Y-69142857D01*
X148226190Y-69190476D01*
X148226190Y-69333333D01*
X148202380Y-69380952D01*
X148178571Y-69404761D01*
%TO.C,TP30*%
X163130952Y-58278190D02*
X163416666Y-58278190D01*
X163273809Y-58778190D02*
X163273809Y-58278190D01*
X163583333Y-58778190D02*
X163583333Y-58278190D01*
X163773809Y-58278190D01*
X163821428Y-58302000D01*
X163845238Y-58325809D01*
X163869047Y-58373428D01*
X163869047Y-58444857D01*
X163845238Y-58492476D01*
X163821428Y-58516285D01*
X163773809Y-58540095D01*
X163583333Y-58540095D01*
X164035714Y-58278190D02*
X164345238Y-58278190D01*
X164178571Y-58468666D01*
X164250000Y-58468666D01*
X164297619Y-58492476D01*
X164321428Y-58516285D01*
X164345238Y-58563904D01*
X164345238Y-58682952D01*
X164321428Y-58730571D01*
X164297619Y-58754380D01*
X164250000Y-58778190D01*
X164107142Y-58778190D01*
X164059523Y-58754380D01*
X164035714Y-58730571D01*
X164654761Y-58278190D02*
X164702380Y-58278190D01*
X164750000Y-58302000D01*
X164773809Y-58325809D01*
X164797619Y-58373428D01*
X164821428Y-58468666D01*
X164821428Y-58587714D01*
X164797619Y-58682952D01*
X164773809Y-58730571D01*
X164750000Y-58754380D01*
X164702380Y-58778190D01*
X164654761Y-58778190D01*
X164607142Y-58754380D01*
X164583333Y-58730571D01*
X164559523Y-58682952D01*
X164535714Y-58587714D01*
X164535714Y-58468666D01*
X164559523Y-58373428D01*
X164583333Y-58325809D01*
X164607142Y-58302000D01*
X164654761Y-58278190D01*
%TO.C,TP29*%
X166130952Y-76278190D02*
X166416666Y-76278190D01*
X166273809Y-76778190D02*
X166273809Y-76278190D01*
X166583333Y-76778190D02*
X166583333Y-76278190D01*
X166773809Y-76278190D01*
X166821428Y-76302000D01*
X166845238Y-76325809D01*
X166869047Y-76373428D01*
X166869047Y-76444857D01*
X166845238Y-76492476D01*
X166821428Y-76516285D01*
X166773809Y-76540095D01*
X166583333Y-76540095D01*
X167059523Y-76325809D02*
X167083333Y-76302000D01*
X167130952Y-76278190D01*
X167250000Y-76278190D01*
X167297619Y-76302000D01*
X167321428Y-76325809D01*
X167345238Y-76373428D01*
X167345238Y-76421047D01*
X167321428Y-76492476D01*
X167035714Y-76778190D01*
X167345238Y-76778190D01*
X167583333Y-76778190D02*
X167678571Y-76778190D01*
X167726190Y-76754380D01*
X167750000Y-76730571D01*
X167797619Y-76659142D01*
X167821428Y-76563904D01*
X167821428Y-76373428D01*
X167797619Y-76325809D01*
X167773809Y-76302000D01*
X167726190Y-76278190D01*
X167630952Y-76278190D01*
X167583333Y-76302000D01*
X167559523Y-76325809D01*
X167535714Y-76373428D01*
X167535714Y-76492476D01*
X167559523Y-76540095D01*
X167583333Y-76563904D01*
X167630952Y-76587714D01*
X167726190Y-76587714D01*
X167773809Y-76563904D01*
X167797619Y-76540095D01*
X167821428Y-76492476D01*
%TO.C,TP28*%
X173130952Y-75278190D02*
X173416666Y-75278190D01*
X173273809Y-75778190D02*
X173273809Y-75278190D01*
X173583333Y-75778190D02*
X173583333Y-75278190D01*
X173773809Y-75278190D01*
X173821428Y-75302000D01*
X173845238Y-75325809D01*
X173869047Y-75373428D01*
X173869047Y-75444857D01*
X173845238Y-75492476D01*
X173821428Y-75516285D01*
X173773809Y-75540095D01*
X173583333Y-75540095D01*
X174059523Y-75325809D02*
X174083333Y-75302000D01*
X174130952Y-75278190D01*
X174250000Y-75278190D01*
X174297619Y-75302000D01*
X174321428Y-75325809D01*
X174345238Y-75373428D01*
X174345238Y-75421047D01*
X174321428Y-75492476D01*
X174035714Y-75778190D01*
X174345238Y-75778190D01*
X174630952Y-75492476D02*
X174583333Y-75468666D01*
X174559523Y-75444857D01*
X174535714Y-75397238D01*
X174535714Y-75373428D01*
X174559523Y-75325809D01*
X174583333Y-75302000D01*
X174630952Y-75278190D01*
X174726190Y-75278190D01*
X174773809Y-75302000D01*
X174797619Y-75325809D01*
X174821428Y-75373428D01*
X174821428Y-75397238D01*
X174797619Y-75444857D01*
X174773809Y-75468666D01*
X174726190Y-75492476D01*
X174630952Y-75492476D01*
X174583333Y-75516285D01*
X174559523Y-75540095D01*
X174535714Y-75587714D01*
X174535714Y-75682952D01*
X174559523Y-75730571D01*
X174583333Y-75754380D01*
X174630952Y-75778190D01*
X174726190Y-75778190D01*
X174773809Y-75754380D01*
X174797619Y-75730571D01*
X174821428Y-75682952D01*
X174821428Y-75587714D01*
X174797619Y-75540095D01*
X174773809Y-75516285D01*
X174726190Y-75492476D01*
%TO.C,TP27*%
X124130952Y-76278190D02*
X124416666Y-76278190D01*
X124273809Y-76778190D02*
X124273809Y-76278190D01*
X124583333Y-76778190D02*
X124583333Y-76278190D01*
X124773809Y-76278190D01*
X124821428Y-76302000D01*
X124845238Y-76325809D01*
X124869047Y-76373428D01*
X124869047Y-76444857D01*
X124845238Y-76492476D01*
X124821428Y-76516285D01*
X124773809Y-76540095D01*
X124583333Y-76540095D01*
X125059523Y-76325809D02*
X125083333Y-76302000D01*
X125130952Y-76278190D01*
X125250000Y-76278190D01*
X125297619Y-76302000D01*
X125321428Y-76325809D01*
X125345238Y-76373428D01*
X125345238Y-76421047D01*
X125321428Y-76492476D01*
X125035714Y-76778190D01*
X125345238Y-76778190D01*
X125511904Y-76278190D02*
X125845238Y-76278190D01*
X125630952Y-76778190D01*
%TO.C,TP26*%
X165130952Y-91278190D02*
X165416666Y-91278190D01*
X165273809Y-91778190D02*
X165273809Y-91278190D01*
X165583333Y-91778190D02*
X165583333Y-91278190D01*
X165773809Y-91278190D01*
X165821428Y-91302000D01*
X165845238Y-91325809D01*
X165869047Y-91373428D01*
X165869047Y-91444857D01*
X165845238Y-91492476D01*
X165821428Y-91516285D01*
X165773809Y-91540095D01*
X165583333Y-91540095D01*
X166059523Y-91325809D02*
X166083333Y-91302000D01*
X166130952Y-91278190D01*
X166250000Y-91278190D01*
X166297619Y-91302000D01*
X166321428Y-91325809D01*
X166345238Y-91373428D01*
X166345238Y-91421047D01*
X166321428Y-91492476D01*
X166035714Y-91778190D01*
X166345238Y-91778190D01*
X166773809Y-91278190D02*
X166678571Y-91278190D01*
X166630952Y-91302000D01*
X166607142Y-91325809D01*
X166559523Y-91397238D01*
X166535714Y-91492476D01*
X166535714Y-91682952D01*
X166559523Y-91730571D01*
X166583333Y-91754380D01*
X166630952Y-91778190D01*
X166726190Y-91778190D01*
X166773809Y-91754380D01*
X166797619Y-91730571D01*
X166821428Y-91682952D01*
X166821428Y-91563904D01*
X166797619Y-91516285D01*
X166773809Y-91492476D01*
X166726190Y-91468666D01*
X166630952Y-91468666D01*
X166583333Y-91492476D01*
X166559523Y-91516285D01*
X166535714Y-91563904D01*
%TO.C,TP25*%
X125130952Y-91278190D02*
X125416666Y-91278190D01*
X125273809Y-91778190D02*
X125273809Y-91278190D01*
X125583333Y-91778190D02*
X125583333Y-91278190D01*
X125773809Y-91278190D01*
X125821428Y-91302000D01*
X125845238Y-91325809D01*
X125869047Y-91373428D01*
X125869047Y-91444857D01*
X125845238Y-91492476D01*
X125821428Y-91516285D01*
X125773809Y-91540095D01*
X125583333Y-91540095D01*
X126059523Y-91325809D02*
X126083333Y-91302000D01*
X126130952Y-91278190D01*
X126250000Y-91278190D01*
X126297619Y-91302000D01*
X126321428Y-91325809D01*
X126345238Y-91373428D01*
X126345238Y-91421047D01*
X126321428Y-91492476D01*
X126035714Y-91778190D01*
X126345238Y-91778190D01*
X126797619Y-91278190D02*
X126559523Y-91278190D01*
X126535714Y-91516285D01*
X126559523Y-91492476D01*
X126607142Y-91468666D01*
X126726190Y-91468666D01*
X126773809Y-91492476D01*
X126797619Y-91516285D01*
X126821428Y-91563904D01*
X126821428Y-91682952D01*
X126797619Y-91730571D01*
X126773809Y-91754380D01*
X126726190Y-91778190D01*
X126607142Y-91778190D01*
X126559523Y-91754380D01*
X126535714Y-91730571D01*
%TO.C,TP24*%
X125130952Y-95278190D02*
X125416666Y-95278190D01*
X125273809Y-95778190D02*
X125273809Y-95278190D01*
X125583333Y-95778190D02*
X125583333Y-95278190D01*
X125773809Y-95278190D01*
X125821428Y-95302000D01*
X125845238Y-95325809D01*
X125869047Y-95373428D01*
X125869047Y-95444857D01*
X125845238Y-95492476D01*
X125821428Y-95516285D01*
X125773809Y-95540095D01*
X125583333Y-95540095D01*
X126059523Y-95325809D02*
X126083333Y-95302000D01*
X126130952Y-95278190D01*
X126250000Y-95278190D01*
X126297619Y-95302000D01*
X126321428Y-95325809D01*
X126345238Y-95373428D01*
X126345238Y-95421047D01*
X126321428Y-95492476D01*
X126035714Y-95778190D01*
X126345238Y-95778190D01*
X126773809Y-95444857D02*
X126773809Y-95778190D01*
X126654761Y-95254380D02*
X126535714Y-95611523D01*
X126845238Y-95611523D01*
%TO.C,TP23*%
X117130952Y-111278190D02*
X117416666Y-111278190D01*
X117273809Y-111778190D02*
X117273809Y-111278190D01*
X117583333Y-111778190D02*
X117583333Y-111278190D01*
X117773809Y-111278190D01*
X117821428Y-111302000D01*
X117845238Y-111325809D01*
X117869047Y-111373428D01*
X117869047Y-111444857D01*
X117845238Y-111492476D01*
X117821428Y-111516285D01*
X117773809Y-111540095D01*
X117583333Y-111540095D01*
X118059523Y-111325809D02*
X118083333Y-111302000D01*
X118130952Y-111278190D01*
X118250000Y-111278190D01*
X118297619Y-111302000D01*
X118321428Y-111325809D01*
X118345238Y-111373428D01*
X118345238Y-111421047D01*
X118321428Y-111492476D01*
X118035714Y-111778190D01*
X118345238Y-111778190D01*
X118511904Y-111278190D02*
X118821428Y-111278190D01*
X118654761Y-111468666D01*
X118726190Y-111468666D01*
X118773809Y-111492476D01*
X118797619Y-111516285D01*
X118821428Y-111563904D01*
X118821428Y-111682952D01*
X118797619Y-111730571D01*
X118773809Y-111754380D01*
X118726190Y-111778190D01*
X118583333Y-111778190D01*
X118535714Y-111754380D01*
X118511904Y-111730571D01*
%TO.C,TP22*%
X112130952Y-111278190D02*
X112416666Y-111278190D01*
X112273809Y-111778190D02*
X112273809Y-111278190D01*
X112583333Y-111778190D02*
X112583333Y-111278190D01*
X112773809Y-111278190D01*
X112821428Y-111302000D01*
X112845238Y-111325809D01*
X112869047Y-111373428D01*
X112869047Y-111444857D01*
X112845238Y-111492476D01*
X112821428Y-111516285D01*
X112773809Y-111540095D01*
X112583333Y-111540095D01*
X113059523Y-111325809D02*
X113083333Y-111302000D01*
X113130952Y-111278190D01*
X113250000Y-111278190D01*
X113297619Y-111302000D01*
X113321428Y-111325809D01*
X113345238Y-111373428D01*
X113345238Y-111421047D01*
X113321428Y-111492476D01*
X113035714Y-111778190D01*
X113345238Y-111778190D01*
X113535714Y-111325809D02*
X113559523Y-111302000D01*
X113607142Y-111278190D01*
X113726190Y-111278190D01*
X113773809Y-111302000D01*
X113797619Y-111325809D01*
X113821428Y-111373428D01*
X113821428Y-111421047D01*
X113797619Y-111492476D01*
X113511904Y-111778190D01*
X113821428Y-111778190D01*
%TO.C,TP21*%
X134130952Y-61528190D02*
X134416666Y-61528190D01*
X134273809Y-62028190D02*
X134273809Y-61528190D01*
X134583333Y-62028190D02*
X134583333Y-61528190D01*
X134773809Y-61528190D01*
X134821428Y-61552000D01*
X134845238Y-61575809D01*
X134869047Y-61623428D01*
X134869047Y-61694857D01*
X134845238Y-61742476D01*
X134821428Y-61766285D01*
X134773809Y-61790095D01*
X134583333Y-61790095D01*
X135059523Y-61575809D02*
X135083333Y-61552000D01*
X135130952Y-61528190D01*
X135250000Y-61528190D01*
X135297619Y-61552000D01*
X135321428Y-61575809D01*
X135345238Y-61623428D01*
X135345238Y-61671047D01*
X135321428Y-61742476D01*
X135035714Y-62028190D01*
X135345238Y-62028190D01*
X135821428Y-62028190D02*
X135535714Y-62028190D01*
X135678571Y-62028190D02*
X135678571Y-61528190D01*
X135630952Y-61599619D01*
X135583333Y-61647238D01*
X135535714Y-61671047D01*
%TO.C,TP20*%
X137130952Y-92278190D02*
X137416666Y-92278190D01*
X137273809Y-92778190D02*
X137273809Y-92278190D01*
X137583333Y-92778190D02*
X137583333Y-92278190D01*
X137773809Y-92278190D01*
X137821428Y-92302000D01*
X137845238Y-92325809D01*
X137869047Y-92373428D01*
X137869047Y-92444857D01*
X137845238Y-92492476D01*
X137821428Y-92516285D01*
X137773809Y-92540095D01*
X137583333Y-92540095D01*
X138059523Y-92325809D02*
X138083333Y-92302000D01*
X138130952Y-92278190D01*
X138250000Y-92278190D01*
X138297619Y-92302000D01*
X138321428Y-92325809D01*
X138345238Y-92373428D01*
X138345238Y-92421047D01*
X138321428Y-92492476D01*
X138035714Y-92778190D01*
X138345238Y-92778190D01*
X138654761Y-92278190D02*
X138702380Y-92278190D01*
X138750000Y-92302000D01*
X138773809Y-92325809D01*
X138797619Y-92373428D01*
X138821428Y-92468666D01*
X138821428Y-92587714D01*
X138797619Y-92682952D01*
X138773809Y-92730571D01*
X138750000Y-92754380D01*
X138702380Y-92778190D01*
X138654761Y-92778190D01*
X138607142Y-92754380D01*
X138583333Y-92730571D01*
X138559523Y-92682952D01*
X138535714Y-92587714D01*
X138535714Y-92468666D01*
X138559523Y-92373428D01*
X138583333Y-92325809D01*
X138607142Y-92302000D01*
X138654761Y-92278190D01*
%TO.C,TP19*%
X165130952Y-97278190D02*
X165416666Y-97278190D01*
X165273809Y-97778190D02*
X165273809Y-97278190D01*
X165583333Y-97778190D02*
X165583333Y-97278190D01*
X165773809Y-97278190D01*
X165821428Y-97302000D01*
X165845238Y-97325809D01*
X165869047Y-97373428D01*
X165869047Y-97444857D01*
X165845238Y-97492476D01*
X165821428Y-97516285D01*
X165773809Y-97540095D01*
X165583333Y-97540095D01*
X166345238Y-97778190D02*
X166059523Y-97778190D01*
X166202380Y-97778190D02*
X166202380Y-97278190D01*
X166154761Y-97349619D01*
X166107142Y-97397238D01*
X166059523Y-97421047D01*
X166583333Y-97778190D02*
X166678571Y-97778190D01*
X166726190Y-97754380D01*
X166750000Y-97730571D01*
X166797619Y-97659142D01*
X166821428Y-97563904D01*
X166821428Y-97373428D01*
X166797619Y-97325809D01*
X166773809Y-97302000D01*
X166726190Y-97278190D01*
X166630952Y-97278190D01*
X166583333Y-97302000D01*
X166559523Y-97325809D01*
X166535714Y-97373428D01*
X166535714Y-97492476D01*
X166559523Y-97540095D01*
X166583333Y-97563904D01*
X166630952Y-97587714D01*
X166726190Y-97587714D01*
X166773809Y-97563904D01*
X166797619Y-97540095D01*
X166821428Y-97492476D01*
%TO.C,TP18*%
X175130952Y-140278190D02*
X175416666Y-140278190D01*
X175273809Y-140778190D02*
X175273809Y-140278190D01*
X175583333Y-140778190D02*
X175583333Y-140278190D01*
X175773809Y-140278190D01*
X175821428Y-140302000D01*
X175845238Y-140325809D01*
X175869047Y-140373428D01*
X175869047Y-140444857D01*
X175845238Y-140492476D01*
X175821428Y-140516285D01*
X175773809Y-140540095D01*
X175583333Y-140540095D01*
X176345238Y-140778190D02*
X176059523Y-140778190D01*
X176202380Y-140778190D02*
X176202380Y-140278190D01*
X176154761Y-140349619D01*
X176107142Y-140397238D01*
X176059523Y-140421047D01*
X176630952Y-140492476D02*
X176583333Y-140468666D01*
X176559523Y-140444857D01*
X176535714Y-140397238D01*
X176535714Y-140373428D01*
X176559523Y-140325809D01*
X176583333Y-140302000D01*
X176630952Y-140278190D01*
X176726190Y-140278190D01*
X176773809Y-140302000D01*
X176797619Y-140325809D01*
X176821428Y-140373428D01*
X176821428Y-140397238D01*
X176797619Y-140444857D01*
X176773809Y-140468666D01*
X176726190Y-140492476D01*
X176630952Y-140492476D01*
X176583333Y-140516285D01*
X176559523Y-140540095D01*
X176535714Y-140587714D01*
X176535714Y-140682952D01*
X176559523Y-140730571D01*
X176583333Y-140754380D01*
X176630952Y-140778190D01*
X176726190Y-140778190D01*
X176773809Y-140754380D01*
X176797619Y-140730571D01*
X176821428Y-140682952D01*
X176821428Y-140587714D01*
X176797619Y-140540095D01*
X176773809Y-140516285D01*
X176726190Y-140492476D01*
%TO.C,TP17*%
X165130952Y-109278190D02*
X165416666Y-109278190D01*
X165273809Y-109778190D02*
X165273809Y-109278190D01*
X165583333Y-109778190D02*
X165583333Y-109278190D01*
X165773809Y-109278190D01*
X165821428Y-109302000D01*
X165845238Y-109325809D01*
X165869047Y-109373428D01*
X165869047Y-109444857D01*
X165845238Y-109492476D01*
X165821428Y-109516285D01*
X165773809Y-109540095D01*
X165583333Y-109540095D01*
X166345238Y-109778190D02*
X166059523Y-109778190D01*
X166202380Y-109778190D02*
X166202380Y-109278190D01*
X166154761Y-109349619D01*
X166107142Y-109397238D01*
X166059523Y-109421047D01*
X166511904Y-109278190D02*
X166845238Y-109278190D01*
X166630952Y-109778190D01*
%TO.C,TP16*%
X126130952Y-103278190D02*
X126416666Y-103278190D01*
X126273809Y-103778190D02*
X126273809Y-103278190D01*
X126583333Y-103778190D02*
X126583333Y-103278190D01*
X126773809Y-103278190D01*
X126821428Y-103302000D01*
X126845238Y-103325809D01*
X126869047Y-103373428D01*
X126869047Y-103444857D01*
X126845238Y-103492476D01*
X126821428Y-103516285D01*
X126773809Y-103540095D01*
X126583333Y-103540095D01*
X127345238Y-103778190D02*
X127059523Y-103778190D01*
X127202380Y-103778190D02*
X127202380Y-103278190D01*
X127154761Y-103349619D01*
X127107142Y-103397238D01*
X127059523Y-103421047D01*
X127773809Y-103278190D02*
X127678571Y-103278190D01*
X127630952Y-103302000D01*
X127607142Y-103325809D01*
X127559523Y-103397238D01*
X127535714Y-103492476D01*
X127535714Y-103682952D01*
X127559523Y-103730571D01*
X127583333Y-103754380D01*
X127630952Y-103778190D01*
X127726190Y-103778190D01*
X127773809Y-103754380D01*
X127797619Y-103730571D01*
X127821428Y-103682952D01*
X127821428Y-103563904D01*
X127797619Y-103516285D01*
X127773809Y-103492476D01*
X127726190Y-103468666D01*
X127630952Y-103468666D01*
X127583333Y-103492476D01*
X127559523Y-103516285D01*
X127535714Y-103563904D01*
%TO.C,TP15*%
X123130952Y-115278190D02*
X123416666Y-115278190D01*
X123273809Y-115778190D02*
X123273809Y-115278190D01*
X123583333Y-115778190D02*
X123583333Y-115278190D01*
X123773809Y-115278190D01*
X123821428Y-115302000D01*
X123845238Y-115325809D01*
X123869047Y-115373428D01*
X123869047Y-115444857D01*
X123845238Y-115492476D01*
X123821428Y-115516285D01*
X123773809Y-115540095D01*
X123583333Y-115540095D01*
X124345238Y-115778190D02*
X124059523Y-115778190D01*
X124202380Y-115778190D02*
X124202380Y-115278190D01*
X124154761Y-115349619D01*
X124107142Y-115397238D01*
X124059523Y-115421047D01*
X124797619Y-115278190D02*
X124559523Y-115278190D01*
X124535714Y-115516285D01*
X124559523Y-115492476D01*
X124607142Y-115468666D01*
X124726190Y-115468666D01*
X124773809Y-115492476D01*
X124797619Y-115516285D01*
X124821428Y-115563904D01*
X124821428Y-115682952D01*
X124797619Y-115730571D01*
X124773809Y-115754380D01*
X124726190Y-115778190D01*
X124607142Y-115778190D01*
X124559523Y-115754380D01*
X124535714Y-115730571D01*
%TO.C,TP14*%
X162130952Y-146278190D02*
X162416666Y-146278190D01*
X162273809Y-146778190D02*
X162273809Y-146278190D01*
X162583333Y-146778190D02*
X162583333Y-146278190D01*
X162773809Y-146278190D01*
X162821428Y-146302000D01*
X162845238Y-146325809D01*
X162869047Y-146373428D01*
X162869047Y-146444857D01*
X162845238Y-146492476D01*
X162821428Y-146516285D01*
X162773809Y-146540095D01*
X162583333Y-146540095D01*
X163345238Y-146778190D02*
X163059523Y-146778190D01*
X163202380Y-146778190D02*
X163202380Y-146278190D01*
X163154761Y-146349619D01*
X163107142Y-146397238D01*
X163059523Y-146421047D01*
X163773809Y-146444857D02*
X163773809Y-146778190D01*
X163654761Y-146254380D02*
X163535714Y-146611523D01*
X163845238Y-146611523D01*
%TO.C,TP13*%
X162130952Y-134278190D02*
X162416666Y-134278190D01*
X162273809Y-134778190D02*
X162273809Y-134278190D01*
X162583333Y-134778190D02*
X162583333Y-134278190D01*
X162773809Y-134278190D01*
X162821428Y-134302000D01*
X162845238Y-134325809D01*
X162869047Y-134373428D01*
X162869047Y-134444857D01*
X162845238Y-134492476D01*
X162821428Y-134516285D01*
X162773809Y-134540095D01*
X162583333Y-134540095D01*
X163345238Y-134778190D02*
X163059523Y-134778190D01*
X163202380Y-134778190D02*
X163202380Y-134278190D01*
X163154761Y-134349619D01*
X163107142Y-134397238D01*
X163059523Y-134421047D01*
X163511904Y-134278190D02*
X163821428Y-134278190D01*
X163654761Y-134468666D01*
X163726190Y-134468666D01*
X163773809Y-134492476D01*
X163797619Y-134516285D01*
X163821428Y-134563904D01*
X163821428Y-134682952D01*
X163797619Y-134730571D01*
X163773809Y-134754380D01*
X163726190Y-134778190D01*
X163583333Y-134778190D01*
X163535714Y-134754380D01*
X163511904Y-134730571D01*
%TO.C,TP12*%
X161130952Y-130278190D02*
X161416666Y-130278190D01*
X161273809Y-130778190D02*
X161273809Y-130278190D01*
X161583333Y-130778190D02*
X161583333Y-130278190D01*
X161773809Y-130278190D01*
X161821428Y-130302000D01*
X161845238Y-130325809D01*
X161869047Y-130373428D01*
X161869047Y-130444857D01*
X161845238Y-130492476D01*
X161821428Y-130516285D01*
X161773809Y-130540095D01*
X161583333Y-130540095D01*
X162345238Y-130778190D02*
X162059523Y-130778190D01*
X162202380Y-130778190D02*
X162202380Y-130278190D01*
X162154761Y-130349619D01*
X162107142Y-130397238D01*
X162059523Y-130421047D01*
X162535714Y-130325809D02*
X162559523Y-130302000D01*
X162607142Y-130278190D01*
X162726190Y-130278190D01*
X162773809Y-130302000D01*
X162797619Y-130325809D01*
X162821428Y-130373428D01*
X162821428Y-130421047D01*
X162797619Y-130492476D01*
X162511904Y-130778190D01*
X162821428Y-130778190D01*
%TO.C,TP11*%
X140130952Y-75278190D02*
X140416666Y-75278190D01*
X140273809Y-75778190D02*
X140273809Y-75278190D01*
X140583333Y-75778190D02*
X140583333Y-75278190D01*
X140773809Y-75278190D01*
X140821428Y-75302000D01*
X140845238Y-75325809D01*
X140869047Y-75373428D01*
X140869047Y-75444857D01*
X140845238Y-75492476D01*
X140821428Y-75516285D01*
X140773809Y-75540095D01*
X140583333Y-75540095D01*
X141345238Y-75778190D02*
X141059523Y-75778190D01*
X141202380Y-75778190D02*
X141202380Y-75278190D01*
X141154761Y-75349619D01*
X141107142Y-75397238D01*
X141059523Y-75421047D01*
X141821428Y-75778190D02*
X141535714Y-75778190D01*
X141678571Y-75778190D02*
X141678571Y-75278190D01*
X141630952Y-75349619D01*
X141583333Y-75397238D01*
X141535714Y-75421047D01*
%TO.C,TP10*%
X159130952Y-69278190D02*
X159416666Y-69278190D01*
X159273809Y-69778190D02*
X159273809Y-69278190D01*
X159583333Y-69778190D02*
X159583333Y-69278190D01*
X159773809Y-69278190D01*
X159821428Y-69302000D01*
X159845238Y-69325809D01*
X159869047Y-69373428D01*
X159869047Y-69444857D01*
X159845238Y-69492476D01*
X159821428Y-69516285D01*
X159773809Y-69540095D01*
X159583333Y-69540095D01*
X160345238Y-69778190D02*
X160059523Y-69778190D01*
X160202380Y-69778190D02*
X160202380Y-69278190D01*
X160154761Y-69349619D01*
X160107142Y-69397238D01*
X160059523Y-69421047D01*
X160654761Y-69278190D02*
X160702380Y-69278190D01*
X160750000Y-69302000D01*
X160773809Y-69325809D01*
X160797619Y-69373428D01*
X160821428Y-69468666D01*
X160821428Y-69587714D01*
X160797619Y-69682952D01*
X160773809Y-69730571D01*
X160750000Y-69754380D01*
X160702380Y-69778190D01*
X160654761Y-69778190D01*
X160607142Y-69754380D01*
X160583333Y-69730571D01*
X160559523Y-69682952D01*
X160535714Y-69587714D01*
X160535714Y-69468666D01*
X160559523Y-69373428D01*
X160583333Y-69325809D01*
X160607142Y-69302000D01*
X160654761Y-69278190D01*
%TO.C,TP9*%
X157369047Y-62278190D02*
X157654761Y-62278190D01*
X157511904Y-62778190D02*
X157511904Y-62278190D01*
X157821428Y-62778190D02*
X157821428Y-62278190D01*
X158011904Y-62278190D01*
X158059523Y-62302000D01*
X158083333Y-62325809D01*
X158107142Y-62373428D01*
X158107142Y-62444857D01*
X158083333Y-62492476D01*
X158059523Y-62516285D01*
X158011904Y-62540095D01*
X157821428Y-62540095D01*
X158345238Y-62778190D02*
X158440476Y-62778190D01*
X158488095Y-62754380D01*
X158511904Y-62730571D01*
X158559523Y-62659142D01*
X158583333Y-62563904D01*
X158583333Y-62373428D01*
X158559523Y-62325809D01*
X158535714Y-62302000D01*
X158488095Y-62278190D01*
X158392857Y-62278190D01*
X158345238Y-62302000D01*
X158321428Y-62325809D01*
X158297619Y-62373428D01*
X158297619Y-62492476D01*
X158321428Y-62540095D01*
X158345238Y-62563904D01*
X158392857Y-62587714D01*
X158488095Y-62587714D01*
X158535714Y-62563904D01*
X158559523Y-62540095D01*
X158583333Y-62492476D01*
%TO.C,TP8*%
X155369047Y-75278190D02*
X155654761Y-75278190D01*
X155511904Y-75778190D02*
X155511904Y-75278190D01*
X155821428Y-75778190D02*
X155821428Y-75278190D01*
X156011904Y-75278190D01*
X156059523Y-75302000D01*
X156083333Y-75325809D01*
X156107142Y-75373428D01*
X156107142Y-75444857D01*
X156083333Y-75492476D01*
X156059523Y-75516285D01*
X156011904Y-75540095D01*
X155821428Y-75540095D01*
X156392857Y-75492476D02*
X156345238Y-75468666D01*
X156321428Y-75444857D01*
X156297619Y-75397238D01*
X156297619Y-75373428D01*
X156321428Y-75325809D01*
X156345238Y-75302000D01*
X156392857Y-75278190D01*
X156488095Y-75278190D01*
X156535714Y-75302000D01*
X156559523Y-75325809D01*
X156583333Y-75373428D01*
X156583333Y-75397238D01*
X156559523Y-75444857D01*
X156535714Y-75468666D01*
X156488095Y-75492476D01*
X156392857Y-75492476D01*
X156345238Y-75516285D01*
X156321428Y-75540095D01*
X156297619Y-75587714D01*
X156297619Y-75682952D01*
X156321428Y-75730571D01*
X156345238Y-75754380D01*
X156392857Y-75778190D01*
X156488095Y-75778190D01*
X156535714Y-75754380D01*
X156559523Y-75730571D01*
X156583333Y-75682952D01*
X156583333Y-75587714D01*
X156559523Y-75540095D01*
X156535714Y-75516285D01*
X156488095Y-75492476D01*
%TO.C,TP7*%
X161369047Y-138278190D02*
X161654761Y-138278190D01*
X161511904Y-138778190D02*
X161511904Y-138278190D01*
X161821428Y-138778190D02*
X161821428Y-138278190D01*
X162011904Y-138278190D01*
X162059523Y-138302000D01*
X162083333Y-138325809D01*
X162107142Y-138373428D01*
X162107142Y-138444857D01*
X162083333Y-138492476D01*
X162059523Y-138516285D01*
X162011904Y-138540095D01*
X161821428Y-138540095D01*
X162273809Y-138278190D02*
X162607142Y-138278190D01*
X162392857Y-138778190D01*
%TO.C,TP6*%
X123369047Y-111278190D02*
X123654761Y-111278190D01*
X123511904Y-111778190D02*
X123511904Y-111278190D01*
X123821428Y-111778190D02*
X123821428Y-111278190D01*
X124011904Y-111278190D01*
X124059523Y-111302000D01*
X124083333Y-111325809D01*
X124107142Y-111373428D01*
X124107142Y-111444857D01*
X124083333Y-111492476D01*
X124059523Y-111516285D01*
X124011904Y-111540095D01*
X123821428Y-111540095D01*
X124535714Y-111278190D02*
X124440476Y-111278190D01*
X124392857Y-111302000D01*
X124369047Y-111325809D01*
X124321428Y-111397238D01*
X124297619Y-111492476D01*
X124297619Y-111682952D01*
X124321428Y-111730571D01*
X124345238Y-111754380D01*
X124392857Y-111778190D01*
X124488095Y-111778190D01*
X124535714Y-111754380D01*
X124559523Y-111730571D01*
X124583333Y-111682952D01*
X124583333Y-111563904D01*
X124559523Y-111516285D01*
X124535714Y-111492476D01*
X124488095Y-111468666D01*
X124392857Y-111468666D01*
X124345238Y-111492476D01*
X124321428Y-111516285D01*
X124297619Y-111563904D01*
%TO.C,TP5*%
X137369047Y-96278190D02*
X137654761Y-96278190D01*
X137511904Y-96778190D02*
X137511904Y-96278190D01*
X137821428Y-96778190D02*
X137821428Y-96278190D01*
X138011904Y-96278190D01*
X138059523Y-96302000D01*
X138083333Y-96325809D01*
X138107142Y-96373428D01*
X138107142Y-96444857D01*
X138083333Y-96492476D01*
X138059523Y-96516285D01*
X138011904Y-96540095D01*
X137821428Y-96540095D01*
X138559523Y-96278190D02*
X138321428Y-96278190D01*
X138297619Y-96516285D01*
X138321428Y-96492476D01*
X138369047Y-96468666D01*
X138488095Y-96468666D01*
X138535714Y-96492476D01*
X138559523Y-96516285D01*
X138583333Y-96563904D01*
X138583333Y-96682952D01*
X138559523Y-96730571D01*
X138535714Y-96754380D01*
X138488095Y-96778190D01*
X138369047Y-96778190D01*
X138321428Y-96754380D01*
X138297619Y-96730571D01*
%TO.C,TP4*%
X117369047Y-115278190D02*
X117654761Y-115278190D01*
X117511904Y-115778190D02*
X117511904Y-115278190D01*
X117821428Y-115778190D02*
X117821428Y-115278190D01*
X118011904Y-115278190D01*
X118059523Y-115302000D01*
X118083333Y-115325809D01*
X118107142Y-115373428D01*
X118107142Y-115444857D01*
X118083333Y-115492476D01*
X118059523Y-115516285D01*
X118011904Y-115540095D01*
X117821428Y-115540095D01*
X118535714Y-115444857D02*
X118535714Y-115778190D01*
X118416666Y-115254380D02*
X118297619Y-115611523D01*
X118607142Y-115611523D01*
%TO.C,TP3*%
X125369047Y-107278190D02*
X125654761Y-107278190D01*
X125511904Y-107778190D02*
X125511904Y-107278190D01*
X125821428Y-107778190D02*
X125821428Y-107278190D01*
X126011904Y-107278190D01*
X126059523Y-107302000D01*
X126083333Y-107325809D01*
X126107142Y-107373428D01*
X126107142Y-107444857D01*
X126083333Y-107492476D01*
X126059523Y-107516285D01*
X126011904Y-107540095D01*
X125821428Y-107540095D01*
X126273809Y-107278190D02*
X126583333Y-107278190D01*
X126416666Y-107468666D01*
X126488095Y-107468666D01*
X126535714Y-107492476D01*
X126559523Y-107516285D01*
X126583333Y-107563904D01*
X126583333Y-107682952D01*
X126559523Y-107730571D01*
X126535714Y-107754380D01*
X126488095Y-107778190D01*
X126345238Y-107778190D01*
X126297619Y-107754380D01*
X126273809Y-107730571D01*
%TO.C,TP2*%
X119369047Y-144726190D02*
X119654761Y-144726190D01*
X119511904Y-145226190D02*
X119511904Y-144726190D01*
X119821428Y-145226190D02*
X119821428Y-144726190D01*
X120011904Y-144726190D01*
X120059523Y-144750000D01*
X120083333Y-144773809D01*
X120107142Y-144821428D01*
X120107142Y-144892857D01*
X120083333Y-144940476D01*
X120059523Y-144964285D01*
X120011904Y-144988095D01*
X119821428Y-144988095D01*
X120297619Y-144773809D02*
X120321428Y-144750000D01*
X120369047Y-144726190D01*
X120488095Y-144726190D01*
X120535714Y-144750000D01*
X120559523Y-144773809D01*
X120583333Y-144821428D01*
X120583333Y-144869047D01*
X120559523Y-144940476D01*
X120273809Y-145226190D01*
X120583333Y-145226190D01*
%TO.C,TP1*%
X161369047Y-142278190D02*
X161654761Y-142278190D01*
X161511904Y-142778190D02*
X161511904Y-142278190D01*
X161821428Y-142778190D02*
X161821428Y-142278190D01*
X162011904Y-142278190D01*
X162059523Y-142302000D01*
X162083333Y-142325809D01*
X162107142Y-142373428D01*
X162107142Y-142444857D01*
X162083333Y-142492476D01*
X162059523Y-142516285D01*
X162011904Y-142540095D01*
X161821428Y-142540095D01*
X162583333Y-142778190D02*
X162297619Y-142778190D01*
X162440476Y-142778190D02*
X162440476Y-142278190D01*
X162392857Y-142349619D01*
X162345238Y-142397238D01*
X162297619Y-142421047D01*
%TO.C,R25*%
X158678571Y-105796190D02*
X158511904Y-105558095D01*
X158392857Y-105796190D02*
X158392857Y-105296190D01*
X158583333Y-105296190D01*
X158630952Y-105320000D01*
X158654761Y-105343809D01*
X158678571Y-105391428D01*
X158678571Y-105462857D01*
X158654761Y-105510476D01*
X158630952Y-105534285D01*
X158583333Y-105558095D01*
X158392857Y-105558095D01*
X158869047Y-105343809D02*
X158892857Y-105320000D01*
X158940476Y-105296190D01*
X159059523Y-105296190D01*
X159107142Y-105320000D01*
X159130952Y-105343809D01*
X159154761Y-105391428D01*
X159154761Y-105439047D01*
X159130952Y-105510476D01*
X158845238Y-105796190D01*
X159154761Y-105796190D01*
X159607142Y-105296190D02*
X159369047Y-105296190D01*
X159345238Y-105534285D01*
X159369047Y-105510476D01*
X159416666Y-105486666D01*
X159535714Y-105486666D01*
X159583333Y-105510476D01*
X159607142Y-105534285D01*
X159630952Y-105581904D01*
X159630952Y-105700952D01*
X159607142Y-105748571D01*
X159583333Y-105772380D01*
X159535714Y-105796190D01*
X159416666Y-105796190D01*
X159369047Y-105772380D01*
X159345238Y-105748571D01*
%TO.C,R24*%
X157678571Y-112796190D02*
X157511904Y-112558095D01*
X157392857Y-112796190D02*
X157392857Y-112296190D01*
X157583333Y-112296190D01*
X157630952Y-112320000D01*
X157654761Y-112343809D01*
X157678571Y-112391428D01*
X157678571Y-112462857D01*
X157654761Y-112510476D01*
X157630952Y-112534285D01*
X157583333Y-112558095D01*
X157392857Y-112558095D01*
X157869047Y-112343809D02*
X157892857Y-112320000D01*
X157940476Y-112296190D01*
X158059523Y-112296190D01*
X158107142Y-112320000D01*
X158130952Y-112343809D01*
X158154761Y-112391428D01*
X158154761Y-112439047D01*
X158130952Y-112510476D01*
X157845238Y-112796190D01*
X158154761Y-112796190D01*
X158583333Y-112462857D02*
X158583333Y-112796190D01*
X158464285Y-112272380D02*
X158345238Y-112629523D01*
X158654761Y-112629523D01*
%TO.C,R23*%
X146678571Y-75796190D02*
X146511904Y-75558095D01*
X146392857Y-75796190D02*
X146392857Y-75296190D01*
X146583333Y-75296190D01*
X146630952Y-75320000D01*
X146654761Y-75343809D01*
X146678571Y-75391428D01*
X146678571Y-75462857D01*
X146654761Y-75510476D01*
X146630952Y-75534285D01*
X146583333Y-75558095D01*
X146392857Y-75558095D01*
X146869047Y-75343809D02*
X146892857Y-75320000D01*
X146940476Y-75296190D01*
X147059523Y-75296190D01*
X147107142Y-75320000D01*
X147130952Y-75343809D01*
X147154761Y-75391428D01*
X147154761Y-75439047D01*
X147130952Y-75510476D01*
X146845238Y-75796190D01*
X147154761Y-75796190D01*
X147321428Y-75296190D02*
X147630952Y-75296190D01*
X147464285Y-75486666D01*
X147535714Y-75486666D01*
X147583333Y-75510476D01*
X147607142Y-75534285D01*
X147630952Y-75581904D01*
X147630952Y-75700952D01*
X147607142Y-75748571D01*
X147583333Y-75772380D01*
X147535714Y-75796190D01*
X147392857Y-75796190D01*
X147345238Y-75772380D01*
X147321428Y-75748571D01*
%TO.C,R22*%
X131678571Y-103796190D02*
X131511904Y-103558095D01*
X131392857Y-103796190D02*
X131392857Y-103296190D01*
X131583333Y-103296190D01*
X131630952Y-103320000D01*
X131654761Y-103343809D01*
X131678571Y-103391428D01*
X131678571Y-103462857D01*
X131654761Y-103510476D01*
X131630952Y-103534285D01*
X131583333Y-103558095D01*
X131392857Y-103558095D01*
X131869047Y-103343809D02*
X131892857Y-103320000D01*
X131940476Y-103296190D01*
X132059523Y-103296190D01*
X132107142Y-103320000D01*
X132130952Y-103343809D01*
X132154761Y-103391428D01*
X132154761Y-103439047D01*
X132130952Y-103510476D01*
X131845238Y-103796190D01*
X132154761Y-103796190D01*
X132345238Y-103343809D02*
X132369047Y-103320000D01*
X132416666Y-103296190D01*
X132535714Y-103296190D01*
X132583333Y-103320000D01*
X132607142Y-103343809D01*
X132630952Y-103391428D01*
X132630952Y-103439047D01*
X132607142Y-103510476D01*
X132321428Y-103796190D01*
X132630952Y-103796190D01*
%TO.C,R21*%
X118428571Y-133726190D02*
X118261904Y-133488095D01*
X118142857Y-133726190D02*
X118142857Y-133226190D01*
X118333333Y-133226190D01*
X118380952Y-133250000D01*
X118404761Y-133273809D01*
X118428571Y-133321428D01*
X118428571Y-133392857D01*
X118404761Y-133440476D01*
X118380952Y-133464285D01*
X118333333Y-133488095D01*
X118142857Y-133488095D01*
X118619047Y-133273809D02*
X118642857Y-133250000D01*
X118690476Y-133226190D01*
X118809523Y-133226190D01*
X118857142Y-133250000D01*
X118880952Y-133273809D01*
X118904761Y-133321428D01*
X118904761Y-133369047D01*
X118880952Y-133440476D01*
X118595238Y-133726190D01*
X118904761Y-133726190D01*
X119380952Y-133726190D02*
X119095238Y-133726190D01*
X119238095Y-133726190D02*
X119238095Y-133226190D01*
X119190476Y-133297619D01*
X119142857Y-133345238D01*
X119095238Y-133369047D01*
%TO.C,R20*%
X118428571Y-130226190D02*
X118261904Y-129988095D01*
X118142857Y-130226190D02*
X118142857Y-129726190D01*
X118333333Y-129726190D01*
X118380952Y-129750000D01*
X118404761Y-129773809D01*
X118428571Y-129821428D01*
X118428571Y-129892857D01*
X118404761Y-129940476D01*
X118380952Y-129964285D01*
X118333333Y-129988095D01*
X118142857Y-129988095D01*
X118619047Y-129773809D02*
X118642857Y-129750000D01*
X118690476Y-129726190D01*
X118809523Y-129726190D01*
X118857142Y-129750000D01*
X118880952Y-129773809D01*
X118904761Y-129821428D01*
X118904761Y-129869047D01*
X118880952Y-129940476D01*
X118595238Y-130226190D01*
X118904761Y-130226190D01*
X119214285Y-129726190D02*
X119261904Y-129726190D01*
X119309523Y-129750000D01*
X119333333Y-129773809D01*
X119357142Y-129821428D01*
X119380952Y-129916666D01*
X119380952Y-130035714D01*
X119357142Y-130130952D01*
X119333333Y-130178571D01*
X119309523Y-130202380D01*
X119261904Y-130226190D01*
X119214285Y-130226190D01*
X119166666Y-130202380D01*
X119142857Y-130178571D01*
X119119047Y-130130952D01*
X119095238Y-130035714D01*
X119095238Y-129916666D01*
X119119047Y-129821428D01*
X119142857Y-129773809D01*
X119166666Y-129750000D01*
X119214285Y-129726190D01*
%TO.C,R19*%
X131808571Y-58796190D02*
X131641904Y-58558095D01*
X131522857Y-58796190D02*
X131522857Y-58296190D01*
X131713333Y-58296190D01*
X131760952Y-58320000D01*
X131784761Y-58343809D01*
X131808571Y-58391428D01*
X131808571Y-58462857D01*
X131784761Y-58510476D01*
X131760952Y-58534285D01*
X131713333Y-58558095D01*
X131522857Y-58558095D01*
X132284761Y-58796190D02*
X131999047Y-58796190D01*
X132141904Y-58796190D02*
X132141904Y-58296190D01*
X132094285Y-58367619D01*
X132046666Y-58415238D01*
X131999047Y-58439047D01*
X132522857Y-58796190D02*
X132618095Y-58796190D01*
X132665714Y-58772380D01*
X132689523Y-58748571D01*
X132737142Y-58677142D01*
X132760952Y-58581904D01*
X132760952Y-58391428D01*
X132737142Y-58343809D01*
X132713333Y-58320000D01*
X132665714Y-58296190D01*
X132570476Y-58296190D01*
X132522857Y-58320000D01*
X132499047Y-58343809D01*
X132475238Y-58391428D01*
X132475238Y-58510476D01*
X132499047Y-58558095D01*
X132522857Y-58581904D01*
X132570476Y-58605714D01*
X132665714Y-58605714D01*
X132713333Y-58581904D01*
X132737142Y-58558095D01*
X132760952Y-58510476D01*
%TO.C,R18*%
X159548571Y-58796190D02*
X159381904Y-58558095D01*
X159262857Y-58796190D02*
X159262857Y-58296190D01*
X159453333Y-58296190D01*
X159500952Y-58320000D01*
X159524761Y-58343809D01*
X159548571Y-58391428D01*
X159548571Y-58462857D01*
X159524761Y-58510476D01*
X159500952Y-58534285D01*
X159453333Y-58558095D01*
X159262857Y-58558095D01*
X160024761Y-58796190D02*
X159739047Y-58796190D01*
X159881904Y-58796190D02*
X159881904Y-58296190D01*
X159834285Y-58367619D01*
X159786666Y-58415238D01*
X159739047Y-58439047D01*
X160310476Y-58510476D02*
X160262857Y-58486666D01*
X160239047Y-58462857D01*
X160215238Y-58415238D01*
X160215238Y-58391428D01*
X160239047Y-58343809D01*
X160262857Y-58320000D01*
X160310476Y-58296190D01*
X160405714Y-58296190D01*
X160453333Y-58320000D01*
X160477142Y-58343809D01*
X160500952Y-58391428D01*
X160500952Y-58415238D01*
X160477142Y-58462857D01*
X160453333Y-58486666D01*
X160405714Y-58510476D01*
X160310476Y-58510476D01*
X160262857Y-58534285D01*
X160239047Y-58558095D01*
X160215238Y-58605714D01*
X160215238Y-58700952D01*
X160239047Y-58748571D01*
X160262857Y-58772380D01*
X160310476Y-58796190D01*
X160405714Y-58796190D01*
X160453333Y-58772380D01*
X160477142Y-58748571D01*
X160500952Y-58700952D01*
X160500952Y-58605714D01*
X160477142Y-58558095D01*
X160453333Y-58534285D01*
X160405714Y-58510476D01*
%TO.C,R17*%
X178678571Y-145796190D02*
X178511904Y-145558095D01*
X178392857Y-145796190D02*
X178392857Y-145296190D01*
X178583333Y-145296190D01*
X178630952Y-145320000D01*
X178654761Y-145343809D01*
X178678571Y-145391428D01*
X178678571Y-145462857D01*
X178654761Y-145510476D01*
X178630952Y-145534285D01*
X178583333Y-145558095D01*
X178392857Y-145558095D01*
X179154761Y-145796190D02*
X178869047Y-145796190D01*
X179011904Y-145796190D02*
X179011904Y-145296190D01*
X178964285Y-145367619D01*
X178916666Y-145415238D01*
X178869047Y-145439047D01*
X179321428Y-145296190D02*
X179654761Y-145296190D01*
X179440476Y-145796190D01*
%TO.C,R16*%
X129976190Y-68321428D02*
X129738095Y-68488095D01*
X129976190Y-68607142D02*
X129476190Y-68607142D01*
X129476190Y-68416666D01*
X129500000Y-68369047D01*
X129523809Y-68345238D01*
X129571428Y-68321428D01*
X129642857Y-68321428D01*
X129690476Y-68345238D01*
X129714285Y-68369047D01*
X129738095Y-68416666D01*
X129738095Y-68607142D01*
X129976190Y-67845238D02*
X129976190Y-68130952D01*
X129976190Y-67988095D02*
X129476190Y-67988095D01*
X129547619Y-68035714D01*
X129595238Y-68083333D01*
X129619047Y-68130952D01*
X129476190Y-67416666D02*
X129476190Y-67511904D01*
X129500000Y-67559523D01*
X129523809Y-67583333D01*
X129595238Y-67630952D01*
X129690476Y-67654761D01*
X129880952Y-67654761D01*
X129928571Y-67630952D01*
X129952380Y-67607142D01*
X129976190Y-67559523D01*
X129976190Y-67464285D01*
X129952380Y-67416666D01*
X129928571Y-67392857D01*
X129880952Y-67369047D01*
X129761904Y-67369047D01*
X129714285Y-67392857D01*
X129690476Y-67416666D01*
X129666666Y-67464285D01*
X129666666Y-67559523D01*
X129690476Y-67607142D01*
X129714285Y-67630952D01*
X129761904Y-67654761D01*
%TO.C,R15*%
X145678571Y-111796190D02*
X145511904Y-111558095D01*
X145392857Y-111796190D02*
X145392857Y-111296190D01*
X145583333Y-111296190D01*
X145630952Y-111320000D01*
X145654761Y-111343809D01*
X145678571Y-111391428D01*
X145678571Y-111462857D01*
X145654761Y-111510476D01*
X145630952Y-111534285D01*
X145583333Y-111558095D01*
X145392857Y-111558095D01*
X146154761Y-111796190D02*
X145869047Y-111796190D01*
X146011904Y-111796190D02*
X146011904Y-111296190D01*
X145964285Y-111367619D01*
X145916666Y-111415238D01*
X145869047Y-111439047D01*
X146607142Y-111296190D02*
X146369047Y-111296190D01*
X146345238Y-111534285D01*
X146369047Y-111510476D01*
X146416666Y-111486666D01*
X146535714Y-111486666D01*
X146583333Y-111510476D01*
X146607142Y-111534285D01*
X146630952Y-111581904D01*
X146630952Y-111700952D01*
X146607142Y-111748571D01*
X146583333Y-111772380D01*
X146535714Y-111796190D01*
X146416666Y-111796190D01*
X146369047Y-111772380D01*
X146345238Y-111748571D01*
%TO.C,R14*%
X164678571Y-103796190D02*
X164511904Y-103558095D01*
X164392857Y-103796190D02*
X164392857Y-103296190D01*
X164583333Y-103296190D01*
X164630952Y-103320000D01*
X164654761Y-103343809D01*
X164678571Y-103391428D01*
X164678571Y-103462857D01*
X164654761Y-103510476D01*
X164630952Y-103534285D01*
X164583333Y-103558095D01*
X164392857Y-103558095D01*
X165154761Y-103796190D02*
X164869047Y-103796190D01*
X165011904Y-103796190D02*
X165011904Y-103296190D01*
X164964285Y-103367619D01*
X164916666Y-103415238D01*
X164869047Y-103439047D01*
X165583333Y-103462857D02*
X165583333Y-103796190D01*
X165464285Y-103272380D02*
X165345238Y-103629523D01*
X165654761Y-103629523D01*
%TO.C,R13*%
X145678571Y-103796190D02*
X145511904Y-103558095D01*
X145392857Y-103796190D02*
X145392857Y-103296190D01*
X145583333Y-103296190D01*
X145630952Y-103320000D01*
X145654761Y-103343809D01*
X145678571Y-103391428D01*
X145678571Y-103462857D01*
X145654761Y-103510476D01*
X145630952Y-103534285D01*
X145583333Y-103558095D01*
X145392857Y-103558095D01*
X146154761Y-103796190D02*
X145869047Y-103796190D01*
X146011904Y-103796190D02*
X146011904Y-103296190D01*
X145964285Y-103367619D01*
X145916666Y-103415238D01*
X145869047Y-103439047D01*
X146321428Y-103296190D02*
X146630952Y-103296190D01*
X146464285Y-103486666D01*
X146535714Y-103486666D01*
X146583333Y-103510476D01*
X146607142Y-103534285D01*
X146630952Y-103581904D01*
X146630952Y-103700952D01*
X146607142Y-103748571D01*
X146583333Y-103772380D01*
X146535714Y-103796190D01*
X146392857Y-103796190D01*
X146345238Y-103772380D01*
X146321428Y-103748571D01*
%TO.C,R12*%
X131996190Y-138521428D02*
X131758095Y-138688095D01*
X131996190Y-138807142D02*
X131496190Y-138807142D01*
X131496190Y-138616666D01*
X131520000Y-138569047D01*
X131543809Y-138545238D01*
X131591428Y-138521428D01*
X131662857Y-138521428D01*
X131710476Y-138545238D01*
X131734285Y-138569047D01*
X131758095Y-138616666D01*
X131758095Y-138807142D01*
X131996190Y-138045238D02*
X131996190Y-138330952D01*
X131996190Y-138188095D02*
X131496190Y-138188095D01*
X131567619Y-138235714D01*
X131615238Y-138283333D01*
X131639047Y-138330952D01*
X131543809Y-137854761D02*
X131520000Y-137830952D01*
X131496190Y-137783333D01*
X131496190Y-137664285D01*
X131520000Y-137616666D01*
X131543809Y-137592857D01*
X131591428Y-137569047D01*
X131639047Y-137569047D01*
X131710476Y-137592857D01*
X131996190Y-137878571D01*
X131996190Y-137569047D01*
%TO.C,R10*%
X150856190Y-121121428D02*
X150618095Y-121288095D01*
X150856190Y-121407142D02*
X150356190Y-121407142D01*
X150356190Y-121216666D01*
X150380000Y-121169047D01*
X150403809Y-121145238D01*
X150451428Y-121121428D01*
X150522857Y-121121428D01*
X150570476Y-121145238D01*
X150594285Y-121169047D01*
X150618095Y-121216666D01*
X150618095Y-121407142D01*
X150856190Y-120645238D02*
X150856190Y-120930952D01*
X150856190Y-120788095D02*
X150356190Y-120788095D01*
X150427619Y-120835714D01*
X150475238Y-120883333D01*
X150499047Y-120930952D01*
X150356190Y-120335714D02*
X150356190Y-120288095D01*
X150380000Y-120240476D01*
X150403809Y-120216666D01*
X150451428Y-120192857D01*
X150546666Y-120169047D01*
X150665714Y-120169047D01*
X150760952Y-120192857D01*
X150808571Y-120216666D01*
X150832380Y-120240476D01*
X150856190Y-120288095D01*
X150856190Y-120335714D01*
X150832380Y-120383333D01*
X150808571Y-120407142D01*
X150760952Y-120430952D01*
X150665714Y-120454761D01*
X150546666Y-120454761D01*
X150451428Y-120430952D01*
X150403809Y-120407142D01*
X150380000Y-120383333D01*
X150356190Y-120335714D01*
%TO.C,R9*%
X145856190Y-120883333D02*
X145618095Y-121050000D01*
X145856190Y-121169047D02*
X145356190Y-121169047D01*
X145356190Y-120978571D01*
X145380000Y-120930952D01*
X145403809Y-120907142D01*
X145451428Y-120883333D01*
X145522857Y-120883333D01*
X145570476Y-120907142D01*
X145594285Y-120930952D01*
X145618095Y-120978571D01*
X145618095Y-121169047D01*
X145856190Y-120645238D02*
X145856190Y-120550000D01*
X145832380Y-120502380D01*
X145808571Y-120478571D01*
X145737142Y-120430952D01*
X145641904Y-120407142D01*
X145451428Y-120407142D01*
X145403809Y-120430952D01*
X145380000Y-120454761D01*
X145356190Y-120502380D01*
X145356190Y-120597619D01*
X145380000Y-120645238D01*
X145403809Y-120669047D01*
X145451428Y-120692857D01*
X145570476Y-120692857D01*
X145618095Y-120669047D01*
X145641904Y-120645238D01*
X145665714Y-120597619D01*
X145665714Y-120502380D01*
X145641904Y-120454761D01*
X145618095Y-120430952D01*
X145570476Y-120407142D01*
%TO.C,R8*%
X133396190Y-138283333D02*
X133158095Y-138450000D01*
X133396190Y-138569047D02*
X132896190Y-138569047D01*
X132896190Y-138378571D01*
X132920000Y-138330952D01*
X132943809Y-138307142D01*
X132991428Y-138283333D01*
X133062857Y-138283333D01*
X133110476Y-138307142D01*
X133134285Y-138330952D01*
X133158095Y-138378571D01*
X133158095Y-138569047D01*
X133110476Y-137997619D02*
X133086666Y-138045238D01*
X133062857Y-138069047D01*
X133015238Y-138092857D01*
X132991428Y-138092857D01*
X132943809Y-138069047D01*
X132920000Y-138045238D01*
X132896190Y-137997619D01*
X132896190Y-137902380D01*
X132920000Y-137854761D01*
X132943809Y-137830952D01*
X132991428Y-137807142D01*
X133015238Y-137807142D01*
X133062857Y-137830952D01*
X133086666Y-137854761D01*
X133110476Y-137902380D01*
X133110476Y-137997619D01*
X133134285Y-138045238D01*
X133158095Y-138069047D01*
X133205714Y-138092857D01*
X133300952Y-138092857D01*
X133348571Y-138069047D01*
X133372380Y-138045238D01*
X133396190Y-137997619D01*
X133396190Y-137902380D01*
X133372380Y-137854761D01*
X133348571Y-137830952D01*
X133300952Y-137807142D01*
X133205714Y-137807142D01*
X133158095Y-137830952D01*
X133134285Y-137854761D01*
X133110476Y-137902380D01*
%TO.C,R7*%
X150426190Y-68883333D02*
X150188095Y-69050000D01*
X150426190Y-69169047D02*
X149926190Y-69169047D01*
X149926190Y-68978571D01*
X149950000Y-68930952D01*
X149973809Y-68907142D01*
X150021428Y-68883333D01*
X150092857Y-68883333D01*
X150140476Y-68907142D01*
X150164285Y-68930952D01*
X150188095Y-68978571D01*
X150188095Y-69169047D01*
X149926190Y-68716666D02*
X149926190Y-68383333D01*
X150426190Y-68597619D01*
%TO.C,R6*%
X144456190Y-120883333D02*
X144218095Y-121050000D01*
X144456190Y-121169047D02*
X143956190Y-121169047D01*
X143956190Y-120978571D01*
X143980000Y-120930952D01*
X144003809Y-120907142D01*
X144051428Y-120883333D01*
X144122857Y-120883333D01*
X144170476Y-120907142D01*
X144194285Y-120930952D01*
X144218095Y-120978571D01*
X144218095Y-121169047D01*
X143956190Y-120454761D02*
X143956190Y-120550000D01*
X143980000Y-120597619D01*
X144003809Y-120621428D01*
X144075238Y-120669047D01*
X144170476Y-120692857D01*
X144360952Y-120692857D01*
X144408571Y-120669047D01*
X144432380Y-120645238D01*
X144456190Y-120597619D01*
X144456190Y-120502380D01*
X144432380Y-120454761D01*
X144408571Y-120430952D01*
X144360952Y-120407142D01*
X144241904Y-120407142D01*
X144194285Y-120430952D01*
X144170476Y-120454761D01*
X144146666Y-120502380D01*
X144146666Y-120597619D01*
X144170476Y-120645238D01*
X144194285Y-120669047D01*
X144241904Y-120692857D01*
%TO.C,R5*%
X145916666Y-115796190D02*
X145750000Y-115558095D01*
X145630952Y-115796190D02*
X145630952Y-115296190D01*
X145821428Y-115296190D01*
X145869047Y-115320000D01*
X145892857Y-115343809D01*
X145916666Y-115391428D01*
X145916666Y-115462857D01*
X145892857Y-115510476D01*
X145869047Y-115534285D01*
X145821428Y-115558095D01*
X145630952Y-115558095D01*
X146369047Y-115296190D02*
X146130952Y-115296190D01*
X146107142Y-115534285D01*
X146130952Y-115510476D01*
X146178571Y-115486666D01*
X146297619Y-115486666D01*
X146345238Y-115510476D01*
X146369047Y-115534285D01*
X146392857Y-115581904D01*
X146392857Y-115700952D01*
X146369047Y-115748571D01*
X146345238Y-115772380D01*
X146297619Y-115796190D01*
X146178571Y-115796190D01*
X146130952Y-115772380D01*
X146107142Y-115748571D01*
%TO.C,R4*%
X133916666Y-113796190D02*
X133750000Y-113558095D01*
X133630952Y-113796190D02*
X133630952Y-113296190D01*
X133821428Y-113296190D01*
X133869047Y-113320000D01*
X133892857Y-113343809D01*
X133916666Y-113391428D01*
X133916666Y-113462857D01*
X133892857Y-113510476D01*
X133869047Y-113534285D01*
X133821428Y-113558095D01*
X133630952Y-113558095D01*
X134345238Y-113462857D02*
X134345238Y-113796190D01*
X134226190Y-113272380D02*
X134107142Y-113629523D01*
X134416666Y-113629523D01*
%TO.C,R3*%
X150916666Y-70796190D02*
X150750000Y-70558095D01*
X150630952Y-70796190D02*
X150630952Y-70296190D01*
X150821428Y-70296190D01*
X150869047Y-70320000D01*
X150892857Y-70343809D01*
X150916666Y-70391428D01*
X150916666Y-70462857D01*
X150892857Y-70510476D01*
X150869047Y-70534285D01*
X150821428Y-70558095D01*
X150630952Y-70558095D01*
X151083333Y-70296190D02*
X151392857Y-70296190D01*
X151226190Y-70486666D01*
X151297619Y-70486666D01*
X151345238Y-70510476D01*
X151369047Y-70534285D01*
X151392857Y-70581904D01*
X151392857Y-70700952D01*
X151369047Y-70748571D01*
X151345238Y-70772380D01*
X151297619Y-70796190D01*
X151154761Y-70796190D01*
X151107142Y-70772380D01*
X151083333Y-70748571D01*
%TO.C,R2*%
X137916666Y-69796190D02*
X137750000Y-69558095D01*
X137630952Y-69796190D02*
X137630952Y-69296190D01*
X137821428Y-69296190D01*
X137869047Y-69320000D01*
X137892857Y-69343809D01*
X137916666Y-69391428D01*
X137916666Y-69462857D01*
X137892857Y-69510476D01*
X137869047Y-69534285D01*
X137821428Y-69558095D01*
X137630952Y-69558095D01*
X138107142Y-69343809D02*
X138130952Y-69320000D01*
X138178571Y-69296190D01*
X138297619Y-69296190D01*
X138345238Y-69320000D01*
X138369047Y-69343809D01*
X138392857Y-69391428D01*
X138392857Y-69439047D01*
X138369047Y-69510476D01*
X138083333Y-69796190D01*
X138392857Y-69796190D01*
%TO.C,R1*%
X145916666Y-107796190D02*
X145750000Y-107558095D01*
X145630952Y-107796190D02*
X145630952Y-107296190D01*
X145821428Y-107296190D01*
X145869047Y-107320000D01*
X145892857Y-107343809D01*
X145916666Y-107391428D01*
X145916666Y-107462857D01*
X145892857Y-107510476D01*
X145869047Y-107534285D01*
X145821428Y-107558095D01*
X145630952Y-107558095D01*
X146392857Y-107796190D02*
X146107142Y-107796190D01*
X146250000Y-107796190D02*
X146250000Y-107296190D01*
X146202380Y-107367619D01*
X146154761Y-107415238D01*
X146107142Y-107439047D01*
%TO.C,Q2*%
X138952380Y-111773809D02*
X138904761Y-111750000D01*
X138857142Y-111702380D01*
X138785714Y-111630952D01*
X138738095Y-111607142D01*
X138690476Y-111607142D01*
X138714285Y-111726190D02*
X138666666Y-111702380D01*
X138619047Y-111654761D01*
X138595238Y-111559523D01*
X138595238Y-111392857D01*
X138619047Y-111297619D01*
X138666666Y-111250000D01*
X138714285Y-111226190D01*
X138809523Y-111226190D01*
X138857142Y-111250000D01*
X138904761Y-111297619D01*
X138928571Y-111392857D01*
X138928571Y-111559523D01*
X138904761Y-111654761D01*
X138857142Y-111702380D01*
X138809523Y-111726190D01*
X138714285Y-111726190D01*
X139119047Y-111273809D02*
X139142857Y-111250000D01*
X139190476Y-111226190D01*
X139309523Y-111226190D01*
X139357142Y-111250000D01*
X139380952Y-111273809D01*
X139404761Y-111321428D01*
X139404761Y-111369047D01*
X139380952Y-111440476D01*
X139095238Y-111726190D01*
X139404761Y-111726190D01*
%TO.C,Q1*%
X150952380Y-112773809D02*
X150904761Y-112750000D01*
X150857142Y-112702380D01*
X150785714Y-112630952D01*
X150738095Y-112607142D01*
X150690476Y-112607142D01*
X150714285Y-112726190D02*
X150666666Y-112702380D01*
X150619047Y-112654761D01*
X150595238Y-112559523D01*
X150595238Y-112392857D01*
X150619047Y-112297619D01*
X150666666Y-112250000D01*
X150714285Y-112226190D01*
X150809523Y-112226190D01*
X150857142Y-112250000D01*
X150904761Y-112297619D01*
X150928571Y-112392857D01*
X150928571Y-112559523D01*
X150904761Y-112654761D01*
X150857142Y-112702380D01*
X150809523Y-112726190D01*
X150714285Y-112726190D01*
X151404761Y-112726190D02*
X151119047Y-112726190D01*
X151261904Y-112726190D02*
X151261904Y-112226190D01*
X151214285Y-112297619D01*
X151166666Y-112345238D01*
X151119047Y-112369047D01*
%TO.C,L1*%
X175916666Y-113946190D02*
X175678571Y-113946190D01*
X175678571Y-113446190D01*
X176345238Y-113946190D02*
X176059523Y-113946190D01*
X176202380Y-113946190D02*
X176202380Y-113446190D01*
X176154761Y-113517619D01*
X176107142Y-113565238D01*
X176059523Y-113589047D01*
%TO.C,J3*%
X114396190Y-74166666D02*
X114753333Y-74166666D01*
X114824761Y-74190476D01*
X114872380Y-74238095D01*
X114896190Y-74309523D01*
X114896190Y-74357142D01*
X114396190Y-73976190D02*
X114396190Y-73666666D01*
X114586666Y-73833333D01*
X114586666Y-73761904D01*
X114610476Y-73714285D01*
X114634285Y-73690476D01*
X114681904Y-73666666D01*
X114800952Y-73666666D01*
X114848571Y-73690476D01*
X114872380Y-73714285D01*
X114896190Y-73761904D01*
X114896190Y-73904761D01*
X114872380Y-73952380D01*
X114848571Y-73976190D01*
%TO.C,J2*%
X172976190Y-130166666D02*
X173333333Y-130166666D01*
X173404761Y-130190476D01*
X173452380Y-130238095D01*
X173476190Y-130309523D01*
X173476190Y-130357142D01*
X173023809Y-129952380D02*
X173000000Y-129928571D01*
X172976190Y-129880952D01*
X172976190Y-129761904D01*
X173000000Y-129714285D01*
X173023809Y-129690476D01*
X173071428Y-129666666D01*
X173119047Y-129666666D01*
X173190476Y-129690476D01*
X173476190Y-129976190D01*
X173476190Y-129666666D01*
%TO.C,J1*%
X145743333Y-48216190D02*
X145743333Y-48573333D01*
X145719523Y-48644761D01*
X145671904Y-48692380D01*
X145600476Y-48716190D01*
X145552857Y-48716190D01*
X146243333Y-48716190D02*
X145957619Y-48716190D01*
X146100476Y-48716190D02*
X146100476Y-48216190D01*
X146052857Y-48287619D01*
X146005238Y-48335238D01*
X145957619Y-48359047D01*
%TO.C,D17*%
X138392857Y-105726190D02*
X138392857Y-105226190D01*
X138511904Y-105226190D01*
X138583333Y-105250000D01*
X138630952Y-105297619D01*
X138654761Y-105345238D01*
X138678571Y-105440476D01*
X138678571Y-105511904D01*
X138654761Y-105607142D01*
X138630952Y-105654761D01*
X138583333Y-105702380D01*
X138511904Y-105726190D01*
X138392857Y-105726190D01*
X139154761Y-105726190D02*
X138869047Y-105726190D01*
X139011904Y-105726190D02*
X139011904Y-105226190D01*
X138964285Y-105297619D01*
X138916666Y-105345238D01*
X138869047Y-105369047D01*
X139321428Y-105226190D02*
X139654761Y-105226190D01*
X139440476Y-105726190D01*
%TO.C,D16*%
X129392857Y-142926190D02*
X129392857Y-142426190D01*
X129511904Y-142426190D01*
X129583333Y-142450000D01*
X129630952Y-142497619D01*
X129654761Y-142545238D01*
X129678571Y-142640476D01*
X129678571Y-142711904D01*
X129654761Y-142807142D01*
X129630952Y-142854761D01*
X129583333Y-142902380D01*
X129511904Y-142926190D01*
X129392857Y-142926190D01*
X130154761Y-142926190D02*
X129869047Y-142926190D01*
X130011904Y-142926190D02*
X130011904Y-142426190D01*
X129964285Y-142497619D01*
X129916666Y-142545238D01*
X129869047Y-142569047D01*
X130583333Y-142426190D02*
X130488095Y-142426190D01*
X130440476Y-142450000D01*
X130416666Y-142473809D01*
X130369047Y-142545238D01*
X130345238Y-142640476D01*
X130345238Y-142830952D01*
X130369047Y-142878571D01*
X130392857Y-142902380D01*
X130440476Y-142926190D01*
X130535714Y-142926190D01*
X130583333Y-142902380D01*
X130607142Y-142878571D01*
X130630952Y-142830952D01*
X130630952Y-142711904D01*
X130607142Y-142664285D01*
X130583333Y-142640476D01*
X130535714Y-142616666D01*
X130440476Y-142616666D01*
X130392857Y-142640476D01*
X130369047Y-142664285D01*
X130345238Y-142711904D01*
%TO.C,D15*%
X129392857Y-113926190D02*
X129392857Y-113426190D01*
X129511904Y-113426190D01*
X129583333Y-113450000D01*
X129630952Y-113497619D01*
X129654761Y-113545238D01*
X129678571Y-113640476D01*
X129678571Y-113711904D01*
X129654761Y-113807142D01*
X129630952Y-113854761D01*
X129583333Y-113902380D01*
X129511904Y-113926190D01*
X129392857Y-113926190D01*
X130154761Y-113926190D02*
X129869047Y-113926190D01*
X130011904Y-113926190D02*
X130011904Y-113426190D01*
X129964285Y-113497619D01*
X129916666Y-113545238D01*
X129869047Y-113569047D01*
X130607142Y-113426190D02*
X130369047Y-113426190D01*
X130345238Y-113664285D01*
X130369047Y-113640476D01*
X130416666Y-113616666D01*
X130535714Y-113616666D01*
X130583333Y-113640476D01*
X130607142Y-113664285D01*
X130630952Y-113711904D01*
X130630952Y-113830952D01*
X130607142Y-113878571D01*
X130583333Y-113902380D01*
X130535714Y-113926190D01*
X130416666Y-113926190D01*
X130369047Y-113902380D01*
X130345238Y-113878571D01*
%TO.C,D14*%
X131522857Y-50446190D02*
X131522857Y-49946190D01*
X131641904Y-49946190D01*
X131713333Y-49970000D01*
X131760952Y-50017619D01*
X131784761Y-50065238D01*
X131808571Y-50160476D01*
X131808571Y-50231904D01*
X131784761Y-50327142D01*
X131760952Y-50374761D01*
X131713333Y-50422380D01*
X131641904Y-50446190D01*
X131522857Y-50446190D01*
X132284761Y-50446190D02*
X131999047Y-50446190D01*
X132141904Y-50446190D02*
X132141904Y-49946190D01*
X132094285Y-50017619D01*
X132046666Y-50065238D01*
X131999047Y-50089047D01*
X132713333Y-50112857D02*
X132713333Y-50446190D01*
X132594285Y-49922380D02*
X132475238Y-50279523D01*
X132784761Y-50279523D01*
%TO.C,D13*%
X159262857Y-50446190D02*
X159262857Y-49946190D01*
X159381904Y-49946190D01*
X159453333Y-49970000D01*
X159500952Y-50017619D01*
X159524761Y-50065238D01*
X159548571Y-50160476D01*
X159548571Y-50231904D01*
X159524761Y-50327142D01*
X159500952Y-50374761D01*
X159453333Y-50422380D01*
X159381904Y-50446190D01*
X159262857Y-50446190D01*
X160024761Y-50446190D02*
X159739047Y-50446190D01*
X159881904Y-50446190D02*
X159881904Y-49946190D01*
X159834285Y-50017619D01*
X159786666Y-50065238D01*
X159739047Y-50089047D01*
X160191428Y-49946190D02*
X160500952Y-49946190D01*
X160334285Y-50136666D01*
X160405714Y-50136666D01*
X160453333Y-50160476D01*
X160477142Y-50184285D01*
X160500952Y-50231904D01*
X160500952Y-50350952D01*
X160477142Y-50398571D01*
X160453333Y-50422380D01*
X160405714Y-50446190D01*
X160262857Y-50446190D01*
X160215238Y-50422380D01*
X160191428Y-50398571D01*
%TO.C,C32*%
X166678571Y-143748571D02*
X166654761Y-143772380D01*
X166583333Y-143796190D01*
X166535714Y-143796190D01*
X166464285Y-143772380D01*
X166416666Y-143724761D01*
X166392857Y-143677142D01*
X166369047Y-143581904D01*
X166369047Y-143510476D01*
X166392857Y-143415238D01*
X166416666Y-143367619D01*
X166464285Y-143320000D01*
X166535714Y-143296190D01*
X166583333Y-143296190D01*
X166654761Y-143320000D01*
X166678571Y-143343809D01*
X166845238Y-143296190D02*
X167154761Y-143296190D01*
X166988095Y-143486666D01*
X167059523Y-143486666D01*
X167107142Y-143510476D01*
X167130952Y-143534285D01*
X167154761Y-143581904D01*
X167154761Y-143700952D01*
X167130952Y-143748571D01*
X167107142Y-143772380D01*
X167059523Y-143796190D01*
X166916666Y-143796190D01*
X166869047Y-143772380D01*
X166845238Y-143748571D01*
X167345238Y-143343809D02*
X167369047Y-143320000D01*
X167416666Y-143296190D01*
X167535714Y-143296190D01*
X167583333Y-143320000D01*
X167607142Y-143343809D01*
X167630952Y-143391428D01*
X167630952Y-143439047D01*
X167607142Y-143510476D01*
X167321428Y-143796190D01*
X167630952Y-143796190D01*
%TO.C,C31*%
X132678571Y-91748571D02*
X132654761Y-91772380D01*
X132583333Y-91796190D01*
X132535714Y-91796190D01*
X132464285Y-91772380D01*
X132416666Y-91724761D01*
X132392857Y-91677142D01*
X132369047Y-91581904D01*
X132369047Y-91510476D01*
X132392857Y-91415238D01*
X132416666Y-91367619D01*
X132464285Y-91320000D01*
X132535714Y-91296190D01*
X132583333Y-91296190D01*
X132654761Y-91320000D01*
X132678571Y-91343809D01*
X132845238Y-91296190D02*
X133154761Y-91296190D01*
X132988095Y-91486666D01*
X133059523Y-91486666D01*
X133107142Y-91510476D01*
X133130952Y-91534285D01*
X133154761Y-91581904D01*
X133154761Y-91700952D01*
X133130952Y-91748571D01*
X133107142Y-91772380D01*
X133059523Y-91796190D01*
X132916666Y-91796190D01*
X132869047Y-91772380D01*
X132845238Y-91748571D01*
X133630952Y-91796190D02*
X133345238Y-91796190D01*
X133488095Y-91796190D02*
X133488095Y-91296190D01*
X133440476Y-91367619D01*
X133392857Y-91415238D01*
X133345238Y-91439047D01*
%TO.C,C30*%
X126678571Y-146748571D02*
X126654761Y-146772380D01*
X126583333Y-146796190D01*
X126535714Y-146796190D01*
X126464285Y-146772380D01*
X126416666Y-146724761D01*
X126392857Y-146677142D01*
X126369047Y-146581904D01*
X126369047Y-146510476D01*
X126392857Y-146415238D01*
X126416666Y-146367619D01*
X126464285Y-146320000D01*
X126535714Y-146296190D01*
X126583333Y-146296190D01*
X126654761Y-146320000D01*
X126678571Y-146343809D01*
X126845238Y-146296190D02*
X127154761Y-146296190D01*
X126988095Y-146486666D01*
X127059523Y-146486666D01*
X127107142Y-146510476D01*
X127130952Y-146534285D01*
X127154761Y-146581904D01*
X127154761Y-146700952D01*
X127130952Y-146748571D01*
X127107142Y-146772380D01*
X127059523Y-146796190D01*
X126916666Y-146796190D01*
X126869047Y-146772380D01*
X126845238Y-146748571D01*
X127464285Y-146296190D02*
X127511904Y-146296190D01*
X127559523Y-146320000D01*
X127583333Y-146343809D01*
X127607142Y-146391428D01*
X127630952Y-146486666D01*
X127630952Y-146605714D01*
X127607142Y-146700952D01*
X127583333Y-146748571D01*
X127559523Y-146772380D01*
X127511904Y-146796190D01*
X127464285Y-146796190D01*
X127416666Y-146772380D01*
X127392857Y-146748571D01*
X127369047Y-146700952D01*
X127345238Y-146605714D01*
X127345238Y-146486666D01*
X127369047Y-146391428D01*
X127392857Y-146343809D01*
X127416666Y-146320000D01*
X127464285Y-146296190D01*
%TO.C,C29*%
X111678571Y-144748571D02*
X111654761Y-144772380D01*
X111583333Y-144796190D01*
X111535714Y-144796190D01*
X111464285Y-144772380D01*
X111416666Y-144724761D01*
X111392857Y-144677142D01*
X111369047Y-144581904D01*
X111369047Y-144510476D01*
X111392857Y-144415238D01*
X111416666Y-144367619D01*
X111464285Y-144320000D01*
X111535714Y-144296190D01*
X111583333Y-144296190D01*
X111654761Y-144320000D01*
X111678571Y-144343809D01*
X111869047Y-144343809D02*
X111892857Y-144320000D01*
X111940476Y-144296190D01*
X112059523Y-144296190D01*
X112107142Y-144320000D01*
X112130952Y-144343809D01*
X112154761Y-144391428D01*
X112154761Y-144439047D01*
X112130952Y-144510476D01*
X111845238Y-144796190D01*
X112154761Y-144796190D01*
X112392857Y-144796190D02*
X112488095Y-144796190D01*
X112535714Y-144772380D01*
X112559523Y-144748571D01*
X112607142Y-144677142D01*
X112630952Y-144581904D01*
X112630952Y-144391428D01*
X112607142Y-144343809D01*
X112583333Y-144320000D01*
X112535714Y-144296190D01*
X112440476Y-144296190D01*
X112392857Y-144320000D01*
X112369047Y-144343809D01*
X112345238Y-144391428D01*
X112345238Y-144510476D01*
X112369047Y-144558095D01*
X112392857Y-144581904D01*
X112440476Y-144605714D01*
X112535714Y-144605714D01*
X112583333Y-144581904D01*
X112607142Y-144558095D01*
X112630952Y-144510476D01*
%TO.C,C28*%
X167678571Y-54748571D02*
X167654761Y-54772380D01*
X167583333Y-54796190D01*
X167535714Y-54796190D01*
X167464285Y-54772380D01*
X167416666Y-54724761D01*
X167392857Y-54677142D01*
X167369047Y-54581904D01*
X167369047Y-54510476D01*
X167392857Y-54415238D01*
X167416666Y-54367619D01*
X167464285Y-54320000D01*
X167535714Y-54296190D01*
X167583333Y-54296190D01*
X167654761Y-54320000D01*
X167678571Y-54343809D01*
X167869047Y-54343809D02*
X167892857Y-54320000D01*
X167940476Y-54296190D01*
X168059523Y-54296190D01*
X168107142Y-54320000D01*
X168130952Y-54343809D01*
X168154761Y-54391428D01*
X168154761Y-54439047D01*
X168130952Y-54510476D01*
X167845238Y-54796190D01*
X168154761Y-54796190D01*
X168440476Y-54510476D02*
X168392857Y-54486666D01*
X168369047Y-54462857D01*
X168345238Y-54415238D01*
X168345238Y-54391428D01*
X168369047Y-54343809D01*
X168392857Y-54320000D01*
X168440476Y-54296190D01*
X168535714Y-54296190D01*
X168583333Y-54320000D01*
X168607142Y-54343809D01*
X168630952Y-54391428D01*
X168630952Y-54415238D01*
X168607142Y-54462857D01*
X168583333Y-54486666D01*
X168535714Y-54510476D01*
X168440476Y-54510476D01*
X168392857Y-54534285D01*
X168369047Y-54558095D01*
X168345238Y-54605714D01*
X168345238Y-54700952D01*
X168369047Y-54748571D01*
X168392857Y-54772380D01*
X168440476Y-54796190D01*
X168535714Y-54796190D01*
X168583333Y-54772380D01*
X168607142Y-54748571D01*
X168630952Y-54700952D01*
X168630952Y-54605714D01*
X168607142Y-54558095D01*
X168583333Y-54534285D01*
X168535714Y-54510476D01*
%TO.C,C27*%
X123108571Y-136421428D02*
X123132380Y-136445238D01*
X123156190Y-136516666D01*
X123156190Y-136564285D01*
X123132380Y-136635714D01*
X123084761Y-136683333D01*
X123037142Y-136707142D01*
X122941904Y-136730952D01*
X122870476Y-136730952D01*
X122775238Y-136707142D01*
X122727619Y-136683333D01*
X122680000Y-136635714D01*
X122656190Y-136564285D01*
X122656190Y-136516666D01*
X122680000Y-136445238D01*
X122703809Y-136421428D01*
X122703809Y-136230952D02*
X122680000Y-136207142D01*
X122656190Y-136159523D01*
X122656190Y-136040476D01*
X122680000Y-135992857D01*
X122703809Y-135969047D01*
X122751428Y-135945238D01*
X122799047Y-135945238D01*
X122870476Y-135969047D01*
X123156190Y-136254761D01*
X123156190Y-135945238D01*
X122656190Y-135778571D02*
X122656190Y-135445238D01*
X123156190Y-135659523D01*
%TO.C,C26*%
X166678571Y-69748571D02*
X166654761Y-69772380D01*
X166583333Y-69796190D01*
X166535714Y-69796190D01*
X166464285Y-69772380D01*
X166416666Y-69724761D01*
X166392857Y-69677142D01*
X166369047Y-69581904D01*
X166369047Y-69510476D01*
X166392857Y-69415238D01*
X166416666Y-69367619D01*
X166464285Y-69320000D01*
X166535714Y-69296190D01*
X166583333Y-69296190D01*
X166654761Y-69320000D01*
X166678571Y-69343809D01*
X166869047Y-69343809D02*
X166892857Y-69320000D01*
X166940476Y-69296190D01*
X167059523Y-69296190D01*
X167107142Y-69320000D01*
X167130952Y-69343809D01*
X167154761Y-69391428D01*
X167154761Y-69439047D01*
X167130952Y-69510476D01*
X166845238Y-69796190D01*
X167154761Y-69796190D01*
X167583333Y-69296190D02*
X167488095Y-69296190D01*
X167440476Y-69320000D01*
X167416666Y-69343809D01*
X167369047Y-69415238D01*
X167345238Y-69510476D01*
X167345238Y-69700952D01*
X167369047Y-69748571D01*
X167392857Y-69772380D01*
X167440476Y-69796190D01*
X167535714Y-69796190D01*
X167583333Y-69772380D01*
X167607142Y-69748571D01*
X167630952Y-69700952D01*
X167630952Y-69581904D01*
X167607142Y-69534285D01*
X167583333Y-69510476D01*
X167535714Y-69486666D01*
X167440476Y-69486666D01*
X167392857Y-69510476D01*
X167369047Y-69534285D01*
X167345238Y-69581904D01*
%TO.C,C25*%
X136678571Y-75748571D02*
X136654761Y-75772380D01*
X136583333Y-75796190D01*
X136535714Y-75796190D01*
X136464285Y-75772380D01*
X136416666Y-75724761D01*
X136392857Y-75677142D01*
X136369047Y-75581904D01*
X136369047Y-75510476D01*
X136392857Y-75415238D01*
X136416666Y-75367619D01*
X136464285Y-75320000D01*
X136535714Y-75296190D01*
X136583333Y-75296190D01*
X136654761Y-75320000D01*
X136678571Y-75343809D01*
X136869047Y-75343809D02*
X136892857Y-75320000D01*
X136940476Y-75296190D01*
X137059523Y-75296190D01*
X137107142Y-75320000D01*
X137130952Y-75343809D01*
X137154761Y-75391428D01*
X137154761Y-75439047D01*
X137130952Y-75510476D01*
X136845238Y-75796190D01*
X137154761Y-75796190D01*
X137607142Y-75296190D02*
X137369047Y-75296190D01*
X137345238Y-75534285D01*
X137369047Y-75510476D01*
X137416666Y-75486666D01*
X137535714Y-75486666D01*
X137583333Y-75510476D01*
X137607142Y-75534285D01*
X137630952Y-75581904D01*
X137630952Y-75700952D01*
X137607142Y-75748571D01*
X137583333Y-75772380D01*
X137535714Y-75796190D01*
X137416666Y-75796190D01*
X137369047Y-75772380D01*
X137345238Y-75748571D01*
%TO.C,C24*%
X163678571Y-113748571D02*
X163654761Y-113772380D01*
X163583333Y-113796190D01*
X163535714Y-113796190D01*
X163464285Y-113772380D01*
X163416666Y-113724761D01*
X163392857Y-113677142D01*
X163369047Y-113581904D01*
X163369047Y-113510476D01*
X163392857Y-113415238D01*
X163416666Y-113367619D01*
X163464285Y-113320000D01*
X163535714Y-113296190D01*
X163583333Y-113296190D01*
X163654761Y-113320000D01*
X163678571Y-113343809D01*
X163869047Y-113343809D02*
X163892857Y-113320000D01*
X163940476Y-113296190D01*
X164059523Y-113296190D01*
X164107142Y-113320000D01*
X164130952Y-113343809D01*
X164154761Y-113391428D01*
X164154761Y-113439047D01*
X164130952Y-113510476D01*
X163845238Y-113796190D01*
X164154761Y-113796190D01*
X164583333Y-113462857D02*
X164583333Y-113796190D01*
X164464285Y-113272380D02*
X164345238Y-113629523D01*
X164654761Y-113629523D01*
%TO.C,C23*%
X155678571Y-69748571D02*
X155654761Y-69772380D01*
X155583333Y-69796190D01*
X155535714Y-69796190D01*
X155464285Y-69772380D01*
X155416666Y-69724761D01*
X155392857Y-69677142D01*
X155369047Y-69581904D01*
X155369047Y-69510476D01*
X155392857Y-69415238D01*
X155416666Y-69367619D01*
X155464285Y-69320000D01*
X155535714Y-69296190D01*
X155583333Y-69296190D01*
X155654761Y-69320000D01*
X155678571Y-69343809D01*
X155869047Y-69343809D02*
X155892857Y-69320000D01*
X155940476Y-69296190D01*
X156059523Y-69296190D01*
X156107142Y-69320000D01*
X156130952Y-69343809D01*
X156154761Y-69391428D01*
X156154761Y-69439047D01*
X156130952Y-69510476D01*
X155845238Y-69796190D01*
X156154761Y-69796190D01*
X156321428Y-69296190D02*
X156630952Y-69296190D01*
X156464285Y-69486666D01*
X156535714Y-69486666D01*
X156583333Y-69510476D01*
X156607142Y-69534285D01*
X156630952Y-69581904D01*
X156630952Y-69700952D01*
X156607142Y-69748571D01*
X156583333Y-69772380D01*
X156535714Y-69796190D01*
X156392857Y-69796190D01*
X156345238Y-69772380D01*
X156321428Y-69748571D01*
%TO.C,C22*%
X132678571Y-70748571D02*
X132654761Y-70772380D01*
X132583333Y-70796190D01*
X132535714Y-70796190D01*
X132464285Y-70772380D01*
X132416666Y-70724761D01*
X132392857Y-70677142D01*
X132369047Y-70581904D01*
X132369047Y-70510476D01*
X132392857Y-70415238D01*
X132416666Y-70367619D01*
X132464285Y-70320000D01*
X132535714Y-70296190D01*
X132583333Y-70296190D01*
X132654761Y-70320000D01*
X132678571Y-70343809D01*
X132869047Y-70343809D02*
X132892857Y-70320000D01*
X132940476Y-70296190D01*
X133059523Y-70296190D01*
X133107142Y-70320000D01*
X133130952Y-70343809D01*
X133154761Y-70391428D01*
X133154761Y-70439047D01*
X133130952Y-70510476D01*
X132845238Y-70796190D01*
X133154761Y-70796190D01*
X133345238Y-70343809D02*
X133369047Y-70320000D01*
X133416666Y-70296190D01*
X133535714Y-70296190D01*
X133583333Y-70320000D01*
X133607142Y-70343809D01*
X133630952Y-70391428D01*
X133630952Y-70439047D01*
X133607142Y-70510476D01*
X133321428Y-70796190D01*
X133630952Y-70796190D01*
%TO.C,C21*%
X132678571Y-95748571D02*
X132654761Y-95772380D01*
X132583333Y-95796190D01*
X132535714Y-95796190D01*
X132464285Y-95772380D01*
X132416666Y-95724761D01*
X132392857Y-95677142D01*
X132369047Y-95581904D01*
X132369047Y-95510476D01*
X132392857Y-95415238D01*
X132416666Y-95367619D01*
X132464285Y-95320000D01*
X132535714Y-95296190D01*
X132583333Y-95296190D01*
X132654761Y-95320000D01*
X132678571Y-95343809D01*
X132869047Y-95343809D02*
X132892857Y-95320000D01*
X132940476Y-95296190D01*
X133059523Y-95296190D01*
X133107142Y-95320000D01*
X133130952Y-95343809D01*
X133154761Y-95391428D01*
X133154761Y-95439047D01*
X133130952Y-95510476D01*
X132845238Y-95796190D01*
X133154761Y-95796190D01*
X133630952Y-95796190D02*
X133345238Y-95796190D01*
X133488095Y-95796190D02*
X133488095Y-95296190D01*
X133440476Y-95367619D01*
X133392857Y-95415238D01*
X133345238Y-95439047D01*
%TO.C,C20*%
X121378571Y-130178571D02*
X121354761Y-130202380D01*
X121283333Y-130226190D01*
X121235714Y-130226190D01*
X121164285Y-130202380D01*
X121116666Y-130154761D01*
X121092857Y-130107142D01*
X121069047Y-130011904D01*
X121069047Y-129940476D01*
X121092857Y-129845238D01*
X121116666Y-129797619D01*
X121164285Y-129750000D01*
X121235714Y-129726190D01*
X121283333Y-129726190D01*
X121354761Y-129750000D01*
X121378571Y-129773809D01*
X121569047Y-129773809D02*
X121592857Y-129750000D01*
X121640476Y-129726190D01*
X121759523Y-129726190D01*
X121807142Y-129750000D01*
X121830952Y-129773809D01*
X121854761Y-129821428D01*
X121854761Y-129869047D01*
X121830952Y-129940476D01*
X121545238Y-130226190D01*
X121854761Y-130226190D01*
X122164285Y-129726190D02*
X122211904Y-129726190D01*
X122259523Y-129750000D01*
X122283333Y-129773809D01*
X122307142Y-129821428D01*
X122330952Y-129916666D01*
X122330952Y-130035714D01*
X122307142Y-130130952D01*
X122283333Y-130178571D01*
X122259523Y-130202380D01*
X122211904Y-130226190D01*
X122164285Y-130226190D01*
X122116666Y-130202380D01*
X122092857Y-130178571D01*
X122069047Y-130130952D01*
X122045238Y-130035714D01*
X122045238Y-129916666D01*
X122069047Y-129821428D01*
X122092857Y-129773809D01*
X122116666Y-129750000D01*
X122164285Y-129726190D01*
%TO.C,C19*%
X151678571Y-75748571D02*
X151654761Y-75772380D01*
X151583333Y-75796190D01*
X151535714Y-75796190D01*
X151464285Y-75772380D01*
X151416666Y-75724761D01*
X151392857Y-75677142D01*
X151369047Y-75581904D01*
X151369047Y-75510476D01*
X151392857Y-75415238D01*
X151416666Y-75367619D01*
X151464285Y-75320000D01*
X151535714Y-75296190D01*
X151583333Y-75296190D01*
X151654761Y-75320000D01*
X151678571Y-75343809D01*
X152154761Y-75796190D02*
X151869047Y-75796190D01*
X152011904Y-75796190D02*
X152011904Y-75296190D01*
X151964285Y-75367619D01*
X151916666Y-75415238D01*
X151869047Y-75439047D01*
X152392857Y-75796190D02*
X152488095Y-75796190D01*
X152535714Y-75772380D01*
X152559523Y-75748571D01*
X152607142Y-75677142D01*
X152630952Y-75581904D01*
X152630952Y-75391428D01*
X152607142Y-75343809D01*
X152583333Y-75320000D01*
X152535714Y-75296190D01*
X152440476Y-75296190D01*
X152392857Y-75320000D01*
X152369047Y-75343809D01*
X152345238Y-75391428D01*
X152345238Y-75510476D01*
X152369047Y-75558095D01*
X152392857Y-75581904D01*
X152440476Y-75605714D01*
X152535714Y-75605714D01*
X152583333Y-75581904D01*
X152607142Y-75558095D01*
X152630952Y-75510476D01*
%TO.C,C18*%
X124428571Y-74321428D02*
X124452380Y-74345238D01*
X124476190Y-74416666D01*
X124476190Y-74464285D01*
X124452380Y-74535714D01*
X124404761Y-74583333D01*
X124357142Y-74607142D01*
X124261904Y-74630952D01*
X124190476Y-74630952D01*
X124095238Y-74607142D01*
X124047619Y-74583333D01*
X124000000Y-74535714D01*
X123976190Y-74464285D01*
X123976190Y-74416666D01*
X124000000Y-74345238D01*
X124023809Y-74321428D01*
X124476190Y-73845238D02*
X124476190Y-74130952D01*
X124476190Y-73988095D02*
X123976190Y-73988095D01*
X124047619Y-74035714D01*
X124095238Y-74083333D01*
X124119047Y-74130952D01*
X124190476Y-73559523D02*
X124166666Y-73607142D01*
X124142857Y-73630952D01*
X124095238Y-73654761D01*
X124071428Y-73654761D01*
X124023809Y-73630952D01*
X124000000Y-73607142D01*
X123976190Y-73559523D01*
X123976190Y-73464285D01*
X124000000Y-73416666D01*
X124023809Y-73392857D01*
X124071428Y-73369047D01*
X124095238Y-73369047D01*
X124142857Y-73392857D01*
X124166666Y-73416666D01*
X124190476Y-73464285D01*
X124190476Y-73559523D01*
X124214285Y-73607142D01*
X124238095Y-73630952D01*
X124285714Y-73654761D01*
X124380952Y-73654761D01*
X124428571Y-73630952D01*
X124452380Y-73607142D01*
X124476190Y-73559523D01*
X124476190Y-73464285D01*
X124452380Y-73416666D01*
X124428571Y-73392857D01*
X124380952Y-73369047D01*
X124285714Y-73369047D01*
X124238095Y-73392857D01*
X124214285Y-73416666D01*
X124190476Y-73464285D01*
%TO.C,C17*%
X123928571Y-68321428D02*
X123952380Y-68345238D01*
X123976190Y-68416666D01*
X123976190Y-68464285D01*
X123952380Y-68535714D01*
X123904761Y-68583333D01*
X123857142Y-68607142D01*
X123761904Y-68630952D01*
X123690476Y-68630952D01*
X123595238Y-68607142D01*
X123547619Y-68583333D01*
X123500000Y-68535714D01*
X123476190Y-68464285D01*
X123476190Y-68416666D01*
X123500000Y-68345238D01*
X123523809Y-68321428D01*
X123976190Y-67845238D02*
X123976190Y-68130952D01*
X123976190Y-67988095D02*
X123476190Y-67988095D01*
X123547619Y-68035714D01*
X123595238Y-68083333D01*
X123619047Y-68130952D01*
X123476190Y-67678571D02*
X123476190Y-67345238D01*
X123976190Y-67559523D01*
%TO.C,C16*%
X152678571Y-106748571D02*
X152654761Y-106772380D01*
X152583333Y-106796190D01*
X152535714Y-106796190D01*
X152464285Y-106772380D01*
X152416666Y-106724761D01*
X152392857Y-106677142D01*
X152369047Y-106581904D01*
X152369047Y-106510476D01*
X152392857Y-106415238D01*
X152416666Y-106367619D01*
X152464285Y-106320000D01*
X152535714Y-106296190D01*
X152583333Y-106296190D01*
X152654761Y-106320000D01*
X152678571Y-106343809D01*
X153154761Y-106796190D02*
X152869047Y-106796190D01*
X153011904Y-106796190D02*
X153011904Y-106296190D01*
X152964285Y-106367619D01*
X152916666Y-106415238D01*
X152869047Y-106439047D01*
X153583333Y-106296190D02*
X153488095Y-106296190D01*
X153440476Y-106320000D01*
X153416666Y-106343809D01*
X153369047Y-106415238D01*
X153345238Y-106510476D01*
X153345238Y-106700952D01*
X153369047Y-106748571D01*
X153392857Y-106772380D01*
X153440476Y-106796190D01*
X153535714Y-106796190D01*
X153583333Y-106772380D01*
X153607142Y-106748571D01*
X153630952Y-106700952D01*
X153630952Y-106581904D01*
X153607142Y-106534285D01*
X153583333Y-106510476D01*
X153535714Y-106486666D01*
X153440476Y-106486666D01*
X153392857Y-106510476D01*
X153369047Y-106534285D01*
X153345238Y-106581904D01*
%TO.C,C15*%
X146678571Y-94748571D02*
X146654761Y-94772380D01*
X146583333Y-94796190D01*
X146535714Y-94796190D01*
X146464285Y-94772380D01*
X146416666Y-94724761D01*
X146392857Y-94677142D01*
X146369047Y-94581904D01*
X146369047Y-94510476D01*
X146392857Y-94415238D01*
X146416666Y-94367619D01*
X146464285Y-94320000D01*
X146535714Y-94296190D01*
X146583333Y-94296190D01*
X146654761Y-94320000D01*
X146678571Y-94343809D01*
X147154761Y-94796190D02*
X146869047Y-94796190D01*
X147011904Y-94796190D02*
X147011904Y-94296190D01*
X146964285Y-94367619D01*
X146916666Y-94415238D01*
X146869047Y-94439047D01*
X147607142Y-94296190D02*
X147369047Y-94296190D01*
X147345238Y-94534285D01*
X147369047Y-94510476D01*
X147416666Y-94486666D01*
X147535714Y-94486666D01*
X147583333Y-94510476D01*
X147607142Y-94534285D01*
X147630952Y-94581904D01*
X147630952Y-94700952D01*
X147607142Y-94748571D01*
X147583333Y-94772380D01*
X147535714Y-94796190D01*
X147416666Y-94796190D01*
X147369047Y-94772380D01*
X147345238Y-94748571D01*
%TO.C,C14*%
X167678571Y-58748571D02*
X167654761Y-58772380D01*
X167583333Y-58796190D01*
X167535714Y-58796190D01*
X167464285Y-58772380D01*
X167416666Y-58724761D01*
X167392857Y-58677142D01*
X167369047Y-58581904D01*
X167369047Y-58510476D01*
X167392857Y-58415238D01*
X167416666Y-58367619D01*
X167464285Y-58320000D01*
X167535714Y-58296190D01*
X167583333Y-58296190D01*
X167654761Y-58320000D01*
X167678571Y-58343809D01*
X168154761Y-58796190D02*
X167869047Y-58796190D01*
X168011904Y-58796190D02*
X168011904Y-58296190D01*
X167964285Y-58367619D01*
X167916666Y-58415238D01*
X167869047Y-58439047D01*
X168583333Y-58462857D02*
X168583333Y-58796190D01*
X168464285Y-58272380D02*
X168345238Y-58629523D01*
X168654761Y-58629523D01*
%TO.C,C13*%
X141678571Y-94748571D02*
X141654761Y-94772380D01*
X141583333Y-94796190D01*
X141535714Y-94796190D01*
X141464285Y-94772380D01*
X141416666Y-94724761D01*
X141392857Y-94677142D01*
X141369047Y-94581904D01*
X141369047Y-94510476D01*
X141392857Y-94415238D01*
X141416666Y-94367619D01*
X141464285Y-94320000D01*
X141535714Y-94296190D01*
X141583333Y-94296190D01*
X141654761Y-94320000D01*
X141678571Y-94343809D01*
X142154761Y-94796190D02*
X141869047Y-94796190D01*
X142011904Y-94796190D02*
X142011904Y-94296190D01*
X141964285Y-94367619D01*
X141916666Y-94415238D01*
X141869047Y-94439047D01*
X142321428Y-94296190D02*
X142630952Y-94296190D01*
X142464285Y-94486666D01*
X142535714Y-94486666D01*
X142583333Y-94510476D01*
X142607142Y-94534285D01*
X142630952Y-94581904D01*
X142630952Y-94700952D01*
X142607142Y-94748571D01*
X142583333Y-94772380D01*
X142535714Y-94796190D01*
X142392857Y-94796190D01*
X142345238Y-94772380D01*
X142321428Y-94748571D01*
%TO.C,C12*%
X171678571Y-69748571D02*
X171654761Y-69772380D01*
X171583333Y-69796190D01*
X171535714Y-69796190D01*
X171464285Y-69772380D01*
X171416666Y-69724761D01*
X171392857Y-69677142D01*
X171369047Y-69581904D01*
X171369047Y-69510476D01*
X171392857Y-69415238D01*
X171416666Y-69367619D01*
X171464285Y-69320000D01*
X171535714Y-69296190D01*
X171583333Y-69296190D01*
X171654761Y-69320000D01*
X171678571Y-69343809D01*
X172154761Y-69796190D02*
X171869047Y-69796190D01*
X172011904Y-69796190D02*
X172011904Y-69296190D01*
X171964285Y-69367619D01*
X171916666Y-69415238D01*
X171869047Y-69439047D01*
X172345238Y-69343809D02*
X172369047Y-69320000D01*
X172416666Y-69296190D01*
X172535714Y-69296190D01*
X172583333Y-69320000D01*
X172607142Y-69343809D01*
X172630952Y-69391428D01*
X172630952Y-69439047D01*
X172607142Y-69510476D01*
X172321428Y-69796190D01*
X172630952Y-69796190D01*
%TO.C,C11*%
X162678571Y-62748571D02*
X162654761Y-62772380D01*
X162583333Y-62796190D01*
X162535714Y-62796190D01*
X162464285Y-62772380D01*
X162416666Y-62724761D01*
X162392857Y-62677142D01*
X162369047Y-62581904D01*
X162369047Y-62510476D01*
X162392857Y-62415238D01*
X162416666Y-62367619D01*
X162464285Y-62320000D01*
X162535714Y-62296190D01*
X162583333Y-62296190D01*
X162654761Y-62320000D01*
X162678571Y-62343809D01*
X163154761Y-62796190D02*
X162869047Y-62796190D01*
X163011904Y-62796190D02*
X163011904Y-62296190D01*
X162964285Y-62367619D01*
X162916666Y-62415238D01*
X162869047Y-62439047D01*
X163630952Y-62796190D02*
X163345238Y-62796190D01*
X163488095Y-62796190D02*
X163488095Y-62296190D01*
X163440476Y-62367619D01*
X163392857Y-62415238D01*
X163345238Y-62439047D01*
%TO.C,C10*%
X151678571Y-94748571D02*
X151654761Y-94772380D01*
X151583333Y-94796190D01*
X151535714Y-94796190D01*
X151464285Y-94772380D01*
X151416666Y-94724761D01*
X151392857Y-94677142D01*
X151369047Y-94581904D01*
X151369047Y-94510476D01*
X151392857Y-94415238D01*
X151416666Y-94367619D01*
X151464285Y-94320000D01*
X151535714Y-94296190D01*
X151583333Y-94296190D01*
X151654761Y-94320000D01*
X151678571Y-94343809D01*
X152154761Y-94796190D02*
X151869047Y-94796190D01*
X152011904Y-94796190D02*
X152011904Y-94296190D01*
X151964285Y-94367619D01*
X151916666Y-94415238D01*
X151869047Y-94439047D01*
X152464285Y-94296190D02*
X152511904Y-94296190D01*
X152559523Y-94320000D01*
X152583333Y-94343809D01*
X152607142Y-94391428D01*
X152630952Y-94486666D01*
X152630952Y-94605714D01*
X152607142Y-94700952D01*
X152583333Y-94748571D01*
X152559523Y-94772380D01*
X152511904Y-94796190D01*
X152464285Y-94796190D01*
X152416666Y-94772380D01*
X152392857Y-94748571D01*
X152369047Y-94700952D01*
X152345238Y-94605714D01*
X152345238Y-94486666D01*
X152369047Y-94391428D01*
X152392857Y-94343809D01*
X152416666Y-94320000D01*
X152464285Y-94296190D01*
%TO.C,C9*%
X156916666Y-94748571D02*
X156892857Y-94772380D01*
X156821428Y-94796190D01*
X156773809Y-94796190D01*
X156702380Y-94772380D01*
X156654761Y-94724761D01*
X156630952Y-94677142D01*
X156607142Y-94581904D01*
X156607142Y-94510476D01*
X156630952Y-94415238D01*
X156654761Y-94367619D01*
X156702380Y-94320000D01*
X156773809Y-94296190D01*
X156821428Y-94296190D01*
X156892857Y-94320000D01*
X156916666Y-94343809D01*
X157154761Y-94796190D02*
X157250000Y-94796190D01*
X157297619Y-94772380D01*
X157321428Y-94748571D01*
X157369047Y-94677142D01*
X157392857Y-94581904D01*
X157392857Y-94391428D01*
X157369047Y-94343809D01*
X157345238Y-94320000D01*
X157297619Y-94296190D01*
X157202380Y-94296190D01*
X157154761Y-94320000D01*
X157130952Y-94343809D01*
X157107142Y-94391428D01*
X157107142Y-94510476D01*
X157130952Y-94558095D01*
X157154761Y-94581904D01*
X157202380Y-94605714D01*
X157297619Y-94605714D01*
X157345238Y-94581904D01*
X157369047Y-94558095D01*
X157392857Y-94510476D01*
%TO.C,C8*%
X115916666Y-140748571D02*
X115892857Y-140772380D01*
X115821428Y-140796190D01*
X115773809Y-140796190D01*
X115702380Y-140772380D01*
X115654761Y-140724761D01*
X115630952Y-140677142D01*
X115607142Y-140581904D01*
X115607142Y-140510476D01*
X115630952Y-140415238D01*
X115654761Y-140367619D01*
X115702380Y-140320000D01*
X115773809Y-140296190D01*
X115821428Y-140296190D01*
X115892857Y-140320000D01*
X115916666Y-140343809D01*
X116202380Y-140510476D02*
X116154761Y-140486666D01*
X116130952Y-140462857D01*
X116107142Y-140415238D01*
X116107142Y-140391428D01*
X116130952Y-140343809D01*
X116154761Y-140320000D01*
X116202380Y-140296190D01*
X116297619Y-140296190D01*
X116345238Y-140320000D01*
X116369047Y-140343809D01*
X116392857Y-140391428D01*
X116392857Y-140415238D01*
X116369047Y-140462857D01*
X116345238Y-140486666D01*
X116297619Y-140510476D01*
X116202380Y-140510476D01*
X116154761Y-140534285D01*
X116130952Y-140558095D01*
X116107142Y-140605714D01*
X116107142Y-140700952D01*
X116130952Y-140748571D01*
X116154761Y-140772380D01*
X116202380Y-140796190D01*
X116297619Y-140796190D01*
X116345238Y-140772380D01*
X116369047Y-140748571D01*
X116392857Y-140700952D01*
X116392857Y-140605714D01*
X116369047Y-140558095D01*
X116345238Y-140534285D01*
X116297619Y-140510476D01*
%TO.C,C7*%
X125916666Y-57748571D02*
X125892857Y-57772380D01*
X125821428Y-57796190D01*
X125773809Y-57796190D01*
X125702380Y-57772380D01*
X125654761Y-57724761D01*
X125630952Y-57677142D01*
X125607142Y-57581904D01*
X125607142Y-57510476D01*
X125630952Y-57415238D01*
X125654761Y-57367619D01*
X125702380Y-57320000D01*
X125773809Y-57296190D01*
X125821428Y-57296190D01*
X125892857Y-57320000D01*
X125916666Y-57343809D01*
X126083333Y-57296190D02*
X126416666Y-57296190D01*
X126202380Y-57796190D01*
%TO.C,C6*%
X172916666Y-63748571D02*
X172892857Y-63772380D01*
X172821428Y-63796190D01*
X172773809Y-63796190D01*
X172702380Y-63772380D01*
X172654761Y-63724761D01*
X172630952Y-63677142D01*
X172607142Y-63581904D01*
X172607142Y-63510476D01*
X172630952Y-63415238D01*
X172654761Y-63367619D01*
X172702380Y-63320000D01*
X172773809Y-63296190D01*
X172821428Y-63296190D01*
X172892857Y-63320000D01*
X172916666Y-63343809D01*
X173345238Y-63296190D02*
X173250000Y-63296190D01*
X173202380Y-63320000D01*
X173178571Y-63343809D01*
X173130952Y-63415238D01*
X173107142Y-63510476D01*
X173107142Y-63700952D01*
X173130952Y-63748571D01*
X173154761Y-63772380D01*
X173202380Y-63796190D01*
X173297619Y-63796190D01*
X173345238Y-63772380D01*
X173369047Y-63748571D01*
X173392857Y-63700952D01*
X173392857Y-63581904D01*
X173369047Y-63534285D01*
X173345238Y-63510476D01*
X173297619Y-63486666D01*
X173202380Y-63486666D01*
X173154761Y-63510476D01*
X173130952Y-63534285D01*
X173107142Y-63581904D01*
%TO.C,C5*%
X167916666Y-62748571D02*
X167892857Y-62772380D01*
X167821428Y-62796190D01*
X167773809Y-62796190D01*
X167702380Y-62772380D01*
X167654761Y-62724761D01*
X167630952Y-62677142D01*
X167607142Y-62581904D01*
X167607142Y-62510476D01*
X167630952Y-62415238D01*
X167654761Y-62367619D01*
X167702380Y-62320000D01*
X167773809Y-62296190D01*
X167821428Y-62296190D01*
X167892857Y-62320000D01*
X167916666Y-62343809D01*
X168369047Y-62296190D02*
X168130952Y-62296190D01*
X168107142Y-62534285D01*
X168130952Y-62510476D01*
X168178571Y-62486666D01*
X168297619Y-62486666D01*
X168345238Y-62510476D01*
X168369047Y-62534285D01*
X168392857Y-62581904D01*
X168392857Y-62700952D01*
X168369047Y-62748571D01*
X168345238Y-62772380D01*
X168297619Y-62796190D01*
X168178571Y-62796190D01*
X168130952Y-62772380D01*
X168107142Y-62748571D01*
%TO.C,C4*%
X120916666Y-140748571D02*
X120892857Y-140772380D01*
X120821428Y-140796190D01*
X120773809Y-140796190D01*
X120702380Y-140772380D01*
X120654761Y-140724761D01*
X120630952Y-140677142D01*
X120607142Y-140581904D01*
X120607142Y-140510476D01*
X120630952Y-140415238D01*
X120654761Y-140367619D01*
X120702380Y-140320000D01*
X120773809Y-140296190D01*
X120821428Y-140296190D01*
X120892857Y-140320000D01*
X120916666Y-140343809D01*
X121345238Y-140462857D02*
X121345238Y-140796190D01*
X121226190Y-140272380D02*
X121107142Y-140629523D01*
X121416666Y-140629523D01*
%TO.C,C3*%
X120916666Y-61748571D02*
X120892857Y-61772380D01*
X120821428Y-61796190D01*
X120773809Y-61796190D01*
X120702380Y-61772380D01*
X120654761Y-61724761D01*
X120630952Y-61677142D01*
X120607142Y-61581904D01*
X120607142Y-61510476D01*
X120630952Y-61415238D01*
X120654761Y-61367619D01*
X120702380Y-61320000D01*
X120773809Y-61296190D01*
X120821428Y-61296190D01*
X120892857Y-61320000D01*
X120916666Y-61343809D01*
X121083333Y-61296190D02*
X121392857Y-61296190D01*
X121226190Y-61486666D01*
X121297619Y-61486666D01*
X121345238Y-61510476D01*
X121369047Y-61534285D01*
X121392857Y-61581904D01*
X121392857Y-61700952D01*
X121369047Y-61748571D01*
X121345238Y-61772380D01*
X121297619Y-61796190D01*
X121154761Y-61796190D01*
X121107142Y-61772380D01*
X121083333Y-61748571D01*
%TO.C,C2*%
X165916666Y-50748571D02*
X165892857Y-50772380D01*
X165821428Y-50796190D01*
X165773809Y-50796190D01*
X165702380Y-50772380D01*
X165654761Y-50724761D01*
X165630952Y-50677142D01*
X165607142Y-50581904D01*
X165607142Y-50510476D01*
X165630952Y-50415238D01*
X165654761Y-50367619D01*
X165702380Y-50320000D01*
X165773809Y-50296190D01*
X165821428Y-50296190D01*
X165892857Y-50320000D01*
X165916666Y-50343809D01*
X166107142Y-50343809D02*
X166130952Y-50320000D01*
X166178571Y-50296190D01*
X166297619Y-50296190D01*
X166345238Y-50320000D01*
X166369047Y-50343809D01*
X166392857Y-50391428D01*
X166392857Y-50439047D01*
X166369047Y-50510476D01*
X166083333Y-50796190D01*
X166392857Y-50796190D01*
%TO.C,C1*%
X171916666Y-143748571D02*
X171892857Y-143772380D01*
X171821428Y-143796190D01*
X171773809Y-143796190D01*
X171702380Y-143772380D01*
X171654761Y-143724761D01*
X171630952Y-143677142D01*
X171607142Y-143581904D01*
X171607142Y-143510476D01*
X171630952Y-143415238D01*
X171654761Y-143367619D01*
X171702380Y-143320000D01*
X171773809Y-143296190D01*
X171821428Y-143296190D01*
X171892857Y-143320000D01*
X171916666Y-143343809D01*
X172392857Y-143796190D02*
X172107142Y-143796190D01*
X172250000Y-143796190D02*
X172250000Y-143296190D01*
X172202380Y-143367619D01*
X172154761Y-143415238D01*
X172107142Y-143439047D01*
%TO.C,U2*%
X156336190Y-125950952D02*
X156740952Y-125950952D01*
X156788571Y-125927142D01*
X156812380Y-125903333D01*
X156836190Y-125855714D01*
X156836190Y-125760476D01*
X156812380Y-125712857D01*
X156788571Y-125689047D01*
X156740952Y-125665238D01*
X156336190Y-125665238D01*
X156383809Y-125450952D02*
X156360000Y-125427142D01*
X156336190Y-125379523D01*
X156336190Y-125260476D01*
X156360000Y-125212857D01*
X156383809Y-125189047D01*
X156431428Y-125165238D01*
X156479047Y-125165238D01*
X156550476Y-125189047D01*
X156836190Y-125474761D01*
X156836190Y-125165238D01*
%TO.C,SW2*%
X116402380Y-130666666D02*
X116426190Y-130595238D01*
X116426190Y-130476190D01*
X116402380Y-130428571D01*
X116378571Y-130404761D01*
X116330952Y-130380952D01*
X116283333Y-130380952D01*
X116235714Y-130404761D01*
X116211904Y-130428571D01*
X116188095Y-130476190D01*
X116164285Y-130571428D01*
X116140476Y-130619047D01*
X116116666Y-130642857D01*
X116069047Y-130666666D01*
X116021428Y-130666666D01*
X115973809Y-130642857D01*
X115950000Y-130619047D01*
X115926190Y-130571428D01*
X115926190Y-130452380D01*
X115950000Y-130380952D01*
X115926190Y-130214285D02*
X116426190Y-130095238D01*
X116069047Y-130000000D01*
X116426190Y-129904761D01*
X115926190Y-129785714D01*
X115973809Y-129619047D02*
X115950000Y-129595238D01*
X115926190Y-129547619D01*
X115926190Y-129428571D01*
X115950000Y-129380952D01*
X115973809Y-129357142D01*
X116021428Y-129333333D01*
X116069047Y-129333333D01*
X116140476Y-129357142D01*
X116426190Y-129642857D01*
X116426190Y-129333333D01*
%TO.C,J4*%
X145833333Y-90726190D02*
X145833333Y-91083333D01*
X145809523Y-91154761D01*
X145761904Y-91202380D01*
X145690476Y-91226190D01*
X145642857Y-91226190D01*
X146285714Y-90892857D02*
X146285714Y-91226190D01*
X146166666Y-90702380D02*
X146047619Y-91059523D01*
X146357142Y-91059523D01*
%TO.C,U1*%
X145619047Y-97876190D02*
X145619047Y-98280952D01*
X145642857Y-98328571D01*
X145666666Y-98352380D01*
X145714285Y-98376190D01*
X145809523Y-98376190D01*
X145857142Y-98352380D01*
X145880952Y-98328571D01*
X145904761Y-98280952D01*
X145904761Y-97876190D01*
X146404761Y-98376190D02*
X146119047Y-98376190D01*
X146261904Y-98376190D02*
X146261904Y-97876190D01*
X146214285Y-97947619D01*
X146166666Y-97995238D01*
X146119047Y-98019047D01*
%TD*%
M02*
