%TF.GenerationSoftware,KiCad,Pcbnew,5.1.10*%
%TF.CreationDate,2021-11-06T23:11:44+01:00*%
%TF.ProjectId,Teebeutel,54656562-6575-4746-956c-2e6b69636164,rev?*%
%TF.SameCoordinates,Original*%
%TF.FileFunction,Legend,Bot*%
%TF.FilePolarity,Positive*%
%FSLAX46Y46*%
G04 Gerber Fmt 4.6, Leading zero omitted, Abs format (unit mm)*
G04 Created by KiCad (PCBNEW 5.1.10) date 2021-11-06 23:11:44*
%MOMM*%
%LPD*%
G01*
G04 APERTURE LIST*
%ADD10C,0.150000*%
%ADD11C,0.120000*%
%ADD12C,0.100000*%
%ADD13C,0.010000*%
%ADD14C,0.203200*%
G04 APERTURE END LIST*
D10*
X151095238Y-78952380D02*
X150904761Y-78952380D01*
X150809523Y-79000000D01*
X150714285Y-79095238D01*
X150666666Y-79285714D01*
X150666666Y-79619047D01*
X150714285Y-79809523D01*
X150809523Y-79904761D01*
X150904761Y-79952380D01*
X151095238Y-79952380D01*
X151190476Y-79904761D01*
X151285714Y-79809523D01*
X151333333Y-79619047D01*
X151333333Y-79285714D01*
X151285714Y-79095238D01*
X151190476Y-79000000D01*
X151095238Y-78952380D01*
X149761904Y-79952380D02*
X150238095Y-79952380D01*
X150238095Y-78952380D01*
X149428571Y-79428571D02*
X149095238Y-79428571D01*
X148952380Y-79952380D02*
X149428571Y-79952380D01*
X149428571Y-78952380D01*
X148952380Y-78952380D01*
X148523809Y-79952380D02*
X148523809Y-78952380D01*
X148285714Y-78952380D01*
X148142857Y-79000000D01*
X148047619Y-79095238D01*
X148000000Y-79190476D01*
X147952380Y-79380952D01*
X147952380Y-79523809D01*
X148000000Y-79714285D01*
X148047619Y-79809523D01*
X148142857Y-79904761D01*
X148285714Y-79952380D01*
X148523809Y-79952380D01*
X146238095Y-79952380D02*
X146809523Y-79952380D01*
X146523809Y-79952380D02*
X146523809Y-78952380D01*
X146619047Y-79095238D01*
X146714285Y-79190476D01*
X146809523Y-79238095D01*
X145857142Y-79047619D02*
X145809523Y-79000000D01*
X145714285Y-78952380D01*
X145476190Y-78952380D01*
X145380952Y-79000000D01*
X145333333Y-79047619D01*
X145285714Y-79142857D01*
X145285714Y-79238095D01*
X145333333Y-79380952D01*
X145904761Y-79952380D01*
X145285714Y-79952380D01*
X144714285Y-79380952D02*
X144809523Y-79333333D01*
X144857142Y-79285714D01*
X144904761Y-79190476D01*
X144904761Y-79142857D01*
X144857142Y-79047619D01*
X144809523Y-79000000D01*
X144714285Y-78952380D01*
X144523809Y-78952380D01*
X144428571Y-79000000D01*
X144380952Y-79047619D01*
X144333333Y-79142857D01*
X144333333Y-79190476D01*
X144380952Y-79285714D01*
X144428571Y-79333333D01*
X144523809Y-79380952D01*
X144714285Y-79380952D01*
X144809523Y-79428571D01*
X144857142Y-79476190D01*
X144904761Y-79571428D01*
X144904761Y-79761904D01*
X144857142Y-79857142D01*
X144809523Y-79904761D01*
X144714285Y-79952380D01*
X144523809Y-79952380D01*
X144428571Y-79904761D01*
X144380952Y-79857142D01*
X144333333Y-79761904D01*
X144333333Y-79571428D01*
X144380952Y-79476190D01*
X144428571Y-79428571D01*
X144523809Y-79380952D01*
X144000000Y-79952380D02*
X143476190Y-79285714D01*
X144000000Y-79285714D02*
X143476190Y-79952380D01*
X142571428Y-79952380D02*
X143142857Y-79952380D01*
X142857142Y-79952380D02*
X142857142Y-78952380D01*
X142952380Y-79095238D01*
X143047619Y-79190476D01*
X143142857Y-79238095D01*
X142190476Y-79047619D02*
X142142857Y-79000000D01*
X142047619Y-78952380D01*
X141809523Y-78952380D01*
X141714285Y-79000000D01*
X141666666Y-79047619D01*
X141619047Y-79142857D01*
X141619047Y-79238095D01*
X141666666Y-79380952D01*
X142238095Y-79952380D01*
X141619047Y-79952380D01*
X141047619Y-79380952D02*
X141142857Y-79333333D01*
X141190476Y-79285714D01*
X141238095Y-79190476D01*
X141238095Y-79142857D01*
X141190476Y-79047619D01*
X141142857Y-79000000D01*
X141047619Y-78952380D01*
X140857142Y-78952380D01*
X140761904Y-79000000D01*
X140714285Y-79047619D01*
X140666666Y-79142857D01*
X140666666Y-79190476D01*
X140714285Y-79285714D01*
X140761904Y-79333333D01*
X140857142Y-79380952D01*
X141047619Y-79380952D01*
X141142857Y-79428571D01*
X141190476Y-79476190D01*
X141238095Y-79571428D01*
X141238095Y-79761904D01*
X141190476Y-79857142D01*
X141142857Y-79904761D01*
X141047619Y-79952380D01*
X140857142Y-79952380D01*
X140761904Y-79904761D01*
X140714285Y-79857142D01*
X140666666Y-79761904D01*
X140666666Y-79571428D01*
X140714285Y-79476190D01*
X140761904Y-79428571D01*
X140857142Y-79380952D01*
D11*
X129000000Y-81000000D02*
X129000000Y-77000000D01*
X129000000Y-77000000D02*
X133000000Y-77000000D01*
X163000000Y-77000000D02*
X163000000Y-81000000D01*
X159000000Y-77000000D02*
X163000000Y-77000000D01*
X129000000Y-107000000D02*
X129000000Y-111000000D01*
X129000000Y-111000000D02*
X133000000Y-111000000D01*
X163000000Y-111000000D02*
X159000000Y-111000000D01*
X163000000Y-111000000D02*
X163000000Y-107000000D01*
D12*
%TO.C,U6*%
X169400000Y-133450000D02*
X162300000Y-133450000D01*
X162300000Y-133450000D02*
X162300000Y-136550000D01*
X169400000Y-136550000D02*
X162300000Y-136550000D01*
X169400000Y-133450000D02*
X169400000Y-136550000D01*
D11*
X169152000Y-136905000D02*
G75*
G03*
X169152000Y-136905000I-127000J0D01*
G01*
D13*
%TO.C,G\u002A\u002A\u002A*%
G36*
X125177613Y-139250402D02*
G01*
X125062446Y-139250663D01*
X124962946Y-139251086D01*
X124877821Y-139251691D01*
X124805781Y-139252498D01*
X124745535Y-139253529D01*
X124695793Y-139254803D01*
X124655263Y-139256340D01*
X124622656Y-139258161D01*
X124596679Y-139260287D01*
X124576044Y-139262736D01*
X124565772Y-139264356D01*
X124421058Y-139299173D01*
X124284883Y-139351362D01*
X124158196Y-139420304D01*
X124041942Y-139505383D01*
X123937071Y-139605979D01*
X123844529Y-139721476D01*
X123828375Y-139745118D01*
X123759269Y-139865988D01*
X123707064Y-139994170D01*
X123671719Y-140127589D01*
X123653195Y-140264174D01*
X123651449Y-140401849D01*
X123666441Y-140538542D01*
X123698130Y-140672179D01*
X123746474Y-140800687D01*
X123811434Y-140921991D01*
X123852821Y-140982974D01*
X123948485Y-141097327D01*
X124055898Y-141196275D01*
X124174187Y-141279274D01*
X124302478Y-141345781D01*
X124439897Y-141395253D01*
X124561381Y-141423185D01*
X124612150Y-141429700D01*
X124674310Y-141434198D01*
X124741077Y-141436506D01*
X124805671Y-141436452D01*
X124861309Y-141433865D01*
X124884885Y-141431402D01*
X125023176Y-141402968D01*
X125156086Y-141356654D01*
X125281883Y-141293773D01*
X125398836Y-141215640D01*
X125505211Y-141123570D01*
X125599279Y-141018877D01*
X125679306Y-140902874D01*
X125741715Y-140781169D01*
X125765517Y-140718960D01*
X125777154Y-140668747D01*
X125776859Y-140627423D01*
X125764862Y-140591881D01*
X125756789Y-140578516D01*
X125740899Y-140555952D01*
X125725966Y-140538571D01*
X125709243Y-140525654D01*
X125687985Y-140516484D01*
X125659446Y-140510343D01*
X125620882Y-140506513D01*
X125569545Y-140504275D01*
X125502692Y-140502912D01*
X125465612Y-140502376D01*
X125387476Y-140501480D01*
X125326058Y-140501765D01*
X125278545Y-140504053D01*
X125242120Y-140509163D01*
X125213968Y-140517917D01*
X125191273Y-140531136D01*
X125171220Y-140549639D01*
X125150993Y-140574249D01*
X125132321Y-140599535D01*
X125067827Y-140675632D01*
X124997340Y-140733870D01*
X124918905Y-140775510D01*
X124830566Y-140801808D01*
X124813146Y-140805064D01*
X124724522Y-140810974D01*
X124638976Y-140799185D01*
X124558301Y-140771493D01*
X124484292Y-140729695D01*
X124418742Y-140675588D01*
X124363446Y-140610969D01*
X124320198Y-140537634D01*
X124290791Y-140457380D01*
X124277020Y-140372005D01*
X124280678Y-140283305D01*
X124282238Y-140273327D01*
X124306824Y-140182845D01*
X124347797Y-140100153D01*
X124403217Y-140027401D01*
X124471146Y-139966739D01*
X124549643Y-139920318D01*
X124625207Y-139893140D01*
X124640263Y-139889633D01*
X124657552Y-139886641D01*
X124678666Y-139884120D01*
X124705197Y-139882029D01*
X124738736Y-139880327D01*
X124780876Y-139878972D01*
X124833208Y-139877921D01*
X124897325Y-139877134D01*
X124974819Y-139876567D01*
X125067281Y-139876180D01*
X125176304Y-139875931D01*
X125285943Y-139875794D01*
X125882385Y-139875230D01*
X125904950Y-139804403D01*
X125954413Y-139677167D01*
X126019824Y-139552971D01*
X126098389Y-139436199D01*
X126187310Y-139331232D01*
X126239347Y-139280367D01*
X126272116Y-139250572D01*
X125460107Y-139250286D01*
X125309736Y-139250283D01*
X125177613Y-139250402D01*
G37*
X125177613Y-139250402D02*
X125062446Y-139250663D01*
X124962946Y-139251086D01*
X124877821Y-139251691D01*
X124805781Y-139252498D01*
X124745535Y-139253529D01*
X124695793Y-139254803D01*
X124655263Y-139256340D01*
X124622656Y-139258161D01*
X124596679Y-139260287D01*
X124576044Y-139262736D01*
X124565772Y-139264356D01*
X124421058Y-139299173D01*
X124284883Y-139351362D01*
X124158196Y-139420304D01*
X124041942Y-139505383D01*
X123937071Y-139605979D01*
X123844529Y-139721476D01*
X123828375Y-139745118D01*
X123759269Y-139865988D01*
X123707064Y-139994170D01*
X123671719Y-140127589D01*
X123653195Y-140264174D01*
X123651449Y-140401849D01*
X123666441Y-140538542D01*
X123698130Y-140672179D01*
X123746474Y-140800687D01*
X123811434Y-140921991D01*
X123852821Y-140982974D01*
X123948485Y-141097327D01*
X124055898Y-141196275D01*
X124174187Y-141279274D01*
X124302478Y-141345781D01*
X124439897Y-141395253D01*
X124561381Y-141423185D01*
X124612150Y-141429700D01*
X124674310Y-141434198D01*
X124741077Y-141436506D01*
X124805671Y-141436452D01*
X124861309Y-141433865D01*
X124884885Y-141431402D01*
X125023176Y-141402968D01*
X125156086Y-141356654D01*
X125281883Y-141293773D01*
X125398836Y-141215640D01*
X125505211Y-141123570D01*
X125599279Y-141018877D01*
X125679306Y-140902874D01*
X125741715Y-140781169D01*
X125765517Y-140718960D01*
X125777154Y-140668747D01*
X125776859Y-140627423D01*
X125764862Y-140591881D01*
X125756789Y-140578516D01*
X125740899Y-140555952D01*
X125725966Y-140538571D01*
X125709243Y-140525654D01*
X125687985Y-140516484D01*
X125659446Y-140510343D01*
X125620882Y-140506513D01*
X125569545Y-140504275D01*
X125502692Y-140502912D01*
X125465612Y-140502376D01*
X125387476Y-140501480D01*
X125326058Y-140501765D01*
X125278545Y-140504053D01*
X125242120Y-140509163D01*
X125213968Y-140517917D01*
X125191273Y-140531136D01*
X125171220Y-140549639D01*
X125150993Y-140574249D01*
X125132321Y-140599535D01*
X125067827Y-140675632D01*
X124997340Y-140733870D01*
X124918905Y-140775510D01*
X124830566Y-140801808D01*
X124813146Y-140805064D01*
X124724522Y-140810974D01*
X124638976Y-140799185D01*
X124558301Y-140771493D01*
X124484292Y-140729695D01*
X124418742Y-140675588D01*
X124363446Y-140610969D01*
X124320198Y-140537634D01*
X124290791Y-140457380D01*
X124277020Y-140372005D01*
X124280678Y-140283305D01*
X124282238Y-140273327D01*
X124306824Y-140182845D01*
X124347797Y-140100153D01*
X124403217Y-140027401D01*
X124471146Y-139966739D01*
X124549643Y-139920318D01*
X124625207Y-139893140D01*
X124640263Y-139889633D01*
X124657552Y-139886641D01*
X124678666Y-139884120D01*
X124705197Y-139882029D01*
X124738736Y-139880327D01*
X124780876Y-139878972D01*
X124833208Y-139877921D01*
X124897325Y-139877134D01*
X124974819Y-139876567D01*
X125067281Y-139876180D01*
X125176304Y-139875931D01*
X125285943Y-139875794D01*
X125882385Y-139875230D01*
X125904950Y-139804403D01*
X125954413Y-139677167D01*
X126019824Y-139552971D01*
X126098389Y-139436199D01*
X126187310Y-139331232D01*
X126239347Y-139280367D01*
X126272116Y-139250572D01*
X125460107Y-139250286D01*
X125309736Y-139250283D01*
X125177613Y-139250402D01*
G36*
X127314060Y-139251232D02*
G01*
X127229830Y-139251874D01*
X127157867Y-139252988D01*
X127096717Y-139254644D01*
X127044925Y-139256914D01*
X127001036Y-139259866D01*
X126963598Y-139263572D01*
X126931154Y-139268102D01*
X126902252Y-139273527D01*
X126875436Y-139279917D01*
X126849253Y-139287342D01*
X126822249Y-139295874D01*
X126809423Y-139300098D01*
X126680329Y-139352757D01*
X126562154Y-139421179D01*
X126455884Y-139504617D01*
X126362508Y-139602322D01*
X126301388Y-139684730D01*
X126239105Y-139793156D01*
X126194277Y-139905185D01*
X126165838Y-140024120D01*
X126153161Y-140143884D01*
X126155809Y-140274943D01*
X126176363Y-140401423D01*
X126213558Y-140522006D01*
X126266130Y-140635371D01*
X126332813Y-140740200D01*
X126412343Y-140835173D01*
X126503456Y-140918971D01*
X126604886Y-140990274D01*
X126715370Y-141047762D01*
X126833641Y-141090117D01*
X126958436Y-141116019D01*
X127088489Y-141124148D01*
X127092731Y-141124100D01*
X127137962Y-141123119D01*
X127178858Y-141121586D01*
X127209456Y-141119754D01*
X127219731Y-141118711D01*
X127344368Y-141091796D01*
X127465355Y-141046654D01*
X127580258Y-140984557D01*
X127686643Y-140906778D01*
X127763999Y-140834103D01*
X127849385Y-140733219D01*
X127916813Y-140627918D01*
X127967786Y-140515531D01*
X127997706Y-140418801D01*
X128007680Y-140378149D01*
X128012843Y-140350627D01*
X128013382Y-140330476D01*
X128009486Y-140311937D01*
X128001876Y-140290651D01*
X127978714Y-140249286D01*
X127949900Y-140219428D01*
X127914929Y-140192730D01*
X127718753Y-140189678D01*
X127656677Y-140189024D01*
X127599428Y-140189004D01*
X127550582Y-140189572D01*
X127513712Y-140190684D01*
X127492395Y-140192296D01*
X127491115Y-140192509D01*
X127448367Y-140210163D01*
X127410182Y-140246418D01*
X127376309Y-140301520D01*
X127373340Y-140307673D01*
X127330344Y-140377983D01*
X127274938Y-140433250D01*
X127214847Y-140470047D01*
X127147649Y-140491608D01*
X127076205Y-140496304D01*
X127004708Y-140484895D01*
X126937349Y-140458140D01*
X126878320Y-140416797D01*
X126868365Y-140407328D01*
X126823533Y-140349588D01*
X126793755Y-140283234D01*
X126779718Y-140212176D01*
X126782107Y-140140325D01*
X126801610Y-140071591D01*
X126807272Y-140059277D01*
X126849564Y-139995049D01*
X126907565Y-139941985D01*
X126969443Y-139905858D01*
X127024347Y-139880115D01*
X127788082Y-139875230D01*
X127928200Y-139874325D01*
X128050102Y-139873494D01*
X128155109Y-139872697D01*
X128244542Y-139871892D01*
X128319723Y-139871036D01*
X128381972Y-139870088D01*
X128432613Y-139869007D01*
X128472965Y-139867749D01*
X128504351Y-139866274D01*
X128528092Y-139864540D01*
X128545509Y-139862504D01*
X128557924Y-139860126D01*
X128566658Y-139857362D01*
X128573033Y-139854172D01*
X128578370Y-139850513D01*
X128578786Y-139850204D01*
X128599779Y-139834041D01*
X128615875Y-139819039D01*
X128627723Y-139802416D01*
X128635975Y-139781391D01*
X128641281Y-139753182D01*
X128644290Y-139715008D01*
X128645655Y-139664087D01*
X128646024Y-139597638D01*
X128646039Y-139562615D01*
X128645902Y-139488419D01*
X128645057Y-139430980D01*
X128642854Y-139387516D01*
X128638643Y-139355247D01*
X128631772Y-139331391D01*
X128621592Y-139313167D01*
X128607452Y-139297792D01*
X128588701Y-139282487D01*
X128578781Y-139275026D01*
X128573438Y-139271296D01*
X128567195Y-139268052D01*
X128558716Y-139265252D01*
X128546665Y-139262858D01*
X128529709Y-139260830D01*
X128506510Y-139259128D01*
X128475735Y-139257713D01*
X128436048Y-139256544D01*
X128386113Y-139255583D01*
X128324595Y-139254790D01*
X128250160Y-139254124D01*
X128161472Y-139253547D01*
X128057196Y-139253018D01*
X127935996Y-139252498D01*
X127802731Y-139251971D01*
X127654891Y-139251431D01*
X127525136Y-139251081D01*
X127412010Y-139250991D01*
X127314060Y-139251232D01*
G37*
X127314060Y-139251232D02*
X127229830Y-139251874D01*
X127157867Y-139252988D01*
X127096717Y-139254644D01*
X127044925Y-139256914D01*
X127001036Y-139259866D01*
X126963598Y-139263572D01*
X126931154Y-139268102D01*
X126902252Y-139273527D01*
X126875436Y-139279917D01*
X126849253Y-139287342D01*
X126822249Y-139295874D01*
X126809423Y-139300098D01*
X126680329Y-139352757D01*
X126562154Y-139421179D01*
X126455884Y-139504617D01*
X126362508Y-139602322D01*
X126301388Y-139684730D01*
X126239105Y-139793156D01*
X126194277Y-139905185D01*
X126165838Y-140024120D01*
X126153161Y-140143884D01*
X126155809Y-140274943D01*
X126176363Y-140401423D01*
X126213558Y-140522006D01*
X126266130Y-140635371D01*
X126332813Y-140740200D01*
X126412343Y-140835173D01*
X126503456Y-140918971D01*
X126604886Y-140990274D01*
X126715370Y-141047762D01*
X126833641Y-141090117D01*
X126958436Y-141116019D01*
X127088489Y-141124148D01*
X127092731Y-141124100D01*
X127137962Y-141123119D01*
X127178858Y-141121586D01*
X127209456Y-141119754D01*
X127219731Y-141118711D01*
X127344368Y-141091796D01*
X127465355Y-141046654D01*
X127580258Y-140984557D01*
X127686643Y-140906778D01*
X127763999Y-140834103D01*
X127849385Y-140733219D01*
X127916813Y-140627918D01*
X127967786Y-140515531D01*
X127997706Y-140418801D01*
X128007680Y-140378149D01*
X128012843Y-140350627D01*
X128013382Y-140330476D01*
X128009486Y-140311937D01*
X128001876Y-140290651D01*
X127978714Y-140249286D01*
X127949900Y-140219428D01*
X127914929Y-140192730D01*
X127718753Y-140189678D01*
X127656677Y-140189024D01*
X127599428Y-140189004D01*
X127550582Y-140189572D01*
X127513712Y-140190684D01*
X127492395Y-140192296D01*
X127491115Y-140192509D01*
X127448367Y-140210163D01*
X127410182Y-140246418D01*
X127376309Y-140301520D01*
X127373340Y-140307673D01*
X127330344Y-140377983D01*
X127274938Y-140433250D01*
X127214847Y-140470047D01*
X127147649Y-140491608D01*
X127076205Y-140496304D01*
X127004708Y-140484895D01*
X126937349Y-140458140D01*
X126878320Y-140416797D01*
X126868365Y-140407328D01*
X126823533Y-140349588D01*
X126793755Y-140283234D01*
X126779718Y-140212176D01*
X126782107Y-140140325D01*
X126801610Y-140071591D01*
X126807272Y-140059277D01*
X126849564Y-139995049D01*
X126907565Y-139941985D01*
X126969443Y-139905858D01*
X127024347Y-139880115D01*
X127788082Y-139875230D01*
X127928200Y-139874325D01*
X128050102Y-139873494D01*
X128155109Y-139872697D01*
X128244542Y-139871892D01*
X128319723Y-139871036D01*
X128381972Y-139870088D01*
X128432613Y-139869007D01*
X128472965Y-139867749D01*
X128504351Y-139866274D01*
X128528092Y-139864540D01*
X128545509Y-139862504D01*
X128557924Y-139860126D01*
X128566658Y-139857362D01*
X128573033Y-139854172D01*
X128578370Y-139850513D01*
X128578786Y-139850204D01*
X128599779Y-139834041D01*
X128615875Y-139819039D01*
X128627723Y-139802416D01*
X128635975Y-139781391D01*
X128641281Y-139753182D01*
X128644290Y-139715008D01*
X128645655Y-139664087D01*
X128646024Y-139597638D01*
X128646039Y-139562615D01*
X128645902Y-139488419D01*
X128645057Y-139430980D01*
X128642854Y-139387516D01*
X128638643Y-139355247D01*
X128631772Y-139331391D01*
X128621592Y-139313167D01*
X128607452Y-139297792D01*
X128588701Y-139282487D01*
X128578781Y-139275026D01*
X128573438Y-139271296D01*
X128567195Y-139268052D01*
X128558716Y-139265252D01*
X128546665Y-139262858D01*
X128529709Y-139260830D01*
X128506510Y-139259128D01*
X128475735Y-139257713D01*
X128436048Y-139256544D01*
X128386113Y-139255583D01*
X128324595Y-139254790D01*
X128250160Y-139254124D01*
X128161472Y-139253547D01*
X128057196Y-139253018D01*
X127935996Y-139252498D01*
X127802731Y-139251971D01*
X127654891Y-139251431D01*
X127525136Y-139251081D01*
X127412010Y-139250991D01*
X127314060Y-139251232D01*
G36*
X125114380Y-137067522D02*
G01*
X125023811Y-137079229D01*
X124974920Y-137089938D01*
X124849647Y-137132752D01*
X124732206Y-137192677D01*
X124624335Y-137268260D01*
X124527772Y-137358046D01*
X124444256Y-137460582D01*
X124375525Y-137574415D01*
X124361710Y-137602641D01*
X124323996Y-137694093D01*
X124298305Y-137784178D01*
X124282920Y-137880078D01*
X124277313Y-137955577D01*
X124280428Y-138092144D01*
X124302262Y-138223618D01*
X124342458Y-138349047D01*
X124400662Y-138467482D01*
X124476517Y-138577970D01*
X124535172Y-138645130D01*
X124621349Y-138725973D01*
X124713085Y-138792764D01*
X124814325Y-138847890D01*
X124929013Y-138893741D01*
X124965148Y-138905580D01*
X125050962Y-138932500D01*
X126789885Y-138934658D01*
X127011790Y-138934912D01*
X127214941Y-138935098D01*
X127400124Y-138935210D01*
X127568123Y-138935243D01*
X127719723Y-138935193D01*
X127855710Y-138935054D01*
X127976868Y-138934822D01*
X128083982Y-138934492D01*
X128177837Y-138934060D01*
X128259217Y-138933519D01*
X128328909Y-138932866D01*
X128387697Y-138932096D01*
X128436365Y-138931203D01*
X128475699Y-138930184D01*
X128506483Y-138929032D01*
X128529503Y-138927744D01*
X128545543Y-138926314D01*
X128555389Y-138924738D01*
X128558600Y-138923741D01*
X128593831Y-138900263D01*
X128624126Y-138865998D01*
X128643512Y-138828191D01*
X128646273Y-138817424D01*
X128647976Y-138797876D01*
X128649158Y-138762487D01*
X128649771Y-138714947D01*
X128649767Y-138658947D01*
X128649104Y-138598587D01*
X128647735Y-138528784D01*
X128645673Y-138475492D01*
X128642102Y-138435684D01*
X128636210Y-138406334D01*
X128627181Y-138384415D01*
X128614201Y-138366900D01*
X128596456Y-138350762D01*
X128578779Y-138337180D01*
X128575237Y-138334650D01*
X128571114Y-138332339D01*
X128565541Y-138330234D01*
X128557649Y-138328322D01*
X128546571Y-138326591D01*
X128531438Y-138325029D01*
X128511382Y-138323622D01*
X128485534Y-138322359D01*
X128453027Y-138321226D01*
X128412991Y-138320211D01*
X128364559Y-138319302D01*
X128306863Y-138318486D01*
X128239033Y-138317750D01*
X128160202Y-138317082D01*
X128069501Y-138316469D01*
X127966063Y-138315899D01*
X127849018Y-138315358D01*
X127717499Y-138314836D01*
X127570636Y-138314318D01*
X127407563Y-138313793D01*
X127227410Y-138313247D01*
X127029309Y-138312669D01*
X126850229Y-138312153D01*
X125148654Y-138307269D01*
X125093751Y-138281525D01*
X125055389Y-138260431D01*
X125017203Y-138234575D01*
X124998792Y-138219594D01*
X124951826Y-138164789D01*
X124920608Y-138101589D01*
X124905177Y-138033219D01*
X124905573Y-137962901D01*
X124921835Y-137893859D01*
X124954002Y-137829318D01*
X124993449Y-137780832D01*
X125053192Y-137733589D01*
X125120466Y-137704196D01*
X125196234Y-137692262D01*
X125212154Y-137691935D01*
X125290090Y-137700913D01*
X125359793Y-137727363D01*
X125420145Y-137770562D01*
X125470028Y-137829786D01*
X125495947Y-137875772D01*
X125514357Y-137912729D01*
X125531805Y-137941495D01*
X125550970Y-137963092D01*
X125574529Y-137978540D01*
X125605163Y-137988864D01*
X125645549Y-137995083D01*
X125698367Y-137998221D01*
X125766294Y-137999298D01*
X125819975Y-137999377D01*
X125887533Y-137999206D01*
X125938583Y-137998630D01*
X125976156Y-137997368D01*
X126003283Y-137995137D01*
X126022994Y-137991656D01*
X126038320Y-137986645D01*
X126052292Y-137979821D01*
X126056648Y-137977391D01*
X126094479Y-137949567D01*
X126119057Y-137915290D01*
X126130671Y-137872646D01*
X126129608Y-137819721D01*
X126116158Y-137754602D01*
X126098692Y-137698294D01*
X126048028Y-137577647D01*
X125981648Y-137467079D01*
X125897983Y-137364007D01*
X125891834Y-137357425D01*
X125792790Y-137265760D01*
X125683912Y-137190795D01*
X125564674Y-137132238D01*
X125434548Y-137089799D01*
X125388000Y-137079046D01*
X125304202Y-137067226D01*
X125210419Y-137063453D01*
X125114380Y-137067522D01*
G37*
X125114380Y-137067522D02*
X125023811Y-137079229D01*
X124974920Y-137089938D01*
X124849647Y-137132752D01*
X124732206Y-137192677D01*
X124624335Y-137268260D01*
X124527772Y-137358046D01*
X124444256Y-137460582D01*
X124375525Y-137574415D01*
X124361710Y-137602641D01*
X124323996Y-137694093D01*
X124298305Y-137784178D01*
X124282920Y-137880078D01*
X124277313Y-137955577D01*
X124280428Y-138092144D01*
X124302262Y-138223618D01*
X124342458Y-138349047D01*
X124400662Y-138467482D01*
X124476517Y-138577970D01*
X124535172Y-138645130D01*
X124621349Y-138725973D01*
X124713085Y-138792764D01*
X124814325Y-138847890D01*
X124929013Y-138893741D01*
X124965148Y-138905580D01*
X125050962Y-138932500D01*
X126789885Y-138934658D01*
X127011790Y-138934912D01*
X127214941Y-138935098D01*
X127400124Y-138935210D01*
X127568123Y-138935243D01*
X127719723Y-138935193D01*
X127855710Y-138935054D01*
X127976868Y-138934822D01*
X128083982Y-138934492D01*
X128177837Y-138934060D01*
X128259217Y-138933519D01*
X128328909Y-138932866D01*
X128387697Y-138932096D01*
X128436365Y-138931203D01*
X128475699Y-138930184D01*
X128506483Y-138929032D01*
X128529503Y-138927744D01*
X128545543Y-138926314D01*
X128555389Y-138924738D01*
X128558600Y-138923741D01*
X128593831Y-138900263D01*
X128624126Y-138865998D01*
X128643512Y-138828191D01*
X128646273Y-138817424D01*
X128647976Y-138797876D01*
X128649158Y-138762487D01*
X128649771Y-138714947D01*
X128649767Y-138658947D01*
X128649104Y-138598587D01*
X128647735Y-138528784D01*
X128645673Y-138475492D01*
X128642102Y-138435684D01*
X128636210Y-138406334D01*
X128627181Y-138384415D01*
X128614201Y-138366900D01*
X128596456Y-138350762D01*
X128578779Y-138337180D01*
X128575237Y-138334650D01*
X128571114Y-138332339D01*
X128565541Y-138330234D01*
X128557649Y-138328322D01*
X128546571Y-138326591D01*
X128531438Y-138325029D01*
X128511382Y-138323622D01*
X128485534Y-138322359D01*
X128453027Y-138321226D01*
X128412991Y-138320211D01*
X128364559Y-138319302D01*
X128306863Y-138318486D01*
X128239033Y-138317750D01*
X128160202Y-138317082D01*
X128069501Y-138316469D01*
X127966063Y-138315899D01*
X127849018Y-138315358D01*
X127717499Y-138314836D01*
X127570636Y-138314318D01*
X127407563Y-138313793D01*
X127227410Y-138313247D01*
X127029309Y-138312669D01*
X126850229Y-138312153D01*
X125148654Y-138307269D01*
X125093751Y-138281525D01*
X125055389Y-138260431D01*
X125017203Y-138234575D01*
X124998792Y-138219594D01*
X124951826Y-138164789D01*
X124920608Y-138101589D01*
X124905177Y-138033219D01*
X124905573Y-137962901D01*
X124921835Y-137893859D01*
X124954002Y-137829318D01*
X124993449Y-137780832D01*
X125053192Y-137733589D01*
X125120466Y-137704196D01*
X125196234Y-137692262D01*
X125212154Y-137691935D01*
X125290090Y-137700913D01*
X125359793Y-137727363D01*
X125420145Y-137770562D01*
X125470028Y-137829786D01*
X125495947Y-137875772D01*
X125514357Y-137912729D01*
X125531805Y-137941495D01*
X125550970Y-137963092D01*
X125574529Y-137978540D01*
X125605163Y-137988864D01*
X125645549Y-137995083D01*
X125698367Y-137998221D01*
X125766294Y-137999298D01*
X125819975Y-137999377D01*
X125887533Y-137999206D01*
X125938583Y-137998630D01*
X125976156Y-137997368D01*
X126003283Y-137995137D01*
X126022994Y-137991656D01*
X126038320Y-137986645D01*
X126052292Y-137979821D01*
X126056648Y-137977391D01*
X126094479Y-137949567D01*
X126119057Y-137915290D01*
X126130671Y-137872646D01*
X126129608Y-137819721D01*
X126116158Y-137754602D01*
X126098692Y-137698294D01*
X126048028Y-137577647D01*
X125981648Y-137467079D01*
X125897983Y-137364007D01*
X125891834Y-137357425D01*
X125792790Y-137265760D01*
X125683912Y-137190795D01*
X125564674Y-137132238D01*
X125434548Y-137089799D01*
X125388000Y-137079046D01*
X125304202Y-137067226D01*
X125210419Y-137063453D01*
X125114380Y-137067522D01*
G36*
X166537597Y-138885825D02*
G01*
X166525069Y-138912206D01*
X166505876Y-138953506D01*
X166480682Y-139008271D01*
X166450151Y-139075044D01*
X166414947Y-139152372D01*
X166375734Y-139238800D01*
X166333177Y-139332872D01*
X166287940Y-139433134D01*
X166256034Y-139504000D01*
X166192077Y-139645681D01*
X166135533Y-139769899D01*
X166086436Y-139876583D01*
X166044819Y-139965662D01*
X166010716Y-140037064D01*
X165984161Y-140090718D01*
X165965187Y-140126553D01*
X165953828Y-140144498D01*
X165952427Y-140145975D01*
X165912757Y-140170219D01*
X165865114Y-140183824D01*
X165818884Y-140184165D01*
X165817038Y-140183836D01*
X165801751Y-140180520D01*
X165787742Y-140175773D01*
X165774196Y-140168279D01*
X165760298Y-140156723D01*
X165745233Y-140139790D01*
X165728184Y-140116166D01*
X165708339Y-140084534D01*
X165684880Y-140043579D01*
X165656992Y-139991987D01*
X165623861Y-139928442D01*
X165584671Y-139851630D01*
X165538607Y-139760234D01*
X165484854Y-139652939D01*
X165471923Y-139627085D01*
X165222280Y-139127884D01*
X165005248Y-139562450D01*
X163944682Y-139567500D01*
X164837875Y-140480923D01*
X164947818Y-140593231D01*
X165054438Y-140701903D01*
X165156894Y-140806090D01*
X165254342Y-140904947D01*
X165345940Y-140997627D01*
X165430846Y-141083283D01*
X165508218Y-141161070D01*
X165577213Y-141230141D01*
X165636989Y-141289648D01*
X165686703Y-141338747D01*
X165725513Y-141376589D01*
X165752577Y-141402329D01*
X165767052Y-141415121D01*
X165768553Y-141416166D01*
X165817717Y-141434608D01*
X165850000Y-141437986D01*
X165902039Y-141429327D01*
X165931585Y-141416166D01*
X165942949Y-141406587D01*
X165967100Y-141383856D01*
X166003195Y-141348818D01*
X166050392Y-141302321D01*
X166107850Y-141245211D01*
X166174724Y-141178335D01*
X166250173Y-141102539D01*
X166333355Y-141018671D01*
X166423426Y-140927577D01*
X166519545Y-140830103D01*
X166620869Y-140727097D01*
X166726555Y-140619405D01*
X166835762Y-140507874D01*
X166862114Y-140480923D01*
X167755021Y-139567500D01*
X166840859Y-139562426D01*
X166695678Y-139215203D01*
X166663281Y-139138377D01*
X166633009Y-139067844D01*
X166605714Y-139005500D01*
X166582249Y-138953236D01*
X166563468Y-138912946D01*
X166550222Y-138886522D01*
X166543364Y-138875859D01*
X166542796Y-138875817D01*
X166537597Y-138885825D01*
G37*
X166537597Y-138885825D02*
X166525069Y-138912206D01*
X166505876Y-138953506D01*
X166480682Y-139008271D01*
X166450151Y-139075044D01*
X166414947Y-139152372D01*
X166375734Y-139238800D01*
X166333177Y-139332872D01*
X166287940Y-139433134D01*
X166256034Y-139504000D01*
X166192077Y-139645681D01*
X166135533Y-139769899D01*
X166086436Y-139876583D01*
X166044819Y-139965662D01*
X166010716Y-140037064D01*
X165984161Y-140090718D01*
X165965187Y-140126553D01*
X165953828Y-140144498D01*
X165952427Y-140145975D01*
X165912757Y-140170219D01*
X165865114Y-140183824D01*
X165818884Y-140184165D01*
X165817038Y-140183836D01*
X165801751Y-140180520D01*
X165787742Y-140175773D01*
X165774196Y-140168279D01*
X165760298Y-140156723D01*
X165745233Y-140139790D01*
X165728184Y-140116166D01*
X165708339Y-140084534D01*
X165684880Y-140043579D01*
X165656992Y-139991987D01*
X165623861Y-139928442D01*
X165584671Y-139851630D01*
X165538607Y-139760234D01*
X165484854Y-139652939D01*
X165471923Y-139627085D01*
X165222280Y-139127884D01*
X165005248Y-139562450D01*
X163944682Y-139567500D01*
X164837875Y-140480923D01*
X164947818Y-140593231D01*
X165054438Y-140701903D01*
X165156894Y-140806090D01*
X165254342Y-140904947D01*
X165345940Y-140997627D01*
X165430846Y-141083283D01*
X165508218Y-141161070D01*
X165577213Y-141230141D01*
X165636989Y-141289648D01*
X165686703Y-141338747D01*
X165725513Y-141376589D01*
X165752577Y-141402329D01*
X165767052Y-141415121D01*
X165768553Y-141416166D01*
X165817717Y-141434608D01*
X165850000Y-141437986D01*
X165902039Y-141429327D01*
X165931585Y-141416166D01*
X165942949Y-141406587D01*
X165967100Y-141383856D01*
X166003195Y-141348818D01*
X166050392Y-141302321D01*
X166107850Y-141245211D01*
X166174724Y-141178335D01*
X166250173Y-141102539D01*
X166333355Y-141018671D01*
X166423426Y-140927577D01*
X166519545Y-140830103D01*
X166620869Y-140727097D01*
X166726555Y-140619405D01*
X166835762Y-140507874D01*
X166862114Y-140480923D01*
X167755021Y-139567500D01*
X166840859Y-139562426D01*
X166695678Y-139215203D01*
X166663281Y-139138377D01*
X166633009Y-139067844D01*
X166605714Y-139005500D01*
X166582249Y-138953236D01*
X166563468Y-138912946D01*
X166550222Y-138886522D01*
X166543364Y-138875859D01*
X166542796Y-138875817D01*
X166537597Y-138885825D01*
G36*
X164555609Y-137066912D02*
G01*
X164401303Y-137087322D01*
X164253789Y-137126041D01*
X164113007Y-137183093D01*
X163978897Y-137258503D01*
X163851398Y-137352294D01*
X163744096Y-137450582D01*
X163634029Y-137573970D01*
X163542231Y-137704200D01*
X163468528Y-137841674D01*
X163412742Y-137986791D01*
X163374698Y-138139952D01*
X163354219Y-138301557D01*
X163351850Y-138342716D01*
X163354201Y-138505273D01*
X163375630Y-138664340D01*
X163415837Y-138818913D01*
X163474521Y-138967987D01*
X163551379Y-139110556D01*
X163606801Y-139193542D01*
X163647039Y-139249430D01*
X164814397Y-139250000D01*
X164955389Y-138968144D01*
X165001025Y-138877802D01*
X165039138Y-138804341D01*
X165070246Y-138746835D01*
X165094865Y-138704357D01*
X165113512Y-138675979D01*
X165126671Y-138660802D01*
X165171994Y-138634431D01*
X165222078Y-138626380D01*
X165274679Y-138636729D01*
X165310560Y-138654208D01*
X165318389Y-138660387D01*
X165327646Y-138670869D01*
X165339058Y-138686992D01*
X165353349Y-138710096D01*
X165371245Y-138741517D01*
X165393474Y-138782595D01*
X165420760Y-138834669D01*
X165453831Y-138899077D01*
X165493410Y-138977157D01*
X165540226Y-139070248D01*
X165588544Y-139166766D01*
X165634172Y-139257865D01*
X165677244Y-139343518D01*
X165716966Y-139422166D01*
X165752541Y-139492250D01*
X165783174Y-139552212D01*
X165808070Y-139600492D01*
X165826432Y-139635532D01*
X165837466Y-139655772D01*
X165840433Y-139660307D01*
X165845185Y-139651625D01*
X165857271Y-139626521D01*
X165876044Y-139586405D01*
X165900860Y-139532691D01*
X165931072Y-139466791D01*
X165966034Y-139390116D01*
X166005102Y-139304079D01*
X166047628Y-139210092D01*
X166092968Y-139109566D01*
X166131964Y-139022865D01*
X166189230Y-138895427D01*
X166239148Y-138784622D01*
X166282382Y-138689262D01*
X166319595Y-138608162D01*
X166351451Y-138540133D01*
X166378616Y-138483990D01*
X166401752Y-138438544D01*
X166421523Y-138402608D01*
X166438595Y-138374997D01*
X166453630Y-138354522D01*
X166467293Y-138339996D01*
X166480247Y-138330233D01*
X166493157Y-138324046D01*
X166506687Y-138320247D01*
X166521501Y-138317650D01*
X166526909Y-138316835D01*
X166574213Y-138317607D01*
X166620413Y-138331856D01*
X166659103Y-138356910D01*
X166678717Y-138380143D01*
X166686160Y-138395202D01*
X166700211Y-138426379D01*
X166720035Y-138471725D01*
X166744799Y-138529292D01*
X166773668Y-138597132D01*
X166805808Y-138673296D01*
X166840386Y-138755836D01*
X166871337Y-138830192D01*
X167045566Y-139250000D01*
X168052962Y-139249680D01*
X168104663Y-139177326D01*
X168186190Y-139046720D01*
X168251675Y-138906700D01*
X168300793Y-138759456D01*
X168333224Y-138607179D01*
X168348643Y-138452057D01*
X168346728Y-138296281D01*
X168327155Y-138142040D01*
X168289603Y-137991525D01*
X168282676Y-137970230D01*
X168227551Y-137832754D01*
X168156686Y-137703384D01*
X168068840Y-137580132D01*
X167967781Y-137466134D01*
X167853838Y-137359276D01*
X167736935Y-137270465D01*
X167614412Y-137198211D01*
X167483611Y-137141025D01*
X167341869Y-137097418D01*
X167286077Y-137084418D01*
X167226218Y-137075035D01*
X167152738Y-137068876D01*
X167071286Y-137065939D01*
X166987512Y-137066225D01*
X166907067Y-137069736D01*
X166835599Y-137076472D01*
X166787847Y-137084361D01*
X166635354Y-137125862D01*
X166491680Y-137183486D01*
X166481083Y-137188528D01*
X166426766Y-137215953D01*
X166376820Y-137244379D01*
X166328646Y-137275824D01*
X166279642Y-137312307D01*
X166227208Y-137355845D01*
X166168743Y-137408456D01*
X166101648Y-137472159D01*
X166047827Y-137524752D01*
X165850000Y-137719696D01*
X165652173Y-137524752D01*
X165577442Y-137452030D01*
X165513172Y-137391820D01*
X165456764Y-137342105D01*
X165405616Y-137300865D01*
X165357128Y-137266084D01*
X165308700Y-137235742D01*
X165257731Y-137207822D01*
X165218917Y-137188528D01*
X165100345Y-137137727D01*
X164983717Y-137101287D01*
X164862954Y-137077710D01*
X164731977Y-137065497D01*
X164716770Y-137064787D01*
X164555609Y-137066912D01*
G37*
X164555609Y-137066912D02*
X164401303Y-137087322D01*
X164253789Y-137126041D01*
X164113007Y-137183093D01*
X163978897Y-137258503D01*
X163851398Y-137352294D01*
X163744096Y-137450582D01*
X163634029Y-137573970D01*
X163542231Y-137704200D01*
X163468528Y-137841674D01*
X163412742Y-137986791D01*
X163374698Y-138139952D01*
X163354219Y-138301557D01*
X163351850Y-138342716D01*
X163354201Y-138505273D01*
X163375630Y-138664340D01*
X163415837Y-138818913D01*
X163474521Y-138967987D01*
X163551379Y-139110556D01*
X163606801Y-139193542D01*
X163647039Y-139249430D01*
X164814397Y-139250000D01*
X164955389Y-138968144D01*
X165001025Y-138877802D01*
X165039138Y-138804341D01*
X165070246Y-138746835D01*
X165094865Y-138704357D01*
X165113512Y-138675979D01*
X165126671Y-138660802D01*
X165171994Y-138634431D01*
X165222078Y-138626380D01*
X165274679Y-138636729D01*
X165310560Y-138654208D01*
X165318389Y-138660387D01*
X165327646Y-138670869D01*
X165339058Y-138686992D01*
X165353349Y-138710096D01*
X165371245Y-138741517D01*
X165393474Y-138782595D01*
X165420760Y-138834669D01*
X165453831Y-138899077D01*
X165493410Y-138977157D01*
X165540226Y-139070248D01*
X165588544Y-139166766D01*
X165634172Y-139257865D01*
X165677244Y-139343518D01*
X165716966Y-139422166D01*
X165752541Y-139492250D01*
X165783174Y-139552212D01*
X165808070Y-139600492D01*
X165826432Y-139635532D01*
X165837466Y-139655772D01*
X165840433Y-139660307D01*
X165845185Y-139651625D01*
X165857271Y-139626521D01*
X165876044Y-139586405D01*
X165900860Y-139532691D01*
X165931072Y-139466791D01*
X165966034Y-139390116D01*
X166005102Y-139304079D01*
X166047628Y-139210092D01*
X166092968Y-139109566D01*
X166131964Y-139022865D01*
X166189230Y-138895427D01*
X166239148Y-138784622D01*
X166282382Y-138689262D01*
X166319595Y-138608162D01*
X166351451Y-138540133D01*
X166378616Y-138483990D01*
X166401752Y-138438544D01*
X166421523Y-138402608D01*
X166438595Y-138374997D01*
X166453630Y-138354522D01*
X166467293Y-138339996D01*
X166480247Y-138330233D01*
X166493157Y-138324046D01*
X166506687Y-138320247D01*
X166521501Y-138317650D01*
X166526909Y-138316835D01*
X166574213Y-138317607D01*
X166620413Y-138331856D01*
X166659103Y-138356910D01*
X166678717Y-138380143D01*
X166686160Y-138395202D01*
X166700211Y-138426379D01*
X166720035Y-138471725D01*
X166744799Y-138529292D01*
X166773668Y-138597132D01*
X166805808Y-138673296D01*
X166840386Y-138755836D01*
X166871337Y-138830192D01*
X167045566Y-139250000D01*
X168052962Y-139249680D01*
X168104663Y-139177326D01*
X168186190Y-139046720D01*
X168251675Y-138906700D01*
X168300793Y-138759456D01*
X168333224Y-138607179D01*
X168348643Y-138452057D01*
X168346728Y-138296281D01*
X168327155Y-138142040D01*
X168289603Y-137991525D01*
X168282676Y-137970230D01*
X168227551Y-137832754D01*
X168156686Y-137703384D01*
X168068840Y-137580132D01*
X167967781Y-137466134D01*
X167853838Y-137359276D01*
X167736935Y-137270465D01*
X167614412Y-137198211D01*
X167483611Y-137141025D01*
X167341869Y-137097418D01*
X167286077Y-137084418D01*
X167226218Y-137075035D01*
X167152738Y-137068876D01*
X167071286Y-137065939D01*
X166987512Y-137066225D01*
X166907067Y-137069736D01*
X166835599Y-137076472D01*
X166787847Y-137084361D01*
X166635354Y-137125862D01*
X166491680Y-137183486D01*
X166481083Y-137188528D01*
X166426766Y-137215953D01*
X166376820Y-137244379D01*
X166328646Y-137275824D01*
X166279642Y-137312307D01*
X166227208Y-137355845D01*
X166168743Y-137408456D01*
X166101648Y-137472159D01*
X166047827Y-137524752D01*
X165850000Y-137719696D01*
X165652173Y-137524752D01*
X165577442Y-137452030D01*
X165513172Y-137391820D01*
X165456764Y-137342105D01*
X165405616Y-137300865D01*
X165357128Y-137266084D01*
X165308700Y-137235742D01*
X165257731Y-137207822D01*
X165218917Y-137188528D01*
X165100345Y-137137727D01*
X164983717Y-137101287D01*
X164862954Y-137077710D01*
X164731977Y-137065497D01*
X164716770Y-137064787D01*
X164555609Y-137066912D01*
D14*
%TO.C,U5*%
X124925000Y-136225000D02*
X127375000Y-136225000D01*
X127375000Y-133775000D02*
X124925000Y-133775000D01*
X124753000Y-136524000D02*
G75*
G03*
X124753000Y-136524000I-127000J0D01*
G01*
D11*
%TO.C,SW1*%
X149000000Y-125000000D02*
G75*
G03*
X149000000Y-125000000I-3000000J0D01*
G01*
X147600000Y-123400000D02*
X147600000Y-126600000D01*
X147600000Y-123400000D02*
X144400000Y-123400000D01*
X144400000Y-123400000D02*
X144400000Y-126600000D01*
X144400000Y-126600000D02*
X147600000Y-126600000D01*
X151100000Y-130100000D02*
X151100000Y-129100000D01*
X151100000Y-130100000D02*
X140900000Y-130100000D01*
X140900000Y-130100000D02*
X140900000Y-129100000D01*
X140900000Y-127400000D02*
X140900000Y-125300000D01*
X140900000Y-123800000D02*
X140900000Y-122600000D01*
X140900000Y-120900000D02*
X140900000Y-119900000D01*
X140900000Y-119900000D02*
X151100000Y-119900000D01*
X151100000Y-119900000D02*
X151100000Y-120900000D01*
X151100000Y-123800000D02*
X151100000Y-122600000D01*
X151100000Y-127400000D02*
X151100000Y-125300000D01*
%TO.C,U6*%
D12*
X166230952Y-132706890D02*
X166230952Y-133111652D01*
X166207142Y-133159271D01*
X166183333Y-133183080D01*
X166135714Y-133206890D01*
X166040476Y-133206890D01*
X165992857Y-133183080D01*
X165969047Y-133159271D01*
X165945238Y-133111652D01*
X165945238Y-132706890D01*
X165492857Y-132706890D02*
X165588095Y-132706890D01*
X165635714Y-132730700D01*
X165659523Y-132754509D01*
X165707142Y-132825938D01*
X165730952Y-132921176D01*
X165730952Y-133111652D01*
X165707142Y-133159271D01*
X165683333Y-133183080D01*
X165635714Y-133206890D01*
X165540476Y-133206890D01*
X165492857Y-133183080D01*
X165469047Y-133159271D01*
X165445238Y-133111652D01*
X165445238Y-132992604D01*
X165469047Y-132944985D01*
X165492857Y-132921176D01*
X165540476Y-132897366D01*
X165635714Y-132897366D01*
X165683333Y-132921176D01*
X165707142Y-132944985D01*
X165730952Y-132992604D01*
%TO.C,U5*%
X127292952Y-136656590D02*
X127292952Y-137061352D01*
X127269142Y-137108971D01*
X127245333Y-137132780D01*
X127197714Y-137156590D01*
X127102476Y-137156590D01*
X127054857Y-137132780D01*
X127031047Y-137108971D01*
X127007238Y-137061352D01*
X127007238Y-136656590D01*
X126531047Y-136656590D02*
X126769142Y-136656590D01*
X126792952Y-136894685D01*
X126769142Y-136870876D01*
X126721523Y-136847066D01*
X126602476Y-136847066D01*
X126554857Y-136870876D01*
X126531047Y-136894685D01*
X126507238Y-136942304D01*
X126507238Y-137061352D01*
X126531047Y-137108971D01*
X126554857Y-137132780D01*
X126602476Y-137156590D01*
X126721523Y-137156590D01*
X126769142Y-137132780D01*
X126792952Y-137108971D01*
%TO.C,SW1*%
X146666666Y-129402380D02*
X146595238Y-129426190D01*
X146476190Y-129426190D01*
X146428571Y-129402380D01*
X146404761Y-129378571D01*
X146380952Y-129330952D01*
X146380952Y-129283333D01*
X146404761Y-129235714D01*
X146428571Y-129211904D01*
X146476190Y-129188095D01*
X146571428Y-129164285D01*
X146619047Y-129140476D01*
X146642857Y-129116666D01*
X146666666Y-129069047D01*
X146666666Y-129021428D01*
X146642857Y-128973809D01*
X146619047Y-128950000D01*
X146571428Y-128926190D01*
X146452380Y-128926190D01*
X146380952Y-128950000D01*
X146214285Y-128926190D02*
X146095238Y-129426190D01*
X146000000Y-129069047D01*
X145904761Y-129426190D01*
X145785714Y-128926190D01*
X145333333Y-129426190D02*
X145619047Y-129426190D01*
X145476190Y-129426190D02*
X145476190Y-128926190D01*
X145523809Y-128997619D01*
X145571428Y-129045238D01*
X145619047Y-129069047D01*
%TD*%
M02*
