%TF.GenerationSoftware,KiCad,Pcbnew,5.1.10*%
%TF.CreationDate,2021-11-09T13:31:31+01:00*%
%TF.ProjectId,Teebeutel,54656562-6575-4746-956c-2e6b69636164,rev?*%
%TF.SameCoordinates,PX68e7780PY8f0d180*%
%TF.FileFunction,Paste,Top*%
%TF.FilePolarity,Positive*%
%FSLAX46Y46*%
G04 Gerber Fmt 4.6, Leading zero omitted, Abs format (unit mm)*
G04 Created by KiCad (PCBNEW 5.1.10) date 2021-11-09 13:31:31*
%MOMM*%
%LPD*%
G01*
G04 APERTURE LIST*
%ADD10R,1.400000X0.700000*%
%ADD11R,1.400000X1.600000*%
%ADD12R,2.200000X1.200000*%
%ADD13R,2.300000X3.100000*%
%ADD14R,0.300000X1.100000*%
%ADD15C,0.100000*%
%ADD16R,0.420000X1.300000*%
%ADD17R,1.300000X0.420000*%
%ADD18R,1.060000X0.650000*%
%ADD19R,2.000000X1.500000*%
%ADD20R,2.000000X3.800000*%
%ADD21R,0.650000X1.060000*%
%ADD22R,0.250000X0.150000*%
%ADD23R,0.600000X0.200000*%
%ADD24R,0.200000X0.600000*%
%ADD25R,0.900000X0.800000*%
%ADD26R,2.500000X1.800000*%
%ADD27R,0.700000X0.600000*%
%ADD28R,2.000000X0.900000*%
%ADD29R,0.900000X2.000000*%
%ADD30R,5.000000X5.000000*%
%ADD31R,0.800000X1.000000*%
%ADD32R,1.500000X0.700000*%
%ADD33R,0.350000X0.375000*%
%ADD34R,0.375000X0.350000*%
G04 APERTURE END LIST*
D10*
%TO.C,J2*%
X56300000Y22475000D03*
X56300000Y21375000D03*
X56300000Y20275000D03*
X56300000Y19175000D03*
X56300000Y18075000D03*
X56300000Y16975000D03*
X56300000Y15875000D03*
X56300000Y14775000D03*
X56300000Y13675000D03*
D11*
X56900000Y12225000D03*
X56900000Y27075000D03*
D12*
X66500000Y12475000D03*
X66500000Y27975000D03*
%TD*%
D13*
%TO.C,J4*%
X27080000Y64350000D03*
X44920000Y64350000D03*
D14*
X28750000Y62650000D03*
X29250000Y62650000D03*
X29750000Y62650000D03*
X30250000Y62650000D03*
X30750000Y62650000D03*
X31250000Y62650000D03*
X31750000Y62650000D03*
X32250000Y62650000D03*
X32750000Y62650000D03*
X33250000Y62650000D03*
X33750000Y62650000D03*
X34250000Y62650000D03*
X34750000Y62650000D03*
X35250000Y62650000D03*
X35750000Y62650000D03*
X36250000Y62650000D03*
X36750000Y62650000D03*
X37250000Y62650000D03*
X37750000Y62650000D03*
X38250000Y62650000D03*
X38750000Y62650000D03*
X39250000Y62650000D03*
X39750000Y62650000D03*
X40250000Y62650000D03*
X40750000Y62650000D03*
X41250000Y62650000D03*
X41750000Y62650000D03*
X42250000Y62650000D03*
X42750000Y62650000D03*
X43250000Y62650000D03*
%TD*%
D15*
%TO.C,D13*%
G36*
X12533062Y91603595D02*
G01*
X11582302Y92490193D01*
X11868742Y92797361D01*
X12819502Y91910763D01*
X12533062Y91603595D01*
G37*
G36*
X11953363Y90981944D02*
G01*
X11002603Y91868542D01*
X11289043Y92175710D01*
X12239803Y91289112D01*
X11953363Y90981944D01*
G37*
G36*
X11373664Y90360293D02*
G01*
X10422904Y91246891D01*
X10709344Y91554059D01*
X11660104Y90667461D01*
X11373664Y90360293D01*
G37*
G36*
X10793966Y89738643D02*
G01*
X9843206Y90625241D01*
X10129646Y90932409D01*
X11080406Y90045811D01*
X10793966Y89738643D01*
G37*
%TD*%
D16*
%TO.C,D12*%
X60725000Y2000000D03*
X61575000Y2000000D03*
X62425000Y2000000D03*
X63275000Y2000000D03*
%TD*%
D17*
%TO.C,D11*%
X2000000Y71275000D03*
X2000000Y70425000D03*
X2000000Y69575000D03*
X2000000Y68725000D03*
%TD*%
%TO.C,D10*%
X70000000Y8725000D03*
X70000000Y9575000D03*
X70000000Y10425000D03*
X70000000Y11275000D03*
%TD*%
%TO.C,D8*%
X2000000Y51275000D03*
X2000000Y50425000D03*
X2000000Y49575000D03*
X2000000Y48725000D03*
%TD*%
%TO.C,D7*%
X70000000Y28725000D03*
X70000000Y29575000D03*
X70000000Y30425000D03*
X70000000Y31275000D03*
%TD*%
%TO.C,D6*%
X2000000Y31275000D03*
X2000000Y30425000D03*
X2000000Y29575000D03*
X2000000Y28725000D03*
%TD*%
%TO.C,D5*%
X70000000Y48725000D03*
X70000000Y49575000D03*
X70000000Y50425000D03*
X70000000Y51275000D03*
%TD*%
%TO.C,D4*%
X2000000Y11275000D03*
X2000000Y10425000D03*
X2000000Y9575000D03*
X2000000Y8725000D03*
%TD*%
%TO.C,D3*%
X70000000Y68725000D03*
X70000000Y69575000D03*
X70000000Y70425000D03*
X70000000Y71275000D03*
%TD*%
D16*
%TO.C,D2*%
X8725000Y2000000D03*
X9575000Y2000000D03*
X10425000Y2000000D03*
X11275000Y2000000D03*
%TD*%
D15*
%TO.C,D1*%
G36*
X63441675Y88519373D02*
G01*
X64459065Y89328642D01*
X64720521Y88999947D01*
X63703131Y88190678D01*
X63441675Y88519373D01*
G37*
G36*
X62912538Y89184590D02*
G01*
X63929928Y89993859D01*
X64191384Y89665164D01*
X63173994Y88855895D01*
X62912538Y89184590D01*
G37*
G36*
X62383400Y89849807D02*
G01*
X63400790Y90659076D01*
X63662246Y90330381D01*
X62644856Y89521112D01*
X62383400Y89849807D01*
G37*
G36*
X61854263Y90515024D02*
G01*
X62871653Y91324293D01*
X63133109Y90995598D01*
X62115719Y90186329D01*
X61854263Y90515024D01*
G37*
%TD*%
%TO.C,R6*%
G36*
G01*
X50325000Y87525000D02*
X50325000Y88075000D01*
G75*
G02*
X50525000Y88275000I200000J0D01*
G01*
X50925000Y88275000D01*
G75*
G02*
X51125000Y88075000I0J-200000D01*
G01*
X51125000Y87525000D01*
G75*
G02*
X50925000Y87325000I-200000J0D01*
G01*
X50525000Y87325000D01*
G75*
G02*
X50325000Y87525000I0J200000D01*
G01*
G37*
G36*
G01*
X48675000Y87525000D02*
X48675000Y88075000D01*
G75*
G02*
X48875000Y88275000I200000J0D01*
G01*
X49275000Y88275000D01*
G75*
G02*
X49475000Y88075000I0J-200000D01*
G01*
X49475000Y87525000D01*
G75*
G02*
X49275000Y87325000I-200000J0D01*
G01*
X48875000Y87325000D01*
G75*
G02*
X48675000Y87525000I0J200000D01*
G01*
G37*
%TD*%
%TO.C,R12*%
G36*
G01*
X30325000Y82275000D02*
X30325000Y81725000D01*
G75*
G02*
X30125000Y81525000I-200000J0D01*
G01*
X29725000Y81525000D01*
G75*
G02*
X29525000Y81725000I0J200000D01*
G01*
X29525000Y82275000D01*
G75*
G02*
X29725000Y82475000I200000J0D01*
G01*
X30125000Y82475000D01*
G75*
G02*
X30325000Y82275000I0J-200000D01*
G01*
G37*
G36*
G01*
X31975000Y82275000D02*
X31975000Y81725000D01*
G75*
G02*
X31775000Y81525000I-200000J0D01*
G01*
X31375000Y81525000D01*
G75*
G02*
X31175000Y81725000I0J200000D01*
G01*
X31175000Y82275000D01*
G75*
G02*
X31375000Y82475000I200000J0D01*
G01*
X31775000Y82475000D01*
G75*
G02*
X31975000Y82275000I0J-200000D01*
G01*
G37*
%TD*%
%TO.C,R8*%
G36*
G01*
X41825000Y82275000D02*
X41825000Y81725000D01*
G75*
G02*
X41625000Y81525000I-200000J0D01*
G01*
X41225000Y81525000D01*
G75*
G02*
X41025000Y81725000I0J200000D01*
G01*
X41025000Y82275000D01*
G75*
G02*
X41225000Y82475000I200000J0D01*
G01*
X41625000Y82475000D01*
G75*
G02*
X41825000Y82275000I0J-200000D01*
G01*
G37*
G36*
G01*
X43475000Y82275000D02*
X43475000Y81725000D01*
G75*
G02*
X43275000Y81525000I-200000J0D01*
G01*
X42875000Y81525000D01*
G75*
G02*
X42675000Y81725000I0J200000D01*
G01*
X42675000Y82275000D01*
G75*
G02*
X42875000Y82475000I200000J0D01*
G01*
X43275000Y82475000D01*
G75*
G02*
X43475000Y82275000I0J-200000D01*
G01*
G37*
%TD*%
%TO.C,D15*%
G36*
G01*
X22580000Y97043750D02*
X22580000Y97956250D01*
G75*
G02*
X22823750Y98200000I243750J0D01*
G01*
X23311250Y98200000D01*
G75*
G02*
X23555000Y97956250I0J-243750D01*
G01*
X23555000Y97043750D01*
G75*
G02*
X23311250Y96800000I-243750J0D01*
G01*
X22823750Y96800000D01*
G75*
G02*
X22580000Y97043750I0J243750D01*
G01*
G37*
G36*
G01*
X20705000Y97043750D02*
X20705000Y97956250D01*
G75*
G02*
X20948750Y98200000I243750J0D01*
G01*
X21436250Y98200000D01*
G75*
G02*
X21680000Y97956250I0J-243750D01*
G01*
X21680000Y97043750D01*
G75*
G02*
X21436250Y96800000I-243750J0D01*
G01*
X20948750Y96800000D01*
G75*
G02*
X20705000Y97043750I0J243750D01*
G01*
G37*
%TD*%
%TO.C,D14*%
G36*
G01*
X50320000Y97043750D02*
X50320000Y97956250D01*
G75*
G02*
X50563750Y98200000I243750J0D01*
G01*
X51051250Y98200000D01*
G75*
G02*
X51295000Y97956250I0J-243750D01*
G01*
X51295000Y97043750D01*
G75*
G02*
X51051250Y96800000I-243750J0D01*
G01*
X50563750Y96800000D01*
G75*
G02*
X50320000Y97043750I0J243750D01*
G01*
G37*
G36*
G01*
X48445000Y97043750D02*
X48445000Y97956250D01*
G75*
G02*
X48688750Y98200000I243750J0D01*
G01*
X49176250Y98200000D01*
G75*
G02*
X49420000Y97956250I0J-243750D01*
G01*
X49420000Y97043750D01*
G75*
G02*
X49176250Y96800000I-243750J0D01*
G01*
X48688750Y96800000D01*
G75*
G02*
X48445000Y97043750I0J243750D01*
G01*
G37*
%TD*%
%TO.C,R19*%
G36*
G01*
X52375000Y17675000D02*
X52375000Y17125000D01*
G75*
G02*
X52175000Y16925000I-200000J0D01*
G01*
X51775000Y16925000D01*
G75*
G02*
X51575000Y17125000I0J200000D01*
G01*
X51575000Y17675000D01*
G75*
G02*
X51775000Y17875000I200000J0D01*
G01*
X52175000Y17875000D01*
G75*
G02*
X52375000Y17675000I0J-200000D01*
G01*
G37*
G36*
G01*
X54025000Y17675000D02*
X54025000Y17125000D01*
G75*
G02*
X53825000Y16925000I-200000J0D01*
G01*
X53425000Y16925000D01*
G75*
G02*
X53225000Y17125000I0J200000D01*
G01*
X53225000Y17675000D01*
G75*
G02*
X53425000Y17875000I200000J0D01*
G01*
X53825000Y17875000D01*
G75*
G02*
X54025000Y17675000I0J-200000D01*
G01*
G37*
%TD*%
%TO.C,R14*%
G36*
G01*
X13325000Y11575000D02*
X13875000Y11575000D01*
G75*
G02*
X14075000Y11375000I0J-200000D01*
G01*
X14075000Y10975000D01*
G75*
G02*
X13875000Y10775000I-200000J0D01*
G01*
X13325000Y10775000D01*
G75*
G02*
X13125000Y10975000I0J200000D01*
G01*
X13125000Y11375000D01*
G75*
G02*
X13325000Y11575000I200000J0D01*
G01*
G37*
G36*
G01*
X13325000Y13225000D02*
X13875000Y13225000D01*
G75*
G02*
X14075000Y13025000I0J-200000D01*
G01*
X14075000Y12625000D01*
G75*
G02*
X13875000Y12425000I-200000J0D01*
G01*
X13325000Y12425000D01*
G75*
G02*
X13125000Y12625000I0J200000D01*
G01*
X13125000Y13025000D01*
G75*
G02*
X13325000Y13225000I200000J0D01*
G01*
G37*
%TD*%
D18*
%TO.C,U9*%
X9800000Y14750000D03*
X9800000Y12850000D03*
X7600000Y12850000D03*
X7600000Y13800000D03*
X7600000Y14750000D03*
%TD*%
D19*
%TO.C,U11*%
X8350000Y26300000D03*
X8350000Y21700000D03*
X8350000Y24000000D03*
D20*
X14650000Y24000000D03*
%TD*%
D18*
%TO.C,U10*%
X19100000Y34000000D03*
X19100000Y33050000D03*
X19100000Y34950000D03*
X21300000Y34950000D03*
X21300000Y34000000D03*
X21300000Y33050000D03*
%TD*%
D21*
%TO.C,U8*%
X18450000Y80900000D03*
X16550000Y80900000D03*
X16550000Y83100000D03*
X17500000Y83100000D03*
X18450000Y83100000D03*
%TD*%
D22*
%TO.C,U5*%
X15025000Y11875000D03*
D23*
X15200000Y12300000D03*
D24*
X15200000Y12950000D03*
X15600000Y12950000D03*
X16000000Y12950000D03*
X16400000Y12950000D03*
X16800000Y12950000D03*
D23*
X16800000Y12300000D03*
D24*
X16800000Y11650000D03*
X16400000Y11650000D03*
X16000000Y11650000D03*
X15600000Y11650000D03*
X15200000Y11650000D03*
%TD*%
D22*
%TO.C,U4*%
X36975000Y81675000D03*
D23*
X36800000Y81250000D03*
D24*
X36800000Y80600000D03*
X36400000Y80600000D03*
X36000000Y80600000D03*
X35600000Y80600000D03*
X35200000Y80600000D03*
D23*
X35200000Y81250000D03*
D24*
X35200000Y81900000D03*
X35600000Y81900000D03*
X36000000Y81900000D03*
X36400000Y81900000D03*
X36800000Y81900000D03*
%TD*%
%TO.C,R29*%
G36*
G01*
X23325000Y33375000D02*
X23875000Y33375000D01*
G75*
G02*
X24075000Y33175000I0J-200000D01*
G01*
X24075000Y32775000D01*
G75*
G02*
X23875000Y32575000I-200000J0D01*
G01*
X23325000Y32575000D01*
G75*
G02*
X23125000Y32775000I0J200000D01*
G01*
X23125000Y33175000D01*
G75*
G02*
X23325000Y33375000I200000J0D01*
G01*
G37*
G36*
G01*
X23325000Y35025000D02*
X23875000Y35025000D01*
G75*
G02*
X24075000Y34825000I0J-200000D01*
G01*
X24075000Y34425000D01*
G75*
G02*
X23875000Y34225000I-200000J0D01*
G01*
X23325000Y34225000D01*
G75*
G02*
X23125000Y34425000I0J200000D01*
G01*
X23125000Y34825000D01*
G75*
G02*
X23325000Y35025000I200000J0D01*
G01*
G37*
%TD*%
%TO.C,R28*%
G36*
G01*
X25125000Y33375000D02*
X25675000Y33375000D01*
G75*
G02*
X25875000Y33175000I0J-200000D01*
G01*
X25875000Y32775000D01*
G75*
G02*
X25675000Y32575000I-200000J0D01*
G01*
X25125000Y32575000D01*
G75*
G02*
X24925000Y32775000I0J200000D01*
G01*
X24925000Y33175000D01*
G75*
G02*
X25125000Y33375000I200000J0D01*
G01*
G37*
G36*
G01*
X25125000Y35025000D02*
X25675000Y35025000D01*
G75*
G02*
X25875000Y34825000I0J-200000D01*
G01*
X25875000Y34425000D01*
G75*
G02*
X25675000Y34225000I-200000J0D01*
G01*
X25125000Y34225000D01*
G75*
G02*
X24925000Y34425000I0J200000D01*
G01*
X24925000Y34825000D01*
G75*
G02*
X25125000Y35025000I200000J0D01*
G01*
G37*
%TD*%
%TO.C,R27*%
G36*
G01*
X43525000Y56975000D02*
X44075000Y56975000D01*
G75*
G02*
X44275000Y56775000I0J-200000D01*
G01*
X44275000Y56375000D01*
G75*
G02*
X44075000Y56175000I-200000J0D01*
G01*
X43525000Y56175000D01*
G75*
G02*
X43325000Y56375000I0J200000D01*
G01*
X43325000Y56775000D01*
G75*
G02*
X43525000Y56975000I200000J0D01*
G01*
G37*
G36*
G01*
X43525000Y58625000D02*
X44075000Y58625000D01*
G75*
G02*
X44275000Y58425000I0J-200000D01*
G01*
X44275000Y58025000D01*
G75*
G02*
X44075000Y57825000I-200000J0D01*
G01*
X43525000Y57825000D01*
G75*
G02*
X43325000Y58025000I0J200000D01*
G01*
X43325000Y58425000D01*
G75*
G02*
X43525000Y58625000I200000J0D01*
G01*
G37*
%TD*%
%TO.C,R26*%
G36*
G01*
X28575000Y57825000D02*
X28025000Y57825000D01*
G75*
G02*
X27825000Y58025000I0J200000D01*
G01*
X27825000Y58425000D01*
G75*
G02*
X28025000Y58625000I200000J0D01*
G01*
X28575000Y58625000D01*
G75*
G02*
X28775000Y58425000I0J-200000D01*
G01*
X28775000Y58025000D01*
G75*
G02*
X28575000Y57825000I-200000J0D01*
G01*
G37*
G36*
G01*
X28575000Y56175000D02*
X28025000Y56175000D01*
G75*
G02*
X27825000Y56375000I0J200000D01*
G01*
X27825000Y56775000D01*
G75*
G02*
X28025000Y56975000I200000J0D01*
G01*
X28575000Y56975000D01*
G75*
G02*
X28775000Y56775000I0J-200000D01*
G01*
X28775000Y56375000D01*
G75*
G02*
X28575000Y56175000I-200000J0D01*
G01*
G37*
%TD*%
%TO.C,R25*%
G36*
G01*
X8325000Y17775000D02*
X8325000Y17225000D01*
G75*
G02*
X8125000Y17025000I-200000J0D01*
G01*
X7725000Y17025000D01*
G75*
G02*
X7525000Y17225000I0J200000D01*
G01*
X7525000Y17775000D01*
G75*
G02*
X7725000Y17975000I200000J0D01*
G01*
X8125000Y17975000D01*
G75*
G02*
X8325000Y17775000I0J-200000D01*
G01*
G37*
G36*
G01*
X9975000Y17775000D02*
X9975000Y17225000D01*
G75*
G02*
X9775000Y17025000I-200000J0D01*
G01*
X9375000Y17025000D01*
G75*
G02*
X9175000Y17225000I0J200000D01*
G01*
X9175000Y17775000D01*
G75*
G02*
X9375000Y17975000I200000J0D01*
G01*
X9775000Y17975000D01*
G75*
G02*
X9975000Y17775000I0J-200000D01*
G01*
G37*
%TD*%
%TO.C,R24*%
G36*
G01*
X9175000Y18725000D02*
X9175000Y19275000D01*
G75*
G02*
X9375000Y19475000I200000J0D01*
G01*
X9775000Y19475000D01*
G75*
G02*
X9975000Y19275000I0J-200000D01*
G01*
X9975000Y18725000D01*
G75*
G02*
X9775000Y18525000I-200000J0D01*
G01*
X9375000Y18525000D01*
G75*
G02*
X9175000Y18725000I0J200000D01*
G01*
G37*
G36*
G01*
X7525000Y18725000D02*
X7525000Y19275000D01*
G75*
G02*
X7725000Y19475000I200000J0D01*
G01*
X8125000Y19475000D01*
G75*
G02*
X8325000Y19275000I0J-200000D01*
G01*
X8325000Y18725000D01*
G75*
G02*
X8125000Y18525000I-200000J0D01*
G01*
X7725000Y18525000D01*
G75*
G02*
X7525000Y18725000I0J200000D01*
G01*
G37*
%TD*%
%TO.C,R23*%
G36*
G01*
X22555000Y89725000D02*
X22555000Y90275000D01*
G75*
G02*
X22755000Y90475000I200000J0D01*
G01*
X23155000Y90475000D01*
G75*
G02*
X23355000Y90275000I0J-200000D01*
G01*
X23355000Y89725000D01*
G75*
G02*
X23155000Y89525000I-200000J0D01*
G01*
X22755000Y89525000D01*
G75*
G02*
X22555000Y89725000I0J200000D01*
G01*
G37*
G36*
G01*
X20905000Y89725000D02*
X20905000Y90275000D01*
G75*
G02*
X21105000Y90475000I200000J0D01*
G01*
X21505000Y90475000D01*
G75*
G02*
X21705000Y90275000I0J-200000D01*
G01*
X21705000Y89725000D01*
G75*
G02*
X21505000Y89525000I-200000J0D01*
G01*
X21105000Y89525000D01*
G75*
G02*
X20905000Y89725000I0J200000D01*
G01*
G37*
%TD*%
%TO.C,R22*%
G36*
G01*
X50295000Y89725000D02*
X50295000Y90275000D01*
G75*
G02*
X50495000Y90475000I200000J0D01*
G01*
X50895000Y90475000D01*
G75*
G02*
X51095000Y90275000I0J-200000D01*
G01*
X51095000Y89725000D01*
G75*
G02*
X50895000Y89525000I-200000J0D01*
G01*
X50495000Y89525000D01*
G75*
G02*
X50295000Y89725000I0J200000D01*
G01*
G37*
G36*
G01*
X48645000Y89725000D02*
X48645000Y90275000D01*
G75*
G02*
X48845000Y90475000I200000J0D01*
G01*
X49245000Y90475000D01*
G75*
G02*
X49445000Y90275000I0J-200000D01*
G01*
X49445000Y89725000D01*
G75*
G02*
X49245000Y89525000I-200000J0D01*
G01*
X48845000Y89525000D01*
G75*
G02*
X48645000Y89725000I0J200000D01*
G01*
G37*
%TD*%
%TO.C,R21*%
G36*
G01*
X60125000Y8375000D02*
X60675000Y8375000D01*
G75*
G02*
X60875000Y8175000I0J-200000D01*
G01*
X60875000Y7775000D01*
G75*
G02*
X60675000Y7575000I-200000J0D01*
G01*
X60125000Y7575000D01*
G75*
G02*
X59925000Y7775000I0J200000D01*
G01*
X59925000Y8175000D01*
G75*
G02*
X60125000Y8375000I200000J0D01*
G01*
G37*
G36*
G01*
X60125000Y10025000D02*
X60675000Y10025000D01*
G75*
G02*
X60875000Y9825000I0J-200000D01*
G01*
X60875000Y9425000D01*
G75*
G02*
X60675000Y9225000I-200000J0D01*
G01*
X60125000Y9225000D01*
G75*
G02*
X59925000Y9425000I0J200000D01*
G01*
X59925000Y9825000D01*
G75*
G02*
X60125000Y10025000I200000J0D01*
G01*
G37*
%TD*%
%TO.C,R20*%
G36*
G01*
X20775000Y82425000D02*
X20225000Y82425000D01*
G75*
G02*
X20025000Y82625000I0J200000D01*
G01*
X20025000Y83025000D01*
G75*
G02*
X20225000Y83225000I200000J0D01*
G01*
X20775000Y83225000D01*
G75*
G02*
X20975000Y83025000I0J-200000D01*
G01*
X20975000Y82625000D01*
G75*
G02*
X20775000Y82425000I-200000J0D01*
G01*
G37*
G36*
G01*
X20775000Y80775000D02*
X20225000Y80775000D01*
G75*
G02*
X20025000Y80975000I0J200000D01*
G01*
X20025000Y81375000D01*
G75*
G02*
X20225000Y81575000I200000J0D01*
G01*
X20775000Y81575000D01*
G75*
G02*
X20975000Y81375000I0J-200000D01*
G01*
X20975000Y80975000D01*
G75*
G02*
X20775000Y80775000I-200000J0D01*
G01*
G37*
%TD*%
%TO.C,R18*%
G36*
G01*
X54275000Y9225000D02*
X53725000Y9225000D01*
G75*
G02*
X53525000Y9425000I0J200000D01*
G01*
X53525000Y9825000D01*
G75*
G02*
X53725000Y10025000I200000J0D01*
G01*
X54275000Y10025000D01*
G75*
G02*
X54475000Y9825000I0J-200000D01*
G01*
X54475000Y9425000D01*
G75*
G02*
X54275000Y9225000I-200000J0D01*
G01*
G37*
G36*
G01*
X54275000Y7575000D02*
X53725000Y7575000D01*
G75*
G02*
X53525000Y7775000I0J200000D01*
G01*
X53525000Y8175000D01*
G75*
G02*
X53725000Y8375000I200000J0D01*
G01*
X54275000Y8375000D01*
G75*
G02*
X54475000Y8175000I0J-200000D01*
G01*
X54475000Y7775000D01*
G75*
G02*
X54275000Y7575000I-200000J0D01*
G01*
G37*
%TD*%
%TO.C,R17*%
G36*
G01*
X55325000Y8375000D02*
X55875000Y8375000D01*
G75*
G02*
X56075000Y8175000I0J-200000D01*
G01*
X56075000Y7775000D01*
G75*
G02*
X55875000Y7575000I-200000J0D01*
G01*
X55325000Y7575000D01*
G75*
G02*
X55125000Y7775000I0J200000D01*
G01*
X55125000Y8175000D01*
G75*
G02*
X55325000Y8375000I200000J0D01*
G01*
G37*
G36*
G01*
X55325000Y10025000D02*
X55875000Y10025000D01*
G75*
G02*
X56075000Y9825000I0J-200000D01*
G01*
X56075000Y9425000D01*
G75*
G02*
X55875000Y9225000I-200000J0D01*
G01*
X55325000Y9225000D01*
G75*
G02*
X55125000Y9425000I0J200000D01*
G01*
X55125000Y9825000D01*
G75*
G02*
X55325000Y10025000I200000J0D01*
G01*
G37*
%TD*%
%TO.C,R16*%
G36*
G01*
X52475000Y9225000D02*
X51925000Y9225000D01*
G75*
G02*
X51725000Y9425000I0J200000D01*
G01*
X51725000Y9825000D01*
G75*
G02*
X51925000Y10025000I200000J0D01*
G01*
X52475000Y10025000D01*
G75*
G02*
X52675000Y9825000I0J-200000D01*
G01*
X52675000Y9425000D01*
G75*
G02*
X52475000Y9225000I-200000J0D01*
G01*
G37*
G36*
G01*
X52475000Y7575000D02*
X51925000Y7575000D01*
G75*
G02*
X51725000Y7775000I0J200000D01*
G01*
X51725000Y8175000D01*
G75*
G02*
X51925000Y8375000I200000J0D01*
G01*
X52475000Y8375000D01*
G75*
G02*
X52675000Y8175000I0J-200000D01*
G01*
X52675000Y7775000D01*
G75*
G02*
X52475000Y7575000I-200000J0D01*
G01*
G37*
%TD*%
%TO.C,R15*%
G36*
G01*
X23275000Y11725000D02*
X22725000Y11725000D01*
G75*
G02*
X22525000Y11925000I0J200000D01*
G01*
X22525000Y12325000D01*
G75*
G02*
X22725000Y12525000I200000J0D01*
G01*
X23275000Y12525000D01*
G75*
G02*
X23475000Y12325000I0J-200000D01*
G01*
X23475000Y11925000D01*
G75*
G02*
X23275000Y11725000I-200000J0D01*
G01*
G37*
G36*
G01*
X23275000Y10075000D02*
X22725000Y10075000D01*
G75*
G02*
X22525000Y10275000I0J200000D01*
G01*
X22525000Y10675000D01*
G75*
G02*
X22725000Y10875000I200000J0D01*
G01*
X23275000Y10875000D01*
G75*
G02*
X23475000Y10675000I0J-200000D01*
G01*
X23475000Y10275000D01*
G75*
G02*
X23275000Y10075000I-200000J0D01*
G01*
G37*
%TD*%
%TO.C,R13*%
G36*
G01*
X38025000Y28775000D02*
X38575000Y28775000D01*
G75*
G02*
X38775000Y28575000I0J-200000D01*
G01*
X38775000Y28175000D01*
G75*
G02*
X38575000Y27975000I-200000J0D01*
G01*
X38025000Y27975000D01*
G75*
G02*
X37825000Y28175000I0J200000D01*
G01*
X37825000Y28575000D01*
G75*
G02*
X38025000Y28775000I200000J0D01*
G01*
G37*
G36*
G01*
X38025000Y30425000D02*
X38575000Y30425000D01*
G75*
G02*
X38775000Y30225000I0J-200000D01*
G01*
X38775000Y29825000D01*
G75*
G02*
X38575000Y29625000I-200000J0D01*
G01*
X38025000Y29625000D01*
G75*
G02*
X37825000Y29825000I0J200000D01*
G01*
X37825000Y30225000D01*
G75*
G02*
X38025000Y30425000I200000J0D01*
G01*
G37*
%TD*%
%TO.C,R11*%
G36*
G01*
X33525000Y28775000D02*
X34075000Y28775000D01*
G75*
G02*
X34275000Y28575000I0J-200000D01*
G01*
X34275000Y28175000D01*
G75*
G02*
X34075000Y27975000I-200000J0D01*
G01*
X33525000Y27975000D01*
G75*
G02*
X33325000Y28175000I0J200000D01*
G01*
X33325000Y28575000D01*
G75*
G02*
X33525000Y28775000I200000J0D01*
G01*
G37*
G36*
G01*
X33525000Y30425000D02*
X34075000Y30425000D01*
G75*
G02*
X34275000Y30225000I0J-200000D01*
G01*
X34275000Y29825000D01*
G75*
G02*
X34075000Y29625000I-200000J0D01*
G01*
X33525000Y29625000D01*
G75*
G02*
X33325000Y29825000I0J200000D01*
G01*
X33325000Y30225000D01*
G75*
G02*
X33525000Y30425000I200000J0D01*
G01*
G37*
%TD*%
%TO.C,R10*%
G36*
G01*
X24875000Y11725000D02*
X24325000Y11725000D01*
G75*
G02*
X24125000Y11925000I0J200000D01*
G01*
X24125000Y12325000D01*
G75*
G02*
X24325000Y12525000I200000J0D01*
G01*
X24875000Y12525000D01*
G75*
G02*
X25075000Y12325000I0J-200000D01*
G01*
X25075000Y11925000D01*
G75*
G02*
X24875000Y11725000I-200000J0D01*
G01*
G37*
G36*
G01*
X24875000Y10075000D02*
X24325000Y10075000D01*
G75*
G02*
X24125000Y10275000I0J200000D01*
G01*
X24125000Y10675000D01*
G75*
G02*
X24325000Y10875000I200000J0D01*
G01*
X24875000Y10875000D01*
G75*
G02*
X25075000Y10675000I0J-200000D01*
G01*
X25075000Y10275000D01*
G75*
G02*
X24875000Y10075000I-200000J0D01*
G01*
G37*
%TD*%
%TO.C,R9*%
G36*
G01*
X38925000Y80775000D02*
X39475000Y80775000D01*
G75*
G02*
X39675000Y80575000I0J-200000D01*
G01*
X39675000Y80175000D01*
G75*
G02*
X39475000Y79975000I-200000J0D01*
G01*
X38925000Y79975000D01*
G75*
G02*
X38725000Y80175000I0J200000D01*
G01*
X38725000Y80575000D01*
G75*
G02*
X38925000Y80775000I200000J0D01*
G01*
G37*
G36*
G01*
X38925000Y82425000D02*
X39475000Y82425000D01*
G75*
G02*
X39675000Y82225000I0J-200000D01*
G01*
X39675000Y81825000D01*
G75*
G02*
X39475000Y81625000I-200000J0D01*
G01*
X38925000Y81625000D01*
G75*
G02*
X38725000Y81825000I0J200000D01*
G01*
X38725000Y82225000D01*
G75*
G02*
X38925000Y82425000I200000J0D01*
G01*
G37*
%TD*%
%TO.C,R7*%
G36*
G01*
X31925000Y28775000D02*
X32475000Y28775000D01*
G75*
G02*
X32675000Y28575000I0J-200000D01*
G01*
X32675000Y28175000D01*
G75*
G02*
X32475000Y27975000I-200000J0D01*
G01*
X31925000Y27975000D01*
G75*
G02*
X31725000Y28175000I0J200000D01*
G01*
X31725000Y28575000D01*
G75*
G02*
X31925000Y28775000I200000J0D01*
G01*
G37*
G36*
G01*
X31925000Y30425000D02*
X32475000Y30425000D01*
G75*
G02*
X32675000Y30225000I0J-200000D01*
G01*
X32675000Y29825000D01*
G75*
G02*
X32475000Y29625000I-200000J0D01*
G01*
X31925000Y29625000D01*
G75*
G02*
X31725000Y29825000I0J200000D01*
G01*
X31725000Y30225000D01*
G75*
G02*
X31925000Y30425000I200000J0D01*
G01*
G37*
%TD*%
%TO.C,R5*%
G36*
G01*
X24325000Y20775000D02*
X24875000Y20775000D01*
G75*
G02*
X25075000Y20575000I0J-200000D01*
G01*
X25075000Y20175000D01*
G75*
G02*
X24875000Y19975000I-200000J0D01*
G01*
X24325000Y19975000D01*
G75*
G02*
X24125000Y20175000I0J200000D01*
G01*
X24125000Y20575000D01*
G75*
G02*
X24325000Y20775000I200000J0D01*
G01*
G37*
G36*
G01*
X24325000Y22425000D02*
X24875000Y22425000D01*
G75*
G02*
X25075000Y22225000I0J-200000D01*
G01*
X25075000Y21825000D01*
G75*
G02*
X24875000Y21625000I-200000J0D01*
G01*
X24325000Y21625000D01*
G75*
G02*
X24125000Y21825000I0J200000D01*
G01*
X24125000Y22225000D01*
G75*
G02*
X24325000Y22425000I200000J0D01*
G01*
G37*
%TD*%
%TO.C,R4*%
G36*
G01*
X19525000Y20775000D02*
X20075000Y20775000D01*
G75*
G02*
X20275000Y20575000I0J-200000D01*
G01*
X20275000Y20175000D01*
G75*
G02*
X20075000Y19975000I-200000J0D01*
G01*
X19525000Y19975000D01*
G75*
G02*
X19325000Y20175000I0J200000D01*
G01*
X19325000Y20575000D01*
G75*
G02*
X19525000Y20775000I200000J0D01*
G01*
G37*
G36*
G01*
X19525000Y22425000D02*
X20075000Y22425000D01*
G75*
G02*
X20275000Y22225000I0J-200000D01*
G01*
X20275000Y21825000D01*
G75*
G02*
X20075000Y21625000I-200000J0D01*
G01*
X19525000Y21625000D01*
G75*
G02*
X19325000Y21825000I0J200000D01*
G01*
X19325000Y22225000D01*
G75*
G02*
X19525000Y22425000I200000J0D01*
G01*
G37*
%TD*%
%TO.C,R3*%
G36*
G01*
X24225000Y26925000D02*
X24225000Y27475000D01*
G75*
G02*
X24425000Y27675000I200000J0D01*
G01*
X24825000Y27675000D01*
G75*
G02*
X25025000Y27475000I0J-200000D01*
G01*
X25025000Y26925000D01*
G75*
G02*
X24825000Y26725000I-200000J0D01*
G01*
X24425000Y26725000D01*
G75*
G02*
X24225000Y26925000I0J200000D01*
G01*
G37*
G36*
G01*
X22575000Y26925000D02*
X22575000Y27475000D01*
G75*
G02*
X22775000Y27675000I200000J0D01*
G01*
X23175000Y27675000D01*
G75*
G02*
X23375000Y27475000I0J-200000D01*
G01*
X23375000Y26925000D01*
G75*
G02*
X23175000Y26725000I-200000J0D01*
G01*
X22775000Y26725000D01*
G75*
G02*
X22575000Y26925000I0J200000D01*
G01*
G37*
%TD*%
%TO.C,R2*%
G36*
G01*
X19425000Y26925000D02*
X19425000Y27475000D01*
G75*
G02*
X19625000Y27675000I200000J0D01*
G01*
X20025000Y27675000D01*
G75*
G02*
X20225000Y27475000I0J-200000D01*
G01*
X20225000Y26925000D01*
G75*
G02*
X20025000Y26725000I-200000J0D01*
G01*
X19625000Y26725000D01*
G75*
G02*
X19425000Y26925000I0J200000D01*
G01*
G37*
G36*
G01*
X17775000Y26925000D02*
X17775000Y27475000D01*
G75*
G02*
X17975000Y27675000I200000J0D01*
G01*
X18375000Y27675000D01*
G75*
G02*
X18575000Y27475000I0J-200000D01*
G01*
X18575000Y26925000D01*
G75*
G02*
X18375000Y26725000I-200000J0D01*
G01*
X17975000Y26725000D01*
G75*
G02*
X17775000Y26925000I0J200000D01*
G01*
G37*
%TD*%
%TO.C,R1*%
G36*
G01*
X34075000Y46825000D02*
X33525000Y46825000D01*
G75*
G02*
X33325000Y47025000I0J200000D01*
G01*
X33325000Y47425000D01*
G75*
G02*
X33525000Y47625000I200000J0D01*
G01*
X34075000Y47625000D01*
G75*
G02*
X34275000Y47425000I0J-200000D01*
G01*
X34275000Y47025000D01*
G75*
G02*
X34075000Y46825000I-200000J0D01*
G01*
G37*
G36*
G01*
X34075000Y45175000D02*
X33525000Y45175000D01*
G75*
G02*
X33325000Y45375000I0J200000D01*
G01*
X33325000Y45775000D01*
G75*
G02*
X33525000Y45975000I200000J0D01*
G01*
X34075000Y45975000D01*
G75*
G02*
X34275000Y45775000I0J-200000D01*
G01*
X34275000Y45375000D01*
G75*
G02*
X34075000Y45175000I-200000J0D01*
G01*
G37*
%TD*%
D25*
%TO.C,Q2*%
X22600000Y24600000D03*
X24600000Y25550000D03*
X24600000Y23650000D03*
%TD*%
%TO.C,Q1*%
X17800000Y24600000D03*
X19800000Y25550000D03*
X19800000Y23650000D03*
%TD*%
%TO.C,L1*%
G36*
G01*
X25375000Y36325000D02*
X25375000Y38475000D01*
G75*
G02*
X25625000Y38725000I250000J0D01*
G01*
X26375000Y38725000D01*
G75*
G02*
X26625000Y38475000I0J-250000D01*
G01*
X26625000Y36325000D01*
G75*
G02*
X26375000Y36075000I-250000J0D01*
G01*
X25625000Y36075000D01*
G75*
G02*
X25375000Y36325000I0J250000D01*
G01*
G37*
G36*
G01*
X22575000Y36325000D02*
X22575000Y38475000D01*
G75*
G02*
X22825000Y38725000I250000J0D01*
G01*
X23575000Y38725000D01*
G75*
G02*
X23825000Y38475000I0J-250000D01*
G01*
X23825000Y36325000D01*
G75*
G02*
X23575000Y36075000I-250000J0D01*
G01*
X22825000Y36075000D01*
G75*
G02*
X22575000Y36325000I0J250000D01*
G01*
G37*
%TD*%
D26*
%TO.C,D18*%
X23200000Y30200000D03*
X27200000Y30200000D03*
%TD*%
D27*
%TO.C,D17*%
X28300000Y51300000D03*
X28300000Y52700000D03*
%TD*%
%TO.C,D16*%
X28300000Y53900000D03*
X28300000Y55300000D03*
%TD*%
%TO.C,C32*%
G36*
G01*
X13350000Y7675000D02*
X13850000Y7675000D01*
G75*
G02*
X14075000Y7450000I0J-225000D01*
G01*
X14075000Y7000000D01*
G75*
G02*
X13850000Y6775000I-225000J0D01*
G01*
X13350000Y6775000D01*
G75*
G02*
X13125000Y7000000I0J225000D01*
G01*
X13125000Y7450000D01*
G75*
G02*
X13350000Y7675000I225000J0D01*
G01*
G37*
G36*
G01*
X13350000Y9225000D02*
X13850000Y9225000D01*
G75*
G02*
X14075000Y9000000I0J-225000D01*
G01*
X14075000Y8550000D01*
G75*
G02*
X13850000Y8325000I-225000J0D01*
G01*
X13350000Y8325000D01*
G75*
G02*
X13125000Y8550000I0J225000D01*
G01*
X13125000Y9000000D01*
G75*
G02*
X13350000Y9225000I225000J0D01*
G01*
G37*
%TD*%
%TO.C,C31*%
G36*
G01*
X27450000Y34125000D02*
X26950000Y34125000D01*
G75*
G02*
X26725000Y34350000I0J225000D01*
G01*
X26725000Y34800000D01*
G75*
G02*
X26950000Y35025000I225000J0D01*
G01*
X27450000Y35025000D01*
G75*
G02*
X27675000Y34800000I0J-225000D01*
G01*
X27675000Y34350000D01*
G75*
G02*
X27450000Y34125000I-225000J0D01*
G01*
G37*
G36*
G01*
X27450000Y32575000D02*
X26950000Y32575000D01*
G75*
G02*
X26725000Y32800000I0J225000D01*
G01*
X26725000Y33250000D01*
G75*
G02*
X26950000Y33475000I225000J0D01*
G01*
X27450000Y33475000D01*
G75*
G02*
X27675000Y33250000I0J-225000D01*
G01*
X27675000Y32800000D01*
G75*
G02*
X27450000Y32575000I-225000J0D01*
G01*
G37*
%TD*%
%TO.C,C30*%
G36*
G01*
X17050000Y21525000D02*
X16550000Y21525000D01*
G75*
G02*
X16325000Y21750000I0J225000D01*
G01*
X16325000Y22200000D01*
G75*
G02*
X16550000Y22425000I225000J0D01*
G01*
X17050000Y22425000D01*
G75*
G02*
X17275000Y22200000I0J-225000D01*
G01*
X17275000Y21750000D01*
G75*
G02*
X17050000Y21525000I-225000J0D01*
G01*
G37*
G36*
G01*
X17050000Y19975000D02*
X16550000Y19975000D01*
G75*
G02*
X16325000Y20200000I0J225000D01*
G01*
X16325000Y20650000D01*
G75*
G02*
X16550000Y20875000I225000J0D01*
G01*
X17050000Y20875000D01*
G75*
G02*
X17275000Y20650000I0J-225000D01*
G01*
X17275000Y20200000D01*
G75*
G02*
X17050000Y19975000I-225000J0D01*
G01*
G37*
%TD*%
%TO.C,C29*%
G36*
G01*
X8475000Y11250000D02*
X8475000Y10750000D01*
G75*
G02*
X8250000Y10525000I-225000J0D01*
G01*
X7800000Y10525000D01*
G75*
G02*
X7575000Y10750000I0J225000D01*
G01*
X7575000Y11250000D01*
G75*
G02*
X7800000Y11475000I225000J0D01*
G01*
X8250000Y11475000D01*
G75*
G02*
X8475000Y11250000I0J-225000D01*
G01*
G37*
G36*
G01*
X10025000Y11250000D02*
X10025000Y10750000D01*
G75*
G02*
X9800000Y10525000I-225000J0D01*
G01*
X9350000Y10525000D01*
G75*
G02*
X9125000Y10750000I0J225000D01*
G01*
X9125000Y11250000D01*
G75*
G02*
X9350000Y11475000I225000J0D01*
G01*
X9800000Y11475000D01*
G75*
G02*
X10025000Y11250000I0J-225000D01*
G01*
G37*
%TD*%
%TO.C,C28*%
G36*
G01*
X21125000Y37150000D02*
X21125000Y37650000D01*
G75*
G02*
X21350000Y37875000I225000J0D01*
G01*
X21800000Y37875000D01*
G75*
G02*
X22025000Y37650000I0J-225000D01*
G01*
X22025000Y37150000D01*
G75*
G02*
X21800000Y36925000I-225000J0D01*
G01*
X21350000Y36925000D01*
G75*
G02*
X21125000Y37150000I0J225000D01*
G01*
G37*
G36*
G01*
X19575000Y37150000D02*
X19575000Y37650000D01*
G75*
G02*
X19800000Y37875000I225000J0D01*
G01*
X20250000Y37875000D01*
G75*
G02*
X20475000Y37650000I0J-225000D01*
G01*
X20475000Y37150000D01*
G75*
G02*
X20250000Y36925000I-225000J0D01*
G01*
X19800000Y36925000D01*
G75*
G02*
X19575000Y37150000I0J225000D01*
G01*
G37*
%TD*%
%TO.C,C27*%
G36*
G01*
X11250000Y13575000D02*
X11750000Y13575000D01*
G75*
G02*
X11975000Y13350000I0J-225000D01*
G01*
X11975000Y12900000D01*
G75*
G02*
X11750000Y12675000I-225000J0D01*
G01*
X11250000Y12675000D01*
G75*
G02*
X11025000Y12900000I0J225000D01*
G01*
X11025000Y13350000D01*
G75*
G02*
X11250000Y13575000I225000J0D01*
G01*
G37*
G36*
G01*
X11250000Y15125000D02*
X11750000Y15125000D01*
G75*
G02*
X11975000Y14900000I0J-225000D01*
G01*
X11975000Y14450000D01*
G75*
G02*
X11750000Y14225000I-225000J0D01*
G01*
X11250000Y14225000D01*
G75*
G02*
X11025000Y14450000I0J225000D01*
G01*
X11025000Y14900000D01*
G75*
G02*
X11250000Y15125000I225000J0D01*
G01*
G37*
%TD*%
%TO.C,C26*%
G36*
G01*
X47150000Y57075000D02*
X47650000Y57075000D01*
G75*
G02*
X47875000Y56850000I0J-225000D01*
G01*
X47875000Y56400000D01*
G75*
G02*
X47650000Y56175000I-225000J0D01*
G01*
X47150000Y56175000D01*
G75*
G02*
X46925000Y56400000I0J225000D01*
G01*
X46925000Y56850000D01*
G75*
G02*
X47150000Y57075000I225000J0D01*
G01*
G37*
G36*
G01*
X47150000Y58625000D02*
X47650000Y58625000D01*
G75*
G02*
X47875000Y58400000I0J-225000D01*
G01*
X47875000Y57950000D01*
G75*
G02*
X47650000Y57725000I-225000J0D01*
G01*
X47150000Y57725000D01*
G75*
G02*
X46925000Y57950000I0J225000D01*
G01*
X46925000Y58400000D01*
G75*
G02*
X47150000Y58625000I225000J0D01*
G01*
G37*
%TD*%
%TO.C,C25*%
G36*
G01*
X23350000Y57075000D02*
X23850000Y57075000D01*
G75*
G02*
X24075000Y56850000I0J-225000D01*
G01*
X24075000Y56400000D01*
G75*
G02*
X23850000Y56175000I-225000J0D01*
G01*
X23350000Y56175000D01*
G75*
G02*
X23125000Y56400000I0J225000D01*
G01*
X23125000Y56850000D01*
G75*
G02*
X23350000Y57075000I225000J0D01*
G01*
G37*
G36*
G01*
X23350000Y58625000D02*
X23850000Y58625000D01*
G75*
G02*
X24075000Y58400000I0J-225000D01*
G01*
X24075000Y57950000D01*
G75*
G02*
X23850000Y57725000I-225000J0D01*
G01*
X23350000Y57725000D01*
G75*
G02*
X23125000Y57950000I0J225000D01*
G01*
X23125000Y58400000D01*
G75*
G02*
X23350000Y58625000I225000J0D01*
G01*
G37*
%TD*%
%TO.C,C24*%
G36*
G01*
X20475000Y39450000D02*
X20475000Y38950000D01*
G75*
G02*
X20250000Y38725000I-225000J0D01*
G01*
X19800000Y38725000D01*
G75*
G02*
X19575000Y38950000I0J225000D01*
G01*
X19575000Y39450000D01*
G75*
G02*
X19800000Y39675000I225000J0D01*
G01*
X20250000Y39675000D01*
G75*
G02*
X20475000Y39450000I0J-225000D01*
G01*
G37*
G36*
G01*
X22025000Y39450000D02*
X22025000Y38950000D01*
G75*
G02*
X21800000Y38725000I-225000J0D01*
G01*
X21350000Y38725000D01*
G75*
G02*
X21125000Y38950000I0J225000D01*
G01*
X21125000Y39450000D01*
G75*
G02*
X21350000Y39675000I225000J0D01*
G01*
X21800000Y39675000D01*
G75*
G02*
X22025000Y39450000I0J-225000D01*
G01*
G37*
%TD*%
%TO.C,C23*%
G36*
G01*
X48950000Y57075000D02*
X49450000Y57075000D01*
G75*
G02*
X49675000Y56850000I0J-225000D01*
G01*
X49675000Y56400000D01*
G75*
G02*
X49450000Y56175000I-225000J0D01*
G01*
X48950000Y56175000D01*
G75*
G02*
X48725000Y56400000I0J225000D01*
G01*
X48725000Y56850000D01*
G75*
G02*
X48950000Y57075000I225000J0D01*
G01*
G37*
G36*
G01*
X48950000Y58625000D02*
X49450000Y58625000D01*
G75*
G02*
X49675000Y58400000I0J-225000D01*
G01*
X49675000Y57950000D01*
G75*
G02*
X49450000Y57725000I-225000J0D01*
G01*
X48950000Y57725000D01*
G75*
G02*
X48725000Y57950000I0J225000D01*
G01*
X48725000Y58400000D01*
G75*
G02*
X48950000Y58625000I225000J0D01*
G01*
G37*
%TD*%
%TO.C,C22*%
G36*
G01*
X24950000Y57075000D02*
X25450000Y57075000D01*
G75*
G02*
X25675000Y56850000I0J-225000D01*
G01*
X25675000Y56400000D01*
G75*
G02*
X25450000Y56175000I-225000J0D01*
G01*
X24950000Y56175000D01*
G75*
G02*
X24725000Y56400000I0J225000D01*
G01*
X24725000Y56850000D01*
G75*
G02*
X24950000Y57075000I225000J0D01*
G01*
G37*
G36*
G01*
X24950000Y58625000D02*
X25450000Y58625000D01*
G75*
G02*
X25675000Y58400000I0J-225000D01*
G01*
X25675000Y57950000D01*
G75*
G02*
X25450000Y57725000I-225000J0D01*
G01*
X24950000Y57725000D01*
G75*
G02*
X24725000Y57950000I0J225000D01*
G01*
X24725000Y58400000D01*
G75*
G02*
X24950000Y58625000I225000J0D01*
G01*
G37*
%TD*%
%TO.C,C21*%
G36*
G01*
X20475000Y41250000D02*
X20475000Y40750000D01*
G75*
G02*
X20250000Y40525000I-225000J0D01*
G01*
X19800000Y40525000D01*
G75*
G02*
X19575000Y40750000I0J225000D01*
G01*
X19575000Y41250000D01*
G75*
G02*
X19800000Y41475000I225000J0D01*
G01*
X20250000Y41475000D01*
G75*
G02*
X20475000Y41250000I0J-225000D01*
G01*
G37*
G36*
G01*
X22025000Y41250000D02*
X22025000Y40750000D01*
G75*
G02*
X21800000Y40525000I-225000J0D01*
G01*
X21350000Y40525000D01*
G75*
G02*
X21125000Y40750000I0J225000D01*
G01*
X21125000Y41250000D01*
G75*
G02*
X21350000Y41475000I225000J0D01*
G01*
X21800000Y41475000D01*
G75*
G02*
X22025000Y41250000I0J-225000D01*
G01*
G37*
%TD*%
%TO.C,C20*%
G36*
G01*
X12075000Y18750000D02*
X12075000Y19250000D01*
G75*
G02*
X12300000Y19475000I225000J0D01*
G01*
X12750000Y19475000D01*
G75*
G02*
X12975000Y19250000I0J-225000D01*
G01*
X12975000Y18750000D01*
G75*
G02*
X12750000Y18525000I-225000J0D01*
G01*
X12300000Y18525000D01*
G75*
G02*
X12075000Y18750000I0J225000D01*
G01*
G37*
G36*
G01*
X10525000Y18750000D02*
X10525000Y19250000D01*
G75*
G02*
X10750000Y19475000I225000J0D01*
G01*
X11200000Y19475000D01*
G75*
G02*
X11425000Y19250000I0J-225000D01*
G01*
X11425000Y18750000D01*
G75*
G02*
X11200000Y18525000I-225000J0D01*
G01*
X10750000Y18525000D01*
G75*
G02*
X10525000Y18750000I0J225000D01*
G01*
G37*
%TD*%
%TO.C,C19*%
G36*
G01*
X45350000Y57075000D02*
X45850000Y57075000D01*
G75*
G02*
X46075000Y56850000I0J-225000D01*
G01*
X46075000Y56400000D01*
G75*
G02*
X45850000Y56175000I-225000J0D01*
G01*
X45350000Y56175000D01*
G75*
G02*
X45125000Y56400000I0J225000D01*
G01*
X45125000Y56850000D01*
G75*
G02*
X45350000Y57075000I225000J0D01*
G01*
G37*
G36*
G01*
X45350000Y58625000D02*
X45850000Y58625000D01*
G75*
G02*
X46075000Y58400000I0J-225000D01*
G01*
X46075000Y57950000D01*
G75*
G02*
X45850000Y57725000I-225000J0D01*
G01*
X45350000Y57725000D01*
G75*
G02*
X45125000Y57950000I0J225000D01*
G01*
X45125000Y58400000D01*
G75*
G02*
X45350000Y58625000I225000J0D01*
G01*
G37*
%TD*%
%TO.C,C18*%
G36*
G01*
X13000000Y75675000D02*
X13500000Y75675000D01*
G75*
G02*
X13725000Y75450000I0J-225000D01*
G01*
X13725000Y75000000D01*
G75*
G02*
X13500000Y74775000I-225000J0D01*
G01*
X13000000Y74775000D01*
G75*
G02*
X12775000Y75000000I0J225000D01*
G01*
X12775000Y75450000D01*
G75*
G02*
X13000000Y75675000I225000J0D01*
G01*
G37*
G36*
G01*
X13000000Y77225000D02*
X13500000Y77225000D01*
G75*
G02*
X13725000Y77000000I0J-225000D01*
G01*
X13725000Y76550000D01*
G75*
G02*
X13500000Y76325000I-225000J0D01*
G01*
X13000000Y76325000D01*
G75*
G02*
X12775000Y76550000I0J225000D01*
G01*
X12775000Y77000000D01*
G75*
G02*
X13000000Y77225000I225000J0D01*
G01*
G37*
%TD*%
%TO.C,C17*%
G36*
G01*
X15000000Y82325000D02*
X14500000Y82325000D01*
G75*
G02*
X14275000Y82550000I0J225000D01*
G01*
X14275000Y83000000D01*
G75*
G02*
X14500000Y83225000I225000J0D01*
G01*
X15000000Y83225000D01*
G75*
G02*
X15225000Y83000000I0J-225000D01*
G01*
X15225000Y82550000D01*
G75*
G02*
X15000000Y82325000I-225000J0D01*
G01*
G37*
G36*
G01*
X15000000Y80775000D02*
X14500000Y80775000D01*
G75*
G02*
X14275000Y81000000I0J225000D01*
G01*
X14275000Y81450000D01*
G75*
G02*
X14500000Y81675000I225000J0D01*
G01*
X15000000Y81675000D01*
G75*
G02*
X15225000Y81450000I0J-225000D01*
G01*
X15225000Y81000000D01*
G75*
G02*
X15000000Y80775000I-225000J0D01*
G01*
G37*
%TD*%
%TO.C,C16*%
G36*
G01*
X58150000Y8475000D02*
X58650000Y8475000D01*
G75*
G02*
X58875000Y8250000I0J-225000D01*
G01*
X58875000Y7800000D01*
G75*
G02*
X58650000Y7575000I-225000J0D01*
G01*
X58150000Y7575000D01*
G75*
G02*
X57925000Y7800000I0J225000D01*
G01*
X57925000Y8250000D01*
G75*
G02*
X58150000Y8475000I225000J0D01*
G01*
G37*
G36*
G01*
X58150000Y10025000D02*
X58650000Y10025000D01*
G75*
G02*
X58875000Y9800000I0J-225000D01*
G01*
X58875000Y9350000D01*
G75*
G02*
X58650000Y9125000I-225000J0D01*
G01*
X58150000Y9125000D01*
G75*
G02*
X57925000Y9350000I0J225000D01*
G01*
X57925000Y9800000D01*
G75*
G02*
X58150000Y10025000I225000J0D01*
G01*
G37*
%TD*%
%TO.C,C15*%
G36*
G01*
X52750000Y12875000D02*
X53250000Y12875000D01*
G75*
G02*
X53475000Y12650000I0J-225000D01*
G01*
X53475000Y12200000D01*
G75*
G02*
X53250000Y11975000I-225000J0D01*
G01*
X52750000Y11975000D01*
G75*
G02*
X52525000Y12200000I0J225000D01*
G01*
X52525000Y12650000D01*
G75*
G02*
X52750000Y12875000I225000J0D01*
G01*
G37*
G36*
G01*
X52750000Y14425000D02*
X53250000Y14425000D01*
G75*
G02*
X53475000Y14200000I0J-225000D01*
G01*
X53475000Y13750000D01*
G75*
G02*
X53250000Y13525000I-225000J0D01*
G01*
X52750000Y13525000D01*
G75*
G02*
X52525000Y13750000I0J225000D01*
G01*
X52525000Y14200000D01*
G75*
G02*
X52750000Y14425000I225000J0D01*
G01*
G37*
%TD*%
%TO.C,C14*%
G36*
G01*
X10475000Y88650000D02*
X10475000Y88150000D01*
G75*
G02*
X10250000Y87925000I-225000J0D01*
G01*
X9800000Y87925000D01*
G75*
G02*
X9575000Y88150000I0J225000D01*
G01*
X9575000Y88650000D01*
G75*
G02*
X9800000Y88875000I225000J0D01*
G01*
X10250000Y88875000D01*
G75*
G02*
X10475000Y88650000I0J-225000D01*
G01*
G37*
G36*
G01*
X12025000Y88650000D02*
X12025000Y88150000D01*
G75*
G02*
X11800000Y87925000I-225000J0D01*
G01*
X11350000Y87925000D01*
G75*
G02*
X11125000Y88150000I0J225000D01*
G01*
X11125000Y88650000D01*
G75*
G02*
X11350000Y88875000I225000J0D01*
G01*
X11800000Y88875000D01*
G75*
G02*
X12025000Y88650000I0J-225000D01*
G01*
G37*
%TD*%
%TO.C,C13*%
G36*
G01*
X65475000Y2250000D02*
X65475000Y1750000D01*
G75*
G02*
X65250000Y1525000I-225000J0D01*
G01*
X64800000Y1525000D01*
G75*
G02*
X64575000Y1750000I0J225000D01*
G01*
X64575000Y2250000D01*
G75*
G02*
X64800000Y2475000I225000J0D01*
G01*
X65250000Y2475000D01*
G75*
G02*
X65475000Y2250000I0J-225000D01*
G01*
G37*
G36*
G01*
X67025000Y2250000D02*
X67025000Y1750000D01*
G75*
G02*
X66800000Y1525000I-225000J0D01*
G01*
X66350000Y1525000D01*
G75*
G02*
X66125000Y1750000I0J225000D01*
G01*
X66125000Y2250000D01*
G75*
G02*
X66350000Y2475000I225000J0D01*
G01*
X66800000Y2475000D01*
G75*
G02*
X67025000Y2250000I0J-225000D01*
G01*
G37*
%TD*%
%TO.C,C12*%
G36*
G01*
X1750000Y65900000D02*
X2250000Y65900000D01*
G75*
G02*
X2475000Y65675000I0J-225000D01*
G01*
X2475000Y65225000D01*
G75*
G02*
X2250000Y65000000I-225000J0D01*
G01*
X1750000Y65000000D01*
G75*
G02*
X1525000Y65225000I0J225000D01*
G01*
X1525000Y65675000D01*
G75*
G02*
X1750000Y65900000I225000J0D01*
G01*
G37*
G36*
G01*
X1750000Y67450000D02*
X2250000Y67450000D01*
G75*
G02*
X2475000Y67225000I0J-225000D01*
G01*
X2475000Y66775000D01*
G75*
G02*
X2250000Y66550000I-225000J0D01*
G01*
X1750000Y66550000D01*
G75*
G02*
X1525000Y66775000I0J225000D01*
G01*
X1525000Y67225000D01*
G75*
G02*
X1750000Y67450000I225000J0D01*
G01*
G37*
%TD*%
%TO.C,C11*%
G36*
G01*
X66550000Y8475000D02*
X67050000Y8475000D01*
G75*
G02*
X67275000Y8250000I0J-225000D01*
G01*
X67275000Y7800000D01*
G75*
G02*
X67050000Y7575000I-225000J0D01*
G01*
X66550000Y7575000D01*
G75*
G02*
X66325000Y7800000I0J225000D01*
G01*
X66325000Y8250000D01*
G75*
G02*
X66550000Y8475000I225000J0D01*
G01*
G37*
G36*
G01*
X66550000Y10025000D02*
X67050000Y10025000D01*
G75*
G02*
X67275000Y9800000I0J-225000D01*
G01*
X67275000Y9350000D01*
G75*
G02*
X67050000Y9125000I-225000J0D01*
G01*
X66550000Y9125000D01*
G75*
G02*
X66325000Y9350000I0J225000D01*
G01*
X66325000Y9800000D01*
G75*
G02*
X66550000Y10025000I225000J0D01*
G01*
G37*
%TD*%
%TO.C,C10*%
G36*
G01*
X1950000Y26075000D02*
X2450000Y26075000D01*
G75*
G02*
X2675000Y25850000I0J-225000D01*
G01*
X2675000Y25400000D01*
G75*
G02*
X2450000Y25175000I-225000J0D01*
G01*
X1950000Y25175000D01*
G75*
G02*
X1725000Y25400000I0J225000D01*
G01*
X1725000Y25850000D01*
G75*
G02*
X1950000Y26075000I225000J0D01*
G01*
G37*
G36*
G01*
X1950000Y27625000D02*
X2450000Y27625000D01*
G75*
G02*
X2675000Y27400000I0J-225000D01*
G01*
X2675000Y26950000D01*
G75*
G02*
X2450000Y26725000I-225000J0D01*
G01*
X1950000Y26725000D01*
G75*
G02*
X1725000Y26950000I0J225000D01*
G01*
X1725000Y27400000D01*
G75*
G02*
X1950000Y27625000I225000J0D01*
G01*
G37*
%TD*%
%TO.C,C9*%
G36*
G01*
X70250000Y34125000D02*
X69750000Y34125000D01*
G75*
G02*
X69525000Y34350000I0J225000D01*
G01*
X69525000Y34800000D01*
G75*
G02*
X69750000Y35025000I225000J0D01*
G01*
X70250000Y35025000D01*
G75*
G02*
X70475000Y34800000I0J-225000D01*
G01*
X70475000Y34350000D01*
G75*
G02*
X70250000Y34125000I-225000J0D01*
G01*
G37*
G36*
G01*
X70250000Y32575000D02*
X69750000Y32575000D01*
G75*
G02*
X69525000Y32800000I0J225000D01*
G01*
X69525000Y33250000D01*
G75*
G02*
X69750000Y33475000I225000J0D01*
G01*
X70250000Y33475000D01*
G75*
G02*
X70475000Y33250000I0J-225000D01*
G01*
X70475000Y32800000D01*
G75*
G02*
X70250000Y32575000I-225000J0D01*
G01*
G37*
%TD*%
%TO.C,C8*%
G36*
G01*
X1950000Y46275000D02*
X2450000Y46275000D01*
G75*
G02*
X2675000Y46050000I0J-225000D01*
G01*
X2675000Y45600000D01*
G75*
G02*
X2450000Y45375000I-225000J0D01*
G01*
X1950000Y45375000D01*
G75*
G02*
X1725000Y45600000I0J225000D01*
G01*
X1725000Y46050000D01*
G75*
G02*
X1950000Y46275000I225000J0D01*
G01*
G37*
G36*
G01*
X1950000Y47825000D02*
X2450000Y47825000D01*
G75*
G02*
X2675000Y47600000I0J-225000D01*
G01*
X2675000Y47150000D01*
G75*
G02*
X2450000Y46925000I-225000J0D01*
G01*
X1950000Y46925000D01*
G75*
G02*
X1725000Y47150000I0J225000D01*
G01*
X1725000Y47600000D01*
G75*
G02*
X1950000Y47825000I225000J0D01*
G01*
G37*
%TD*%
%TO.C,C7*%
G36*
G01*
X69950000Y46275000D02*
X70450000Y46275000D01*
G75*
G02*
X70675000Y46050000I0J-225000D01*
G01*
X70675000Y45600000D01*
G75*
G02*
X70450000Y45375000I-225000J0D01*
G01*
X69950000Y45375000D01*
G75*
G02*
X69725000Y45600000I0J225000D01*
G01*
X69725000Y46050000D01*
G75*
G02*
X69950000Y46275000I225000J0D01*
G01*
G37*
G36*
G01*
X69950000Y47825000D02*
X70450000Y47825000D01*
G75*
G02*
X70675000Y47600000I0J-225000D01*
G01*
X70675000Y47150000D01*
G75*
G02*
X70450000Y46925000I-225000J0D01*
G01*
X69950000Y46925000D01*
G75*
G02*
X69725000Y47150000I0J225000D01*
G01*
X69725000Y47600000D01*
G75*
G02*
X69950000Y47825000I225000J0D01*
G01*
G37*
%TD*%
%TO.C,C6*%
G36*
G01*
X38250000Y46725000D02*
X37750000Y46725000D01*
G75*
G02*
X37525000Y46950000I0J225000D01*
G01*
X37525000Y47400000D01*
G75*
G02*
X37750000Y47625000I225000J0D01*
G01*
X38250000Y47625000D01*
G75*
G02*
X38475000Y47400000I0J-225000D01*
G01*
X38475000Y46950000D01*
G75*
G02*
X38250000Y46725000I-225000J0D01*
G01*
G37*
G36*
G01*
X38250000Y45175000D02*
X37750000Y45175000D01*
G75*
G02*
X37525000Y45400000I0J225000D01*
G01*
X37525000Y45850000D01*
G75*
G02*
X37750000Y46075000I225000J0D01*
G01*
X38250000Y46075000D01*
G75*
G02*
X38475000Y45850000I0J-225000D01*
G01*
X38475000Y45400000D01*
G75*
G02*
X38250000Y45175000I-225000J0D01*
G01*
G37*
%TD*%
%TO.C,C5*%
G36*
G01*
X1950000Y6250000D02*
X2450000Y6250000D01*
G75*
G02*
X2675000Y6025000I0J-225000D01*
G01*
X2675000Y5575000D01*
G75*
G02*
X2450000Y5350000I-225000J0D01*
G01*
X1950000Y5350000D01*
G75*
G02*
X1725000Y5575000I0J225000D01*
G01*
X1725000Y6025000D01*
G75*
G02*
X1950000Y6250000I225000J0D01*
G01*
G37*
G36*
G01*
X1950000Y7800000D02*
X2450000Y7800000D01*
G75*
G02*
X2675000Y7575000I0J-225000D01*
G01*
X2675000Y7125000D01*
G75*
G02*
X2450000Y6900000I-225000J0D01*
G01*
X1950000Y6900000D01*
G75*
G02*
X1725000Y7125000I0J225000D01*
G01*
X1725000Y7575000D01*
G75*
G02*
X1950000Y7800000I225000J0D01*
G01*
G37*
%TD*%
%TO.C,C4*%
G36*
G01*
X69950000Y66075000D02*
X70450000Y66075000D01*
G75*
G02*
X70675000Y65850000I0J-225000D01*
G01*
X70675000Y65400000D01*
G75*
G02*
X70450000Y65175000I-225000J0D01*
G01*
X69950000Y65175000D01*
G75*
G02*
X69725000Y65400000I0J225000D01*
G01*
X69725000Y65850000D01*
G75*
G02*
X69950000Y66075000I225000J0D01*
G01*
G37*
G36*
G01*
X69950000Y67625000D02*
X70450000Y67625000D01*
G75*
G02*
X70675000Y67400000I0J-225000D01*
G01*
X70675000Y66950000D01*
G75*
G02*
X70450000Y66725000I-225000J0D01*
G01*
X69950000Y66725000D01*
G75*
G02*
X69725000Y66950000I0J225000D01*
G01*
X69725000Y67400000D01*
G75*
G02*
X69950000Y67625000I225000J0D01*
G01*
G37*
%TD*%
%TO.C,C3*%
G36*
G01*
X36450000Y46725000D02*
X35950000Y46725000D01*
G75*
G02*
X35725000Y46950000I0J225000D01*
G01*
X35725000Y47400000D01*
G75*
G02*
X35950000Y47625000I225000J0D01*
G01*
X36450000Y47625000D01*
G75*
G02*
X36675000Y47400000I0J-225000D01*
G01*
X36675000Y46950000D01*
G75*
G02*
X36450000Y46725000I-225000J0D01*
G01*
G37*
G36*
G01*
X36450000Y45175000D02*
X35950000Y45175000D01*
G75*
G02*
X35725000Y45400000I0J225000D01*
G01*
X35725000Y45850000D01*
G75*
G02*
X35950000Y46075000I225000J0D01*
G01*
X36450000Y46075000D01*
G75*
G02*
X36675000Y45850000I0J-225000D01*
G01*
X36675000Y45400000D01*
G75*
G02*
X36450000Y45175000I-225000J0D01*
G01*
G37*
%TD*%
%TO.C,C2*%
G36*
G01*
X13525000Y1750000D02*
X13525000Y2250000D01*
G75*
G02*
X13750000Y2475000I225000J0D01*
G01*
X14200000Y2475000D01*
G75*
G02*
X14425000Y2250000I0J-225000D01*
G01*
X14425000Y1750000D01*
G75*
G02*
X14200000Y1525000I-225000J0D01*
G01*
X13750000Y1525000D01*
G75*
G02*
X13525000Y1750000I0J225000D01*
G01*
G37*
G36*
G01*
X11975000Y1750000D02*
X11975000Y2250000D01*
G75*
G02*
X12200000Y2475000I225000J0D01*
G01*
X12650000Y2475000D01*
G75*
G02*
X12875000Y2250000I0J-225000D01*
G01*
X12875000Y1750000D01*
G75*
G02*
X12650000Y1525000I-225000J0D01*
G01*
X12200000Y1525000D01*
G75*
G02*
X11975000Y1750000I0J225000D01*
G01*
G37*
%TD*%
%TO.C,C1*%
G36*
G01*
X60550000Y85475000D02*
X61050000Y85475000D01*
G75*
G02*
X61275000Y85250000I0J-225000D01*
G01*
X61275000Y84800000D01*
G75*
G02*
X61050000Y84575000I-225000J0D01*
G01*
X60550000Y84575000D01*
G75*
G02*
X60325000Y84800000I0J225000D01*
G01*
X60325000Y85250000D01*
G75*
G02*
X60550000Y85475000I225000J0D01*
G01*
G37*
G36*
G01*
X60550000Y87025000D02*
X61050000Y87025000D01*
G75*
G02*
X61275000Y86800000I0J-225000D01*
G01*
X61275000Y86350000D01*
G75*
G02*
X61050000Y86125000I-225000J0D01*
G01*
X60550000Y86125000D01*
G75*
G02*
X60325000Y86350000I0J225000D01*
G01*
X60325000Y86800000D01*
G75*
G02*
X60550000Y87025000I225000J0D01*
G01*
G37*
%TD*%
D28*
%TO.C,U2*%
X27500000Y7745000D03*
X27500000Y9015000D03*
X27500000Y10285000D03*
X27500000Y11555000D03*
X27500000Y12825000D03*
X27500000Y14095000D03*
X27500000Y15365000D03*
X27500000Y16635000D03*
X27500000Y17905000D03*
X27500000Y19175000D03*
X27500000Y20445000D03*
X27500000Y21715000D03*
X27500000Y22985000D03*
X27500000Y24255000D03*
D29*
X30285000Y25255000D03*
X31555000Y25255000D03*
X32825000Y25255000D03*
X34095000Y25255000D03*
X35365000Y25255000D03*
X36635000Y25255000D03*
X37905000Y25255000D03*
X39175000Y25255000D03*
X40445000Y25255000D03*
X41715000Y25255000D03*
D28*
X44500000Y24255000D03*
X44500000Y22985000D03*
X44500000Y21715000D03*
X44500000Y20445000D03*
X44500000Y19175000D03*
X44500000Y17905000D03*
X44500000Y16635000D03*
X44500000Y15365000D03*
X44500000Y14095000D03*
X44500000Y12825000D03*
X44500000Y11555000D03*
X44500000Y10285000D03*
X44500000Y9015000D03*
X44500000Y7745000D03*
D30*
X37000000Y15245000D03*
%TD*%
D31*
%TO.C,SW2*%
X3780000Y23650000D03*
X3780000Y16350000D03*
X1570000Y16350000D03*
X1570000Y23650000D03*
D32*
X4430000Y17750000D03*
X4430000Y19250000D03*
X4430000Y22250000D03*
%TD*%
D33*
%TO.C,U1*%
X35750000Y50762500D03*
X36250000Y50762500D03*
X36250000Y49237500D03*
X35750000Y49237500D03*
D34*
X36762500Y50750000D03*
X35237500Y50750000D03*
X36762500Y49250000D03*
X35237500Y49250000D03*
X36762500Y49750000D03*
X36762500Y50250000D03*
X35237500Y49750000D03*
X35237500Y50250000D03*
%TD*%
M02*
