%TF.GenerationSoftware,KiCad,Pcbnew,5.1.10*%
%TF.CreationDate,2021-11-19T17:21:31+01:00*%
%TF.ProjectId,Teebeutel,54656562-6575-4746-956c-2e6b69636164,v0.1*%
%TF.SameCoordinates,Original*%
%TF.FileFunction,Soldermask,Bot*%
%TF.FilePolarity,Negative*%
%FSLAX46Y46*%
G04 Gerber Fmt 4.6, Leading zero omitted, Abs format (unit mm)*
G04 Created by KiCad (PCBNEW 5.1.10) date 2021-11-19 17:21:31*
%MOMM*%
%LPD*%
G01*
G04 APERTURE LIST*
%TA.AperFunction,Profile*%
%ADD10C,0.100000*%
%TD*%
%ADD11C,0.010000*%
%ADD12C,0.000100*%
%ADD13R,0.500000X1.200000*%
%ADD14R,1.400000X1.500000*%
%ADD15R,1.400000X1.300000*%
%ADD16R,0.800000X1.400000*%
%ADD17R,0.900000X1.400000*%
%ADD18C,1.500000*%
%ADD19C,2.300000*%
%ADD20C,3.250000*%
%ADD21R,1.500000X1.500000*%
%ADD22R,0.450000X0.750000*%
%ADD23O,1.700000X1.700000*%
%ADD24R,1.700000X1.700000*%
%ADD25C,0.100000*%
%ADD26R,0.550000X0.400000*%
%ADD27C,0.900000*%
G04 APERTURE END LIST*
D10*
X133000000Y-76000000D02*
G75*
G02*
X133000000Y-74000000I0J1000000D01*
G01*
X159000000Y-74000000D02*
G75*
G02*
X159000000Y-76000000I0J-1000000D01*
G01*
X133000000Y-74000000D02*
X159000000Y-74000000D01*
X159000000Y-76000000D02*
X133000000Y-76000000D01*
X126800000Y-50000000D02*
X110000000Y-68000000D01*
X167700000Y-50000000D02*
X182000000Y-68000000D01*
X110000000Y-150000000D02*
X182000000Y-150000000D01*
X126800000Y-50000000D02*
X167700000Y-50000000D01*
X110000000Y-150000000D02*
X110000000Y-68000000D01*
X182000000Y-68000000D02*
X182000000Y-150000000D01*
D11*
%TO.C,TB1*%
G36*
X116605124Y-117420476D02*
G01*
X116391390Y-117421951D01*
X116217380Y-117426709D01*
X116075965Y-117435710D01*
X115960021Y-117449913D01*
X115862421Y-117470278D01*
X115776039Y-117497764D01*
X115693749Y-117533332D01*
X115666540Y-117546872D01*
X115515162Y-117642564D01*
X115378808Y-117768354D01*
X115256347Y-117926559D01*
X115146646Y-118119491D01*
X115048573Y-118349465D01*
X114960997Y-118618797D01*
X114882784Y-118929800D01*
X114812804Y-119284790D01*
X114810775Y-119296399D01*
X114791487Y-119417123D01*
X114777567Y-119531731D01*
X114768264Y-119651759D01*
X114762823Y-119788747D01*
X114760492Y-119954233D01*
X114760271Y-120070360D01*
X114762830Y-120292139D01*
X114771381Y-120480043D01*
X114788059Y-120646946D01*
X114815000Y-120805722D01*
X114854343Y-120969244D01*
X114908221Y-121150387D01*
X114970724Y-121338588D01*
X115068781Y-121603291D01*
X115167982Y-121825371D01*
X115271231Y-122009080D01*
X115381434Y-122158668D01*
X115501494Y-122278386D01*
X115634317Y-122372485D01*
X115702243Y-122409201D01*
X115881455Y-122497784D01*
X117911411Y-122509511D01*
X119941366Y-122521238D01*
X119955236Y-122837858D01*
X117443582Y-122837858D01*
X117443582Y-123384085D01*
X117445181Y-123613282D01*
X117451295Y-123802371D01*
X117463896Y-123958083D01*
X117484959Y-124087147D01*
X117516458Y-124196293D01*
X117560367Y-124292251D01*
X117618660Y-124381752D01*
X117693310Y-124471525D01*
X117786292Y-124568300D01*
X117792814Y-124574792D01*
X117952269Y-124713235D01*
X118135875Y-124833976D01*
X118348801Y-124939472D01*
X118596217Y-125032178D01*
X118883293Y-125114551D01*
X118976580Y-125137300D01*
X119261366Y-125192429D01*
X119565256Y-125230028D01*
X119873240Y-125249189D01*
X120170307Y-125249006D01*
X120441445Y-125228572D01*
X120456505Y-125226689D01*
X120618235Y-125201006D01*
X120805271Y-125163411D01*
X121000114Y-125118011D01*
X121185268Y-125068913D01*
X121343235Y-125020223D01*
X121358451Y-125014981D01*
X121634104Y-124900780D01*
X121874439Y-124763636D01*
X122077410Y-124605243D01*
X122240966Y-124427295D01*
X122363060Y-124231486D01*
X122396643Y-124156518D01*
X122408162Y-124127378D01*
X122417942Y-124098932D01*
X122426148Y-124067234D01*
X122432944Y-124028336D01*
X122438494Y-123978288D01*
X122439655Y-123961350D01*
X119007692Y-123961350D01*
X118983758Y-124090417D01*
X118926213Y-124205260D01*
X118841359Y-124300632D01*
X118735500Y-124371289D01*
X118614937Y-124411985D01*
X118485975Y-124417475D01*
X118354915Y-124382514D01*
X118332428Y-124371943D01*
X118278491Y-124334789D01*
X118217787Y-124279184D01*
X118200054Y-124259997D01*
X118121504Y-124140557D01*
X118083544Y-124014592D01*
X118082305Y-123888489D01*
X118113919Y-123768635D01*
X118174516Y-123661417D01*
X118260227Y-123573224D01*
X118367185Y-123510443D01*
X118491520Y-123479461D01*
X118629363Y-123486665D01*
X118663602Y-123494672D01*
X118773496Y-123545375D01*
X118874510Y-123629385D01*
X118953282Y-123733318D01*
X118991710Y-123823303D01*
X119007692Y-123961350D01*
X122439655Y-123961350D01*
X122442963Y-123913144D01*
X122446515Y-123828955D01*
X122449314Y-123721773D01*
X122451524Y-123587650D01*
X122453309Y-123422638D01*
X122454835Y-123222788D01*
X122456264Y-122984153D01*
X122457762Y-122702785D01*
X122457853Y-122685411D01*
X122459178Y-122351362D01*
X122459408Y-122062483D01*
X122458520Y-121817048D01*
X122456492Y-121613331D01*
X122453300Y-121449609D01*
X122448921Y-121324155D01*
X122443332Y-121235244D01*
X122437758Y-121187969D01*
X122386531Y-120998722D01*
X122299981Y-120807333D01*
X122186255Y-120629287D01*
X122077364Y-120503036D01*
X121929862Y-120373530D01*
X121772052Y-120272871D01*
X121586966Y-120190484D01*
X121559649Y-120180431D01*
X121530215Y-120170231D01*
X121500240Y-120161457D01*
X121466027Y-120153966D01*
X121423883Y-120147616D01*
X121370110Y-120142268D01*
X121301015Y-120137778D01*
X121212902Y-120134005D01*
X121102075Y-120130807D01*
X120964839Y-120128044D01*
X120797499Y-120125572D01*
X120596360Y-120123251D01*
X120357726Y-120120939D01*
X120077902Y-120118494D01*
X119906186Y-120117050D01*
X119602316Y-120114475D01*
X119341630Y-120112112D01*
X119120406Y-120109818D01*
X118934922Y-120107449D01*
X118781456Y-120104862D01*
X118656287Y-120101913D01*
X118555693Y-120098459D01*
X118475952Y-120094356D01*
X118413343Y-120089461D01*
X118364144Y-120083630D01*
X118324632Y-120076720D01*
X118291087Y-120068586D01*
X118259787Y-120059086D01*
X118240997Y-120052827D01*
X118013715Y-119953474D01*
X117799071Y-119816441D01*
X117605676Y-119649040D01*
X117442136Y-119458582D01*
X117330765Y-119279670D01*
X117278591Y-119174997D01*
X117236716Y-119079174D01*
X117204031Y-118985224D01*
X117179423Y-118886169D01*
X117161784Y-118775033D01*
X117150001Y-118644839D01*
X117142965Y-118488610D01*
X117139564Y-118299368D01*
X117138688Y-118073072D01*
X117138688Y-117420130D01*
X116605124Y-117420476D01*
G37*
X116605124Y-117420476D02*
X116391390Y-117421951D01*
X116217380Y-117426709D01*
X116075965Y-117435710D01*
X115960021Y-117449913D01*
X115862421Y-117470278D01*
X115776039Y-117497764D01*
X115693749Y-117533332D01*
X115666540Y-117546872D01*
X115515162Y-117642564D01*
X115378808Y-117768354D01*
X115256347Y-117926559D01*
X115146646Y-118119491D01*
X115048573Y-118349465D01*
X114960997Y-118618797D01*
X114882784Y-118929800D01*
X114812804Y-119284790D01*
X114810775Y-119296399D01*
X114791487Y-119417123D01*
X114777567Y-119531731D01*
X114768264Y-119651759D01*
X114762823Y-119788747D01*
X114760492Y-119954233D01*
X114760271Y-120070360D01*
X114762830Y-120292139D01*
X114771381Y-120480043D01*
X114788059Y-120646946D01*
X114815000Y-120805722D01*
X114854343Y-120969244D01*
X114908221Y-121150387D01*
X114970724Y-121338588D01*
X115068781Y-121603291D01*
X115167982Y-121825371D01*
X115271231Y-122009080D01*
X115381434Y-122158668D01*
X115501494Y-122278386D01*
X115634317Y-122372485D01*
X115702243Y-122409201D01*
X115881455Y-122497784D01*
X117911411Y-122509511D01*
X119941366Y-122521238D01*
X119955236Y-122837858D01*
X117443582Y-122837858D01*
X117443582Y-123384085D01*
X117445181Y-123613282D01*
X117451295Y-123802371D01*
X117463896Y-123958083D01*
X117484959Y-124087147D01*
X117516458Y-124196293D01*
X117560367Y-124292251D01*
X117618660Y-124381752D01*
X117693310Y-124471525D01*
X117786292Y-124568300D01*
X117792814Y-124574792D01*
X117952269Y-124713235D01*
X118135875Y-124833976D01*
X118348801Y-124939472D01*
X118596217Y-125032178D01*
X118883293Y-125114551D01*
X118976580Y-125137300D01*
X119261366Y-125192429D01*
X119565256Y-125230028D01*
X119873240Y-125249189D01*
X120170307Y-125249006D01*
X120441445Y-125228572D01*
X120456505Y-125226689D01*
X120618235Y-125201006D01*
X120805271Y-125163411D01*
X121000114Y-125118011D01*
X121185268Y-125068913D01*
X121343235Y-125020223D01*
X121358451Y-125014981D01*
X121634104Y-124900780D01*
X121874439Y-124763636D01*
X122077410Y-124605243D01*
X122240966Y-124427295D01*
X122363060Y-124231486D01*
X122396643Y-124156518D01*
X122408162Y-124127378D01*
X122417942Y-124098932D01*
X122426148Y-124067234D01*
X122432944Y-124028336D01*
X122438494Y-123978288D01*
X122439655Y-123961350D01*
X119007692Y-123961350D01*
X118983758Y-124090417D01*
X118926213Y-124205260D01*
X118841359Y-124300632D01*
X118735500Y-124371289D01*
X118614937Y-124411985D01*
X118485975Y-124417475D01*
X118354915Y-124382514D01*
X118332428Y-124371943D01*
X118278491Y-124334789D01*
X118217787Y-124279184D01*
X118200054Y-124259997D01*
X118121504Y-124140557D01*
X118083544Y-124014592D01*
X118082305Y-123888489D01*
X118113919Y-123768635D01*
X118174516Y-123661417D01*
X118260227Y-123573224D01*
X118367185Y-123510443D01*
X118491520Y-123479461D01*
X118629363Y-123486665D01*
X118663602Y-123494672D01*
X118773496Y-123545375D01*
X118874510Y-123629385D01*
X118953282Y-123733318D01*
X118991710Y-123823303D01*
X119007692Y-123961350D01*
X122439655Y-123961350D01*
X122442963Y-123913144D01*
X122446515Y-123828955D01*
X122449314Y-123721773D01*
X122451524Y-123587650D01*
X122453309Y-123422638D01*
X122454835Y-123222788D01*
X122456264Y-122984153D01*
X122457762Y-122702785D01*
X122457853Y-122685411D01*
X122459178Y-122351362D01*
X122459408Y-122062483D01*
X122458520Y-121817048D01*
X122456492Y-121613331D01*
X122453300Y-121449609D01*
X122448921Y-121324155D01*
X122443332Y-121235244D01*
X122437758Y-121187969D01*
X122386531Y-120998722D01*
X122299981Y-120807333D01*
X122186255Y-120629287D01*
X122077364Y-120503036D01*
X121929862Y-120373530D01*
X121772052Y-120272871D01*
X121586966Y-120190484D01*
X121559649Y-120180431D01*
X121530215Y-120170231D01*
X121500240Y-120161457D01*
X121466027Y-120153966D01*
X121423883Y-120147616D01*
X121370110Y-120142268D01*
X121301015Y-120137778D01*
X121212902Y-120134005D01*
X121102075Y-120130807D01*
X120964839Y-120128044D01*
X120797499Y-120125572D01*
X120596360Y-120123251D01*
X120357726Y-120120939D01*
X120077902Y-120118494D01*
X119906186Y-120117050D01*
X119602316Y-120114475D01*
X119341630Y-120112112D01*
X119120406Y-120109818D01*
X118934922Y-120107449D01*
X118781456Y-120104862D01*
X118656287Y-120101913D01*
X118555693Y-120098459D01*
X118475952Y-120094356D01*
X118413343Y-120089461D01*
X118364144Y-120083630D01*
X118324632Y-120076720D01*
X118291087Y-120068586D01*
X118259787Y-120059086D01*
X118240997Y-120052827D01*
X118013715Y-119953474D01*
X117799071Y-119816441D01*
X117605676Y-119649040D01*
X117442136Y-119458582D01*
X117330765Y-119279670D01*
X117278591Y-119174997D01*
X117236716Y-119079174D01*
X117204031Y-118985224D01*
X117179423Y-118886169D01*
X117161784Y-118775033D01*
X117150001Y-118644839D01*
X117142965Y-118488610D01*
X117139564Y-118299368D01*
X117138688Y-118073072D01*
X117138688Y-117420130D01*
X116605124Y-117420476D01*
G36*
X119888516Y-114749485D02*
G01*
X119607872Y-114760687D01*
X119337159Y-114780215D01*
X119083845Y-114807543D01*
X118855401Y-114842144D01*
X118659297Y-114883492D01*
X118516240Y-114926177D01*
X118276533Y-115033872D01*
X118065242Y-115172207D01*
X117885944Y-115337546D01*
X117742214Y-115526251D01*
X117637627Y-115734686D01*
X117596761Y-115861455D01*
X117588916Y-115897720D01*
X117582264Y-115943996D01*
X117576712Y-116004086D01*
X117572170Y-116081792D01*
X117568543Y-116180919D01*
X117565741Y-116305267D01*
X117563671Y-116458642D01*
X117562240Y-116644845D01*
X117561356Y-116867681D01*
X117560928Y-117130951D01*
X117560849Y-117341816D01*
X117561339Y-117681673D01*
X117562800Y-117978438D01*
X117565223Y-118231508D01*
X117568597Y-118440285D01*
X117572912Y-118604166D01*
X117578156Y-118722551D01*
X117584320Y-118794839D01*
X117586577Y-118808587D01*
X117656433Y-119033273D01*
X117767602Y-119238818D01*
X117917320Y-119422132D01*
X118102824Y-119580125D01*
X118321353Y-119709709D01*
X118438679Y-119761512D01*
X118462742Y-119769257D01*
X118495539Y-119776003D01*
X118540553Y-119781861D01*
X118601264Y-119786939D01*
X118681152Y-119791349D01*
X118783697Y-119795198D01*
X118912381Y-119798599D01*
X119070684Y-119801659D01*
X119262086Y-119804489D01*
X119490068Y-119807198D01*
X119758111Y-119809897D01*
X120058633Y-119812600D01*
X120363482Y-119815261D01*
X120625151Y-119817680D01*
X120847367Y-119820006D01*
X121033854Y-119822385D01*
X121188340Y-119824967D01*
X121314549Y-119827900D01*
X121416207Y-119831333D01*
X121497040Y-119835412D01*
X121560773Y-119840287D01*
X121611133Y-119846105D01*
X121651845Y-119853016D01*
X121686635Y-119861166D01*
X121719228Y-119870705D01*
X121747276Y-119879781D01*
X121946014Y-119957616D01*
X122121937Y-120055653D01*
X122288912Y-120182651D01*
X122417214Y-120302771D01*
X122518753Y-120408853D01*
X122594298Y-120499756D01*
X122654408Y-120589696D01*
X122709640Y-120692893D01*
X122714871Y-120703601D01*
X122761705Y-120805277D01*
X122799227Y-120901441D01*
X122828430Y-120999016D01*
X122850307Y-121104927D01*
X122865854Y-121226095D01*
X122876063Y-121369447D01*
X122881930Y-121541903D01*
X122884447Y-121750390D01*
X122884764Y-121887008D01*
X122884764Y-122509511D01*
X123430055Y-122507414D01*
X123650348Y-122505179D01*
X123825518Y-122500289D01*
X123957279Y-122492659D01*
X124047346Y-122482203D01*
X124080886Y-122474888D01*
X124302757Y-122387122D01*
X124501727Y-122258874D01*
X124676541Y-122091277D01*
X124825939Y-121885466D01*
X124911490Y-121726128D01*
X124992508Y-121527008D01*
X125066073Y-121291475D01*
X125130217Y-121029700D01*
X125182970Y-120751857D01*
X125222364Y-120468116D01*
X125246428Y-120188649D01*
X125253362Y-119960158D01*
X125245944Y-119739084D01*
X125224695Y-119498105D01*
X125191583Y-119248792D01*
X125148572Y-119002718D01*
X125097627Y-118771456D01*
X125040716Y-118566578D01*
X124994207Y-118434441D01*
X124874077Y-118188900D01*
X124721995Y-117973412D01*
X124541023Y-117791431D01*
X124334226Y-117646412D01*
X124260485Y-117607081D01*
X124199505Y-117576553D01*
X124145826Y-117549841D01*
X124096033Y-117526678D01*
X124046714Y-117506798D01*
X123994454Y-117489934D01*
X123935841Y-117475821D01*
X123867459Y-117464192D01*
X123785895Y-117454781D01*
X123687736Y-117447321D01*
X123569568Y-117441547D01*
X123427977Y-117437191D01*
X123259550Y-117433988D01*
X123060872Y-117431672D01*
X122828529Y-117429976D01*
X122559109Y-117428634D01*
X122249197Y-117427379D01*
X121940766Y-117426138D01*
X120070360Y-117418280D01*
X120070360Y-117115236D01*
X122579870Y-117115236D01*
X122579146Y-116569945D01*
X122577200Y-116317080D01*
X122571457Y-116105428D01*
X122566756Y-116026549D01*
X121938690Y-116026549D01*
X121906640Y-116166233D01*
X121836928Y-116288590D01*
X121742824Y-116377638D01*
X121623652Y-116435262D01*
X121491354Y-116458857D01*
X121357873Y-116445814D01*
X121268497Y-116412663D01*
X121152332Y-116330123D01*
X121070902Y-116224155D01*
X121024225Y-116102875D01*
X121012322Y-115974400D01*
X121035213Y-115846846D01*
X121092916Y-115728331D01*
X121185452Y-115626970D01*
X121266482Y-115572946D01*
X121394863Y-115528898D01*
X121528822Y-115525794D01*
X121657915Y-115560722D01*
X121771699Y-115630771D01*
X121859733Y-115733030D01*
X121863538Y-115739391D01*
X121924365Y-115883393D01*
X121938690Y-116026549D01*
X122566756Y-116026549D01*
X122560964Y-115929380D01*
X122544765Y-115783328D01*
X122521908Y-115661666D01*
X122491437Y-115558783D01*
X122452399Y-115469074D01*
X122403840Y-115386929D01*
X122369709Y-115338901D01*
X122248459Y-115211782D01*
X122086804Y-115100157D01*
X121883995Y-115003769D01*
X121639281Y-114922361D01*
X121351913Y-114855676D01*
X121021143Y-114803456D01*
X120715327Y-114771106D01*
X120449714Y-114754168D01*
X120171620Y-114747136D01*
X119888516Y-114749485D01*
G37*
X119888516Y-114749485D02*
X119607872Y-114760687D01*
X119337159Y-114780215D01*
X119083845Y-114807543D01*
X118855401Y-114842144D01*
X118659297Y-114883492D01*
X118516240Y-114926177D01*
X118276533Y-115033872D01*
X118065242Y-115172207D01*
X117885944Y-115337546D01*
X117742214Y-115526251D01*
X117637627Y-115734686D01*
X117596761Y-115861455D01*
X117588916Y-115897720D01*
X117582264Y-115943996D01*
X117576712Y-116004086D01*
X117572170Y-116081792D01*
X117568543Y-116180919D01*
X117565741Y-116305267D01*
X117563671Y-116458642D01*
X117562240Y-116644845D01*
X117561356Y-116867681D01*
X117560928Y-117130951D01*
X117560849Y-117341816D01*
X117561339Y-117681673D01*
X117562800Y-117978438D01*
X117565223Y-118231508D01*
X117568597Y-118440285D01*
X117572912Y-118604166D01*
X117578156Y-118722551D01*
X117584320Y-118794839D01*
X117586577Y-118808587D01*
X117656433Y-119033273D01*
X117767602Y-119238818D01*
X117917320Y-119422132D01*
X118102824Y-119580125D01*
X118321353Y-119709709D01*
X118438679Y-119761512D01*
X118462742Y-119769257D01*
X118495539Y-119776003D01*
X118540553Y-119781861D01*
X118601264Y-119786939D01*
X118681152Y-119791349D01*
X118783697Y-119795198D01*
X118912381Y-119798599D01*
X119070684Y-119801659D01*
X119262086Y-119804489D01*
X119490068Y-119807198D01*
X119758111Y-119809897D01*
X120058633Y-119812600D01*
X120363482Y-119815261D01*
X120625151Y-119817680D01*
X120847367Y-119820006D01*
X121033854Y-119822385D01*
X121188340Y-119824967D01*
X121314549Y-119827900D01*
X121416207Y-119831333D01*
X121497040Y-119835412D01*
X121560773Y-119840287D01*
X121611133Y-119846105D01*
X121651845Y-119853016D01*
X121686635Y-119861166D01*
X121719228Y-119870705D01*
X121747276Y-119879781D01*
X121946014Y-119957616D01*
X122121937Y-120055653D01*
X122288912Y-120182651D01*
X122417214Y-120302771D01*
X122518753Y-120408853D01*
X122594298Y-120499756D01*
X122654408Y-120589696D01*
X122709640Y-120692893D01*
X122714871Y-120703601D01*
X122761705Y-120805277D01*
X122799227Y-120901441D01*
X122828430Y-120999016D01*
X122850307Y-121104927D01*
X122865854Y-121226095D01*
X122876063Y-121369447D01*
X122881930Y-121541903D01*
X122884447Y-121750390D01*
X122884764Y-121887008D01*
X122884764Y-122509511D01*
X123430055Y-122507414D01*
X123650348Y-122505179D01*
X123825518Y-122500289D01*
X123957279Y-122492659D01*
X124047346Y-122482203D01*
X124080886Y-122474888D01*
X124302757Y-122387122D01*
X124501727Y-122258874D01*
X124676541Y-122091277D01*
X124825939Y-121885466D01*
X124911490Y-121726128D01*
X124992508Y-121527008D01*
X125066073Y-121291475D01*
X125130217Y-121029700D01*
X125182970Y-120751857D01*
X125222364Y-120468116D01*
X125246428Y-120188649D01*
X125253362Y-119960158D01*
X125245944Y-119739084D01*
X125224695Y-119498105D01*
X125191583Y-119248792D01*
X125148572Y-119002718D01*
X125097627Y-118771456D01*
X125040716Y-118566578D01*
X124994207Y-118434441D01*
X124874077Y-118188900D01*
X124721995Y-117973412D01*
X124541023Y-117791431D01*
X124334226Y-117646412D01*
X124260485Y-117607081D01*
X124199505Y-117576553D01*
X124145826Y-117549841D01*
X124096033Y-117526678D01*
X124046714Y-117506798D01*
X123994454Y-117489934D01*
X123935841Y-117475821D01*
X123867459Y-117464192D01*
X123785895Y-117454781D01*
X123687736Y-117447321D01*
X123569568Y-117441547D01*
X123427977Y-117437191D01*
X123259550Y-117433988D01*
X123060872Y-117431672D01*
X122828529Y-117429976D01*
X122559109Y-117428634D01*
X122249197Y-117427379D01*
X121940766Y-117426138D01*
X120070360Y-117418280D01*
X120070360Y-117115236D01*
X122579870Y-117115236D01*
X122579146Y-116569945D01*
X122577200Y-116317080D01*
X122571457Y-116105428D01*
X122566756Y-116026549D01*
X121938690Y-116026549D01*
X121906640Y-116166233D01*
X121836928Y-116288590D01*
X121742824Y-116377638D01*
X121623652Y-116435262D01*
X121491354Y-116458857D01*
X121357873Y-116445814D01*
X121268497Y-116412663D01*
X121152332Y-116330123D01*
X121070902Y-116224155D01*
X121024225Y-116102875D01*
X121012322Y-115974400D01*
X121035213Y-115846846D01*
X121092916Y-115728331D01*
X121185452Y-115626970D01*
X121266482Y-115572946D01*
X121394863Y-115528898D01*
X121528822Y-115525794D01*
X121657915Y-115560722D01*
X121771699Y-115630771D01*
X121859733Y-115733030D01*
X121863538Y-115739391D01*
X121924365Y-115883393D01*
X121938690Y-116026549D01*
X122566756Y-116026549D01*
X122560964Y-115929380D01*
X122544765Y-115783328D01*
X122521908Y-115661666D01*
X122491437Y-115558783D01*
X122452399Y-115469074D01*
X122403840Y-115386929D01*
X122369709Y-115338901D01*
X122248459Y-115211782D01*
X122086804Y-115100157D01*
X121883995Y-115003769D01*
X121639281Y-114922361D01*
X121351913Y-114855676D01*
X121021143Y-114803456D01*
X120715327Y-114771106D01*
X120449714Y-114754168D01*
X120171620Y-114747136D01*
X119888516Y-114749485D01*
D12*
%TO.C,U12*%
G36*
X125425000Y-134050000D02*
G01*
X126875000Y-134050000D01*
X126875000Y-135950000D01*
X125750000Y-135950000D01*
X125425000Y-135625000D01*
X125425000Y-134050000D01*
G37*
X125425000Y-134050000D02*
X126875000Y-134050000D01*
X126875000Y-135950000D01*
X125750000Y-135950000D01*
X125425000Y-135625000D01*
X125425000Y-134050000D01*
%TD*%
D13*
%TO.C,U7*%
X147905000Y-116065000D03*
X146635000Y-116065000D03*
X145365000Y-116065000D03*
X144095000Y-116065000D03*
%TD*%
D14*
%TO.C,SW1*%
X151100000Y-121750000D03*
X151100000Y-128250000D03*
D15*
X151100000Y-124550000D03*
D14*
X140900000Y-121750000D03*
D15*
X140900000Y-124550000D03*
D14*
X140900000Y-128250000D03*
%TD*%
D16*
%TO.C,D18*%
X147500000Y-54200000D03*
X144500000Y-54200000D03*
D17*
X146000000Y-54200000D03*
%TD*%
D18*
%TO.C,J1*%
X152770000Y-64590000D03*
X150480000Y-64590000D03*
X141340000Y-64590000D03*
X139050000Y-64590000D03*
D19*
X137780000Y-58880000D03*
X154040000Y-58880000D03*
D20*
X152260000Y-55450000D03*
X139560000Y-55450000D03*
D18*
X149462000Y-59770000D03*
X147430000Y-59770000D03*
X145398000Y-59770000D03*
X143366000Y-59770000D03*
X148446000Y-57990000D03*
X146414000Y-57990000D03*
X144382000Y-57990000D03*
D21*
X142350000Y-57990000D03*
%TD*%
D22*
%TO.C,U6*%
X169000000Y-136050000D03*
X168300000Y-136050000D03*
X167600000Y-136050000D03*
X166900000Y-136050000D03*
X166200000Y-136050000D03*
X165500000Y-136050000D03*
X164800000Y-136050000D03*
X164100000Y-136050000D03*
X162700000Y-136050000D03*
X163400000Y-136050000D03*
X166200000Y-133950000D03*
X169000000Y-133950000D03*
X165500000Y-133950000D03*
X167600000Y-133950000D03*
X163400000Y-133950000D03*
X166900000Y-133950000D03*
X162700000Y-133950000D03*
X164100000Y-133950000D03*
X168300000Y-133950000D03*
X164800000Y-133950000D03*
%TD*%
D23*
%TO.C,J2*%
X119540000Y-74000000D03*
D24*
X117000000Y-74000000D03*
%TD*%
D25*
%TO.C,TB2*%
G36*
X167954580Y-125944053D02*
G01*
X167953335Y-125943678D01*
X167934377Y-125935149D01*
X167933397Y-125934565D01*
X167864869Y-125882326D01*
X167864617Y-125882121D01*
X167758974Y-125790147D01*
X167758875Y-125790059D01*
X167625312Y-125667396D01*
X167625255Y-125667342D01*
X167472968Y-125523038D01*
X167472926Y-125522999D01*
X167311110Y-125366099D01*
X167311074Y-125366063D01*
X167148925Y-125205615D01*
X167148887Y-125205577D01*
X166995599Y-125050626D01*
X166995553Y-125050579D01*
X166860323Y-124910174D01*
X166860252Y-124910099D01*
X166752274Y-124793285D01*
X166752136Y-124793129D01*
X166680606Y-124708953D01*
X166680146Y-124708316D01*
X166654259Y-124665826D01*
X166653834Y-124664943D01*
X166653589Y-124663994D01*
X166653533Y-124663016D01*
X166653612Y-124662317D01*
X166655105Y-124654233D01*
X166655494Y-124653021D01*
X166686304Y-124587218D01*
X166686503Y-124586835D01*
X166752322Y-124472989D01*
X166752407Y-124472848D01*
X166846873Y-124321242D01*
X166846929Y-124321155D01*
X166963683Y-124142073D01*
X166963729Y-124142004D01*
X167096410Y-123945729D01*
X167096431Y-123945697D01*
X167133642Y-123891558D01*
X167133643Y-123891558D01*
X167264304Y-123701054D01*
X167379386Y-123532648D01*
X167379385Y-123532648D01*
X167472200Y-123396166D01*
X167536018Y-123301497D01*
X167563813Y-123258983D01*
X167563848Y-123258891D01*
X167555801Y-123207873D01*
X167524213Y-123101622D01*
X167474282Y-122954483D01*
X167411239Y-122780151D01*
X167340198Y-122591944D01*
X167266307Y-122403287D01*
X167194778Y-122227749D01*
X167130700Y-122078593D01*
X167079331Y-121969462D01*
X167045983Y-121913929D01*
X167043292Y-121911151D01*
X167019909Y-121894070D01*
X166979845Y-121876593D01*
X166914653Y-121856936D01*
X166816294Y-121833389D01*
X166676808Y-121804193D01*
X166488106Y-121767533D01*
X166242011Y-121721577D01*
X165930486Y-121664515D01*
X165930473Y-121664513D01*
X165865857Y-121652502D01*
X165865788Y-121652488D01*
X165680682Y-121615361D01*
X165680563Y-121615336D01*
X165524855Y-121580159D01*
X165524669Y-121580113D01*
X165413113Y-121550379D01*
X165412564Y-121550198D01*
X165359918Y-121529400D01*
X165359046Y-121528953D01*
X165358278Y-121528343D01*
X165357644Y-121527596D01*
X165357296Y-121527013D01*
X165348489Y-121509661D01*
X165348134Y-121508748D01*
X165348024Y-121508266D01*
X165333339Y-121424915D01*
X165333281Y-121424467D01*
X165321644Y-121286288D01*
X165321632Y-121286106D01*
X165313053Y-121106047D01*
X165313049Y-121105941D01*
X165307534Y-120896947D01*
X165307532Y-120896869D01*
X165305093Y-120671889D01*
X165305093Y-120671821D01*
X165305736Y-120443800D01*
X165305737Y-120443728D01*
X165309473Y-120225614D01*
X165309475Y-120225525D01*
X165316312Y-120030263D01*
X165316319Y-120030127D01*
X165326266Y-119870666D01*
X165326290Y-119870391D01*
X165339356Y-119759675D01*
X165339574Y-119758693D01*
X165355767Y-119709672D01*
X165356165Y-119708776D01*
X165356729Y-119707974D01*
X165357439Y-119707298D01*
X165358509Y-119706660D01*
X165375042Y-119699417D01*
X165375711Y-119699179D01*
X165457958Y-119676351D01*
X165458164Y-119676299D01*
X165597188Y-119644011D01*
X165597277Y-119643991D01*
X165781984Y-119604650D01*
X165782043Y-119604638D01*
X166001338Y-119560651D01*
X166001386Y-119560641D01*
X166244174Y-119514414D01*
X166244193Y-119514411D01*
X166376759Y-119489714D01*
X166603946Y-119446891D01*
X166603946Y-119446890D01*
X166799518Y-119409387D01*
X166799518Y-119409388D01*
X166952925Y-119379262D01*
X167053751Y-119358544D01*
X167089793Y-119349703D01*
X167089876Y-119349592D01*
X167113768Y-119301396D01*
X167159733Y-119199504D01*
X167221825Y-119057833D01*
X167221824Y-119057833D01*
X167294320Y-118889847D01*
X167371431Y-118709169D01*
X167447414Y-118529312D01*
X167516519Y-118363807D01*
X167572992Y-118226194D01*
X167611033Y-118130131D01*
X167624359Y-118090770D01*
X167619067Y-118078303D01*
X167578249Y-118009544D01*
X167503881Y-117893295D01*
X167402039Y-117738862D01*
X167278752Y-117555452D01*
X167139988Y-117352171D01*
X167139989Y-117352171D01*
X167063860Y-117240847D01*
X167063839Y-117240817D01*
X166932456Y-117045637D01*
X166932426Y-117045592D01*
X166819781Y-116874297D01*
X166819741Y-116874235D01*
X166731841Y-116736166D01*
X166731768Y-116736048D01*
X166674622Y-116640546D01*
X166674384Y-116640097D01*
X166654000Y-116596506D01*
X166653674Y-116595582D01*
X166653534Y-116594611D01*
X166653586Y-116593633D01*
X166653829Y-116592683D01*
X166654240Y-116591819D01*
X166668404Y-116568173D01*
X166668862Y-116567529D01*
X166728109Y-116496876D01*
X166728240Y-116496726D01*
X166825437Y-116389799D01*
X166825496Y-116389736D01*
X166951722Y-116255596D01*
X166951758Y-116255558D01*
X167098090Y-116103266D01*
X167098117Y-116103238D01*
X167255633Y-115941855D01*
X167255658Y-115941830D01*
X167415435Y-115780417D01*
X167415461Y-115780390D01*
X167568578Y-115628006D01*
X167568612Y-115627973D01*
X167706146Y-115493680D01*
X167706199Y-115493628D01*
X167819228Y-115386486D01*
X167819342Y-115386382D01*
X167898943Y-115315453D01*
X167899433Y-115315068D01*
X167936684Y-115289411D01*
X167937542Y-115288937D01*
X167938476Y-115288639D01*
X167939450Y-115288529D01*
X167940426Y-115288612D01*
X167941693Y-115289026D01*
X167962371Y-115299002D01*
X167962800Y-115299235D01*
X168038728Y-115345500D01*
X168038829Y-115345564D01*
X168161360Y-115424301D01*
X168161405Y-115424330D01*
X168321705Y-115529768D01*
X168321734Y-115529787D01*
X168510975Y-115656158D01*
X168510998Y-115656174D01*
X168720347Y-115797707D01*
X168720359Y-115797714D01*
X169465669Y-116304518D01*
X170086298Y-116048675D01*
X170706913Y-115792837D01*
X170875284Y-114899714D01*
X171044158Y-114003927D01*
X171044433Y-114002986D01*
X171044886Y-114002117D01*
X171045500Y-114001353D01*
X171046252Y-114000724D01*
X171047111Y-114000253D01*
X171048046Y-113999959D01*
X171049071Y-113999853D01*
X172913576Y-113999853D01*
X172914551Y-113999949D01*
X172915489Y-114000234D01*
X172916354Y-114000696D01*
X172917112Y-114001317D01*
X172917733Y-114002075D01*
X172918195Y-114002940D01*
X172918489Y-114003927D01*
X173255735Y-115792837D01*
X173876350Y-116048675D01*
X174496979Y-116304518D01*
X175242288Y-115797714D01*
X175242296Y-115797709D01*
X175390250Y-115697498D01*
X175390269Y-115697485D01*
X175586410Y-115565947D01*
X175586436Y-115565930D01*
X175756252Y-115453583D01*
X175756289Y-115453559D01*
X175890961Y-115366169D01*
X175891034Y-115366122D01*
X175981741Y-115309458D01*
X175982042Y-115309284D01*
X176019967Y-115289114D01*
X176020874Y-115288741D01*
X176021835Y-115288552D01*
X176022815Y-115288554D01*
X176023776Y-115288747D01*
X176024937Y-115289272D01*
X176048229Y-115303616D01*
X176048874Y-115304088D01*
X176118497Y-115364192D01*
X176118647Y-115364327D01*
X176224011Y-115462963D01*
X176224074Y-115463023D01*
X176356251Y-115591134D01*
X176356288Y-115591170D01*
X176506350Y-115739700D01*
X176506378Y-115739728D01*
X176665397Y-115899620D01*
X176665422Y-115899645D01*
X176824471Y-116061841D01*
X176824497Y-116061868D01*
X176974648Y-116217311D01*
X176974681Y-116217346D01*
X177107006Y-116356980D01*
X177107057Y-116357034D01*
X177212628Y-116471801D01*
X177212731Y-116471916D01*
X177282620Y-116552760D01*
X177282995Y-116553254D01*
X177308276Y-116591117D01*
X177308738Y-116591981D01*
X177309022Y-116592919D01*
X177309118Y-116593895D01*
X177309022Y-116594870D01*
X177308820Y-116595593D01*
X177302939Y-116611860D01*
X177302597Y-116612607D01*
X177261877Y-116685171D01*
X177261761Y-116685367D01*
X177187402Y-116804789D01*
X177187351Y-116804870D01*
X177085381Y-116961787D01*
X177085346Y-116961839D01*
X176961794Y-117146892D01*
X176961766Y-117146935D01*
X176822659Y-117350760D01*
X176822651Y-117350771D01*
X176746311Y-117461935D01*
X176615004Y-117655442D01*
X176502471Y-117824259D01*
X176414640Y-117959333D01*
X176357671Y-118051256D01*
X176338124Y-118089680D01*
X176338149Y-118089845D01*
X176355922Y-118140053D01*
X176397119Y-118243640D01*
X176455835Y-118386607D01*
X176526324Y-118555413D01*
X176602833Y-118736501D01*
X176602832Y-118736501D01*
X176679603Y-118916303D01*
X176750911Y-119081332D01*
X176810983Y-119217981D01*
X176854015Y-119312587D01*
X176873366Y-119349923D01*
X176883198Y-119352768D01*
X176956352Y-119368476D01*
X177086928Y-119394537D01*
X177264499Y-119428916D01*
X177478474Y-119469550D01*
X177718457Y-119514411D01*
X177718462Y-119514412D01*
X177844945Y-119538197D01*
X177844980Y-119538204D01*
X178077133Y-119583586D01*
X178077185Y-119583596D01*
X178280167Y-119625506D01*
X178280237Y-119625521D01*
X178442954Y-119661554D01*
X178443082Y-119661584D01*
X178554439Y-119689332D01*
X178554877Y-119689463D01*
X178603779Y-119706519D01*
X178604668Y-119706931D01*
X178605460Y-119707508D01*
X178606124Y-119708229D01*
X178606569Y-119708935D01*
X178615353Y-119725843D01*
X178615717Y-119726753D01*
X178615840Y-119727280D01*
X178630411Y-119809894D01*
X178630470Y-119810347D01*
X178641918Y-119947943D01*
X178641930Y-119948126D01*
X178650264Y-120127759D01*
X178650267Y-120127866D01*
X178655496Y-120336589D01*
X178655498Y-120336667D01*
X178657630Y-120561532D01*
X178657630Y-120561600D01*
X178656674Y-120789661D01*
X178656673Y-120789732D01*
X178652639Y-121008042D01*
X178652637Y-121008131D01*
X178645533Y-121203744D01*
X178645526Y-121203880D01*
X178635360Y-121363849D01*
X178635335Y-121364121D01*
X178622118Y-121475499D01*
X178621906Y-121476461D01*
X178605645Y-121526301D01*
X178605252Y-121527198D01*
X178604690Y-121528002D01*
X178603983Y-121528680D01*
X178603367Y-121529094D01*
X178593499Y-121534716D01*
X178592581Y-121535123D01*
X178518989Y-121559236D01*
X178518644Y-121559336D01*
X178390981Y-121591240D01*
X178390828Y-121591275D01*
X178223853Y-121627477D01*
X178223743Y-121627500D01*
X178032209Y-121664506D01*
X178032157Y-121664516D01*
X177967538Y-121676300D01*
X177669061Y-121731113D01*
X177434505Y-121775161D01*
X177255801Y-121810258D01*
X177124718Y-121838249D01*
X177033311Y-121860913D01*
X176973494Y-121880035D01*
X176937297Y-121897275D01*
X176916182Y-121914452D01*
X176914229Y-121916746D01*
X176878698Y-121978592D01*
X176825756Y-122092540D01*
X176760636Y-122245134D01*
X176688629Y-122422645D01*
X176614795Y-122611883D01*
X176544368Y-122799218D01*
X176482430Y-122971405D01*
X176434182Y-123114884D01*
X176404820Y-123216037D01*
X176399520Y-123260113D01*
X176402268Y-123264547D01*
X176440700Y-123322494D01*
X176513012Y-123429428D01*
X176612526Y-123575538D01*
X176732495Y-123750910D01*
X176866218Y-123945699D01*
X176866221Y-123945704D01*
X176902922Y-123999299D01*
X176902948Y-123999337D01*
X177032005Y-124191580D01*
X177032049Y-124191646D01*
X177143582Y-124363574D01*
X177143637Y-124363661D01*
X177231281Y-124505079D01*
X177231375Y-124505238D01*
X177288764Y-124605950D01*
X177289035Y-124606501D01*
X177309803Y-124656310D01*
X177310090Y-124657247D01*
X177310188Y-124658222D01*
X177310094Y-124659198D01*
X177309919Y-124659851D01*
X177305444Y-124672946D01*
X177305038Y-124673838D01*
X177304765Y-124674258D01*
X177258117Y-124738785D01*
X177257831Y-124739145D01*
X177165798Y-124844516D01*
X177165674Y-124844652D01*
X177034847Y-124983776D01*
X177034770Y-124983857D01*
X176871737Y-125149641D01*
X176871676Y-125149702D01*
X176683030Y-125335055D01*
X176682993Y-125335091D01*
X176575166Y-125438838D01*
X176575138Y-125438864D01*
X176404648Y-125600447D01*
X176404609Y-125600484D01*
X176255385Y-125738886D01*
X176255330Y-125738937D01*
X176135387Y-125846871D01*
X176135278Y-125846965D01*
X176052627Y-125917145D01*
X176052183Y-125917482D01*
X176014838Y-125942621D01*
X176013975Y-125943086D01*
X176013038Y-125943374D01*
X176012063Y-125943473D01*
X176011087Y-125943380D01*
X176010339Y-125943173D01*
X175984681Y-125933854D01*
X175983951Y-125933520D01*
X175904956Y-125889437D01*
X175904733Y-125889304D01*
X175790013Y-125817209D01*
X175789886Y-125817127D01*
X175654406Y-125726152D01*
X175654356Y-125726118D01*
X175558040Y-125659736D01*
X175365739Y-125527903D01*
X175160532Y-125387891D01*
X174973096Y-125260661D01*
X174608415Y-125013995D01*
X174302852Y-125179211D01*
X174302815Y-125179231D01*
X174230236Y-125217698D01*
X174230126Y-125217755D01*
X174098136Y-125283552D01*
X174097938Y-125283645D01*
X173995867Y-125329072D01*
X173995317Y-125329279D01*
X173940766Y-125346216D01*
X173939806Y-125346414D01*
X173938825Y-125346420D01*
X173937863Y-125346235D01*
X173936955Y-125345866D01*
X173936136Y-125345327D01*
X173935418Y-125344613D01*
X173917566Y-125322862D01*
X173917023Y-125322050D01*
X173872691Y-125239231D01*
X173872591Y-125239033D01*
X173807113Y-125102488D01*
X173807073Y-125102404D01*
X173724090Y-124920799D01*
X173724069Y-124920751D01*
X173627225Y-124702751D01*
X173627210Y-124702718D01*
X173520149Y-124456990D01*
X173520138Y-124456965D01*
X173406502Y-124192173D01*
X173406493Y-124192151D01*
X173289928Y-123916962D01*
X173289919Y-123916942D01*
X173174066Y-123640020D01*
X173174058Y-123639998D01*
X173062562Y-123370009D01*
X173062552Y-123369985D01*
X172959055Y-123115594D01*
X172959042Y-123115564D01*
X172867190Y-122885438D01*
X172867173Y-122885394D01*
X172790606Y-122688198D01*
X172790578Y-122688125D01*
X172732942Y-122532523D01*
X172732887Y-122532365D01*
X172697825Y-122427025D01*
X172697657Y-122426382D01*
X172688812Y-122379967D01*
X172688724Y-122378991D01*
X172688828Y-122378016D01*
X172689150Y-122377011D01*
X172689749Y-122375655D01*
X172690231Y-122374801D01*
X172690716Y-122374212D01*
X172731915Y-122331305D01*
X172732447Y-122330825D01*
X172818623Y-122263625D01*
X172818875Y-122263441D01*
X172932235Y-122185881D01*
X172932298Y-122185839D01*
X172967864Y-122162299D01*
X173239567Y-121938078D01*
X173464320Y-121671149D01*
X173636939Y-121372513D01*
X173752085Y-121053327D01*
X173804451Y-120724733D01*
X173788745Y-120397737D01*
X173725113Y-120106848D01*
X173610871Y-119813136D01*
X173444365Y-119551164D01*
X173215650Y-119302076D01*
X173126041Y-119222731D01*
X172835594Y-119026728D01*
X172521995Y-118894791D01*
X172194180Y-118825640D01*
X171861214Y-118818092D01*
X171532199Y-118870977D01*
X171216244Y-118983108D01*
X170922423Y-119153309D01*
X170659831Y-119380396D01*
X170437424Y-119663355D01*
X170394887Y-119733062D01*
X170249566Y-120053301D01*
X170172434Y-120386574D01*
X170161383Y-120724451D01*
X170214396Y-121058315D01*
X170329464Y-121379530D01*
X170504572Y-121679465D01*
X170737719Y-121949490D01*
X171027071Y-122181106D01*
X171036299Y-122187235D01*
X171036413Y-122187313D01*
X171148572Y-122266351D01*
X171148814Y-122266532D01*
X171232877Y-122333730D01*
X171233421Y-122334236D01*
X171271815Y-122375631D01*
X171272408Y-122376411D01*
X171272837Y-122377293D01*
X171273086Y-122378241D01*
X171273145Y-122379219D01*
X171273094Y-122379769D01*
X171268250Y-122412223D01*
X171268069Y-122413004D01*
X171237948Y-122507499D01*
X171237881Y-122507693D01*
X171184472Y-122654152D01*
X171184441Y-122654235D01*
X171111386Y-122843991D01*
X171111367Y-122844040D01*
X171022308Y-123068425D01*
X171022295Y-123068457D01*
X170920874Y-123318804D01*
X170920864Y-123318830D01*
X170810723Y-123586471D01*
X170810714Y-123586493D01*
X170695495Y-123862761D01*
X170695486Y-123862781D01*
X170578831Y-124139008D01*
X170578822Y-124139030D01*
X170464373Y-124406548D01*
X170464362Y-124406572D01*
X170355762Y-124656715D01*
X170355749Y-124656746D01*
X170256638Y-124880846D01*
X170256618Y-124880891D01*
X170170640Y-125070280D01*
X170170605Y-125070354D01*
X170101400Y-125216365D01*
X170101320Y-125216528D01*
X170052532Y-125310493D01*
X170052106Y-125311173D01*
X170027376Y-125344425D01*
X170026717Y-125345150D01*
X170025929Y-125345733D01*
X170025042Y-125346151D01*
X170024091Y-125346388D01*
X170023112Y-125346435D01*
X170022294Y-125346325D01*
X170001728Y-125341821D01*
X170000939Y-125341578D01*
X169920145Y-125309212D01*
X169919858Y-125309087D01*
X169800450Y-125252338D01*
X169800289Y-125252258D01*
X169659867Y-125179249D01*
X169659796Y-125179211D01*
X169354232Y-125013995D01*
X168989556Y-125260658D01*
X168881073Y-125334202D01*
X168679302Y-125471609D01*
X168478145Y-125609237D01*
X168308288Y-125726120D01*
X168308264Y-125726137D01*
X168214515Y-125789840D01*
X168214429Y-125789897D01*
X168092582Y-125869042D01*
X168092430Y-125869137D01*
X168002085Y-125923317D01*
X168001585Y-125923580D01*
X167957458Y-125943669D01*
X167956530Y-125943985D01*
X167955559Y-125944115D01*
X167954580Y-125944053D01*
G37*
%TD*%
D26*
%TO.C,U12*%
X127300000Y-135000000D03*
X127300000Y-135800000D03*
X127300000Y-134200000D03*
X125000000Y-134200000D03*
X125000000Y-135000000D03*
X125000000Y-135800000D03*
%TD*%
D27*
%TO.C,SW2*%
X112670000Y-131500000D03*
X112670000Y-128500000D03*
%TD*%
M02*
