%FSLAX45Y45*%
G04 Gerber Fmt 4.5, Leading zero omitted, Abs format (unit mm)*
G04 Created by KiCad (PCBNEW 5.1.10) date 2021-11-19 17:21:24*
%MOMM*%
%LPD*%
G01*
G04 APERTURE LIST*
%TA.AperFunction,Profile*%
%ADD10C,0.100000*%
%TD*%
%ADD11C,0.200000*%
%ADD12C,0.300000*%
G04 APERTURE END LIST*
D10*
X13300000Y-7600000D02*
G75*
G02*
X13300000Y-7400000I0J100000D01*
G01*
X15900000Y-7400000D02*
G75*
G02*
X15900000Y-7600000I0J-100000D01*
G01*
X13300000Y-7400000D02*
X15900000Y-7400000D01*
X15900000Y-7600000D02*
X13300000Y-7600000D01*
X12680000Y-5000000D02*
X11000000Y-6800000D01*
X16770000Y-5000000D02*
X18200000Y-6800000D01*
X11000000Y-15000000D02*
X18200000Y-15000000D01*
X12680000Y-5000000D02*
X16770000Y-5000000D01*
X11000000Y-15000000D02*
X11000000Y-6800000D01*
X18200000Y-6800000D02*
X18200000Y-15000000D01*
D11*
X11210000Y-11730000D02*
X11250000Y-11770000D01*
X11250000Y-11730000D02*
X11210000Y-11770000D01*
X11224000Y-9705000D02*
X11264000Y-9745000D01*
X11264000Y-9705000D02*
X11224000Y-9745000D01*
X11320000Y-10355000D02*
X11360000Y-10395000D01*
X11360000Y-10355000D02*
X11320000Y-10395000D01*
X11320000Y-12265000D02*
X11360000Y-12305000D01*
X11360000Y-12265000D02*
X11320000Y-12305000D01*
X11320000Y-8335000D02*
X11360000Y-8375000D01*
X11360000Y-8335000D02*
X11320000Y-8375000D01*
X11490000Y-13960000D02*
X11530000Y-14000000D01*
X11530000Y-13960000D02*
X11490000Y-14000000D01*
X11725000Y-11350000D02*
X11765000Y-11390000D01*
X11765000Y-11350000D02*
X11725000Y-11390000D01*
X11840000Y-6200000D02*
X11880000Y-6240000D01*
X11880000Y-6200000D02*
X11840000Y-6240000D01*
X12050000Y-12625000D02*
X12090000Y-12665000D01*
X12090000Y-12625000D02*
X12050000Y-12665000D01*
X12110001Y-6300000D02*
X12150001Y-6340000D01*
X12150001Y-6300000D02*
X12110001Y-6340000D01*
X12320000Y-14030000D02*
X12360000Y-14070000D01*
X12360000Y-14030000D02*
X12320000Y-14070000D01*
X12364999Y-5785000D02*
X12404999Y-5825000D01*
X12404999Y-5785000D02*
X12364999Y-5825000D01*
X12380000Y-13390000D02*
X12420000Y-13430000D01*
X12420000Y-13390000D02*
X12380000Y-13430000D01*
X12380000Y-14540000D02*
X12420000Y-14580000D01*
X12420000Y-14540000D02*
X12380000Y-14580000D01*
X12420000Y-13660000D02*
X12460000Y-13700000D01*
X12460000Y-13660000D02*
X12420000Y-13700000D01*
X12500000Y-7100000D02*
X12540000Y-7140000D01*
X12540000Y-7100000D02*
X12500000Y-7140000D01*
X12540000Y-13220000D02*
X12580000Y-13260000D01*
X12580000Y-13220000D02*
X12540000Y-13260000D01*
X12660000Y-12120000D02*
X12700000Y-12160000D01*
X12700000Y-12120000D02*
X12660000Y-12160000D01*
X12730000Y-14140000D02*
X12770000Y-14180000D01*
X12770000Y-14140000D02*
X12730000Y-14180000D01*
X12800000Y-13740000D02*
X12840000Y-13780000D01*
X12840000Y-13740000D02*
X12800000Y-13780000D01*
X12810000Y-13570000D02*
X12850000Y-13610000D01*
X12850000Y-13570000D02*
X12810000Y-13610000D01*
X12820000Y-12420000D02*
X12860000Y-12460000D01*
X12860000Y-12420000D02*
X12820000Y-12460000D01*
X12860000Y-7920000D02*
X12900000Y-7960000D01*
X12900000Y-7920000D02*
X12860000Y-7960000D01*
X12880000Y-7720000D02*
X12920000Y-7760000D01*
X12920000Y-7720000D02*
X12880000Y-7760000D01*
X12900000Y-13914800D02*
X12940000Y-13954800D01*
X12940000Y-13914800D02*
X12900000Y-13954800D01*
X13001081Y-13559786D02*
X13041081Y-13599786D01*
X13041081Y-13559786D02*
X13001081Y-13599786D01*
X13005000Y-11290000D02*
X13045000Y-11330000D01*
X13045000Y-11290000D02*
X13005000Y-11330000D01*
X13050000Y-10895000D02*
X13090000Y-10935000D01*
X13090000Y-10895000D02*
X13050000Y-10935000D01*
X13060000Y-13310000D02*
X13100000Y-13350000D01*
X13100000Y-13310000D02*
X13060000Y-13350000D01*
X13080000Y-12034800D02*
X13120000Y-12074800D01*
X13120000Y-12034800D02*
X13080000Y-12074800D01*
X13080000Y-12220000D02*
X13120000Y-12260000D01*
X13120000Y-12220000D02*
X13080000Y-12260000D01*
X13100001Y-13460000D02*
X13140001Y-13500000D01*
X13140001Y-13460000D02*
X13100001Y-13500000D01*
X13155000Y-13935000D02*
X13195000Y-13975000D01*
X13195000Y-13935000D02*
X13155000Y-13975000D01*
X13160000Y-12280000D02*
X13200000Y-12320000D01*
X13200000Y-12280000D02*
X13160000Y-12320000D01*
X13220000Y-12700000D02*
X13260000Y-12740000D01*
X13260000Y-12700000D02*
X13220000Y-12740000D01*
X13340000Y-5610000D02*
X13380000Y-5650000D01*
X13380000Y-5610000D02*
X13340000Y-5650000D01*
X13400000Y-10975000D02*
X13440000Y-11015000D01*
X13440000Y-10975000D02*
X13400000Y-11015000D01*
X13525000Y-10740000D02*
X13565000Y-10780000D01*
X13565000Y-10740000D02*
X13525000Y-10780000D01*
X13540000Y-12440000D02*
X13580000Y-12480000D01*
X13580000Y-12440000D02*
X13540000Y-12480000D01*
X13560000Y-13660000D02*
X13600000Y-13700000D01*
X13600000Y-13660000D02*
X13560000Y-13700000D01*
X13560000Y-13460000D02*
X13600000Y-13500000D01*
X13600000Y-13460000D02*
X13560000Y-13500000D01*
X13620000Y-12060000D02*
X13660000Y-12100000D01*
X13660000Y-12060000D02*
X13620000Y-12100000D01*
X13640000Y-12379999D02*
X13680000Y-12419999D01*
X13680000Y-12379999D02*
X13640000Y-12419999D01*
X13760000Y-12440000D02*
X13800000Y-12480000D01*
X13800000Y-12440000D02*
X13760000Y-12480000D01*
X13871899Y-12760000D02*
X13911899Y-12800000D01*
X13911899Y-12760000D02*
X13871899Y-12800000D01*
X13900000Y-12380000D02*
X13940000Y-12420000D01*
X13940000Y-12380000D02*
X13900000Y-12420000D01*
X13900000Y-12980000D02*
X13940000Y-13020000D01*
X13940000Y-12980000D02*
X13900000Y-13020000D01*
X13914800Y-13280000D02*
X13954800Y-13320000D01*
X13954800Y-13280000D02*
X13914800Y-13320000D01*
X13940000Y-13380000D02*
X13980000Y-13420000D01*
X13980000Y-13380000D02*
X13940000Y-13420000D01*
X13980000Y-12280000D02*
X14020000Y-12320000D01*
X14020000Y-12280000D02*
X13980000Y-12320000D01*
X14060000Y-13240000D02*
X14100000Y-13280000D01*
X14100000Y-13240000D02*
X14060000Y-13280000D01*
X14080000Y-13920000D02*
X14120000Y-13960000D01*
X14120000Y-13920000D02*
X14080000Y-13960000D01*
X14100000Y-13700000D02*
X14140000Y-13740000D01*
X14140000Y-13700000D02*
X14100000Y-13740000D01*
X14180000Y-12960000D02*
X14220000Y-13000000D01*
X14220000Y-12960000D02*
X14180000Y-13000000D01*
X14195000Y-12240000D02*
X14235000Y-12280000D01*
X14235000Y-12240000D02*
X14195000Y-12280000D01*
X14220000Y-12640000D02*
X14260000Y-12680000D01*
X14260000Y-12640000D02*
X14220000Y-12680000D01*
X14240000Y-12760000D02*
X14280000Y-12800000D01*
X14280000Y-12760000D02*
X14240000Y-12800000D01*
X14260000Y-6970000D02*
X14300000Y-7010000D01*
X14300000Y-6970000D02*
X14260000Y-7010000D01*
X14274000Y-14128000D02*
X14314000Y-14168000D01*
X14314000Y-14128000D02*
X14274000Y-14168000D01*
X14350000Y-13230000D02*
X14390000Y-13270000D01*
X14390000Y-13230000D02*
X14350000Y-13270000D01*
X14360000Y-13820000D02*
X14400000Y-13860000D01*
X14400000Y-13820000D02*
X14360000Y-13860000D01*
X14390000Y-9094800D02*
X14430000Y-9134800D01*
X14430000Y-9094800D02*
X14390000Y-9134800D01*
X14393178Y-9914615D02*
X14433178Y-9954615D01*
X14433178Y-9914615D02*
X14393178Y-9954615D01*
X14438550Y-10140000D02*
X14478550Y-10180000D01*
X14478550Y-10140000D02*
X14438550Y-10180000D01*
X14440000Y-12880000D02*
X14480000Y-12920000D01*
X14480000Y-12880000D02*
X14440000Y-12920000D01*
X14460000Y-12250000D02*
X14500000Y-12290000D01*
X14500000Y-12250000D02*
X14460000Y-12290000D01*
X14465000Y-5635000D02*
X14505000Y-5675000D01*
X14505000Y-5635000D02*
X14465000Y-5675000D01*
X14490000Y-8935000D02*
X14530000Y-8975000D01*
X14530000Y-8935000D02*
X14490000Y-8975000D01*
X14500000Y-12680000D02*
X14540000Y-12720000D01*
X14540000Y-12680000D02*
X14500000Y-12720000D01*
X14555549Y-8869451D02*
X14595549Y-8909451D01*
X14595549Y-8869451D02*
X14555549Y-8909451D01*
X14650000Y-11980000D02*
X14690000Y-12020000D01*
X14690000Y-11980000D02*
X14650000Y-12020000D01*
X14652500Y-8147500D02*
X14692500Y-8187500D01*
X14692500Y-8147500D02*
X14652500Y-8187500D01*
X14680000Y-12230000D02*
X14720000Y-12270000D01*
X14720000Y-12230000D02*
X14680000Y-12270000D01*
X14700000Y-12920000D02*
X14740000Y-12960000D01*
X14740000Y-12920000D02*
X14700000Y-12960000D01*
X14705000Y-10704000D02*
X14745000Y-10744000D01*
X14745000Y-10704000D02*
X14705000Y-10744000D01*
X14717500Y-9082500D02*
X14757500Y-9122500D01*
X14757500Y-9082500D02*
X14717500Y-9122500D01*
X14820000Y-12620000D02*
X14860000Y-12660000D01*
X14860000Y-12620000D02*
X14820000Y-12660000D01*
X14865000Y-9585000D02*
X14905000Y-9625000D01*
X14905000Y-9585000D02*
X14865000Y-9625000D01*
X14890000Y-7110000D02*
X14930000Y-7150000D01*
X14930000Y-7110000D02*
X14890000Y-7150000D01*
X14894799Y-13820000D02*
X14934799Y-13860000D01*
X14934799Y-13820000D02*
X14894799Y-13860000D01*
X14920000Y-12800000D02*
X14960000Y-12840000D01*
X14960000Y-12800000D02*
X14920000Y-12840000D01*
X14925000Y-10280000D02*
X14965000Y-10320000D01*
X14965000Y-10280000D02*
X14925000Y-10320000D01*
X14942131Y-9519800D02*
X14982131Y-9559800D01*
X14982131Y-9519800D02*
X14942131Y-9559800D01*
X14960000Y-12685201D02*
X15000000Y-12725201D01*
X15000000Y-12685201D02*
X14960000Y-12725201D01*
X14978500Y-14078500D02*
X15018500Y-14118500D01*
X15018500Y-14078500D02*
X14978500Y-14118500D01*
X15080000Y-12010000D02*
X15120000Y-12050000D01*
X15120000Y-12010000D02*
X15080000Y-12050000D01*
X15090000Y-9735000D02*
X15130000Y-9775000D01*
X15130000Y-9735000D02*
X15090000Y-9775000D01*
X15140000Y-13220000D02*
X15180000Y-13260000D01*
X15180000Y-13220000D02*
X15140000Y-13260000D01*
X15140000Y-13720000D02*
X15180000Y-13760000D01*
X15180000Y-13720000D02*
X15140000Y-13760000D01*
X15160000Y-11840000D02*
X15200000Y-11880000D01*
X15200000Y-11840000D02*
X15160000Y-11880000D01*
X15160000Y-14200000D02*
X15200000Y-14240000D01*
X15200000Y-14200000D02*
X15160000Y-14240000D01*
X15170009Y-11937823D02*
X15210009Y-11977823D01*
X15210009Y-11937823D02*
X15170009Y-11977823D01*
X15200000Y-6085200D02*
X15240000Y-6125200D01*
X15240000Y-6085200D02*
X15200000Y-6125200D01*
X15200000Y-7040000D02*
X15240000Y-7080000D01*
X15240000Y-7040000D02*
X15200000Y-7080000D01*
X15215000Y-10535000D02*
X15255000Y-10575000D01*
X15255000Y-10535000D02*
X15215000Y-10575000D01*
X15215000Y-11535000D02*
X15255000Y-11575000D01*
X15255000Y-11535000D02*
X15215000Y-11575000D01*
X15240000Y-13590000D02*
X15280000Y-13630000D01*
X15280000Y-13590000D02*
X15240000Y-13630000D01*
X15260000Y-12940000D02*
X15300000Y-12980000D01*
X15300000Y-12940000D02*
X15260000Y-12980000D01*
X15260000Y-13220000D02*
X15300000Y-13260000D01*
X15300000Y-13220000D02*
X15260000Y-13260000D01*
X15280000Y-12760000D02*
X15320000Y-12800000D01*
X15320000Y-12760000D02*
X15280000Y-12800000D01*
X15533075Y-12189566D02*
X15573075Y-12229566D01*
X15573075Y-12189566D02*
X15533075Y-12229566D01*
X15640000Y-12100000D02*
X15680000Y-12140000D01*
X15680000Y-12100000D02*
X15640000Y-12140000D01*
X15640000Y-13400000D02*
X15680000Y-13440000D01*
X15680000Y-13400000D02*
X15640000Y-13440000D01*
X15680000Y-12780000D02*
X15720000Y-12820000D01*
X15720000Y-12780000D02*
X15680000Y-12820000D01*
X15720000Y-13140000D02*
X15760000Y-13180000D01*
X15760000Y-13140000D02*
X15720000Y-13180000D01*
X15740000Y-12680000D02*
X15780000Y-12720000D01*
X15780000Y-12680000D02*
X15740000Y-12720000D01*
X15740000Y-13940000D02*
X15780000Y-13980000D01*
X15780000Y-13940000D02*
X15740000Y-13980000D01*
X15780000Y-11900000D02*
X15820000Y-11940000D01*
X15820000Y-11900000D02*
X15780000Y-11940000D01*
X15800000Y-12440000D02*
X15840000Y-12480000D01*
X15840000Y-12440000D02*
X15800000Y-12480000D01*
X15810000Y-12910000D02*
X15850000Y-12950000D01*
X15850000Y-12910000D02*
X15810000Y-12950000D01*
X15840000Y-13700000D02*
X15880000Y-13740000D01*
X15880000Y-13700000D02*
X15840000Y-13740000D01*
X15881414Y-13085029D02*
X15921414Y-13125029D01*
X15921414Y-13085029D02*
X15881414Y-13125029D01*
X15963392Y-13356568D02*
X16003392Y-13396568D01*
X16003392Y-13356568D02*
X15963392Y-13396568D01*
X16020000Y-11980001D02*
X16060000Y-12020001D01*
X16060000Y-11980001D02*
X16020000Y-12020001D01*
X16028593Y-13140000D02*
X16068593Y-13180000D01*
X16068593Y-13140000D02*
X16028593Y-13180000D01*
X16090000Y-13480000D02*
X16130000Y-13520000D01*
X16130000Y-13480000D02*
X16090000Y-13520000D01*
X16120000Y-12440000D02*
X16160000Y-12480000D01*
X16160000Y-12440000D02*
X16120000Y-12480000D01*
X16180000Y-12760000D02*
X16220000Y-12800000D01*
X16220000Y-12760000D02*
X16180000Y-12800000D01*
X16200000Y-12560000D02*
X16240000Y-12600000D01*
X16240000Y-12560000D02*
X16200000Y-12600000D01*
X16265000Y-13794799D02*
X16305000Y-13834799D01*
X16305000Y-13794799D02*
X16265000Y-13834799D01*
X16340000Y-12760000D02*
X16380000Y-12800000D01*
X16380000Y-12760000D02*
X16340000Y-12800000D01*
X16340000Y-13860000D02*
X16380000Y-13900000D01*
X16380000Y-13860000D02*
X16340000Y-13900000D01*
X16370000Y-13480000D02*
X16410000Y-13520000D01*
X16410000Y-13480000D02*
X16370000Y-13520000D01*
X16480000Y-12660000D02*
X16520000Y-12700000D01*
X16520000Y-12660000D02*
X16480000Y-12700000D01*
X16540000Y-13900000D02*
X16580000Y-13940000D01*
X16580000Y-13900000D02*
X16540000Y-13940000D01*
X16820000Y-13820000D02*
X16860000Y-13860000D01*
X16860000Y-13820000D02*
X16820000Y-13860000D01*
X16880000Y-12780000D02*
X16920000Y-12820000D01*
X16920000Y-12780000D02*
X16880000Y-12820000D01*
X16920000Y-14620000D02*
X16960000Y-14660000D01*
X16960000Y-14620000D02*
X16920000Y-14660000D01*
X16960000Y-12900000D02*
X17000000Y-12940000D01*
X17000000Y-12900000D02*
X16960000Y-12940000D01*
X17020000Y-13820000D02*
X17060000Y-13860000D01*
X17060000Y-13820000D02*
X17020000Y-13860000D01*
X17045000Y-6346000D02*
X17085000Y-6386000D01*
X17085000Y-6346000D02*
X17045000Y-6386000D01*
X17140000Y-6579999D02*
X17180000Y-6619999D01*
X17180000Y-6579999D02*
X17140000Y-6619999D01*
X17230000Y-12900000D02*
X17270000Y-12940000D01*
X17270000Y-12900000D02*
X17230000Y-12940000D01*
X17240000Y-14620000D02*
X17280000Y-14660000D01*
X17280000Y-14620000D02*
X17240000Y-14660000D01*
X17260000Y-6240000D02*
X17300000Y-6280000D01*
X17300000Y-6240000D02*
X17260000Y-6280000D01*
X17620000Y-14460000D02*
X17660000Y-14500000D01*
X17660000Y-14460000D02*
X17620000Y-14500000D01*
X17840000Y-8340000D02*
X17880000Y-8380000D01*
X17880000Y-8340000D02*
X17840000Y-8380000D01*
X17840000Y-9680000D02*
X17880000Y-9720000D01*
X17880000Y-9680000D02*
X17840000Y-9720000D01*
X17840000Y-11100000D02*
X17880000Y-11140000D01*
X17880000Y-11100000D02*
X17840000Y-11140000D01*
X17872700Y-13940000D02*
X17912700Y-13980000D01*
X17912700Y-13940000D02*
X17872700Y-13980000D01*
X17930000Y-7480000D02*
X17970000Y-7520000D01*
X17970000Y-7480000D02*
X17930000Y-7520000D01*
X17930000Y-13700000D02*
X17970000Y-13740000D01*
X17970000Y-13700000D02*
X17930000Y-13740000D01*
X17960000Y-10240000D02*
X18000000Y-10280000D01*
X18000000Y-10240000D02*
X17960000Y-10280000D01*
X17960000Y-12260000D02*
X18000000Y-12300000D01*
X18000000Y-12260000D02*
X17960000Y-12300000D01*
X13949500Y-6459000D02*
G75*
G03*
X13949500Y-6459000I-44500J0D01*
G01*
X14178500Y-6459000D02*
G75*
G03*
X14178500Y-6459000I-44500J0D01*
G01*
X14279500Y-5799000D02*
G75*
G03*
X14279500Y-5799000I-44500J0D01*
G01*
X14381100Y-5977000D02*
G75*
G03*
X14381100Y-5977000I-44500J0D01*
G01*
X14482700Y-5799000D02*
G75*
G03*
X14482700Y-5799000I-44500J0D01*
G01*
X14584300Y-5977000D02*
G75*
G03*
X14584300Y-5977000I-44500J0D01*
G01*
X14685900Y-5799000D02*
G75*
G03*
X14685900Y-5799000I-44500J0D01*
G01*
X14787500Y-5977000D02*
G75*
G03*
X14787500Y-5977000I-44500J0D01*
G01*
X14889100Y-5799000D02*
G75*
G03*
X14889100Y-5799000I-44500J0D01*
G01*
X14990700Y-5977000D02*
G75*
G03*
X14990700Y-5977000I-44500J0D01*
G01*
X15092500Y-6459000D02*
G75*
G03*
X15092500Y-6459000I-44500J0D01*
G01*
X15321500Y-6459000D02*
G75*
G03*
X15321500Y-6459000I-44500J0D01*
G01*
X11700000Y-7350000D02*
X11700000Y-7450000D01*
X11650000Y-7400000D02*
X11750000Y-7400000D01*
X11954000Y-7350000D02*
X11954000Y-7450000D01*
X11904000Y-7400000D02*
X12004000Y-7400000D01*
X13833508Y-5943508D02*
X13833508Y-5832492D01*
X13722492Y-5832492D01*
X13722492Y-5943508D01*
X13833508Y-5943508D01*
X15459508Y-5943508D02*
X15459508Y-5832492D01*
X15348492Y-5832492D01*
X15348492Y-5943508D01*
X15459508Y-5943508D01*
D12*
X11281428Y-15470714D02*
X11281428Y-15170714D01*
X11352857Y-15170714D01*
X11395714Y-15185000D01*
X11424286Y-15213571D01*
X11438571Y-15242143D01*
X11452857Y-15299286D01*
X11452857Y-15342143D01*
X11438571Y-15399286D01*
X11424286Y-15427857D01*
X11395714Y-15456429D01*
X11352857Y-15470714D01*
X11281428Y-15470714D01*
X11581428Y-15470714D02*
X11581428Y-15270714D01*
X11581428Y-15327857D02*
X11595714Y-15299286D01*
X11610000Y-15285000D01*
X11638571Y-15270714D01*
X11667143Y-15270714D01*
X11767143Y-15470714D02*
X11767143Y-15270714D01*
X11767143Y-15170714D02*
X11752857Y-15185000D01*
X11767143Y-15199286D01*
X11781428Y-15185000D01*
X11767143Y-15170714D01*
X11767143Y-15199286D01*
X11952857Y-15470714D02*
X11924286Y-15456429D01*
X11910000Y-15427857D01*
X11910000Y-15170714D01*
X12110000Y-15470714D02*
X12081428Y-15456429D01*
X12067143Y-15427857D01*
X12067143Y-15170714D01*
X12452857Y-15470714D02*
X12452857Y-15170714D01*
X12552857Y-15385000D01*
X12652857Y-15170714D01*
X12652857Y-15470714D01*
X12924286Y-15470714D02*
X12924286Y-15313571D01*
X12910000Y-15285000D01*
X12881428Y-15270714D01*
X12824286Y-15270714D01*
X12795714Y-15285000D01*
X12924286Y-15456429D02*
X12895714Y-15470714D01*
X12824286Y-15470714D01*
X12795714Y-15456429D01*
X12781428Y-15427857D01*
X12781428Y-15399286D01*
X12795714Y-15370714D01*
X12824286Y-15356429D01*
X12895714Y-15356429D01*
X12924286Y-15342143D01*
X13067143Y-15270714D02*
X13067143Y-15570714D01*
X13067143Y-15285000D02*
X13095714Y-15270714D01*
X13152857Y-15270714D01*
X13181428Y-15285000D01*
X13195714Y-15299286D01*
X13210000Y-15327857D01*
X13210000Y-15413571D01*
X13195714Y-15442143D01*
X13181428Y-15456429D01*
X13152857Y-15470714D01*
X13095714Y-15470714D01*
X13067143Y-15456429D01*
X13338571Y-15442143D02*
X13352857Y-15456429D01*
X13338571Y-15470714D01*
X13324286Y-15456429D01*
X13338571Y-15442143D01*
X13338571Y-15470714D01*
X13338571Y-15285000D02*
X13352857Y-15299286D01*
X13338571Y-15313571D01*
X13324286Y-15299286D01*
X13338571Y-15285000D01*
X13338571Y-15313571D01*
X10955000Y-15945000D02*
X10995000Y-15985000D01*
X10995000Y-15945000D02*
X10955000Y-15985000D01*
X11338571Y-15800714D02*
X11367143Y-15800714D01*
X11395714Y-15815000D01*
X11410000Y-15829286D01*
X11424286Y-15857857D01*
X11438571Y-15915000D01*
X11438571Y-15986429D01*
X11424286Y-16043571D01*
X11410000Y-16072143D01*
X11395714Y-16086429D01*
X11367143Y-16100714D01*
X11338571Y-16100714D01*
X11310000Y-16086429D01*
X11295714Y-16072143D01*
X11281428Y-16043571D01*
X11267143Y-15986429D01*
X11267143Y-15915000D01*
X11281428Y-15857857D01*
X11295714Y-15829286D01*
X11310000Y-15815000D01*
X11338571Y-15800714D01*
X11567143Y-16072143D02*
X11581428Y-16086429D01*
X11567143Y-16100714D01*
X11552857Y-16086429D01*
X11567143Y-16072143D01*
X11567143Y-16100714D01*
X11838571Y-15900714D02*
X11838571Y-16100714D01*
X11767143Y-15786429D02*
X11695714Y-16000714D01*
X11881428Y-16000714D01*
X12052857Y-15800714D02*
X12081428Y-15800714D01*
X12110000Y-15815000D01*
X12124286Y-15829286D01*
X12138571Y-15857857D01*
X12152857Y-15915000D01*
X12152857Y-15986429D01*
X12138571Y-16043571D01*
X12124286Y-16072143D01*
X12110000Y-16086429D01*
X12081428Y-16100714D01*
X12052857Y-16100714D01*
X12024286Y-16086429D01*
X12010000Y-16072143D01*
X11995714Y-16043571D01*
X11981428Y-15986429D01*
X11981428Y-15915000D01*
X11995714Y-15857857D01*
X12010000Y-15829286D01*
X12024286Y-15815000D01*
X12052857Y-15800714D01*
X12338571Y-15800714D02*
X12367143Y-15800714D01*
X12395714Y-15815000D01*
X12410000Y-15829286D01*
X12424286Y-15857857D01*
X12438571Y-15915000D01*
X12438571Y-15986429D01*
X12424286Y-16043571D01*
X12410000Y-16072143D01*
X12395714Y-16086429D01*
X12367143Y-16100714D01*
X12338571Y-16100714D01*
X12310000Y-16086429D01*
X12295714Y-16072143D01*
X12281428Y-16043571D01*
X12267143Y-15986429D01*
X12267143Y-15915000D01*
X12281428Y-15857857D01*
X12295714Y-15829286D01*
X12310000Y-15815000D01*
X12338571Y-15800714D01*
X12567143Y-16100714D02*
X12567143Y-15900714D01*
X12567143Y-15929286D02*
X12581428Y-15915000D01*
X12610000Y-15900714D01*
X12652857Y-15900714D01*
X12681428Y-15915000D01*
X12695714Y-15943571D01*
X12695714Y-16100714D01*
X12695714Y-15943571D02*
X12710000Y-15915000D01*
X12738571Y-15900714D01*
X12781428Y-15900714D01*
X12810000Y-15915000D01*
X12824286Y-15943571D01*
X12824286Y-16100714D01*
X12967143Y-16100714D02*
X12967143Y-15900714D01*
X12967143Y-15929286D02*
X12981428Y-15915000D01*
X13010000Y-15900714D01*
X13052857Y-15900714D01*
X13081428Y-15915000D01*
X13095714Y-15943571D01*
X13095714Y-16100714D01*
X13095714Y-15943571D02*
X13110000Y-15915000D01*
X13138571Y-15900714D01*
X13181428Y-15900714D01*
X13210000Y-15915000D01*
X13224286Y-15943571D01*
X13224286Y-16100714D01*
X13810000Y-15786429D02*
X13552857Y-16172143D01*
X14195714Y-15800714D02*
X14224286Y-15800714D01*
X14252857Y-15815000D01*
X14267143Y-15829286D01*
X14281428Y-15857857D01*
X14295714Y-15915000D01*
X14295714Y-15986429D01*
X14281428Y-16043571D01*
X14267143Y-16072143D01*
X14252857Y-16086429D01*
X14224286Y-16100714D01*
X14195714Y-16100714D01*
X14167143Y-16086429D01*
X14152857Y-16072143D01*
X14138571Y-16043571D01*
X14124286Y-15986429D01*
X14124286Y-15915000D01*
X14138571Y-15857857D01*
X14152857Y-15829286D01*
X14167143Y-15815000D01*
X14195714Y-15800714D01*
X14424286Y-16072143D02*
X14438571Y-16086429D01*
X14424286Y-16100714D01*
X14410000Y-16086429D01*
X14424286Y-16072143D01*
X14424286Y-16100714D01*
X14624286Y-15800714D02*
X14652857Y-15800714D01*
X14681428Y-15815000D01*
X14695714Y-15829286D01*
X14710000Y-15857857D01*
X14724286Y-15915000D01*
X14724286Y-15986429D01*
X14710000Y-16043571D01*
X14695714Y-16072143D01*
X14681428Y-16086429D01*
X14652857Y-16100714D01*
X14624286Y-16100714D01*
X14595714Y-16086429D01*
X14581428Y-16072143D01*
X14567143Y-16043571D01*
X14552857Y-15986429D01*
X14552857Y-15915000D01*
X14567143Y-15857857D01*
X14581428Y-15829286D01*
X14595714Y-15815000D01*
X14624286Y-15800714D01*
X15010000Y-16100714D02*
X14838571Y-16100714D01*
X14924286Y-16100714D02*
X14924286Y-15800714D01*
X14895714Y-15843571D01*
X14867143Y-15872143D01*
X14838571Y-15886429D01*
X15281428Y-15800714D02*
X15138571Y-15800714D01*
X15124286Y-15943571D01*
X15138571Y-15929286D01*
X15167143Y-15915000D01*
X15238571Y-15915000D01*
X15267143Y-15929286D01*
X15281428Y-15943571D01*
X15295714Y-15972143D01*
X15295714Y-16043571D01*
X15281428Y-16072143D01*
X15267143Y-16086429D01*
X15238571Y-16100714D01*
X15167143Y-16100714D01*
X15138571Y-16086429D01*
X15124286Y-16072143D01*
X15395714Y-15800714D02*
X15595714Y-15800714D01*
X15467143Y-16100714D01*
X15695714Y-15800714D02*
X15695714Y-15857857D01*
X15810000Y-15800714D02*
X15810000Y-15857857D01*
X16252857Y-16215000D02*
X16238571Y-16200714D01*
X16210000Y-16157857D01*
X16195714Y-16129286D01*
X16181428Y-16086429D01*
X16167143Y-16015000D01*
X16167143Y-15957857D01*
X16181428Y-15886429D01*
X16195714Y-15843571D01*
X16210000Y-15815000D01*
X16238571Y-15772143D01*
X16252857Y-15757857D01*
X16524286Y-16100714D02*
X16352857Y-16100714D01*
X16438571Y-16100714D02*
X16438571Y-15800714D01*
X16410000Y-15843571D01*
X16381428Y-15872143D01*
X16352857Y-15886429D01*
X16781428Y-15900714D02*
X16781428Y-16100714D01*
X16710000Y-15786429D02*
X16638571Y-16000714D01*
X16824286Y-16000714D01*
X17067143Y-15900714D02*
X17067143Y-16100714D01*
X16995714Y-15786429D02*
X16924286Y-16000714D01*
X17110000Y-16000714D01*
X17452857Y-16100714D02*
X17452857Y-15800714D01*
X17581428Y-16100714D02*
X17581428Y-15943571D01*
X17567143Y-15915000D01*
X17538571Y-15900714D01*
X17495714Y-15900714D01*
X17467143Y-15915000D01*
X17452857Y-15929286D01*
X17767143Y-16100714D02*
X17738571Y-16086429D01*
X17724286Y-16072143D01*
X17710000Y-16043571D01*
X17710000Y-15957857D01*
X17724286Y-15929286D01*
X17738571Y-15915000D01*
X17767143Y-15900714D01*
X17810000Y-15900714D01*
X17838571Y-15915000D01*
X17852857Y-15929286D01*
X17867143Y-15957857D01*
X17867143Y-16043571D01*
X17852857Y-16072143D01*
X17838571Y-16086429D01*
X17810000Y-16100714D01*
X17767143Y-16100714D01*
X18038571Y-16100714D02*
X18010000Y-16086429D01*
X17995714Y-16057857D01*
X17995714Y-15800714D01*
X18267143Y-16086429D02*
X18238571Y-16100714D01*
X18181428Y-16100714D01*
X18152857Y-16086429D01*
X18138571Y-16057857D01*
X18138571Y-15943571D01*
X18152857Y-15915000D01*
X18181428Y-15900714D01*
X18238571Y-15900714D01*
X18267143Y-15915000D01*
X18281428Y-15943571D01*
X18281428Y-15972143D01*
X18138571Y-16000714D01*
X18395714Y-16086429D02*
X18424286Y-16100714D01*
X18481428Y-16100714D01*
X18510000Y-16086429D01*
X18524286Y-16057857D01*
X18524286Y-16043571D01*
X18510000Y-16015000D01*
X18481428Y-16000714D01*
X18438571Y-16000714D01*
X18410000Y-15986429D01*
X18395714Y-15957857D01*
X18395714Y-15943571D01*
X18410000Y-15915000D01*
X18438571Y-15900714D01*
X18481428Y-15900714D01*
X18510000Y-15915000D01*
X18624286Y-16215000D02*
X18638571Y-16200714D01*
X18667143Y-16157857D01*
X18681428Y-16129286D01*
X18695714Y-16086429D01*
X18710000Y-16015000D01*
X18710000Y-15957857D01*
X18695714Y-15886429D01*
X18681428Y-15843571D01*
X18667143Y-15815000D01*
X18638571Y-15772143D01*
X18624286Y-15757857D01*
X10995000Y-16361000D02*
G75*
G03*
X10995000Y-16361000I-44500J0D01*
G01*
X11338571Y-16196714D02*
X11367143Y-16196714D01*
X11395714Y-16211000D01*
X11410000Y-16225286D01*
X11424286Y-16253857D01*
X11438571Y-16311000D01*
X11438571Y-16382429D01*
X11424286Y-16439571D01*
X11410000Y-16468143D01*
X11395714Y-16482429D01*
X11367143Y-16496714D01*
X11338571Y-16496714D01*
X11310000Y-16482429D01*
X11295714Y-16468143D01*
X11281428Y-16439571D01*
X11267143Y-16382429D01*
X11267143Y-16311000D01*
X11281428Y-16253857D01*
X11295714Y-16225286D01*
X11310000Y-16211000D01*
X11338571Y-16196714D01*
X11567143Y-16468143D02*
X11581428Y-16482429D01*
X11567143Y-16496714D01*
X11552857Y-16482429D01*
X11567143Y-16468143D01*
X11567143Y-16496714D01*
X11752857Y-16325286D02*
X11724286Y-16311000D01*
X11710000Y-16296714D01*
X11695714Y-16268143D01*
X11695714Y-16253857D01*
X11710000Y-16225286D01*
X11724286Y-16211000D01*
X11752857Y-16196714D01*
X11810000Y-16196714D01*
X11838571Y-16211000D01*
X11852857Y-16225286D01*
X11867143Y-16253857D01*
X11867143Y-16268143D01*
X11852857Y-16296714D01*
X11838571Y-16311000D01*
X11810000Y-16325286D01*
X11752857Y-16325286D01*
X11724286Y-16339571D01*
X11710000Y-16353857D01*
X11695714Y-16382429D01*
X11695714Y-16439571D01*
X11710000Y-16468143D01*
X11724286Y-16482429D01*
X11752857Y-16496714D01*
X11810000Y-16496714D01*
X11838571Y-16482429D01*
X11852857Y-16468143D01*
X11867143Y-16439571D01*
X11867143Y-16382429D01*
X11852857Y-16353857D01*
X11838571Y-16339571D01*
X11810000Y-16325286D01*
X12010000Y-16496714D02*
X12067143Y-16496714D01*
X12095714Y-16482429D01*
X12110000Y-16468143D01*
X12138571Y-16425286D01*
X12152857Y-16368143D01*
X12152857Y-16253857D01*
X12138571Y-16225286D01*
X12124286Y-16211000D01*
X12095714Y-16196714D01*
X12038571Y-16196714D01*
X12010000Y-16211000D01*
X11995714Y-16225286D01*
X11981428Y-16253857D01*
X11981428Y-16325286D01*
X11995714Y-16353857D01*
X12010000Y-16368143D01*
X12038571Y-16382429D01*
X12095714Y-16382429D01*
X12124286Y-16368143D01*
X12138571Y-16353857D01*
X12152857Y-16325286D01*
X12338571Y-16196714D02*
X12367143Y-16196714D01*
X12395714Y-16211000D01*
X12410000Y-16225286D01*
X12424286Y-16253857D01*
X12438571Y-16311000D01*
X12438571Y-16382429D01*
X12424286Y-16439571D01*
X12410000Y-16468143D01*
X12395714Y-16482429D01*
X12367143Y-16496714D01*
X12338571Y-16496714D01*
X12310000Y-16482429D01*
X12295714Y-16468143D01*
X12281428Y-16439571D01*
X12267143Y-16382429D01*
X12267143Y-16311000D01*
X12281428Y-16253857D01*
X12295714Y-16225286D01*
X12310000Y-16211000D01*
X12338571Y-16196714D01*
X12567143Y-16496714D02*
X12567143Y-16296714D01*
X12567143Y-16325286D02*
X12581428Y-16311000D01*
X12610000Y-16296714D01*
X12652857Y-16296714D01*
X12681428Y-16311000D01*
X12695714Y-16339571D01*
X12695714Y-16496714D01*
X12695714Y-16339571D02*
X12710000Y-16311000D01*
X12738571Y-16296714D01*
X12781428Y-16296714D01*
X12810000Y-16311000D01*
X12824286Y-16339571D01*
X12824286Y-16496714D01*
X12967143Y-16496714D02*
X12967143Y-16296714D01*
X12967143Y-16325286D02*
X12981428Y-16311000D01*
X13010000Y-16296714D01*
X13052857Y-16296714D01*
X13081428Y-16311000D01*
X13095714Y-16339571D01*
X13095714Y-16496714D01*
X13095714Y-16339571D02*
X13110000Y-16311000D01*
X13138571Y-16296714D01*
X13181428Y-16296714D01*
X13210000Y-16311000D01*
X13224286Y-16339571D01*
X13224286Y-16496714D01*
X13810000Y-16182429D02*
X13552857Y-16568143D01*
X14195714Y-16196714D02*
X14224286Y-16196714D01*
X14252857Y-16211000D01*
X14267143Y-16225286D01*
X14281428Y-16253857D01*
X14295714Y-16311000D01*
X14295714Y-16382429D01*
X14281428Y-16439571D01*
X14267143Y-16468143D01*
X14252857Y-16482429D01*
X14224286Y-16496714D01*
X14195714Y-16496714D01*
X14167143Y-16482429D01*
X14152857Y-16468143D01*
X14138571Y-16439571D01*
X14124286Y-16382429D01*
X14124286Y-16311000D01*
X14138571Y-16253857D01*
X14152857Y-16225286D01*
X14167143Y-16211000D01*
X14195714Y-16196714D01*
X14424286Y-16468143D02*
X14438571Y-16482429D01*
X14424286Y-16496714D01*
X14410000Y-16482429D01*
X14424286Y-16468143D01*
X14424286Y-16496714D01*
X14624286Y-16196714D02*
X14652857Y-16196714D01*
X14681428Y-16211000D01*
X14695714Y-16225286D01*
X14710000Y-16253857D01*
X14724286Y-16311000D01*
X14724286Y-16382429D01*
X14710000Y-16439571D01*
X14695714Y-16468143D01*
X14681428Y-16482429D01*
X14652857Y-16496714D01*
X14624286Y-16496714D01*
X14595714Y-16482429D01*
X14581428Y-16468143D01*
X14567143Y-16439571D01*
X14552857Y-16382429D01*
X14552857Y-16311000D01*
X14567143Y-16253857D01*
X14581428Y-16225286D01*
X14595714Y-16211000D01*
X14624286Y-16196714D01*
X14824286Y-16196714D02*
X15010000Y-16196714D01*
X14910000Y-16311000D01*
X14952857Y-16311000D01*
X14981428Y-16325286D01*
X14995714Y-16339571D01*
X15010000Y-16368143D01*
X15010000Y-16439571D01*
X14995714Y-16468143D01*
X14981428Y-16482429D01*
X14952857Y-16496714D01*
X14867143Y-16496714D01*
X14838571Y-16482429D01*
X14824286Y-16468143D01*
X15281428Y-16196714D02*
X15138571Y-16196714D01*
X15124286Y-16339571D01*
X15138571Y-16325286D01*
X15167143Y-16311000D01*
X15238571Y-16311000D01*
X15267143Y-16325286D01*
X15281428Y-16339571D01*
X15295714Y-16368143D01*
X15295714Y-16439571D01*
X15281428Y-16468143D01*
X15267143Y-16482429D01*
X15238571Y-16496714D01*
X15167143Y-16496714D01*
X15138571Y-16482429D01*
X15124286Y-16468143D01*
X15481428Y-16196714D02*
X15510000Y-16196714D01*
X15538571Y-16211000D01*
X15552857Y-16225286D01*
X15567143Y-16253857D01*
X15581428Y-16311000D01*
X15581428Y-16382429D01*
X15567143Y-16439571D01*
X15552857Y-16468143D01*
X15538571Y-16482429D01*
X15510000Y-16496714D01*
X15481428Y-16496714D01*
X15452857Y-16482429D01*
X15438571Y-16468143D01*
X15424286Y-16439571D01*
X15410000Y-16382429D01*
X15410000Y-16311000D01*
X15424286Y-16253857D01*
X15438571Y-16225286D01*
X15452857Y-16211000D01*
X15481428Y-16196714D01*
X15695714Y-16196714D02*
X15695714Y-16253857D01*
X15810000Y-16196714D02*
X15810000Y-16253857D01*
X16252857Y-16611000D02*
X16238571Y-16596714D01*
X16210000Y-16553857D01*
X16195714Y-16525286D01*
X16181428Y-16482429D01*
X16167143Y-16411000D01*
X16167143Y-16353857D01*
X16181428Y-16282429D01*
X16195714Y-16239571D01*
X16210000Y-16211000D01*
X16238571Y-16168143D01*
X16252857Y-16153857D01*
X16524286Y-16496714D02*
X16352857Y-16496714D01*
X16438571Y-16496714D02*
X16438571Y-16196714D01*
X16410000Y-16239571D01*
X16381428Y-16268143D01*
X16352857Y-16282429D01*
X16638571Y-16225286D02*
X16652857Y-16211000D01*
X16681428Y-16196714D01*
X16752857Y-16196714D01*
X16781428Y-16211000D01*
X16795714Y-16225286D01*
X16810000Y-16253857D01*
X16810000Y-16282429D01*
X16795714Y-16325286D01*
X16624286Y-16496714D01*
X16810000Y-16496714D01*
X17167143Y-16496714D02*
X17167143Y-16196714D01*
X17295714Y-16496714D02*
X17295714Y-16339571D01*
X17281428Y-16311000D01*
X17252857Y-16296714D01*
X17210000Y-16296714D01*
X17181428Y-16311000D01*
X17167143Y-16325286D01*
X17481428Y-16496714D02*
X17452857Y-16482429D01*
X17438571Y-16468143D01*
X17424286Y-16439571D01*
X17424286Y-16353857D01*
X17438571Y-16325286D01*
X17452857Y-16311000D01*
X17481428Y-16296714D01*
X17524286Y-16296714D01*
X17552857Y-16311000D01*
X17567143Y-16325286D01*
X17581428Y-16353857D01*
X17581428Y-16439571D01*
X17567143Y-16468143D01*
X17552857Y-16482429D01*
X17524286Y-16496714D01*
X17481428Y-16496714D01*
X17752857Y-16496714D02*
X17724286Y-16482429D01*
X17710000Y-16453857D01*
X17710000Y-16196714D01*
X17981428Y-16482429D02*
X17952857Y-16496714D01*
X17895714Y-16496714D01*
X17867143Y-16482429D01*
X17852857Y-16453857D01*
X17852857Y-16339571D01*
X17867143Y-16311000D01*
X17895714Y-16296714D01*
X17952857Y-16296714D01*
X17981428Y-16311000D01*
X17995714Y-16339571D01*
X17995714Y-16368143D01*
X17852857Y-16396714D01*
X18110000Y-16482429D02*
X18138571Y-16496714D01*
X18195714Y-16496714D01*
X18224286Y-16482429D01*
X18238571Y-16453857D01*
X18238571Y-16439571D01*
X18224286Y-16411000D01*
X18195714Y-16396714D01*
X18152857Y-16396714D01*
X18124286Y-16382429D01*
X18110000Y-16353857D01*
X18110000Y-16339571D01*
X18124286Y-16311000D01*
X18152857Y-16296714D01*
X18195714Y-16296714D01*
X18224286Y-16311000D01*
X18338571Y-16611000D02*
X18352857Y-16596714D01*
X18381428Y-16553857D01*
X18395714Y-16525286D01*
X18410000Y-16482429D01*
X18424286Y-16411000D01*
X18424286Y-16353857D01*
X18410000Y-16282429D01*
X18395714Y-16239571D01*
X18381428Y-16211000D01*
X18352857Y-16168143D01*
X18338571Y-16153857D01*
X10945000Y-16707000D02*
X10945000Y-16807000D01*
X10895000Y-16757000D02*
X10995000Y-16757000D01*
X11438571Y-16892714D02*
X11267143Y-16892714D01*
X11352857Y-16892714D02*
X11352857Y-16592714D01*
X11324286Y-16635571D01*
X11295714Y-16664143D01*
X11267143Y-16678429D01*
X11567143Y-16864143D02*
X11581428Y-16878429D01*
X11567143Y-16892714D01*
X11552857Y-16878429D01*
X11567143Y-16864143D01*
X11567143Y-16892714D01*
X11767143Y-16592714D02*
X11795714Y-16592714D01*
X11824286Y-16607000D01*
X11838571Y-16621286D01*
X11852857Y-16649857D01*
X11867143Y-16707000D01*
X11867143Y-16778429D01*
X11852857Y-16835572D01*
X11838571Y-16864143D01*
X11824286Y-16878429D01*
X11795714Y-16892714D01*
X11767143Y-16892714D01*
X11738571Y-16878429D01*
X11724286Y-16864143D01*
X11710000Y-16835572D01*
X11695714Y-16778429D01*
X11695714Y-16707000D01*
X11710000Y-16649857D01*
X11724286Y-16621286D01*
X11738571Y-16607000D01*
X11767143Y-16592714D01*
X12052857Y-16592714D02*
X12081428Y-16592714D01*
X12110000Y-16607000D01*
X12124286Y-16621286D01*
X12138571Y-16649857D01*
X12152857Y-16707000D01*
X12152857Y-16778429D01*
X12138571Y-16835572D01*
X12124286Y-16864143D01*
X12110000Y-16878429D01*
X12081428Y-16892714D01*
X12052857Y-16892714D01*
X12024286Y-16878429D01*
X12010000Y-16864143D01*
X11995714Y-16835572D01*
X11981428Y-16778429D01*
X11981428Y-16707000D01*
X11995714Y-16649857D01*
X12010000Y-16621286D01*
X12024286Y-16607000D01*
X12052857Y-16592714D01*
X12338571Y-16592714D02*
X12367143Y-16592714D01*
X12395714Y-16607000D01*
X12410000Y-16621286D01*
X12424286Y-16649857D01*
X12438571Y-16707000D01*
X12438571Y-16778429D01*
X12424286Y-16835572D01*
X12410000Y-16864143D01*
X12395714Y-16878429D01*
X12367143Y-16892714D01*
X12338571Y-16892714D01*
X12310000Y-16878429D01*
X12295714Y-16864143D01*
X12281428Y-16835572D01*
X12267143Y-16778429D01*
X12267143Y-16707000D01*
X12281428Y-16649857D01*
X12295714Y-16621286D01*
X12310000Y-16607000D01*
X12338571Y-16592714D01*
X12567143Y-16892714D02*
X12567143Y-16692714D01*
X12567143Y-16721286D02*
X12581428Y-16707000D01*
X12610000Y-16692714D01*
X12652857Y-16692714D01*
X12681428Y-16707000D01*
X12695714Y-16735571D01*
X12695714Y-16892714D01*
X12695714Y-16735571D02*
X12710000Y-16707000D01*
X12738571Y-16692714D01*
X12781428Y-16692714D01*
X12810000Y-16707000D01*
X12824286Y-16735571D01*
X12824286Y-16892714D01*
X12967143Y-16892714D02*
X12967143Y-16692714D01*
X12967143Y-16721286D02*
X12981428Y-16707000D01*
X13010000Y-16692714D01*
X13052857Y-16692714D01*
X13081428Y-16707000D01*
X13095714Y-16735571D01*
X13095714Y-16892714D01*
X13095714Y-16735571D02*
X13110000Y-16707000D01*
X13138571Y-16692714D01*
X13181428Y-16692714D01*
X13210000Y-16707000D01*
X13224286Y-16735571D01*
X13224286Y-16892714D01*
X13810000Y-16578429D02*
X13552857Y-16964143D01*
X14195714Y-16592714D02*
X14224286Y-16592714D01*
X14252857Y-16607000D01*
X14267143Y-16621286D01*
X14281428Y-16649857D01*
X14295714Y-16707000D01*
X14295714Y-16778429D01*
X14281428Y-16835572D01*
X14267143Y-16864143D01*
X14252857Y-16878429D01*
X14224286Y-16892714D01*
X14195714Y-16892714D01*
X14167143Y-16878429D01*
X14152857Y-16864143D01*
X14138571Y-16835572D01*
X14124286Y-16778429D01*
X14124286Y-16707000D01*
X14138571Y-16649857D01*
X14152857Y-16621286D01*
X14167143Y-16607000D01*
X14195714Y-16592714D01*
X14424286Y-16864143D02*
X14438571Y-16878429D01*
X14424286Y-16892714D01*
X14410000Y-16878429D01*
X14424286Y-16864143D01*
X14424286Y-16892714D01*
X14624286Y-16592714D02*
X14652857Y-16592714D01*
X14681428Y-16607000D01*
X14695714Y-16621286D01*
X14710000Y-16649857D01*
X14724286Y-16707000D01*
X14724286Y-16778429D01*
X14710000Y-16835572D01*
X14695714Y-16864143D01*
X14681428Y-16878429D01*
X14652857Y-16892714D01*
X14624286Y-16892714D01*
X14595714Y-16878429D01*
X14581428Y-16864143D01*
X14567143Y-16835572D01*
X14552857Y-16778429D01*
X14552857Y-16707000D01*
X14567143Y-16649857D01*
X14581428Y-16621286D01*
X14595714Y-16607000D01*
X14624286Y-16592714D01*
X14824286Y-16592714D02*
X15010000Y-16592714D01*
X14910000Y-16707000D01*
X14952857Y-16707000D01*
X14981428Y-16721286D01*
X14995714Y-16735571D01*
X15010000Y-16764143D01*
X15010000Y-16835572D01*
X14995714Y-16864143D01*
X14981428Y-16878429D01*
X14952857Y-16892714D01*
X14867143Y-16892714D01*
X14838571Y-16878429D01*
X14824286Y-16864143D01*
X15152857Y-16892714D02*
X15210000Y-16892714D01*
X15238571Y-16878429D01*
X15252857Y-16864143D01*
X15281428Y-16821286D01*
X15295714Y-16764143D01*
X15295714Y-16649857D01*
X15281428Y-16621286D01*
X15267143Y-16607000D01*
X15238571Y-16592714D01*
X15181428Y-16592714D01*
X15152857Y-16607000D01*
X15138571Y-16621286D01*
X15124286Y-16649857D01*
X15124286Y-16721286D01*
X15138571Y-16749857D01*
X15152857Y-16764143D01*
X15181428Y-16778429D01*
X15238571Y-16778429D01*
X15267143Y-16764143D01*
X15281428Y-16749857D01*
X15295714Y-16721286D01*
X15552857Y-16692714D02*
X15552857Y-16892714D01*
X15481428Y-16578429D02*
X15410000Y-16792714D01*
X15595714Y-16792714D01*
X15695714Y-16592714D02*
X15695714Y-16649857D01*
X15810000Y-16592714D02*
X15810000Y-16649857D01*
X16252857Y-17007000D02*
X16238571Y-16992714D01*
X16210000Y-16949857D01*
X16195714Y-16921286D01*
X16181428Y-16878429D01*
X16167143Y-16807000D01*
X16167143Y-16749857D01*
X16181428Y-16678429D01*
X16195714Y-16635571D01*
X16210000Y-16607000D01*
X16238571Y-16564143D01*
X16252857Y-16549857D01*
X16352857Y-16621286D02*
X16367143Y-16607000D01*
X16395714Y-16592714D01*
X16467143Y-16592714D01*
X16495714Y-16607000D01*
X16510000Y-16621286D01*
X16524286Y-16649857D01*
X16524286Y-16678429D01*
X16510000Y-16721286D01*
X16338571Y-16892714D01*
X16524286Y-16892714D01*
X16881428Y-16892714D02*
X16881428Y-16592714D01*
X17010000Y-16892714D02*
X17010000Y-16735571D01*
X16995714Y-16707000D01*
X16967143Y-16692714D01*
X16924286Y-16692714D01*
X16895714Y-16707000D01*
X16881428Y-16721286D01*
X17195714Y-16892714D02*
X17167143Y-16878429D01*
X17152857Y-16864143D01*
X17138571Y-16835572D01*
X17138571Y-16749857D01*
X17152857Y-16721286D01*
X17167143Y-16707000D01*
X17195714Y-16692714D01*
X17238571Y-16692714D01*
X17267143Y-16707000D01*
X17281428Y-16721286D01*
X17295714Y-16749857D01*
X17295714Y-16835572D01*
X17281428Y-16864143D01*
X17267143Y-16878429D01*
X17238571Y-16892714D01*
X17195714Y-16892714D01*
X17467143Y-16892714D02*
X17438571Y-16878429D01*
X17424286Y-16849857D01*
X17424286Y-16592714D01*
X17695714Y-16878429D02*
X17667143Y-16892714D01*
X17610000Y-16892714D01*
X17581428Y-16878429D01*
X17567143Y-16849857D01*
X17567143Y-16735571D01*
X17581428Y-16707000D01*
X17610000Y-16692714D01*
X17667143Y-16692714D01*
X17695714Y-16707000D01*
X17710000Y-16735571D01*
X17710000Y-16764143D01*
X17567143Y-16792714D01*
X17824286Y-16878429D02*
X17852857Y-16892714D01*
X17910000Y-16892714D01*
X17938571Y-16878429D01*
X17952857Y-16849857D01*
X17952857Y-16835572D01*
X17938571Y-16807000D01*
X17910000Y-16792714D01*
X17867143Y-16792714D01*
X17838571Y-16778429D01*
X17824286Y-16749857D01*
X17824286Y-16735571D01*
X17838571Y-16707000D01*
X17867143Y-16692714D01*
X17910000Y-16692714D01*
X17938571Y-16707000D01*
X18052857Y-17007000D02*
X18067143Y-16992714D01*
X18095714Y-16949857D01*
X18110000Y-16921286D01*
X18124286Y-16878429D01*
X18138571Y-16807000D01*
X18138571Y-16749857D01*
X18124286Y-16678429D01*
X18110000Y-16635571D01*
X18095714Y-16607000D01*
X18067143Y-16564143D01*
X18052857Y-16549857D01*
X10972008Y-17208509D02*
X10972008Y-17097492D01*
X10860992Y-17097492D01*
X10860992Y-17208509D01*
X10972008Y-17208509D01*
X11438571Y-17288714D02*
X11267143Y-17288714D01*
X11352857Y-17288714D02*
X11352857Y-16988714D01*
X11324286Y-17031572D01*
X11295714Y-17060143D01*
X11267143Y-17074429D01*
X11567143Y-17260143D02*
X11581428Y-17274429D01*
X11567143Y-17288714D01*
X11552857Y-17274429D01*
X11567143Y-17260143D01*
X11567143Y-17288714D01*
X11852857Y-16988714D02*
X11710000Y-16988714D01*
X11695714Y-17131572D01*
X11710000Y-17117286D01*
X11738571Y-17103000D01*
X11810000Y-17103000D01*
X11838571Y-17117286D01*
X11852857Y-17131572D01*
X11867143Y-17160143D01*
X11867143Y-17231572D01*
X11852857Y-17260143D01*
X11838571Y-17274429D01*
X11810000Y-17288714D01*
X11738571Y-17288714D01*
X11710000Y-17274429D01*
X11695714Y-17260143D01*
X11967143Y-16988714D02*
X12167143Y-16988714D01*
X12038571Y-17288714D01*
X12338571Y-16988714D02*
X12367143Y-16988714D01*
X12395714Y-17003000D01*
X12410000Y-17017286D01*
X12424286Y-17045857D01*
X12438571Y-17103000D01*
X12438571Y-17174429D01*
X12424286Y-17231572D01*
X12410000Y-17260143D01*
X12395714Y-17274429D01*
X12367143Y-17288714D01*
X12338571Y-17288714D01*
X12310000Y-17274429D01*
X12295714Y-17260143D01*
X12281428Y-17231572D01*
X12267143Y-17174429D01*
X12267143Y-17103000D01*
X12281428Y-17045857D01*
X12295714Y-17017286D01*
X12310000Y-17003000D01*
X12338571Y-16988714D01*
X12567143Y-17288714D02*
X12567143Y-17088714D01*
X12567143Y-17117286D02*
X12581428Y-17103000D01*
X12610000Y-17088714D01*
X12652857Y-17088714D01*
X12681428Y-17103000D01*
X12695714Y-17131572D01*
X12695714Y-17288714D01*
X12695714Y-17131572D02*
X12710000Y-17103000D01*
X12738571Y-17088714D01*
X12781428Y-17088714D01*
X12810000Y-17103000D01*
X12824286Y-17131572D01*
X12824286Y-17288714D01*
X12967143Y-17288714D02*
X12967143Y-17088714D01*
X12967143Y-17117286D02*
X12981428Y-17103000D01*
X13010000Y-17088714D01*
X13052857Y-17088714D01*
X13081428Y-17103000D01*
X13095714Y-17131572D01*
X13095714Y-17288714D01*
X13095714Y-17131572D02*
X13110000Y-17103000D01*
X13138571Y-17088714D01*
X13181428Y-17088714D01*
X13210000Y-17103000D01*
X13224286Y-17131572D01*
X13224286Y-17288714D01*
X13810000Y-16974429D02*
X13552857Y-17360143D01*
X14195714Y-16988714D02*
X14224286Y-16988714D01*
X14252857Y-17003000D01*
X14267143Y-17017286D01*
X14281428Y-17045857D01*
X14295714Y-17103000D01*
X14295714Y-17174429D01*
X14281428Y-17231572D01*
X14267143Y-17260143D01*
X14252857Y-17274429D01*
X14224286Y-17288714D01*
X14195714Y-17288714D01*
X14167143Y-17274429D01*
X14152857Y-17260143D01*
X14138571Y-17231572D01*
X14124286Y-17174429D01*
X14124286Y-17103000D01*
X14138571Y-17045857D01*
X14152857Y-17017286D01*
X14167143Y-17003000D01*
X14195714Y-16988714D01*
X14424286Y-17260143D02*
X14438571Y-17274429D01*
X14424286Y-17288714D01*
X14410000Y-17274429D01*
X14424286Y-17260143D01*
X14424286Y-17288714D01*
X14624286Y-16988714D02*
X14652857Y-16988714D01*
X14681428Y-17003000D01*
X14695714Y-17017286D01*
X14710000Y-17045857D01*
X14724286Y-17103000D01*
X14724286Y-17174429D01*
X14710000Y-17231572D01*
X14695714Y-17260143D01*
X14681428Y-17274429D01*
X14652857Y-17288714D01*
X14624286Y-17288714D01*
X14595714Y-17274429D01*
X14581428Y-17260143D01*
X14567143Y-17231572D01*
X14552857Y-17174429D01*
X14552857Y-17103000D01*
X14567143Y-17045857D01*
X14581428Y-17017286D01*
X14595714Y-17003000D01*
X14624286Y-16988714D01*
X14981428Y-16988714D02*
X14924286Y-16988714D01*
X14895714Y-17003000D01*
X14881428Y-17017286D01*
X14852857Y-17060143D01*
X14838571Y-17117286D01*
X14838571Y-17231572D01*
X14852857Y-17260143D01*
X14867143Y-17274429D01*
X14895714Y-17288714D01*
X14952857Y-17288714D01*
X14981428Y-17274429D01*
X14995714Y-17260143D01*
X15010000Y-17231572D01*
X15010000Y-17160143D01*
X14995714Y-17131572D01*
X14981428Y-17117286D01*
X14952857Y-17103000D01*
X14895714Y-17103000D01*
X14867143Y-17117286D01*
X14852857Y-17131572D01*
X14838571Y-17160143D01*
X15295714Y-17288714D02*
X15124286Y-17288714D01*
X15210000Y-17288714D02*
X15210000Y-16988714D01*
X15181428Y-17031572D01*
X15152857Y-17060143D01*
X15124286Y-17074429D01*
X15467143Y-17117286D02*
X15438571Y-17103000D01*
X15424286Y-17088714D01*
X15410000Y-17060143D01*
X15410000Y-17045857D01*
X15424286Y-17017286D01*
X15438571Y-17003000D01*
X15467143Y-16988714D01*
X15524286Y-16988714D01*
X15552857Y-17003000D01*
X15567143Y-17017286D01*
X15581428Y-17045857D01*
X15581428Y-17060143D01*
X15567143Y-17088714D01*
X15552857Y-17103000D01*
X15524286Y-17117286D01*
X15467143Y-17117286D01*
X15438571Y-17131572D01*
X15424286Y-17145857D01*
X15410000Y-17174429D01*
X15410000Y-17231572D01*
X15424286Y-17260143D01*
X15438571Y-17274429D01*
X15467143Y-17288714D01*
X15524286Y-17288714D01*
X15552857Y-17274429D01*
X15567143Y-17260143D01*
X15581428Y-17231572D01*
X15581428Y-17174429D01*
X15567143Y-17145857D01*
X15552857Y-17131572D01*
X15524286Y-17117286D01*
X15695714Y-16988714D02*
X15695714Y-17045857D01*
X15810000Y-16988714D02*
X15810000Y-17045857D01*
X16252857Y-17403000D02*
X16238571Y-17388714D01*
X16210000Y-17345857D01*
X16195714Y-17317286D01*
X16181428Y-17274429D01*
X16167143Y-17203000D01*
X16167143Y-17145857D01*
X16181428Y-17074429D01*
X16195714Y-17031572D01*
X16210000Y-17003000D01*
X16238571Y-16960143D01*
X16252857Y-16945857D01*
X16352857Y-17017286D02*
X16367143Y-17003000D01*
X16395714Y-16988714D01*
X16467143Y-16988714D01*
X16495714Y-17003000D01*
X16510000Y-17017286D01*
X16524286Y-17045857D01*
X16524286Y-17074429D01*
X16510000Y-17117286D01*
X16338571Y-17288714D01*
X16524286Y-17288714D01*
X16881428Y-17288714D02*
X16881428Y-16988714D01*
X17010000Y-17288714D02*
X17010000Y-17131572D01*
X16995714Y-17103000D01*
X16967143Y-17088714D01*
X16924286Y-17088714D01*
X16895714Y-17103000D01*
X16881428Y-17117286D01*
X17195714Y-17288714D02*
X17167143Y-17274429D01*
X17152857Y-17260143D01*
X17138571Y-17231572D01*
X17138571Y-17145857D01*
X17152857Y-17117286D01*
X17167143Y-17103000D01*
X17195714Y-17088714D01*
X17238571Y-17088714D01*
X17267143Y-17103000D01*
X17281428Y-17117286D01*
X17295714Y-17145857D01*
X17295714Y-17231572D01*
X17281428Y-17260143D01*
X17267143Y-17274429D01*
X17238571Y-17288714D01*
X17195714Y-17288714D01*
X17467143Y-17288714D02*
X17438571Y-17274429D01*
X17424286Y-17245857D01*
X17424286Y-16988714D01*
X17695714Y-17274429D02*
X17667143Y-17288714D01*
X17610000Y-17288714D01*
X17581428Y-17274429D01*
X17567143Y-17245857D01*
X17567143Y-17131572D01*
X17581428Y-17103000D01*
X17610000Y-17088714D01*
X17667143Y-17088714D01*
X17695714Y-17103000D01*
X17710000Y-17131572D01*
X17710000Y-17160143D01*
X17567143Y-17188714D01*
X17824286Y-17274429D02*
X17852857Y-17288714D01*
X17910000Y-17288714D01*
X17938571Y-17274429D01*
X17952857Y-17245857D01*
X17952857Y-17231572D01*
X17938571Y-17203000D01*
X17910000Y-17188714D01*
X17867143Y-17188714D01*
X17838571Y-17174429D01*
X17824286Y-17145857D01*
X17824286Y-17131572D01*
X17838571Y-17103000D01*
X17867143Y-17088714D01*
X17910000Y-17088714D01*
X17938571Y-17103000D01*
X18052857Y-17403000D02*
X18067143Y-17388714D01*
X18095714Y-17345857D01*
X18110000Y-17317286D01*
X18124286Y-17274429D01*
X18138571Y-17203000D01*
X18138571Y-17145857D01*
X18124286Y-17074429D01*
X18110000Y-17031572D01*
X18095714Y-17003000D01*
X18067143Y-16960143D01*
X18052857Y-16945857D01*
M02*
