%TF.GenerationSoftware,KiCad,Pcbnew,5.1.10*%
%TF.CreationDate,2021-11-06T17:19:15+01:00*%
%TF.ProjectId,Teebeutel,54656562-6575-4746-956c-2e6b69636164,rev?*%
%TF.SameCoordinates,Original*%
%TF.FileFunction,Soldermask,Top*%
%TF.FilePolarity,Negative*%
%FSLAX46Y46*%
G04 Gerber Fmt 4.6, Leading zero omitted, Abs format (unit mm)*
G04 Created by KiCad (PCBNEW 5.1.10) date 2021-11-06 17:19:15*
%MOMM*%
%LPD*%
G01*
G04 APERTURE LIST*
%ADD10R,1.060000X0.650000*%
%ADD11R,2.000000X1.500000*%
%ADD12R,2.000000X3.800000*%
%ADD13C,0.100000*%
%ADD14R,0.420000X1.300000*%
%ADD15R,1.300000X0.420000*%
%ADD16R,0.650000X1.060000*%
%ADD17R,0.250000X0.150000*%
%ADD18R,0.600000X0.200000*%
%ADD19R,0.200000X0.600000*%
%ADD20C,1.000000*%
%ADD21R,0.900000X0.800000*%
%ADD22O,1.700000X1.700000*%
%ADD23R,1.700000X1.700000*%
%ADD24R,1.400000X0.700000*%
%ADD25R,1.400000X1.600000*%
%ADD26R,2.200000X1.200000*%
%ADD27C,2.300000*%
%ADD28C,3.250000*%
%ADD29C,1.500000*%
%ADD30R,1.500000X1.500000*%
%ADD31R,2.500000X1.800000*%
%ADD32R,0.600000X0.700000*%
%ADD33R,2.000000X0.900000*%
%ADD34R,0.900000X2.000000*%
%ADD35R,5.000000X5.000000*%
%ADD36R,0.800000X1.000000*%
%ADD37R,1.500000X0.700000*%
%ADD38C,0.900000*%
%ADD39R,2.680000X3.600000*%
%ADD40R,0.610000X2.000000*%
%ADD41R,0.350000X0.375000*%
%ADD42R,0.375000X0.350000*%
G04 APERTURE END LIST*
%TO.C,R11*%
G36*
G01*
X126625000Y-144275000D02*
X126625000Y-143725000D01*
G75*
G02*
X126825000Y-143525000I200000J0D01*
G01*
X127225000Y-143525000D01*
G75*
G02*
X127425000Y-143725000I0J-200000D01*
G01*
X127425000Y-144275000D01*
G75*
G02*
X127225000Y-144475000I-200000J0D01*
G01*
X126825000Y-144475000D01*
G75*
G02*
X126625000Y-144275000I0J200000D01*
G01*
G37*
G36*
G01*
X124975000Y-144275000D02*
X124975000Y-143725000D01*
G75*
G02*
X125175000Y-143525000I200000J0D01*
G01*
X125575000Y-143525000D01*
G75*
G02*
X125775000Y-143725000I0J-200000D01*
G01*
X125775000Y-144275000D01*
G75*
G02*
X125575000Y-144475000I-200000J0D01*
G01*
X125175000Y-144475000D01*
G75*
G02*
X124975000Y-144275000I0J200000D01*
G01*
G37*
%TD*%
D10*
%TO.C,U8*%
X119800000Y-135250000D03*
X119800000Y-137150000D03*
X117600000Y-137150000D03*
X117600000Y-136200000D03*
X117600000Y-135250000D03*
%TD*%
D11*
%TO.C,U10*%
X118350000Y-123700000D03*
X118350000Y-128300000D03*
X118350000Y-126000000D03*
D12*
X124650000Y-126000000D03*
%TD*%
D13*
%TO.C,D12*%
G36*
X120793966Y-60261357D02*
G01*
X119843206Y-59374759D01*
X120129646Y-59067591D01*
X121080406Y-59954189D01*
X120793966Y-60261357D01*
G37*
G36*
X121373664Y-59639707D02*
G01*
X120422904Y-58753109D01*
X120709344Y-58445941D01*
X121660104Y-59332539D01*
X121373664Y-59639707D01*
G37*
G36*
X121953363Y-59018056D02*
G01*
X121002603Y-58131458D01*
X121289043Y-57824290D01*
X122239803Y-58710888D01*
X121953363Y-59018056D01*
G37*
G36*
X122533062Y-58396405D02*
G01*
X121582302Y-57509807D01*
X121868742Y-57202639D01*
X122819502Y-58089237D01*
X122533062Y-58396405D01*
G37*
%TD*%
D14*
%TO.C,D11*%
X173275000Y-148000000D03*
X172425000Y-148000000D03*
X171575000Y-148000000D03*
X170725000Y-148000000D03*
%TD*%
D15*
%TO.C,D10*%
X112000000Y-81275000D03*
X112000000Y-80425000D03*
X112000000Y-79575000D03*
X112000000Y-78725000D03*
%TD*%
%TO.C,D9*%
X180000000Y-138725000D03*
X180000000Y-139575000D03*
X180000000Y-140425000D03*
X180000000Y-141275000D03*
%TD*%
%TO.C,D8*%
X112000000Y-101275000D03*
X112000000Y-100425000D03*
X112000000Y-99575000D03*
X112000000Y-98725000D03*
%TD*%
%TO.C,D7*%
X180000000Y-118725000D03*
X180000000Y-119575000D03*
X180000000Y-120425000D03*
X180000000Y-121275000D03*
%TD*%
%TO.C,D6*%
X112000000Y-121275000D03*
X112000000Y-120425000D03*
X112000000Y-119575000D03*
X112000000Y-118725000D03*
%TD*%
%TO.C,D5*%
X180000000Y-98725000D03*
X180000000Y-99575000D03*
X180000000Y-100425000D03*
X180000000Y-101275000D03*
%TD*%
%TO.C,D4*%
X112000000Y-141275000D03*
X112000000Y-140425000D03*
X112000000Y-139575000D03*
X112000000Y-138725000D03*
%TD*%
%TO.C,D3*%
X180000000Y-78725000D03*
X180000000Y-79575000D03*
X180000000Y-80425000D03*
X180000000Y-81275000D03*
%TD*%
D14*
%TO.C,D2*%
X121275000Y-148000000D03*
X120425000Y-148000000D03*
X119575000Y-148000000D03*
X118725000Y-148000000D03*
%TD*%
D13*
%TO.C,D1*%
G36*
X171634263Y-59664976D02*
G01*
X172651653Y-58855707D01*
X172913109Y-59184402D01*
X171895719Y-59993671D01*
X171634263Y-59664976D01*
G37*
G36*
X172163400Y-60330193D02*
G01*
X173180790Y-59520924D01*
X173442246Y-59849619D01*
X172424856Y-60658888D01*
X172163400Y-60330193D01*
G37*
G36*
X172692538Y-60995410D02*
G01*
X173709928Y-60186141D01*
X173971384Y-60514836D01*
X172953994Y-61324105D01*
X172692538Y-60995410D01*
G37*
G36*
X173221675Y-61660627D02*
G01*
X174239065Y-60851358D01*
X174500521Y-61180053D01*
X173483131Y-61989322D01*
X173221675Y-61660627D01*
G37*
%TD*%
D10*
%TO.C,U9*%
X171400000Y-116400000D03*
X171400000Y-115450000D03*
X171400000Y-117350000D03*
X169200000Y-117350000D03*
X169200000Y-116400000D03*
X169200000Y-115450000D03*
%TD*%
D16*
%TO.C,U7*%
X128450000Y-69100000D03*
X126550000Y-69100000D03*
X126550000Y-66900000D03*
X127500000Y-66900000D03*
X128450000Y-66900000D03*
%TD*%
D17*
%TO.C,U4*%
X125025000Y-138125000D03*
D18*
X125200000Y-137700000D03*
D19*
X125200000Y-137050000D03*
X125600000Y-137050000D03*
X126000000Y-137050000D03*
X126400000Y-137050000D03*
X126800000Y-137050000D03*
D18*
X126800000Y-137700000D03*
D19*
X126800000Y-138350000D03*
X126400000Y-138350000D03*
X126000000Y-138350000D03*
X125600000Y-138350000D03*
X125200000Y-138350000D03*
%TD*%
D17*
%TO.C,U3*%
X146975000Y-68325000D03*
D18*
X146800000Y-68750000D03*
D19*
X146800000Y-69400000D03*
X146400000Y-69400000D03*
X146000000Y-69400000D03*
X145600000Y-69400000D03*
X145200000Y-69400000D03*
D18*
X145200000Y-68750000D03*
D19*
X145200000Y-68100000D03*
X145600000Y-68100000D03*
X146000000Y-68100000D03*
X146400000Y-68100000D03*
X146800000Y-68100000D03*
%TD*%
D20*
%TO.C,TP30*%
X164000000Y-60000000D03*
%TD*%
%TO.C,TP29*%
X167000000Y-78000000D03*
%TD*%
%TO.C,TP28*%
X174000000Y-77000000D03*
%TD*%
%TO.C,TP27*%
X125000000Y-78000000D03*
%TD*%
%TO.C,TP26*%
X166000000Y-93000000D03*
%TD*%
%TO.C,TP25*%
X126000000Y-93000000D03*
%TD*%
%TO.C,TP24*%
X126000000Y-97000000D03*
%TD*%
%TO.C,TP23*%
X118000000Y-113000000D03*
%TD*%
%TO.C,TP22*%
X113000000Y-113000000D03*
%TD*%
%TO.C,TP21*%
X135000000Y-63250000D03*
%TD*%
%TO.C,TP20*%
X138000000Y-94000000D03*
%TD*%
%TO.C,TP19*%
X166000000Y-99000000D03*
%TD*%
%TO.C,TP18*%
X176000000Y-142000000D03*
%TD*%
%TO.C,TP17*%
X166000000Y-111000000D03*
%TD*%
%TO.C,TP16*%
X127000000Y-105000000D03*
%TD*%
%TO.C,TP15*%
X124000000Y-117000000D03*
%TD*%
%TO.C,TP14*%
X163000000Y-148000000D03*
%TD*%
%TO.C,TP13*%
X163000000Y-136000000D03*
%TD*%
%TO.C,TP12*%
X162000000Y-132000000D03*
%TD*%
%TO.C,TP11*%
X141000000Y-77000000D03*
%TD*%
%TO.C,TP10*%
X160000000Y-71000000D03*
%TD*%
%TO.C,TP9*%
X158000000Y-64000000D03*
%TD*%
%TO.C,TP8*%
X156000000Y-77000000D03*
%TD*%
%TO.C,TP7*%
X162000000Y-140000000D03*
%TD*%
%TO.C,TP6*%
X124000000Y-113000000D03*
%TD*%
%TO.C,TP5*%
X138000000Y-98000000D03*
%TD*%
%TO.C,TP4*%
X118000000Y-117000000D03*
%TD*%
%TO.C,TP3*%
X126000000Y-109000000D03*
%TD*%
%TO.C,TP2*%
X120000000Y-146250000D03*
%TD*%
%TO.C,TP1*%
X162000000Y-144000000D03*
%TD*%
%TO.C,R25*%
G36*
G01*
X159425000Y-107275000D02*
X159425000Y-106725000D01*
G75*
G02*
X159625000Y-106525000I200000J0D01*
G01*
X160025000Y-106525000D01*
G75*
G02*
X160225000Y-106725000I0J-200000D01*
G01*
X160225000Y-107275000D01*
G75*
G02*
X160025000Y-107475000I-200000J0D01*
G01*
X159625000Y-107475000D01*
G75*
G02*
X159425000Y-107275000I0J200000D01*
G01*
G37*
G36*
G01*
X157775000Y-107275000D02*
X157775000Y-106725000D01*
G75*
G02*
X157975000Y-106525000I200000J0D01*
G01*
X158375000Y-106525000D01*
G75*
G02*
X158575000Y-106725000I0J-200000D01*
G01*
X158575000Y-107275000D01*
G75*
G02*
X158375000Y-107475000I-200000J0D01*
G01*
X157975000Y-107475000D01*
G75*
G02*
X157775000Y-107275000I0J200000D01*
G01*
G37*
%TD*%
%TO.C,R24*%
G36*
G01*
X158425000Y-114275000D02*
X158425000Y-113725000D01*
G75*
G02*
X158625000Y-113525000I200000J0D01*
G01*
X159025000Y-113525000D01*
G75*
G02*
X159225000Y-113725000I0J-200000D01*
G01*
X159225000Y-114275000D01*
G75*
G02*
X159025000Y-114475000I-200000J0D01*
G01*
X158625000Y-114475000D01*
G75*
G02*
X158425000Y-114275000I0J200000D01*
G01*
G37*
G36*
G01*
X156775000Y-114275000D02*
X156775000Y-113725000D01*
G75*
G02*
X156975000Y-113525000I200000J0D01*
G01*
X157375000Y-113525000D01*
G75*
G02*
X157575000Y-113725000I0J-200000D01*
G01*
X157575000Y-114275000D01*
G75*
G02*
X157375000Y-114475000I-200000J0D01*
G01*
X156975000Y-114475000D01*
G75*
G02*
X156775000Y-114275000I0J200000D01*
G01*
G37*
%TD*%
%TO.C,R23*%
G36*
G01*
X147425000Y-77275000D02*
X147425000Y-76725000D01*
G75*
G02*
X147625000Y-76525000I200000J0D01*
G01*
X148025000Y-76525000D01*
G75*
G02*
X148225000Y-76725000I0J-200000D01*
G01*
X148225000Y-77275000D01*
G75*
G02*
X148025000Y-77475000I-200000J0D01*
G01*
X147625000Y-77475000D01*
G75*
G02*
X147425000Y-77275000I0J200000D01*
G01*
G37*
G36*
G01*
X145775000Y-77275000D02*
X145775000Y-76725000D01*
G75*
G02*
X145975000Y-76525000I200000J0D01*
G01*
X146375000Y-76525000D01*
G75*
G02*
X146575000Y-76725000I0J-200000D01*
G01*
X146575000Y-77275000D01*
G75*
G02*
X146375000Y-77475000I-200000J0D01*
G01*
X145975000Y-77475000D01*
G75*
G02*
X145775000Y-77275000I0J200000D01*
G01*
G37*
%TD*%
%TO.C,R22*%
G36*
G01*
X132425000Y-105275000D02*
X132425000Y-104725000D01*
G75*
G02*
X132625000Y-104525000I200000J0D01*
G01*
X133025000Y-104525000D01*
G75*
G02*
X133225000Y-104725000I0J-200000D01*
G01*
X133225000Y-105275000D01*
G75*
G02*
X133025000Y-105475000I-200000J0D01*
G01*
X132625000Y-105475000D01*
G75*
G02*
X132425000Y-105275000I0J200000D01*
G01*
G37*
G36*
G01*
X130775000Y-105275000D02*
X130775000Y-104725000D01*
G75*
G02*
X130975000Y-104525000I200000J0D01*
G01*
X131375000Y-104525000D01*
G75*
G02*
X131575000Y-104725000I0J-200000D01*
G01*
X131575000Y-105275000D01*
G75*
G02*
X131375000Y-105475000I-200000J0D01*
G01*
X130975000Y-105475000D01*
G75*
G02*
X130775000Y-105275000I0J200000D01*
G01*
G37*
%TD*%
%TO.C,R21*%
G36*
G01*
X118325000Y-132225000D02*
X118325000Y-132775000D01*
G75*
G02*
X118125000Y-132975000I-200000J0D01*
G01*
X117725000Y-132975000D01*
G75*
G02*
X117525000Y-132775000I0J200000D01*
G01*
X117525000Y-132225000D01*
G75*
G02*
X117725000Y-132025000I200000J0D01*
G01*
X118125000Y-132025000D01*
G75*
G02*
X118325000Y-132225000I0J-200000D01*
G01*
G37*
G36*
G01*
X119975000Y-132225000D02*
X119975000Y-132775000D01*
G75*
G02*
X119775000Y-132975000I-200000J0D01*
G01*
X119375000Y-132975000D01*
G75*
G02*
X119175000Y-132775000I0J200000D01*
G01*
X119175000Y-132225000D01*
G75*
G02*
X119375000Y-132025000I200000J0D01*
G01*
X119775000Y-132025000D01*
G75*
G02*
X119975000Y-132225000I0J-200000D01*
G01*
G37*
%TD*%
%TO.C,R20*%
G36*
G01*
X119175000Y-131275000D02*
X119175000Y-130725000D01*
G75*
G02*
X119375000Y-130525000I200000J0D01*
G01*
X119775000Y-130525000D01*
G75*
G02*
X119975000Y-130725000I0J-200000D01*
G01*
X119975000Y-131275000D01*
G75*
G02*
X119775000Y-131475000I-200000J0D01*
G01*
X119375000Y-131475000D01*
G75*
G02*
X119175000Y-131275000I0J200000D01*
G01*
G37*
G36*
G01*
X117525000Y-131275000D02*
X117525000Y-130725000D01*
G75*
G02*
X117725000Y-130525000I200000J0D01*
G01*
X118125000Y-130525000D01*
G75*
G02*
X118325000Y-130725000I0J-200000D01*
G01*
X118325000Y-131275000D01*
G75*
G02*
X118125000Y-131475000I-200000J0D01*
G01*
X117725000Y-131475000D01*
G75*
G02*
X117525000Y-131275000I0J200000D01*
G01*
G37*
%TD*%
%TO.C,R19*%
G36*
G01*
X132555000Y-60275000D02*
X132555000Y-59725000D01*
G75*
G02*
X132755000Y-59525000I200000J0D01*
G01*
X133155000Y-59525000D01*
G75*
G02*
X133355000Y-59725000I0J-200000D01*
G01*
X133355000Y-60275000D01*
G75*
G02*
X133155000Y-60475000I-200000J0D01*
G01*
X132755000Y-60475000D01*
G75*
G02*
X132555000Y-60275000I0J200000D01*
G01*
G37*
G36*
G01*
X130905000Y-60275000D02*
X130905000Y-59725000D01*
G75*
G02*
X131105000Y-59525000I200000J0D01*
G01*
X131505000Y-59525000D01*
G75*
G02*
X131705000Y-59725000I0J-200000D01*
G01*
X131705000Y-60275000D01*
G75*
G02*
X131505000Y-60475000I-200000J0D01*
G01*
X131105000Y-60475000D01*
G75*
G02*
X130905000Y-60275000I0J200000D01*
G01*
G37*
%TD*%
%TO.C,R18*%
G36*
G01*
X160295000Y-60275000D02*
X160295000Y-59725000D01*
G75*
G02*
X160495000Y-59525000I200000J0D01*
G01*
X160895000Y-59525000D01*
G75*
G02*
X161095000Y-59725000I0J-200000D01*
G01*
X161095000Y-60275000D01*
G75*
G02*
X160895000Y-60475000I-200000J0D01*
G01*
X160495000Y-60475000D01*
G75*
G02*
X160295000Y-60275000I0J200000D01*
G01*
G37*
G36*
G01*
X158645000Y-60275000D02*
X158645000Y-59725000D01*
G75*
G02*
X158845000Y-59525000I200000J0D01*
G01*
X159245000Y-59525000D01*
G75*
G02*
X159445000Y-59725000I0J-200000D01*
G01*
X159445000Y-60275000D01*
G75*
G02*
X159245000Y-60475000I-200000J0D01*
G01*
X158845000Y-60475000D01*
G75*
G02*
X158645000Y-60275000I0J200000D01*
G01*
G37*
%TD*%
%TO.C,R17*%
G36*
G01*
X179425000Y-147275000D02*
X179425000Y-146725000D01*
G75*
G02*
X179625000Y-146525000I200000J0D01*
G01*
X180025000Y-146525000D01*
G75*
G02*
X180225000Y-146725000I0J-200000D01*
G01*
X180225000Y-147275000D01*
G75*
G02*
X180025000Y-147475000I-200000J0D01*
G01*
X179625000Y-147475000D01*
G75*
G02*
X179425000Y-147275000I0J200000D01*
G01*
G37*
G36*
G01*
X177775000Y-147275000D02*
X177775000Y-146725000D01*
G75*
G02*
X177975000Y-146525000I200000J0D01*
G01*
X178375000Y-146525000D01*
G75*
G02*
X178575000Y-146725000I0J-200000D01*
G01*
X178575000Y-147275000D01*
G75*
G02*
X178375000Y-147475000I-200000J0D01*
G01*
X177975000Y-147475000D01*
G75*
G02*
X177775000Y-147275000I0J200000D01*
G01*
G37*
%TD*%
%TO.C,R16*%
G36*
G01*
X130775000Y-67575000D02*
X130225000Y-67575000D01*
G75*
G02*
X130025000Y-67375000I0J200000D01*
G01*
X130025000Y-66975000D01*
G75*
G02*
X130225000Y-66775000I200000J0D01*
G01*
X130775000Y-66775000D01*
G75*
G02*
X130975000Y-66975000I0J-200000D01*
G01*
X130975000Y-67375000D01*
G75*
G02*
X130775000Y-67575000I-200000J0D01*
G01*
G37*
G36*
G01*
X130775000Y-69225000D02*
X130225000Y-69225000D01*
G75*
G02*
X130025000Y-69025000I0J200000D01*
G01*
X130025000Y-68625000D01*
G75*
G02*
X130225000Y-68425000I200000J0D01*
G01*
X130775000Y-68425000D01*
G75*
G02*
X130975000Y-68625000I0J-200000D01*
G01*
X130975000Y-69025000D01*
G75*
G02*
X130775000Y-69225000I-200000J0D01*
G01*
G37*
%TD*%
%TO.C,R15*%
G36*
G01*
X146425000Y-113275000D02*
X146425000Y-112725000D01*
G75*
G02*
X146625000Y-112525000I200000J0D01*
G01*
X147025000Y-112525000D01*
G75*
G02*
X147225000Y-112725000I0J-200000D01*
G01*
X147225000Y-113275000D01*
G75*
G02*
X147025000Y-113475000I-200000J0D01*
G01*
X146625000Y-113475000D01*
G75*
G02*
X146425000Y-113275000I0J200000D01*
G01*
G37*
G36*
G01*
X144775000Y-113275000D02*
X144775000Y-112725000D01*
G75*
G02*
X144975000Y-112525000I200000J0D01*
G01*
X145375000Y-112525000D01*
G75*
G02*
X145575000Y-112725000I0J-200000D01*
G01*
X145575000Y-113275000D01*
G75*
G02*
X145375000Y-113475000I-200000J0D01*
G01*
X144975000Y-113475000D01*
G75*
G02*
X144775000Y-113275000I0J200000D01*
G01*
G37*
%TD*%
%TO.C,R14*%
G36*
G01*
X165425000Y-105275000D02*
X165425000Y-104725000D01*
G75*
G02*
X165625000Y-104525000I200000J0D01*
G01*
X166025000Y-104525000D01*
G75*
G02*
X166225000Y-104725000I0J-200000D01*
G01*
X166225000Y-105275000D01*
G75*
G02*
X166025000Y-105475000I-200000J0D01*
G01*
X165625000Y-105475000D01*
G75*
G02*
X165425000Y-105275000I0J200000D01*
G01*
G37*
G36*
G01*
X163775000Y-105275000D02*
X163775000Y-104725000D01*
G75*
G02*
X163975000Y-104525000I200000J0D01*
G01*
X164375000Y-104525000D01*
G75*
G02*
X164575000Y-104725000I0J-200000D01*
G01*
X164575000Y-105275000D01*
G75*
G02*
X164375000Y-105475000I-200000J0D01*
G01*
X163975000Y-105475000D01*
G75*
G02*
X163775000Y-105275000I0J200000D01*
G01*
G37*
%TD*%
%TO.C,R13*%
G36*
G01*
X146425000Y-105275000D02*
X146425000Y-104725000D01*
G75*
G02*
X146625000Y-104525000I200000J0D01*
G01*
X147025000Y-104525000D01*
G75*
G02*
X147225000Y-104725000I0J-200000D01*
G01*
X147225000Y-105275000D01*
G75*
G02*
X147025000Y-105475000I-200000J0D01*
G01*
X146625000Y-105475000D01*
G75*
G02*
X146425000Y-105275000I0J200000D01*
G01*
G37*
G36*
G01*
X144775000Y-105275000D02*
X144775000Y-104725000D01*
G75*
G02*
X144975000Y-104525000I200000J0D01*
G01*
X145375000Y-104525000D01*
G75*
G02*
X145575000Y-104725000I0J-200000D01*
G01*
X145575000Y-105275000D01*
G75*
G02*
X145375000Y-105475000I-200000J0D01*
G01*
X144975000Y-105475000D01*
G75*
G02*
X144775000Y-105275000I0J200000D01*
G01*
G37*
%TD*%
%TO.C,R12*%
G36*
G01*
X133475000Y-137775000D02*
X132925000Y-137775000D01*
G75*
G02*
X132725000Y-137575000I0J200000D01*
G01*
X132725000Y-137175000D01*
G75*
G02*
X132925000Y-136975000I200000J0D01*
G01*
X133475000Y-136975000D01*
G75*
G02*
X133675000Y-137175000I0J-200000D01*
G01*
X133675000Y-137575000D01*
G75*
G02*
X133475000Y-137775000I-200000J0D01*
G01*
G37*
G36*
G01*
X133475000Y-139425000D02*
X132925000Y-139425000D01*
G75*
G02*
X132725000Y-139225000I0J200000D01*
G01*
X132725000Y-138825000D01*
G75*
G02*
X132925000Y-138625000I200000J0D01*
G01*
X133475000Y-138625000D01*
G75*
G02*
X133675000Y-138825000I0J-200000D01*
G01*
X133675000Y-139225000D01*
G75*
G02*
X133475000Y-139425000I-200000J0D01*
G01*
G37*
%TD*%
%TO.C,R10*%
G36*
G01*
X148925000Y-121225000D02*
X149475000Y-121225000D01*
G75*
G02*
X149675000Y-121425000I0J-200000D01*
G01*
X149675000Y-121825000D01*
G75*
G02*
X149475000Y-122025000I-200000J0D01*
G01*
X148925000Y-122025000D01*
G75*
G02*
X148725000Y-121825000I0J200000D01*
G01*
X148725000Y-121425000D01*
G75*
G02*
X148925000Y-121225000I200000J0D01*
G01*
G37*
G36*
G01*
X148925000Y-119575000D02*
X149475000Y-119575000D01*
G75*
G02*
X149675000Y-119775000I0J-200000D01*
G01*
X149675000Y-120175000D01*
G75*
G02*
X149475000Y-120375000I-200000J0D01*
G01*
X148925000Y-120375000D01*
G75*
G02*
X148725000Y-120175000I0J200000D01*
G01*
X148725000Y-119775000D01*
G75*
G02*
X148925000Y-119575000I200000J0D01*
G01*
G37*
%TD*%
%TO.C,R9*%
G36*
G01*
X143925000Y-121225000D02*
X144475000Y-121225000D01*
G75*
G02*
X144675000Y-121425000I0J-200000D01*
G01*
X144675000Y-121825000D01*
G75*
G02*
X144475000Y-122025000I-200000J0D01*
G01*
X143925000Y-122025000D01*
G75*
G02*
X143725000Y-121825000I0J200000D01*
G01*
X143725000Y-121425000D01*
G75*
G02*
X143925000Y-121225000I200000J0D01*
G01*
G37*
G36*
G01*
X143925000Y-119575000D02*
X144475000Y-119575000D01*
G75*
G02*
X144675000Y-119775000I0J-200000D01*
G01*
X144675000Y-120175000D01*
G75*
G02*
X144475000Y-120375000I-200000J0D01*
G01*
X143925000Y-120375000D01*
G75*
G02*
X143725000Y-120175000I0J200000D01*
G01*
X143725000Y-119775000D01*
G75*
G02*
X143925000Y-119575000I200000J0D01*
G01*
G37*
%TD*%
%TO.C,R8*%
G36*
G01*
X134875000Y-137775000D02*
X134325000Y-137775000D01*
G75*
G02*
X134125000Y-137575000I0J200000D01*
G01*
X134125000Y-137175000D01*
G75*
G02*
X134325000Y-136975000I200000J0D01*
G01*
X134875000Y-136975000D01*
G75*
G02*
X135075000Y-137175000I0J-200000D01*
G01*
X135075000Y-137575000D01*
G75*
G02*
X134875000Y-137775000I-200000J0D01*
G01*
G37*
G36*
G01*
X134875000Y-139425000D02*
X134325000Y-139425000D01*
G75*
G02*
X134125000Y-139225000I0J200000D01*
G01*
X134125000Y-138825000D01*
G75*
G02*
X134325000Y-138625000I200000J0D01*
G01*
X134875000Y-138625000D01*
G75*
G02*
X135075000Y-138825000I0J-200000D01*
G01*
X135075000Y-139225000D01*
G75*
G02*
X134875000Y-139425000I-200000J0D01*
G01*
G37*
%TD*%
%TO.C,R7*%
G36*
G01*
X148925000Y-69225000D02*
X149475000Y-69225000D01*
G75*
G02*
X149675000Y-69425000I0J-200000D01*
G01*
X149675000Y-69825000D01*
G75*
G02*
X149475000Y-70025000I-200000J0D01*
G01*
X148925000Y-70025000D01*
G75*
G02*
X148725000Y-69825000I0J200000D01*
G01*
X148725000Y-69425000D01*
G75*
G02*
X148925000Y-69225000I200000J0D01*
G01*
G37*
G36*
G01*
X148925000Y-67575000D02*
X149475000Y-67575000D01*
G75*
G02*
X149675000Y-67775000I0J-200000D01*
G01*
X149675000Y-68175000D01*
G75*
G02*
X149475000Y-68375000I-200000J0D01*
G01*
X148925000Y-68375000D01*
G75*
G02*
X148725000Y-68175000I0J200000D01*
G01*
X148725000Y-67775000D01*
G75*
G02*
X148925000Y-67575000I200000J0D01*
G01*
G37*
%TD*%
%TO.C,R6*%
G36*
G01*
X142525000Y-121225000D02*
X143075000Y-121225000D01*
G75*
G02*
X143275000Y-121425000I0J-200000D01*
G01*
X143275000Y-121825000D01*
G75*
G02*
X143075000Y-122025000I-200000J0D01*
G01*
X142525000Y-122025000D01*
G75*
G02*
X142325000Y-121825000I0J200000D01*
G01*
X142325000Y-121425000D01*
G75*
G02*
X142525000Y-121225000I200000J0D01*
G01*
G37*
G36*
G01*
X142525000Y-119575000D02*
X143075000Y-119575000D01*
G75*
G02*
X143275000Y-119775000I0J-200000D01*
G01*
X143275000Y-120175000D01*
G75*
G02*
X143075000Y-120375000I-200000J0D01*
G01*
X142525000Y-120375000D01*
G75*
G02*
X142325000Y-120175000I0J200000D01*
G01*
X142325000Y-119775000D01*
G75*
G02*
X142525000Y-119575000I200000J0D01*
G01*
G37*
%TD*%
%TO.C,R5*%
G36*
G01*
X146425000Y-117275000D02*
X146425000Y-116725000D01*
G75*
G02*
X146625000Y-116525000I200000J0D01*
G01*
X147025000Y-116525000D01*
G75*
G02*
X147225000Y-116725000I0J-200000D01*
G01*
X147225000Y-117275000D01*
G75*
G02*
X147025000Y-117475000I-200000J0D01*
G01*
X146625000Y-117475000D01*
G75*
G02*
X146425000Y-117275000I0J200000D01*
G01*
G37*
G36*
G01*
X144775000Y-117275000D02*
X144775000Y-116725000D01*
G75*
G02*
X144975000Y-116525000I200000J0D01*
G01*
X145375000Y-116525000D01*
G75*
G02*
X145575000Y-116725000I0J-200000D01*
G01*
X145575000Y-117275000D01*
G75*
G02*
X145375000Y-117475000I-200000J0D01*
G01*
X144975000Y-117475000D01*
G75*
G02*
X144775000Y-117275000I0J200000D01*
G01*
G37*
%TD*%
%TO.C,R4*%
G36*
G01*
X134425000Y-115275000D02*
X134425000Y-114725000D01*
G75*
G02*
X134625000Y-114525000I200000J0D01*
G01*
X135025000Y-114525000D01*
G75*
G02*
X135225000Y-114725000I0J-200000D01*
G01*
X135225000Y-115275000D01*
G75*
G02*
X135025000Y-115475000I-200000J0D01*
G01*
X134625000Y-115475000D01*
G75*
G02*
X134425000Y-115275000I0J200000D01*
G01*
G37*
G36*
G01*
X132775000Y-115275000D02*
X132775000Y-114725000D01*
G75*
G02*
X132975000Y-114525000I200000J0D01*
G01*
X133375000Y-114525000D01*
G75*
G02*
X133575000Y-114725000I0J-200000D01*
G01*
X133575000Y-115275000D01*
G75*
G02*
X133375000Y-115475000I-200000J0D01*
G01*
X132975000Y-115475000D01*
G75*
G02*
X132775000Y-115275000I0J200000D01*
G01*
G37*
%TD*%
%TO.C,R3*%
G36*
G01*
X151425000Y-72275000D02*
X151425000Y-71725000D01*
G75*
G02*
X151625000Y-71525000I200000J0D01*
G01*
X152025000Y-71525000D01*
G75*
G02*
X152225000Y-71725000I0J-200000D01*
G01*
X152225000Y-72275000D01*
G75*
G02*
X152025000Y-72475000I-200000J0D01*
G01*
X151625000Y-72475000D01*
G75*
G02*
X151425000Y-72275000I0J200000D01*
G01*
G37*
G36*
G01*
X149775000Y-72275000D02*
X149775000Y-71725000D01*
G75*
G02*
X149975000Y-71525000I200000J0D01*
G01*
X150375000Y-71525000D01*
G75*
G02*
X150575000Y-71725000I0J-200000D01*
G01*
X150575000Y-72275000D01*
G75*
G02*
X150375000Y-72475000I-200000J0D01*
G01*
X149975000Y-72475000D01*
G75*
G02*
X149775000Y-72275000I0J200000D01*
G01*
G37*
%TD*%
%TO.C,R2*%
G36*
G01*
X138425000Y-71275000D02*
X138425000Y-70725000D01*
G75*
G02*
X138625000Y-70525000I200000J0D01*
G01*
X139025000Y-70525000D01*
G75*
G02*
X139225000Y-70725000I0J-200000D01*
G01*
X139225000Y-71275000D01*
G75*
G02*
X139025000Y-71475000I-200000J0D01*
G01*
X138625000Y-71475000D01*
G75*
G02*
X138425000Y-71275000I0J200000D01*
G01*
G37*
G36*
G01*
X136775000Y-71275000D02*
X136775000Y-70725000D01*
G75*
G02*
X136975000Y-70525000I200000J0D01*
G01*
X137375000Y-70525000D01*
G75*
G02*
X137575000Y-70725000I0J-200000D01*
G01*
X137575000Y-71275000D01*
G75*
G02*
X137375000Y-71475000I-200000J0D01*
G01*
X136975000Y-71475000D01*
G75*
G02*
X136775000Y-71275000I0J200000D01*
G01*
G37*
%TD*%
%TO.C,R1*%
G36*
G01*
X146425000Y-109275000D02*
X146425000Y-108725000D01*
G75*
G02*
X146625000Y-108525000I200000J0D01*
G01*
X147025000Y-108525000D01*
G75*
G02*
X147225000Y-108725000I0J-200000D01*
G01*
X147225000Y-109275000D01*
G75*
G02*
X147025000Y-109475000I-200000J0D01*
G01*
X146625000Y-109475000D01*
G75*
G02*
X146425000Y-109275000I0J200000D01*
G01*
G37*
G36*
G01*
X144775000Y-109275000D02*
X144775000Y-108725000D01*
G75*
G02*
X144975000Y-108525000I200000J0D01*
G01*
X145375000Y-108525000D01*
G75*
G02*
X145575000Y-108725000I0J-200000D01*
G01*
X145575000Y-109275000D01*
G75*
G02*
X145375000Y-109475000I-200000J0D01*
G01*
X144975000Y-109475000D01*
G75*
G02*
X144775000Y-109275000I0J200000D01*
G01*
G37*
%TD*%
D21*
%TO.C,Q2*%
X140000000Y-114000000D03*
X138000000Y-114950000D03*
X138000000Y-113050000D03*
%TD*%
%TO.C,Q1*%
X152000000Y-115000000D03*
X150000000Y-115950000D03*
X150000000Y-114050000D03*
%TD*%
%TO.C,L1*%
G36*
G01*
X176775000Y-117075000D02*
X176775000Y-114925000D01*
G75*
G02*
X177025000Y-114675000I250000J0D01*
G01*
X177775000Y-114675000D01*
G75*
G02*
X178025000Y-114925000I0J-250000D01*
G01*
X178025000Y-117075000D01*
G75*
G02*
X177775000Y-117325000I-250000J0D01*
G01*
X177025000Y-117325000D01*
G75*
G02*
X176775000Y-117075000I0J250000D01*
G01*
G37*
G36*
G01*
X173975000Y-117075000D02*
X173975000Y-114925000D01*
G75*
G02*
X174225000Y-114675000I250000J0D01*
G01*
X174975000Y-114675000D01*
G75*
G02*
X175225000Y-114925000I0J-250000D01*
G01*
X175225000Y-117075000D01*
G75*
G02*
X174975000Y-117325000I-250000J0D01*
G01*
X174225000Y-117325000D01*
G75*
G02*
X173975000Y-117075000I0J250000D01*
G01*
G37*
%TD*%
D22*
%TO.C,J3*%
X119540000Y-74000000D03*
D23*
X117000000Y-74000000D03*
%TD*%
D24*
%TO.C,J2*%
X166300000Y-127525000D03*
X166300000Y-128625000D03*
X166300000Y-129725000D03*
X166300000Y-130825000D03*
X166300000Y-131925000D03*
X166300000Y-133025000D03*
X166300000Y-134125000D03*
X166300000Y-135225000D03*
X166300000Y-136325000D03*
D25*
X166900000Y-137775000D03*
X166900000Y-122925000D03*
D26*
X176500000Y-137525000D03*
X176500000Y-122025000D03*
%TD*%
D27*
%TO.C,J1*%
X137780000Y-58880000D03*
X154040000Y-58880000D03*
D28*
X152260000Y-55450000D03*
X139560000Y-55450000D03*
D29*
X149462000Y-59770000D03*
X147430000Y-59770000D03*
X145398000Y-59770000D03*
X143366000Y-59770000D03*
X148446000Y-57990000D03*
X146414000Y-57990000D03*
X144382000Y-57990000D03*
D30*
X142350000Y-57990000D03*
%TD*%
D31*
%TO.C,D17*%
X141000000Y-108000000D03*
X137000000Y-108000000D03*
%TD*%
D32*
%TO.C,D16*%
X129300000Y-144000000D03*
X130700000Y-144000000D03*
%TD*%
%TO.C,D15*%
X129300000Y-115000000D03*
X130700000Y-115000000D03*
%TD*%
%TO.C,D14*%
G36*
G01*
X132905000Y-53575000D02*
X132905000Y-51425000D01*
G75*
G02*
X133155000Y-51175000I250000J0D01*
G01*
X133905000Y-51175000D01*
G75*
G02*
X134155000Y-51425000I0J-250000D01*
G01*
X134155000Y-53575000D01*
G75*
G02*
X133905000Y-53825000I-250000J0D01*
G01*
X133155000Y-53825000D01*
G75*
G02*
X132905000Y-53575000I0J250000D01*
G01*
G37*
G36*
G01*
X130105000Y-53575000D02*
X130105000Y-51425000D01*
G75*
G02*
X130355000Y-51175000I250000J0D01*
G01*
X131105000Y-51175000D01*
G75*
G02*
X131355000Y-51425000I0J-250000D01*
G01*
X131355000Y-53575000D01*
G75*
G02*
X131105000Y-53825000I-250000J0D01*
G01*
X130355000Y-53825000D01*
G75*
G02*
X130105000Y-53575000I0J250000D01*
G01*
G37*
%TD*%
%TO.C,D13*%
G36*
G01*
X160645000Y-53575000D02*
X160645000Y-51425000D01*
G75*
G02*
X160895000Y-51175000I250000J0D01*
G01*
X161645000Y-51175000D01*
G75*
G02*
X161895000Y-51425000I0J-250000D01*
G01*
X161895000Y-53575000D01*
G75*
G02*
X161645000Y-53825000I-250000J0D01*
G01*
X160895000Y-53825000D01*
G75*
G02*
X160645000Y-53575000I0J250000D01*
G01*
G37*
G36*
G01*
X157845000Y-53575000D02*
X157845000Y-51425000D01*
G75*
G02*
X158095000Y-51175000I250000J0D01*
G01*
X158845000Y-51175000D01*
G75*
G02*
X159095000Y-51425000I0J-250000D01*
G01*
X159095000Y-53575000D01*
G75*
G02*
X158845000Y-53825000I-250000J0D01*
G01*
X158095000Y-53825000D01*
G75*
G02*
X157845000Y-53575000I0J250000D01*
G01*
G37*
%TD*%
%TO.C,C32*%
G36*
G01*
X167325000Y-145250000D02*
X167325000Y-144750000D01*
G75*
G02*
X167550000Y-144525000I225000J0D01*
G01*
X168000000Y-144525000D01*
G75*
G02*
X168225000Y-144750000I0J-225000D01*
G01*
X168225000Y-145250000D01*
G75*
G02*
X168000000Y-145475000I-225000J0D01*
G01*
X167550000Y-145475000D01*
G75*
G02*
X167325000Y-145250000I0J225000D01*
G01*
G37*
G36*
G01*
X165775000Y-145250000D02*
X165775000Y-144750000D01*
G75*
G02*
X166000000Y-144525000I225000J0D01*
G01*
X166450000Y-144525000D01*
G75*
G02*
X166675000Y-144750000I0J-225000D01*
G01*
X166675000Y-145250000D01*
G75*
G02*
X166450000Y-145475000I-225000J0D01*
G01*
X166000000Y-145475000D01*
G75*
G02*
X165775000Y-145250000I0J225000D01*
G01*
G37*
%TD*%
%TO.C,C31*%
G36*
G01*
X133325000Y-93250000D02*
X133325000Y-92750000D01*
G75*
G02*
X133550000Y-92525000I225000J0D01*
G01*
X134000000Y-92525000D01*
G75*
G02*
X134225000Y-92750000I0J-225000D01*
G01*
X134225000Y-93250000D01*
G75*
G02*
X134000000Y-93475000I-225000J0D01*
G01*
X133550000Y-93475000D01*
G75*
G02*
X133325000Y-93250000I0J225000D01*
G01*
G37*
G36*
G01*
X131775000Y-93250000D02*
X131775000Y-92750000D01*
G75*
G02*
X132000000Y-92525000I225000J0D01*
G01*
X132450000Y-92525000D01*
G75*
G02*
X132675000Y-92750000I0J-225000D01*
G01*
X132675000Y-93250000D01*
G75*
G02*
X132450000Y-93475000I-225000J0D01*
G01*
X132000000Y-93475000D01*
G75*
G02*
X131775000Y-93250000I0J225000D01*
G01*
G37*
%TD*%
%TO.C,C30*%
G36*
G01*
X127325000Y-148250000D02*
X127325000Y-147750000D01*
G75*
G02*
X127550000Y-147525000I225000J0D01*
G01*
X128000000Y-147525000D01*
G75*
G02*
X128225000Y-147750000I0J-225000D01*
G01*
X128225000Y-148250000D01*
G75*
G02*
X128000000Y-148475000I-225000J0D01*
G01*
X127550000Y-148475000D01*
G75*
G02*
X127325000Y-148250000I0J225000D01*
G01*
G37*
G36*
G01*
X125775000Y-148250000D02*
X125775000Y-147750000D01*
G75*
G02*
X126000000Y-147525000I225000J0D01*
G01*
X126450000Y-147525000D01*
G75*
G02*
X126675000Y-147750000I0J-225000D01*
G01*
X126675000Y-148250000D01*
G75*
G02*
X126450000Y-148475000I-225000J0D01*
G01*
X126000000Y-148475000D01*
G75*
G02*
X125775000Y-148250000I0J225000D01*
G01*
G37*
%TD*%
%TO.C,C29*%
G36*
G01*
X112325000Y-146250000D02*
X112325000Y-145750000D01*
G75*
G02*
X112550000Y-145525000I225000J0D01*
G01*
X113000000Y-145525000D01*
G75*
G02*
X113225000Y-145750000I0J-225000D01*
G01*
X113225000Y-146250000D01*
G75*
G02*
X113000000Y-146475000I-225000J0D01*
G01*
X112550000Y-146475000D01*
G75*
G02*
X112325000Y-146250000I0J225000D01*
G01*
G37*
G36*
G01*
X110775000Y-146250000D02*
X110775000Y-145750000D01*
G75*
G02*
X111000000Y-145525000I225000J0D01*
G01*
X111450000Y-145525000D01*
G75*
G02*
X111675000Y-145750000I0J-225000D01*
G01*
X111675000Y-146250000D01*
G75*
G02*
X111450000Y-146475000I-225000J0D01*
G01*
X111000000Y-146475000D01*
G75*
G02*
X110775000Y-146250000I0J225000D01*
G01*
G37*
%TD*%
%TO.C,C28*%
G36*
G01*
X168325000Y-56250000D02*
X168325000Y-55750000D01*
G75*
G02*
X168550000Y-55525000I225000J0D01*
G01*
X169000000Y-55525000D01*
G75*
G02*
X169225000Y-55750000I0J-225000D01*
G01*
X169225000Y-56250000D01*
G75*
G02*
X169000000Y-56475000I-225000J0D01*
G01*
X168550000Y-56475000D01*
G75*
G02*
X168325000Y-56250000I0J225000D01*
G01*
G37*
G36*
G01*
X166775000Y-56250000D02*
X166775000Y-55750000D01*
G75*
G02*
X167000000Y-55525000I225000J0D01*
G01*
X167450000Y-55525000D01*
G75*
G02*
X167675000Y-55750000I0J-225000D01*
G01*
X167675000Y-56250000D01*
G75*
G02*
X167450000Y-56475000I-225000J0D01*
G01*
X167000000Y-56475000D01*
G75*
G02*
X166775000Y-56250000I0J225000D01*
G01*
G37*
%TD*%
%TO.C,C27*%
G36*
G01*
X121250000Y-136425000D02*
X121750000Y-136425000D01*
G75*
G02*
X121975000Y-136650000I0J-225000D01*
G01*
X121975000Y-137100000D01*
G75*
G02*
X121750000Y-137325000I-225000J0D01*
G01*
X121250000Y-137325000D01*
G75*
G02*
X121025000Y-137100000I0J225000D01*
G01*
X121025000Y-136650000D01*
G75*
G02*
X121250000Y-136425000I225000J0D01*
G01*
G37*
G36*
G01*
X121250000Y-134875000D02*
X121750000Y-134875000D01*
G75*
G02*
X121975000Y-135100000I0J-225000D01*
G01*
X121975000Y-135550000D01*
G75*
G02*
X121750000Y-135775000I-225000J0D01*
G01*
X121250000Y-135775000D01*
G75*
G02*
X121025000Y-135550000I0J225000D01*
G01*
X121025000Y-135100000D01*
G75*
G02*
X121250000Y-134875000I225000J0D01*
G01*
G37*
%TD*%
%TO.C,C26*%
G36*
G01*
X167325000Y-71250000D02*
X167325000Y-70750000D01*
G75*
G02*
X167550000Y-70525000I225000J0D01*
G01*
X168000000Y-70525000D01*
G75*
G02*
X168225000Y-70750000I0J-225000D01*
G01*
X168225000Y-71250000D01*
G75*
G02*
X168000000Y-71475000I-225000J0D01*
G01*
X167550000Y-71475000D01*
G75*
G02*
X167325000Y-71250000I0J225000D01*
G01*
G37*
G36*
G01*
X165775000Y-71250000D02*
X165775000Y-70750000D01*
G75*
G02*
X166000000Y-70525000I225000J0D01*
G01*
X166450000Y-70525000D01*
G75*
G02*
X166675000Y-70750000I0J-225000D01*
G01*
X166675000Y-71250000D01*
G75*
G02*
X166450000Y-71475000I-225000J0D01*
G01*
X166000000Y-71475000D01*
G75*
G02*
X165775000Y-71250000I0J225000D01*
G01*
G37*
%TD*%
%TO.C,C25*%
G36*
G01*
X137325000Y-77250000D02*
X137325000Y-76750000D01*
G75*
G02*
X137550000Y-76525000I225000J0D01*
G01*
X138000000Y-76525000D01*
G75*
G02*
X138225000Y-76750000I0J-225000D01*
G01*
X138225000Y-77250000D01*
G75*
G02*
X138000000Y-77475000I-225000J0D01*
G01*
X137550000Y-77475000D01*
G75*
G02*
X137325000Y-77250000I0J225000D01*
G01*
G37*
G36*
G01*
X135775000Y-77250000D02*
X135775000Y-76750000D01*
G75*
G02*
X136000000Y-76525000I225000J0D01*
G01*
X136450000Y-76525000D01*
G75*
G02*
X136675000Y-76750000I0J-225000D01*
G01*
X136675000Y-77250000D01*
G75*
G02*
X136450000Y-77475000I-225000J0D01*
G01*
X136000000Y-77475000D01*
G75*
G02*
X135775000Y-77250000I0J225000D01*
G01*
G37*
%TD*%
%TO.C,C24*%
G36*
G01*
X164325000Y-115250000D02*
X164325000Y-114750000D01*
G75*
G02*
X164550000Y-114525000I225000J0D01*
G01*
X165000000Y-114525000D01*
G75*
G02*
X165225000Y-114750000I0J-225000D01*
G01*
X165225000Y-115250000D01*
G75*
G02*
X165000000Y-115475000I-225000J0D01*
G01*
X164550000Y-115475000D01*
G75*
G02*
X164325000Y-115250000I0J225000D01*
G01*
G37*
G36*
G01*
X162775000Y-115250000D02*
X162775000Y-114750000D01*
G75*
G02*
X163000000Y-114525000I225000J0D01*
G01*
X163450000Y-114525000D01*
G75*
G02*
X163675000Y-114750000I0J-225000D01*
G01*
X163675000Y-115250000D01*
G75*
G02*
X163450000Y-115475000I-225000J0D01*
G01*
X163000000Y-115475000D01*
G75*
G02*
X162775000Y-115250000I0J225000D01*
G01*
G37*
%TD*%
%TO.C,C23*%
G36*
G01*
X156325000Y-71250000D02*
X156325000Y-70750000D01*
G75*
G02*
X156550000Y-70525000I225000J0D01*
G01*
X157000000Y-70525000D01*
G75*
G02*
X157225000Y-70750000I0J-225000D01*
G01*
X157225000Y-71250000D01*
G75*
G02*
X157000000Y-71475000I-225000J0D01*
G01*
X156550000Y-71475000D01*
G75*
G02*
X156325000Y-71250000I0J225000D01*
G01*
G37*
G36*
G01*
X154775000Y-71250000D02*
X154775000Y-70750000D01*
G75*
G02*
X155000000Y-70525000I225000J0D01*
G01*
X155450000Y-70525000D01*
G75*
G02*
X155675000Y-70750000I0J-225000D01*
G01*
X155675000Y-71250000D01*
G75*
G02*
X155450000Y-71475000I-225000J0D01*
G01*
X155000000Y-71475000D01*
G75*
G02*
X154775000Y-71250000I0J225000D01*
G01*
G37*
%TD*%
%TO.C,C22*%
G36*
G01*
X133325000Y-72250000D02*
X133325000Y-71750000D01*
G75*
G02*
X133550000Y-71525000I225000J0D01*
G01*
X134000000Y-71525000D01*
G75*
G02*
X134225000Y-71750000I0J-225000D01*
G01*
X134225000Y-72250000D01*
G75*
G02*
X134000000Y-72475000I-225000J0D01*
G01*
X133550000Y-72475000D01*
G75*
G02*
X133325000Y-72250000I0J225000D01*
G01*
G37*
G36*
G01*
X131775000Y-72250000D02*
X131775000Y-71750000D01*
G75*
G02*
X132000000Y-71525000I225000J0D01*
G01*
X132450000Y-71525000D01*
G75*
G02*
X132675000Y-71750000I0J-225000D01*
G01*
X132675000Y-72250000D01*
G75*
G02*
X132450000Y-72475000I-225000J0D01*
G01*
X132000000Y-72475000D01*
G75*
G02*
X131775000Y-72250000I0J225000D01*
G01*
G37*
%TD*%
%TO.C,C21*%
G36*
G01*
X133325000Y-97250000D02*
X133325000Y-96750000D01*
G75*
G02*
X133550000Y-96525000I225000J0D01*
G01*
X134000000Y-96525000D01*
G75*
G02*
X134225000Y-96750000I0J-225000D01*
G01*
X134225000Y-97250000D01*
G75*
G02*
X134000000Y-97475000I-225000J0D01*
G01*
X133550000Y-97475000D01*
G75*
G02*
X133325000Y-97250000I0J225000D01*
G01*
G37*
G36*
G01*
X131775000Y-97250000D02*
X131775000Y-96750000D01*
G75*
G02*
X132000000Y-96525000I225000J0D01*
G01*
X132450000Y-96525000D01*
G75*
G02*
X132675000Y-96750000I0J-225000D01*
G01*
X132675000Y-97250000D01*
G75*
G02*
X132450000Y-97475000I-225000J0D01*
G01*
X132000000Y-97475000D01*
G75*
G02*
X131775000Y-97250000I0J225000D01*
G01*
G37*
%TD*%
%TO.C,C20*%
G36*
G01*
X122075000Y-131250000D02*
X122075000Y-130750000D01*
G75*
G02*
X122300000Y-130525000I225000J0D01*
G01*
X122750000Y-130525000D01*
G75*
G02*
X122975000Y-130750000I0J-225000D01*
G01*
X122975000Y-131250000D01*
G75*
G02*
X122750000Y-131475000I-225000J0D01*
G01*
X122300000Y-131475000D01*
G75*
G02*
X122075000Y-131250000I0J225000D01*
G01*
G37*
G36*
G01*
X120525000Y-131250000D02*
X120525000Y-130750000D01*
G75*
G02*
X120750000Y-130525000I225000J0D01*
G01*
X121200000Y-130525000D01*
G75*
G02*
X121425000Y-130750000I0J-225000D01*
G01*
X121425000Y-131250000D01*
G75*
G02*
X121200000Y-131475000I-225000J0D01*
G01*
X120750000Y-131475000D01*
G75*
G02*
X120525000Y-131250000I0J225000D01*
G01*
G37*
%TD*%
%TO.C,C19*%
G36*
G01*
X152325000Y-77250000D02*
X152325000Y-76750000D01*
G75*
G02*
X152550000Y-76525000I225000J0D01*
G01*
X153000000Y-76525000D01*
G75*
G02*
X153225000Y-76750000I0J-225000D01*
G01*
X153225000Y-77250000D01*
G75*
G02*
X153000000Y-77475000I-225000J0D01*
G01*
X152550000Y-77475000D01*
G75*
G02*
X152325000Y-77250000I0J225000D01*
G01*
G37*
G36*
G01*
X150775000Y-77250000D02*
X150775000Y-76750000D01*
G75*
G02*
X151000000Y-76525000I225000J0D01*
G01*
X151450000Y-76525000D01*
G75*
G02*
X151675000Y-76750000I0J-225000D01*
G01*
X151675000Y-77250000D01*
G75*
G02*
X151450000Y-77475000I-225000J0D01*
G01*
X151000000Y-77475000D01*
G75*
G02*
X150775000Y-77250000I0J225000D01*
G01*
G37*
%TD*%
%TO.C,C18*%
G36*
G01*
X123000000Y-74325000D02*
X123500000Y-74325000D01*
G75*
G02*
X123725000Y-74550000I0J-225000D01*
G01*
X123725000Y-75000000D01*
G75*
G02*
X123500000Y-75225000I-225000J0D01*
G01*
X123000000Y-75225000D01*
G75*
G02*
X122775000Y-75000000I0J225000D01*
G01*
X122775000Y-74550000D01*
G75*
G02*
X123000000Y-74325000I225000J0D01*
G01*
G37*
G36*
G01*
X123000000Y-72775000D02*
X123500000Y-72775000D01*
G75*
G02*
X123725000Y-73000000I0J-225000D01*
G01*
X123725000Y-73450000D01*
G75*
G02*
X123500000Y-73675000I-225000J0D01*
G01*
X123000000Y-73675000D01*
G75*
G02*
X122775000Y-73450000I0J225000D01*
G01*
X122775000Y-73000000D01*
G75*
G02*
X123000000Y-72775000I225000J0D01*
G01*
G37*
%TD*%
%TO.C,C17*%
G36*
G01*
X125000000Y-67675000D02*
X124500000Y-67675000D01*
G75*
G02*
X124275000Y-67450000I0J225000D01*
G01*
X124275000Y-67000000D01*
G75*
G02*
X124500000Y-66775000I225000J0D01*
G01*
X125000000Y-66775000D01*
G75*
G02*
X125225000Y-67000000I0J-225000D01*
G01*
X125225000Y-67450000D01*
G75*
G02*
X125000000Y-67675000I-225000J0D01*
G01*
G37*
G36*
G01*
X125000000Y-69225000D02*
X124500000Y-69225000D01*
G75*
G02*
X124275000Y-69000000I0J225000D01*
G01*
X124275000Y-68550000D01*
G75*
G02*
X124500000Y-68325000I225000J0D01*
G01*
X125000000Y-68325000D01*
G75*
G02*
X125225000Y-68550000I0J-225000D01*
G01*
X125225000Y-69000000D01*
G75*
G02*
X125000000Y-69225000I-225000J0D01*
G01*
G37*
%TD*%
%TO.C,C16*%
G36*
G01*
X153325000Y-108250000D02*
X153325000Y-107750000D01*
G75*
G02*
X153550000Y-107525000I225000J0D01*
G01*
X154000000Y-107525000D01*
G75*
G02*
X154225000Y-107750000I0J-225000D01*
G01*
X154225000Y-108250000D01*
G75*
G02*
X154000000Y-108475000I-225000J0D01*
G01*
X153550000Y-108475000D01*
G75*
G02*
X153325000Y-108250000I0J225000D01*
G01*
G37*
G36*
G01*
X151775000Y-108250000D02*
X151775000Y-107750000D01*
G75*
G02*
X152000000Y-107525000I225000J0D01*
G01*
X152450000Y-107525000D01*
G75*
G02*
X152675000Y-107750000I0J-225000D01*
G01*
X152675000Y-108250000D01*
G75*
G02*
X152450000Y-108475000I-225000J0D01*
G01*
X152000000Y-108475000D01*
G75*
G02*
X151775000Y-108250000I0J225000D01*
G01*
G37*
%TD*%
%TO.C,C15*%
G36*
G01*
X147325000Y-96250000D02*
X147325000Y-95750000D01*
G75*
G02*
X147550000Y-95525000I225000J0D01*
G01*
X148000000Y-95525000D01*
G75*
G02*
X148225000Y-95750000I0J-225000D01*
G01*
X148225000Y-96250000D01*
G75*
G02*
X148000000Y-96475000I-225000J0D01*
G01*
X147550000Y-96475000D01*
G75*
G02*
X147325000Y-96250000I0J225000D01*
G01*
G37*
G36*
G01*
X145775000Y-96250000D02*
X145775000Y-95750000D01*
G75*
G02*
X146000000Y-95525000I225000J0D01*
G01*
X146450000Y-95525000D01*
G75*
G02*
X146675000Y-95750000I0J-225000D01*
G01*
X146675000Y-96250000D01*
G75*
G02*
X146450000Y-96475000I-225000J0D01*
G01*
X146000000Y-96475000D01*
G75*
G02*
X145775000Y-96250000I0J225000D01*
G01*
G37*
%TD*%
%TO.C,C14*%
G36*
G01*
X168325000Y-60250000D02*
X168325000Y-59750000D01*
G75*
G02*
X168550000Y-59525000I225000J0D01*
G01*
X169000000Y-59525000D01*
G75*
G02*
X169225000Y-59750000I0J-225000D01*
G01*
X169225000Y-60250000D01*
G75*
G02*
X169000000Y-60475000I-225000J0D01*
G01*
X168550000Y-60475000D01*
G75*
G02*
X168325000Y-60250000I0J225000D01*
G01*
G37*
G36*
G01*
X166775000Y-60250000D02*
X166775000Y-59750000D01*
G75*
G02*
X167000000Y-59525000I225000J0D01*
G01*
X167450000Y-59525000D01*
G75*
G02*
X167675000Y-59750000I0J-225000D01*
G01*
X167675000Y-60250000D01*
G75*
G02*
X167450000Y-60475000I-225000J0D01*
G01*
X167000000Y-60475000D01*
G75*
G02*
X166775000Y-60250000I0J225000D01*
G01*
G37*
%TD*%
%TO.C,C13*%
G36*
G01*
X142325000Y-96250000D02*
X142325000Y-95750000D01*
G75*
G02*
X142550000Y-95525000I225000J0D01*
G01*
X143000000Y-95525000D01*
G75*
G02*
X143225000Y-95750000I0J-225000D01*
G01*
X143225000Y-96250000D01*
G75*
G02*
X143000000Y-96475000I-225000J0D01*
G01*
X142550000Y-96475000D01*
G75*
G02*
X142325000Y-96250000I0J225000D01*
G01*
G37*
G36*
G01*
X140775000Y-96250000D02*
X140775000Y-95750000D01*
G75*
G02*
X141000000Y-95525000I225000J0D01*
G01*
X141450000Y-95525000D01*
G75*
G02*
X141675000Y-95750000I0J-225000D01*
G01*
X141675000Y-96250000D01*
G75*
G02*
X141450000Y-96475000I-225000J0D01*
G01*
X141000000Y-96475000D01*
G75*
G02*
X140775000Y-96250000I0J225000D01*
G01*
G37*
%TD*%
%TO.C,C12*%
G36*
G01*
X172325000Y-71250000D02*
X172325000Y-70750000D01*
G75*
G02*
X172550000Y-70525000I225000J0D01*
G01*
X173000000Y-70525000D01*
G75*
G02*
X173225000Y-70750000I0J-225000D01*
G01*
X173225000Y-71250000D01*
G75*
G02*
X173000000Y-71475000I-225000J0D01*
G01*
X172550000Y-71475000D01*
G75*
G02*
X172325000Y-71250000I0J225000D01*
G01*
G37*
G36*
G01*
X170775000Y-71250000D02*
X170775000Y-70750000D01*
G75*
G02*
X171000000Y-70525000I225000J0D01*
G01*
X171450000Y-70525000D01*
G75*
G02*
X171675000Y-70750000I0J-225000D01*
G01*
X171675000Y-71250000D01*
G75*
G02*
X171450000Y-71475000I-225000J0D01*
G01*
X171000000Y-71475000D01*
G75*
G02*
X170775000Y-71250000I0J225000D01*
G01*
G37*
%TD*%
%TO.C,C11*%
G36*
G01*
X163325000Y-64250000D02*
X163325000Y-63750000D01*
G75*
G02*
X163550000Y-63525000I225000J0D01*
G01*
X164000000Y-63525000D01*
G75*
G02*
X164225000Y-63750000I0J-225000D01*
G01*
X164225000Y-64250000D01*
G75*
G02*
X164000000Y-64475000I-225000J0D01*
G01*
X163550000Y-64475000D01*
G75*
G02*
X163325000Y-64250000I0J225000D01*
G01*
G37*
G36*
G01*
X161775000Y-64250000D02*
X161775000Y-63750000D01*
G75*
G02*
X162000000Y-63525000I225000J0D01*
G01*
X162450000Y-63525000D01*
G75*
G02*
X162675000Y-63750000I0J-225000D01*
G01*
X162675000Y-64250000D01*
G75*
G02*
X162450000Y-64475000I-225000J0D01*
G01*
X162000000Y-64475000D01*
G75*
G02*
X161775000Y-64250000I0J225000D01*
G01*
G37*
%TD*%
%TO.C,C10*%
G36*
G01*
X152325000Y-96250000D02*
X152325000Y-95750000D01*
G75*
G02*
X152550000Y-95525000I225000J0D01*
G01*
X153000000Y-95525000D01*
G75*
G02*
X153225000Y-95750000I0J-225000D01*
G01*
X153225000Y-96250000D01*
G75*
G02*
X153000000Y-96475000I-225000J0D01*
G01*
X152550000Y-96475000D01*
G75*
G02*
X152325000Y-96250000I0J225000D01*
G01*
G37*
G36*
G01*
X150775000Y-96250000D02*
X150775000Y-95750000D01*
G75*
G02*
X151000000Y-95525000I225000J0D01*
G01*
X151450000Y-95525000D01*
G75*
G02*
X151675000Y-95750000I0J-225000D01*
G01*
X151675000Y-96250000D01*
G75*
G02*
X151450000Y-96475000I-225000J0D01*
G01*
X151000000Y-96475000D01*
G75*
G02*
X150775000Y-96250000I0J225000D01*
G01*
G37*
%TD*%
%TO.C,C9*%
G36*
G01*
X157325000Y-96250000D02*
X157325000Y-95750000D01*
G75*
G02*
X157550000Y-95525000I225000J0D01*
G01*
X158000000Y-95525000D01*
G75*
G02*
X158225000Y-95750000I0J-225000D01*
G01*
X158225000Y-96250000D01*
G75*
G02*
X158000000Y-96475000I-225000J0D01*
G01*
X157550000Y-96475000D01*
G75*
G02*
X157325000Y-96250000I0J225000D01*
G01*
G37*
G36*
G01*
X155775000Y-96250000D02*
X155775000Y-95750000D01*
G75*
G02*
X156000000Y-95525000I225000J0D01*
G01*
X156450000Y-95525000D01*
G75*
G02*
X156675000Y-95750000I0J-225000D01*
G01*
X156675000Y-96250000D01*
G75*
G02*
X156450000Y-96475000I-225000J0D01*
G01*
X156000000Y-96475000D01*
G75*
G02*
X155775000Y-96250000I0J225000D01*
G01*
G37*
%TD*%
%TO.C,C8*%
G36*
G01*
X116325000Y-142250000D02*
X116325000Y-141750000D01*
G75*
G02*
X116550000Y-141525000I225000J0D01*
G01*
X117000000Y-141525000D01*
G75*
G02*
X117225000Y-141750000I0J-225000D01*
G01*
X117225000Y-142250000D01*
G75*
G02*
X117000000Y-142475000I-225000J0D01*
G01*
X116550000Y-142475000D01*
G75*
G02*
X116325000Y-142250000I0J225000D01*
G01*
G37*
G36*
G01*
X114775000Y-142250000D02*
X114775000Y-141750000D01*
G75*
G02*
X115000000Y-141525000I225000J0D01*
G01*
X115450000Y-141525000D01*
G75*
G02*
X115675000Y-141750000I0J-225000D01*
G01*
X115675000Y-142250000D01*
G75*
G02*
X115450000Y-142475000I-225000J0D01*
G01*
X115000000Y-142475000D01*
G75*
G02*
X114775000Y-142250000I0J225000D01*
G01*
G37*
%TD*%
%TO.C,C7*%
G36*
G01*
X126325000Y-59250000D02*
X126325000Y-58750000D01*
G75*
G02*
X126550000Y-58525000I225000J0D01*
G01*
X127000000Y-58525000D01*
G75*
G02*
X127225000Y-58750000I0J-225000D01*
G01*
X127225000Y-59250000D01*
G75*
G02*
X127000000Y-59475000I-225000J0D01*
G01*
X126550000Y-59475000D01*
G75*
G02*
X126325000Y-59250000I0J225000D01*
G01*
G37*
G36*
G01*
X124775000Y-59250000D02*
X124775000Y-58750000D01*
G75*
G02*
X125000000Y-58525000I225000J0D01*
G01*
X125450000Y-58525000D01*
G75*
G02*
X125675000Y-58750000I0J-225000D01*
G01*
X125675000Y-59250000D01*
G75*
G02*
X125450000Y-59475000I-225000J0D01*
G01*
X125000000Y-59475000D01*
G75*
G02*
X124775000Y-59250000I0J225000D01*
G01*
G37*
%TD*%
%TO.C,C6*%
G36*
G01*
X173325000Y-65250000D02*
X173325000Y-64750000D01*
G75*
G02*
X173550000Y-64525000I225000J0D01*
G01*
X174000000Y-64525000D01*
G75*
G02*
X174225000Y-64750000I0J-225000D01*
G01*
X174225000Y-65250000D01*
G75*
G02*
X174000000Y-65475000I-225000J0D01*
G01*
X173550000Y-65475000D01*
G75*
G02*
X173325000Y-65250000I0J225000D01*
G01*
G37*
G36*
G01*
X171775000Y-65250000D02*
X171775000Y-64750000D01*
G75*
G02*
X172000000Y-64525000I225000J0D01*
G01*
X172450000Y-64525000D01*
G75*
G02*
X172675000Y-64750000I0J-225000D01*
G01*
X172675000Y-65250000D01*
G75*
G02*
X172450000Y-65475000I-225000J0D01*
G01*
X172000000Y-65475000D01*
G75*
G02*
X171775000Y-65250000I0J225000D01*
G01*
G37*
%TD*%
%TO.C,C5*%
G36*
G01*
X168325000Y-64250000D02*
X168325000Y-63750000D01*
G75*
G02*
X168550000Y-63525000I225000J0D01*
G01*
X169000000Y-63525000D01*
G75*
G02*
X169225000Y-63750000I0J-225000D01*
G01*
X169225000Y-64250000D01*
G75*
G02*
X169000000Y-64475000I-225000J0D01*
G01*
X168550000Y-64475000D01*
G75*
G02*
X168325000Y-64250000I0J225000D01*
G01*
G37*
G36*
G01*
X166775000Y-64250000D02*
X166775000Y-63750000D01*
G75*
G02*
X167000000Y-63525000I225000J0D01*
G01*
X167450000Y-63525000D01*
G75*
G02*
X167675000Y-63750000I0J-225000D01*
G01*
X167675000Y-64250000D01*
G75*
G02*
X167450000Y-64475000I-225000J0D01*
G01*
X167000000Y-64475000D01*
G75*
G02*
X166775000Y-64250000I0J225000D01*
G01*
G37*
%TD*%
%TO.C,C4*%
G36*
G01*
X121325000Y-142250000D02*
X121325000Y-141750000D01*
G75*
G02*
X121550000Y-141525000I225000J0D01*
G01*
X122000000Y-141525000D01*
G75*
G02*
X122225000Y-141750000I0J-225000D01*
G01*
X122225000Y-142250000D01*
G75*
G02*
X122000000Y-142475000I-225000J0D01*
G01*
X121550000Y-142475000D01*
G75*
G02*
X121325000Y-142250000I0J225000D01*
G01*
G37*
G36*
G01*
X119775000Y-142250000D02*
X119775000Y-141750000D01*
G75*
G02*
X120000000Y-141525000I225000J0D01*
G01*
X120450000Y-141525000D01*
G75*
G02*
X120675000Y-141750000I0J-225000D01*
G01*
X120675000Y-142250000D01*
G75*
G02*
X120450000Y-142475000I-225000J0D01*
G01*
X120000000Y-142475000D01*
G75*
G02*
X119775000Y-142250000I0J225000D01*
G01*
G37*
%TD*%
%TO.C,C3*%
G36*
G01*
X121325000Y-63250000D02*
X121325000Y-62750000D01*
G75*
G02*
X121550000Y-62525000I225000J0D01*
G01*
X122000000Y-62525000D01*
G75*
G02*
X122225000Y-62750000I0J-225000D01*
G01*
X122225000Y-63250000D01*
G75*
G02*
X122000000Y-63475000I-225000J0D01*
G01*
X121550000Y-63475000D01*
G75*
G02*
X121325000Y-63250000I0J225000D01*
G01*
G37*
G36*
G01*
X119775000Y-63250000D02*
X119775000Y-62750000D01*
G75*
G02*
X120000000Y-62525000I225000J0D01*
G01*
X120450000Y-62525000D01*
G75*
G02*
X120675000Y-62750000I0J-225000D01*
G01*
X120675000Y-63250000D01*
G75*
G02*
X120450000Y-63475000I-225000J0D01*
G01*
X120000000Y-63475000D01*
G75*
G02*
X119775000Y-63250000I0J225000D01*
G01*
G37*
%TD*%
%TO.C,C2*%
G36*
G01*
X166325000Y-52250000D02*
X166325000Y-51750000D01*
G75*
G02*
X166550000Y-51525000I225000J0D01*
G01*
X167000000Y-51525000D01*
G75*
G02*
X167225000Y-51750000I0J-225000D01*
G01*
X167225000Y-52250000D01*
G75*
G02*
X167000000Y-52475000I-225000J0D01*
G01*
X166550000Y-52475000D01*
G75*
G02*
X166325000Y-52250000I0J225000D01*
G01*
G37*
G36*
G01*
X164775000Y-52250000D02*
X164775000Y-51750000D01*
G75*
G02*
X165000000Y-51525000I225000J0D01*
G01*
X165450000Y-51525000D01*
G75*
G02*
X165675000Y-51750000I0J-225000D01*
G01*
X165675000Y-52250000D01*
G75*
G02*
X165450000Y-52475000I-225000J0D01*
G01*
X165000000Y-52475000D01*
G75*
G02*
X164775000Y-52250000I0J225000D01*
G01*
G37*
%TD*%
%TO.C,C1*%
G36*
G01*
X172325000Y-145250000D02*
X172325000Y-144750000D01*
G75*
G02*
X172550000Y-144525000I225000J0D01*
G01*
X173000000Y-144525000D01*
G75*
G02*
X173225000Y-144750000I0J-225000D01*
G01*
X173225000Y-145250000D01*
G75*
G02*
X173000000Y-145475000I-225000J0D01*
G01*
X172550000Y-145475000D01*
G75*
G02*
X172325000Y-145250000I0J225000D01*
G01*
G37*
G36*
G01*
X170775000Y-145250000D02*
X170775000Y-144750000D01*
G75*
G02*
X171000000Y-144525000I225000J0D01*
G01*
X171450000Y-144525000D01*
G75*
G02*
X171675000Y-144750000I0J-225000D01*
G01*
X171675000Y-145250000D01*
G75*
G02*
X171450000Y-145475000I-225000J0D01*
G01*
X171000000Y-145475000D01*
G75*
G02*
X170775000Y-145250000I0J225000D01*
G01*
G37*
%TD*%
D33*
%TO.C,U2*%
X137500000Y-142255000D03*
X137500000Y-140985000D03*
X137500000Y-139715000D03*
X137500000Y-138445000D03*
X137500000Y-137175000D03*
X137500000Y-135905000D03*
X137500000Y-134635000D03*
X137500000Y-133365000D03*
X137500000Y-132095000D03*
X137500000Y-130825000D03*
X137500000Y-129555000D03*
X137500000Y-128285000D03*
X137500000Y-127015000D03*
X137500000Y-125745000D03*
D34*
X140285000Y-124745000D03*
X141555000Y-124745000D03*
X142825000Y-124745000D03*
X144095000Y-124745000D03*
X145365000Y-124745000D03*
X146635000Y-124745000D03*
X147905000Y-124745000D03*
X149175000Y-124745000D03*
X150445000Y-124745000D03*
X151715000Y-124745000D03*
D33*
X154500000Y-125745000D03*
X154500000Y-127015000D03*
X154500000Y-128285000D03*
X154500000Y-129555000D03*
X154500000Y-130825000D03*
X154500000Y-132095000D03*
X154500000Y-133365000D03*
X154500000Y-134635000D03*
X154500000Y-135905000D03*
X154500000Y-137175000D03*
X154500000Y-138445000D03*
X154500000Y-139715000D03*
X154500000Y-140985000D03*
X154500000Y-142255000D03*
D35*
X147000000Y-134755000D03*
%TD*%
D36*
%TO.C,SW2*%
X113780000Y-126350000D03*
X113780000Y-133650000D03*
X111570000Y-133650000D03*
X111570000Y-126350000D03*
D37*
X114430000Y-132250000D03*
X114430000Y-130750000D03*
X114430000Y-127750000D03*
D38*
X112670000Y-131500000D03*
X112670000Y-128500000D03*
%TD*%
D39*
%TO.C,J4*%
X128510000Y-86000000D03*
X163490000Y-86000000D03*
D40*
X131500000Y-88800000D03*
X132500000Y-88800000D03*
X133500000Y-88800000D03*
X134500000Y-88800000D03*
X135500000Y-88800000D03*
X136500000Y-88800000D03*
X137500000Y-88800000D03*
X138500000Y-88800000D03*
X139500000Y-88800000D03*
X140500000Y-88800000D03*
X141500000Y-88800000D03*
X142500000Y-88800000D03*
X143500000Y-88800000D03*
X144500000Y-88800000D03*
X145500000Y-88800000D03*
X146500000Y-88800000D03*
X147500000Y-88800000D03*
X148500000Y-88800000D03*
X149500000Y-88800000D03*
X150500000Y-88800000D03*
X151500000Y-88800000D03*
X152500000Y-88800000D03*
X153500000Y-88800000D03*
X154500000Y-88800000D03*
X155500000Y-88800000D03*
X156500000Y-88800000D03*
X157500000Y-88800000D03*
X158500000Y-88800000D03*
X159500000Y-88800000D03*
X160500000Y-88800000D03*
%TD*%
D41*
%TO.C,U1*%
X145750000Y-99237500D03*
X146250000Y-99237500D03*
X146250000Y-100762500D03*
X145750000Y-100762500D03*
D42*
X146762500Y-99250000D03*
X145237500Y-99250000D03*
X146762500Y-100750000D03*
X145237500Y-100750000D03*
X146762500Y-100250000D03*
X146762500Y-99750000D03*
X145237500Y-100250000D03*
X145237500Y-99750000D03*
%TD*%
M02*
