%TF.GenerationSoftware,KiCad,Pcbnew,5.1.10*%
%TF.CreationDate,2021-11-10T13:44:39+01:00*%
%TF.ProjectId,Teebeutel,54656562-6575-4746-956c-2e6b69636164,rev?*%
%TF.SameCoordinates,Original*%
%TF.FileFunction,Paste,Bot*%
%TF.FilePolarity,Positive*%
%FSLAX46Y46*%
G04 Gerber Fmt 4.6, Leading zero omitted, Abs format (unit mm)*
G04 Created by KiCad (PCBNEW 5.1.10) date 2021-11-10 13:44:39*
%MOMM*%
%LPD*%
G01*
G04 APERTURE LIST*
%TA.AperFunction,Profile*%
%ADD10C,0.100000*%
%TD*%
%ADD11C,0.010000*%
%ADD12R,0.500000X1.200000*%
%ADD13R,1.400000X1.500000*%
%ADD14R,1.400000X1.300000*%
%ADD15R,0.800000X1.400000*%
%ADD16R,0.900000X1.400000*%
%ADD17R,0.450000X0.750000*%
G04 APERTURE END LIST*
D10*
X133000000Y-76000000D02*
G75*
G02*
X133000000Y-74000000I0J1000000D01*
G01*
X159000000Y-74000000D02*
G75*
G02*
X159000000Y-76000000I0J-1000000D01*
G01*
X133000000Y-74000000D02*
X159000000Y-74000000D01*
X159000000Y-76000000D02*
X133000000Y-76000000D01*
X126800000Y-50000000D02*
X110000000Y-68000000D01*
X167700000Y-50000000D02*
X182000000Y-68000000D01*
X110000000Y-150000000D02*
X182000000Y-150000000D01*
X126800000Y-50000000D02*
X167700000Y-50000000D01*
X110000000Y-150000000D02*
X110000000Y-68000000D01*
X182000000Y-68000000D02*
X182000000Y-150000000D01*
D11*
%TO.C,U6*%
G36*
X124625000Y-136000000D02*
G01*
X125175000Y-136000000D01*
X125175000Y-135600000D01*
X124625000Y-135600000D01*
X124625000Y-136000000D01*
G37*
X124625000Y-136000000D02*
X125175000Y-136000000D01*
X125175000Y-135600000D01*
X124625000Y-135600000D01*
X124625000Y-136000000D01*
G36*
X124625000Y-135200000D02*
G01*
X125175000Y-135200000D01*
X125175000Y-134800000D01*
X124625000Y-134800000D01*
X124625000Y-135200000D01*
G37*
X124625000Y-135200000D02*
X125175000Y-135200000D01*
X125175000Y-134800000D01*
X124625000Y-134800000D01*
X124625000Y-135200000D01*
G36*
X124625000Y-134400000D02*
G01*
X125175000Y-134400000D01*
X125175000Y-134000000D01*
X124625000Y-134000000D01*
X124625000Y-134400000D01*
G37*
X124625000Y-134400000D02*
X125175000Y-134400000D01*
X125175000Y-134000000D01*
X124625000Y-134000000D01*
X124625000Y-134400000D01*
G36*
X127125000Y-136000000D02*
G01*
X127675000Y-136000000D01*
X127675000Y-135600000D01*
X127125000Y-135600000D01*
X127125000Y-136000000D01*
G37*
X127125000Y-136000000D02*
X127675000Y-136000000D01*
X127675000Y-135600000D01*
X127125000Y-135600000D01*
X127125000Y-136000000D01*
G36*
X127125000Y-135200000D02*
G01*
X127675000Y-135200000D01*
X127675000Y-134800000D01*
X127125000Y-134800000D01*
X127125000Y-135200000D01*
G37*
X127125000Y-135200000D02*
X127675000Y-135200000D01*
X127675000Y-134800000D01*
X127125000Y-134800000D01*
X127125000Y-135200000D01*
G36*
X127125000Y-134400000D02*
G01*
X127675000Y-134400000D01*
X127675000Y-134000000D01*
X127125000Y-134000000D01*
X127125000Y-134400000D01*
G37*
X127125000Y-134400000D02*
X127675000Y-134400000D01*
X127675000Y-134000000D01*
X127125000Y-134000000D01*
X127125000Y-134400000D01*
G36*
X125850000Y-135425000D02*
G01*
X126450000Y-135425000D01*
X126450000Y-134575000D01*
X125850000Y-134575000D01*
X125850000Y-135425000D01*
G37*
X125850000Y-135425000D02*
X126450000Y-135425000D01*
X126450000Y-134575000D01*
X125850000Y-134575000D01*
X125850000Y-135425000D01*
%TD*%
D12*
%TO.C,U3*%
X147905000Y-116065000D03*
X146635000Y-116065000D03*
X145365000Y-116065000D03*
X144095000Y-116065000D03*
%TD*%
D13*
%TO.C,SW1*%
X151100000Y-121750000D03*
X151100000Y-128250000D03*
D14*
X151100000Y-124550000D03*
D13*
X140900000Y-121750000D03*
D14*
X140900000Y-124550000D03*
D13*
X140900000Y-128250000D03*
%TD*%
D15*
%TO.C,D9*%
X147500000Y-54200000D03*
X144500000Y-54200000D03*
D16*
X146000000Y-54200000D03*
%TD*%
D17*
%TO.C,U7*%
X169000000Y-136050000D03*
X168300000Y-136050000D03*
X167600000Y-136050000D03*
X166900000Y-136050000D03*
X166200000Y-136050000D03*
X165500000Y-136050000D03*
X164800000Y-136050000D03*
X164100000Y-136050000D03*
X162700000Y-136050000D03*
X163400000Y-136050000D03*
X166200000Y-133950000D03*
X169000000Y-133950000D03*
X165500000Y-133950000D03*
X167600000Y-133950000D03*
X163400000Y-133950000D03*
X166900000Y-133950000D03*
X162700000Y-133950000D03*
X164100000Y-133950000D03*
X168300000Y-133950000D03*
X164800000Y-133950000D03*
%TD*%
M02*
