%TF.GenerationSoftware,KiCad,Pcbnew,5.1.10*%
%TF.CreationDate,2021-11-19T14:48:17+01:00*%
%TF.ProjectId,Teebeutel,54656562-6575-4746-956c-2e6b69636164,v0.1*%
%TF.SameCoordinates,Original*%
%TF.FileFunction,Legend,Top*%
%TF.FilePolarity,Positive*%
%FSLAX46Y46*%
G04 Gerber Fmt 4.6, Leading zero omitted, Abs format (unit mm)*
G04 Created by KiCad (PCBNEW 5.1.10) date 2021-11-19 14:48:17*
%MOMM*%
%LPD*%
G01*
G04 APERTURE LIST*
%ADD10C,0.100000*%
%ADD11C,0.250000*%
%ADD12C,0.150000*%
%ADD13C,0.120000*%
%TA.AperFunction,Profile*%
%ADD14C,0.100000*%
%TD*%
%ADD15C,0.010000*%
%ADD16C,0.200000*%
G04 APERTURE END LIST*
D10*
X166685714Y-75471428D02*
X166685714Y-74871428D01*
X166971428Y-75471428D02*
X166971428Y-74871428D01*
X167114285Y-74871428D01*
X167200000Y-74900000D01*
X167257142Y-74957142D01*
X167285714Y-75014285D01*
X167314285Y-75128571D01*
X167314285Y-75214285D01*
X167285714Y-75328571D01*
X167257142Y-75385714D01*
X167200000Y-75442857D01*
X167114285Y-75471428D01*
X166971428Y-75471428D01*
X167571428Y-75414285D02*
X167600000Y-75442857D01*
X167571428Y-75471428D01*
X167542857Y-75442857D01*
X167571428Y-75414285D01*
X167571428Y-75471428D01*
X167571428Y-75100000D02*
X167600000Y-75128571D01*
X167571428Y-75157142D01*
X167542857Y-75128571D01*
X167571428Y-75100000D01*
X167571428Y-75157142D01*
X168400000Y-74871428D02*
X168400000Y-75014285D01*
X168257142Y-74957142D02*
X168400000Y-75014285D01*
X168542857Y-74957142D01*
X168314285Y-75128571D02*
X168400000Y-75014285D01*
X168485714Y-75128571D01*
X168685714Y-74871428D02*
X169028571Y-74871428D01*
X168857142Y-75471428D02*
X168857142Y-74871428D01*
X169428571Y-75157142D02*
X169514285Y-75185714D01*
X169542857Y-75214285D01*
X169571428Y-75271428D01*
X169571428Y-75357142D01*
X169542857Y-75414285D01*
X169514285Y-75442857D01*
X169457142Y-75471428D01*
X169228571Y-75471428D01*
X169228571Y-74871428D01*
X169428571Y-74871428D01*
X169485714Y-74900000D01*
X169514285Y-74928571D01*
X169542857Y-74985714D01*
X169542857Y-75042857D01*
X169514285Y-75100000D01*
X169485714Y-75128571D01*
X169428571Y-75157142D01*
X169228571Y-75157142D01*
X169800000Y-75300000D02*
X170085714Y-75300000D01*
X169742857Y-75471428D02*
X169942857Y-74871428D01*
X170142857Y-75471428D01*
X170428571Y-74871428D02*
X170428571Y-75014285D01*
X170285714Y-74957142D02*
X170428571Y-75014285D01*
X170571428Y-74957142D01*
X170342857Y-75128571D02*
X170428571Y-75014285D01*
X170514285Y-75128571D01*
D11*
X163671428Y-109142857D02*
X163671428Y-108380952D01*
X163004761Y-108857142D02*
X164719047Y-108857142D01*
X164909523Y-108761904D01*
X165004761Y-108571428D01*
X165004761Y-108380952D01*
X164909523Y-106952380D02*
X165004761Y-107142857D01*
X165004761Y-107523809D01*
X164909523Y-107714285D01*
X164719047Y-107809523D01*
X163957142Y-107809523D01*
X163766666Y-107714285D01*
X163671428Y-107523809D01*
X163671428Y-107142857D01*
X163766666Y-106952380D01*
X163957142Y-106857142D01*
X164147619Y-106857142D01*
X164338095Y-107809523D01*
X164909523Y-105238095D02*
X165004761Y-105428571D01*
X165004761Y-105809523D01*
X164909523Y-106000000D01*
X164719047Y-106095238D01*
X163957142Y-106095238D01*
X163766666Y-106000000D01*
X163671428Y-105809523D01*
X163671428Y-105428571D01*
X163766666Y-105238095D01*
X163957142Y-105142857D01*
X164147619Y-105142857D01*
X164338095Y-106095238D01*
X165004761Y-104285714D02*
X163004761Y-104285714D01*
X163766666Y-104285714D02*
X163671428Y-104095238D01*
X163671428Y-103714285D01*
X163766666Y-103523809D01*
X163861904Y-103428571D01*
X164052380Y-103333333D01*
X164623809Y-103333333D01*
X164814285Y-103428571D01*
X164909523Y-103523809D01*
X165004761Y-103714285D01*
X165004761Y-104095238D01*
X164909523Y-104285714D01*
X164909523Y-101714285D02*
X165004761Y-101904761D01*
X165004761Y-102285714D01*
X164909523Y-102476190D01*
X164719047Y-102571428D01*
X163957142Y-102571428D01*
X163766666Y-102476190D01*
X163671428Y-102285714D01*
X163671428Y-101904761D01*
X163766666Y-101714285D01*
X163957142Y-101619047D01*
X164147619Y-101619047D01*
X164338095Y-102571428D01*
X163671428Y-99904761D02*
X165004761Y-99904761D01*
X163671428Y-100761904D02*
X164719047Y-100761904D01*
X164909523Y-100666666D01*
X165004761Y-100476190D01*
X165004761Y-100190476D01*
X164909523Y-100000000D01*
X164814285Y-99904761D01*
X163671428Y-99238095D02*
X163671428Y-98476190D01*
X163004761Y-98952380D02*
X164719047Y-98952380D01*
X164909523Y-98857142D01*
X165004761Y-98666666D01*
X165004761Y-98476190D01*
X164909523Y-97047619D02*
X165004761Y-97238095D01*
X165004761Y-97619047D01*
X164909523Y-97809523D01*
X164719047Y-97904761D01*
X163957142Y-97904761D01*
X163766666Y-97809523D01*
X163671428Y-97619047D01*
X163671428Y-97238095D01*
X163766666Y-97047619D01*
X163957142Y-96952380D01*
X164147619Y-96952380D01*
X164338095Y-97904761D01*
X165004761Y-95809523D02*
X164909523Y-96000000D01*
X164719047Y-96095238D01*
X163004761Y-96095238D01*
X164814285Y-95047619D02*
X164909523Y-94952380D01*
X165004761Y-95047619D01*
X164909523Y-95142857D01*
X164814285Y-95047619D01*
X165004761Y-95047619D01*
X163671428Y-94095238D02*
X165385714Y-94095238D01*
X165576190Y-94190476D01*
X165671428Y-94380952D01*
X165671428Y-94476190D01*
X163004761Y-94095238D02*
X163100000Y-94190476D01*
X163195238Y-94095238D01*
X163100000Y-94000000D01*
X163004761Y-94095238D01*
X163195238Y-94095238D01*
X165004761Y-92285714D02*
X163957142Y-92285714D01*
X163766666Y-92380952D01*
X163671428Y-92571428D01*
X163671428Y-92952380D01*
X163766666Y-93142857D01*
X164909523Y-92285714D02*
X165004761Y-92476190D01*
X165004761Y-92952380D01*
X164909523Y-93142857D01*
X164719047Y-93238095D01*
X164528571Y-93238095D01*
X164338095Y-93142857D01*
X164242857Y-92952380D01*
X164242857Y-92476190D01*
X164147619Y-92285714D01*
X165004761Y-90476190D02*
X163004761Y-90476190D01*
X164909523Y-90476190D02*
X165004761Y-90666666D01*
X165004761Y-91047619D01*
X164909523Y-91238095D01*
X164814285Y-91333333D01*
X164623809Y-91428571D01*
X164052380Y-91428571D01*
X163861904Y-91333333D01*
X163766666Y-91238095D01*
X163671428Y-91047619D01*
X163671428Y-90666666D01*
X163766666Y-90476190D01*
X163671428Y-89714285D02*
X165004761Y-89238095D01*
X163671428Y-88761904D02*
X165004761Y-89238095D01*
X165480952Y-89428571D01*
X165576190Y-89523809D01*
X165671428Y-89714285D01*
X163671428Y-88000000D02*
X165004761Y-88000000D01*
X163861904Y-88000000D02*
X163766666Y-87904761D01*
X163671428Y-87714285D01*
X163671428Y-87428571D01*
X163766666Y-87238095D01*
X163957142Y-87142857D01*
X165004761Y-87142857D01*
X164814285Y-86190476D02*
X164909523Y-86095238D01*
X165004761Y-86190476D01*
X164909523Y-86285714D01*
X164814285Y-86190476D01*
X165004761Y-86190476D01*
X165004761Y-84380952D02*
X163004761Y-84380952D01*
X164909523Y-84380952D02*
X165004761Y-84571428D01*
X165004761Y-84952380D01*
X164909523Y-85142857D01*
X164814285Y-85238095D01*
X164623809Y-85333333D01*
X164052380Y-85333333D01*
X163861904Y-85238095D01*
X163766666Y-85142857D01*
X163671428Y-84952380D01*
X163671428Y-84571428D01*
X163766666Y-84380952D01*
X164909523Y-82666666D02*
X165004761Y-82857142D01*
X165004761Y-83238095D01*
X164909523Y-83428571D01*
X164719047Y-83523809D01*
X163957142Y-83523809D01*
X163766666Y-83428571D01*
X163671428Y-83238095D01*
X163671428Y-82857142D01*
X163766666Y-82666666D01*
X163957142Y-82571428D01*
X164147619Y-82571428D01*
X164338095Y-83523809D01*
X163671428Y-81904761D02*
X165004761Y-81428571D01*
X163671428Y-80952380D01*
X159804761Y-105809523D02*
X159804761Y-104666666D01*
X161804761Y-105238095D02*
X159804761Y-105238095D01*
X161709523Y-103238095D02*
X161804761Y-103428571D01*
X161804761Y-103809523D01*
X161709523Y-104000000D01*
X161519047Y-104095238D01*
X160757142Y-104095238D01*
X160566666Y-104000000D01*
X160471428Y-103809523D01*
X160471428Y-103428571D01*
X160566666Y-103238095D01*
X160757142Y-103142857D01*
X160947619Y-103142857D01*
X161138095Y-104095238D01*
X161709523Y-101523809D02*
X161804761Y-101714285D01*
X161804761Y-102095238D01*
X161709523Y-102285714D01*
X161519047Y-102380952D01*
X160757142Y-102380952D01*
X160566666Y-102285714D01*
X160471428Y-102095238D01*
X160471428Y-101714285D01*
X160566666Y-101523809D01*
X160757142Y-101428571D01*
X160947619Y-101428571D01*
X161138095Y-102380952D01*
X161804761Y-100571428D02*
X159804761Y-100571428D01*
X160566666Y-100571428D02*
X160471428Y-100380952D01*
X160471428Y-100000000D01*
X160566666Y-99809523D01*
X160661904Y-99714285D01*
X160852380Y-99619047D01*
X161423809Y-99619047D01*
X161614285Y-99714285D01*
X161709523Y-99809523D01*
X161804761Y-100000000D01*
X161804761Y-100380952D01*
X161709523Y-100571428D01*
X161709523Y-98000000D02*
X161804761Y-98190476D01*
X161804761Y-98571428D01*
X161709523Y-98761904D01*
X161519047Y-98857142D01*
X160757142Y-98857142D01*
X160566666Y-98761904D01*
X160471428Y-98571428D01*
X160471428Y-98190476D01*
X160566666Y-98000000D01*
X160757142Y-97904761D01*
X160947619Y-97904761D01*
X161138095Y-98857142D01*
X160471428Y-96190476D02*
X161804761Y-96190476D01*
X160471428Y-97047619D02*
X161519047Y-97047619D01*
X161709523Y-96952380D01*
X161804761Y-96761904D01*
X161804761Y-96476190D01*
X161709523Y-96285714D01*
X161614285Y-96190476D01*
X160471428Y-95523809D02*
X160471428Y-94761904D01*
X159804761Y-95238095D02*
X161519047Y-95238095D01*
X161709523Y-95142857D01*
X161804761Y-94952380D01*
X161804761Y-94761904D01*
X161709523Y-93333333D02*
X161804761Y-93523809D01*
X161804761Y-93904761D01*
X161709523Y-94095238D01*
X161519047Y-94190476D01*
X160757142Y-94190476D01*
X160566666Y-94095238D01*
X160471428Y-93904761D01*
X160471428Y-93523809D01*
X160566666Y-93333333D01*
X160757142Y-93238095D01*
X160947619Y-93238095D01*
X161138095Y-94190476D01*
X161804761Y-92095238D02*
X161709523Y-92285714D01*
X161519047Y-92380952D01*
X159804761Y-92380952D01*
X160471428Y-90000000D02*
X161804761Y-89523809D01*
X160471428Y-89047619D01*
X159804761Y-87904761D02*
X159804761Y-87714285D01*
X159900000Y-87523809D01*
X159995238Y-87428571D01*
X160185714Y-87333333D01*
X160566666Y-87238095D01*
X161042857Y-87238095D01*
X161423809Y-87333333D01*
X161614285Y-87428571D01*
X161709523Y-87523809D01*
X161804761Y-87714285D01*
X161804761Y-87904761D01*
X161709523Y-88095238D01*
X161614285Y-88190476D01*
X161423809Y-88285714D01*
X161042857Y-88380952D01*
X160566666Y-88380952D01*
X160185714Y-88285714D01*
X159995238Y-88190476D01*
X159900000Y-88095238D01*
X159804761Y-87904761D01*
X161614285Y-86380952D02*
X161709523Y-86285714D01*
X161804761Y-86380952D01*
X161709523Y-86476190D01*
X161614285Y-86380952D01*
X161804761Y-86380952D01*
X161804761Y-84380952D02*
X161804761Y-85523809D01*
X161804761Y-84952380D02*
X159804761Y-84952380D01*
X160090476Y-85142857D01*
X160280952Y-85333333D01*
X160376190Y-85523809D01*
D10*
X161704761Y-148061904D02*
X161704761Y-148633333D01*
X161666666Y-148747619D01*
X161590476Y-148823809D01*
X161476190Y-148861904D01*
X161400000Y-148861904D01*
X162466666Y-148861904D02*
X162085714Y-148861904D01*
X162085714Y-148061904D01*
X163190476Y-148785714D02*
X163152380Y-148823809D01*
X163038095Y-148861904D01*
X162961904Y-148861904D01*
X162847619Y-148823809D01*
X162771428Y-148747619D01*
X162733333Y-148671428D01*
X162695238Y-148519047D01*
X162695238Y-148404761D01*
X162733333Y-148252380D01*
X162771428Y-148176190D01*
X162847619Y-148100000D01*
X162961904Y-148061904D01*
X163038095Y-148061904D01*
X163152380Y-148100000D01*
X163190476Y-148138095D01*
X163761904Y-148061904D02*
X163761904Y-148633333D01*
X163723809Y-148747619D01*
X163647619Y-148823809D01*
X163533333Y-148861904D01*
X163457142Y-148861904D01*
X164523809Y-148861904D02*
X164142857Y-148861904D01*
X164142857Y-148061904D01*
X165247619Y-148785714D02*
X165209523Y-148823809D01*
X165095238Y-148861904D01*
X165019047Y-148861904D01*
X164904761Y-148823809D01*
X164828571Y-148747619D01*
X164790476Y-148671428D01*
X164752380Y-148519047D01*
X164752380Y-148404761D01*
X164790476Y-148252380D01*
X164828571Y-148176190D01*
X164904761Y-148100000D01*
X165019047Y-148061904D01*
X165095238Y-148061904D01*
X165209523Y-148100000D01*
X165247619Y-148138095D01*
X165819047Y-148061904D02*
X165819047Y-148633333D01*
X165780952Y-148747619D01*
X165704761Y-148823809D01*
X165590476Y-148861904D01*
X165514285Y-148861904D01*
X166580952Y-148861904D02*
X166200000Y-148861904D01*
X166200000Y-148061904D01*
X167304761Y-148785714D02*
X167266666Y-148823809D01*
X167152380Y-148861904D01*
X167076190Y-148861904D01*
X166961904Y-148823809D01*
X166885714Y-148747619D01*
X166847619Y-148671428D01*
X166809523Y-148519047D01*
X166809523Y-148404761D01*
X166847619Y-148252380D01*
X166885714Y-148176190D01*
X166961904Y-148100000D01*
X167076190Y-148061904D01*
X167152380Y-148061904D01*
X167266666Y-148100000D01*
X167304761Y-148138095D01*
X167876190Y-148061904D02*
X167876190Y-148633333D01*
X167838095Y-148747619D01*
X167761904Y-148823809D01*
X167647619Y-148861904D01*
X167571428Y-148861904D01*
X168638095Y-148861904D02*
X168257142Y-148861904D01*
X168257142Y-148061904D01*
X169361904Y-148785714D02*
X169323809Y-148823809D01*
X169209523Y-148861904D01*
X169133333Y-148861904D01*
X169019047Y-148823809D01*
X168942857Y-148747619D01*
X168904761Y-148671428D01*
X168866666Y-148519047D01*
X168866666Y-148404761D01*
X168904761Y-148252380D01*
X168942857Y-148176190D01*
X169019047Y-148100000D01*
X169133333Y-148061904D01*
X169209523Y-148061904D01*
X169323809Y-148100000D01*
X169361904Y-148138095D01*
D12*
X130510952Y-54853571D02*
X130177619Y-54853571D01*
X130177619Y-55377380D02*
X130177619Y-54377380D01*
X130653809Y-54377380D01*
X131034761Y-54377380D02*
X131034761Y-55186904D01*
X131082380Y-55282142D01*
X131130000Y-55329761D01*
X131225238Y-55377380D01*
X131415714Y-55377380D01*
X131510952Y-55329761D01*
X131558571Y-55282142D01*
X131606190Y-55186904D01*
X131606190Y-54377380D01*
X132558571Y-55377380D02*
X132082380Y-55377380D01*
X132082380Y-54377380D01*
X133368095Y-55377380D02*
X132891904Y-55377380D01*
X132891904Y-54377380D01*
X133891904Y-54901190D02*
X133891904Y-55377380D01*
X133558571Y-54377380D02*
X133891904Y-54901190D01*
X134225238Y-54377380D01*
X129534761Y-56932142D02*
X129487142Y-56979761D01*
X129344285Y-57027380D01*
X129249047Y-57027380D01*
X129106190Y-56979761D01*
X129010952Y-56884523D01*
X128963333Y-56789285D01*
X128915714Y-56598809D01*
X128915714Y-56455952D01*
X128963333Y-56265476D01*
X129010952Y-56170238D01*
X129106190Y-56075000D01*
X129249047Y-56027380D01*
X129344285Y-56027380D01*
X129487142Y-56075000D01*
X129534761Y-56122619D01*
X129963333Y-57027380D02*
X129963333Y-56027380D01*
X129963333Y-56503571D02*
X130534761Y-56503571D01*
X130534761Y-57027380D02*
X130534761Y-56027380D01*
X130963333Y-56741666D02*
X131439523Y-56741666D01*
X130868095Y-57027380D02*
X131201428Y-56027380D01*
X131534761Y-57027380D01*
X132439523Y-57027380D02*
X132106190Y-56551190D01*
X131868095Y-57027380D02*
X131868095Y-56027380D01*
X132249047Y-56027380D01*
X132344285Y-56075000D01*
X132391904Y-56122619D01*
X132439523Y-56217857D01*
X132439523Y-56360714D01*
X132391904Y-56455952D01*
X132344285Y-56503571D01*
X132249047Y-56551190D01*
X131868095Y-56551190D01*
X133391904Y-56075000D02*
X133296666Y-56027380D01*
X133153809Y-56027380D01*
X133010952Y-56075000D01*
X132915714Y-56170238D01*
X132868095Y-56265476D01*
X132820476Y-56455952D01*
X132820476Y-56598809D01*
X132868095Y-56789285D01*
X132915714Y-56884523D01*
X133010952Y-56979761D01*
X133153809Y-57027380D01*
X133249047Y-57027380D01*
X133391904Y-56979761D01*
X133439523Y-56932142D01*
X133439523Y-56598809D01*
X133249047Y-56598809D01*
X133868095Y-56503571D02*
X134201428Y-56503571D01*
X134344285Y-57027380D02*
X133868095Y-57027380D01*
X133868095Y-56027380D01*
X134344285Y-56027380D01*
X134772857Y-57027380D02*
X134772857Y-56027380D01*
X135010952Y-56027380D01*
X135153809Y-56075000D01*
X135249047Y-56170238D01*
X135296666Y-56265476D01*
X135344285Y-56455952D01*
X135344285Y-56598809D01*
X135296666Y-56789285D01*
X135249047Y-56884523D01*
X135153809Y-56979761D01*
X135010952Y-57027380D01*
X134772857Y-57027380D01*
X156965238Y-55357142D02*
X156917619Y-55404761D01*
X156774761Y-55452380D01*
X156679523Y-55452380D01*
X156536666Y-55404761D01*
X156441428Y-55309523D01*
X156393809Y-55214285D01*
X156346190Y-55023809D01*
X156346190Y-54880952D01*
X156393809Y-54690476D01*
X156441428Y-54595238D01*
X156536666Y-54500000D01*
X156679523Y-54452380D01*
X156774761Y-54452380D01*
X156917619Y-54500000D01*
X156965238Y-54547619D01*
X157393809Y-55452380D02*
X157393809Y-54452380D01*
X157393809Y-54928571D02*
X157965238Y-54928571D01*
X157965238Y-55452380D02*
X157965238Y-54452380D01*
X158393809Y-55166666D02*
X158870000Y-55166666D01*
X158298571Y-55452380D02*
X158631904Y-54452380D01*
X158965238Y-55452380D01*
X159870000Y-55452380D02*
X159536666Y-54976190D01*
X159298571Y-55452380D02*
X159298571Y-54452380D01*
X159679523Y-54452380D01*
X159774761Y-54500000D01*
X159822380Y-54547619D01*
X159870000Y-54642857D01*
X159870000Y-54785714D01*
X159822380Y-54880952D01*
X159774761Y-54928571D01*
X159679523Y-54976190D01*
X159298571Y-54976190D01*
X160822380Y-54500000D02*
X160727142Y-54452380D01*
X160584285Y-54452380D01*
X160441428Y-54500000D01*
X160346190Y-54595238D01*
X160298571Y-54690476D01*
X160250952Y-54880952D01*
X160250952Y-55023809D01*
X160298571Y-55214285D01*
X160346190Y-55309523D01*
X160441428Y-55404761D01*
X160584285Y-55452380D01*
X160679523Y-55452380D01*
X160822380Y-55404761D01*
X160870000Y-55357142D01*
X160870000Y-55023809D01*
X160679523Y-55023809D01*
X161298571Y-55452380D02*
X161298571Y-54452380D01*
X161774761Y-55452380D02*
X161774761Y-54452380D01*
X162346190Y-55452380D01*
X162346190Y-54452380D01*
X163346190Y-54500000D02*
X163250952Y-54452380D01*
X163108095Y-54452380D01*
X162965238Y-54500000D01*
X162870000Y-54595238D01*
X162822380Y-54690476D01*
X162774761Y-54880952D01*
X162774761Y-55023809D01*
X162822380Y-55214285D01*
X162870000Y-55309523D01*
X162965238Y-55404761D01*
X163108095Y-55452380D01*
X163203333Y-55452380D01*
X163346190Y-55404761D01*
X163393809Y-55357142D01*
X163393809Y-55023809D01*
X163203333Y-55023809D01*
X116773809Y-69202380D02*
X117392857Y-69202380D01*
X117059523Y-69583333D01*
X117202380Y-69583333D01*
X117297619Y-69630952D01*
X117345238Y-69678571D01*
X117392857Y-69773809D01*
X117392857Y-70011904D01*
X117345238Y-70107142D01*
X117297619Y-70154761D01*
X117202380Y-70202380D01*
X116916666Y-70202380D01*
X116821428Y-70154761D01*
X116773809Y-70107142D01*
X117821428Y-70107142D02*
X117869047Y-70154761D01*
X117821428Y-70202380D01*
X117773809Y-70154761D01*
X117821428Y-70107142D01*
X117821428Y-70202380D01*
X118202380Y-69202380D02*
X118869047Y-69202380D01*
X118440476Y-70202380D01*
X119107142Y-69202380D02*
X119440476Y-70202380D01*
X119773809Y-69202380D01*
X114345238Y-68452380D02*
X113869047Y-68452380D01*
X113869047Y-67452380D01*
X114678571Y-68452380D02*
X114678571Y-67785714D01*
X114678571Y-67452380D02*
X114630952Y-67500000D01*
X114678571Y-67547619D01*
X114726190Y-67500000D01*
X114678571Y-67452380D01*
X114678571Y-67547619D01*
X115154761Y-68452380D02*
X115154761Y-67452380D01*
X115535714Y-67452380D01*
X115630952Y-67500000D01*
X115678571Y-67547619D01*
X115726190Y-67642857D01*
X115726190Y-67785714D01*
X115678571Y-67880952D01*
X115630952Y-67928571D01*
X115535714Y-67976190D01*
X115154761Y-67976190D01*
X116297619Y-68452380D02*
X116202380Y-68404761D01*
X116154761Y-68357142D01*
X116107142Y-68261904D01*
X116107142Y-67976190D01*
X116154761Y-67880952D01*
X116202380Y-67833333D01*
X116297619Y-67785714D01*
X116440476Y-67785714D01*
X116535714Y-67833333D01*
X116583333Y-67880952D01*
X116630952Y-67976190D01*
X116630952Y-68261904D01*
X116583333Y-68357142D01*
X116535714Y-68404761D01*
X116440476Y-68452380D01*
X116297619Y-68452380D01*
X118154761Y-67928571D02*
X118297619Y-67976190D01*
X118345238Y-68023809D01*
X118392857Y-68119047D01*
X118392857Y-68261904D01*
X118345238Y-68357142D01*
X118297619Y-68404761D01*
X118202380Y-68452380D01*
X117821428Y-68452380D01*
X117821428Y-67452380D01*
X118154761Y-67452380D01*
X118250000Y-67500000D01*
X118297619Y-67547619D01*
X118345238Y-67642857D01*
X118345238Y-67738095D01*
X118297619Y-67833333D01*
X118250000Y-67880952D01*
X118154761Y-67928571D01*
X117821428Y-67928571D01*
X119250000Y-68452380D02*
X119250000Y-67928571D01*
X119202380Y-67833333D01*
X119107142Y-67785714D01*
X118916666Y-67785714D01*
X118821428Y-67833333D01*
X119250000Y-68404761D02*
X119154761Y-68452380D01*
X118916666Y-68452380D01*
X118821428Y-68404761D01*
X118773809Y-68309523D01*
X118773809Y-68214285D01*
X118821428Y-68119047D01*
X118916666Y-68071428D01*
X119154761Y-68071428D01*
X119250000Y-68023809D01*
X119583333Y-67785714D02*
X119964285Y-67785714D01*
X119726190Y-67452380D02*
X119726190Y-68309523D01*
X119773809Y-68404761D01*
X119869047Y-68452380D01*
X119964285Y-68452380D01*
X120154761Y-67785714D02*
X120535714Y-67785714D01*
X120297619Y-67452380D02*
X120297619Y-68309523D01*
X120345238Y-68404761D01*
X120440476Y-68452380D01*
X120535714Y-68452380D01*
X121250000Y-68404761D02*
X121154761Y-68452380D01*
X120964285Y-68452380D01*
X120869047Y-68404761D01*
X120821428Y-68309523D01*
X120821428Y-67928571D01*
X120869047Y-67833333D01*
X120964285Y-67785714D01*
X121154761Y-67785714D01*
X121250000Y-67833333D01*
X121297619Y-67928571D01*
X121297619Y-68023809D01*
X120821428Y-68119047D01*
X121726190Y-68452380D02*
X121726190Y-67785714D01*
X121726190Y-67976190D02*
X121773809Y-67880952D01*
X121821428Y-67833333D01*
X121916666Y-67785714D01*
X122011904Y-67785714D01*
X122250000Y-67785714D02*
X122488095Y-68452380D01*
X122726190Y-67785714D02*
X122488095Y-68452380D01*
X122392857Y-68690476D01*
X122345238Y-68738095D01*
X122250000Y-68785714D01*
X116619047Y-71321428D02*
X117380952Y-71321428D01*
X119119047Y-71321428D02*
X119880952Y-71321428D01*
X119500000Y-71702380D02*
X119500000Y-70940476D01*
D13*
X123250000Y-110000000D02*
X113250000Y-110000000D01*
X113250000Y-80000000D02*
X123250000Y-80000000D01*
X113250000Y-110000000D02*
X113250000Y-80000000D01*
X120750000Y-110000000D02*
X123250000Y-100000000D01*
X118250000Y-110000000D02*
X123250000Y-92500000D01*
X115750000Y-80000000D02*
X113250000Y-87500000D01*
X115750000Y-110000000D02*
X123250000Y-85000000D01*
X118250000Y-80000000D02*
X113250000Y-95000000D01*
X113250000Y-102500000D02*
X113250000Y-97500000D01*
X123250000Y-80000000D02*
X113250000Y-110000000D01*
X123250000Y-80000000D02*
X123250000Y-110000000D01*
X120750000Y-80000000D02*
X113250000Y-102500000D01*
X171250000Y-80000000D02*
X168750000Y-87500000D01*
X173750000Y-80000000D02*
X168750000Y-95000000D01*
X168750000Y-102500000D02*
X168750000Y-97500000D01*
X176250000Y-80000000D02*
X168750000Y-102500000D01*
X176250000Y-110000000D02*
X178750000Y-100000000D01*
X173750000Y-110000000D02*
X178750000Y-92500000D01*
X171250000Y-110000000D02*
X178750000Y-85000000D01*
X178750000Y-80000000D02*
X168750000Y-110000000D01*
X168750000Y-110000000D02*
X168750000Y-80000000D01*
X178750000Y-110000000D02*
X168750000Y-110000000D01*
X178750000Y-80000000D02*
X178750000Y-110000000D01*
X168800000Y-80000000D02*
X178750000Y-80000000D01*
D14*
X133000000Y-76000000D02*
G75*
G02*
X133000000Y-74000000I0J1000000D01*
G01*
X159000000Y-74000000D02*
G75*
G02*
X159000000Y-76000000I0J-1000000D01*
G01*
X133000000Y-74000000D02*
X159000000Y-74000000D01*
X159000000Y-76000000D02*
X133000000Y-76000000D01*
X126800000Y-50000000D02*
X110000000Y-68000000D01*
X167700000Y-50000000D02*
X182000000Y-68000000D01*
X110000000Y-150000000D02*
X182000000Y-150000000D01*
X126800000Y-50000000D02*
X167700000Y-50000000D01*
X110000000Y-150000000D02*
X110000000Y-68000000D01*
X182000000Y-68000000D02*
X182000000Y-150000000D01*
D15*
%TO.C,G\u002A\u002A\u002A*%
G36*
X130819386Y-86485888D02*
G01*
X130806716Y-86518565D01*
X130786659Y-86544276D01*
X130759266Y-86562977D01*
X130724590Y-86574626D01*
X130710620Y-86577045D01*
X130686897Y-86580297D01*
X130686897Y-86308520D01*
X130700870Y-86311893D01*
X130725681Y-86318245D01*
X130743428Y-86323941D01*
X130757042Y-86330173D01*
X130769453Y-86338130D01*
X130774331Y-86341753D01*
X130798003Y-86365930D01*
X130814365Y-86395927D01*
X130822864Y-86429974D01*
X130822947Y-86466301D01*
X130819386Y-86485888D01*
G37*
X130819386Y-86485888D02*
X130806716Y-86518565D01*
X130786659Y-86544276D01*
X130759266Y-86562977D01*
X130724590Y-86574626D01*
X130710620Y-86577045D01*
X130686897Y-86580297D01*
X130686897Y-86308520D01*
X130700870Y-86311893D01*
X130725681Y-86318245D01*
X130743428Y-86323941D01*
X130757042Y-86330173D01*
X130769453Y-86338130D01*
X130774331Y-86341753D01*
X130798003Y-86365930D01*
X130814365Y-86395927D01*
X130822864Y-86429974D01*
X130822947Y-86466301D01*
X130819386Y-86485888D01*
G36*
X130581466Y-85125644D02*
G01*
X130553911Y-85123641D01*
X130523157Y-85118584D01*
X130493583Y-85111372D01*
X130469564Y-85102904D01*
X130468571Y-85102456D01*
X130438202Y-85085254D01*
X130415809Y-85064479D01*
X130401220Y-85042057D01*
X130394188Y-85022063D01*
X130389859Y-84997096D01*
X130388653Y-84971574D01*
X130390990Y-84949919D01*
X130392089Y-84945899D01*
X130402172Y-84927074D01*
X130418555Y-84909132D01*
X130437760Y-84895724D01*
X130441575Y-84893933D01*
X130455662Y-84890137D01*
X130474986Y-84887631D01*
X130489844Y-84887021D01*
X130518817Y-84889822D01*
X130542568Y-84898464D01*
X130561445Y-84913553D01*
X130575796Y-84935693D01*
X130585966Y-84965490D01*
X130592305Y-85003550D01*
X130595157Y-85050478D01*
X130595400Y-85071124D01*
X130595439Y-85125745D01*
X130581466Y-85125644D01*
G37*
X130581466Y-85125644D02*
X130553911Y-85123641D01*
X130523157Y-85118584D01*
X130493583Y-85111372D01*
X130469564Y-85102904D01*
X130468571Y-85102456D01*
X130438202Y-85085254D01*
X130415809Y-85064479D01*
X130401220Y-85042057D01*
X130394188Y-85022063D01*
X130389859Y-84997096D01*
X130388653Y-84971574D01*
X130390990Y-84949919D01*
X130392089Y-84945899D01*
X130402172Y-84927074D01*
X130418555Y-84909132D01*
X130437760Y-84895724D01*
X130441575Y-84893933D01*
X130455662Y-84890137D01*
X130474986Y-84887631D01*
X130489844Y-84887021D01*
X130518817Y-84889822D01*
X130542568Y-84898464D01*
X130561445Y-84913553D01*
X130575796Y-84935693D01*
X130585966Y-84965490D01*
X130592305Y-85003550D01*
X130595157Y-85050478D01*
X130595400Y-85071124D01*
X130595439Y-85125745D01*
X130581466Y-85125644D01*
G36*
X126500140Y-105810562D02*
G01*
X126500140Y-83794519D01*
X130285497Y-83794519D01*
X130285497Y-84002840D01*
X130285497Y-84155271D01*
X130907921Y-84155599D01*
X130596709Y-84275818D01*
X130285497Y-84396038D01*
X130285497Y-84582076D01*
X130508390Y-84582076D01*
X130508390Y-84705277D01*
X130456330Y-84706397D01*
X130410384Y-84715480D01*
X130370663Y-84732472D01*
X130337274Y-84757321D01*
X130310329Y-84789974D01*
X130301513Y-84804959D01*
X130283966Y-84847497D01*
X130273487Y-84894395D01*
X130270450Y-84942533D01*
X130275229Y-84988796D01*
X130278042Y-85001082D01*
X130294768Y-85046255D01*
X130319897Y-85085787D01*
X130335054Y-85102840D01*
X130357636Y-85125745D01*
X130285497Y-85125745D01*
X130285497Y-85293418D01*
X130505251Y-85293241D01*
X130565241Y-85293094D01*
X130615874Y-85292743D01*
X130657953Y-85292165D01*
X130692279Y-85291340D01*
X130719657Y-85290244D01*
X130740888Y-85288855D01*
X130756776Y-85287152D01*
X130763112Y-85286150D01*
X130811187Y-85274500D01*
X130850829Y-85258088D01*
X130882976Y-85236084D01*
X130908565Y-85207659D01*
X130928534Y-85171985D01*
X130940948Y-85136454D01*
X130940948Y-85410282D01*
X130285497Y-85410282D01*
X130285497Y-85552550D01*
X130521514Y-85552550D01*
X130582254Y-85552607D01*
X130633676Y-85552822D01*
X130676619Y-85553264D01*
X130711927Y-85554000D01*
X130740441Y-85555098D01*
X130763004Y-85556625D01*
X130780458Y-85558651D01*
X130793644Y-85561242D01*
X130803404Y-85564467D01*
X130810581Y-85568393D01*
X130816017Y-85573087D01*
X130818958Y-85576511D01*
X130827631Y-85594553D01*
X130827343Y-85613100D01*
X130818952Y-85630039D01*
X130803315Y-85643257D01*
X130789556Y-85648886D01*
X130779695Y-85650166D01*
X130760255Y-85651289D01*
X130731818Y-85652243D01*
X130694966Y-85653016D01*
X130650280Y-85653598D01*
X130598344Y-85653975D01*
X130539739Y-85654137D01*
X130528115Y-85654142D01*
X130285497Y-85654170D01*
X130285497Y-85796439D01*
X130528115Y-85796467D01*
X130587900Y-85796587D01*
X130641125Y-85796925D01*
X130687207Y-85797469D01*
X130725564Y-85798208D01*
X130755615Y-85799129D01*
X130776778Y-85800221D01*
X130788470Y-85801473D01*
X130789556Y-85801723D01*
X130808746Y-85811207D01*
X130822632Y-85826218D01*
X130828991Y-85844183D01*
X130829165Y-85847651D01*
X130824454Y-85865967D01*
X130810935Y-85880521D01*
X130789532Y-85890479D01*
X130778932Y-85892996D01*
X130767796Y-85894107D01*
X130747545Y-85895121D01*
X130719228Y-85896018D01*
X130683892Y-85896778D01*
X130642584Y-85897379D01*
X130596353Y-85897803D01*
X130546245Y-85898028D01*
X130518530Y-85898059D01*
X130285497Y-85898059D01*
X130285497Y-86041596D01*
X130528115Y-86038851D01*
X130590491Y-86038070D01*
X130592997Y-86038030D01*
X130592997Y-86136700D01*
X130547925Y-86139436D01*
X130507939Y-86145280D01*
X130499471Y-86147155D01*
X130445669Y-86164625D01*
X130398666Y-86189542D01*
X130358632Y-86221761D01*
X130325735Y-86261140D01*
X130300145Y-86307535D01*
X130294574Y-86321080D01*
X130281970Y-86363933D01*
X130274011Y-86413627D01*
X130270852Y-86467889D01*
X130272645Y-86524444D01*
X130277782Y-86570033D01*
X130283111Y-86598488D01*
X130290730Y-86630695D01*
X130299250Y-86660938D01*
X130301887Y-86669113D01*
X130318523Y-86718643D01*
X130398129Y-86720040D01*
X130477735Y-86721438D01*
X130462612Y-86693516D01*
X130440604Y-86646565D01*
X130424244Y-86598242D01*
X130413574Y-86549882D01*
X130408639Y-86502818D01*
X130409480Y-86458382D01*
X130416140Y-86417910D01*
X130428663Y-86382734D01*
X130447091Y-86354187D01*
X130451551Y-86349327D01*
X130472384Y-86332984D01*
X130498325Y-86319760D01*
X130498899Y-86319584D01*
X130498899Y-87056531D01*
X130285497Y-87056531D01*
X130285497Y-87254691D01*
X130498899Y-87254691D01*
X130498899Y-87056531D01*
X130498899Y-86319584D01*
X130525189Y-86311487D01*
X130542279Y-86309622D01*
X130559872Y-86309622D01*
X130559872Y-86753163D01*
X130632276Y-86750096D01*
X130661806Y-86748358D01*
X130690892Y-86745792D01*
X130716458Y-86742724D01*
X130735428Y-86739479D01*
X130737630Y-86738969D01*
X130790009Y-86721420D01*
X130836167Y-86696146D01*
X130875624Y-86663588D01*
X130905381Y-86627268D01*
X130905381Y-87056531D01*
X130691978Y-87056531D01*
X130691978Y-87254691D01*
X130905381Y-87254691D01*
X130905381Y-87056531D01*
X130905381Y-86627268D01*
X130907902Y-86624190D01*
X130932524Y-86578395D01*
X130943303Y-86548429D01*
X130949426Y-86520171D01*
X130953350Y-86485550D01*
X130954957Y-86448149D01*
X130954130Y-86411553D01*
X130950753Y-86379345D01*
X130949123Y-86370594D01*
X130933296Y-86319474D01*
X130908941Y-86273403D01*
X130876661Y-86232976D01*
X130837062Y-86198787D01*
X130790748Y-86171430D01*
X130738323Y-86151501D01*
X130721835Y-86147141D01*
X130683643Y-86140552D01*
X130639467Y-86137071D01*
X130592997Y-86136700D01*
X130592997Y-86038030D01*
X130643702Y-86037209D01*
X130688749Y-86036203D01*
X130726627Y-86034989D01*
X130758337Y-86033503D01*
X130784876Y-86031683D01*
X130807242Y-86029466D01*
X130826434Y-86026787D01*
X130843449Y-86023583D01*
X130859286Y-86019791D01*
X130868521Y-86017241D01*
X130899962Y-86003291D01*
X130924975Y-85981808D01*
X130942934Y-85953601D01*
X130953213Y-85919480D01*
X130954948Y-85905463D01*
X130954431Y-85868124D01*
X130946055Y-85836479D01*
X130929365Y-85809261D01*
X130914986Y-85794363D01*
X130901181Y-85782630D01*
X130889883Y-85774252D01*
X130883528Y-85771034D01*
X130883512Y-85771034D01*
X130884270Y-85768657D01*
X130891954Y-85762511D01*
X130901400Y-85756185D01*
X130925923Y-85735119D01*
X130943021Y-85708949D01*
X130952718Y-85679483D01*
X130955040Y-85648526D01*
X130950010Y-85617888D01*
X130937656Y-85589373D01*
X130918000Y-85564790D01*
X130898553Y-85550062D01*
X130877435Y-85537403D01*
X130909191Y-85537355D01*
X130940948Y-85537307D01*
X130940948Y-85410282D01*
X130940948Y-85136454D01*
X130943820Y-85128233D01*
X130944498Y-85125745D01*
X130948086Y-85109759D01*
X130950613Y-85091433D01*
X130952220Y-85068803D01*
X130953048Y-85039904D01*
X130953240Y-85003800D01*
X130952233Y-84953654D01*
X130949125Y-84910900D01*
X130943508Y-84872907D01*
X130934974Y-84837049D01*
X130923115Y-84800695D01*
X130920714Y-84794208D01*
X130909732Y-84764993D01*
X130839809Y-84764993D01*
X130814210Y-84765165D01*
X130792443Y-84765638D01*
X130776430Y-84766345D01*
X130768092Y-84767219D01*
X130767382Y-84767498D01*
X130768136Y-84772980D01*
X130772533Y-84784919D01*
X130779475Y-84800418D01*
X130801505Y-84853141D01*
X130816676Y-84906511D01*
X130821724Y-84932061D01*
X130828033Y-84982743D01*
X130827990Y-85025944D01*
X130821645Y-85061550D01*
X130809051Y-85089445D01*
X130790259Y-85109515D01*
X130765322Y-85121644D01*
X130734519Y-85125716D01*
X130718629Y-85125745D01*
X130716074Y-85017773D01*
X130714969Y-84978380D01*
X130713635Y-84947311D01*
X130711908Y-84922729D01*
X130709622Y-84902797D01*
X130706615Y-84885677D01*
X130702874Y-84870099D01*
X130686827Y-84822350D01*
X130666370Y-84783507D01*
X130640889Y-84753054D01*
X130609774Y-84730470D01*
X130572413Y-84715239D01*
X130528195Y-84706842D01*
X130508390Y-84705277D01*
X130508390Y-84582076D01*
X131154350Y-84582076D01*
X131154350Y-84429723D01*
X130840753Y-84428414D01*
X130527157Y-84427105D01*
X130839483Y-84307049D01*
X131151810Y-84186992D01*
X131154580Y-84002840D01*
X130285497Y-84002840D01*
X130285497Y-83794519D01*
X131494778Y-83794519D01*
X131494778Y-105810562D01*
X126500140Y-105810562D01*
G37*
X126500140Y-105810562D02*
X126500140Y-83794519D01*
X130285497Y-83794519D01*
X130285497Y-84002840D01*
X130285497Y-84155271D01*
X130907921Y-84155599D01*
X130596709Y-84275818D01*
X130285497Y-84396038D01*
X130285497Y-84582076D01*
X130508390Y-84582076D01*
X130508390Y-84705277D01*
X130456330Y-84706397D01*
X130410384Y-84715480D01*
X130370663Y-84732472D01*
X130337274Y-84757321D01*
X130310329Y-84789974D01*
X130301513Y-84804959D01*
X130283966Y-84847497D01*
X130273487Y-84894395D01*
X130270450Y-84942533D01*
X130275229Y-84988796D01*
X130278042Y-85001082D01*
X130294768Y-85046255D01*
X130319897Y-85085787D01*
X130335054Y-85102840D01*
X130357636Y-85125745D01*
X130285497Y-85125745D01*
X130285497Y-85293418D01*
X130505251Y-85293241D01*
X130565241Y-85293094D01*
X130615874Y-85292743D01*
X130657953Y-85292165D01*
X130692279Y-85291340D01*
X130719657Y-85290244D01*
X130740888Y-85288855D01*
X130756776Y-85287152D01*
X130763112Y-85286150D01*
X130811187Y-85274500D01*
X130850829Y-85258088D01*
X130882976Y-85236084D01*
X130908565Y-85207659D01*
X130928534Y-85171985D01*
X130940948Y-85136454D01*
X130940948Y-85410282D01*
X130285497Y-85410282D01*
X130285497Y-85552550D01*
X130521514Y-85552550D01*
X130582254Y-85552607D01*
X130633676Y-85552822D01*
X130676619Y-85553264D01*
X130711927Y-85554000D01*
X130740441Y-85555098D01*
X130763004Y-85556625D01*
X130780458Y-85558651D01*
X130793644Y-85561242D01*
X130803404Y-85564467D01*
X130810581Y-85568393D01*
X130816017Y-85573087D01*
X130818958Y-85576511D01*
X130827631Y-85594553D01*
X130827343Y-85613100D01*
X130818952Y-85630039D01*
X130803315Y-85643257D01*
X130789556Y-85648886D01*
X130779695Y-85650166D01*
X130760255Y-85651289D01*
X130731818Y-85652243D01*
X130694966Y-85653016D01*
X130650280Y-85653598D01*
X130598344Y-85653975D01*
X130539739Y-85654137D01*
X130528115Y-85654142D01*
X130285497Y-85654170D01*
X130285497Y-85796439D01*
X130528115Y-85796467D01*
X130587900Y-85796587D01*
X130641125Y-85796925D01*
X130687207Y-85797469D01*
X130725564Y-85798208D01*
X130755615Y-85799129D01*
X130776778Y-85800221D01*
X130788470Y-85801473D01*
X130789556Y-85801723D01*
X130808746Y-85811207D01*
X130822632Y-85826218D01*
X130828991Y-85844183D01*
X130829165Y-85847651D01*
X130824454Y-85865967D01*
X130810935Y-85880521D01*
X130789532Y-85890479D01*
X130778932Y-85892996D01*
X130767796Y-85894107D01*
X130747545Y-85895121D01*
X130719228Y-85896018D01*
X130683892Y-85896778D01*
X130642584Y-85897379D01*
X130596353Y-85897803D01*
X130546245Y-85898028D01*
X130518530Y-85898059D01*
X130285497Y-85898059D01*
X130285497Y-86041596D01*
X130528115Y-86038851D01*
X130590491Y-86038070D01*
X130592997Y-86038030D01*
X130592997Y-86136700D01*
X130547925Y-86139436D01*
X130507939Y-86145280D01*
X130499471Y-86147155D01*
X130445669Y-86164625D01*
X130398666Y-86189542D01*
X130358632Y-86221761D01*
X130325735Y-86261140D01*
X130300145Y-86307535D01*
X130294574Y-86321080D01*
X130281970Y-86363933D01*
X130274011Y-86413627D01*
X130270852Y-86467889D01*
X130272645Y-86524444D01*
X130277782Y-86570033D01*
X130283111Y-86598488D01*
X130290730Y-86630695D01*
X130299250Y-86660938D01*
X130301887Y-86669113D01*
X130318523Y-86718643D01*
X130398129Y-86720040D01*
X130477735Y-86721438D01*
X130462612Y-86693516D01*
X130440604Y-86646565D01*
X130424244Y-86598242D01*
X130413574Y-86549882D01*
X130408639Y-86502818D01*
X130409480Y-86458382D01*
X130416140Y-86417910D01*
X130428663Y-86382734D01*
X130447091Y-86354187D01*
X130451551Y-86349327D01*
X130472384Y-86332984D01*
X130498325Y-86319760D01*
X130498899Y-86319584D01*
X130498899Y-87056531D01*
X130285497Y-87056531D01*
X130285497Y-87254691D01*
X130498899Y-87254691D01*
X130498899Y-87056531D01*
X130498899Y-86319584D01*
X130525189Y-86311487D01*
X130542279Y-86309622D01*
X130559872Y-86309622D01*
X130559872Y-86753163D01*
X130632276Y-86750096D01*
X130661806Y-86748358D01*
X130690892Y-86745792D01*
X130716458Y-86742724D01*
X130735428Y-86739479D01*
X130737630Y-86738969D01*
X130790009Y-86721420D01*
X130836167Y-86696146D01*
X130875624Y-86663588D01*
X130905381Y-86627268D01*
X130905381Y-87056531D01*
X130691978Y-87056531D01*
X130691978Y-87254691D01*
X130905381Y-87254691D01*
X130905381Y-87056531D01*
X130905381Y-86627268D01*
X130907902Y-86624190D01*
X130932524Y-86578395D01*
X130943303Y-86548429D01*
X130949426Y-86520171D01*
X130953350Y-86485550D01*
X130954957Y-86448149D01*
X130954130Y-86411553D01*
X130950753Y-86379345D01*
X130949123Y-86370594D01*
X130933296Y-86319474D01*
X130908941Y-86273403D01*
X130876661Y-86232976D01*
X130837062Y-86198787D01*
X130790748Y-86171430D01*
X130738323Y-86151501D01*
X130721835Y-86147141D01*
X130683643Y-86140552D01*
X130639467Y-86137071D01*
X130592997Y-86136700D01*
X130592997Y-86038030D01*
X130643702Y-86037209D01*
X130688749Y-86036203D01*
X130726627Y-86034989D01*
X130758337Y-86033503D01*
X130784876Y-86031683D01*
X130807242Y-86029466D01*
X130826434Y-86026787D01*
X130843449Y-86023583D01*
X130859286Y-86019791D01*
X130868521Y-86017241D01*
X130899962Y-86003291D01*
X130924975Y-85981808D01*
X130942934Y-85953601D01*
X130953213Y-85919480D01*
X130954948Y-85905463D01*
X130954431Y-85868124D01*
X130946055Y-85836479D01*
X130929365Y-85809261D01*
X130914986Y-85794363D01*
X130901181Y-85782630D01*
X130889883Y-85774252D01*
X130883528Y-85771034D01*
X130883512Y-85771034D01*
X130884270Y-85768657D01*
X130891954Y-85762511D01*
X130901400Y-85756185D01*
X130925923Y-85735119D01*
X130943021Y-85708949D01*
X130952718Y-85679483D01*
X130955040Y-85648526D01*
X130950010Y-85617888D01*
X130937656Y-85589373D01*
X130918000Y-85564790D01*
X130898553Y-85550062D01*
X130877435Y-85537403D01*
X130909191Y-85537355D01*
X130940948Y-85537307D01*
X130940948Y-85410282D01*
X130940948Y-85136454D01*
X130943820Y-85128233D01*
X130944498Y-85125745D01*
X130948086Y-85109759D01*
X130950613Y-85091433D01*
X130952220Y-85068803D01*
X130953048Y-85039904D01*
X130953240Y-85003800D01*
X130952233Y-84953654D01*
X130949125Y-84910900D01*
X130943508Y-84872907D01*
X130934974Y-84837049D01*
X130923115Y-84800695D01*
X130920714Y-84794208D01*
X130909732Y-84764993D01*
X130839809Y-84764993D01*
X130814210Y-84765165D01*
X130792443Y-84765638D01*
X130776430Y-84766345D01*
X130768092Y-84767219D01*
X130767382Y-84767498D01*
X130768136Y-84772980D01*
X130772533Y-84784919D01*
X130779475Y-84800418D01*
X130801505Y-84853141D01*
X130816676Y-84906511D01*
X130821724Y-84932061D01*
X130828033Y-84982743D01*
X130827990Y-85025944D01*
X130821645Y-85061550D01*
X130809051Y-85089445D01*
X130790259Y-85109515D01*
X130765322Y-85121644D01*
X130734519Y-85125716D01*
X130718629Y-85125745D01*
X130716074Y-85017773D01*
X130714969Y-84978380D01*
X130713635Y-84947311D01*
X130711908Y-84922729D01*
X130709622Y-84902797D01*
X130706615Y-84885677D01*
X130702874Y-84870099D01*
X130686827Y-84822350D01*
X130666370Y-84783507D01*
X130640889Y-84753054D01*
X130609774Y-84730470D01*
X130572413Y-84715239D01*
X130528195Y-84706842D01*
X130508390Y-84705277D01*
X130508390Y-84582076D01*
X131154350Y-84582076D01*
X131154350Y-84429723D01*
X130840753Y-84428414D01*
X130527157Y-84427105D01*
X130839483Y-84307049D01*
X131151810Y-84186992D01*
X131154580Y-84002840D01*
X130285497Y-84002840D01*
X130285497Y-83794519D01*
X131494778Y-83794519D01*
X131494778Y-105810562D01*
X126500140Y-105810562D01*
%TO.C,REF\u002A\u002A*%
G36*
X168703910Y-69042348D02*
G01*
X168782454Y-69042778D01*
X168839298Y-69043942D01*
X168878105Y-69046207D01*
X168902538Y-69049940D01*
X168916262Y-69055506D01*
X168922940Y-69063273D01*
X168926236Y-69073605D01*
X168926556Y-69074943D01*
X168931562Y-69099079D01*
X168940829Y-69146701D01*
X168953392Y-69212741D01*
X168968287Y-69292128D01*
X168984551Y-69379796D01*
X168985119Y-69382875D01*
X169001410Y-69468789D01*
X169016652Y-69544696D01*
X169029861Y-69606045D01*
X169040054Y-69648282D01*
X169046248Y-69666855D01*
X169046543Y-69667184D01*
X169064788Y-69676253D01*
X169102405Y-69691367D01*
X169151271Y-69709262D01*
X169151543Y-69709358D01*
X169213093Y-69732493D01*
X169285657Y-69761965D01*
X169354057Y-69791597D01*
X169357294Y-69793062D01*
X169468702Y-69843626D01*
X169715399Y-69675160D01*
X169791077Y-69623803D01*
X169859631Y-69577889D01*
X169917088Y-69540030D01*
X169959476Y-69512837D01*
X169982825Y-69498921D01*
X169985042Y-69497889D01*
X170002010Y-69502484D01*
X170033701Y-69524655D01*
X170081352Y-69565447D01*
X170146198Y-69625905D01*
X170212397Y-69690227D01*
X170276214Y-69753612D01*
X170333329Y-69811451D01*
X170380305Y-69860175D01*
X170413703Y-69896210D01*
X170430085Y-69915984D01*
X170430694Y-69917002D01*
X170432505Y-69930572D01*
X170425683Y-69952733D01*
X170408540Y-69986478D01*
X170379393Y-70034800D01*
X170336555Y-70100692D01*
X170279448Y-70185517D01*
X170228766Y-70260177D01*
X170183461Y-70327140D01*
X170146150Y-70382516D01*
X170119452Y-70422420D01*
X170105985Y-70442962D01*
X170105137Y-70444356D01*
X170106781Y-70464038D01*
X170119245Y-70502293D01*
X170140048Y-70551889D01*
X170147462Y-70567728D01*
X170179814Y-70638290D01*
X170214328Y-70718353D01*
X170242365Y-70787629D01*
X170262568Y-70839045D01*
X170278615Y-70878119D01*
X170287888Y-70898541D01*
X170289041Y-70900114D01*
X170306096Y-70902721D01*
X170346298Y-70909863D01*
X170404302Y-70920523D01*
X170474763Y-70933685D01*
X170552335Y-70948333D01*
X170631672Y-70963449D01*
X170707431Y-70978018D01*
X170774264Y-70991022D01*
X170826828Y-71001445D01*
X170859776Y-71008270D01*
X170867857Y-71010199D01*
X170876205Y-71014962D01*
X170882506Y-71025718D01*
X170887045Y-71046098D01*
X170890104Y-71079734D01*
X170891967Y-71130255D01*
X170892918Y-71201292D01*
X170893240Y-71296476D01*
X170893257Y-71335492D01*
X170893257Y-71652799D01*
X170817057Y-71667839D01*
X170774663Y-71675995D01*
X170711400Y-71687899D01*
X170634962Y-71702116D01*
X170553043Y-71717210D01*
X170530400Y-71721355D01*
X170454806Y-71736053D01*
X170388953Y-71750505D01*
X170338366Y-71763375D01*
X170308574Y-71773322D01*
X170303612Y-71776287D01*
X170291426Y-71797283D01*
X170273953Y-71837967D01*
X170254577Y-71890322D01*
X170250734Y-71901600D01*
X170225339Y-71971523D01*
X170193817Y-72050418D01*
X170162969Y-72121266D01*
X170162817Y-72121595D01*
X170111447Y-72232733D01*
X170280399Y-72481253D01*
X170449352Y-72729772D01*
X170232429Y-72947058D01*
X170166819Y-73011726D01*
X170106979Y-73068733D01*
X170056267Y-73115033D01*
X170018046Y-73147584D01*
X169995675Y-73163343D01*
X169992466Y-73164343D01*
X169973626Y-73156469D01*
X169935180Y-73134578D01*
X169881330Y-73101267D01*
X169816276Y-73059131D01*
X169745940Y-73011943D01*
X169674555Y-72963810D01*
X169610908Y-72921928D01*
X169559041Y-72888871D01*
X169522995Y-72867218D01*
X169506867Y-72859543D01*
X169487189Y-72866037D01*
X169449875Y-72883150D01*
X169402621Y-72907326D01*
X169397612Y-72910013D01*
X169333977Y-72941927D01*
X169290341Y-72957579D01*
X169263202Y-72957745D01*
X169249057Y-72943204D01*
X169248975Y-72943000D01*
X169241905Y-72925779D01*
X169225042Y-72884899D01*
X169199695Y-72823525D01*
X169167171Y-72744819D01*
X169128778Y-72651947D01*
X169085822Y-72548072D01*
X169044222Y-72447502D01*
X168998504Y-72336516D01*
X168956526Y-72233703D01*
X168919548Y-72142215D01*
X168888827Y-72065201D01*
X168865622Y-72005815D01*
X168851190Y-71967209D01*
X168846743Y-71952800D01*
X168857896Y-71936272D01*
X168887069Y-71909930D01*
X168925971Y-71880887D01*
X169036757Y-71789039D01*
X169123351Y-71683759D01*
X169184716Y-71567266D01*
X169219815Y-71441776D01*
X169227608Y-71309507D01*
X169221943Y-71248457D01*
X169191078Y-71121795D01*
X169137920Y-71009941D01*
X169065767Y-70914001D01*
X168977917Y-70835076D01*
X168877665Y-70774270D01*
X168768310Y-70732687D01*
X168653147Y-70711428D01*
X168535475Y-70711599D01*
X168418590Y-70734301D01*
X168305789Y-70780638D01*
X168200369Y-70851713D01*
X168156368Y-70891911D01*
X168071979Y-70995129D01*
X168013222Y-71107925D01*
X167979704Y-71227010D01*
X167971035Y-71349095D01*
X167986823Y-71470893D01*
X168026678Y-71589116D01*
X168090207Y-71700475D01*
X168177021Y-71801684D01*
X168274029Y-71880887D01*
X168314437Y-71911162D01*
X168342982Y-71937219D01*
X168353257Y-71952825D01*
X168347877Y-71969843D01*
X168332575Y-72010500D01*
X168308612Y-72071642D01*
X168277244Y-72150119D01*
X168239732Y-72242780D01*
X168197333Y-72346472D01*
X168155663Y-72447526D01*
X168109690Y-72558607D01*
X168067107Y-72661541D01*
X168029221Y-72753165D01*
X167997340Y-72830316D01*
X167972771Y-72889831D01*
X167956820Y-72928544D01*
X167950910Y-72943000D01*
X167936948Y-72957685D01*
X167909940Y-72957642D01*
X167866413Y-72942099D01*
X167802890Y-72910284D01*
X167802388Y-72910013D01*
X167754560Y-72885323D01*
X167715897Y-72867338D01*
X167694095Y-72859614D01*
X167693133Y-72859543D01*
X167676721Y-72867378D01*
X167640487Y-72889165D01*
X167588474Y-72922328D01*
X167524725Y-72964291D01*
X167454060Y-73011943D01*
X167382116Y-73060191D01*
X167317274Y-73102151D01*
X167263735Y-73135227D01*
X167225697Y-73156821D01*
X167207533Y-73164343D01*
X167190808Y-73154457D01*
X167157180Y-73126826D01*
X167110010Y-73084495D01*
X167052658Y-73030505D01*
X166988484Y-72967899D01*
X166967497Y-72946983D01*
X166750499Y-72729623D01*
X166915668Y-72487220D01*
X166965864Y-72412781D01*
X167009919Y-72345972D01*
X167045362Y-72290665D01*
X167069719Y-72250729D01*
X167080522Y-72230036D01*
X167080838Y-72228563D01*
X167075143Y-72209058D01*
X167059826Y-72169822D01*
X167037537Y-72117430D01*
X167021893Y-72082355D01*
X166992641Y-72015201D01*
X166965094Y-71947358D01*
X166943737Y-71890034D01*
X166937935Y-71872572D01*
X166921452Y-71825938D01*
X166905340Y-71789905D01*
X166896490Y-71776287D01*
X166876960Y-71767952D01*
X166834334Y-71756137D01*
X166774145Y-71742181D01*
X166701922Y-71727422D01*
X166669600Y-71721355D01*
X166587522Y-71706273D01*
X166508795Y-71691669D01*
X166441109Y-71678980D01*
X166392160Y-71669642D01*
X166382943Y-71667839D01*
X166306743Y-71652799D01*
X166306743Y-71335492D01*
X166306914Y-71231154D01*
X166307616Y-71152213D01*
X166309134Y-71095038D01*
X166311749Y-71055999D01*
X166315746Y-71031465D01*
X166321409Y-71017805D01*
X166329020Y-71011389D01*
X166332143Y-71010199D01*
X166350978Y-71005980D01*
X166392588Y-70997562D01*
X166451630Y-70985961D01*
X166522757Y-70972195D01*
X166600625Y-70957280D01*
X166679887Y-70942232D01*
X166755198Y-70928069D01*
X166821213Y-70915806D01*
X166872587Y-70906461D01*
X166903975Y-70901050D01*
X166910959Y-70900114D01*
X166917285Y-70887596D01*
X166931290Y-70854246D01*
X166950355Y-70806377D01*
X166957634Y-70787629D01*
X166986996Y-70715195D01*
X167021571Y-70635170D01*
X167052537Y-70567728D01*
X167075323Y-70516159D01*
X167090482Y-70473785D01*
X167095542Y-70447834D01*
X167094736Y-70444356D01*
X167084041Y-70427936D01*
X167059620Y-70391417D01*
X167024095Y-70338687D01*
X166980087Y-70273635D01*
X166930217Y-70200151D01*
X166920356Y-70185645D01*
X166862492Y-70099704D01*
X166819956Y-70034261D01*
X166791054Y-69986304D01*
X166774090Y-69952820D01*
X166767367Y-69930795D01*
X166769190Y-69917217D01*
X166769236Y-69917131D01*
X166783586Y-69899297D01*
X166815323Y-69864817D01*
X166861010Y-69817268D01*
X166917204Y-69760222D01*
X166980468Y-69697255D01*
X166987602Y-69690227D01*
X167067330Y-69613020D01*
X167128857Y-69556330D01*
X167173421Y-69519110D01*
X167202257Y-69500315D01*
X167214958Y-69497889D01*
X167233494Y-69508471D01*
X167271961Y-69532916D01*
X167326386Y-69568612D01*
X167392798Y-69612947D01*
X167467225Y-69663311D01*
X167484601Y-69675160D01*
X167731297Y-69843626D01*
X167842706Y-69793062D01*
X167910457Y-69763595D01*
X167983183Y-69733959D01*
X168045703Y-69710330D01*
X168048457Y-69709358D01*
X168097360Y-69691457D01*
X168135057Y-69676320D01*
X168153425Y-69667210D01*
X168153456Y-69667184D01*
X168159285Y-69650717D01*
X168169192Y-69610219D01*
X168182195Y-69550242D01*
X168197309Y-69475340D01*
X168213552Y-69390064D01*
X168214881Y-69382875D01*
X168231175Y-69295014D01*
X168246133Y-69215260D01*
X168258791Y-69148681D01*
X168268186Y-69100347D01*
X168273354Y-69075325D01*
X168273444Y-69074943D01*
X168276589Y-69064299D01*
X168282704Y-69056262D01*
X168295453Y-69050467D01*
X168318500Y-69046547D01*
X168355509Y-69044135D01*
X168410144Y-69042865D01*
X168486067Y-69042371D01*
X168586944Y-69042286D01*
X168600000Y-69042286D01*
X168703910Y-69042348D01*
G37*
X168703910Y-69042348D02*
X168782454Y-69042778D01*
X168839298Y-69043942D01*
X168878105Y-69046207D01*
X168902538Y-69049940D01*
X168916262Y-69055506D01*
X168922940Y-69063273D01*
X168926236Y-69073605D01*
X168926556Y-69074943D01*
X168931562Y-69099079D01*
X168940829Y-69146701D01*
X168953392Y-69212741D01*
X168968287Y-69292128D01*
X168984551Y-69379796D01*
X168985119Y-69382875D01*
X169001410Y-69468789D01*
X169016652Y-69544696D01*
X169029861Y-69606045D01*
X169040054Y-69648282D01*
X169046248Y-69666855D01*
X169046543Y-69667184D01*
X169064788Y-69676253D01*
X169102405Y-69691367D01*
X169151271Y-69709262D01*
X169151543Y-69709358D01*
X169213093Y-69732493D01*
X169285657Y-69761965D01*
X169354057Y-69791597D01*
X169357294Y-69793062D01*
X169468702Y-69843626D01*
X169715399Y-69675160D01*
X169791077Y-69623803D01*
X169859631Y-69577889D01*
X169917088Y-69540030D01*
X169959476Y-69512837D01*
X169982825Y-69498921D01*
X169985042Y-69497889D01*
X170002010Y-69502484D01*
X170033701Y-69524655D01*
X170081352Y-69565447D01*
X170146198Y-69625905D01*
X170212397Y-69690227D01*
X170276214Y-69753612D01*
X170333329Y-69811451D01*
X170380305Y-69860175D01*
X170413703Y-69896210D01*
X170430085Y-69915984D01*
X170430694Y-69917002D01*
X170432505Y-69930572D01*
X170425683Y-69952733D01*
X170408540Y-69986478D01*
X170379393Y-70034800D01*
X170336555Y-70100692D01*
X170279448Y-70185517D01*
X170228766Y-70260177D01*
X170183461Y-70327140D01*
X170146150Y-70382516D01*
X170119452Y-70422420D01*
X170105985Y-70442962D01*
X170105137Y-70444356D01*
X170106781Y-70464038D01*
X170119245Y-70502293D01*
X170140048Y-70551889D01*
X170147462Y-70567728D01*
X170179814Y-70638290D01*
X170214328Y-70718353D01*
X170242365Y-70787629D01*
X170262568Y-70839045D01*
X170278615Y-70878119D01*
X170287888Y-70898541D01*
X170289041Y-70900114D01*
X170306096Y-70902721D01*
X170346298Y-70909863D01*
X170404302Y-70920523D01*
X170474763Y-70933685D01*
X170552335Y-70948333D01*
X170631672Y-70963449D01*
X170707431Y-70978018D01*
X170774264Y-70991022D01*
X170826828Y-71001445D01*
X170859776Y-71008270D01*
X170867857Y-71010199D01*
X170876205Y-71014962D01*
X170882506Y-71025718D01*
X170887045Y-71046098D01*
X170890104Y-71079734D01*
X170891967Y-71130255D01*
X170892918Y-71201292D01*
X170893240Y-71296476D01*
X170893257Y-71335492D01*
X170893257Y-71652799D01*
X170817057Y-71667839D01*
X170774663Y-71675995D01*
X170711400Y-71687899D01*
X170634962Y-71702116D01*
X170553043Y-71717210D01*
X170530400Y-71721355D01*
X170454806Y-71736053D01*
X170388953Y-71750505D01*
X170338366Y-71763375D01*
X170308574Y-71773322D01*
X170303612Y-71776287D01*
X170291426Y-71797283D01*
X170273953Y-71837967D01*
X170254577Y-71890322D01*
X170250734Y-71901600D01*
X170225339Y-71971523D01*
X170193817Y-72050418D01*
X170162969Y-72121266D01*
X170162817Y-72121595D01*
X170111447Y-72232733D01*
X170280399Y-72481253D01*
X170449352Y-72729772D01*
X170232429Y-72947058D01*
X170166819Y-73011726D01*
X170106979Y-73068733D01*
X170056267Y-73115033D01*
X170018046Y-73147584D01*
X169995675Y-73163343D01*
X169992466Y-73164343D01*
X169973626Y-73156469D01*
X169935180Y-73134578D01*
X169881330Y-73101267D01*
X169816276Y-73059131D01*
X169745940Y-73011943D01*
X169674555Y-72963810D01*
X169610908Y-72921928D01*
X169559041Y-72888871D01*
X169522995Y-72867218D01*
X169506867Y-72859543D01*
X169487189Y-72866037D01*
X169449875Y-72883150D01*
X169402621Y-72907326D01*
X169397612Y-72910013D01*
X169333977Y-72941927D01*
X169290341Y-72957579D01*
X169263202Y-72957745D01*
X169249057Y-72943204D01*
X169248975Y-72943000D01*
X169241905Y-72925779D01*
X169225042Y-72884899D01*
X169199695Y-72823525D01*
X169167171Y-72744819D01*
X169128778Y-72651947D01*
X169085822Y-72548072D01*
X169044222Y-72447502D01*
X168998504Y-72336516D01*
X168956526Y-72233703D01*
X168919548Y-72142215D01*
X168888827Y-72065201D01*
X168865622Y-72005815D01*
X168851190Y-71967209D01*
X168846743Y-71952800D01*
X168857896Y-71936272D01*
X168887069Y-71909930D01*
X168925971Y-71880887D01*
X169036757Y-71789039D01*
X169123351Y-71683759D01*
X169184716Y-71567266D01*
X169219815Y-71441776D01*
X169227608Y-71309507D01*
X169221943Y-71248457D01*
X169191078Y-71121795D01*
X169137920Y-71009941D01*
X169065767Y-70914001D01*
X168977917Y-70835076D01*
X168877665Y-70774270D01*
X168768310Y-70732687D01*
X168653147Y-70711428D01*
X168535475Y-70711599D01*
X168418590Y-70734301D01*
X168305789Y-70780638D01*
X168200369Y-70851713D01*
X168156368Y-70891911D01*
X168071979Y-70995129D01*
X168013222Y-71107925D01*
X167979704Y-71227010D01*
X167971035Y-71349095D01*
X167986823Y-71470893D01*
X168026678Y-71589116D01*
X168090207Y-71700475D01*
X168177021Y-71801684D01*
X168274029Y-71880887D01*
X168314437Y-71911162D01*
X168342982Y-71937219D01*
X168353257Y-71952825D01*
X168347877Y-71969843D01*
X168332575Y-72010500D01*
X168308612Y-72071642D01*
X168277244Y-72150119D01*
X168239732Y-72242780D01*
X168197333Y-72346472D01*
X168155663Y-72447526D01*
X168109690Y-72558607D01*
X168067107Y-72661541D01*
X168029221Y-72753165D01*
X167997340Y-72830316D01*
X167972771Y-72889831D01*
X167956820Y-72928544D01*
X167950910Y-72943000D01*
X167936948Y-72957685D01*
X167909940Y-72957642D01*
X167866413Y-72942099D01*
X167802890Y-72910284D01*
X167802388Y-72910013D01*
X167754560Y-72885323D01*
X167715897Y-72867338D01*
X167694095Y-72859614D01*
X167693133Y-72859543D01*
X167676721Y-72867378D01*
X167640487Y-72889165D01*
X167588474Y-72922328D01*
X167524725Y-72964291D01*
X167454060Y-73011943D01*
X167382116Y-73060191D01*
X167317274Y-73102151D01*
X167263735Y-73135227D01*
X167225697Y-73156821D01*
X167207533Y-73164343D01*
X167190808Y-73154457D01*
X167157180Y-73126826D01*
X167110010Y-73084495D01*
X167052658Y-73030505D01*
X166988484Y-72967899D01*
X166967497Y-72946983D01*
X166750499Y-72729623D01*
X166915668Y-72487220D01*
X166965864Y-72412781D01*
X167009919Y-72345972D01*
X167045362Y-72290665D01*
X167069719Y-72250729D01*
X167080522Y-72230036D01*
X167080838Y-72228563D01*
X167075143Y-72209058D01*
X167059826Y-72169822D01*
X167037537Y-72117430D01*
X167021893Y-72082355D01*
X166992641Y-72015201D01*
X166965094Y-71947358D01*
X166943737Y-71890034D01*
X166937935Y-71872572D01*
X166921452Y-71825938D01*
X166905340Y-71789905D01*
X166896490Y-71776287D01*
X166876960Y-71767952D01*
X166834334Y-71756137D01*
X166774145Y-71742181D01*
X166701922Y-71727422D01*
X166669600Y-71721355D01*
X166587522Y-71706273D01*
X166508795Y-71691669D01*
X166441109Y-71678980D01*
X166392160Y-71669642D01*
X166382943Y-71667839D01*
X166306743Y-71652799D01*
X166306743Y-71335492D01*
X166306914Y-71231154D01*
X166307616Y-71152213D01*
X166309134Y-71095038D01*
X166311749Y-71055999D01*
X166315746Y-71031465D01*
X166321409Y-71017805D01*
X166329020Y-71011389D01*
X166332143Y-71010199D01*
X166350978Y-71005980D01*
X166392588Y-70997562D01*
X166451630Y-70985961D01*
X166522757Y-70972195D01*
X166600625Y-70957280D01*
X166679887Y-70942232D01*
X166755198Y-70928069D01*
X166821213Y-70915806D01*
X166872587Y-70906461D01*
X166903975Y-70901050D01*
X166910959Y-70900114D01*
X166917285Y-70887596D01*
X166931290Y-70854246D01*
X166950355Y-70806377D01*
X166957634Y-70787629D01*
X166986996Y-70715195D01*
X167021571Y-70635170D01*
X167052537Y-70567728D01*
X167075323Y-70516159D01*
X167090482Y-70473785D01*
X167095542Y-70447834D01*
X167094736Y-70444356D01*
X167084041Y-70427936D01*
X167059620Y-70391417D01*
X167024095Y-70338687D01*
X166980087Y-70273635D01*
X166930217Y-70200151D01*
X166920356Y-70185645D01*
X166862492Y-70099704D01*
X166819956Y-70034261D01*
X166791054Y-69986304D01*
X166774090Y-69952820D01*
X166767367Y-69930795D01*
X166769190Y-69917217D01*
X166769236Y-69917131D01*
X166783586Y-69899297D01*
X166815323Y-69864817D01*
X166861010Y-69817268D01*
X166917204Y-69760222D01*
X166980468Y-69697255D01*
X166987602Y-69690227D01*
X167067330Y-69613020D01*
X167128857Y-69556330D01*
X167173421Y-69519110D01*
X167202257Y-69500315D01*
X167214958Y-69497889D01*
X167233494Y-69508471D01*
X167271961Y-69532916D01*
X167326386Y-69568612D01*
X167392798Y-69612947D01*
X167467225Y-69663311D01*
X167484601Y-69675160D01*
X167731297Y-69843626D01*
X167842706Y-69793062D01*
X167910457Y-69763595D01*
X167983183Y-69733959D01*
X168045703Y-69710330D01*
X168048457Y-69709358D01*
X168097360Y-69691457D01*
X168135057Y-69676320D01*
X168153425Y-69667210D01*
X168153456Y-69667184D01*
X168159285Y-69650717D01*
X168169192Y-69610219D01*
X168182195Y-69550242D01*
X168197309Y-69475340D01*
X168213552Y-69390064D01*
X168214881Y-69382875D01*
X168231175Y-69295014D01*
X168246133Y-69215260D01*
X168258791Y-69148681D01*
X168268186Y-69100347D01*
X168273354Y-69075325D01*
X168273444Y-69074943D01*
X168276589Y-69064299D01*
X168282704Y-69056262D01*
X168295453Y-69050467D01*
X168318500Y-69046547D01*
X168355509Y-69044135D01*
X168410144Y-69042865D01*
X168486067Y-69042371D01*
X168586944Y-69042286D01*
X168600000Y-69042286D01*
X168703910Y-69042348D01*
G36*
X171753595Y-73766966D02*
G01*
X171811021Y-73804497D01*
X171838719Y-73838096D01*
X171860662Y-73899064D01*
X171862405Y-73947308D01*
X171858457Y-74011816D01*
X171709686Y-74076934D01*
X171637349Y-74110202D01*
X171590084Y-74136964D01*
X171565507Y-74160144D01*
X171561237Y-74182667D01*
X171574889Y-74207455D01*
X171589943Y-74223886D01*
X171633746Y-74250235D01*
X171681389Y-74252081D01*
X171725145Y-74231546D01*
X171757289Y-74190752D01*
X171763038Y-74176347D01*
X171790576Y-74131356D01*
X171822258Y-74112182D01*
X171865714Y-74095779D01*
X171865714Y-74157966D01*
X171861872Y-74200283D01*
X171846823Y-74235969D01*
X171815280Y-74276943D01*
X171810592Y-74282267D01*
X171775506Y-74318720D01*
X171745347Y-74338283D01*
X171707615Y-74347283D01*
X171676335Y-74350230D01*
X171620385Y-74350965D01*
X171580555Y-74341660D01*
X171555708Y-74327846D01*
X171516656Y-74297467D01*
X171489625Y-74264613D01*
X171472517Y-74223294D01*
X171463238Y-74167521D01*
X171459693Y-74091305D01*
X171459410Y-74052622D01*
X171460372Y-74006247D01*
X171548007Y-74006247D01*
X171549023Y-74031126D01*
X171551556Y-74035200D01*
X171568274Y-74029665D01*
X171604249Y-74015017D01*
X171652331Y-73994190D01*
X171662386Y-73989714D01*
X171723152Y-73958814D01*
X171756632Y-73931657D01*
X171763990Y-73906220D01*
X171746391Y-73880481D01*
X171731856Y-73869109D01*
X171679410Y-73846364D01*
X171630322Y-73850122D01*
X171589227Y-73877884D01*
X171560758Y-73927152D01*
X171551631Y-73966257D01*
X171548007Y-74006247D01*
X171460372Y-74006247D01*
X171461285Y-73962249D01*
X171468196Y-73895384D01*
X171481884Y-73846695D01*
X171504096Y-73810849D01*
X171536574Y-73782513D01*
X171550733Y-73773355D01*
X171615053Y-73749507D01*
X171685473Y-73748006D01*
X171753595Y-73766966D01*
G37*
X171753595Y-73766966D02*
X171811021Y-73804497D01*
X171838719Y-73838096D01*
X171860662Y-73899064D01*
X171862405Y-73947308D01*
X171858457Y-74011816D01*
X171709686Y-74076934D01*
X171637349Y-74110202D01*
X171590084Y-74136964D01*
X171565507Y-74160144D01*
X171561237Y-74182667D01*
X171574889Y-74207455D01*
X171589943Y-74223886D01*
X171633746Y-74250235D01*
X171681389Y-74252081D01*
X171725145Y-74231546D01*
X171757289Y-74190752D01*
X171763038Y-74176347D01*
X171790576Y-74131356D01*
X171822258Y-74112182D01*
X171865714Y-74095779D01*
X171865714Y-74157966D01*
X171861872Y-74200283D01*
X171846823Y-74235969D01*
X171815280Y-74276943D01*
X171810592Y-74282267D01*
X171775506Y-74318720D01*
X171745347Y-74338283D01*
X171707615Y-74347283D01*
X171676335Y-74350230D01*
X171620385Y-74350965D01*
X171580555Y-74341660D01*
X171555708Y-74327846D01*
X171516656Y-74297467D01*
X171489625Y-74264613D01*
X171472517Y-74223294D01*
X171463238Y-74167521D01*
X171459693Y-74091305D01*
X171459410Y-74052622D01*
X171460372Y-74006247D01*
X171548007Y-74006247D01*
X171549023Y-74031126D01*
X171551556Y-74035200D01*
X171568274Y-74029665D01*
X171604249Y-74015017D01*
X171652331Y-73994190D01*
X171662386Y-73989714D01*
X171723152Y-73958814D01*
X171756632Y-73931657D01*
X171763990Y-73906220D01*
X171746391Y-73880481D01*
X171731856Y-73869109D01*
X171679410Y-73846364D01*
X171630322Y-73850122D01*
X171589227Y-73877884D01*
X171560758Y-73927152D01*
X171551631Y-73966257D01*
X171548007Y-74006247D01*
X171460372Y-74006247D01*
X171461285Y-73962249D01*
X171468196Y-73895384D01*
X171481884Y-73846695D01*
X171504096Y-73810849D01*
X171536574Y-73782513D01*
X171550733Y-73773355D01*
X171615053Y-73749507D01*
X171685473Y-73748006D01*
X171753595Y-73766966D01*
G36*
X171252600Y-73758752D02*
G01*
X171269948Y-73766334D01*
X171311356Y-73799128D01*
X171346765Y-73846547D01*
X171368664Y-73897151D01*
X171372229Y-73922098D01*
X171360279Y-73956927D01*
X171334067Y-73975357D01*
X171305964Y-73986516D01*
X171293095Y-73988572D01*
X171286829Y-73973649D01*
X171274456Y-73941175D01*
X171269028Y-73926502D01*
X171238590Y-73875744D01*
X171194520Y-73850427D01*
X171138010Y-73851206D01*
X171133825Y-73852203D01*
X171103655Y-73866507D01*
X171081476Y-73894393D01*
X171066327Y-73939287D01*
X171057250Y-74004615D01*
X171053286Y-74093804D01*
X171052914Y-74141261D01*
X171052730Y-74216071D01*
X171051522Y-74267069D01*
X171048309Y-74299471D01*
X171042109Y-74318495D01*
X171031940Y-74329356D01*
X171016819Y-74337272D01*
X171015946Y-74337670D01*
X170986828Y-74349981D01*
X170972403Y-74354514D01*
X170970186Y-74340809D01*
X170968289Y-74302925D01*
X170966847Y-74245715D01*
X170965998Y-74174027D01*
X170965829Y-74121565D01*
X170966692Y-74020047D01*
X170970070Y-73943032D01*
X170977142Y-73886023D01*
X170989088Y-73844526D01*
X171007090Y-73814043D01*
X171032327Y-73790080D01*
X171057247Y-73773355D01*
X171117171Y-73751097D01*
X171186911Y-73746076D01*
X171252600Y-73758752D01*
G37*
X171252600Y-73758752D02*
X171269948Y-73766334D01*
X171311356Y-73799128D01*
X171346765Y-73846547D01*
X171368664Y-73897151D01*
X171372229Y-73922098D01*
X171360279Y-73956927D01*
X171334067Y-73975357D01*
X171305964Y-73986516D01*
X171293095Y-73988572D01*
X171286829Y-73973649D01*
X171274456Y-73941175D01*
X171269028Y-73926502D01*
X171238590Y-73875744D01*
X171194520Y-73850427D01*
X171138010Y-73851206D01*
X171133825Y-73852203D01*
X171103655Y-73866507D01*
X171081476Y-73894393D01*
X171066327Y-73939287D01*
X171057250Y-74004615D01*
X171053286Y-74093804D01*
X171052914Y-74141261D01*
X171052730Y-74216071D01*
X171051522Y-74267069D01*
X171048309Y-74299471D01*
X171042109Y-74318495D01*
X171031940Y-74329356D01*
X171016819Y-74337272D01*
X171015946Y-74337670D01*
X170986828Y-74349981D01*
X170972403Y-74354514D01*
X170970186Y-74340809D01*
X170968289Y-74302925D01*
X170966847Y-74245715D01*
X170965998Y-74174027D01*
X170965829Y-74121565D01*
X170966692Y-74020047D01*
X170970070Y-73943032D01*
X170977142Y-73886023D01*
X170989088Y-73844526D01*
X171007090Y-73814043D01*
X171032327Y-73790080D01*
X171057247Y-73773355D01*
X171117171Y-73751097D01*
X171186911Y-73746076D01*
X171252600Y-73758752D01*
G36*
X170744876Y-73756335D02*
G01*
X170786667Y-73775344D01*
X170819469Y-73798378D01*
X170843503Y-73824133D01*
X170860097Y-73857358D01*
X170870577Y-73902800D01*
X170876271Y-73965207D01*
X170878507Y-74049327D01*
X170878743Y-74104721D01*
X170878743Y-74320826D01*
X170841774Y-74337670D01*
X170812656Y-74349981D01*
X170798231Y-74354514D01*
X170795472Y-74341025D01*
X170793282Y-74304653D01*
X170791942Y-74251542D01*
X170791657Y-74209372D01*
X170790434Y-74148447D01*
X170787136Y-74100115D01*
X170782321Y-74070518D01*
X170778496Y-74064229D01*
X170752783Y-74070652D01*
X170712418Y-74087125D01*
X170665679Y-74109458D01*
X170620845Y-74133457D01*
X170586193Y-74154930D01*
X170570002Y-74169685D01*
X170569938Y-74169845D01*
X170571330Y-74197152D01*
X170583818Y-74223219D01*
X170605743Y-74244392D01*
X170637743Y-74251474D01*
X170665092Y-74250649D01*
X170703826Y-74250042D01*
X170724158Y-74259116D01*
X170736369Y-74283092D01*
X170737909Y-74287613D01*
X170743203Y-74321806D01*
X170729047Y-74342568D01*
X170692148Y-74352462D01*
X170652289Y-74354292D01*
X170580562Y-74340727D01*
X170543432Y-74321355D01*
X170497576Y-74275845D01*
X170473256Y-74219983D01*
X170471073Y-74160957D01*
X170491629Y-74105953D01*
X170522549Y-74071486D01*
X170553420Y-74052189D01*
X170601942Y-74027759D01*
X170658485Y-74002985D01*
X170667910Y-73999199D01*
X170730019Y-73971791D01*
X170765822Y-73947634D01*
X170777337Y-73923619D01*
X170766580Y-73896635D01*
X170748114Y-73875543D01*
X170704469Y-73849572D01*
X170656446Y-73847624D01*
X170612406Y-73867637D01*
X170580709Y-73907551D01*
X170576549Y-73917848D01*
X170552327Y-73955724D01*
X170516965Y-73983842D01*
X170472343Y-74006917D01*
X170472343Y-73941485D01*
X170474969Y-73901506D01*
X170486230Y-73869997D01*
X170511199Y-73836378D01*
X170535169Y-73810484D01*
X170572441Y-73773817D01*
X170601401Y-73754121D01*
X170632505Y-73746220D01*
X170667713Y-73744914D01*
X170744876Y-73756335D01*
G37*
X170744876Y-73756335D02*
X170786667Y-73775344D01*
X170819469Y-73798378D01*
X170843503Y-73824133D01*
X170860097Y-73857358D01*
X170870577Y-73902800D01*
X170876271Y-73965207D01*
X170878507Y-74049327D01*
X170878743Y-74104721D01*
X170878743Y-74320826D01*
X170841774Y-74337670D01*
X170812656Y-74349981D01*
X170798231Y-74354514D01*
X170795472Y-74341025D01*
X170793282Y-74304653D01*
X170791942Y-74251542D01*
X170791657Y-74209372D01*
X170790434Y-74148447D01*
X170787136Y-74100115D01*
X170782321Y-74070518D01*
X170778496Y-74064229D01*
X170752783Y-74070652D01*
X170712418Y-74087125D01*
X170665679Y-74109458D01*
X170620845Y-74133457D01*
X170586193Y-74154930D01*
X170570002Y-74169685D01*
X170569938Y-74169845D01*
X170571330Y-74197152D01*
X170583818Y-74223219D01*
X170605743Y-74244392D01*
X170637743Y-74251474D01*
X170665092Y-74250649D01*
X170703826Y-74250042D01*
X170724158Y-74259116D01*
X170736369Y-74283092D01*
X170737909Y-74287613D01*
X170743203Y-74321806D01*
X170729047Y-74342568D01*
X170692148Y-74352462D01*
X170652289Y-74354292D01*
X170580562Y-74340727D01*
X170543432Y-74321355D01*
X170497576Y-74275845D01*
X170473256Y-74219983D01*
X170471073Y-74160957D01*
X170491629Y-74105953D01*
X170522549Y-74071486D01*
X170553420Y-74052189D01*
X170601942Y-74027759D01*
X170658485Y-74002985D01*
X170667910Y-73999199D01*
X170730019Y-73971791D01*
X170765822Y-73947634D01*
X170777337Y-73923619D01*
X170766580Y-73896635D01*
X170748114Y-73875543D01*
X170704469Y-73849572D01*
X170656446Y-73847624D01*
X170612406Y-73867637D01*
X170580709Y-73907551D01*
X170576549Y-73917848D01*
X170552327Y-73955724D01*
X170516965Y-73983842D01*
X170472343Y-74006917D01*
X170472343Y-73941485D01*
X170474969Y-73901506D01*
X170486230Y-73869997D01*
X170511199Y-73836378D01*
X170535169Y-73810484D01*
X170572441Y-73773817D01*
X170601401Y-73754121D01*
X170632505Y-73746220D01*
X170667713Y-73744914D01*
X170744876Y-73756335D01*
G36*
X170379833Y-73758663D02*
G01*
X170382048Y-73796850D01*
X170383784Y-73854886D01*
X170384899Y-73928180D01*
X170385257Y-74005055D01*
X170385257Y-74265196D01*
X170339326Y-74311127D01*
X170307675Y-74339429D01*
X170279890Y-74350893D01*
X170241915Y-74350168D01*
X170226840Y-74348321D01*
X170179726Y-74342948D01*
X170140756Y-74339869D01*
X170131257Y-74339585D01*
X170099233Y-74341445D01*
X170053432Y-74346114D01*
X170035674Y-74348321D01*
X169992057Y-74351735D01*
X169962745Y-74344320D01*
X169933680Y-74321427D01*
X169923188Y-74311127D01*
X169877257Y-74265196D01*
X169877257Y-73778602D01*
X169914226Y-73761758D01*
X169946059Y-73749282D01*
X169964683Y-73744914D01*
X169969458Y-73758718D01*
X169973921Y-73797286D01*
X169977775Y-73856356D01*
X169980722Y-73931663D01*
X169982143Y-73995286D01*
X169986114Y-74245657D01*
X170020759Y-74250556D01*
X170052268Y-74247131D01*
X170067708Y-74236041D01*
X170072023Y-74215308D01*
X170075708Y-74171145D01*
X170078469Y-74109146D01*
X170080012Y-74034909D01*
X170080235Y-73996706D01*
X170080457Y-73776783D01*
X170126166Y-73760849D01*
X170158518Y-73750015D01*
X170176115Y-73744962D01*
X170176623Y-73744914D01*
X170178388Y-73758648D01*
X170180329Y-73796730D01*
X170182282Y-73854482D01*
X170184084Y-73927227D01*
X170185343Y-73995286D01*
X170189314Y-74245657D01*
X170276400Y-74245657D01*
X170280396Y-74017240D01*
X170284392Y-73788822D01*
X170326847Y-73766868D01*
X170358192Y-73751793D01*
X170376744Y-73744951D01*
X170377279Y-73744914D01*
X170379833Y-73758663D01*
G37*
X170379833Y-73758663D02*
X170382048Y-73796850D01*
X170383784Y-73854886D01*
X170384899Y-73928180D01*
X170385257Y-74005055D01*
X170385257Y-74265196D01*
X170339326Y-74311127D01*
X170307675Y-74339429D01*
X170279890Y-74350893D01*
X170241915Y-74350168D01*
X170226840Y-74348321D01*
X170179726Y-74342948D01*
X170140756Y-74339869D01*
X170131257Y-74339585D01*
X170099233Y-74341445D01*
X170053432Y-74346114D01*
X170035674Y-74348321D01*
X169992057Y-74351735D01*
X169962745Y-74344320D01*
X169933680Y-74321427D01*
X169923188Y-74311127D01*
X169877257Y-74265196D01*
X169877257Y-73778602D01*
X169914226Y-73761758D01*
X169946059Y-73749282D01*
X169964683Y-73744914D01*
X169969458Y-73758718D01*
X169973921Y-73797286D01*
X169977775Y-73856356D01*
X169980722Y-73931663D01*
X169982143Y-73995286D01*
X169986114Y-74245657D01*
X170020759Y-74250556D01*
X170052268Y-74247131D01*
X170067708Y-74236041D01*
X170072023Y-74215308D01*
X170075708Y-74171145D01*
X170078469Y-74109146D01*
X170080012Y-74034909D01*
X170080235Y-73996706D01*
X170080457Y-73776783D01*
X170126166Y-73760849D01*
X170158518Y-73750015D01*
X170176115Y-73744962D01*
X170176623Y-73744914D01*
X170178388Y-73758648D01*
X170180329Y-73796730D01*
X170182282Y-73854482D01*
X170184084Y-73927227D01*
X170185343Y-73995286D01*
X170189314Y-74245657D01*
X170276400Y-74245657D01*
X170280396Y-74017240D01*
X170284392Y-73788822D01*
X170326847Y-73766868D01*
X170358192Y-73751793D01*
X170376744Y-73744951D01*
X170377279Y-73744914D01*
X170379833Y-73758663D01*
G36*
X169790117Y-73865358D02*
G01*
X169789933Y-73973837D01*
X169789219Y-74057287D01*
X169787675Y-74119704D01*
X169785001Y-74165085D01*
X169780894Y-74197429D01*
X169775055Y-74220733D01*
X169767182Y-74238995D01*
X169761221Y-74249418D01*
X169711855Y-74305945D01*
X169649264Y-74341377D01*
X169580013Y-74354090D01*
X169510668Y-74342463D01*
X169469375Y-74321568D01*
X169426025Y-74285422D01*
X169396481Y-74241276D01*
X169378655Y-74183462D01*
X169370463Y-74106313D01*
X169369302Y-74049714D01*
X169369458Y-74045647D01*
X169470857Y-74045647D01*
X169471476Y-74110550D01*
X169474314Y-74153514D01*
X169480840Y-74181622D01*
X169492523Y-74201953D01*
X169506483Y-74217288D01*
X169553365Y-74246890D01*
X169603701Y-74249419D01*
X169651276Y-74224705D01*
X169654979Y-74221356D01*
X169670783Y-74203935D01*
X169680693Y-74183209D01*
X169686058Y-74152362D01*
X169688228Y-74104577D01*
X169688571Y-74051748D01*
X169687827Y-73985381D01*
X169684748Y-73941106D01*
X169678061Y-73912009D01*
X169666496Y-73891173D01*
X169657013Y-73880107D01*
X169612960Y-73852198D01*
X169562224Y-73848843D01*
X169513796Y-73870159D01*
X169504450Y-73878073D01*
X169488540Y-73895647D01*
X169478610Y-73916587D01*
X169473278Y-73947782D01*
X169471163Y-73996122D01*
X169470857Y-74045647D01*
X169369458Y-74045647D01*
X169372810Y-73958568D01*
X169384726Y-73890086D01*
X169407135Y-73838600D01*
X169442124Y-73798443D01*
X169469375Y-73777861D01*
X169518907Y-73755625D01*
X169576316Y-73745304D01*
X169629682Y-73748067D01*
X169659543Y-73759212D01*
X169671261Y-73762383D01*
X169679037Y-73750557D01*
X169684465Y-73718866D01*
X169688571Y-73670593D01*
X169693067Y-73616829D01*
X169699313Y-73584482D01*
X169710676Y-73565985D01*
X169730528Y-73553770D01*
X169743000Y-73548362D01*
X169790171Y-73528601D01*
X169790117Y-73865358D01*
G37*
X169790117Y-73865358D02*
X169789933Y-73973837D01*
X169789219Y-74057287D01*
X169787675Y-74119704D01*
X169785001Y-74165085D01*
X169780894Y-74197429D01*
X169775055Y-74220733D01*
X169767182Y-74238995D01*
X169761221Y-74249418D01*
X169711855Y-74305945D01*
X169649264Y-74341377D01*
X169580013Y-74354090D01*
X169510668Y-74342463D01*
X169469375Y-74321568D01*
X169426025Y-74285422D01*
X169396481Y-74241276D01*
X169378655Y-74183462D01*
X169370463Y-74106313D01*
X169369302Y-74049714D01*
X169369458Y-74045647D01*
X169470857Y-74045647D01*
X169471476Y-74110550D01*
X169474314Y-74153514D01*
X169480840Y-74181622D01*
X169492523Y-74201953D01*
X169506483Y-74217288D01*
X169553365Y-74246890D01*
X169603701Y-74249419D01*
X169651276Y-74224705D01*
X169654979Y-74221356D01*
X169670783Y-74203935D01*
X169680693Y-74183209D01*
X169686058Y-74152362D01*
X169688228Y-74104577D01*
X169688571Y-74051748D01*
X169687827Y-73985381D01*
X169684748Y-73941106D01*
X169678061Y-73912009D01*
X169666496Y-73891173D01*
X169657013Y-73880107D01*
X169612960Y-73852198D01*
X169562224Y-73848843D01*
X169513796Y-73870159D01*
X169504450Y-73878073D01*
X169488540Y-73895647D01*
X169478610Y-73916587D01*
X169473278Y-73947782D01*
X169471163Y-73996122D01*
X169470857Y-74045647D01*
X169369458Y-74045647D01*
X169372810Y-73958568D01*
X169384726Y-73890086D01*
X169407135Y-73838600D01*
X169442124Y-73798443D01*
X169469375Y-73777861D01*
X169518907Y-73755625D01*
X169576316Y-73745304D01*
X169629682Y-73748067D01*
X169659543Y-73759212D01*
X169671261Y-73762383D01*
X169679037Y-73750557D01*
X169684465Y-73718866D01*
X169688571Y-73670593D01*
X169693067Y-73616829D01*
X169699313Y-73584482D01*
X169710676Y-73565985D01*
X169730528Y-73553770D01*
X169743000Y-73548362D01*
X169790171Y-73528601D01*
X169790117Y-73865358D01*
G36*
X169129926Y-73749755D02*
G01*
X169195858Y-73774084D01*
X169249273Y-73817117D01*
X169270164Y-73847409D01*
X169292939Y-73902994D01*
X169292466Y-73943186D01*
X169268562Y-73970217D01*
X169259717Y-73974813D01*
X169221530Y-73989144D01*
X169202028Y-73985472D01*
X169195422Y-73961407D01*
X169195086Y-73948114D01*
X169182992Y-73899210D01*
X169151471Y-73864999D01*
X169107659Y-73848476D01*
X169058695Y-73852634D01*
X169018894Y-73874227D01*
X169005450Y-73886544D01*
X168995921Y-73901487D01*
X168989485Y-73924075D01*
X168985317Y-73959328D01*
X168982597Y-74012266D01*
X168980502Y-74087907D01*
X168979960Y-74111857D01*
X168977981Y-74193790D01*
X168975731Y-74251455D01*
X168972357Y-74289608D01*
X168967006Y-74313004D01*
X168958824Y-74326398D01*
X168946959Y-74334545D01*
X168939362Y-74338144D01*
X168907102Y-74350452D01*
X168888111Y-74354514D01*
X168881836Y-74340948D01*
X168878006Y-74299934D01*
X168876600Y-74230999D01*
X168877598Y-74133669D01*
X168877908Y-74118657D01*
X168880101Y-74029859D01*
X168882693Y-73965019D01*
X168886382Y-73919067D01*
X168891864Y-73886935D01*
X168899835Y-73863553D01*
X168910993Y-73843852D01*
X168916830Y-73835410D01*
X168950296Y-73798057D01*
X168987727Y-73769003D01*
X168992309Y-73766467D01*
X169059426Y-73746443D01*
X169129926Y-73749755D01*
G37*
X169129926Y-73749755D02*
X169195858Y-73774084D01*
X169249273Y-73817117D01*
X169270164Y-73847409D01*
X169292939Y-73902994D01*
X169292466Y-73943186D01*
X169268562Y-73970217D01*
X169259717Y-73974813D01*
X169221530Y-73989144D01*
X169202028Y-73985472D01*
X169195422Y-73961407D01*
X169195086Y-73948114D01*
X169182992Y-73899210D01*
X169151471Y-73864999D01*
X169107659Y-73848476D01*
X169058695Y-73852634D01*
X169018894Y-73874227D01*
X169005450Y-73886544D01*
X168995921Y-73901487D01*
X168989485Y-73924075D01*
X168985317Y-73959328D01*
X168982597Y-74012266D01*
X168980502Y-74087907D01*
X168979960Y-74111857D01*
X168977981Y-74193790D01*
X168975731Y-74251455D01*
X168972357Y-74289608D01*
X168967006Y-74313004D01*
X168958824Y-74326398D01*
X168946959Y-74334545D01*
X168939362Y-74338144D01*
X168907102Y-74350452D01*
X168888111Y-74354514D01*
X168881836Y-74340948D01*
X168878006Y-74299934D01*
X168876600Y-74230999D01*
X168877598Y-74133669D01*
X168877908Y-74118657D01*
X168880101Y-74029859D01*
X168882693Y-73965019D01*
X168886382Y-73919067D01*
X168891864Y-73886935D01*
X168899835Y-73863553D01*
X168910993Y-73843852D01*
X168916830Y-73835410D01*
X168950296Y-73798057D01*
X168987727Y-73769003D01*
X168992309Y-73766467D01*
X169059426Y-73746443D01*
X169129926Y-73749755D01*
G36*
X168639744Y-73750968D02*
G01*
X168696616Y-73772087D01*
X168697267Y-73772493D01*
X168732440Y-73798380D01*
X168758407Y-73828633D01*
X168776670Y-73868058D01*
X168788732Y-73921462D01*
X168796096Y-73993651D01*
X168800264Y-74089432D01*
X168800629Y-74103078D01*
X168805876Y-74308842D01*
X168761716Y-74331678D01*
X168729763Y-74347110D01*
X168710470Y-74354423D01*
X168709578Y-74354514D01*
X168706239Y-74341022D01*
X168703587Y-74304626D01*
X168701956Y-74251452D01*
X168701600Y-74208393D01*
X168701592Y-74138641D01*
X168698403Y-74094837D01*
X168687288Y-74073944D01*
X168663501Y-74072925D01*
X168622296Y-74088741D01*
X168560086Y-74117815D01*
X168514341Y-74141963D01*
X168490813Y-74162913D01*
X168483896Y-74185747D01*
X168483886Y-74186877D01*
X168495299Y-74226212D01*
X168529092Y-74247462D01*
X168580809Y-74250539D01*
X168618061Y-74250006D01*
X168637703Y-74260735D01*
X168649952Y-74286505D01*
X168657002Y-74319337D01*
X168646842Y-74337966D01*
X168643017Y-74340632D01*
X168607001Y-74351340D01*
X168556566Y-74352856D01*
X168504626Y-74345759D01*
X168467822Y-74332788D01*
X168416938Y-74289585D01*
X168388014Y-74229446D01*
X168382286Y-74182462D01*
X168386657Y-74140082D01*
X168402475Y-74105488D01*
X168433797Y-74074763D01*
X168484678Y-74043990D01*
X168559176Y-74009252D01*
X168563714Y-74007288D01*
X168630821Y-73976287D01*
X168672232Y-73950862D01*
X168689981Y-73928014D01*
X168686107Y-73904745D01*
X168662643Y-73878056D01*
X168655627Y-73871914D01*
X168608630Y-73848100D01*
X168559933Y-73849103D01*
X168517522Y-73872451D01*
X168489384Y-73915675D01*
X168486769Y-73924160D01*
X168461308Y-73965308D01*
X168429001Y-73985128D01*
X168382286Y-74004770D01*
X168382286Y-73953950D01*
X168396496Y-73880082D01*
X168438675Y-73812327D01*
X168460624Y-73789661D01*
X168510517Y-73760569D01*
X168573967Y-73747400D01*
X168639744Y-73750968D01*
G37*
X168639744Y-73750968D02*
X168696616Y-73772087D01*
X168697267Y-73772493D01*
X168732440Y-73798380D01*
X168758407Y-73828633D01*
X168776670Y-73868058D01*
X168788732Y-73921462D01*
X168796096Y-73993651D01*
X168800264Y-74089432D01*
X168800629Y-74103078D01*
X168805876Y-74308842D01*
X168761716Y-74331678D01*
X168729763Y-74347110D01*
X168710470Y-74354423D01*
X168709578Y-74354514D01*
X168706239Y-74341022D01*
X168703587Y-74304626D01*
X168701956Y-74251452D01*
X168701600Y-74208393D01*
X168701592Y-74138641D01*
X168698403Y-74094837D01*
X168687288Y-74073944D01*
X168663501Y-74072925D01*
X168622296Y-74088741D01*
X168560086Y-74117815D01*
X168514341Y-74141963D01*
X168490813Y-74162913D01*
X168483896Y-74185747D01*
X168483886Y-74186877D01*
X168495299Y-74226212D01*
X168529092Y-74247462D01*
X168580809Y-74250539D01*
X168618061Y-74250006D01*
X168637703Y-74260735D01*
X168649952Y-74286505D01*
X168657002Y-74319337D01*
X168646842Y-74337966D01*
X168643017Y-74340632D01*
X168607001Y-74351340D01*
X168556566Y-74352856D01*
X168504626Y-74345759D01*
X168467822Y-74332788D01*
X168416938Y-74289585D01*
X168388014Y-74229446D01*
X168382286Y-74182462D01*
X168386657Y-74140082D01*
X168402475Y-74105488D01*
X168433797Y-74074763D01*
X168484678Y-74043990D01*
X168559176Y-74009252D01*
X168563714Y-74007288D01*
X168630821Y-73976287D01*
X168672232Y-73950862D01*
X168689981Y-73928014D01*
X168686107Y-73904745D01*
X168662643Y-73878056D01*
X168655627Y-73871914D01*
X168608630Y-73848100D01*
X168559933Y-73849103D01*
X168517522Y-73872451D01*
X168489384Y-73915675D01*
X168486769Y-73924160D01*
X168461308Y-73965308D01*
X168429001Y-73985128D01*
X168382286Y-74004770D01*
X168382286Y-73953950D01*
X168396496Y-73880082D01*
X168438675Y-73812327D01*
X168460624Y-73789661D01*
X168510517Y-73760569D01*
X168573967Y-73747400D01*
X168639744Y-73750968D01*
G36*
X167975886Y-73651289D02*
G01*
X167980139Y-73710613D01*
X167985025Y-73745572D01*
X167991795Y-73760820D01*
X168001702Y-73761015D01*
X168004914Y-73759195D01*
X168047644Y-73746015D01*
X168103227Y-73746785D01*
X168159737Y-73760333D01*
X168195082Y-73777861D01*
X168231321Y-73805861D01*
X168257813Y-73837549D01*
X168275999Y-73877813D01*
X168287322Y-73931543D01*
X168293222Y-74003626D01*
X168295143Y-74098951D01*
X168295177Y-74117237D01*
X168295200Y-74322646D01*
X168249491Y-74338580D01*
X168217027Y-74349420D01*
X168199215Y-74354468D01*
X168198691Y-74354514D01*
X168196937Y-74340828D01*
X168195444Y-74303076D01*
X168194326Y-74246224D01*
X168193697Y-74175234D01*
X168193600Y-74132073D01*
X168193398Y-74046973D01*
X168192358Y-73985981D01*
X168189831Y-73944177D01*
X168185164Y-73916642D01*
X168177707Y-73898456D01*
X168166811Y-73884698D01*
X168160007Y-73878073D01*
X168113272Y-73851375D01*
X168062272Y-73849375D01*
X168016001Y-73871955D01*
X168007444Y-73880107D01*
X167994893Y-73895436D01*
X167986188Y-73913618D01*
X167980631Y-73939909D01*
X167977526Y-73979562D01*
X167976176Y-74037832D01*
X167975886Y-74118173D01*
X167975886Y-74322646D01*
X167930177Y-74338580D01*
X167897713Y-74349420D01*
X167879901Y-74354468D01*
X167879377Y-74354514D01*
X167878037Y-74340623D01*
X167876828Y-74301439D01*
X167875801Y-74240700D01*
X167875002Y-74162141D01*
X167874481Y-74069498D01*
X167874286Y-73966509D01*
X167874286Y-73569342D01*
X167921457Y-73549444D01*
X167968629Y-73529547D01*
X167975886Y-73651289D01*
G37*
X167975886Y-73651289D02*
X167980139Y-73710613D01*
X167985025Y-73745572D01*
X167991795Y-73760820D01*
X168001702Y-73761015D01*
X168004914Y-73759195D01*
X168047644Y-73746015D01*
X168103227Y-73746785D01*
X168159737Y-73760333D01*
X168195082Y-73777861D01*
X168231321Y-73805861D01*
X168257813Y-73837549D01*
X168275999Y-73877813D01*
X168287322Y-73931543D01*
X168293222Y-74003626D01*
X168295143Y-74098951D01*
X168295177Y-74117237D01*
X168295200Y-74322646D01*
X168249491Y-74338580D01*
X168217027Y-74349420D01*
X168199215Y-74354468D01*
X168198691Y-74354514D01*
X168196937Y-74340828D01*
X168195444Y-74303076D01*
X168194326Y-74246224D01*
X168193697Y-74175234D01*
X168193600Y-74132073D01*
X168193398Y-74046973D01*
X168192358Y-73985981D01*
X168189831Y-73944177D01*
X168185164Y-73916642D01*
X168177707Y-73898456D01*
X168166811Y-73884698D01*
X168160007Y-73878073D01*
X168113272Y-73851375D01*
X168062272Y-73849375D01*
X168016001Y-73871955D01*
X168007444Y-73880107D01*
X167994893Y-73895436D01*
X167986188Y-73913618D01*
X167980631Y-73939909D01*
X167977526Y-73979562D01*
X167976176Y-74037832D01*
X167975886Y-74118173D01*
X167975886Y-74322646D01*
X167930177Y-74338580D01*
X167897713Y-74349420D01*
X167879901Y-74354468D01*
X167879377Y-74354514D01*
X167878037Y-74340623D01*
X167876828Y-74301439D01*
X167875801Y-74240700D01*
X167875002Y-74162141D01*
X167874481Y-74069498D01*
X167874286Y-73966509D01*
X167874286Y-73569342D01*
X167921457Y-73549444D01*
X167968629Y-73529547D01*
X167975886Y-73651289D01*
G36*
X166768303Y-73731239D02*
G01*
X166825527Y-73769735D01*
X166869749Y-73825335D01*
X166896167Y-73896086D01*
X166901510Y-73948162D01*
X166900903Y-73969893D01*
X166895822Y-73986531D01*
X166881855Y-74001437D01*
X166854589Y-74017973D01*
X166809612Y-74039498D01*
X166742511Y-74069374D01*
X166742171Y-74069524D01*
X166680407Y-74097813D01*
X166629759Y-74122933D01*
X166595404Y-74142179D01*
X166582518Y-74152848D01*
X166582514Y-74152934D01*
X166593872Y-74176166D01*
X166620431Y-74201774D01*
X166650923Y-74220221D01*
X166666370Y-74223886D01*
X166708515Y-74211212D01*
X166744808Y-74179471D01*
X166762517Y-74144572D01*
X166779552Y-74118845D01*
X166812922Y-74089546D01*
X166852149Y-74064235D01*
X166886756Y-74050471D01*
X166893993Y-74049714D01*
X166902139Y-74062160D01*
X166902630Y-74093972D01*
X166896643Y-74136866D01*
X166885357Y-74182558D01*
X166869950Y-74222761D01*
X166869171Y-74224322D01*
X166822804Y-74289062D01*
X166762711Y-74333097D01*
X166694465Y-74354711D01*
X166623638Y-74352185D01*
X166555804Y-74323804D01*
X166552788Y-74321808D01*
X166499427Y-74273448D01*
X166464340Y-74210352D01*
X166444922Y-74127387D01*
X166442316Y-74104078D01*
X166437701Y-73994055D01*
X166443233Y-73942748D01*
X166582514Y-73942748D01*
X166584324Y-73974753D01*
X166594222Y-73984093D01*
X166618898Y-73977105D01*
X166657795Y-73960587D01*
X166701275Y-73939881D01*
X166702356Y-73939333D01*
X166739209Y-73919949D01*
X166754000Y-73907013D01*
X166750353Y-73893451D01*
X166734995Y-73875632D01*
X166695923Y-73849845D01*
X166653846Y-73847950D01*
X166616103Y-73866717D01*
X166590034Y-73902915D01*
X166582514Y-73942748D01*
X166443233Y-73942748D01*
X166447194Y-73906027D01*
X166471550Y-73836212D01*
X166505456Y-73787302D01*
X166566653Y-73737878D01*
X166634063Y-73713359D01*
X166702880Y-73711797D01*
X166768303Y-73731239D01*
G37*
X166768303Y-73731239D02*
X166825527Y-73769735D01*
X166869749Y-73825335D01*
X166896167Y-73896086D01*
X166901510Y-73948162D01*
X166900903Y-73969893D01*
X166895822Y-73986531D01*
X166881855Y-74001437D01*
X166854589Y-74017973D01*
X166809612Y-74039498D01*
X166742511Y-74069374D01*
X166742171Y-74069524D01*
X166680407Y-74097813D01*
X166629759Y-74122933D01*
X166595404Y-74142179D01*
X166582518Y-74152848D01*
X166582514Y-74152934D01*
X166593872Y-74176166D01*
X166620431Y-74201774D01*
X166650923Y-74220221D01*
X166666370Y-74223886D01*
X166708515Y-74211212D01*
X166744808Y-74179471D01*
X166762517Y-74144572D01*
X166779552Y-74118845D01*
X166812922Y-74089546D01*
X166852149Y-74064235D01*
X166886756Y-74050471D01*
X166893993Y-74049714D01*
X166902139Y-74062160D01*
X166902630Y-74093972D01*
X166896643Y-74136866D01*
X166885357Y-74182558D01*
X166869950Y-74222761D01*
X166869171Y-74224322D01*
X166822804Y-74289062D01*
X166762711Y-74333097D01*
X166694465Y-74354711D01*
X166623638Y-74352185D01*
X166555804Y-74323804D01*
X166552788Y-74321808D01*
X166499427Y-74273448D01*
X166464340Y-74210352D01*
X166444922Y-74127387D01*
X166442316Y-74104078D01*
X166437701Y-73994055D01*
X166443233Y-73942748D01*
X166582514Y-73942748D01*
X166584324Y-73974753D01*
X166594222Y-73984093D01*
X166618898Y-73977105D01*
X166657795Y-73960587D01*
X166701275Y-73939881D01*
X166702356Y-73939333D01*
X166739209Y-73919949D01*
X166754000Y-73907013D01*
X166750353Y-73893451D01*
X166734995Y-73875632D01*
X166695923Y-73849845D01*
X166653846Y-73847950D01*
X166616103Y-73866717D01*
X166590034Y-73902915D01*
X166582514Y-73942748D01*
X166443233Y-73942748D01*
X166447194Y-73906027D01*
X166471550Y-73836212D01*
X166505456Y-73787302D01*
X166566653Y-73737878D01*
X166634063Y-73713359D01*
X166702880Y-73711797D01*
X166768303Y-73731239D01*
G36*
X165641115Y-73721962D02*
G01*
X165709145Y-73757733D01*
X165759351Y-73815301D01*
X165777185Y-73852312D01*
X165791063Y-73907882D01*
X165798167Y-73978096D01*
X165798840Y-74054727D01*
X165793427Y-74129552D01*
X165782270Y-74194342D01*
X165765714Y-74240873D01*
X165760626Y-74248887D01*
X165700355Y-74308707D01*
X165628769Y-74344535D01*
X165551092Y-74355020D01*
X165472548Y-74338810D01*
X165450689Y-74329092D01*
X165408122Y-74299143D01*
X165370763Y-74259433D01*
X165367232Y-74254397D01*
X165352881Y-74230124D01*
X165343394Y-74204178D01*
X165337790Y-74170022D01*
X165335086Y-74121119D01*
X165334299Y-74050935D01*
X165334286Y-74035200D01*
X165334322Y-74030192D01*
X165479429Y-74030192D01*
X165480273Y-74096430D01*
X165483596Y-74140386D01*
X165490583Y-74168779D01*
X165502416Y-74188325D01*
X165508457Y-74194857D01*
X165543186Y-74219680D01*
X165576903Y-74218548D01*
X165610995Y-74197016D01*
X165631329Y-74174029D01*
X165643371Y-74140478D01*
X165650134Y-74087569D01*
X165650598Y-74081399D01*
X165651752Y-73985513D01*
X165639688Y-73914299D01*
X165614570Y-73868194D01*
X165576560Y-73847635D01*
X165562992Y-73846514D01*
X165527364Y-73852152D01*
X165502994Y-73871686D01*
X165488093Y-73909042D01*
X165480875Y-73968150D01*
X165479429Y-74030192D01*
X165334322Y-74030192D01*
X165334826Y-73960413D01*
X165337096Y-73908159D01*
X165342068Y-73871949D01*
X165350713Y-73845299D01*
X165364005Y-73821722D01*
X165366943Y-73817338D01*
X165416313Y-73758249D01*
X165470109Y-73723947D01*
X165535602Y-73710331D01*
X165557842Y-73709665D01*
X165641115Y-73721962D01*
G37*
X165641115Y-73721962D02*
X165709145Y-73757733D01*
X165759351Y-73815301D01*
X165777185Y-73852312D01*
X165791063Y-73907882D01*
X165798167Y-73978096D01*
X165798840Y-74054727D01*
X165793427Y-74129552D01*
X165782270Y-74194342D01*
X165765714Y-74240873D01*
X165760626Y-74248887D01*
X165700355Y-74308707D01*
X165628769Y-74344535D01*
X165551092Y-74355020D01*
X165472548Y-74338810D01*
X165450689Y-74329092D01*
X165408122Y-74299143D01*
X165370763Y-74259433D01*
X165367232Y-74254397D01*
X165352881Y-74230124D01*
X165343394Y-74204178D01*
X165337790Y-74170022D01*
X165335086Y-74121119D01*
X165334299Y-74050935D01*
X165334286Y-74035200D01*
X165334322Y-74030192D01*
X165479429Y-74030192D01*
X165480273Y-74096430D01*
X165483596Y-74140386D01*
X165490583Y-74168779D01*
X165502416Y-74188325D01*
X165508457Y-74194857D01*
X165543186Y-74219680D01*
X165576903Y-74218548D01*
X165610995Y-74197016D01*
X165631329Y-74174029D01*
X165643371Y-74140478D01*
X165650134Y-74087569D01*
X165650598Y-74081399D01*
X165651752Y-73985513D01*
X165639688Y-73914299D01*
X165614570Y-73868194D01*
X165576560Y-73847635D01*
X165562992Y-73846514D01*
X165527364Y-73852152D01*
X165502994Y-73871686D01*
X165488093Y-73909042D01*
X165480875Y-73968150D01*
X165479429Y-74030192D01*
X165334322Y-74030192D01*
X165334826Y-73960413D01*
X165337096Y-73908159D01*
X165342068Y-73871949D01*
X165350713Y-73845299D01*
X165364005Y-73821722D01*
X165366943Y-73817338D01*
X165416313Y-73758249D01*
X165470109Y-73723947D01*
X165535602Y-73710331D01*
X165557842Y-73709665D01*
X165641115Y-73721962D01*
G36*
X167316093Y-73727780D02*
G01*
X167362672Y-73754723D01*
X167395057Y-73781466D01*
X167418742Y-73809484D01*
X167435059Y-73843748D01*
X167445339Y-73889227D01*
X167450914Y-73950892D01*
X167453116Y-74033711D01*
X167453371Y-74093246D01*
X167453371Y-74312391D01*
X167391686Y-74340044D01*
X167330000Y-74367697D01*
X167322743Y-74127670D01*
X167319744Y-74038028D01*
X167316598Y-73972962D01*
X167312701Y-73928026D01*
X167307447Y-73898770D01*
X167300231Y-73880748D01*
X167290450Y-73869511D01*
X167287312Y-73867079D01*
X167239761Y-73848083D01*
X167191697Y-73855600D01*
X167163086Y-73875543D01*
X167151447Y-73889675D01*
X167143391Y-73908220D01*
X167138271Y-73936334D01*
X167135441Y-73979173D01*
X167134256Y-74041895D01*
X167134057Y-74107261D01*
X167134018Y-74189268D01*
X167132614Y-74247316D01*
X167127914Y-74286465D01*
X167117987Y-74311780D01*
X167100903Y-74328323D01*
X167074732Y-74341156D01*
X167039775Y-74354491D01*
X167001596Y-74369007D01*
X167006141Y-74111389D01*
X167007971Y-74018519D01*
X167010112Y-73949889D01*
X167013181Y-73900711D01*
X167017794Y-73866198D01*
X167024568Y-73841562D01*
X167034119Y-73822016D01*
X167045634Y-73804770D01*
X167101190Y-73749680D01*
X167168980Y-73717822D01*
X167242713Y-73710191D01*
X167316093Y-73727780D01*
G37*
X167316093Y-73727780D02*
X167362672Y-73754723D01*
X167395057Y-73781466D01*
X167418742Y-73809484D01*
X167435059Y-73843748D01*
X167445339Y-73889227D01*
X167450914Y-73950892D01*
X167453116Y-74033711D01*
X167453371Y-74093246D01*
X167453371Y-74312391D01*
X167391686Y-74340044D01*
X167330000Y-74367697D01*
X167322743Y-74127670D01*
X167319744Y-74038028D01*
X167316598Y-73972962D01*
X167312701Y-73928026D01*
X167307447Y-73898770D01*
X167300231Y-73880748D01*
X167290450Y-73869511D01*
X167287312Y-73867079D01*
X167239761Y-73848083D01*
X167191697Y-73855600D01*
X167163086Y-73875543D01*
X167151447Y-73889675D01*
X167143391Y-73908220D01*
X167138271Y-73936334D01*
X167135441Y-73979173D01*
X167134256Y-74041895D01*
X167134057Y-74107261D01*
X167134018Y-74189268D01*
X167132614Y-74247316D01*
X167127914Y-74286465D01*
X167117987Y-74311780D01*
X167100903Y-74328323D01*
X167074732Y-74341156D01*
X167039775Y-74354491D01*
X167001596Y-74369007D01*
X167006141Y-74111389D01*
X167007971Y-74018519D01*
X167010112Y-73949889D01*
X167013181Y-73900711D01*
X167017794Y-73866198D01*
X167024568Y-73841562D01*
X167034119Y-73822016D01*
X167045634Y-73804770D01*
X167101190Y-73749680D01*
X167168980Y-73717822D01*
X167242713Y-73710191D01*
X167316093Y-73727780D01*
G36*
X166199744Y-73719918D02*
G01*
X166255201Y-73747568D01*
X166304148Y-73798480D01*
X166317629Y-73817338D01*
X166332314Y-73842015D01*
X166341842Y-73868816D01*
X166347293Y-73904587D01*
X166349747Y-73956169D01*
X166350286Y-74024267D01*
X166347852Y-74117588D01*
X166339394Y-74187657D01*
X166323174Y-74239931D01*
X166297454Y-74279869D01*
X166260497Y-74312929D01*
X166257782Y-74314886D01*
X166221360Y-74334908D01*
X166177502Y-74344815D01*
X166121724Y-74347257D01*
X166031048Y-74347257D01*
X166031010Y-74435283D01*
X166030166Y-74484308D01*
X166025024Y-74513065D01*
X166011587Y-74530311D01*
X165985858Y-74544808D01*
X165979679Y-74547769D01*
X165950764Y-74561648D01*
X165928376Y-74570414D01*
X165911729Y-74571171D01*
X165900036Y-74561023D01*
X165892510Y-74537073D01*
X165888366Y-74496426D01*
X165886815Y-74436186D01*
X165887071Y-74353455D01*
X165888349Y-74245339D01*
X165888748Y-74213000D01*
X165890185Y-74101524D01*
X165891472Y-74028603D01*
X166030971Y-74028603D01*
X166031755Y-74090499D01*
X166035240Y-74130997D01*
X166043124Y-74157708D01*
X166057105Y-74178244D01*
X166066597Y-74188260D01*
X166105404Y-74217567D01*
X166139763Y-74219952D01*
X166175216Y-74195750D01*
X166176114Y-74194857D01*
X166190539Y-74176153D01*
X166199313Y-74150732D01*
X166203739Y-74111584D01*
X166205118Y-74051697D01*
X166205143Y-74038430D01*
X166201812Y-73955901D01*
X166190969Y-73898691D01*
X166171340Y-73863766D01*
X166141650Y-73848094D01*
X166124491Y-73846514D01*
X166083766Y-73853926D01*
X166055832Y-73878330D01*
X166039017Y-73922980D01*
X166031650Y-73991130D01*
X166030971Y-74028603D01*
X165891472Y-74028603D01*
X165891708Y-74015245D01*
X165893677Y-73950333D01*
X165896450Y-73902958D01*
X165900388Y-73869290D01*
X165905849Y-73845498D01*
X165913192Y-73827753D01*
X165922777Y-73812224D01*
X165926887Y-73806381D01*
X165981405Y-73751185D01*
X166050336Y-73719890D01*
X166130072Y-73711165D01*
X166199744Y-73719918D01*
G37*
X166199744Y-73719918D02*
X166255201Y-73747568D01*
X166304148Y-73798480D01*
X166317629Y-73817338D01*
X166332314Y-73842015D01*
X166341842Y-73868816D01*
X166347293Y-73904587D01*
X166349747Y-73956169D01*
X166350286Y-74024267D01*
X166347852Y-74117588D01*
X166339394Y-74187657D01*
X166323174Y-74239931D01*
X166297454Y-74279869D01*
X166260497Y-74312929D01*
X166257782Y-74314886D01*
X166221360Y-74334908D01*
X166177502Y-74344815D01*
X166121724Y-74347257D01*
X166031048Y-74347257D01*
X166031010Y-74435283D01*
X166030166Y-74484308D01*
X166025024Y-74513065D01*
X166011587Y-74530311D01*
X165985858Y-74544808D01*
X165979679Y-74547769D01*
X165950764Y-74561648D01*
X165928376Y-74570414D01*
X165911729Y-74571171D01*
X165900036Y-74561023D01*
X165892510Y-74537073D01*
X165888366Y-74496426D01*
X165886815Y-74436186D01*
X165887071Y-74353455D01*
X165888349Y-74245339D01*
X165888748Y-74213000D01*
X165890185Y-74101524D01*
X165891472Y-74028603D01*
X166030971Y-74028603D01*
X166031755Y-74090499D01*
X166035240Y-74130997D01*
X166043124Y-74157708D01*
X166057105Y-74178244D01*
X166066597Y-74188260D01*
X166105404Y-74217567D01*
X166139763Y-74219952D01*
X166175216Y-74195750D01*
X166176114Y-74194857D01*
X166190539Y-74176153D01*
X166199313Y-74150732D01*
X166203739Y-74111584D01*
X166205118Y-74051697D01*
X166205143Y-74038430D01*
X166201812Y-73955901D01*
X166190969Y-73898691D01*
X166171340Y-73863766D01*
X166141650Y-73848094D01*
X166124491Y-73846514D01*
X166083766Y-73853926D01*
X166055832Y-73878330D01*
X166039017Y-73922980D01*
X166031650Y-73991130D01*
X166030971Y-74028603D01*
X165891472Y-74028603D01*
X165891708Y-74015245D01*
X165893677Y-73950333D01*
X165896450Y-73902958D01*
X165900388Y-73869290D01*
X165905849Y-73845498D01*
X165913192Y-73827753D01*
X165922777Y-73812224D01*
X165926887Y-73806381D01*
X165981405Y-73751185D01*
X166050336Y-73719890D01*
X166130072Y-73711165D01*
X166199744Y-73719918D01*
D13*
%TO.C,C21*%
X162510000Y-130140580D02*
X162510000Y-129859420D01*
X161490000Y-130140580D02*
X161490000Y-129859420D01*
%TO.C,C19*%
X164110000Y-130140580D02*
X164110000Y-129859420D01*
X163090000Y-130140580D02*
X163090000Y-129859420D01*
%TO.C,C4*%
X157890000Y-141940580D02*
X157890000Y-141659420D01*
X158910000Y-141940580D02*
X158910000Y-141659420D01*
%TO.C,C1*%
X156290000Y-141940580D02*
X156290000Y-141659420D01*
X157310000Y-141940580D02*
X157310000Y-141659420D01*
%TO.C,R8*%
X140112742Y-68072500D02*
X140587258Y-68072500D01*
X140112742Y-67027500D02*
X140587258Y-67027500D01*
%TO.C,R6*%
X156827500Y-64312742D02*
X156827500Y-64787258D01*
X157872500Y-64312742D02*
X157872500Y-64787258D01*
%TO.C,TP31*%
X148050000Y-92800000D02*
G75*
G03*
X148050000Y-92800000I-700000J0D01*
G01*
%TO.C,TP28*%
X145800000Y-92800000D02*
G75*
G03*
X145800000Y-92800000I-700000J0D01*
G01*
%TO.C,TP27*%
X153050000Y-100550000D02*
G75*
G03*
X153050000Y-100550000I-700000J0D01*
G01*
%TO.C,TP9*%
X123700000Y-112400000D02*
G75*
G03*
X123700000Y-112400000I-700000J0D01*
G01*
%TO.C,TP8*%
X137100000Y-119600000D02*
G75*
G03*
X137100000Y-119600000I-700000J0D01*
G01*
%TO.C,TP7*%
X134900000Y-119600000D02*
G75*
G03*
X134900000Y-119600000I-700000J0D01*
G01*
%TO.C,TP6*%
X132700000Y-119600000D02*
G75*
G03*
X132700000Y-119600000I-700000J0D01*
G01*
%TO.C,C24*%
X128110000Y-80340580D02*
X128110000Y-80059420D01*
X127090000Y-80340580D02*
X127090000Y-80059420D01*
%TO.C,C20*%
X127090000Y-76459420D02*
X127090000Y-76740580D01*
X128110000Y-76459420D02*
X128110000Y-76740580D01*
%TO.C,U3*%
X146500000Y-68290000D02*
X144050000Y-68290000D01*
X144700000Y-71510000D02*
X146500000Y-71510000D01*
%TO.C,F1*%
X148390000Y-68741422D02*
X148390000Y-69258578D01*
X149810000Y-68741422D02*
X149810000Y-69258578D01*
%TO.C,D11*%
X152800000Y-68850000D02*
X158200000Y-68850000D01*
X152800000Y-72150000D02*
X158200000Y-72150000D01*
X152800000Y-68850000D02*
X152800000Y-72150000D01*
%TO.C,C18*%
X156059420Y-68310000D02*
X156340580Y-68310000D01*
X156059420Y-67290000D02*
X156340580Y-67290000D01*
%TO.C,C15*%
X153240580Y-67290000D02*
X152959420Y-67290000D01*
X153240580Y-68310000D02*
X152959420Y-68310000D01*
D10*
%TO.C,J3*%
X167900000Y-137150000D02*
X175100000Y-137150000D01*
X177800000Y-137150000D02*
X180900000Y-137150000D01*
X180900000Y-137150000D02*
X180900000Y-122400000D01*
X180900000Y-122400000D02*
X177800000Y-122400000D01*
X175100000Y-122400000D02*
X167900000Y-122400000D01*
X166400000Y-123900000D02*
X166400000Y-126900000D01*
D16*
X165100000Y-127600000D02*
X165100000Y-127600000D01*
X165100000Y-127400000D02*
X165100000Y-127400000D01*
X165100000Y-127400000D02*
G75*
G02*
X165100000Y-127600000I0J-100000D01*
G01*
X165100000Y-127600000D02*
G75*
G02*
X165100000Y-127400000I0J100000D01*
G01*
D13*
%TO.C,J4*%
X156215000Y-83960000D02*
X156325000Y-83960000D01*
X156325000Y-83960000D02*
X156325000Y-83360000D01*
X135785000Y-83960000D02*
X135675000Y-83960000D01*
X135675000Y-83960000D02*
X135675000Y-83360000D01*
X153450000Y-86550000D02*
X153250000Y-86150000D01*
X153250000Y-86150000D02*
X153050000Y-86550000D01*
X153050000Y-86550000D02*
X153450000Y-86550000D01*
%TO.C,D13*%
X120242624Y-59972832D02*
X122493219Y-57559365D01*
X119236003Y-59512707D02*
X120242624Y-59972832D01*
X121963997Y-56587293D02*
X122493219Y-57559365D01*
X121228156Y-56789873D02*
X121181718Y-56473103D01*
X119420861Y-58727960D02*
X121228156Y-56789873D01*
X119101623Y-58703732D02*
X119420861Y-58727960D01*
X118965223Y-58850002D02*
X121318117Y-56326832D01*
X119236003Y-59512707D02*
X118965223Y-58850002D01*
X121963997Y-56587293D02*
X121318117Y-56326832D01*
X119236003Y-59512707D02*
X121963997Y-56587293D01*
%TO.C,D12*%
X173650000Y-147950000D02*
X170350000Y-147950000D01*
X174000000Y-149000000D02*
X173650000Y-147950000D01*
X170000000Y-149000000D02*
X170350000Y-147950000D01*
X170650000Y-149400000D02*
X170450000Y-149650000D01*
X173300000Y-149400000D02*
X170650000Y-149400000D01*
X173500000Y-149650000D02*
X173300000Y-149400000D01*
X173700000Y-149650000D02*
X170250000Y-149650000D01*
X174000000Y-149000000D02*
X173700000Y-149650000D01*
X170000000Y-149000000D02*
X170250000Y-149650000D01*
X174000000Y-149000000D02*
X170000000Y-149000000D01*
%TO.C,D10*%
X112050000Y-81650000D02*
X112050000Y-78350000D01*
X111000000Y-82000000D02*
X112050000Y-81650000D01*
X111000000Y-78000000D02*
X112050000Y-78350000D01*
X110600000Y-78650000D02*
X110350000Y-78450000D01*
X110600000Y-81300000D02*
X110600000Y-78650000D01*
X110350000Y-81500000D02*
X110600000Y-81300000D01*
X110350000Y-81700000D02*
X110350000Y-78250000D01*
X111000000Y-82000000D02*
X110350000Y-81700000D01*
X111000000Y-78000000D02*
X110350000Y-78250000D01*
X111000000Y-82000000D02*
X111000000Y-78000000D01*
%TO.C,D9*%
X179950000Y-138350000D02*
X179950000Y-141650000D01*
X181000000Y-138000000D02*
X179950000Y-138350000D01*
X181000000Y-142000000D02*
X179950000Y-141650000D01*
X181400000Y-141350000D02*
X181650000Y-141550000D01*
X181400000Y-138700000D02*
X181400000Y-141350000D01*
X181650000Y-138500000D02*
X181400000Y-138700000D01*
X181650000Y-138300000D02*
X181650000Y-141750000D01*
X181000000Y-138000000D02*
X181650000Y-138300000D01*
X181000000Y-142000000D02*
X181650000Y-141750000D01*
X181000000Y-138000000D02*
X181000000Y-142000000D01*
%TO.C,D8*%
X112050000Y-101650000D02*
X112050000Y-98350000D01*
X111000000Y-102000000D02*
X112050000Y-101650000D01*
X111000000Y-98000000D02*
X112050000Y-98350000D01*
X110600000Y-98650000D02*
X110350000Y-98450000D01*
X110600000Y-101300000D02*
X110600000Y-98650000D01*
X110350000Y-101500000D02*
X110600000Y-101300000D01*
X110350000Y-101700000D02*
X110350000Y-98250000D01*
X111000000Y-102000000D02*
X110350000Y-101700000D01*
X111000000Y-98000000D02*
X110350000Y-98250000D01*
X111000000Y-102000000D02*
X111000000Y-98000000D01*
%TO.C,D7*%
X179950000Y-118350000D02*
X179950000Y-121650000D01*
X181000000Y-118000000D02*
X179950000Y-118350000D01*
X181000000Y-122000000D02*
X179950000Y-121650000D01*
X181400000Y-121350000D02*
X181650000Y-121550000D01*
X181400000Y-118700000D02*
X181400000Y-121350000D01*
X181650000Y-118500000D02*
X181400000Y-118700000D01*
X181650000Y-118300000D02*
X181650000Y-121750000D01*
X181000000Y-118000000D02*
X181650000Y-118300000D01*
X181000000Y-122000000D02*
X181650000Y-121750000D01*
X181000000Y-118000000D02*
X181000000Y-122000000D01*
%TO.C,D6*%
X112050000Y-121650000D02*
X112050000Y-118350000D01*
X111000000Y-122000000D02*
X112050000Y-121650000D01*
X111000000Y-118000000D02*
X112050000Y-118350000D01*
X110600000Y-118650000D02*
X110350000Y-118450000D01*
X110600000Y-121300000D02*
X110600000Y-118650000D01*
X110350000Y-121500000D02*
X110600000Y-121300000D01*
X110350000Y-121700000D02*
X110350000Y-118250000D01*
X111000000Y-122000000D02*
X110350000Y-121700000D01*
X111000000Y-118000000D02*
X110350000Y-118250000D01*
X111000000Y-122000000D02*
X111000000Y-118000000D01*
%TO.C,D5*%
X179950000Y-98350000D02*
X179950000Y-101650000D01*
X181000000Y-98000000D02*
X179950000Y-98350000D01*
X181000000Y-102000000D02*
X179950000Y-101650000D01*
X181400000Y-101350000D02*
X181650000Y-101550000D01*
X181400000Y-98700000D02*
X181400000Y-101350000D01*
X181650000Y-98500000D02*
X181400000Y-98700000D01*
X181650000Y-98300000D02*
X181650000Y-101750000D01*
X181000000Y-98000000D02*
X181650000Y-98300000D01*
X181000000Y-102000000D02*
X181650000Y-101750000D01*
X181000000Y-98000000D02*
X181000000Y-102000000D01*
%TO.C,D4*%
X112050000Y-141650000D02*
X112050000Y-138350000D01*
X111000000Y-142000000D02*
X112050000Y-141650000D01*
X111000000Y-138000000D02*
X112050000Y-138350000D01*
X110600000Y-138650000D02*
X110350000Y-138450000D01*
X110600000Y-141300000D02*
X110600000Y-138650000D01*
X110350000Y-141500000D02*
X110600000Y-141300000D01*
X110350000Y-141700000D02*
X110350000Y-138250000D01*
X111000000Y-142000000D02*
X110350000Y-141700000D01*
X111000000Y-138000000D02*
X110350000Y-138250000D01*
X111000000Y-142000000D02*
X111000000Y-138000000D01*
%TO.C,D3*%
X179950000Y-78350000D02*
X179950000Y-81650000D01*
X181000000Y-78000000D02*
X179950000Y-78350000D01*
X181000000Y-82000000D02*
X179950000Y-81650000D01*
X181400000Y-81350000D02*
X181650000Y-81550000D01*
X181400000Y-78700000D02*
X181400000Y-81350000D01*
X181650000Y-78500000D02*
X181400000Y-78700000D01*
X181650000Y-78300000D02*
X181650000Y-81750000D01*
X181000000Y-78000000D02*
X181650000Y-78300000D01*
X181000000Y-82000000D02*
X181650000Y-81750000D01*
X181000000Y-78000000D02*
X181000000Y-82000000D01*
%TO.C,D2*%
X121650000Y-147950000D02*
X118350000Y-147950000D01*
X122000000Y-149000000D02*
X121650000Y-147950000D01*
X118000000Y-149000000D02*
X118350000Y-147950000D01*
X118650000Y-149400000D02*
X118450000Y-149650000D01*
X121300000Y-149400000D02*
X118650000Y-149400000D01*
X121500000Y-149650000D02*
X121300000Y-149400000D01*
X121700000Y-149650000D02*
X118250000Y-149650000D01*
X122000000Y-149000000D02*
X121700000Y-149650000D01*
X118000000Y-149000000D02*
X118250000Y-149650000D01*
X122000000Y-149000000D02*
X118000000Y-149000000D01*
%TO.C,D1*%
X172221112Y-58982337D02*
X174275411Y-61564944D01*
X172824971Y-58054784D02*
X172221112Y-58982337D01*
X175315029Y-61185216D02*
X174275411Y-61564944D01*
X175223438Y-60427515D02*
X175543593Y-60428408D01*
X173573774Y-58353604D02*
X175223438Y-60427515D01*
X173644923Y-58041453D02*
X173573774Y-58353604D01*
X173520420Y-57884932D02*
X175668096Y-60584930D01*
X172824971Y-58054784D02*
X173520420Y-57884932D01*
X175315029Y-61185216D02*
X175668096Y-60584930D01*
X172824971Y-58054784D02*
X175315029Y-61185216D01*
%TO.C,TP21*%
X163900000Y-62200000D02*
G75*
G03*
X163900000Y-62200000I-700000J0D01*
G01*
%TO.C,R25*%
X159662742Y-62722500D02*
X160137258Y-62722500D01*
X159662742Y-61677500D02*
X160137258Y-61677500D01*
%TO.C,TP22*%
X157700000Y-136250000D02*
G75*
G03*
X157700000Y-136250000I-700000J0D01*
G01*
%TO.C,J1*%
X137545000Y-49880000D02*
X154275000Y-49880000D01*
X137545000Y-49880000D02*
X137545000Y-57490000D01*
X154275000Y-49880000D02*
X154275000Y-57490000D01*
X137545000Y-65850000D02*
X154275000Y-65850000D01*
X137545000Y-65850000D02*
X137545000Y-60290000D01*
X154275000Y-65850000D02*
X154275000Y-60290000D01*
X137350000Y-57290000D02*
X136850000Y-57790000D01*
X136850000Y-57790000D02*
X136850000Y-56790000D01*
X136850000Y-56790000D02*
X137350000Y-57290000D01*
%TO.C,D15*%
X133130000Y-51540000D02*
X130445000Y-51540000D01*
X130445000Y-51540000D02*
X130445000Y-53460000D01*
X130445000Y-53460000D02*
X133130000Y-53460000D01*
%TO.C,D14*%
X160870000Y-51540000D02*
X158185000Y-51540000D01*
X158185000Y-51540000D02*
X158185000Y-53460000D01*
X158185000Y-53460000D02*
X160870000Y-53460000D01*
%TO.C,R11*%
X163037258Y-131877500D02*
X162562742Y-131877500D01*
X163037258Y-132922500D02*
X162562742Y-132922500D01*
%TO.C,R26*%
X122937258Y-138477500D02*
X122462742Y-138477500D01*
X122937258Y-139522500D02*
X122462742Y-139522500D01*
%TO.C,U8*%
X119600000Y-134590000D02*
X117150000Y-134590000D01*
X117800000Y-137810000D02*
X119600000Y-137810000D01*
%TO.C,U11*%
X117400000Y-122590000D02*
X123410000Y-122590000D01*
X119650000Y-129410000D02*
X123410000Y-129410000D01*
X123410000Y-122590000D02*
X123410000Y-123850000D01*
X123410000Y-129410000D02*
X123410000Y-128150000D01*
%TO.C,U10*%
X132200000Y-113360000D02*
X134650000Y-113360000D01*
X134000000Y-110140000D02*
X132200000Y-110140000D01*
%TO.C,U5*%
X129110000Y-68900000D02*
X129110000Y-66450000D01*
X125890000Y-67100000D02*
X125890000Y-68900000D01*
D10*
%TO.C,U9*%
X127300000Y-137200000D02*
X127300000Y-138200000D01*
D13*
X124700000Y-137100000D02*
X124700000Y-138790000D01*
D10*
%TO.C,U4*%
X123900000Y-78900000D02*
X123900000Y-77900000D01*
D13*
X126500000Y-79000000D02*
X126500000Y-77310000D01*
%TO.C,TP32*%
X118200000Y-112200000D02*
G75*
G03*
X118200000Y-112200000I-700000J0D01*
G01*
%TO.C,TP30*%
X145300000Y-115200000D02*
G75*
G03*
X145300000Y-115200000I-700000J0D01*
G01*
%TO.C,TP29*%
X141300000Y-116300000D02*
G75*
G03*
X141300000Y-116300000I-700000J0D01*
G01*
%TO.C,TP26*%
X140300000Y-104800000D02*
G75*
G03*
X140300000Y-104800000I-700000J0D01*
G01*
%TO.C,TP23*%
X119500000Y-139200000D02*
G75*
G03*
X119500000Y-139200000I-700000J0D01*
G01*
%TO.C,TP20*%
X123100000Y-131000000D02*
G75*
G03*
X123100000Y-131000000I-700000J0D01*
G01*
%TO.C,TP19*%
X134700000Y-62000000D02*
G75*
G03*
X134700000Y-62000000I-700000J0D01*
G01*
%TO.C,TP10*%
X158100000Y-123600000D02*
G75*
G03*
X158100000Y-123600000I-700000J0D01*
G01*
%TO.C,TP12*%
X158700000Y-125800000D02*
G75*
G03*
X158700000Y-125800000I-700000J0D01*
G01*
%TO.C,TP13*%
X159700000Y-132600000D02*
G75*
G03*
X159700000Y-132600000I-700000J0D01*
G01*
%TO.C,TP11*%
X162500000Y-117400000D02*
G75*
G03*
X162500000Y-117400000I-700000J0D01*
G01*
%TO.C,TP25*%
X127500000Y-134800000D02*
G75*
G03*
X127500000Y-134800000I-700000J0D01*
G01*
%TO.C,TP24*%
X123100000Y-133400000D02*
G75*
G03*
X123100000Y-133400000I-700000J0D01*
G01*
%TO.C,TP5*%
X159300000Y-134600000D02*
G75*
G03*
X159300000Y-134600000I-700000J0D01*
G01*
%TO.C,TP4*%
X160900000Y-139000000D02*
G75*
G03*
X160900000Y-139000000I-700000J0D01*
G01*
%TO.C,TP18*%
X135500000Y-141300000D02*
G75*
G03*
X135500000Y-141300000I-700000J0D01*
G01*
%TO.C,TP17*%
X150900000Y-122200000D02*
G75*
G03*
X150900000Y-122200000I-700000J0D01*
G01*
%TO.C,TP16*%
X146300000Y-121600000D02*
G75*
G03*
X146300000Y-121600000I-700000J0D01*
G01*
%TO.C,TP15*%
X135500000Y-134400000D02*
G75*
G03*
X135500000Y-134400000I-700000J0D01*
G01*
%TO.C,TP14*%
X141100000Y-121600000D02*
G75*
G03*
X141100000Y-121600000I-700000J0D01*
G01*
%TO.C,TP3*%
X132300000Y-131400000D02*
G75*
G03*
X132300000Y-131400000I-700000J0D01*
G01*
%TO.C,TP2*%
X126900000Y-144400000D02*
G75*
G03*
X126900000Y-144400000I-700000J0D01*
G01*
%TO.C,TP1*%
X130100000Y-131400000D02*
G75*
G03*
X130100000Y-131400000I-700000J0D01*
G01*
%TO.C,R29*%
X132422500Y-108587258D02*
X132422500Y-108112742D01*
X131377500Y-108587258D02*
X131377500Y-108112742D01*
%TO.C,R28*%
X137012742Y-108122500D02*
X137487258Y-108122500D01*
X137012742Y-107077500D02*
X137487258Y-107077500D01*
%TO.C,R27*%
X149327500Y-92362742D02*
X149327500Y-92837258D01*
X150372500Y-92362742D02*
X150372500Y-92837258D01*
%TO.C,R24*%
X141322500Y-94837258D02*
X141322500Y-94362742D01*
X140277500Y-94837258D02*
X140277500Y-94362742D01*
%TO.C,R21*%
X118987258Y-131977500D02*
X118512742Y-131977500D01*
X118987258Y-133022500D02*
X118512742Y-133022500D01*
%TO.C,R20*%
X118512742Y-131522500D02*
X118987258Y-131522500D01*
X118512742Y-130477500D02*
X118987258Y-130477500D01*
%TO.C,R18*%
X131892742Y-60522500D02*
X132367258Y-60522500D01*
X131892742Y-59477500D02*
X132367258Y-59477500D01*
%TO.C,R16*%
X126362742Y-65722500D02*
X126837258Y-65722500D01*
X126362742Y-64677500D02*
X126837258Y-64677500D01*
%TO.C,R23*%
X169877500Y-140962742D02*
X169877500Y-141437258D01*
X170922500Y-140962742D02*
X170922500Y-141437258D01*
%TO.C,R13*%
X131022500Y-68237258D02*
X131022500Y-67762742D01*
X129977500Y-68237258D02*
X129977500Y-67762742D01*
%TO.C,R10*%
X163872500Y-141437258D02*
X163872500Y-140962742D01*
X162827500Y-141437258D02*
X162827500Y-140962742D01*
%TO.C,R12*%
X165077500Y-140962742D02*
X165077500Y-141437258D01*
X166122500Y-140962742D02*
X166122500Y-141437258D01*
%TO.C,R9*%
X162372500Y-141437258D02*
X162372500Y-140962742D01*
X161327500Y-141437258D02*
X161327500Y-140962742D01*
%TO.C,R22*%
X133522500Y-138937258D02*
X133522500Y-138462742D01*
X132477500Y-138937258D02*
X132477500Y-138462742D01*
%TO.C,R19*%
X147777500Y-120562742D02*
X147777500Y-121037258D01*
X148822500Y-120562742D02*
X148822500Y-121037258D01*
%TO.C,R17*%
X143277500Y-120562742D02*
X143277500Y-121037258D01*
X144322500Y-120562742D02*
X144322500Y-121037258D01*
%TO.C,R15*%
X135122500Y-138937258D02*
X135122500Y-138462742D01*
X134077500Y-138937258D02*
X134077500Y-138462742D01*
%TO.C,R7*%
X129477500Y-79962742D02*
X129477500Y-80437258D01*
X130522500Y-79962742D02*
X130522500Y-80437258D01*
%TO.C,R14*%
X141677500Y-120562742D02*
X141677500Y-121037258D01*
X142722500Y-120562742D02*
X142722500Y-121037258D01*
%TO.C,R5*%
X134077500Y-128562742D02*
X134077500Y-129037258D01*
X135122500Y-128562742D02*
X135122500Y-129037258D01*
%TO.C,R4*%
X129277500Y-128562742D02*
X129277500Y-129037258D01*
X130322500Y-128562742D02*
X130322500Y-129037258D01*
%TO.C,R3*%
X133562742Y-123322500D02*
X134037258Y-123322500D01*
X133562742Y-122277500D02*
X134037258Y-122277500D01*
%TO.C,R2*%
X128762742Y-123322500D02*
X129237258Y-123322500D01*
X128762742Y-122277500D02*
X129237258Y-122277500D01*
%TO.C,R1*%
X146237258Y-96677500D02*
X145762742Y-96677500D01*
X146237258Y-97722500D02*
X145762742Y-97722500D01*
%TO.C,Q2*%
X132840000Y-123820000D02*
X134300000Y-123820000D01*
X132840000Y-126980000D02*
X135000000Y-126980000D01*
X132840000Y-126980000D02*
X132840000Y-126050000D01*
X132840000Y-123820000D02*
X132840000Y-124750000D01*
%TO.C,Q1*%
X128040000Y-123820000D02*
X129500000Y-123820000D01*
X128040000Y-126980000D02*
X130200000Y-126980000D01*
X128040000Y-126980000D02*
X128040000Y-126050000D01*
X128040000Y-123820000D02*
X128040000Y-124750000D01*
%TO.C,L1*%
X132147936Y-116760000D02*
X133352064Y-116760000D01*
X132147936Y-114040000D02*
X133352064Y-114040000D01*
%TO.C,J2*%
X115670000Y-75330000D02*
X115670000Y-74000000D01*
X117000000Y-75330000D02*
X115670000Y-75330000D01*
X118270000Y-75330000D02*
X118270000Y-72670000D01*
X118270000Y-72670000D02*
X120870000Y-72670000D01*
X118270000Y-75330000D02*
X120870000Y-75330000D01*
X120870000Y-75330000D02*
X120870000Y-72670000D01*
%TO.C,D19*%
X138650000Y-110050000D02*
X138650000Y-115450000D01*
X135350000Y-110050000D02*
X135350000Y-115450000D01*
X138650000Y-110050000D02*
X135350000Y-110050000D01*
%TO.C,D17*%
X141400000Y-99300000D02*
X141400000Y-101150000D01*
X140200000Y-99300000D02*
X140200000Y-101150000D01*
X140200000Y-101150000D02*
X141400000Y-101150000D01*
%TO.C,D16*%
X141400000Y-96700000D02*
X141400000Y-98550000D01*
X140200000Y-96700000D02*
X140200000Y-98550000D01*
X140200000Y-98550000D02*
X141400000Y-98550000D01*
%TO.C,C40*%
X124690000Y-141259420D02*
X124690000Y-141540580D01*
X125710000Y-141259420D02*
X125710000Y-141540580D01*
%TO.C,C39*%
X137390580Y-108640000D02*
X137109420Y-108640000D01*
X137390580Y-109660000D02*
X137109420Y-109660000D01*
%TO.C,C38*%
X127310000Y-128940580D02*
X127310000Y-128659420D01*
X126290000Y-128940580D02*
X126290000Y-128659420D01*
%TO.C,C37*%
X122590000Y-135959420D02*
X122590000Y-136240580D01*
X123610000Y-135959420D02*
X123610000Y-136240580D01*
%TO.C,C36*%
X129790580Y-110190000D02*
X129509420Y-110190000D01*
X129790580Y-111210000D02*
X129509420Y-111210000D01*
%TO.C,C35*%
X120990000Y-135959420D02*
X120990000Y-136240580D01*
X122010000Y-135959420D02*
X122010000Y-136240580D01*
%TO.C,C34*%
X153959420Y-92310000D02*
X154240580Y-92310000D01*
X153959420Y-91290000D02*
X154240580Y-91290000D01*
%TO.C,C33*%
X137090000Y-94459420D02*
X137090000Y-94740580D01*
X138110000Y-94459420D02*
X138110000Y-94740580D01*
%TO.C,C32*%
X135440580Y-90990000D02*
X135159420Y-90990000D01*
X135440580Y-92010000D02*
X135159420Y-92010000D01*
%TO.C,C31*%
X153959420Y-93810000D02*
X154240580Y-93810000D01*
X153959420Y-92790000D02*
X154240580Y-92790000D01*
%TO.C,C30*%
X138690000Y-94459420D02*
X138690000Y-94740580D01*
X139710000Y-94459420D02*
X139710000Y-94740580D01*
%TO.C,C29*%
X135440580Y-89190000D02*
X135159420Y-89190000D01*
X135440580Y-90210000D02*
X135159420Y-90210000D01*
%TO.C,C27*%
X157459420Y-138960000D02*
X157740580Y-138960000D01*
X157459420Y-137940000D02*
X157740580Y-137940000D01*
%TO.C,C28*%
X151090000Y-92459420D02*
X151090000Y-92740580D01*
X152110000Y-92459420D02*
X152110000Y-92740580D01*
%TO.C,C26*%
X122740000Y-73859420D02*
X122740000Y-74140580D01*
X123760000Y-73859420D02*
X123760000Y-74140580D01*
%TO.C,C23*%
X125260000Y-68140580D02*
X125260000Y-67859420D01*
X124240000Y-68140580D02*
X124240000Y-67859420D01*
%TO.C,C25*%
X167890000Y-141059420D02*
X167890000Y-141340580D01*
X168910000Y-141059420D02*
X168910000Y-141340580D01*
%TO.C,C22*%
X162090000Y-135659420D02*
X162090000Y-135940580D01*
X163110000Y-135659420D02*
X163110000Y-135940580D01*
%TO.C,C17*%
X121340580Y-61090000D02*
X121059420Y-61090000D01*
X121340580Y-62110000D02*
X121059420Y-62110000D01*
%TO.C,C16*%
X174290000Y-147059420D02*
X174290000Y-147340580D01*
X175310000Y-147059420D02*
X175310000Y-147340580D01*
%TO.C,C14*%
X111340000Y-84159420D02*
X111340000Y-84440580D01*
X112360000Y-84159420D02*
X112360000Y-84440580D01*
%TO.C,C13*%
X177540580Y-139890000D02*
X177259420Y-139890000D01*
X177540580Y-140910000D02*
X177259420Y-140910000D01*
%TO.C,C12*%
X111690000Y-123459420D02*
X111690000Y-123740580D01*
X112710000Y-123459420D02*
X112710000Y-123740580D01*
%TO.C,C11*%
X177940580Y-112890000D02*
X177659420Y-112890000D01*
X177940580Y-113910000D02*
X177659420Y-113910000D01*
%TO.C,C10*%
X111340000Y-104409420D02*
X111340000Y-104690580D01*
X112360000Y-104409420D02*
X112360000Y-104690580D01*
%TO.C,C9*%
X180510000Y-96340580D02*
X180510000Y-96059420D01*
X179490000Y-96340580D02*
X179490000Y-96059420D01*
%TO.C,C8*%
X147590000Y-100059420D02*
X147590000Y-100340580D01*
X148610000Y-100059420D02*
X148610000Y-100340580D01*
%TO.C,C7*%
X113290000Y-140259420D02*
X113290000Y-140540580D01*
X114310000Y-140259420D02*
X114310000Y-140540580D01*
%TO.C,C6*%
X179690000Y-83459420D02*
X179690000Y-83740580D01*
X180710000Y-83459420D02*
X180710000Y-83740580D01*
%TO.C,C5*%
X149290000Y-100059420D02*
X149290000Y-100340580D01*
X150310000Y-100059420D02*
X150310000Y-100340580D01*
%TO.C,C3*%
X123110000Y-146340580D02*
X123110000Y-146059420D01*
X122090000Y-146340580D02*
X122090000Y-146059420D01*
%TO.C,C2*%
X172259420Y-65310000D02*
X172540580Y-65310000D01*
X172259420Y-64290000D02*
X172540580Y-64290000D01*
D15*
%TO.C,G\u002A\u002A\u002A*%
G36*
X144828039Y-102706330D02*
G01*
X144828517Y-102716683D01*
X144826373Y-102743492D01*
X144821931Y-102783898D01*
X144815517Y-102835042D01*
X144807454Y-102894065D01*
X144804088Y-102917531D01*
X144773961Y-103124916D01*
X144671384Y-103160406D01*
X144545475Y-103207622D01*
X144437854Y-103255972D01*
X144347277Y-103306121D01*
X144272501Y-103358730D01*
X144231460Y-103394870D01*
X144177713Y-103456739D01*
X144143272Y-103519023D01*
X144127919Y-103581357D01*
X144131435Y-103643378D01*
X144153603Y-103704722D01*
X144194206Y-103765025D01*
X144253025Y-103823922D01*
X144329844Y-103881049D01*
X144424444Y-103936044D01*
X144536607Y-103988541D01*
X144602297Y-104014921D01*
X144727891Y-104058410D01*
X144864088Y-104096880D01*
X145012372Y-104130605D01*
X145174231Y-104159860D01*
X145351151Y-104184920D01*
X145544620Y-104206060D01*
X145714071Y-104220467D01*
X145794489Y-104226542D01*
X145797110Y-103996246D01*
X145799730Y-103765951D01*
X146134327Y-104100662D01*
X146468923Y-104435374D01*
X146131885Y-104772307D01*
X145794846Y-105109240D01*
X145794846Y-104646862D01*
X145733788Y-104641602D01*
X145609089Y-104630466D01*
X145500626Y-104619829D01*
X145405120Y-104609240D01*
X145319291Y-104598245D01*
X145239860Y-104586392D01*
X145163548Y-104573229D01*
X145087075Y-104558304D01*
X145009266Y-104541630D01*
X144818392Y-104494219D01*
X144640049Y-104439725D01*
X144474955Y-104378590D01*
X144323826Y-104311254D01*
X144187381Y-104238160D01*
X144066336Y-104159747D01*
X143961410Y-104076459D01*
X143873318Y-103988735D01*
X143802779Y-103897017D01*
X143750510Y-103801746D01*
X143732610Y-103756307D01*
X143714522Y-103679226D01*
X143709267Y-103594745D01*
X143716781Y-103510139D01*
X143735398Y-103437086D01*
X143776842Y-103347031D01*
X143836731Y-103258110D01*
X143915562Y-103169610D01*
X143933275Y-103152252D01*
X144035175Y-103065618D01*
X144155125Y-102983761D01*
X144292094Y-102907246D01*
X144445054Y-102836637D01*
X144612975Y-102772499D01*
X144646784Y-102760991D01*
X144701904Y-102742877D01*
X144750560Y-102727452D01*
X144789773Y-102715613D01*
X144816564Y-102708259D01*
X144827953Y-102706288D01*
X144828039Y-102706330D01*
G37*
X144828039Y-102706330D02*
X144828517Y-102716683D01*
X144826373Y-102743492D01*
X144821931Y-102783898D01*
X144815517Y-102835042D01*
X144807454Y-102894065D01*
X144804088Y-102917531D01*
X144773961Y-103124916D01*
X144671384Y-103160406D01*
X144545475Y-103207622D01*
X144437854Y-103255972D01*
X144347277Y-103306121D01*
X144272501Y-103358730D01*
X144231460Y-103394870D01*
X144177713Y-103456739D01*
X144143272Y-103519023D01*
X144127919Y-103581357D01*
X144131435Y-103643378D01*
X144153603Y-103704722D01*
X144194206Y-103765025D01*
X144253025Y-103823922D01*
X144329844Y-103881049D01*
X144424444Y-103936044D01*
X144536607Y-103988541D01*
X144602297Y-104014921D01*
X144727891Y-104058410D01*
X144864088Y-104096880D01*
X145012372Y-104130605D01*
X145174231Y-104159860D01*
X145351151Y-104184920D01*
X145544620Y-104206060D01*
X145714071Y-104220467D01*
X145794489Y-104226542D01*
X145797110Y-103996246D01*
X145799730Y-103765951D01*
X146134327Y-104100662D01*
X146468923Y-104435374D01*
X146131885Y-104772307D01*
X145794846Y-105109240D01*
X145794846Y-104646862D01*
X145733788Y-104641602D01*
X145609089Y-104630466D01*
X145500626Y-104619829D01*
X145405120Y-104609240D01*
X145319291Y-104598245D01*
X145239860Y-104586392D01*
X145163548Y-104573229D01*
X145087075Y-104558304D01*
X145009266Y-104541630D01*
X144818392Y-104494219D01*
X144640049Y-104439725D01*
X144474955Y-104378590D01*
X144323826Y-104311254D01*
X144187381Y-104238160D01*
X144066336Y-104159747D01*
X143961410Y-104076459D01*
X143873318Y-103988735D01*
X143802779Y-103897017D01*
X143750510Y-103801746D01*
X143732610Y-103756307D01*
X143714522Y-103679226D01*
X143709267Y-103594745D01*
X143716781Y-103510139D01*
X143735398Y-103437086D01*
X143776842Y-103347031D01*
X143836731Y-103258110D01*
X143915562Y-103169610D01*
X143933275Y-103152252D01*
X144035175Y-103065618D01*
X144155125Y-102983761D01*
X144292094Y-102907246D01*
X144445054Y-102836637D01*
X144612975Y-102772499D01*
X144646784Y-102760991D01*
X144701904Y-102742877D01*
X144750560Y-102727452D01*
X144789773Y-102715613D01*
X144816564Y-102708259D01*
X144827953Y-102706288D01*
X144828039Y-102706330D01*
G36*
X146084619Y-101316545D02*
G01*
X146163157Y-101335129D01*
X146238371Y-101367524D01*
X146313021Y-101415060D01*
X146389862Y-101479069D01*
X146430553Y-101518254D01*
X146525403Y-101625611D01*
X146613568Y-101750594D01*
X146694615Y-101892318D01*
X146768112Y-102049897D01*
X146833626Y-102222447D01*
X146890726Y-102409082D01*
X146918107Y-102516244D01*
X146949756Y-102648758D01*
X147083012Y-102681263D01*
X147288107Y-102737530D01*
X147475911Y-102802036D01*
X147646321Y-102874732D01*
X147799235Y-102955567D01*
X147934550Y-103044490D01*
X148052162Y-103141450D01*
X148086083Y-103174207D01*
X148158098Y-103253567D01*
X148213090Y-103330615D01*
X148252842Y-103408347D01*
X148279134Y-103489763D01*
X148282534Y-103504849D01*
X148292641Y-103598360D01*
X148283658Y-103691531D01*
X148256030Y-103783779D01*
X148210204Y-103874523D01*
X148146627Y-103963181D01*
X148065745Y-104049172D01*
X147968005Y-104131913D01*
X147853852Y-104210822D01*
X147723734Y-104285319D01*
X147658743Y-104317896D01*
X147619278Y-104335799D01*
X147570169Y-104356423D01*
X147514309Y-104378722D01*
X147454594Y-104401652D01*
X147393919Y-104424168D01*
X147335179Y-104445223D01*
X147281269Y-104463772D01*
X147235083Y-104478771D01*
X147199516Y-104489173D01*
X147177465Y-104493934D01*
X147171960Y-104493669D01*
X147171482Y-104483317D01*
X147173622Y-104456505D01*
X147178057Y-104416092D01*
X147184463Y-104364936D01*
X147192517Y-104305891D01*
X147195911Y-104282190D01*
X147226038Y-104074528D01*
X147260230Y-104063062D01*
X147400490Y-104012565D01*
X147521655Y-103961437D01*
X147624167Y-103909362D01*
X147708469Y-103856026D01*
X147775000Y-103801113D01*
X147824203Y-103744310D01*
X147856519Y-103685302D01*
X147871978Y-103626932D01*
X147870874Y-103564500D01*
X147850697Y-103502782D01*
X147811912Y-103442207D01*
X147754983Y-103383203D01*
X147680372Y-103326197D01*
X147588545Y-103271618D01*
X147479964Y-103219893D01*
X147393033Y-103185164D01*
X147355070Y-103171955D01*
X147308380Y-103157105D01*
X147256340Y-103141528D01*
X147202326Y-103126139D01*
X147149717Y-103111853D01*
X147101889Y-103099583D01*
X147062221Y-103090245D01*
X147034088Y-103084754D01*
X147020869Y-103084023D01*
X147020468Y-103084274D01*
X147019504Y-103095218D01*
X147020386Y-103121227D01*
X147022903Y-103157932D01*
X147025326Y-103185553D01*
X147039936Y-103401814D01*
X147043690Y-103623393D01*
X147036938Y-103847407D01*
X147020032Y-104070974D01*
X146993323Y-104291211D01*
X146957162Y-104505235D01*
X146911900Y-104710163D01*
X146857888Y-104903112D01*
X146795477Y-105081200D01*
X146794015Y-105084923D01*
X146727754Y-105238658D01*
X146655902Y-105378056D01*
X146579075Y-105502357D01*
X146497891Y-105610799D01*
X146412964Y-105702620D01*
X146324912Y-105777059D01*
X146234350Y-105833355D01*
X146163828Y-105863675D01*
X146082112Y-105884360D01*
X145997556Y-105891901D01*
X145917306Y-105885811D01*
X145897423Y-105881794D01*
X145813689Y-105855779D01*
X145734805Y-105817125D01*
X145657788Y-105763974D01*
X145579652Y-105694464D01*
X145552122Y-105666588D01*
X145462643Y-105561231D01*
X145378809Y-105437592D01*
X145300896Y-105296174D01*
X145229182Y-105137481D01*
X145163942Y-104962018D01*
X145161087Y-104953509D01*
X145142958Y-104898342D01*
X145127515Y-104849636D01*
X145115657Y-104810369D01*
X145108280Y-104783517D01*
X145106284Y-104772057D01*
X145106330Y-104771960D01*
X145116683Y-104771482D01*
X145143492Y-104773627D01*
X145183898Y-104778068D01*
X145235042Y-104784482D01*
X145294065Y-104792546D01*
X145317531Y-104795911D01*
X145524916Y-104826038D01*
X145560406Y-104928615D01*
X145610142Y-105059655D01*
X145662515Y-105173189D01*
X145717276Y-105268957D01*
X145774179Y-105346697D01*
X145832976Y-105406151D01*
X145893422Y-105447057D01*
X145955267Y-105469155D01*
X146018266Y-105472186D01*
X146066561Y-105461644D01*
X146125650Y-105434503D01*
X146181184Y-105392957D01*
X146234213Y-105335816D01*
X146285790Y-105261894D01*
X146336965Y-105170003D01*
X146352445Y-105138653D01*
X146414354Y-104993492D01*
X146468620Y-104830970D01*
X146515278Y-104650937D01*
X146554363Y-104453244D01*
X146585911Y-104237744D01*
X146601876Y-104093346D01*
X146608033Y-104014908D01*
X146612899Y-103921126D01*
X146616453Y-103816150D01*
X146618673Y-103704132D01*
X146619537Y-103589226D01*
X146619024Y-103475581D01*
X146617112Y-103367352D01*
X146613779Y-103268689D01*
X146609003Y-103183745D01*
X146606769Y-103155500D01*
X146602225Y-103104444D01*
X146598192Y-103060933D01*
X146595000Y-103028370D01*
X146592976Y-103010159D01*
X146592502Y-103007497D01*
X146582801Y-103006167D01*
X146557037Y-103003472D01*
X146518615Y-102999747D01*
X146470937Y-102995328D01*
X146444500Y-102992945D01*
X146377065Y-102988334D01*
X146291583Y-102984870D01*
X146189510Y-102982586D01*
X146072306Y-102981517D01*
X145953553Y-102981628D01*
X145609144Y-102983399D01*
X145613856Y-102961988D01*
X145616676Y-102945762D01*
X145621651Y-102913671D01*
X145628263Y-102869207D01*
X145635992Y-102815858D01*
X145643936Y-102759846D01*
X145652375Y-102702352D01*
X145660544Y-102651469D01*
X145667872Y-102610394D01*
X145673789Y-102582323D01*
X145677704Y-102570474D01*
X145689823Y-102567842D01*
X145718826Y-102565691D01*
X145762064Y-102564012D01*
X145816890Y-102562799D01*
X145880655Y-102562043D01*
X145950710Y-102561737D01*
X146024408Y-102561874D01*
X146099100Y-102562447D01*
X146172138Y-102563447D01*
X146240873Y-102564867D01*
X146302657Y-102566701D01*
X146354842Y-102568940D01*
X146394779Y-102571577D01*
X146404694Y-102572520D01*
X146448135Y-102576715D01*
X146483884Y-102579396D01*
X146507810Y-102580304D01*
X146515742Y-102579514D01*
X146514996Y-102569026D01*
X146510019Y-102543125D01*
X146501560Y-102505290D01*
X146490374Y-102459001D01*
X146485451Y-102439470D01*
X146445601Y-102299230D01*
X146401200Y-102172435D01*
X146352761Y-102059839D01*
X146300793Y-101962200D01*
X146245807Y-101880273D01*
X146188314Y-101814814D01*
X146128826Y-101766580D01*
X146067853Y-101736327D01*
X146005905Y-101724810D01*
X146002547Y-101724736D01*
X145961854Y-101730459D01*
X145914160Y-101746629D01*
X145866720Y-101770336D01*
X145834730Y-101792053D01*
X145783456Y-101841783D01*
X145732084Y-101909079D01*
X145681632Y-101992000D01*
X145633123Y-102088607D01*
X145587577Y-102196958D01*
X145546015Y-102315114D01*
X145527267Y-102376503D01*
X145496395Y-102491053D01*
X145469293Y-102610067D01*
X145445548Y-102736165D01*
X145424748Y-102871964D01*
X145406481Y-103020085D01*
X145390332Y-103183147D01*
X145379559Y-103314250D01*
X145373426Y-103394846D01*
X145838701Y-103394846D01*
X145501768Y-103731885D01*
X145164836Y-104068923D01*
X144830124Y-103734327D01*
X144495412Y-103399730D01*
X144953174Y-103394496D01*
X144958318Y-103333613D01*
X144972180Y-103180621D01*
X144986669Y-103043974D01*
X145002254Y-102920479D01*
X145019404Y-102806945D01*
X145038588Y-102700177D01*
X145060276Y-102596984D01*
X145077150Y-102525367D01*
X145128625Y-102336877D01*
X145186975Y-102162009D01*
X145251791Y-102001397D01*
X145322668Y-101855674D01*
X145399197Y-101725474D01*
X145480973Y-101611429D01*
X145567587Y-101514173D01*
X145658634Y-101434338D01*
X145753707Y-101372559D01*
X145843692Y-101332455D01*
X145884603Y-101320214D01*
X145925780Y-101313296D01*
X145975123Y-101310589D01*
X146000000Y-101310439D01*
X146084619Y-101316545D01*
G37*
X146084619Y-101316545D02*
X146163157Y-101335129D01*
X146238371Y-101367524D01*
X146313021Y-101415060D01*
X146389862Y-101479069D01*
X146430553Y-101518254D01*
X146525403Y-101625611D01*
X146613568Y-101750594D01*
X146694615Y-101892318D01*
X146768112Y-102049897D01*
X146833626Y-102222447D01*
X146890726Y-102409082D01*
X146918107Y-102516244D01*
X146949756Y-102648758D01*
X147083012Y-102681263D01*
X147288107Y-102737530D01*
X147475911Y-102802036D01*
X147646321Y-102874732D01*
X147799235Y-102955567D01*
X147934550Y-103044490D01*
X148052162Y-103141450D01*
X148086083Y-103174207D01*
X148158098Y-103253567D01*
X148213090Y-103330615D01*
X148252842Y-103408347D01*
X148279134Y-103489763D01*
X148282534Y-103504849D01*
X148292641Y-103598360D01*
X148283658Y-103691531D01*
X148256030Y-103783779D01*
X148210204Y-103874523D01*
X148146627Y-103963181D01*
X148065745Y-104049172D01*
X147968005Y-104131913D01*
X147853852Y-104210822D01*
X147723734Y-104285319D01*
X147658743Y-104317896D01*
X147619278Y-104335799D01*
X147570169Y-104356423D01*
X147514309Y-104378722D01*
X147454594Y-104401652D01*
X147393919Y-104424168D01*
X147335179Y-104445223D01*
X147281269Y-104463772D01*
X147235083Y-104478771D01*
X147199516Y-104489173D01*
X147177465Y-104493934D01*
X147171960Y-104493669D01*
X147171482Y-104483317D01*
X147173622Y-104456505D01*
X147178057Y-104416092D01*
X147184463Y-104364936D01*
X147192517Y-104305891D01*
X147195911Y-104282190D01*
X147226038Y-104074528D01*
X147260230Y-104063062D01*
X147400490Y-104012565D01*
X147521655Y-103961437D01*
X147624167Y-103909362D01*
X147708469Y-103856026D01*
X147775000Y-103801113D01*
X147824203Y-103744310D01*
X147856519Y-103685302D01*
X147871978Y-103626932D01*
X147870874Y-103564500D01*
X147850697Y-103502782D01*
X147811912Y-103442207D01*
X147754983Y-103383203D01*
X147680372Y-103326197D01*
X147588545Y-103271618D01*
X147479964Y-103219893D01*
X147393033Y-103185164D01*
X147355070Y-103171955D01*
X147308380Y-103157105D01*
X147256340Y-103141528D01*
X147202326Y-103126139D01*
X147149717Y-103111853D01*
X147101889Y-103099583D01*
X147062221Y-103090245D01*
X147034088Y-103084754D01*
X147020869Y-103084023D01*
X147020468Y-103084274D01*
X147019504Y-103095218D01*
X147020386Y-103121227D01*
X147022903Y-103157932D01*
X147025326Y-103185553D01*
X147039936Y-103401814D01*
X147043690Y-103623393D01*
X147036938Y-103847407D01*
X147020032Y-104070974D01*
X146993323Y-104291211D01*
X146957162Y-104505235D01*
X146911900Y-104710163D01*
X146857888Y-104903112D01*
X146795477Y-105081200D01*
X146794015Y-105084923D01*
X146727754Y-105238658D01*
X146655902Y-105378056D01*
X146579075Y-105502357D01*
X146497891Y-105610799D01*
X146412964Y-105702620D01*
X146324912Y-105777059D01*
X146234350Y-105833355D01*
X146163828Y-105863675D01*
X146082112Y-105884360D01*
X145997556Y-105891901D01*
X145917306Y-105885811D01*
X145897423Y-105881794D01*
X145813689Y-105855779D01*
X145734805Y-105817125D01*
X145657788Y-105763974D01*
X145579652Y-105694464D01*
X145552122Y-105666588D01*
X145462643Y-105561231D01*
X145378809Y-105437592D01*
X145300896Y-105296174D01*
X145229182Y-105137481D01*
X145163942Y-104962018D01*
X145161087Y-104953509D01*
X145142958Y-104898342D01*
X145127515Y-104849636D01*
X145115657Y-104810369D01*
X145108280Y-104783517D01*
X145106284Y-104772057D01*
X145106330Y-104771960D01*
X145116683Y-104771482D01*
X145143492Y-104773627D01*
X145183898Y-104778068D01*
X145235042Y-104784482D01*
X145294065Y-104792546D01*
X145317531Y-104795911D01*
X145524916Y-104826038D01*
X145560406Y-104928615D01*
X145610142Y-105059655D01*
X145662515Y-105173189D01*
X145717276Y-105268957D01*
X145774179Y-105346697D01*
X145832976Y-105406151D01*
X145893422Y-105447057D01*
X145955267Y-105469155D01*
X146018266Y-105472186D01*
X146066561Y-105461644D01*
X146125650Y-105434503D01*
X146181184Y-105392957D01*
X146234213Y-105335816D01*
X146285790Y-105261894D01*
X146336965Y-105170003D01*
X146352445Y-105138653D01*
X146414354Y-104993492D01*
X146468620Y-104830970D01*
X146515278Y-104650937D01*
X146554363Y-104453244D01*
X146585911Y-104237744D01*
X146601876Y-104093346D01*
X146608033Y-104014908D01*
X146612899Y-103921126D01*
X146616453Y-103816150D01*
X146618673Y-103704132D01*
X146619537Y-103589226D01*
X146619024Y-103475581D01*
X146617112Y-103367352D01*
X146613779Y-103268689D01*
X146609003Y-103183745D01*
X146606769Y-103155500D01*
X146602225Y-103104444D01*
X146598192Y-103060933D01*
X146595000Y-103028370D01*
X146592976Y-103010159D01*
X146592502Y-103007497D01*
X146582801Y-103006167D01*
X146557037Y-103003472D01*
X146518615Y-102999747D01*
X146470937Y-102995328D01*
X146444500Y-102992945D01*
X146377065Y-102988334D01*
X146291583Y-102984870D01*
X146189510Y-102982586D01*
X146072306Y-102981517D01*
X145953553Y-102981628D01*
X145609144Y-102983399D01*
X145613856Y-102961988D01*
X145616676Y-102945762D01*
X145621651Y-102913671D01*
X145628263Y-102869207D01*
X145635992Y-102815858D01*
X145643936Y-102759846D01*
X145652375Y-102702352D01*
X145660544Y-102651469D01*
X145667872Y-102610394D01*
X145673789Y-102582323D01*
X145677704Y-102570474D01*
X145689823Y-102567842D01*
X145718826Y-102565691D01*
X145762064Y-102564012D01*
X145816890Y-102562799D01*
X145880655Y-102562043D01*
X145950710Y-102561737D01*
X146024408Y-102561874D01*
X146099100Y-102562447D01*
X146172138Y-102563447D01*
X146240873Y-102564867D01*
X146302657Y-102566701D01*
X146354842Y-102568940D01*
X146394779Y-102571577D01*
X146404694Y-102572520D01*
X146448135Y-102576715D01*
X146483884Y-102579396D01*
X146507810Y-102580304D01*
X146515742Y-102579514D01*
X146514996Y-102569026D01*
X146510019Y-102543125D01*
X146501560Y-102505290D01*
X146490374Y-102459001D01*
X146485451Y-102439470D01*
X146445601Y-102299230D01*
X146401200Y-102172435D01*
X146352761Y-102059839D01*
X146300793Y-101962200D01*
X146245807Y-101880273D01*
X146188314Y-101814814D01*
X146128826Y-101766580D01*
X146067853Y-101736327D01*
X146005905Y-101724810D01*
X146002547Y-101724736D01*
X145961854Y-101730459D01*
X145914160Y-101746629D01*
X145866720Y-101770336D01*
X145834730Y-101792053D01*
X145783456Y-101841783D01*
X145732084Y-101909079D01*
X145681632Y-101992000D01*
X145633123Y-102088607D01*
X145587577Y-102196958D01*
X145546015Y-102315114D01*
X145527267Y-102376503D01*
X145496395Y-102491053D01*
X145469293Y-102610067D01*
X145445548Y-102736165D01*
X145424748Y-102871964D01*
X145406481Y-103020085D01*
X145390332Y-103183147D01*
X145379559Y-103314250D01*
X145373426Y-103394846D01*
X145838701Y-103394846D01*
X145501768Y-103731885D01*
X145164836Y-104068923D01*
X144830124Y-103734327D01*
X144495412Y-103399730D01*
X144953174Y-103394496D01*
X144958318Y-103333613D01*
X144972180Y-103180621D01*
X144986669Y-103043974D01*
X145002254Y-102920479D01*
X145019404Y-102806945D01*
X145038588Y-102700177D01*
X145060276Y-102596984D01*
X145077150Y-102525367D01*
X145128625Y-102336877D01*
X145186975Y-102162009D01*
X145251791Y-102001397D01*
X145322668Y-101855674D01*
X145399197Y-101725474D01*
X145480973Y-101611429D01*
X145567587Y-101514173D01*
X145658634Y-101434338D01*
X145753707Y-101372559D01*
X145843692Y-101332455D01*
X145884603Y-101320214D01*
X145925780Y-101313296D01*
X145975123Y-101310589D01*
X146000000Y-101310439D01*
X146084619Y-101316545D01*
D13*
%TO.C,U2*%
X155120000Y-143445000D02*
X155500000Y-143445000D01*
X155120000Y-149865000D02*
X155120000Y-143445000D01*
X136880000Y-149865000D02*
X136880000Y-143445000D01*
X155120000Y-149865000D02*
X136880000Y-149865000D01*
X136880000Y-124120000D02*
X137880000Y-124120000D01*
X136880000Y-124900000D02*
X136880000Y-124120000D01*
X155120000Y-124120000D02*
X154120000Y-124120000D01*
X155120000Y-124900000D02*
X155120000Y-124120000D01*
%TO.C,SW2*%
X112280000Y-133450000D02*
X113070000Y-133450000D01*
X113070000Y-126550000D02*
X112280000Y-126550000D01*
X114120000Y-128400000D02*
X114120000Y-130100000D01*
X111270000Y-127150000D02*
X111270000Y-132850000D01*
X109980000Y-129900000D02*
X111270000Y-129900000D01*
X109770000Y-128800000D02*
X109770000Y-129700000D01*
X111270000Y-128600000D02*
X109980000Y-128600000D01*
X109980000Y-129900000D02*
X109770000Y-129700000D01*
X109980000Y-128600000D02*
X109770000Y-128800000D01*
X114120000Y-131400000D02*
X114120000Y-131600000D01*
%TO.C,U1*%
X144900000Y-98900000D02*
X144900000Y-98900000D01*
X145400000Y-98900000D02*
X144900000Y-98900000D01*
X144900000Y-100600000D02*
X144900000Y-100600000D01*
X144900000Y-101100000D02*
X144900000Y-100600000D01*
X145400000Y-101100000D02*
X144900000Y-101100000D01*
X146600000Y-101100000D02*
X146600000Y-101100000D01*
X147100000Y-101100000D02*
X146600000Y-101100000D01*
X147100000Y-100600000D02*
X147100000Y-101100000D01*
X147100000Y-99400000D02*
X147100000Y-99400000D01*
X147100000Y-98900000D02*
X147100000Y-99400000D01*
X146600000Y-98900000D02*
X147100000Y-98900000D01*
%TD*%
M02*
