M48
; DRILL file {KiCad 5.1.10} date Fri Nov 19 17:21:23 2021
; FORMAT={-:-/ absolute / metric / decimal}
; #@! TF.CreationDate,2021-11-19T17:21:23+01:00
; #@! TF.GenerationSoftware,Kicad,Pcbnew,5.1.10
; #@! TF.FileFunction,Plated,1,2,PTH
FMAT,2
METRIC
T1C0.400
T2C0.890
T3C1.000
T4C1.570
%
G90
G05
T1
X112.3Y-117.5
X112.44Y-97.25
X113.4Y-103.75
X113.4Y-122.85
X113.4Y-83.55
X115.1Y-139.8
X117.45Y-113.7
X118.6Y-62.2
X120.7Y-126.45
X121.3Y-63.2
X123.4Y-140.5
X123.85Y-58.05
X124.0Y-134.1
X124.0Y-145.6
X124.4Y-136.8
X125.2Y-71.2
X125.6Y-132.4
X126.8Y-121.4
X127.5Y-141.6
X128.2Y-137.6
X128.3Y-135.9
X128.4Y-124.4
X128.8Y-79.4
X129.0Y-77.4
X129.2Y-139.348
X130.211Y-135.798
X130.25Y-113.1
X130.7Y-109.15
X130.8Y-133.3
X131.0Y-120.548
X131.0Y-122.4
X131.2Y-134.8
X131.75Y-139.55
X131.8Y-123.0
X132.4Y-127.2
X133.6Y-56.3
X134.2Y-109.95
X135.45Y-107.6
X135.6Y-124.6
X135.8Y-136.8
X135.8Y-134.8
X136.4Y-120.8
X136.6Y-124.0
X137.8Y-124.6
X138.919Y-127.8
X139.2Y-124.0
X139.2Y-130.0
X139.348Y-133.0
X139.6Y-134.0
X140.0Y-123.0
X140.8Y-132.6
X141.0Y-139.4
X141.2Y-137.2
X142.0Y-129.8
X142.15Y-122.6
X142.4Y-126.6
X142.6Y-127.8
X142.8Y-69.9
X142.94Y-141.48
X143.7Y-132.5
X143.8Y-138.4
X144.1Y-91.148
X144.132Y-99.346
X144.585Y-101.6
X144.6Y-129.0
X144.8Y-122.7
X144.85Y-56.55
X145.1Y-89.55
X145.2Y-127.0
X145.755Y-88.895
X146.7Y-120.0
X146.725Y-81.675
X147.0Y-122.5
X147.2Y-129.4
X147.25Y-107.24
X147.375Y-91.025
X148.4Y-126.4
X148.85Y-96.05
X149.1Y-71.3
X149.148Y-138.4
X149.4Y-128.2
X149.45Y-103.0
X149.621Y-95.398
X149.8Y-127.052
X149.985Y-140.985
X151.0Y-120.3
X151.1Y-97.55
X151.6Y-132.4
X151.6Y-137.4
X151.8Y-118.6
X151.8Y-142.2
X151.9Y-119.578
X152.2Y-61.052
X152.2Y-70.6
X152.35Y-105.55
X152.35Y-115.55
X152.6Y-136.1
X152.8Y-129.6
X152.8Y-132.4
X153.0Y-127.8
X155.531Y-122.096
X156.6Y-121.2
X156.6Y-134.2
X157.0Y-128.0
X157.4Y-131.6
X157.6Y-127.0
X157.6Y-139.6
X158.0Y-119.2
X158.2Y-124.6
X158.3Y-129.3
X158.6Y-137.2
X159.014Y-131.05
X159.834Y-133.766
X160.4Y-120.0
X160.486Y-131.6
X161.1Y-135.0
X161.4Y-124.6
X162.0Y-127.8
X162.2Y-125.8
X162.85Y-138.148
X163.6Y-127.8
X163.6Y-138.8
X163.9Y-135.0
X165.0Y-126.8
X165.6Y-139.2
X168.4Y-138.4
X169.0Y-128.0
X169.4Y-146.4
X169.8Y-129.2
X170.4Y-138.4
X170.65Y-63.66
X171.6Y-66.0
X172.5Y-129.2
X172.6Y-146.4
X172.8Y-62.6
X176.4Y-144.8
X178.6Y-83.6
X178.6Y-97.0
X178.6Y-111.2
X178.927Y-139.6
X179.5Y-75.0
X179.5Y-137.2
X179.8Y-102.6
X179.8Y-122.8
T2
X139.05Y-64.59
X141.34Y-64.59
X142.35Y-57.99
X143.366Y-59.77
X144.382Y-57.99
X145.398Y-59.77
X146.414Y-57.99
X147.43Y-59.77
X148.446Y-57.99
X149.462Y-59.77
X150.48Y-64.59
X152.77Y-64.59
T3
X117.0Y-74.0
X119.54Y-74.0
T4
X137.78Y-58.88
X154.04Y-58.88
T0
M30
