%TF.GenerationSoftware,KiCad,Pcbnew,5.1.10*%
%TF.CreationDate,2021-11-19T14:48:17+01:00*%
%TF.ProjectId,Teebeutel,54656562-6575-4746-956c-2e6b69636164,v0.1*%
%TF.SameCoordinates,Original*%
%TF.FileFunction,Soldermask,Top*%
%TF.FilePolarity,Negative*%
%FSLAX46Y46*%
G04 Gerber Fmt 4.6, Leading zero omitted, Abs format (unit mm)*
G04 Created by KiCad (PCBNEW 5.1.10) date 2021-11-19 14:48:17*
%MOMM*%
%LPD*%
G01*
G04 APERTURE LIST*
%TA.AperFunction,Profile*%
%ADD10C,0.100000*%
%TD*%
%ADD11C,1.000000*%
%ADD12R,1.060000X0.650000*%
%ADD13R,2.500000X1.800000*%
%ADD14R,1.400000X0.700000*%
%ADD15R,1.400000X1.600000*%
%ADD16R,2.200000X1.200000*%
%ADD17R,2.300000X3.100000*%
%ADD18R,0.300000X1.100000*%
%ADD19C,0.100000*%
%ADD20R,0.420000X1.300000*%
%ADD21R,1.300000X0.420000*%
%ADD22C,1.500000*%
%ADD23C,2.300000*%
%ADD24C,3.250000*%
%ADD25R,1.500000X1.500000*%
%ADD26R,2.000000X1.500000*%
%ADD27R,2.000000X3.800000*%
%ADD28R,0.650000X1.060000*%
%ADD29R,0.250000X0.150000*%
%ADD30R,0.600000X0.200000*%
%ADD31R,0.200000X0.600000*%
%ADD32R,0.900000X0.800000*%
%ADD33O,1.700000X1.700000*%
%ADD34R,1.700000X1.700000*%
%ADD35R,1.800000X2.500000*%
%ADD36R,0.700000X0.600000*%
%ADD37R,2.000000X0.900000*%
%ADD38R,0.900000X2.000000*%
%ADD39R,5.000000X5.000000*%
%ADD40R,0.800000X1.000000*%
%ADD41R,1.500000X0.700000*%
%ADD42C,0.900000*%
%ADD43R,0.350000X0.375000*%
%ADD44R,0.375000X0.350000*%
G04 APERTURE END LIST*
D10*
X133000000Y-76000000D02*
G75*
G02*
X133000000Y-74000000I0J1000000D01*
G01*
X159000000Y-74000000D02*
G75*
G02*
X159000000Y-76000000I0J-1000000D01*
G01*
X133000000Y-74000000D02*
X159000000Y-74000000D01*
X159000000Y-76000000D02*
X133000000Y-76000000D01*
X126800000Y-50000000D02*
X110000000Y-68000000D01*
X167700000Y-50000000D02*
X182000000Y-68000000D01*
X110000000Y-150000000D02*
X182000000Y-150000000D01*
X126800000Y-50000000D02*
X167700000Y-50000000D01*
X110000000Y-150000000D02*
X110000000Y-68000000D01*
X182000000Y-68000000D02*
X182000000Y-150000000D01*
%TO.C,C21*%
G36*
G01*
X162250000Y-129675000D02*
X161750000Y-129675000D01*
G75*
G02*
X161525000Y-129450000I0J225000D01*
G01*
X161525000Y-129000000D01*
G75*
G02*
X161750000Y-128775000I225000J0D01*
G01*
X162250000Y-128775000D01*
G75*
G02*
X162475000Y-129000000I0J-225000D01*
G01*
X162475000Y-129450000D01*
G75*
G02*
X162250000Y-129675000I-225000J0D01*
G01*
G37*
G36*
G01*
X162250000Y-131225000D02*
X161750000Y-131225000D01*
G75*
G02*
X161525000Y-131000000I0J225000D01*
G01*
X161525000Y-130550000D01*
G75*
G02*
X161750000Y-130325000I225000J0D01*
G01*
X162250000Y-130325000D01*
G75*
G02*
X162475000Y-130550000I0J-225000D01*
G01*
X162475000Y-131000000D01*
G75*
G02*
X162250000Y-131225000I-225000J0D01*
G01*
G37*
%TD*%
%TO.C,C19*%
G36*
G01*
X163850000Y-129675000D02*
X163350000Y-129675000D01*
G75*
G02*
X163125000Y-129450000I0J225000D01*
G01*
X163125000Y-129000000D01*
G75*
G02*
X163350000Y-128775000I225000J0D01*
G01*
X163850000Y-128775000D01*
G75*
G02*
X164075000Y-129000000I0J-225000D01*
G01*
X164075000Y-129450000D01*
G75*
G02*
X163850000Y-129675000I-225000J0D01*
G01*
G37*
G36*
G01*
X163850000Y-131225000D02*
X163350000Y-131225000D01*
G75*
G02*
X163125000Y-131000000I0J225000D01*
G01*
X163125000Y-130550000D01*
G75*
G02*
X163350000Y-130325000I225000J0D01*
G01*
X163850000Y-130325000D01*
G75*
G02*
X164075000Y-130550000I0J-225000D01*
G01*
X164075000Y-131000000D01*
G75*
G02*
X163850000Y-131225000I-225000J0D01*
G01*
G37*
%TD*%
%TO.C,C4*%
G36*
G01*
X158650000Y-141475000D02*
X158150000Y-141475000D01*
G75*
G02*
X157925000Y-141250000I0J225000D01*
G01*
X157925000Y-140800000D01*
G75*
G02*
X158150000Y-140575000I225000J0D01*
G01*
X158650000Y-140575000D01*
G75*
G02*
X158875000Y-140800000I0J-225000D01*
G01*
X158875000Y-141250000D01*
G75*
G02*
X158650000Y-141475000I-225000J0D01*
G01*
G37*
G36*
G01*
X158650000Y-143025000D02*
X158150000Y-143025000D01*
G75*
G02*
X157925000Y-142800000I0J225000D01*
G01*
X157925000Y-142350000D01*
G75*
G02*
X158150000Y-142125000I225000J0D01*
G01*
X158650000Y-142125000D01*
G75*
G02*
X158875000Y-142350000I0J-225000D01*
G01*
X158875000Y-142800000D01*
G75*
G02*
X158650000Y-143025000I-225000J0D01*
G01*
G37*
%TD*%
%TO.C,C1*%
G36*
G01*
X157050000Y-141475000D02*
X156550000Y-141475000D01*
G75*
G02*
X156325000Y-141250000I0J225000D01*
G01*
X156325000Y-140800000D01*
G75*
G02*
X156550000Y-140575000I225000J0D01*
G01*
X157050000Y-140575000D01*
G75*
G02*
X157275000Y-140800000I0J-225000D01*
G01*
X157275000Y-141250000D01*
G75*
G02*
X157050000Y-141475000I-225000J0D01*
G01*
G37*
G36*
G01*
X157050000Y-143025000D02*
X156550000Y-143025000D01*
G75*
G02*
X156325000Y-142800000I0J225000D01*
G01*
X156325000Y-142350000D01*
G75*
G02*
X156550000Y-142125000I225000J0D01*
G01*
X157050000Y-142125000D01*
G75*
G02*
X157275000Y-142350000I0J-225000D01*
G01*
X157275000Y-142800000D01*
G75*
G02*
X157050000Y-143025000I-225000J0D01*
G01*
G37*
%TD*%
%TO.C,R8*%
G36*
G01*
X140775000Y-67825000D02*
X140775000Y-67275000D01*
G75*
G02*
X140975000Y-67075000I200000J0D01*
G01*
X141375000Y-67075000D01*
G75*
G02*
X141575000Y-67275000I0J-200000D01*
G01*
X141575000Y-67825000D01*
G75*
G02*
X141375000Y-68025000I-200000J0D01*
G01*
X140975000Y-68025000D01*
G75*
G02*
X140775000Y-67825000I0J200000D01*
G01*
G37*
G36*
G01*
X139125000Y-67825000D02*
X139125000Y-67275000D01*
G75*
G02*
X139325000Y-67075000I200000J0D01*
G01*
X139725000Y-67075000D01*
G75*
G02*
X139925000Y-67275000I0J-200000D01*
G01*
X139925000Y-67825000D01*
G75*
G02*
X139725000Y-68025000I-200000J0D01*
G01*
X139325000Y-68025000D01*
G75*
G02*
X139125000Y-67825000I0J200000D01*
G01*
G37*
%TD*%
%TO.C,R6*%
G36*
G01*
X157075000Y-64975000D02*
X157625000Y-64975000D01*
G75*
G02*
X157825000Y-65175000I0J-200000D01*
G01*
X157825000Y-65575000D01*
G75*
G02*
X157625000Y-65775000I-200000J0D01*
G01*
X157075000Y-65775000D01*
G75*
G02*
X156875000Y-65575000I0J200000D01*
G01*
X156875000Y-65175000D01*
G75*
G02*
X157075000Y-64975000I200000J0D01*
G01*
G37*
G36*
G01*
X157075000Y-63325000D02*
X157625000Y-63325000D01*
G75*
G02*
X157825000Y-63525000I0J-200000D01*
G01*
X157825000Y-63925000D01*
G75*
G02*
X157625000Y-64125000I-200000J0D01*
G01*
X157075000Y-64125000D01*
G75*
G02*
X156875000Y-63925000I0J200000D01*
G01*
X156875000Y-63525000D01*
G75*
G02*
X157075000Y-63325000I200000J0D01*
G01*
G37*
%TD*%
D11*
%TO.C,TP31*%
X147350000Y-92800000D03*
%TD*%
%TO.C,TP28*%
X145100000Y-92800000D03*
%TD*%
%TO.C,TP27*%
X152350000Y-100550000D03*
%TD*%
%TO.C,TP9*%
X123000000Y-112400000D03*
%TD*%
%TO.C,TP8*%
X136400000Y-119600000D03*
%TD*%
%TO.C,TP7*%
X134200000Y-119600000D03*
%TD*%
%TO.C,TP6*%
X132000000Y-119600000D03*
%TD*%
%TO.C,C24*%
G36*
G01*
X127850000Y-79875000D02*
X127350000Y-79875000D01*
G75*
G02*
X127125000Y-79650000I0J225000D01*
G01*
X127125000Y-79200000D01*
G75*
G02*
X127350000Y-78975000I225000J0D01*
G01*
X127850000Y-78975000D01*
G75*
G02*
X128075000Y-79200000I0J-225000D01*
G01*
X128075000Y-79650000D01*
G75*
G02*
X127850000Y-79875000I-225000J0D01*
G01*
G37*
G36*
G01*
X127850000Y-81425000D02*
X127350000Y-81425000D01*
G75*
G02*
X127125000Y-81200000I0J225000D01*
G01*
X127125000Y-80750000D01*
G75*
G02*
X127350000Y-80525000I225000J0D01*
G01*
X127850000Y-80525000D01*
G75*
G02*
X128075000Y-80750000I0J-225000D01*
G01*
X128075000Y-81200000D01*
G75*
G02*
X127850000Y-81425000I-225000J0D01*
G01*
G37*
%TD*%
%TO.C,C20*%
G36*
G01*
X127350000Y-76925000D02*
X127850000Y-76925000D01*
G75*
G02*
X128075000Y-77150000I0J-225000D01*
G01*
X128075000Y-77600000D01*
G75*
G02*
X127850000Y-77825000I-225000J0D01*
G01*
X127350000Y-77825000D01*
G75*
G02*
X127125000Y-77600000I0J225000D01*
G01*
X127125000Y-77150000D01*
G75*
G02*
X127350000Y-76925000I225000J0D01*
G01*
G37*
G36*
G01*
X127350000Y-75375000D02*
X127850000Y-75375000D01*
G75*
G02*
X128075000Y-75600000I0J-225000D01*
G01*
X128075000Y-76050000D01*
G75*
G02*
X127850000Y-76275000I-225000J0D01*
G01*
X127350000Y-76275000D01*
G75*
G02*
X127125000Y-76050000I0J225000D01*
G01*
X127125000Y-75600000D01*
G75*
G02*
X127350000Y-75375000I225000J0D01*
G01*
G37*
%TD*%
D12*
%TO.C,U3*%
X146700000Y-69900000D03*
X146700000Y-68950000D03*
X146700000Y-70850000D03*
X144500000Y-70850000D03*
X144500000Y-69900000D03*
X144500000Y-68950000D03*
%TD*%
%TO.C,F1*%
G36*
G01*
X148643750Y-69450000D02*
X149556250Y-69450000D01*
G75*
G02*
X149800000Y-69693750I0J-243750D01*
G01*
X149800000Y-70181250D01*
G75*
G02*
X149556250Y-70425000I-243750J0D01*
G01*
X148643750Y-70425000D01*
G75*
G02*
X148400000Y-70181250I0J243750D01*
G01*
X148400000Y-69693750D01*
G75*
G02*
X148643750Y-69450000I243750J0D01*
G01*
G37*
G36*
G01*
X148643750Y-67575000D02*
X149556250Y-67575000D01*
G75*
G02*
X149800000Y-67818750I0J-243750D01*
G01*
X149800000Y-68306250D01*
G75*
G02*
X149556250Y-68550000I-243750J0D01*
G01*
X148643750Y-68550000D01*
G75*
G02*
X148400000Y-68306250I0J243750D01*
G01*
X148400000Y-67818750D01*
G75*
G02*
X148643750Y-67575000I243750J0D01*
G01*
G37*
%TD*%
D13*
%TO.C,D11*%
X158200000Y-70500000D03*
X154200000Y-70500000D03*
%TD*%
%TO.C,C18*%
G36*
G01*
X156525000Y-68050000D02*
X156525000Y-67550000D01*
G75*
G02*
X156750000Y-67325000I225000J0D01*
G01*
X157200000Y-67325000D01*
G75*
G02*
X157425000Y-67550000I0J-225000D01*
G01*
X157425000Y-68050000D01*
G75*
G02*
X157200000Y-68275000I-225000J0D01*
G01*
X156750000Y-68275000D01*
G75*
G02*
X156525000Y-68050000I0J225000D01*
G01*
G37*
G36*
G01*
X154975000Y-68050000D02*
X154975000Y-67550000D01*
G75*
G02*
X155200000Y-67325000I225000J0D01*
G01*
X155650000Y-67325000D01*
G75*
G02*
X155875000Y-67550000I0J-225000D01*
G01*
X155875000Y-68050000D01*
G75*
G02*
X155650000Y-68275000I-225000J0D01*
G01*
X155200000Y-68275000D01*
G75*
G02*
X154975000Y-68050000I0J225000D01*
G01*
G37*
%TD*%
%TO.C,C15*%
G36*
G01*
X152775000Y-67550000D02*
X152775000Y-68050000D01*
G75*
G02*
X152550000Y-68275000I-225000J0D01*
G01*
X152100000Y-68275000D01*
G75*
G02*
X151875000Y-68050000I0J225000D01*
G01*
X151875000Y-67550000D01*
G75*
G02*
X152100000Y-67325000I225000J0D01*
G01*
X152550000Y-67325000D01*
G75*
G02*
X152775000Y-67550000I0J-225000D01*
G01*
G37*
G36*
G01*
X154325000Y-67550000D02*
X154325000Y-68050000D01*
G75*
G02*
X154100000Y-68275000I-225000J0D01*
G01*
X153650000Y-68275000D01*
G75*
G02*
X153425000Y-68050000I0J225000D01*
G01*
X153425000Y-67550000D01*
G75*
G02*
X153650000Y-67325000I225000J0D01*
G01*
X154100000Y-67325000D01*
G75*
G02*
X154325000Y-67550000I0J-225000D01*
G01*
G37*
%TD*%
D14*
%TO.C,J3*%
X166300000Y-127525000D03*
X166300000Y-128625000D03*
X166300000Y-129725000D03*
X166300000Y-130825000D03*
X166300000Y-131925000D03*
X166300000Y-133025000D03*
X166300000Y-134125000D03*
X166300000Y-135225000D03*
X166300000Y-136325000D03*
D15*
X166900000Y-137775000D03*
X166900000Y-122925000D03*
D16*
X176500000Y-137525000D03*
X176500000Y-122025000D03*
%TD*%
D17*
%TO.C,J4*%
X137080000Y-85650000D03*
X154920000Y-85650000D03*
D18*
X138750000Y-87350000D03*
X139250000Y-87350000D03*
X139750000Y-87350000D03*
X140250000Y-87350000D03*
X140750000Y-87350000D03*
X141250000Y-87350000D03*
X141750000Y-87350000D03*
X142250000Y-87350000D03*
X142750000Y-87350000D03*
X143250000Y-87350000D03*
X143750000Y-87350000D03*
X144250000Y-87350000D03*
X144750000Y-87350000D03*
X145250000Y-87350000D03*
X145750000Y-87350000D03*
X146250000Y-87350000D03*
X146750000Y-87350000D03*
X147250000Y-87350000D03*
X147750000Y-87350000D03*
X148250000Y-87350000D03*
X148750000Y-87350000D03*
X149250000Y-87350000D03*
X149750000Y-87350000D03*
X150250000Y-87350000D03*
X150750000Y-87350000D03*
X151250000Y-87350000D03*
X151750000Y-87350000D03*
X152250000Y-87350000D03*
X152750000Y-87350000D03*
X153250000Y-87350000D03*
%TD*%
D19*
%TO.C,D13*%
G36*
X122533062Y-58396405D02*
G01*
X121582302Y-57509807D01*
X121868742Y-57202639D01*
X122819502Y-58089237D01*
X122533062Y-58396405D01*
G37*
G36*
X121953363Y-59018056D02*
G01*
X121002603Y-58131458D01*
X121289043Y-57824290D01*
X122239803Y-58710888D01*
X121953363Y-59018056D01*
G37*
G36*
X121373664Y-59639707D02*
G01*
X120422904Y-58753109D01*
X120709344Y-58445941D01*
X121660104Y-59332539D01*
X121373664Y-59639707D01*
G37*
G36*
X120793966Y-60261357D02*
G01*
X119843206Y-59374759D01*
X120129646Y-59067591D01*
X121080406Y-59954189D01*
X120793966Y-60261357D01*
G37*
%TD*%
D20*
%TO.C,D12*%
X170725000Y-148000000D03*
X171575000Y-148000000D03*
X172425000Y-148000000D03*
X173275000Y-148000000D03*
%TD*%
D21*
%TO.C,D10*%
X112000000Y-78725000D03*
X112000000Y-79575000D03*
X112000000Y-80425000D03*
X112000000Y-81275000D03*
%TD*%
%TO.C,D9*%
X180000000Y-141275000D03*
X180000000Y-140425000D03*
X180000000Y-139575000D03*
X180000000Y-138725000D03*
%TD*%
%TO.C,D8*%
X112000000Y-98725000D03*
X112000000Y-99575000D03*
X112000000Y-100425000D03*
X112000000Y-101275000D03*
%TD*%
%TO.C,D7*%
X180000000Y-121275000D03*
X180000000Y-120425000D03*
X180000000Y-119575000D03*
X180000000Y-118725000D03*
%TD*%
%TO.C,D6*%
X112000000Y-118725000D03*
X112000000Y-119575000D03*
X112000000Y-120425000D03*
X112000000Y-121275000D03*
%TD*%
%TO.C,D5*%
X180000000Y-101275000D03*
X180000000Y-100425000D03*
X180000000Y-99575000D03*
X180000000Y-98725000D03*
%TD*%
%TO.C,D4*%
X112000000Y-138725000D03*
X112000000Y-139575000D03*
X112000000Y-140425000D03*
X112000000Y-141275000D03*
%TD*%
%TO.C,D3*%
X180000000Y-81275000D03*
X180000000Y-80425000D03*
X180000000Y-79575000D03*
X180000000Y-78725000D03*
%TD*%
D20*
%TO.C,D2*%
X118725000Y-148000000D03*
X119575000Y-148000000D03*
X120425000Y-148000000D03*
X121275000Y-148000000D03*
%TD*%
D19*
%TO.C,D1*%
G36*
X173441675Y-61480627D02*
G01*
X174459065Y-60671358D01*
X174720521Y-61000053D01*
X173703131Y-61809322D01*
X173441675Y-61480627D01*
G37*
G36*
X172912538Y-60815410D02*
G01*
X173929928Y-60006141D01*
X174191384Y-60334836D01*
X173173994Y-61144105D01*
X172912538Y-60815410D01*
G37*
G36*
X172383400Y-60150193D02*
G01*
X173400790Y-59340924D01*
X173662246Y-59669619D01*
X172644856Y-60478888D01*
X172383400Y-60150193D01*
G37*
G36*
X171854263Y-59484976D02*
G01*
X172871653Y-58675707D01*
X173133109Y-59004402D01*
X172115719Y-59813671D01*
X171854263Y-59484976D01*
G37*
%TD*%
D11*
%TO.C,TP21*%
X163200000Y-62200000D03*
%TD*%
%TO.C,R25*%
G36*
G01*
X160325000Y-62475000D02*
X160325000Y-61925000D01*
G75*
G02*
X160525000Y-61725000I200000J0D01*
G01*
X160925000Y-61725000D01*
G75*
G02*
X161125000Y-61925000I0J-200000D01*
G01*
X161125000Y-62475000D01*
G75*
G02*
X160925000Y-62675000I-200000J0D01*
G01*
X160525000Y-62675000D01*
G75*
G02*
X160325000Y-62475000I0J200000D01*
G01*
G37*
G36*
G01*
X158675000Y-62475000D02*
X158675000Y-61925000D01*
G75*
G02*
X158875000Y-61725000I200000J0D01*
G01*
X159275000Y-61725000D01*
G75*
G02*
X159475000Y-61925000I0J-200000D01*
G01*
X159475000Y-62475000D01*
G75*
G02*
X159275000Y-62675000I-200000J0D01*
G01*
X158875000Y-62675000D01*
G75*
G02*
X158675000Y-62475000I0J200000D01*
G01*
G37*
%TD*%
%TO.C,TP22*%
X157000000Y-136250000D03*
%TD*%
D22*
%TO.C,J1*%
X152770000Y-64590000D03*
X150480000Y-64590000D03*
X141340000Y-64590000D03*
X139050000Y-64590000D03*
D23*
X137780000Y-58880000D03*
X154040000Y-58880000D03*
D24*
X152260000Y-55450000D03*
X139560000Y-55450000D03*
D22*
X149462000Y-59770000D03*
X147430000Y-59770000D03*
X145398000Y-59770000D03*
X143366000Y-59770000D03*
X148446000Y-57990000D03*
X146414000Y-57990000D03*
X144382000Y-57990000D03*
D25*
X142350000Y-57990000D03*
%TD*%
%TO.C,D15*%
G36*
G01*
X132580000Y-52956250D02*
X132580000Y-52043750D01*
G75*
G02*
X132823750Y-51800000I243750J0D01*
G01*
X133311250Y-51800000D01*
G75*
G02*
X133555000Y-52043750I0J-243750D01*
G01*
X133555000Y-52956250D01*
G75*
G02*
X133311250Y-53200000I-243750J0D01*
G01*
X132823750Y-53200000D01*
G75*
G02*
X132580000Y-52956250I0J243750D01*
G01*
G37*
G36*
G01*
X130705000Y-52956250D02*
X130705000Y-52043750D01*
G75*
G02*
X130948750Y-51800000I243750J0D01*
G01*
X131436250Y-51800000D01*
G75*
G02*
X131680000Y-52043750I0J-243750D01*
G01*
X131680000Y-52956250D01*
G75*
G02*
X131436250Y-53200000I-243750J0D01*
G01*
X130948750Y-53200000D01*
G75*
G02*
X130705000Y-52956250I0J243750D01*
G01*
G37*
%TD*%
%TO.C,D14*%
G36*
G01*
X160320000Y-52956250D02*
X160320000Y-52043750D01*
G75*
G02*
X160563750Y-51800000I243750J0D01*
G01*
X161051250Y-51800000D01*
G75*
G02*
X161295000Y-52043750I0J-243750D01*
G01*
X161295000Y-52956250D01*
G75*
G02*
X161051250Y-53200000I-243750J0D01*
G01*
X160563750Y-53200000D01*
G75*
G02*
X160320000Y-52956250I0J243750D01*
G01*
G37*
G36*
G01*
X158445000Y-52956250D02*
X158445000Y-52043750D01*
G75*
G02*
X158688750Y-51800000I243750J0D01*
G01*
X159176250Y-51800000D01*
G75*
G02*
X159420000Y-52043750I0J-243750D01*
G01*
X159420000Y-52956250D01*
G75*
G02*
X159176250Y-53200000I-243750J0D01*
G01*
X158688750Y-53200000D01*
G75*
G02*
X158445000Y-52956250I0J243750D01*
G01*
G37*
%TD*%
%TO.C,R11*%
G36*
G01*
X162375000Y-132125000D02*
X162375000Y-132675000D01*
G75*
G02*
X162175000Y-132875000I-200000J0D01*
G01*
X161775000Y-132875000D01*
G75*
G02*
X161575000Y-132675000I0J200000D01*
G01*
X161575000Y-132125000D01*
G75*
G02*
X161775000Y-131925000I200000J0D01*
G01*
X162175000Y-131925000D01*
G75*
G02*
X162375000Y-132125000I0J-200000D01*
G01*
G37*
G36*
G01*
X164025000Y-132125000D02*
X164025000Y-132675000D01*
G75*
G02*
X163825000Y-132875000I-200000J0D01*
G01*
X163425000Y-132875000D01*
G75*
G02*
X163225000Y-132675000I0J200000D01*
G01*
X163225000Y-132125000D01*
G75*
G02*
X163425000Y-131925000I200000J0D01*
G01*
X163825000Y-131925000D01*
G75*
G02*
X164025000Y-132125000I0J-200000D01*
G01*
G37*
%TD*%
%TO.C,R26*%
G36*
G01*
X122275000Y-138725000D02*
X122275000Y-139275000D01*
G75*
G02*
X122075000Y-139475000I-200000J0D01*
G01*
X121675000Y-139475000D01*
G75*
G02*
X121475000Y-139275000I0J200000D01*
G01*
X121475000Y-138725000D01*
G75*
G02*
X121675000Y-138525000I200000J0D01*
G01*
X122075000Y-138525000D01*
G75*
G02*
X122275000Y-138725000I0J-200000D01*
G01*
G37*
G36*
G01*
X123925000Y-138725000D02*
X123925000Y-139275000D01*
G75*
G02*
X123725000Y-139475000I-200000J0D01*
G01*
X123325000Y-139475000D01*
G75*
G02*
X123125000Y-139275000I0J200000D01*
G01*
X123125000Y-138725000D01*
G75*
G02*
X123325000Y-138525000I200000J0D01*
G01*
X123725000Y-138525000D01*
G75*
G02*
X123925000Y-138725000I0J-200000D01*
G01*
G37*
%TD*%
D12*
%TO.C,U8*%
X119800000Y-135250000D03*
X119800000Y-137150000D03*
X117600000Y-137150000D03*
X117600000Y-136200000D03*
X117600000Y-135250000D03*
%TD*%
D26*
%TO.C,U11*%
X118350000Y-123700000D03*
X118350000Y-128300000D03*
X118350000Y-126000000D03*
D27*
X124650000Y-126000000D03*
%TD*%
D12*
%TO.C,U10*%
X132000000Y-111750000D03*
X132000000Y-112700000D03*
X132000000Y-110800000D03*
X134200000Y-110800000D03*
X134200000Y-111750000D03*
X134200000Y-112700000D03*
%TD*%
D28*
%TO.C,U5*%
X128450000Y-69100000D03*
X126550000Y-69100000D03*
X126550000Y-66900000D03*
X127500000Y-66900000D03*
X128450000Y-66900000D03*
%TD*%
D29*
%TO.C,U9*%
X125025000Y-138125000D03*
D30*
X125200000Y-137700000D03*
D31*
X125200000Y-137050000D03*
X125600000Y-137050000D03*
X126000000Y-137050000D03*
X126400000Y-137050000D03*
X126800000Y-137050000D03*
D30*
X126800000Y-137700000D03*
D31*
X126800000Y-138350000D03*
X126400000Y-138350000D03*
X126000000Y-138350000D03*
X125600000Y-138350000D03*
X125200000Y-138350000D03*
%TD*%
D29*
%TO.C,U4*%
X126175000Y-77975000D03*
D30*
X126000000Y-78400000D03*
D31*
X126000000Y-79050000D03*
X125600000Y-79050000D03*
X125200000Y-79050000D03*
X124800000Y-79050000D03*
X124400000Y-79050000D03*
D30*
X124400000Y-78400000D03*
D31*
X124400000Y-77750000D03*
X124800000Y-77750000D03*
X125200000Y-77750000D03*
X125600000Y-77750000D03*
X126000000Y-77750000D03*
%TD*%
D11*
%TO.C,TP32*%
X117500000Y-112200000D03*
%TD*%
%TO.C,TP30*%
X144600000Y-115200000D03*
%TD*%
%TO.C,TP29*%
X140600000Y-116300000D03*
%TD*%
%TO.C,TP26*%
X139600000Y-104800000D03*
%TD*%
%TO.C,TP23*%
X118800000Y-139200000D03*
%TD*%
%TO.C,TP20*%
X122400000Y-131000000D03*
%TD*%
%TO.C,TP19*%
X134000000Y-62000000D03*
%TD*%
%TO.C,TP10*%
X157400000Y-123600000D03*
%TD*%
%TO.C,TP12*%
X158000000Y-125800000D03*
%TD*%
%TO.C,TP13*%
X159000000Y-132600000D03*
%TD*%
%TO.C,TP11*%
X161800000Y-117400000D03*
%TD*%
%TO.C,TP25*%
X126800000Y-134800000D03*
%TD*%
%TO.C,TP24*%
X122400000Y-133400000D03*
%TD*%
%TO.C,TP5*%
X158600000Y-134600000D03*
%TD*%
%TO.C,TP4*%
X160200000Y-139000000D03*
%TD*%
%TO.C,TP18*%
X134800000Y-141300000D03*
%TD*%
%TO.C,TP17*%
X150200000Y-122200000D03*
%TD*%
%TO.C,TP16*%
X145600000Y-121600000D03*
%TD*%
%TO.C,TP15*%
X134800000Y-134400000D03*
%TD*%
%TO.C,TP14*%
X140400000Y-121600000D03*
%TD*%
%TO.C,TP3*%
X131600000Y-131400000D03*
%TD*%
%TO.C,TP2*%
X126200000Y-144400000D03*
%TD*%
%TO.C,TP1*%
X129400000Y-131400000D03*
%TD*%
%TO.C,R29*%
G36*
G01*
X132175000Y-107925000D02*
X131625000Y-107925000D01*
G75*
G02*
X131425000Y-107725000I0J200000D01*
G01*
X131425000Y-107325000D01*
G75*
G02*
X131625000Y-107125000I200000J0D01*
G01*
X132175000Y-107125000D01*
G75*
G02*
X132375000Y-107325000I0J-200000D01*
G01*
X132375000Y-107725000D01*
G75*
G02*
X132175000Y-107925000I-200000J0D01*
G01*
G37*
G36*
G01*
X132175000Y-109575000D02*
X131625000Y-109575000D01*
G75*
G02*
X131425000Y-109375000I0J200000D01*
G01*
X131425000Y-108975000D01*
G75*
G02*
X131625000Y-108775000I200000J0D01*
G01*
X132175000Y-108775000D01*
G75*
G02*
X132375000Y-108975000I0J-200000D01*
G01*
X132375000Y-109375000D01*
G75*
G02*
X132175000Y-109575000I-200000J0D01*
G01*
G37*
%TD*%
%TO.C,R28*%
G36*
G01*
X137675000Y-107875000D02*
X137675000Y-107325000D01*
G75*
G02*
X137875000Y-107125000I200000J0D01*
G01*
X138275000Y-107125000D01*
G75*
G02*
X138475000Y-107325000I0J-200000D01*
G01*
X138475000Y-107875000D01*
G75*
G02*
X138275000Y-108075000I-200000J0D01*
G01*
X137875000Y-108075000D01*
G75*
G02*
X137675000Y-107875000I0J200000D01*
G01*
G37*
G36*
G01*
X136025000Y-107875000D02*
X136025000Y-107325000D01*
G75*
G02*
X136225000Y-107125000I200000J0D01*
G01*
X136625000Y-107125000D01*
G75*
G02*
X136825000Y-107325000I0J-200000D01*
G01*
X136825000Y-107875000D01*
G75*
G02*
X136625000Y-108075000I-200000J0D01*
G01*
X136225000Y-108075000D01*
G75*
G02*
X136025000Y-107875000I0J200000D01*
G01*
G37*
%TD*%
%TO.C,R27*%
G36*
G01*
X149575000Y-93025000D02*
X150125000Y-93025000D01*
G75*
G02*
X150325000Y-93225000I0J-200000D01*
G01*
X150325000Y-93625000D01*
G75*
G02*
X150125000Y-93825000I-200000J0D01*
G01*
X149575000Y-93825000D01*
G75*
G02*
X149375000Y-93625000I0J200000D01*
G01*
X149375000Y-93225000D01*
G75*
G02*
X149575000Y-93025000I200000J0D01*
G01*
G37*
G36*
G01*
X149575000Y-91375000D02*
X150125000Y-91375000D01*
G75*
G02*
X150325000Y-91575000I0J-200000D01*
G01*
X150325000Y-91975000D01*
G75*
G02*
X150125000Y-92175000I-200000J0D01*
G01*
X149575000Y-92175000D01*
G75*
G02*
X149375000Y-91975000I0J200000D01*
G01*
X149375000Y-91575000D01*
G75*
G02*
X149575000Y-91375000I200000J0D01*
G01*
G37*
%TD*%
%TO.C,R24*%
G36*
G01*
X141075000Y-94175000D02*
X140525000Y-94175000D01*
G75*
G02*
X140325000Y-93975000I0J200000D01*
G01*
X140325000Y-93575000D01*
G75*
G02*
X140525000Y-93375000I200000J0D01*
G01*
X141075000Y-93375000D01*
G75*
G02*
X141275000Y-93575000I0J-200000D01*
G01*
X141275000Y-93975000D01*
G75*
G02*
X141075000Y-94175000I-200000J0D01*
G01*
G37*
G36*
G01*
X141075000Y-95825000D02*
X140525000Y-95825000D01*
G75*
G02*
X140325000Y-95625000I0J200000D01*
G01*
X140325000Y-95225000D01*
G75*
G02*
X140525000Y-95025000I200000J0D01*
G01*
X141075000Y-95025000D01*
G75*
G02*
X141275000Y-95225000I0J-200000D01*
G01*
X141275000Y-95625000D01*
G75*
G02*
X141075000Y-95825000I-200000J0D01*
G01*
G37*
%TD*%
%TO.C,R21*%
G36*
G01*
X118325000Y-132225000D02*
X118325000Y-132775000D01*
G75*
G02*
X118125000Y-132975000I-200000J0D01*
G01*
X117725000Y-132975000D01*
G75*
G02*
X117525000Y-132775000I0J200000D01*
G01*
X117525000Y-132225000D01*
G75*
G02*
X117725000Y-132025000I200000J0D01*
G01*
X118125000Y-132025000D01*
G75*
G02*
X118325000Y-132225000I0J-200000D01*
G01*
G37*
G36*
G01*
X119975000Y-132225000D02*
X119975000Y-132775000D01*
G75*
G02*
X119775000Y-132975000I-200000J0D01*
G01*
X119375000Y-132975000D01*
G75*
G02*
X119175000Y-132775000I0J200000D01*
G01*
X119175000Y-132225000D01*
G75*
G02*
X119375000Y-132025000I200000J0D01*
G01*
X119775000Y-132025000D01*
G75*
G02*
X119975000Y-132225000I0J-200000D01*
G01*
G37*
%TD*%
%TO.C,R20*%
G36*
G01*
X119175000Y-131275000D02*
X119175000Y-130725000D01*
G75*
G02*
X119375000Y-130525000I200000J0D01*
G01*
X119775000Y-130525000D01*
G75*
G02*
X119975000Y-130725000I0J-200000D01*
G01*
X119975000Y-131275000D01*
G75*
G02*
X119775000Y-131475000I-200000J0D01*
G01*
X119375000Y-131475000D01*
G75*
G02*
X119175000Y-131275000I0J200000D01*
G01*
G37*
G36*
G01*
X117525000Y-131275000D02*
X117525000Y-130725000D01*
G75*
G02*
X117725000Y-130525000I200000J0D01*
G01*
X118125000Y-130525000D01*
G75*
G02*
X118325000Y-130725000I0J-200000D01*
G01*
X118325000Y-131275000D01*
G75*
G02*
X118125000Y-131475000I-200000J0D01*
G01*
X117725000Y-131475000D01*
G75*
G02*
X117525000Y-131275000I0J200000D01*
G01*
G37*
%TD*%
%TO.C,R18*%
G36*
G01*
X132555000Y-60275000D02*
X132555000Y-59725000D01*
G75*
G02*
X132755000Y-59525000I200000J0D01*
G01*
X133155000Y-59525000D01*
G75*
G02*
X133355000Y-59725000I0J-200000D01*
G01*
X133355000Y-60275000D01*
G75*
G02*
X133155000Y-60475000I-200000J0D01*
G01*
X132755000Y-60475000D01*
G75*
G02*
X132555000Y-60275000I0J200000D01*
G01*
G37*
G36*
G01*
X130905000Y-60275000D02*
X130905000Y-59725000D01*
G75*
G02*
X131105000Y-59525000I200000J0D01*
G01*
X131505000Y-59525000D01*
G75*
G02*
X131705000Y-59725000I0J-200000D01*
G01*
X131705000Y-60275000D01*
G75*
G02*
X131505000Y-60475000I-200000J0D01*
G01*
X131105000Y-60475000D01*
G75*
G02*
X130905000Y-60275000I0J200000D01*
G01*
G37*
%TD*%
%TO.C,R16*%
G36*
G01*
X127025000Y-65475000D02*
X127025000Y-64925000D01*
G75*
G02*
X127225000Y-64725000I200000J0D01*
G01*
X127625000Y-64725000D01*
G75*
G02*
X127825000Y-64925000I0J-200000D01*
G01*
X127825000Y-65475000D01*
G75*
G02*
X127625000Y-65675000I-200000J0D01*
G01*
X127225000Y-65675000D01*
G75*
G02*
X127025000Y-65475000I0J200000D01*
G01*
G37*
G36*
G01*
X125375000Y-65475000D02*
X125375000Y-64925000D01*
G75*
G02*
X125575000Y-64725000I200000J0D01*
G01*
X125975000Y-64725000D01*
G75*
G02*
X126175000Y-64925000I0J-200000D01*
G01*
X126175000Y-65475000D01*
G75*
G02*
X125975000Y-65675000I-200000J0D01*
G01*
X125575000Y-65675000D01*
G75*
G02*
X125375000Y-65475000I0J200000D01*
G01*
G37*
%TD*%
%TO.C,R23*%
G36*
G01*
X170125000Y-141625000D02*
X170675000Y-141625000D01*
G75*
G02*
X170875000Y-141825000I0J-200000D01*
G01*
X170875000Y-142225000D01*
G75*
G02*
X170675000Y-142425000I-200000J0D01*
G01*
X170125000Y-142425000D01*
G75*
G02*
X169925000Y-142225000I0J200000D01*
G01*
X169925000Y-141825000D01*
G75*
G02*
X170125000Y-141625000I200000J0D01*
G01*
G37*
G36*
G01*
X170125000Y-139975000D02*
X170675000Y-139975000D01*
G75*
G02*
X170875000Y-140175000I0J-200000D01*
G01*
X170875000Y-140575000D01*
G75*
G02*
X170675000Y-140775000I-200000J0D01*
G01*
X170125000Y-140775000D01*
G75*
G02*
X169925000Y-140575000I0J200000D01*
G01*
X169925000Y-140175000D01*
G75*
G02*
X170125000Y-139975000I200000J0D01*
G01*
G37*
%TD*%
%TO.C,R13*%
G36*
G01*
X130775000Y-67575000D02*
X130225000Y-67575000D01*
G75*
G02*
X130025000Y-67375000I0J200000D01*
G01*
X130025000Y-66975000D01*
G75*
G02*
X130225000Y-66775000I200000J0D01*
G01*
X130775000Y-66775000D01*
G75*
G02*
X130975000Y-66975000I0J-200000D01*
G01*
X130975000Y-67375000D01*
G75*
G02*
X130775000Y-67575000I-200000J0D01*
G01*
G37*
G36*
G01*
X130775000Y-69225000D02*
X130225000Y-69225000D01*
G75*
G02*
X130025000Y-69025000I0J200000D01*
G01*
X130025000Y-68625000D01*
G75*
G02*
X130225000Y-68425000I200000J0D01*
G01*
X130775000Y-68425000D01*
G75*
G02*
X130975000Y-68625000I0J-200000D01*
G01*
X130975000Y-69025000D01*
G75*
G02*
X130775000Y-69225000I-200000J0D01*
G01*
G37*
%TD*%
%TO.C,R10*%
G36*
G01*
X163625000Y-140775000D02*
X163075000Y-140775000D01*
G75*
G02*
X162875000Y-140575000I0J200000D01*
G01*
X162875000Y-140175000D01*
G75*
G02*
X163075000Y-139975000I200000J0D01*
G01*
X163625000Y-139975000D01*
G75*
G02*
X163825000Y-140175000I0J-200000D01*
G01*
X163825000Y-140575000D01*
G75*
G02*
X163625000Y-140775000I-200000J0D01*
G01*
G37*
G36*
G01*
X163625000Y-142425000D02*
X163075000Y-142425000D01*
G75*
G02*
X162875000Y-142225000I0J200000D01*
G01*
X162875000Y-141825000D01*
G75*
G02*
X163075000Y-141625000I200000J0D01*
G01*
X163625000Y-141625000D01*
G75*
G02*
X163825000Y-141825000I0J-200000D01*
G01*
X163825000Y-142225000D01*
G75*
G02*
X163625000Y-142425000I-200000J0D01*
G01*
G37*
%TD*%
%TO.C,R12*%
G36*
G01*
X165325000Y-141625000D02*
X165875000Y-141625000D01*
G75*
G02*
X166075000Y-141825000I0J-200000D01*
G01*
X166075000Y-142225000D01*
G75*
G02*
X165875000Y-142425000I-200000J0D01*
G01*
X165325000Y-142425000D01*
G75*
G02*
X165125000Y-142225000I0J200000D01*
G01*
X165125000Y-141825000D01*
G75*
G02*
X165325000Y-141625000I200000J0D01*
G01*
G37*
G36*
G01*
X165325000Y-139975000D02*
X165875000Y-139975000D01*
G75*
G02*
X166075000Y-140175000I0J-200000D01*
G01*
X166075000Y-140575000D01*
G75*
G02*
X165875000Y-140775000I-200000J0D01*
G01*
X165325000Y-140775000D01*
G75*
G02*
X165125000Y-140575000I0J200000D01*
G01*
X165125000Y-140175000D01*
G75*
G02*
X165325000Y-139975000I200000J0D01*
G01*
G37*
%TD*%
%TO.C,R9*%
G36*
G01*
X162125000Y-140775000D02*
X161575000Y-140775000D01*
G75*
G02*
X161375000Y-140575000I0J200000D01*
G01*
X161375000Y-140175000D01*
G75*
G02*
X161575000Y-139975000I200000J0D01*
G01*
X162125000Y-139975000D01*
G75*
G02*
X162325000Y-140175000I0J-200000D01*
G01*
X162325000Y-140575000D01*
G75*
G02*
X162125000Y-140775000I-200000J0D01*
G01*
G37*
G36*
G01*
X162125000Y-142425000D02*
X161575000Y-142425000D01*
G75*
G02*
X161375000Y-142225000I0J200000D01*
G01*
X161375000Y-141825000D01*
G75*
G02*
X161575000Y-141625000I200000J0D01*
G01*
X162125000Y-141625000D01*
G75*
G02*
X162325000Y-141825000I0J-200000D01*
G01*
X162325000Y-142225000D01*
G75*
G02*
X162125000Y-142425000I-200000J0D01*
G01*
G37*
%TD*%
%TO.C,R22*%
G36*
G01*
X133275000Y-138275000D02*
X132725000Y-138275000D01*
G75*
G02*
X132525000Y-138075000I0J200000D01*
G01*
X132525000Y-137675000D01*
G75*
G02*
X132725000Y-137475000I200000J0D01*
G01*
X133275000Y-137475000D01*
G75*
G02*
X133475000Y-137675000I0J-200000D01*
G01*
X133475000Y-138075000D01*
G75*
G02*
X133275000Y-138275000I-200000J0D01*
G01*
G37*
G36*
G01*
X133275000Y-139925000D02*
X132725000Y-139925000D01*
G75*
G02*
X132525000Y-139725000I0J200000D01*
G01*
X132525000Y-139325000D01*
G75*
G02*
X132725000Y-139125000I200000J0D01*
G01*
X133275000Y-139125000D01*
G75*
G02*
X133475000Y-139325000I0J-200000D01*
G01*
X133475000Y-139725000D01*
G75*
G02*
X133275000Y-139925000I-200000J0D01*
G01*
G37*
%TD*%
%TO.C,R19*%
G36*
G01*
X148025000Y-121225000D02*
X148575000Y-121225000D01*
G75*
G02*
X148775000Y-121425000I0J-200000D01*
G01*
X148775000Y-121825000D01*
G75*
G02*
X148575000Y-122025000I-200000J0D01*
G01*
X148025000Y-122025000D01*
G75*
G02*
X147825000Y-121825000I0J200000D01*
G01*
X147825000Y-121425000D01*
G75*
G02*
X148025000Y-121225000I200000J0D01*
G01*
G37*
G36*
G01*
X148025000Y-119575000D02*
X148575000Y-119575000D01*
G75*
G02*
X148775000Y-119775000I0J-200000D01*
G01*
X148775000Y-120175000D01*
G75*
G02*
X148575000Y-120375000I-200000J0D01*
G01*
X148025000Y-120375000D01*
G75*
G02*
X147825000Y-120175000I0J200000D01*
G01*
X147825000Y-119775000D01*
G75*
G02*
X148025000Y-119575000I200000J0D01*
G01*
G37*
%TD*%
%TO.C,R17*%
G36*
G01*
X143525000Y-121225000D02*
X144075000Y-121225000D01*
G75*
G02*
X144275000Y-121425000I0J-200000D01*
G01*
X144275000Y-121825000D01*
G75*
G02*
X144075000Y-122025000I-200000J0D01*
G01*
X143525000Y-122025000D01*
G75*
G02*
X143325000Y-121825000I0J200000D01*
G01*
X143325000Y-121425000D01*
G75*
G02*
X143525000Y-121225000I200000J0D01*
G01*
G37*
G36*
G01*
X143525000Y-119575000D02*
X144075000Y-119575000D01*
G75*
G02*
X144275000Y-119775000I0J-200000D01*
G01*
X144275000Y-120175000D01*
G75*
G02*
X144075000Y-120375000I-200000J0D01*
G01*
X143525000Y-120375000D01*
G75*
G02*
X143325000Y-120175000I0J200000D01*
G01*
X143325000Y-119775000D01*
G75*
G02*
X143525000Y-119575000I200000J0D01*
G01*
G37*
%TD*%
%TO.C,R15*%
G36*
G01*
X134875000Y-138275000D02*
X134325000Y-138275000D01*
G75*
G02*
X134125000Y-138075000I0J200000D01*
G01*
X134125000Y-137675000D01*
G75*
G02*
X134325000Y-137475000I200000J0D01*
G01*
X134875000Y-137475000D01*
G75*
G02*
X135075000Y-137675000I0J-200000D01*
G01*
X135075000Y-138075000D01*
G75*
G02*
X134875000Y-138275000I-200000J0D01*
G01*
G37*
G36*
G01*
X134875000Y-139925000D02*
X134325000Y-139925000D01*
G75*
G02*
X134125000Y-139725000I0J200000D01*
G01*
X134125000Y-139325000D01*
G75*
G02*
X134325000Y-139125000I200000J0D01*
G01*
X134875000Y-139125000D01*
G75*
G02*
X135075000Y-139325000I0J-200000D01*
G01*
X135075000Y-139725000D01*
G75*
G02*
X134875000Y-139925000I-200000J0D01*
G01*
G37*
%TD*%
%TO.C,R7*%
G36*
G01*
X129725000Y-80625000D02*
X130275000Y-80625000D01*
G75*
G02*
X130475000Y-80825000I0J-200000D01*
G01*
X130475000Y-81225000D01*
G75*
G02*
X130275000Y-81425000I-200000J0D01*
G01*
X129725000Y-81425000D01*
G75*
G02*
X129525000Y-81225000I0J200000D01*
G01*
X129525000Y-80825000D01*
G75*
G02*
X129725000Y-80625000I200000J0D01*
G01*
G37*
G36*
G01*
X129725000Y-78975000D02*
X130275000Y-78975000D01*
G75*
G02*
X130475000Y-79175000I0J-200000D01*
G01*
X130475000Y-79575000D01*
G75*
G02*
X130275000Y-79775000I-200000J0D01*
G01*
X129725000Y-79775000D01*
G75*
G02*
X129525000Y-79575000I0J200000D01*
G01*
X129525000Y-79175000D01*
G75*
G02*
X129725000Y-78975000I200000J0D01*
G01*
G37*
%TD*%
%TO.C,R14*%
G36*
G01*
X141925000Y-121225000D02*
X142475000Y-121225000D01*
G75*
G02*
X142675000Y-121425000I0J-200000D01*
G01*
X142675000Y-121825000D01*
G75*
G02*
X142475000Y-122025000I-200000J0D01*
G01*
X141925000Y-122025000D01*
G75*
G02*
X141725000Y-121825000I0J200000D01*
G01*
X141725000Y-121425000D01*
G75*
G02*
X141925000Y-121225000I200000J0D01*
G01*
G37*
G36*
G01*
X141925000Y-119575000D02*
X142475000Y-119575000D01*
G75*
G02*
X142675000Y-119775000I0J-200000D01*
G01*
X142675000Y-120175000D01*
G75*
G02*
X142475000Y-120375000I-200000J0D01*
G01*
X141925000Y-120375000D01*
G75*
G02*
X141725000Y-120175000I0J200000D01*
G01*
X141725000Y-119775000D01*
G75*
G02*
X141925000Y-119575000I200000J0D01*
G01*
G37*
%TD*%
%TO.C,R5*%
G36*
G01*
X134325000Y-129225000D02*
X134875000Y-129225000D01*
G75*
G02*
X135075000Y-129425000I0J-200000D01*
G01*
X135075000Y-129825000D01*
G75*
G02*
X134875000Y-130025000I-200000J0D01*
G01*
X134325000Y-130025000D01*
G75*
G02*
X134125000Y-129825000I0J200000D01*
G01*
X134125000Y-129425000D01*
G75*
G02*
X134325000Y-129225000I200000J0D01*
G01*
G37*
G36*
G01*
X134325000Y-127575000D02*
X134875000Y-127575000D01*
G75*
G02*
X135075000Y-127775000I0J-200000D01*
G01*
X135075000Y-128175000D01*
G75*
G02*
X134875000Y-128375000I-200000J0D01*
G01*
X134325000Y-128375000D01*
G75*
G02*
X134125000Y-128175000I0J200000D01*
G01*
X134125000Y-127775000D01*
G75*
G02*
X134325000Y-127575000I200000J0D01*
G01*
G37*
%TD*%
%TO.C,R4*%
G36*
G01*
X129525000Y-129225000D02*
X130075000Y-129225000D01*
G75*
G02*
X130275000Y-129425000I0J-200000D01*
G01*
X130275000Y-129825000D01*
G75*
G02*
X130075000Y-130025000I-200000J0D01*
G01*
X129525000Y-130025000D01*
G75*
G02*
X129325000Y-129825000I0J200000D01*
G01*
X129325000Y-129425000D01*
G75*
G02*
X129525000Y-129225000I200000J0D01*
G01*
G37*
G36*
G01*
X129525000Y-127575000D02*
X130075000Y-127575000D01*
G75*
G02*
X130275000Y-127775000I0J-200000D01*
G01*
X130275000Y-128175000D01*
G75*
G02*
X130075000Y-128375000I-200000J0D01*
G01*
X129525000Y-128375000D01*
G75*
G02*
X129325000Y-128175000I0J200000D01*
G01*
X129325000Y-127775000D01*
G75*
G02*
X129525000Y-127575000I200000J0D01*
G01*
G37*
%TD*%
%TO.C,R3*%
G36*
G01*
X134225000Y-123075000D02*
X134225000Y-122525000D01*
G75*
G02*
X134425000Y-122325000I200000J0D01*
G01*
X134825000Y-122325000D01*
G75*
G02*
X135025000Y-122525000I0J-200000D01*
G01*
X135025000Y-123075000D01*
G75*
G02*
X134825000Y-123275000I-200000J0D01*
G01*
X134425000Y-123275000D01*
G75*
G02*
X134225000Y-123075000I0J200000D01*
G01*
G37*
G36*
G01*
X132575000Y-123075000D02*
X132575000Y-122525000D01*
G75*
G02*
X132775000Y-122325000I200000J0D01*
G01*
X133175000Y-122325000D01*
G75*
G02*
X133375000Y-122525000I0J-200000D01*
G01*
X133375000Y-123075000D01*
G75*
G02*
X133175000Y-123275000I-200000J0D01*
G01*
X132775000Y-123275000D01*
G75*
G02*
X132575000Y-123075000I0J200000D01*
G01*
G37*
%TD*%
%TO.C,R2*%
G36*
G01*
X129425000Y-123075000D02*
X129425000Y-122525000D01*
G75*
G02*
X129625000Y-122325000I200000J0D01*
G01*
X130025000Y-122325000D01*
G75*
G02*
X130225000Y-122525000I0J-200000D01*
G01*
X130225000Y-123075000D01*
G75*
G02*
X130025000Y-123275000I-200000J0D01*
G01*
X129625000Y-123275000D01*
G75*
G02*
X129425000Y-123075000I0J200000D01*
G01*
G37*
G36*
G01*
X127775000Y-123075000D02*
X127775000Y-122525000D01*
G75*
G02*
X127975000Y-122325000I200000J0D01*
G01*
X128375000Y-122325000D01*
G75*
G02*
X128575000Y-122525000I0J-200000D01*
G01*
X128575000Y-123075000D01*
G75*
G02*
X128375000Y-123275000I-200000J0D01*
G01*
X127975000Y-123275000D01*
G75*
G02*
X127775000Y-123075000I0J200000D01*
G01*
G37*
%TD*%
%TO.C,R1*%
G36*
G01*
X145575000Y-96925000D02*
X145575000Y-97475000D01*
G75*
G02*
X145375000Y-97675000I-200000J0D01*
G01*
X144975000Y-97675000D01*
G75*
G02*
X144775000Y-97475000I0J200000D01*
G01*
X144775000Y-96925000D01*
G75*
G02*
X144975000Y-96725000I200000J0D01*
G01*
X145375000Y-96725000D01*
G75*
G02*
X145575000Y-96925000I0J-200000D01*
G01*
G37*
G36*
G01*
X147225000Y-96925000D02*
X147225000Y-97475000D01*
G75*
G02*
X147025000Y-97675000I-200000J0D01*
G01*
X146625000Y-97675000D01*
G75*
G02*
X146425000Y-97475000I0J200000D01*
G01*
X146425000Y-96925000D01*
G75*
G02*
X146625000Y-96725000I200000J0D01*
G01*
X147025000Y-96725000D01*
G75*
G02*
X147225000Y-96925000I0J-200000D01*
G01*
G37*
%TD*%
D32*
%TO.C,Q2*%
X132600000Y-125400000D03*
X134600000Y-124450000D03*
X134600000Y-126350000D03*
%TD*%
%TO.C,Q1*%
X127800000Y-125400000D03*
X129800000Y-124450000D03*
X129800000Y-126350000D03*
%TD*%
%TO.C,L1*%
G36*
G01*
X133525000Y-116475000D02*
X133525000Y-114325000D01*
G75*
G02*
X133775000Y-114075000I250000J0D01*
G01*
X134525000Y-114075000D01*
G75*
G02*
X134775000Y-114325000I0J-250000D01*
G01*
X134775000Y-116475000D01*
G75*
G02*
X134525000Y-116725000I-250000J0D01*
G01*
X133775000Y-116725000D01*
G75*
G02*
X133525000Y-116475000I0J250000D01*
G01*
G37*
G36*
G01*
X130725000Y-116475000D02*
X130725000Y-114325000D01*
G75*
G02*
X130975000Y-114075000I250000J0D01*
G01*
X131725000Y-114075000D01*
G75*
G02*
X131975000Y-114325000I0J-250000D01*
G01*
X131975000Y-116475000D01*
G75*
G02*
X131725000Y-116725000I-250000J0D01*
G01*
X130975000Y-116725000D01*
G75*
G02*
X130725000Y-116475000I0J250000D01*
G01*
G37*
%TD*%
D33*
%TO.C,J2*%
X119540000Y-74000000D03*
D34*
X117000000Y-74000000D03*
%TD*%
D35*
%TO.C,D19*%
X137000000Y-115450000D03*
X137000000Y-111450000D03*
%TD*%
D36*
%TO.C,D17*%
X140800000Y-100700000D03*
X140800000Y-99300000D03*
%TD*%
%TO.C,D16*%
X140800000Y-98100000D03*
X140800000Y-96700000D03*
%TD*%
%TO.C,C40*%
G36*
G01*
X124950000Y-141725000D02*
X125450000Y-141725000D01*
G75*
G02*
X125675000Y-141950000I0J-225000D01*
G01*
X125675000Y-142400000D01*
G75*
G02*
X125450000Y-142625000I-225000J0D01*
G01*
X124950000Y-142625000D01*
G75*
G02*
X124725000Y-142400000I0J225000D01*
G01*
X124725000Y-141950000D01*
G75*
G02*
X124950000Y-141725000I225000J0D01*
G01*
G37*
G36*
G01*
X124950000Y-140175000D02*
X125450000Y-140175000D01*
G75*
G02*
X125675000Y-140400000I0J-225000D01*
G01*
X125675000Y-140850000D01*
G75*
G02*
X125450000Y-141075000I-225000J0D01*
G01*
X124950000Y-141075000D01*
G75*
G02*
X124725000Y-140850000I0J225000D01*
G01*
X124725000Y-140400000D01*
G75*
G02*
X124950000Y-140175000I225000J0D01*
G01*
G37*
%TD*%
%TO.C,C39*%
G36*
G01*
X136925000Y-108900000D02*
X136925000Y-109400000D01*
G75*
G02*
X136700000Y-109625000I-225000J0D01*
G01*
X136250000Y-109625000D01*
G75*
G02*
X136025000Y-109400000I0J225000D01*
G01*
X136025000Y-108900000D01*
G75*
G02*
X136250000Y-108675000I225000J0D01*
G01*
X136700000Y-108675000D01*
G75*
G02*
X136925000Y-108900000I0J-225000D01*
G01*
G37*
G36*
G01*
X138475000Y-108900000D02*
X138475000Y-109400000D01*
G75*
G02*
X138250000Y-109625000I-225000J0D01*
G01*
X137800000Y-109625000D01*
G75*
G02*
X137575000Y-109400000I0J225000D01*
G01*
X137575000Y-108900000D01*
G75*
G02*
X137800000Y-108675000I225000J0D01*
G01*
X138250000Y-108675000D01*
G75*
G02*
X138475000Y-108900000I0J-225000D01*
G01*
G37*
%TD*%
%TO.C,C38*%
G36*
G01*
X127050000Y-128475000D02*
X126550000Y-128475000D01*
G75*
G02*
X126325000Y-128250000I0J225000D01*
G01*
X126325000Y-127800000D01*
G75*
G02*
X126550000Y-127575000I225000J0D01*
G01*
X127050000Y-127575000D01*
G75*
G02*
X127275000Y-127800000I0J-225000D01*
G01*
X127275000Y-128250000D01*
G75*
G02*
X127050000Y-128475000I-225000J0D01*
G01*
G37*
G36*
G01*
X127050000Y-130025000D02*
X126550000Y-130025000D01*
G75*
G02*
X126325000Y-129800000I0J225000D01*
G01*
X126325000Y-129350000D01*
G75*
G02*
X126550000Y-129125000I225000J0D01*
G01*
X127050000Y-129125000D01*
G75*
G02*
X127275000Y-129350000I0J-225000D01*
G01*
X127275000Y-129800000D01*
G75*
G02*
X127050000Y-130025000I-225000J0D01*
G01*
G37*
%TD*%
%TO.C,C37*%
G36*
G01*
X122850000Y-136425000D02*
X123350000Y-136425000D01*
G75*
G02*
X123575000Y-136650000I0J-225000D01*
G01*
X123575000Y-137100000D01*
G75*
G02*
X123350000Y-137325000I-225000J0D01*
G01*
X122850000Y-137325000D01*
G75*
G02*
X122625000Y-137100000I0J225000D01*
G01*
X122625000Y-136650000D01*
G75*
G02*
X122850000Y-136425000I225000J0D01*
G01*
G37*
G36*
G01*
X122850000Y-134875000D02*
X123350000Y-134875000D01*
G75*
G02*
X123575000Y-135100000I0J-225000D01*
G01*
X123575000Y-135550000D01*
G75*
G02*
X123350000Y-135775000I-225000J0D01*
G01*
X122850000Y-135775000D01*
G75*
G02*
X122625000Y-135550000I0J225000D01*
G01*
X122625000Y-135100000D01*
G75*
G02*
X122850000Y-134875000I225000J0D01*
G01*
G37*
%TD*%
%TO.C,C36*%
G36*
G01*
X129325000Y-110450000D02*
X129325000Y-110950000D01*
G75*
G02*
X129100000Y-111175000I-225000J0D01*
G01*
X128650000Y-111175000D01*
G75*
G02*
X128425000Y-110950000I0J225000D01*
G01*
X128425000Y-110450000D01*
G75*
G02*
X128650000Y-110225000I225000J0D01*
G01*
X129100000Y-110225000D01*
G75*
G02*
X129325000Y-110450000I0J-225000D01*
G01*
G37*
G36*
G01*
X130875000Y-110450000D02*
X130875000Y-110950000D01*
G75*
G02*
X130650000Y-111175000I-225000J0D01*
G01*
X130200000Y-111175000D01*
G75*
G02*
X129975000Y-110950000I0J225000D01*
G01*
X129975000Y-110450000D01*
G75*
G02*
X130200000Y-110225000I225000J0D01*
G01*
X130650000Y-110225000D01*
G75*
G02*
X130875000Y-110450000I0J-225000D01*
G01*
G37*
%TD*%
%TO.C,C35*%
G36*
G01*
X121250000Y-136425000D02*
X121750000Y-136425000D01*
G75*
G02*
X121975000Y-136650000I0J-225000D01*
G01*
X121975000Y-137100000D01*
G75*
G02*
X121750000Y-137325000I-225000J0D01*
G01*
X121250000Y-137325000D01*
G75*
G02*
X121025000Y-137100000I0J225000D01*
G01*
X121025000Y-136650000D01*
G75*
G02*
X121250000Y-136425000I225000J0D01*
G01*
G37*
G36*
G01*
X121250000Y-134875000D02*
X121750000Y-134875000D01*
G75*
G02*
X121975000Y-135100000I0J-225000D01*
G01*
X121975000Y-135550000D01*
G75*
G02*
X121750000Y-135775000I-225000J0D01*
G01*
X121250000Y-135775000D01*
G75*
G02*
X121025000Y-135550000I0J225000D01*
G01*
X121025000Y-135100000D01*
G75*
G02*
X121250000Y-134875000I225000J0D01*
G01*
G37*
%TD*%
%TO.C,C34*%
G36*
G01*
X154425000Y-92050000D02*
X154425000Y-91550000D01*
G75*
G02*
X154650000Y-91325000I225000J0D01*
G01*
X155100000Y-91325000D01*
G75*
G02*
X155325000Y-91550000I0J-225000D01*
G01*
X155325000Y-92050000D01*
G75*
G02*
X155100000Y-92275000I-225000J0D01*
G01*
X154650000Y-92275000D01*
G75*
G02*
X154425000Y-92050000I0J225000D01*
G01*
G37*
G36*
G01*
X152875000Y-92050000D02*
X152875000Y-91550000D01*
G75*
G02*
X153100000Y-91325000I225000J0D01*
G01*
X153550000Y-91325000D01*
G75*
G02*
X153775000Y-91550000I0J-225000D01*
G01*
X153775000Y-92050000D01*
G75*
G02*
X153550000Y-92275000I-225000J0D01*
G01*
X153100000Y-92275000D01*
G75*
G02*
X152875000Y-92050000I0J225000D01*
G01*
G37*
%TD*%
%TO.C,C33*%
G36*
G01*
X137350000Y-94925000D02*
X137850000Y-94925000D01*
G75*
G02*
X138075000Y-95150000I0J-225000D01*
G01*
X138075000Y-95600000D01*
G75*
G02*
X137850000Y-95825000I-225000J0D01*
G01*
X137350000Y-95825000D01*
G75*
G02*
X137125000Y-95600000I0J225000D01*
G01*
X137125000Y-95150000D01*
G75*
G02*
X137350000Y-94925000I225000J0D01*
G01*
G37*
G36*
G01*
X137350000Y-93375000D02*
X137850000Y-93375000D01*
G75*
G02*
X138075000Y-93600000I0J-225000D01*
G01*
X138075000Y-94050000D01*
G75*
G02*
X137850000Y-94275000I-225000J0D01*
G01*
X137350000Y-94275000D01*
G75*
G02*
X137125000Y-94050000I0J225000D01*
G01*
X137125000Y-93600000D01*
G75*
G02*
X137350000Y-93375000I225000J0D01*
G01*
G37*
%TD*%
%TO.C,C32*%
G36*
G01*
X134975000Y-91250000D02*
X134975000Y-91750000D01*
G75*
G02*
X134750000Y-91975000I-225000J0D01*
G01*
X134300000Y-91975000D01*
G75*
G02*
X134075000Y-91750000I0J225000D01*
G01*
X134075000Y-91250000D01*
G75*
G02*
X134300000Y-91025000I225000J0D01*
G01*
X134750000Y-91025000D01*
G75*
G02*
X134975000Y-91250000I0J-225000D01*
G01*
G37*
G36*
G01*
X136525000Y-91250000D02*
X136525000Y-91750000D01*
G75*
G02*
X136300000Y-91975000I-225000J0D01*
G01*
X135850000Y-91975000D01*
G75*
G02*
X135625000Y-91750000I0J225000D01*
G01*
X135625000Y-91250000D01*
G75*
G02*
X135850000Y-91025000I225000J0D01*
G01*
X136300000Y-91025000D01*
G75*
G02*
X136525000Y-91250000I0J-225000D01*
G01*
G37*
%TD*%
%TO.C,C31*%
G36*
G01*
X154425000Y-93550000D02*
X154425000Y-93050000D01*
G75*
G02*
X154650000Y-92825000I225000J0D01*
G01*
X155100000Y-92825000D01*
G75*
G02*
X155325000Y-93050000I0J-225000D01*
G01*
X155325000Y-93550000D01*
G75*
G02*
X155100000Y-93775000I-225000J0D01*
G01*
X154650000Y-93775000D01*
G75*
G02*
X154425000Y-93550000I0J225000D01*
G01*
G37*
G36*
G01*
X152875000Y-93550000D02*
X152875000Y-93050000D01*
G75*
G02*
X153100000Y-92825000I225000J0D01*
G01*
X153550000Y-92825000D01*
G75*
G02*
X153775000Y-93050000I0J-225000D01*
G01*
X153775000Y-93550000D01*
G75*
G02*
X153550000Y-93775000I-225000J0D01*
G01*
X153100000Y-93775000D01*
G75*
G02*
X152875000Y-93550000I0J225000D01*
G01*
G37*
%TD*%
%TO.C,C30*%
G36*
G01*
X138950000Y-94925000D02*
X139450000Y-94925000D01*
G75*
G02*
X139675000Y-95150000I0J-225000D01*
G01*
X139675000Y-95600000D01*
G75*
G02*
X139450000Y-95825000I-225000J0D01*
G01*
X138950000Y-95825000D01*
G75*
G02*
X138725000Y-95600000I0J225000D01*
G01*
X138725000Y-95150000D01*
G75*
G02*
X138950000Y-94925000I225000J0D01*
G01*
G37*
G36*
G01*
X138950000Y-93375000D02*
X139450000Y-93375000D01*
G75*
G02*
X139675000Y-93600000I0J-225000D01*
G01*
X139675000Y-94050000D01*
G75*
G02*
X139450000Y-94275000I-225000J0D01*
G01*
X138950000Y-94275000D01*
G75*
G02*
X138725000Y-94050000I0J225000D01*
G01*
X138725000Y-93600000D01*
G75*
G02*
X138950000Y-93375000I225000J0D01*
G01*
G37*
%TD*%
%TO.C,C29*%
G36*
G01*
X134975000Y-89450000D02*
X134975000Y-89950000D01*
G75*
G02*
X134750000Y-90175000I-225000J0D01*
G01*
X134300000Y-90175000D01*
G75*
G02*
X134075000Y-89950000I0J225000D01*
G01*
X134075000Y-89450000D01*
G75*
G02*
X134300000Y-89225000I225000J0D01*
G01*
X134750000Y-89225000D01*
G75*
G02*
X134975000Y-89450000I0J-225000D01*
G01*
G37*
G36*
G01*
X136525000Y-89450000D02*
X136525000Y-89950000D01*
G75*
G02*
X136300000Y-90175000I-225000J0D01*
G01*
X135850000Y-90175000D01*
G75*
G02*
X135625000Y-89950000I0J225000D01*
G01*
X135625000Y-89450000D01*
G75*
G02*
X135850000Y-89225000I225000J0D01*
G01*
X136300000Y-89225000D01*
G75*
G02*
X136525000Y-89450000I0J-225000D01*
G01*
G37*
%TD*%
%TO.C,C27*%
G36*
G01*
X157925000Y-138700000D02*
X157925000Y-138200000D01*
G75*
G02*
X158150000Y-137975000I225000J0D01*
G01*
X158600000Y-137975000D01*
G75*
G02*
X158825000Y-138200000I0J-225000D01*
G01*
X158825000Y-138700000D01*
G75*
G02*
X158600000Y-138925000I-225000J0D01*
G01*
X158150000Y-138925000D01*
G75*
G02*
X157925000Y-138700000I0J225000D01*
G01*
G37*
G36*
G01*
X156375000Y-138700000D02*
X156375000Y-138200000D01*
G75*
G02*
X156600000Y-137975000I225000J0D01*
G01*
X157050000Y-137975000D01*
G75*
G02*
X157275000Y-138200000I0J-225000D01*
G01*
X157275000Y-138700000D01*
G75*
G02*
X157050000Y-138925000I-225000J0D01*
G01*
X156600000Y-138925000D01*
G75*
G02*
X156375000Y-138700000I0J225000D01*
G01*
G37*
%TD*%
%TO.C,C28*%
G36*
G01*
X151350000Y-92925000D02*
X151850000Y-92925000D01*
G75*
G02*
X152075000Y-93150000I0J-225000D01*
G01*
X152075000Y-93600000D01*
G75*
G02*
X151850000Y-93825000I-225000J0D01*
G01*
X151350000Y-93825000D01*
G75*
G02*
X151125000Y-93600000I0J225000D01*
G01*
X151125000Y-93150000D01*
G75*
G02*
X151350000Y-92925000I225000J0D01*
G01*
G37*
G36*
G01*
X151350000Y-91375000D02*
X151850000Y-91375000D01*
G75*
G02*
X152075000Y-91600000I0J-225000D01*
G01*
X152075000Y-92050000D01*
G75*
G02*
X151850000Y-92275000I-225000J0D01*
G01*
X151350000Y-92275000D01*
G75*
G02*
X151125000Y-92050000I0J225000D01*
G01*
X151125000Y-91600000D01*
G75*
G02*
X151350000Y-91375000I225000J0D01*
G01*
G37*
%TD*%
%TO.C,C26*%
G36*
G01*
X123000000Y-74325000D02*
X123500000Y-74325000D01*
G75*
G02*
X123725000Y-74550000I0J-225000D01*
G01*
X123725000Y-75000000D01*
G75*
G02*
X123500000Y-75225000I-225000J0D01*
G01*
X123000000Y-75225000D01*
G75*
G02*
X122775000Y-75000000I0J225000D01*
G01*
X122775000Y-74550000D01*
G75*
G02*
X123000000Y-74325000I225000J0D01*
G01*
G37*
G36*
G01*
X123000000Y-72775000D02*
X123500000Y-72775000D01*
G75*
G02*
X123725000Y-73000000I0J-225000D01*
G01*
X123725000Y-73450000D01*
G75*
G02*
X123500000Y-73675000I-225000J0D01*
G01*
X123000000Y-73675000D01*
G75*
G02*
X122775000Y-73450000I0J225000D01*
G01*
X122775000Y-73000000D01*
G75*
G02*
X123000000Y-72775000I225000J0D01*
G01*
G37*
%TD*%
%TO.C,C23*%
G36*
G01*
X125000000Y-67675000D02*
X124500000Y-67675000D01*
G75*
G02*
X124275000Y-67450000I0J225000D01*
G01*
X124275000Y-67000000D01*
G75*
G02*
X124500000Y-66775000I225000J0D01*
G01*
X125000000Y-66775000D01*
G75*
G02*
X125225000Y-67000000I0J-225000D01*
G01*
X125225000Y-67450000D01*
G75*
G02*
X125000000Y-67675000I-225000J0D01*
G01*
G37*
G36*
G01*
X125000000Y-69225000D02*
X124500000Y-69225000D01*
G75*
G02*
X124275000Y-69000000I0J225000D01*
G01*
X124275000Y-68550000D01*
G75*
G02*
X124500000Y-68325000I225000J0D01*
G01*
X125000000Y-68325000D01*
G75*
G02*
X125225000Y-68550000I0J-225000D01*
G01*
X125225000Y-69000000D01*
G75*
G02*
X125000000Y-69225000I-225000J0D01*
G01*
G37*
%TD*%
%TO.C,C25*%
G36*
G01*
X168150000Y-141525000D02*
X168650000Y-141525000D01*
G75*
G02*
X168875000Y-141750000I0J-225000D01*
G01*
X168875000Y-142200000D01*
G75*
G02*
X168650000Y-142425000I-225000J0D01*
G01*
X168150000Y-142425000D01*
G75*
G02*
X167925000Y-142200000I0J225000D01*
G01*
X167925000Y-141750000D01*
G75*
G02*
X168150000Y-141525000I225000J0D01*
G01*
G37*
G36*
G01*
X168150000Y-139975000D02*
X168650000Y-139975000D01*
G75*
G02*
X168875000Y-140200000I0J-225000D01*
G01*
X168875000Y-140650000D01*
G75*
G02*
X168650000Y-140875000I-225000J0D01*
G01*
X168150000Y-140875000D01*
G75*
G02*
X167925000Y-140650000I0J225000D01*
G01*
X167925000Y-140200000D01*
G75*
G02*
X168150000Y-139975000I225000J0D01*
G01*
G37*
%TD*%
%TO.C,C22*%
G36*
G01*
X162350000Y-136125000D02*
X162850000Y-136125000D01*
G75*
G02*
X163075000Y-136350000I0J-225000D01*
G01*
X163075000Y-136800000D01*
G75*
G02*
X162850000Y-137025000I-225000J0D01*
G01*
X162350000Y-137025000D01*
G75*
G02*
X162125000Y-136800000I0J225000D01*
G01*
X162125000Y-136350000D01*
G75*
G02*
X162350000Y-136125000I225000J0D01*
G01*
G37*
G36*
G01*
X162350000Y-134575000D02*
X162850000Y-134575000D01*
G75*
G02*
X163075000Y-134800000I0J-225000D01*
G01*
X163075000Y-135250000D01*
G75*
G02*
X162850000Y-135475000I-225000J0D01*
G01*
X162350000Y-135475000D01*
G75*
G02*
X162125000Y-135250000I0J225000D01*
G01*
X162125000Y-134800000D01*
G75*
G02*
X162350000Y-134575000I225000J0D01*
G01*
G37*
%TD*%
%TO.C,C17*%
G36*
G01*
X120875000Y-61350000D02*
X120875000Y-61850000D01*
G75*
G02*
X120650000Y-62075000I-225000J0D01*
G01*
X120200000Y-62075000D01*
G75*
G02*
X119975000Y-61850000I0J225000D01*
G01*
X119975000Y-61350000D01*
G75*
G02*
X120200000Y-61125000I225000J0D01*
G01*
X120650000Y-61125000D01*
G75*
G02*
X120875000Y-61350000I0J-225000D01*
G01*
G37*
G36*
G01*
X122425000Y-61350000D02*
X122425000Y-61850000D01*
G75*
G02*
X122200000Y-62075000I-225000J0D01*
G01*
X121750000Y-62075000D01*
G75*
G02*
X121525000Y-61850000I0J225000D01*
G01*
X121525000Y-61350000D01*
G75*
G02*
X121750000Y-61125000I225000J0D01*
G01*
X122200000Y-61125000D01*
G75*
G02*
X122425000Y-61350000I0J-225000D01*
G01*
G37*
%TD*%
%TO.C,C16*%
G36*
G01*
X174550000Y-147525000D02*
X175050000Y-147525000D01*
G75*
G02*
X175275000Y-147750000I0J-225000D01*
G01*
X175275000Y-148200000D01*
G75*
G02*
X175050000Y-148425000I-225000J0D01*
G01*
X174550000Y-148425000D01*
G75*
G02*
X174325000Y-148200000I0J225000D01*
G01*
X174325000Y-147750000D01*
G75*
G02*
X174550000Y-147525000I225000J0D01*
G01*
G37*
G36*
G01*
X174550000Y-145975000D02*
X175050000Y-145975000D01*
G75*
G02*
X175275000Y-146200000I0J-225000D01*
G01*
X175275000Y-146650000D01*
G75*
G02*
X175050000Y-146875000I-225000J0D01*
G01*
X174550000Y-146875000D01*
G75*
G02*
X174325000Y-146650000I0J225000D01*
G01*
X174325000Y-146200000D01*
G75*
G02*
X174550000Y-145975000I225000J0D01*
G01*
G37*
%TD*%
%TO.C,C14*%
G36*
G01*
X111600000Y-84625000D02*
X112100000Y-84625000D01*
G75*
G02*
X112325000Y-84850000I0J-225000D01*
G01*
X112325000Y-85300000D01*
G75*
G02*
X112100000Y-85525000I-225000J0D01*
G01*
X111600000Y-85525000D01*
G75*
G02*
X111375000Y-85300000I0J225000D01*
G01*
X111375000Y-84850000D01*
G75*
G02*
X111600000Y-84625000I225000J0D01*
G01*
G37*
G36*
G01*
X111600000Y-83075000D02*
X112100000Y-83075000D01*
G75*
G02*
X112325000Y-83300000I0J-225000D01*
G01*
X112325000Y-83750000D01*
G75*
G02*
X112100000Y-83975000I-225000J0D01*
G01*
X111600000Y-83975000D01*
G75*
G02*
X111375000Y-83750000I0J225000D01*
G01*
X111375000Y-83300000D01*
G75*
G02*
X111600000Y-83075000I225000J0D01*
G01*
G37*
%TD*%
%TO.C,C13*%
G36*
G01*
X177075000Y-140150000D02*
X177075000Y-140650000D01*
G75*
G02*
X176850000Y-140875000I-225000J0D01*
G01*
X176400000Y-140875000D01*
G75*
G02*
X176175000Y-140650000I0J225000D01*
G01*
X176175000Y-140150000D01*
G75*
G02*
X176400000Y-139925000I225000J0D01*
G01*
X176850000Y-139925000D01*
G75*
G02*
X177075000Y-140150000I0J-225000D01*
G01*
G37*
G36*
G01*
X178625000Y-140150000D02*
X178625000Y-140650000D01*
G75*
G02*
X178400000Y-140875000I-225000J0D01*
G01*
X177950000Y-140875000D01*
G75*
G02*
X177725000Y-140650000I0J225000D01*
G01*
X177725000Y-140150000D01*
G75*
G02*
X177950000Y-139925000I225000J0D01*
G01*
X178400000Y-139925000D01*
G75*
G02*
X178625000Y-140150000I0J-225000D01*
G01*
G37*
%TD*%
%TO.C,C12*%
G36*
G01*
X111950000Y-123925000D02*
X112450000Y-123925000D01*
G75*
G02*
X112675000Y-124150000I0J-225000D01*
G01*
X112675000Y-124600000D01*
G75*
G02*
X112450000Y-124825000I-225000J0D01*
G01*
X111950000Y-124825000D01*
G75*
G02*
X111725000Y-124600000I0J225000D01*
G01*
X111725000Y-124150000D01*
G75*
G02*
X111950000Y-123925000I225000J0D01*
G01*
G37*
G36*
G01*
X111950000Y-122375000D02*
X112450000Y-122375000D01*
G75*
G02*
X112675000Y-122600000I0J-225000D01*
G01*
X112675000Y-123050000D01*
G75*
G02*
X112450000Y-123275000I-225000J0D01*
G01*
X111950000Y-123275000D01*
G75*
G02*
X111725000Y-123050000I0J225000D01*
G01*
X111725000Y-122600000D01*
G75*
G02*
X111950000Y-122375000I225000J0D01*
G01*
G37*
%TD*%
%TO.C,C11*%
G36*
G01*
X177475000Y-113150000D02*
X177475000Y-113650000D01*
G75*
G02*
X177250000Y-113875000I-225000J0D01*
G01*
X176800000Y-113875000D01*
G75*
G02*
X176575000Y-113650000I0J225000D01*
G01*
X176575000Y-113150000D01*
G75*
G02*
X176800000Y-112925000I225000J0D01*
G01*
X177250000Y-112925000D01*
G75*
G02*
X177475000Y-113150000I0J-225000D01*
G01*
G37*
G36*
G01*
X179025000Y-113150000D02*
X179025000Y-113650000D01*
G75*
G02*
X178800000Y-113875000I-225000J0D01*
G01*
X178350000Y-113875000D01*
G75*
G02*
X178125000Y-113650000I0J225000D01*
G01*
X178125000Y-113150000D01*
G75*
G02*
X178350000Y-112925000I225000J0D01*
G01*
X178800000Y-112925000D01*
G75*
G02*
X179025000Y-113150000I0J-225000D01*
G01*
G37*
%TD*%
%TO.C,C10*%
G36*
G01*
X111600000Y-104875000D02*
X112100000Y-104875000D01*
G75*
G02*
X112325000Y-105100000I0J-225000D01*
G01*
X112325000Y-105550000D01*
G75*
G02*
X112100000Y-105775000I-225000J0D01*
G01*
X111600000Y-105775000D01*
G75*
G02*
X111375000Y-105550000I0J225000D01*
G01*
X111375000Y-105100000D01*
G75*
G02*
X111600000Y-104875000I225000J0D01*
G01*
G37*
G36*
G01*
X111600000Y-103325000D02*
X112100000Y-103325000D01*
G75*
G02*
X112325000Y-103550000I0J-225000D01*
G01*
X112325000Y-104000000D01*
G75*
G02*
X112100000Y-104225000I-225000J0D01*
G01*
X111600000Y-104225000D01*
G75*
G02*
X111375000Y-104000000I0J225000D01*
G01*
X111375000Y-103550000D01*
G75*
G02*
X111600000Y-103325000I225000J0D01*
G01*
G37*
%TD*%
%TO.C,C9*%
G36*
G01*
X180250000Y-95875000D02*
X179750000Y-95875000D01*
G75*
G02*
X179525000Y-95650000I0J225000D01*
G01*
X179525000Y-95200000D01*
G75*
G02*
X179750000Y-94975000I225000J0D01*
G01*
X180250000Y-94975000D01*
G75*
G02*
X180475000Y-95200000I0J-225000D01*
G01*
X180475000Y-95650000D01*
G75*
G02*
X180250000Y-95875000I-225000J0D01*
G01*
G37*
G36*
G01*
X180250000Y-97425000D02*
X179750000Y-97425000D01*
G75*
G02*
X179525000Y-97200000I0J225000D01*
G01*
X179525000Y-96750000D01*
G75*
G02*
X179750000Y-96525000I225000J0D01*
G01*
X180250000Y-96525000D01*
G75*
G02*
X180475000Y-96750000I0J-225000D01*
G01*
X180475000Y-97200000D01*
G75*
G02*
X180250000Y-97425000I-225000J0D01*
G01*
G37*
%TD*%
%TO.C,C8*%
G36*
G01*
X147850000Y-100525000D02*
X148350000Y-100525000D01*
G75*
G02*
X148575000Y-100750000I0J-225000D01*
G01*
X148575000Y-101200000D01*
G75*
G02*
X148350000Y-101425000I-225000J0D01*
G01*
X147850000Y-101425000D01*
G75*
G02*
X147625000Y-101200000I0J225000D01*
G01*
X147625000Y-100750000D01*
G75*
G02*
X147850000Y-100525000I225000J0D01*
G01*
G37*
G36*
G01*
X147850000Y-98975000D02*
X148350000Y-98975000D01*
G75*
G02*
X148575000Y-99200000I0J-225000D01*
G01*
X148575000Y-99650000D01*
G75*
G02*
X148350000Y-99875000I-225000J0D01*
G01*
X147850000Y-99875000D01*
G75*
G02*
X147625000Y-99650000I0J225000D01*
G01*
X147625000Y-99200000D01*
G75*
G02*
X147850000Y-98975000I225000J0D01*
G01*
G37*
%TD*%
%TO.C,C7*%
G36*
G01*
X113550000Y-140725000D02*
X114050000Y-140725000D01*
G75*
G02*
X114275000Y-140950000I0J-225000D01*
G01*
X114275000Y-141400000D01*
G75*
G02*
X114050000Y-141625000I-225000J0D01*
G01*
X113550000Y-141625000D01*
G75*
G02*
X113325000Y-141400000I0J225000D01*
G01*
X113325000Y-140950000D01*
G75*
G02*
X113550000Y-140725000I225000J0D01*
G01*
G37*
G36*
G01*
X113550000Y-139175000D02*
X114050000Y-139175000D01*
G75*
G02*
X114275000Y-139400000I0J-225000D01*
G01*
X114275000Y-139850000D01*
G75*
G02*
X114050000Y-140075000I-225000J0D01*
G01*
X113550000Y-140075000D01*
G75*
G02*
X113325000Y-139850000I0J225000D01*
G01*
X113325000Y-139400000D01*
G75*
G02*
X113550000Y-139175000I225000J0D01*
G01*
G37*
%TD*%
%TO.C,C6*%
G36*
G01*
X179950000Y-83925000D02*
X180450000Y-83925000D01*
G75*
G02*
X180675000Y-84150000I0J-225000D01*
G01*
X180675000Y-84600000D01*
G75*
G02*
X180450000Y-84825000I-225000J0D01*
G01*
X179950000Y-84825000D01*
G75*
G02*
X179725000Y-84600000I0J225000D01*
G01*
X179725000Y-84150000D01*
G75*
G02*
X179950000Y-83925000I225000J0D01*
G01*
G37*
G36*
G01*
X179950000Y-82375000D02*
X180450000Y-82375000D01*
G75*
G02*
X180675000Y-82600000I0J-225000D01*
G01*
X180675000Y-83050000D01*
G75*
G02*
X180450000Y-83275000I-225000J0D01*
G01*
X179950000Y-83275000D01*
G75*
G02*
X179725000Y-83050000I0J225000D01*
G01*
X179725000Y-82600000D01*
G75*
G02*
X179950000Y-82375000I225000J0D01*
G01*
G37*
%TD*%
%TO.C,C5*%
G36*
G01*
X149550000Y-100525000D02*
X150050000Y-100525000D01*
G75*
G02*
X150275000Y-100750000I0J-225000D01*
G01*
X150275000Y-101200000D01*
G75*
G02*
X150050000Y-101425000I-225000J0D01*
G01*
X149550000Y-101425000D01*
G75*
G02*
X149325000Y-101200000I0J225000D01*
G01*
X149325000Y-100750000D01*
G75*
G02*
X149550000Y-100525000I225000J0D01*
G01*
G37*
G36*
G01*
X149550000Y-98975000D02*
X150050000Y-98975000D01*
G75*
G02*
X150275000Y-99200000I0J-225000D01*
G01*
X150275000Y-99650000D01*
G75*
G02*
X150050000Y-99875000I-225000J0D01*
G01*
X149550000Y-99875000D01*
G75*
G02*
X149325000Y-99650000I0J225000D01*
G01*
X149325000Y-99200000D01*
G75*
G02*
X149550000Y-98975000I225000J0D01*
G01*
G37*
%TD*%
%TO.C,C3*%
G36*
G01*
X122850000Y-145875000D02*
X122350000Y-145875000D01*
G75*
G02*
X122125000Y-145650000I0J225000D01*
G01*
X122125000Y-145200000D01*
G75*
G02*
X122350000Y-144975000I225000J0D01*
G01*
X122850000Y-144975000D01*
G75*
G02*
X123075000Y-145200000I0J-225000D01*
G01*
X123075000Y-145650000D01*
G75*
G02*
X122850000Y-145875000I-225000J0D01*
G01*
G37*
G36*
G01*
X122850000Y-147425000D02*
X122350000Y-147425000D01*
G75*
G02*
X122125000Y-147200000I0J225000D01*
G01*
X122125000Y-146750000D01*
G75*
G02*
X122350000Y-146525000I225000J0D01*
G01*
X122850000Y-146525000D01*
G75*
G02*
X123075000Y-146750000I0J-225000D01*
G01*
X123075000Y-147200000D01*
G75*
G02*
X122850000Y-147425000I-225000J0D01*
G01*
G37*
%TD*%
%TO.C,C2*%
G36*
G01*
X172725000Y-65050000D02*
X172725000Y-64550000D01*
G75*
G02*
X172950000Y-64325000I225000J0D01*
G01*
X173400000Y-64325000D01*
G75*
G02*
X173625000Y-64550000I0J-225000D01*
G01*
X173625000Y-65050000D01*
G75*
G02*
X173400000Y-65275000I-225000J0D01*
G01*
X172950000Y-65275000D01*
G75*
G02*
X172725000Y-65050000I0J225000D01*
G01*
G37*
G36*
G01*
X171175000Y-65050000D02*
X171175000Y-64550000D01*
G75*
G02*
X171400000Y-64325000I225000J0D01*
G01*
X171850000Y-64325000D01*
G75*
G02*
X172075000Y-64550000I0J-225000D01*
G01*
X172075000Y-65050000D01*
G75*
G02*
X171850000Y-65275000I-225000J0D01*
G01*
X171400000Y-65275000D01*
G75*
G02*
X171175000Y-65050000I0J225000D01*
G01*
G37*
%TD*%
D37*
%TO.C,U2*%
X137500000Y-142255000D03*
X137500000Y-140985000D03*
X137500000Y-139715000D03*
X137500000Y-138445000D03*
X137500000Y-137175000D03*
X137500000Y-135905000D03*
X137500000Y-134635000D03*
X137500000Y-133365000D03*
X137500000Y-132095000D03*
X137500000Y-130825000D03*
X137500000Y-129555000D03*
X137500000Y-128285000D03*
X137500000Y-127015000D03*
X137500000Y-125745000D03*
D38*
X140285000Y-124745000D03*
X141555000Y-124745000D03*
X142825000Y-124745000D03*
X144095000Y-124745000D03*
X145365000Y-124745000D03*
X146635000Y-124745000D03*
X147905000Y-124745000D03*
X149175000Y-124745000D03*
X150445000Y-124745000D03*
X151715000Y-124745000D03*
D37*
X154500000Y-125745000D03*
X154500000Y-127015000D03*
X154500000Y-128285000D03*
X154500000Y-129555000D03*
X154500000Y-130825000D03*
X154500000Y-132095000D03*
X154500000Y-133365000D03*
X154500000Y-134635000D03*
X154500000Y-135905000D03*
X154500000Y-137175000D03*
X154500000Y-138445000D03*
X154500000Y-139715000D03*
X154500000Y-140985000D03*
X154500000Y-142255000D03*
D39*
X147000000Y-134755000D03*
%TD*%
D40*
%TO.C,SW2*%
X113780000Y-126350000D03*
X113780000Y-133650000D03*
X111570000Y-133650000D03*
X111570000Y-126350000D03*
D41*
X114430000Y-132250000D03*
X114430000Y-130750000D03*
X114430000Y-127750000D03*
D42*
X112670000Y-131500000D03*
X112670000Y-128500000D03*
%TD*%
D43*
%TO.C,U1*%
X145750000Y-99237500D03*
X146250000Y-99237500D03*
X146250000Y-100762500D03*
X145750000Y-100762500D03*
D44*
X146762500Y-99250000D03*
X145237500Y-99250000D03*
X146762500Y-100750000D03*
X145237500Y-100750000D03*
X146762500Y-100250000D03*
X146762500Y-99750000D03*
X145237500Y-100250000D03*
X145237500Y-99750000D03*
%TD*%
M02*
